M48
;Layer_Color=9474304
;FILE_FORMAT=2:5
INCH,LZ
;TYPE=PLATED
T1F00S00C0.02756
T2F00S00C0.03150
T3F00S00C0.03543
T4F00S00C0.07874
%
T01
X0425374Y0241
Y0260685
X0465374Y0292
Y0299874
X0281
Y0292
X0241Y0260685
Y0241
Y0377874
Y0397559
X0281Y0428874
Y0436748
X0425374Y0397559
Y0377874
X0465374Y0428874
Y0436748
T02
X0471874Y02345
Y0265484
X0461874
X0451874
X0441874
Y02345
X0451874
X0461874
X02875
X02775
X02675
X02575
Y0265484
X02675
X02775
X02875
Y0371374
X02775
X02675
X02575
Y0402358
X02675
X02775
X02875
X0441874
X0451874
X0461874
Y0371374
X0451874
X0441874
X0471874
Y0402358
T03
X0469874Y0194
X0479874
X0489874
X0499874
X0509874
X0519874
X0529874
X0539874
X0549874
X0559874
X0569874
Y0204
X0559874
X0549874
X0539874
X0529874
X0519874
X0509874
X0499874
X0489874
X0479874
X0469874
X0459874
Y0194
X0449874
Y0204
X0439874
Y0194
X0429874
Y0204
X0419874
Y0194
X0409874
Y0204
X03855
Y0194
X03755
Y0204
X03655
Y0194
X03555
Y0204
X03455
Y0194
X03355
Y0204
X03255
Y0194
X03155
Y0204
X0417874Y02865
X0427874
X0437874
Y02965
X0427874
X0417874
X02535
Y02865
X02435
Y02965
X02335
Y02865
X02355Y0204
X02455
X02555
X02655
X02755
X02855
X02955
X03055
Y0194
X02955
X02855
X02755
X02655
X02555
X02455
X02355
X02255
Y0204
Y0330874
X02355
X02455
X02555
X02655
X02755
X02855
X02955
X03055
Y0340874
X02955
X02855
X02755
X02655
X02555
X02455
X02355
X02255
X02335Y0423374
X02435
X02535
Y0433374
X02435
X02335
X03155Y0340874
X03255
X03355
X03455
X03555
X03655
X03755
X03855
Y0330874
X03755
X03655
X03555
X03455
X03355
X03255
X03155
X0409874
X0419874
X0429874
X0439874
X0449874
X0459874
Y0340874
X0449874
X0439874
X0429874
X0419874
X0409874
X0417874Y0423374
X0427874
X0437874
Y0433374
X0427874
X0417874
X0469874Y0340874
X0479874
X0489874
X0499874
X0509874
X0519874
X0529874
X0539874
X0549874
X0559874
X0569874
Y0330874
X0559874
X0549874
X0539874
X0529874
X0519874
X0509874
X0499874
X0489874
X0479874
X0469874
T04
X0497787Y0239
Y0259
Y0279
Y0299
X0532787
Y0279
Y0259
Y0239
X0567287Y02395
Y02595
Y02795
Y02995
X0382913
Y02795
Y02595
Y02395
X0348413Y0239
Y0259
Y0279
Y0299
X0313413
Y0279
Y0259
Y0239
Y0375874
Y0395874
Y0415874
Y0435874
X0348413
Y0415874
Y0395874
Y0375874
X0382913Y0376374
Y0396374
Y0416374
Y0436374
X0497787Y0435874
Y0415874
Y0395874
Y0375874
X0532787
Y0395874
Y0415874
Y0435874
X0567287Y0436374
Y0416374
Y0396374
Y0376374
M30
