M48
;Layer_Color=9474304
;FILE_FORMAT=2:5
INCH,LZ
;TYPE=PLATED
T1F00S00C0.02756
T2F00S00C0.03150
T3F00S00C0.03543
T4F00S00C0.07874
%
T01
X0021Y00545
Y0074185
X0061Y01055
Y0113374
T02
X00375Y0048
X00475
X00575
X00675
Y0078984
X00575
X00475
X00375
T03
X01655Y00075
X01555
X01455
X01355
X01255
X01155
X01055
X00955
X00855
X00755
X00655
X00555
X00455
X00355
X00255
X00155
X00055
Y00175
X00155
X00255
X00355
X00455
X00555
X00655
X00755
X00855
X00955
X01055
X01155
X01255
X01355
X01455
X01555
X00335Y01
X00235
X00135
Y011
X00235
X00335
X01655Y00175
T04
X0093413Y00525
Y00725
Y00925
Y01125
X0128413
Y00925
Y00725
Y00525
X0162913Y0053
Y0073
Y0093
Y0113
M30
