  0
SECTION
  2
HEADER
  9
$ACADVER
  1
AC1014
  9
$HANDSEED
  5
FFFF
  9
$MEASUREMENT
 70
     1
  0
ENDSEC
  0
SECTION
  2
TABLES
  0
TABLE
  2
VPORT
  5
8
330
0
100
AcDbSymbolTable
 70
     4
  0
VPORT
  5
2E
330
8
100
AcDbSymbolTableRecord
100
AcDbViewportTableRecord
  2
*ACTIVE
 70
     0
 10
0.0
 20
0.0
 11
1.0
 21
1.0
 12
210.0
 22
148.5
 13
0.0
 23
0.0
 14
10.0
 24
10.0
 15
10.0
 25
10.0
 16
0.0
 26
0.0
 36
1.0
 17
0.0
 27
0.0
 37
0.0
 40
341.0
 41
1.24
 42
50.0
 43
0.0
 44
0.0
 50
0.0
 51
0.0
 71
     0
 72
   100
 73
     1
 74
     3
 75
     0
 76
     0
 77
     0
 78
     0
  0
ENDTAB
  0
TABLE
  2
LTYPE
  5
5
330
0
100
AcDbSymbolTable
 70
     1
  0
LTYPE
  5
14
330
5
100
AcDbSymbolTableRecord
100
AcDbLinetypeTableRecord
  2
BYBLOCK
 70
     0
  3

 72
    65
 73
     0
 40
0.0
  0
LTYPE
  5
15
330
5
100
AcDbSymbolTableRecord
100
AcDbLinetypeTableRecord
  2
BYLAYER
 70
     0
  3

 72
    65
 73
     0
 40
0.0
  0
LTYPE
  5
16
330
5
100
AcDbSymbolTableRecord
100
AcDbLinetypeTableRecord
  2
CONTINUOUS
 70
     0
  3
Solid line
 72
    65
 73
     0
 40
0.0
  0
ENDTAB
  0
TABLE
  2
LAYER
  5
2
100
AcDbSymbolTable
 70
2
  0
LAYER
  5
50
100
AcDbSymbolTableRecord
100
AcDbLayerTableRecord
  2
0
 70
0
  6
CONTINUOUS
  0
LAYER
  5
51
100
AcDbSymbolTableRecord
100
AcDbLayerTableRecord
  2
Layer_1
 70
0
  6
CONTINUOUS
  0
ENDTAB
  0
TABLE
  2
STYLE
  5
3
330
0
100
AcDbSymbolTable
 70
     1
  0
STYLE
  5
11
330
3
100
AcDbSymbolTableRecord
100
AcDbTextStyleTableRecord
  2
STANDARD
 70
     0
 40
0.0
 41
1.0
 50
0.0
 71
     0
 42
2.5
  3
txt
  4

  0
ENDTAB
  0
TABLE
  2
VIEW
  5
6
330
0
100
AcDbSymbolTable
 70
     0
  0
ENDTAB
  0
TABLE
  2
UCS
  5
7
330
0
100
AcDbSymbolTable
 70
     0
  0
ENDTAB
  0
TABLE
  2
APPID
  5
9
330
0
100
AcDbSymbolTable
 70
     2
  0
APPID
  5
12
330
9
100
AcDbSymbolTableRecord
100
AcDbRegAppTableRecord
  2
ACAD
 70
     0
  0
ENDTAB
  0
TABLE
  2
DIMSTYLE
  5
A
330
0
100
AcDbSymbolTable
 70
     1
  0
DIMSTYLE
105
27
330
A
100
AcDbSymbolTableRecord
100
AcDbDimStyleTableRecord
  2
ISO-25
 70
     0
  3

  4

  5

  6

  7

 40
1.0
 41
2.5
 42
0.625
 43
3.75
 44
1.25
 45
0.0
 46
0.0
 47
0.0
 48
0.0
140
2.5
141
2.5
142
0.0
143
0.03937007874016
144
1.0
145
0.0
146
1.0
147
0.625
 71
     0
 72
     0
 73
     0
 74
     0
 75
     0
 76
     0
 77
     1
 78
     8
170
     0
171
     3
172
     1
173
     0
174
     0
175
     0
176
     0
177
     0
178
     0
270
     2
271
     2
272
     2
273
     2
274
     3
340
11
275
     0
280
     0
281
     0
282
     0
283
     0
284
     8
285
     0
286
     0
287
     3
288
     0
  0
ENDTAB
  0
TABLE
  2
BLOCK_RECORD
  5
1
330
0
100
AcDbSymbolTable
 70
     1
  0
BLOCK_RECORD
  5
1F
330
1
100
AcDbSymbolTableRecord
100
AcDbBlockTableRecord
  2
*MODEL_SPACE
  0
BLOCK_RECORD
  5
1B
330
1
100
AcDbSymbolTableRecord
100
AcDbBlockTableRecord
  2
*PAPER_SPACE
  0
ENDTAB
  0
ENDSEC
  0
SECTION
  2
BLOCKS
  0
BLOCK
  5
20
330
1F
100
AcDbEntity
  8
0
100
AcDbBlockBegin
  2
*MODEL_SPACE
 70
     0
 10
0.0
 20
0.0
 30
0.0
  3
*MODEL_SPACE
  1

  0
ENDBLK
  5
21
330
1F
100
AcDbEntity
  8
0
100
AcDbBlockEnd
  0
BLOCK
  5
1C
330
1B
100
AcDbEntity
 67
     1
  8
0
100
AcDbBlockBegin
  2
*PAPER_SPACE
  1

  0
ENDBLK
  5
1D
330
1B
100
AcDbEntity
 67
     1
  8
0
100
AcDbBlockEnd
  0
ENDSEC
  0
SECTION
  2
ENTITIES
  0
LWPOLYLINE
  5
100
100
AcDbEntity
  8
Layer_1
 62
5
100
AcDbPolyline
 90
164
 70
1
 10
970.015013
 20
1763.291366
 30
0.0
 10
984.443360
 20
1763.291366
 30
0.0
 10
984.443360
 20
1780.299240
 30
0.0
 10
1013.300054
 20
1780.299240
 30
0.0
 10
1013.300054
 20
1763.291366
 30
0.0
 10
1042.156748
 20
1763.291366
 30
0.0
 10
1042.156748
 20
1780.299240
 30
0.0
 10
1071.013441
 20
1780.299240
 30
0.0
 10
1071.013441
 20
1763.291366
 30
0.0
 10
1099.870135
 20
1763.291366
 30
0.0
 10
1099.870135
 20
1780.299240
 30
0.0
 10
1128.726829
 20
1780.299240
 30
0.0
 10
1128.726829
 20
1763.291366
 30
0.0
 10
1157.583523
 20
1763.291366
 30
0.0
 10
1157.583523
 20
1780.299240
 30
0.0
 10
1186.440217
 20
1780.299240
 30
0.0
 10
1186.440217
 20
1763.291366
 30
0.0
 10
1215.296911
 20
1763.291366
 30
0.0
 10
1215.296911
 20
1780.299240
 30
0.0
 10
1244.153604
 20
1780.299240
 30
0.0
 10
1244.153604
 20
1763.291366
 30
0.0
 10
1258.581951
 20
1763.291366
 30
0.0
 10
1258.581951
 20
1744.393746
 30
0.0
 10
1275.589826
 20
1744.393746
 30
0.0
 10
1275.589826
 20
1706.598450
 30
0.0
 10
1258.581951
 20
1706.598450
 30
0.0
 10
1258.581951
 20
1668.803183
 30
0.0
 10
1275.589826
 20
1668.803183
 30
0.0
 10
1275.589826
 20
1631.007916
 30
0.0
 10
1258.581951
 20
1631.007916
 30
0.0
 10
1258.581951
 20
1593.212620
 30
0.0
 10
1275.589826
 20
1593.212620
 30
0.0
 10
1275.589826
 20
1555.417353
 30
0.0
 10
1258.581951
 20
1555.417353
 30
0.0
 10
1258.581951
 20
1517.622085
 30
0.0
 10
1275.589826
 20
1517.622085
 30
0.0
 10
1275.589826
 20
1479.826790
 30
0.0
 10
1258.581951
 20
1479.826790
 30
0.0
 10
1258.581951
 20
1442.031522
 30
0.0
 10
1275.589826
 20
1442.031522
 30
0.0
 10
1275.589826
 20
1404.236227
 30
0.0
 10
1258.581951
 20
1404.236227
 30
0.0
 10
1258.581951
 20
1366.440959
 30
0.0
 10
1275.589826
 20
1366.440959
 30
0.0
 10
1275.589826
 20
1328.645692
 30
0.0
 10
1258.581951
 20
1328.645692
 30
0.0
 10
1258.581951
 20
1290.850425
 30
0.0
 10
1275.589826
 20
1290.850425
 30
0.0
 10
1275.589826
 20
1253.055129
 30
0.0
 10
1258.581951
 20
1253.055129
 30
0.0
 10
1258.581951
 20
1215.259862
 30
0.0
 10
1275.589826
 20
1215.259862
 30
0.0
 10
1275.589826
 20
1177.464594
 30
0.0
 10
1258.581951
 20
1177.464594
 30
0.0
 10
1258.581951
 20
1139.669299
 30
0.0
 10
1275.589826
 20
1139.669299
 30
0.0
 10
1275.589826
 20
1101.874031
 30
0.0
 10
1258.581951
 20
1101.874031
 30
0.0
 10
1258.581951
 20
1064.078764
 30
0.0
 10
1275.589826
 20
1064.078764
 30
0.0
 10
1275.589826
 20
1026.283468
 30
0.0
 10
1258.581951
 20
1026.283468
 30
0.0
 10
1258.581951
 20
988.488201
 30
0.0
 10
1275.589826
 20
988.488201
 30
0.0
 10
1275.589826
 20
950.692934
 30
0.0
 10
1258.581951
 20
950.692934
 30
0.0
 10
1258.581951
 20
912.897638
 30
0.0
 10
1275.589826
 20
912.897638
 30
0.0
 10
1275.589826
 20
875.102371
 30
0.0
 10
1258.581951
 20
875.102371
 30
0.0
 10
1258.581951
 20
837.307103
 30
0.0
 10
1275.589826
 20
837.307103
 30
0.0
 10
1275.589826
 20
799.511808
 30
0.0
 10
1258.581951
 20
799.511808
 30
0.0
 10
1258.581951
 20
761.716427
 30
0.0
 10
1275.589826
 20
761.716427
 30
0.0
 10
1275.589826
 20
723.921245
 30
0.0
 10
1258.581951
 20
723.921245
 30
0.0
 10
1258.581951
 20
686.126062
 30
0.0
 10
1275.589826
 20
686.126062
 30
0.0
 10
1275.589826
 20
648.330880
 30
0.0
 10
1258.581951
 20
648.330880
 30
0.0
 10
1258.581951
 20
629.433147
 30
0.0
 10
1244.153604
 20
629.433147
 30
0.0
 10
1244.153604
 20
612.425273
 30
0.0
 10
1215.296911
 20
612.425273
 30
0.0
 10
1215.296911
 20
629.433147
 30
0.0
 10
1186.440217
 20
629.433147
 30
0.0
 10
1186.440217
 20
612.425273
 30
0.0
 10
1157.583523
 20
612.425273
 30
0.0
 10
1157.583523
 20
629.433147
 30
0.0
 10
1128.726829
 20
629.433147
 30
0.0
 10
1128.726829
 20
612.425273
 30
0.0
 10
1099.870135
 20
612.425273
 30
0.0
 10
1099.870135
 20
629.433147
 30
0.0
 10
1071.013441
 20
629.433147
 30
0.0
 10
1071.013441
 20
612.425273
 30
0.0
 10
1042.156748
 20
612.425273
 30
0.0
 10
1042.156748
 20
629.433147
 30
0.0
 10
1013.300054
 20
629.433147
 30
0.0
 10
1013.300054
 20
612.425273
 30
0.0
 10
984.443360
 20
612.425273
 30
0.0
 10
984.443360
 20
629.433147
 30
0.0
 10
970.015013
 20
629.433147
 30
0.0
 10
970.015013
 20
648.330880
 30
0.0
 10
953.007139
 20
648.330880
 30
0.0
 10
953.007139
 20
686.126062
 30
0.0
 10
970.015013
 20
686.126062
 30
0.0
 10
970.015013
 20
723.921245
 30
0.0
 10
953.007139
 20
723.921245
 30
0.0
 10
953.007139
 20
761.716427
 30
0.0
 10
970.015013
 20
761.716427
 30
0.0
 10
970.015013
 20
799.511808
 30
0.0
 10
953.007139
 20
799.511808
 30
0.0
 10
953.007139
 20
837.307103
 30
0.0
 10
970.015013
 20
837.307103
 30
0.0
 10
970.015013
 20
875.102371
 30
0.0
 10
953.007139
 20
875.102371
 30
0.0
 10
953.007139
 20
912.897638
 30
0.0
 10
970.015013
 20
912.897638
 30
0.0
 10
970.015013
 20
950.692934
 30
0.0
 10
953.007139
 20
950.692934
 30
0.0
 10
953.007139
 20
988.488201
 30
0.0
 10
970.015013
 20
988.488201
 30
0.0
 10
970.015013
 20
1026.283468
 30
0.0
 10
953.007139
 20
1026.283468
 30
0.0
 10
953.007139
 20
1064.078764
 30
0.0
 10
970.015013
 20
1064.078764
 30
0.0
 10
970.015013
 20
1101.874031
 30
0.0
 10
953.007139
 20
1101.874031
 30
0.0
 10
953.007139
 20
1139.669299
 30
0.0
 10
970.015013
 20
1139.669299
 30
0.0
 10
970.015013
 20
1177.464594
 30
0.0
 10
953.007139
 20
1177.464594
 30
0.0
 10
953.007139
 20
1215.259862
 30
0.0
 10
970.015013
 20
1215.259862
 30
0.0
 10
970.015013
 20
1253.055129
 30
0.0
 10
953.007139
 20
1253.055129
 30
0.0
 10
953.007139
 20
1290.850425
 30
0.0
 10
970.015013
 20
1290.850425
 30
0.0
 10
970.015013
 20
1328.645692
 30
0.0
 10
953.007139
 20
1328.645692
 30
0.0
 10
953.007139
 20
1366.440959
 30
0.0
 10
970.015013
 20
1366.440959
 30
0.0
 10
970.015013
 20
1404.236227
 30
0.0
 10
953.007139
 20
1404.236227
 30
0.0
 10
953.007139
 20
1442.031522
 30
0.0
 10
970.015013
 20
1442.031522
 30
0.0
 10
970.015013
 20
1479.826790
 30
0.0
 10
953.007139
 20
1479.826790
 30
0.0
 10
953.007139
 20
1517.622085
 30
0.0
 10
970.015013
 20
1517.622085
 30
0.0
 10
970.015013
 20
1555.417353
 30
0.0
 10
953.007139
 20
1555.417353
 30
0.0
 10
953.007139
 20
1593.212620
 30
0.0
 10
970.015013
 20
1593.212620
 30
0.0
 10
970.015013
 20
1631.007916
 30
0.0
 10
953.007139
 20
1631.007916
 30
0.0
 10
953.007139
 20
1668.803183
 30
0.0
 10
970.015013
 20
1668.803183
 30
0.0
 10
970.015013
 20
1706.598450
 30
0.0
 10
953.007139
 20
1706.598450
 30
0.0
 10
953.007139
 20
1744.393746
 30
0.0
 10
970.015013
 20
1744.393746
 30
0.0
  0
LWPOLYLINE
  5
101
100
AcDbEntity
  8
Layer_1
 62
5
100
AcDbPolyline
 90
3
 70
0
 10
953.007139
 20
612.425273
 30
0.0
 10
953.007139
 20
629.433147
 30
0.0
 10
970.015013
 20
629.433147
 30
0.0
  0
LWPOLYLINE
  5
102
100
AcDbEntity
  8
Layer_1
 62
5
100
AcDbPolyline
 90
60
 70
0
 10
1275.589826
 20
629.433147
 30
0.0
 10
1275.589826
 20
592.177682
 30
0.0
 10
1258.581951
 20
592.177682
 30
0.0
 10
1258.581951
 20
551.682783
 30
0.0
 10
1275.589826
 20
551.682783
 30
0.0
 10
1275.589826
 20
511.187884
 30
0.0
 10
1258.581951
 20
511.187884
 30
0.0
 10
1258.581951
 20
470.692985
 30
0.0
 10
1275.589826
 20
470.692985
 30
0.0
 10
1275.589826
 20
430.198086
 30
0.0
 10
1258.581951
 20
430.198086
 30
0.0
 10
1258.581951
 20
389.703187
 30
0.0
 10
1275.589826
 20
389.703187
 30
0.0
 10
1275.589826
 20
349.208288
 30
0.0
 10
1258.581951
 20
349.208288
 30
0.0
 10
1258.581951
 20
308.713389
 30
0.0
 10
1275.589826
 20
308.713389
 30
0.0
 10
1275.589826
 20
268.218490
 30
0.0
 10
1258.581951
 20
268.218490
 30
0.0
 10
1258.581951
 20
227.723591
 30
0.0
 10
1275.589826
 20
227.723591
 30
0.0
 10
1275.589826
 20
187.228409
 30
0.0
 10
1258.581951
 20
187.228409
 30
0.0
 10
1258.581951
 20
146.733510
 30
0.0
 10
1275.589826
 20
146.733510
 30
0.0
 10
1275.589826
 20
106.238611
 30
0.0
 10
1258.581951
 20
106.238611
 30
0.0
 10
1258.581951
 20
65.743712
 30
0.0
 10
1275.589826
 20
65.743712
 30
0.0
 10
1275.589826
 20
28.488247
 30
0.0
 10
953.007139
 20
28.488247
 30
0.0
 10
953.007139
 20
65.743712
 30
0.0
 10
970.015013
 20
65.743712
 30
0.0
 10
970.015013
 20
106.238611
 30
0.0
 10
953.007139
 20
106.238611
 30
0.0
 10
953.007139
 20
146.733510
 30
0.0
 10
970.015013
 20
146.733510
 30
0.0
 10
970.015013
 20
187.228409
 30
0.0
 10
953.007139
 20
187.228409
 30
0.0
 10
953.007139
 20
227.723591
 30
0.0
 10
970.015013
 20
227.723591
 30
0.0
 10
970.015013
 20
268.218490
 30
0.0
 10
953.007139
 20
268.218490
 30
0.0
 10
953.007139
 20
308.713389
 30
0.0
 10
970.015013
 20
308.713389
 30
0.0
 10
970.015013
 20
349.208288
 30
0.0
 10
953.007139
 20
349.208288
 30
0.0
 10
953.007139
 20
389.703187
 30
0.0
 10
970.015013
 20
389.703187
 30
0.0
 10
970.015013
 20
430.198086
 30
0.0
 10
953.007139
 20
430.198086
 30
0.0
 10
953.007139
 20
470.692985
 30
0.0
 10
970.015013
 20
470.692985
 30
0.0
 10
970.015013
 20
511.187884
 30
0.0
 10
953.007139
 20
511.187884
 30
0.0
 10
953.007139
 20
551.682783
 30
0.0
 10
970.015013
 20
551.682783
 30
0.0
 10
970.015013
 20
592.177682
 30
0.0
 10
953.007139
 20
592.177682
 30
0.0
 10
953.007139
 20
612.425273
 30
0.0
  0
SPLINE
  5
103
100
AcDbEntity
  8
Layer_1
 62
7
100
AcDbSpline
 70
8
 71
3
 72
8
 73
4
 74
0
 40
0
 40
0
 40
0
 40
0
 40
1
 40
1
 40
1
 40
1
 10
1796.991361
 20
1567.832846
 30
0.0
 10
1796.991361
 20
1565.502235
 30
0.0
 10
1795.099582
 20
1563.612901
 30
0.0
 10
1792.765955
 20
1563.612901
 30
0.0
  0
SPLINE
  5
104
100
AcDbEntity
  8
Layer_1
 62
7
100
AcDbSpline
 70
8
 71
3
 72
8
 73
4
 74
0
 40
0
 40
0
 40
0
 40
0
 40
1
 40
1
 40
1
 40
1
 10
1792.765955
 20
1563.612901
 30
0.0
 10
1790.432328
 20
1563.612901
 30
0.0
 10
1788.540550
 20
1565.502235
 30
0.0
 10
1788.540549
 20
1567.832846
 30
0.0
  0
SPLINE
  5
105
100
AcDbEntity
  8
Layer_1
 62
7
100
AcDbSpline
 70
8
 71
3
 72
8
 73
4
 74
0
 40
0
 40
0
 40
0
 40
0
 40
1
 40
1
 40
1
 40
1
 10
1788.540549
 20
1567.832846
 30
0.0
 10
1788.540549
 20
1569.340487
 30
0.0
 10
1789.345907
 20
1570.733605
 30
0.0
 10
1790.653252
 20
1571.487426
 30
0.0
  0
SPLINE
  5
106
100
AcDbEntity
  8
Layer_1
 62
7
100
AcDbSpline
 70
8
 71
3
 72
8
 73
4
 74
0
 40
0
 40
0
 40
0
 40
0
 40
1
 40
1
 40
1
 40
1
 10
1790.653252
 20
1571.487426
 30
0.0
 10
1791.960598
 20
1572.241247
 30
0.0
 10
1793.571313
 20
1572.241247
 30
0.0
 10
1794.878658
 20
1571.487426
 30
0.0
  0
SPLINE
  5
107
100
AcDbEntity
  8
Layer_1
 62
7
100
AcDbSpline
 70
8
 71
3
 72
8
 73
4
 74
0
 40
0
 40
0
 40
0
 40
0
 40
1
 40
1
 40
1
 40
1
 10
1794.878658
 20
1571.487426
 30
0.0
 10
1796.186004
 20
1570.733605
 30
0.0
 10
1796.991361
 20
1569.340487
 30
0.0
 10
1796.991361
 20
1567.832846
 30
0.0
  0
LWPOLYLINE
  5
108
100
AcDbEntity
  8
Layer_1
 62
5
100
AcDbPolyline
 90
70
 70
0
 10
1258.581951
 20
1763.291366
 30
0.0
 10
1295.837304
 20
1763.291366
 30
0.0
 10
1295.837304
 20
1780.299240
 30
0.0
 10
1336.332231
 20
1780.299240
 30
0.0
 10
1336.332231
 20
1763.291366
 30
0.0
 10
1376.827186
 20
1763.291366
 30
0.0
 10
1376.827186
 20
1780.299240
 30
0.0
 10
1417.322114
 20
1780.299240
 30
0.0
 10
1417.322114
 20
1763.291366
 30
0.0
 10
1457.817069
 20
1763.291366
 30
0.0
 10
1457.817069
 20
1780.299240
 30
0.0
 10
1498.311997
 20
1780.299240
 30
0.0
 10
1498.311997
 20
1763.291366
 30
0.0
 10
1538.806924
 20
1763.291366
 30
0.0
 10
1538.806924
 20
1780.299240
 30
0.0
 10
1579.301879
 20
1780.299240
 30
0.0
 10
1579.301879
 20
1763.291366
 30
0.0
 10
1619.796807
 20
1763.291366
 30
0.0
 10
1619.796807
 20
1780.299240
 30
0.0
 10
1660.291762
 20
1780.299240
 30
0.0
 10
1660.291762
 20
1763.291366
 30
0.0
 10
1700.786690
 20
1763.291366
 30
0.0
 10
1700.786690
 20
1780.299240
 30
0.0
 10
1741.281645
 20
1780.299240
 30
0.0
 10
1741.281645
 20
1763.291366
 30
0.0
 10
1781.776572
 20
1763.291366
 30
0.0
 10
1781.776572
 20
1780.299240
 30
0.0
 10
1822.271500
 20
1780.299240
 30
0.0
 10
1822.271500
 20
1763.291366
 30
0.0
 10
1859.526852
 20
1763.291366
 30
0.0
 10
1859.526852
 20
1744.393746
 30
0.0
 10
1842.518977
 20
1744.393746
 30
0.0
 10
1842.518977
 20
1706.598450
 30
0.0
 10
1859.526852
 20
1706.598450
 30
0.0
 10
1859.526852
 20
1668.803183
 30
0.0
 10
1842.518977
 20
1668.803183
 30
0.0
 10
1842.518977
 20
1631.007916
 30
0.0
 10
1859.526852
 20
1631.007916
 30
0.0
 10
1859.526852
 20
1621.700782
 30
0.0
 10
1859.526852
 20
629.433147
 30
0.0
 10
1822.271500
 20
629.433147
 30
0.0
 10
1822.271500
 20
612.425273
 30
0.0
 10
1781.776572
 20
612.425273
 30
0.0
 10
1781.776572
 20
629.433147
 30
0.0
 10
1741.281645
 20
629.433147
 30
0.0
 10
1741.281645
 20
612.425273
 30
0.0
 10
1700.786690
 20
612.425273
 30
0.0
 10
1700.786690
 20
629.433147
 30
0.0
 10
1660.291762
 20
629.433147
 30
0.0
 10
1660.291762
 20
612.425273
 30
0.0
 10
1619.796807
 20
612.425273
 30
0.0
 10
1619.796807
 20
629.433147
 30
0.0
 10
1579.301879
 20
629.433147
 30
0.0
 10
1579.301879
 20
612.425273
 30
0.0
 10
1538.806924
 20
612.425273
 30
0.0
 10
1538.806924
 20
629.433147
 30
0.0
 10
1498.311997
 20
629.433147
 30
0.0
 10
1498.311997
 20
612.425273
 30
0.0
 10
1457.817069
 20
612.425273
 30
0.0
 10
1457.817069
 20
629.433147
 30
0.0
 10
1417.322114
 20
629.433147
 30
0.0
 10
1417.322114
 20
612.425273
 30
0.0
 10
1376.827186
 20
612.425273
 30
0.0
 10
1376.827186
 20
629.433147
 30
0.0
 10
1336.332231
 20
629.433147
 30
0.0
 10
1336.332231
 20
612.425273
 30
0.0
 10
1295.837304
 20
612.425273
 30
0.0
 10
1295.837304
 20
629.433147
 30
0.0
 10
1275.589826
 20
629.433147
 30
0.0
 10
1258.581951
 20
629.433147
 30
0.0
  0
SPLINE
  5
109
100
AcDbEntity
  8
Layer_1
 62
7
100
AcDbSpline
 70
8
 71
3
 72
8
 73
4
 74
0
 40
0
 40
0
 40
0
 40
0
 40
1
 40
1
 40
1
 40
1
 10
1541.884922
 20
1567.832846
 30
0.0
 10
1541.884922
 20
1565.502235
 30
0.0
 10
1539.993041
 20
1563.612901
 30
0.0
 10
1537.659289
 20
1563.612901
 30
0.0
  0
SPLINE
  5
10a
100
AcDbEntity
  8
Layer_1
 62
7
100
AcDbSpline
 70
8
 71
3
 72
8
 73
4
 74
0
 40
0
 40
0
 40
0
 40
0
 40
1
 40
1
 40
1
 40
1
 10
1537.659289
 20
1563.612901
 30
0.0
 10
1535.325537
 20
1563.612901
 30
0.0
 10
1533.433657
 20
1565.502235
 30
0.0
 10
1533.433656
 20
1567.832846
 30
0.0
  0
SPLINE
  5
10b
100
AcDbEntity
  8
Layer_1
 62
7
100
AcDbSpline
 70
8
 71
3
 72
8
 73
4
 74
0
 40
0
 40
0
 40
0
 40
0
 40
1
 40
1
 40
1
 40
1
 10
1533.433656
 20
1567.832846
 30
0.0
 10
1533.433657
 20
1570.163457
 30
0.0
 10
1535.325537
 20
1572.052791
 30
0.0
 10
1537.659289
 20
1572.052791
 30
0.0
  0
SPLINE
  5
10c
100
AcDbEntity
  8
Layer_1
 62
7
100
AcDbSpline
 70
8
 71
3
 72
8
 73
4
 74
0
 40
0
 40
0
 40
0
 40
0
 40
1
 40
1
 40
1
 40
1
 10
1537.659289
 20
1572.052791
 30
0.0
 10
1539.993041
 20
1572.052791
 30
0.0
 10
1541.884922
 20
1570.163457
 30
0.0
 10
1541.884922
 20
1567.832846
 30
0.0
  0
LWPOLYLINE
  5
10d
100
AcDbEntity
  8
Layer_1
 62
7
100
AcDbPolyline
 90
1
 70
1
 10
1796.991361
 20
1567.832846
 30
0.0
  0
SPLINE
  5
10e
100
AcDbEntity
  8
Layer_1
 62
7
100
AcDbSpline
 70
8
 71
3
 72
8
 73
4
 74
0
 40
0
 40
0
 40
0
 40
0
 40
1
 40
1
 40
1
 40
1
 10
1796.991333
 20
1496.117556
 30
0.0
 10
1796.991333
 20
1494.609914
 30
0.0
 10
1796.185976
 20
1493.216796
 30
0.0
 10
1794.878630
 20
1492.462975
 30
0.0
  0
SPLINE
  5
10f
100
AcDbEntity
  8
Layer_1
 62
7
100
AcDbSpline
 70
8
 71
3
 72
8
 73
4
 74
0
 40
0
 40
0
 40
0
 40
0
 40
1
 40
1
 40
1
 40
1
 10
1794.878630
 20
1492.462975
 30
0.0
 10
1793.571285
 20
1491.709155
 30
0.0
 10
1791.960569
 20
1491.709155
 30
0.0
 10
1790.653224
 20
1492.462975
 30
0.0
  0
SPLINE
  5
110
100
AcDbEntity
  8
Layer_1
 62
7
100
AcDbSpline
 70
8
 71
3
 72
8
 73
4
 74
0
 40
0
 40
0
 40
0
 40
0
 40
1
 40
1
 40
1
 40
1
 10
1790.653224
 20
1492.462975
 30
0.0
 10
1789.345879
 20
1493.216796
 30
0.0
 10
1788.540521
 20
1494.609914
 30
0.0
 10
1788.540521
 20
1496.117556
 30
0.0
  0
SPLINE
  5
111
100
AcDbEntity
  8
Layer_1
 62
7
100
AcDbSpline
 70
8
 71
3
 72
8
 73
4
 74
0
 40
0
 40
0
 40
0
 40
0
 40
1
 40
1
 40
1
 40
1
 10
1788.540521
 20
1496.117556
 30
0.0
 10
1788.540521
 20
1497.625197
 30
0.0
 10
1789.345879
 20
1499.018315
 30
0.0
 10
1790.653224
 20
1499.772136
 30
0.0
  0
SPLINE
  5
112
100
AcDbEntity
  8
Layer_1
 62
7
100
AcDbSpline
 70
8
 71
3
 72
8
 73
4
 74
0
 40
0
 40
0
 40
0
 40
0
 40
1
 40
1
 40
1
 40
1
 10
1790.653224
 20
1499.772136
 30
0.0
 10
1791.960569
 20
1500.525956
 30
0.0
 10
1793.571285
 20
1500.525956
 30
0.0
 10
1794.878630
 20
1499.772136
 30
0.0
  0
SPLINE
  5
113
100
AcDbEntity
  8
Layer_1
 62
7
100
AcDbSpline
 70
8
 71
3
 72
8
 73
4
 74
0
 40
0
 40
0
 40
0
 40
0
 40
1
 40
1
 40
1
 40
1
 10
1794.878630
 20
1499.772136
 30
0.0
 10
1796.185976
 20
1499.018315
 30
0.0
 10
1796.991333
 20
1497.625197
 30
0.0
 10
1796.991333
 20
1496.117556
 30
0.0
  0
LWPOLYLINE
  5
114
100
AcDbEntity
  8
Layer_1
 62
7
100
AcDbPolyline
 90
1
 70
1
 10
1541.884922
 20
1567.832846
 30
0.0
  0
SPLINE
  5
115
100
AcDbEntity
  8
Layer_1
 62
7
100
AcDbSpline
 70
8
 71
3
 72
8
 73
4
 74
0
 40
0
 40
0
 40
0
 40
0
 40
1
 40
1
 40
1
 40
1
 10
1541.884922
 20
1496.117556
 30
0.0
 10
1541.884922
 20
1494.609914
 30
0.0
 10
1541.079521
 20
1493.216796
 30
0.0
 10
1539.772106
 20
1492.462975
 30
0.0
  0
SPLINE
  5
116
100
AcDbEntity
  8
Layer_1
 62
7
100
AcDbSpline
 70
8
 71
3
 72
8
 73
4
 74
0
 40
0
 40
0
 40
0
 40
0
 40
1
 40
1
 40
1
 40
1
 10
1539.772106
 20
1492.462975
 30
0.0
 10
1538.464690
 20
1491.709155
 30
0.0
 10
1536.853888
 20
1491.709155
 30
0.0
 10
1535.546473
 20
1492.462975
 30
0.0
  0
SPLINE
  5
117
100
AcDbEntity
  8
Layer_1
 62
7
100
AcDbSpline
 70
8
 71
3
 72
8
 73
4
 74
0
 40
0
 40
0
 40
0
 40
0
 40
1
 40
1
 40
1
 40
1
 10
1535.546473
 20
1492.462975
 30
0.0
 10
1534.239057
 20
1493.216796
 30
0.0
 10
1533.433656
 20
1494.609914
 30
0.0
 10
1533.433656
 20
1496.117556
 30
0.0
  0
SPLINE
  5
118
100
AcDbEntity
  8
Layer_1
 62
7
100
AcDbSpline
 70
8
 71
3
 72
8
 73
4
 74
0
 40
0
 40
0
 40
0
 40
0
 40
1
 40
1
 40
1
 40
1
 10
1533.433656
 20
1496.117556
 30
0.0
 10
1533.433656
 20
1498.448167
 30
0.0
 10
1535.325537
 20
1500.337501
 30
0.0
 10
1537.659289
 20
1500.337501
 30
0.0
  0
SPLINE
  5
119
100
AcDbEntity
  8
Layer_1
 62
7
100
AcDbSpline
 70
8
 71
3
 72
8
 73
4
 74
0
 40
0
 40
0
 40
0
 40
0
 40
1
 40
1
 40
1
 40
1
 10
1537.659289
 20
1500.337501
 30
0.0
 10
1539.993042
 20
1500.337501
 30
0.0
 10
1541.884922
 20
1498.448167
 30
0.0
 10
1541.884922
 20
1496.117556
 30
0.0
  0
LWPOLYLINE
  5
11a
100
AcDbEntity
  8
Layer_1
 62
7
100
AcDbPolyline
 90
1
 70
1
 10
1796.991333
 20
1496.117556
 30
0.0
  0
SPLINE
  5
11b
100
AcDbEntity
  8
Layer_1
 62
7
100
AcDbSpline
 70
8
 71
3
 72
8
 73
4
 74
0
 40
0
 40
0
 40
0
 40
0
 40
1
 40
1
 40
1
 40
1
 10
1796.991220
 20
1424.402095
 30
0.0
 10
1796.991220
 20
1422.894454
 30
0.0
 10
1796.185862
 20
1421.501336
 30
0.0
 10
1794.878517
 20
1420.747515
 30
0.0
  0
SPLINE
  5
11c
100
AcDbEntity
  8
Layer_1
 62
7
100
AcDbSpline
 70
8
 71
3
 72
8
 73
4
 74
0
 40
0
 40
0
 40
0
 40
0
 40
1
 40
1
 40
1
 40
1
 10
1794.878517
 20
1420.747515
 30
0.0
 10
1793.571172
 20
1419.993694
 30
0.0
 10
1791.960456
 20
1419.993694
 30
0.0
 10
1790.653111
 20
1420.747515
 30
0.0
  0
SPLINE
  5
11d
100
AcDbEntity
  8
Layer_1
 62
7
100
AcDbSpline
 70
8
 71
3
 72
8
 73
4
 74
0
 40
0
 40
0
 40
0
 40
0
 40
1
 40
1
 40
1
 40
1
 10
1790.653111
 20
1420.747515
 30
0.0
 10
1789.345765
 20
1421.501336
 30
0.0
 10
1788.540407
 20
1422.894454
 30
0.0
 10
1788.540407
 20
1424.402095
 30
0.0
  0
SPLINE
  5
11e
100
AcDbEntity
  8
Layer_1
 62
7
100
AcDbSpline
 70
8
 71
3
 72
8
 73
4
 74
0
 40
0
 40
0
 40
0
 40
0
 40
1
 40
1
 40
1
 40
1
 10
1788.540407
 20
1424.402095
 30
0.0
 10
1788.540407
 20
1425.909736
 30
0.0
 10
1789.345765
 20
1427.302855
 30
0.0
 10
1790.653111
 20
1428.056675
 30
0.0
  0
SPLINE
  5
11f
100
AcDbEntity
  8
Layer_1
 62
7
100
AcDbSpline
 70
8
 71
3
 72
8
 73
4
 74
0
 40
0
 40
0
 40
0
 40
0
 40
1
 40
1
 40
1
 40
1
 10
1790.653111
 20
1428.056675
 30
0.0
 10
1791.960456
 20
1428.810496
 30
0.0
 10
1793.571172
 20
1428.810496
 30
0.0
 10
1794.878517
 20
1428.056675
 30
0.0
  0
SPLINE
  5
120
100
AcDbEntity
  8
Layer_1
 62
7
100
AcDbSpline
 70
8
 71
3
 72
8
 73
4
 74
0
 40
0
 40
0
 40
0
 40
0
 40
1
 40
1
 40
1
 40
1
 10
1794.878517
 20
1428.056675
 30
0.0
 10
1796.185862
 20
1427.302855
 30
0.0
 10
1796.991220
 20
1425.909736
 30
0.0
 10
1796.991220
 20
1424.402095
 30
0.0
  0
LWPOLYLINE
  5
121
100
AcDbEntity
  8
Layer_1
 62
7
100
AcDbPolyline
 90
1
 70
1
 10
1541.884922
 20
1496.117556
 30
0.0
  0
SPLINE
  5
122
100
AcDbEntity
  8
Layer_1
 62
7
100
AcDbSpline
 70
8
 71
3
 72
8
 73
4
 74
0
 40
0
 40
0
 40
0
 40
0
 40
1
 40
1
 40
1
 40
1
 10
1541.884922
 20
1424.402095
 30
0.0
 10
1541.884922
 20
1422.894454
 30
0.0
 10
1541.079521
 20
1421.501336
 30
0.0
 10
1539.772106
 20
1420.747515
 30
0.0
  0
SPLINE
  5
123
100
AcDbEntity
  8
Layer_1
 62
7
100
AcDbSpline
 70
8
 71
3
 72
8
 73
4
 74
0
 40
0
 40
0
 40
0
 40
0
 40
1
 40
1
 40
1
 40
1
 10
1539.772106
 20
1420.747515
 30
0.0
 10
1538.464690
 20
1419.993694
 30
0.0
 10
1536.853888
 20
1419.993694
 30
0.0
 10
1535.546473
 20
1420.747515
 30
0.0
  0
SPLINE
  5
124
100
AcDbEntity
  8
Layer_1
 62
7
100
AcDbSpline
 70
8
 71
3
 72
8
 73
4
 74
0
 40
0
 40
0
 40
0
 40
0
 40
1
 40
1
 40
1
 40
1
 10
1535.546473
 20
1420.747515
 30
0.0
 10
1534.239057
 20
1421.501336
 30
0.0
 10
1533.433656
 20
1422.894454
 30
0.0
 10
1533.433656
 20
1424.402095
 30
0.0
  0
SPLINE
  5
125
100
AcDbEntity
  8
Layer_1
 62
7
100
AcDbSpline
 70
8
 71
3
 72
8
 73
4
 74
0
 40
0
 40
0
 40
0
 40
0
 40
1
 40
1
 40
1
 40
1
 10
1533.433656
 20
1424.402095
 30
0.0
 10
1533.433656
 20
1426.732706
 30
0.0
 10
1535.325537
 20
1428.622040
 30
0.0
 10
1537.659289
 20
1428.622040
 30
0.0
  0
SPLINE
  5
126
100
AcDbEntity
  8
Layer_1
 62
7
100
AcDbSpline
 70
8
 71
3
 72
8
 73
4
 74
0
 40
0
 40
0
 40
0
 40
0
 40
1
 40
1
 40
1
 40
1
 10
1537.659289
 20
1428.622040
 30
0.0
 10
1539.993042
 20
1428.622040
 30
0.0
 10
1541.884922
 20
1426.732706
 30
0.0
 10
1541.884922
 20
1424.402095
 30
0.0
  0
LWPOLYLINE
  5
127
100
AcDbEntity
  8
Layer_1
 62
7
100
AcDbPolyline
 90
1
 70
1
 10
1796.991220
 20
1424.402095
 30
0.0
  0
SPLINE
  5
128
100
AcDbEntity
  8
Layer_1
 62
7
100
AcDbSpline
 70
8
 71
3
 72
8
 73
4
 74
0
 40
0
 40
0
 40
0
 40
0
 40
1
 40
1
 40
1
 40
1
 10
1796.991192
 20
1352.686436
 30
0.0
 10
1796.991192
 20
1351.178795
 30
0.0
 10
1796.185834
 20
1349.785677
 30
0.0
 10
1794.878489
 20
1349.031856
 30
0.0
  0
SPLINE
  5
129
100
AcDbEntity
  8
Layer_1
 62
7
100
AcDbSpline
 70
8
 71
3
 72
8
 73
4
 74
0
 40
0
 40
0
 40
0
 40
0
 40
1
 40
1
 40
1
 40
1
 10
1794.878489
 20
1349.031856
 30
0.0
 10
1793.571143
 20
1348.278035
 30
0.0
 10
1791.960427
 20
1348.278035
 30
0.0
 10
1790.653082
 20
1349.031856
 30
0.0
  0
SPLINE
  5
12a
100
AcDbEntity
  8
Layer_1
 62
7
100
AcDbSpline
 70
8
 71
3
 72
8
 73
4
 74
0
 40
0
 40
0
 40
0
 40
0
 40
1
 40
1
 40
1
 40
1
 10
1790.653082
 20
1349.031856
 30
0.0
 10
1789.345737
 20
1349.785677
 30
0.0
 10
1788.540379
 20
1351.178795
 30
0.0
 10
1788.540379
 20
1352.686436
 30
0.0
  0
SPLINE
  5
12b
100
AcDbEntity
  8
Layer_1
 62
7
100
AcDbSpline
 70
8
 71
3
 72
8
 73
4
 74
0
 40
0
 40
0
 40
0
 40
0
 40
1
 40
1
 40
1
 40
1
 10
1788.540379
 20
1352.686436
 30
0.0
 10
1788.540379
 20
1354.194077
 30
0.0
 10
1789.345737
 20
1355.587196
 30
0.0
 10
1790.653082
 20
1356.341016
 30
0.0
  0
SPLINE
  5
12c
100
AcDbEntity
  8
Layer_1
 62
7
100
AcDbSpline
 70
8
 71
3
 72
8
 73
4
 74
0
 40
0
 40
0
 40
0
 40
0
 40
1
 40
1
 40
1
 40
1
 10
1790.653082
 20
1356.341016
 30
0.0
 10
1791.960427
 20
1357.094837
 30
0.0
 10
1793.571143
 20
1357.094837
 30
0.0
 10
1794.878489
 20
1356.341016
 30
0.0
  0
SPLINE
  5
12d
100
AcDbEntity
  8
Layer_1
 62
7
100
AcDbSpline
 70
8
 71
3
 72
8
 73
4
 74
0
 40
0
 40
0
 40
0
 40
0
 40
1
 40
1
 40
1
 40
1
 10
1794.878489
 20
1356.341016
 30
0.0
 10
1796.185834
 20
1355.587196
 30
0.0
 10
1796.991192
 20
1354.194077
 30
0.0
 10
1796.991192
 20
1352.686436
 30
0.0
  0
LWPOLYLINE
  5
12e
100
AcDbEntity
  8
Layer_1
 62
7
100
AcDbPolyline
 90
1
 70
1
 10
1541.884922
 20
1424.402095
 30
0.0
  0
SPLINE
  5
12f
100
AcDbEntity
  8
Layer_1
 62
7
100
AcDbSpline
 70
8
 71
3
 72
8
 73
4
 74
0
 40
0
 40
0
 40
0
 40
0
 40
1
 40
1
 40
1
 40
1
 10
1541.884922
 20
1352.686436
 30
0.0
 10
1541.884922
 20
1351.178795
 30
0.0
 10
1541.079521
 20
1349.785677
 30
0.0
 10
1539.772106
 20
1349.031856
 30
0.0
  0
SPLINE
  5
130
100
AcDbEntity
  8
Layer_1
 62
7
100
AcDbSpline
 70
8
 71
3
 72
8
 73
4
 74
0
 40
0
 40
0
 40
0
 40
0
 40
1
 40
1
 40
1
 40
1
 10
1539.772106
 20
1349.031856
 30
0.0
 10
1538.464690
 20
1348.278035
 30
0.0
 10
1536.853888
 20
1348.278035
 30
0.0
 10
1535.546473
 20
1349.031856
 30
0.0
  0
SPLINE
  5
131
100
AcDbEntity
  8
Layer_1
 62
7
100
AcDbSpline
 70
8
 71
3
 72
8
 73
4
 74
0
 40
0
 40
0
 40
0
 40
0
 40
1
 40
1
 40
1
 40
1
 10
1535.546473
 20
1349.031856
 30
0.0
 10
1534.239057
 20
1349.785677
 30
0.0
 10
1533.433656
 20
1351.178795
 30
0.0
 10
1533.433656
 20
1352.686436
 30
0.0
  0
SPLINE
  5
132
100
AcDbEntity
  8
Layer_1
 62
7
100
AcDbSpline
 70
8
 71
3
 72
8
 73
4
 74
0
 40
0
 40
0
 40
0
 40
0
 40
1
 40
1
 40
1
 40
1
 10
1533.433656
 20
1352.686436
 30
0.0
 10
1533.433656
 20
1355.017047
 30
0.0
 10
1535.325537
 20
1356.906381
 30
0.0
 10
1537.659289
 20
1356.906381
 30
0.0
  0
SPLINE
  5
133
100
AcDbEntity
  8
Layer_1
 62
7
100
AcDbSpline
 70
8
 71
3
 72
8
 73
4
 74
0
 40
0
 40
0
 40
0
 40
0
 40
1
 40
1
 40
1
 40
1
 10
1537.659289
 20
1356.906381
 30
0.0
 10
1539.993042
 20
1356.906381
 30
0.0
 10
1541.884922
 20
1355.017047
 30
0.0
 10
1541.884922
 20
1352.686436
 30
0.0
  0
LWPOLYLINE
  5
134
100
AcDbEntity
  8
Layer_1
 62
7
100
AcDbPolyline
 90
1
 70
1
 10
1796.991192
 20
1352.686436
 30
0.0
  0
SPLINE
  5
135
100
AcDbEntity
  8
Layer_1
 62
7
100
AcDbSpline
 70
8
 71
3
 72
8
 73
4
 74
0
 40
0
 40
0
 40
0
 40
0
 40
1
 40
1
 40
1
 40
1
 10
1796.991192
 20
1280.970976
 30
0.0
 10
1796.991192
 20
1279.463334
 30
0.0
 10
1796.185834
 20
1278.070216
 30
0.0
 10
1794.878489
 20
1277.316395
 30
0.0
  0
SPLINE
  5
136
100
AcDbEntity
  8
Layer_1
 62
7
100
AcDbSpline
 70
8
 71
3
 72
8
 73
4
 74
0
 40
0
 40
0
 40
0
 40
0
 40
1
 40
1
 40
1
 40
1
 10
1794.878489
 20
1277.316395
 30
0.0
 10
1793.571143
 20
1276.562575
 30
0.0
 10
1791.960427
 20
1276.562575
 30
0.0
 10
1790.653082
 20
1277.316395
 30
0.0
  0
SPLINE
  5
137
100
AcDbEntity
  8
Layer_1
 62
7
100
AcDbSpline
 70
8
 71
3
 72
8
 73
4
 74
0
 40
0
 40
0
 40
0
 40
0
 40
1
 40
1
 40
1
 40
1
 10
1790.653082
 20
1277.316395
 30
0.0
 10
1789.345737
 20
1278.070216
 30
0.0
 10
1788.540379
 20
1279.463334
 30
0.0
 10
1788.540379
 20
1280.970976
 30
0.0
  0
SPLINE
  5
138
100
AcDbEntity
  8
Layer_1
 62
7
100
AcDbSpline
 70
8
 71
3
 72
8
 73
4
 74
0
 40
0
 40
0
 40
0
 40
0
 40
1
 40
1
 40
1
 40
1
 10
1788.540379
 20
1280.970976
 30
0.0
 10
1788.540379
 20
1282.478617
 30
0.0
 10
1789.345737
 20
1283.871735
 30
0.0
 10
1790.653082
 20
1284.625556
 30
0.0
  0
SPLINE
  5
139
100
AcDbEntity
  8
Layer_1
 62
7
100
AcDbSpline
 70
8
 71
3
 72
8
 73
4
 74
0
 40
0
 40
0
 40
0
 40
0
 40
1
 40
1
 40
1
 40
1
 10
1790.653082
 20
1284.625556
 30
0.0
 10
1791.960427
 20
1285.379376
 30
0.0
 10
1793.571143
 20
1285.379376
 30
0.0
 10
1794.878489
 20
1284.625556
 30
0.0
  0
SPLINE
  5
13a
100
AcDbEntity
  8
Layer_1
 62
7
100
AcDbSpline
 70
8
 71
3
 72
8
 73
4
 74
0
 40
0
 40
0
 40
0
 40
0
 40
1
 40
1
 40
1
 40
1
 10
1794.878489
 20
1284.625556
 30
0.0
 10
1796.185834
 20
1283.871735
 30
0.0
 10
1796.991192
 20
1282.478617
 30
0.0
 10
1796.991192
 20
1280.970976
 30
0.0
  0
LWPOLYLINE
  5
13b
100
AcDbEntity
  8
Layer_1
 62
7
100
AcDbPolyline
 90
1
 70
1
 10
1541.884922
 20
1352.686436
 30
0.0
  0
SPLINE
  5
13c
100
AcDbEntity
  8
Layer_1
 62
7
100
AcDbSpline
 70
8
 71
3
 72
8
 73
4
 74
0
 40
0
 40
0
 40
0
 40
0
 40
1
 40
1
 40
1
 40
1
 10
1541.884922
 20
1280.970976
 30
0.0
 10
1541.884922
 20
1279.463334
 30
0.0
 10
1541.079521
 20
1278.070216
 30
0.0
 10
1539.772106
 20
1277.316395
 30
0.0
  0
SPLINE
  5
13d
100
AcDbEntity
  8
Layer_1
 62
7
100
AcDbSpline
 70
8
 71
3
 72
8
 73
4
 74
0
 40
0
 40
0
 40
0
 40
0
 40
1
 40
1
 40
1
 40
1
 10
1539.772106
 20
1277.316395
 30
0.0
 10
1538.464690
 20
1276.562575
 30
0.0
 10
1536.853888
 20
1276.562575
 30
0.0
 10
1535.546473
 20
1277.316395
 30
0.0
  0
SPLINE
  5
13e
100
AcDbEntity
  8
Layer_1
 62
7
100
AcDbSpline
 70
8
 71
3
 72
8
 73
4
 74
0
 40
0
 40
0
 40
0
 40
0
 40
1
 40
1
 40
1
 40
1
 10
1535.546473
 20
1277.316395
 30
0.0
 10
1534.239057
 20
1278.070216
 30
0.0
 10
1533.433656
 20
1279.463334
 30
0.0
 10
1533.433656
 20
1280.970976
 30
0.0
  0
SPLINE
  5
13f
100
AcDbEntity
  8
Layer_1
 62
7
100
AcDbSpline
 70
8
 71
3
 72
8
 73
4
 74
0
 40
0
 40
0
 40
0
 40
0
 40
1
 40
1
 40
1
 40
1
 10
1533.433656
 20
1280.970976
 30
0.0
 10
1533.433656
 20
1283.301587
 30
0.0
 10
1535.325537
 20
1285.190921
 30
0.0
 10
1537.659289
 20
1285.190921
 30
0.0
  0
SPLINE
  5
140
100
AcDbEntity
  8
Layer_1
 62
7
100
AcDbSpline
 70
8
 71
3
 72
8
 73
4
 74
0
 40
0
 40
0
 40
0
 40
0
 40
1
 40
1
 40
1
 40
1
 10
1537.659289
 20
1285.190921
 30
0.0
 10
1539.993042
 20
1285.190921
 30
0.0
 10
1541.884922
 20
1283.301587
 30
0.0
 10
1541.884922
 20
1280.970976
 30
0.0
  0
LWPOLYLINE
  5
141
100
AcDbEntity
  8
Layer_1
 62
7
100
AcDbPolyline
 90
1
 70
1
 10
1796.991192
 20
1280.970976
 30
0.0
  0
SPLINE
  5
142
100
AcDbEntity
  8
Layer_1
 62
7
100
AcDbSpline
 70
8
 71
3
 72
8
 73
4
 74
0
 40
0
 40
0
 40
0
 40
0
 40
1
 40
1
 40
1
 40
1
 10
1796.991107
 20
1209.255515
 30
0.0
 10
1796.991107
 20
1207.747874
 30
0.0
 10
1796.185749
 20
1206.354756
 30
0.0
 10
1794.878403
 20
1205.600935
 30
0.0
  0
SPLINE
  5
143
100
AcDbEntity
  8
Layer_1
 62
7
100
AcDbSpline
 70
8
 71
3
 72
8
 73
4
 74
0
 40
0
 40
0
 40
0
 40
0
 40
1
 40
1
 40
1
 40
1
 10
1794.878403
 20
1205.600935
 30
0.0
 10
1793.571058
 20
1204.847114
 30
0.0
 10
1791.960342
 20
1204.847114
 30
0.0
 10
1790.652997
 20
1205.600935
 30
0.0
  0
SPLINE
  5
144
100
AcDbEntity
  8
Layer_1
 62
7
100
AcDbSpline
 70
8
 71
3
 72
8
 73
4
 74
0
 40
0
 40
0
 40
0
 40
0
 40
1
 40
1
 40
1
 40
1
 10
1790.652997
 20
1205.600935
 30
0.0
 10
1789.345652
 20
1206.354756
 30
0.0
 10
1788.540294
 20
1207.747874
 30
0.0
 10
1788.540294
 20
1209.255515
 30
0.0
  0
SPLINE
  5
145
100
AcDbEntity
  8
Layer_1
 62
7
100
AcDbSpline
 70
8
 71
3
 72
8
 73
4
 74
0
 40
0
 40
0
 40
0
 40
0
 40
1
 40
1
 40
1
 40
1
 10
1788.540294
 20
1209.255515
 30
0.0
 10
1788.540294
 20
1210.763156
 30
0.0
 10
1789.345652
 20
1212.156275
 30
0.0
 10
1790.652997
 20
1212.910095
 30
0.0
  0
SPLINE
  5
146
100
AcDbEntity
  8
Layer_1
 62
7
100
AcDbSpline
 70
8
 71
3
 72
8
 73
4
 74
0
 40
0
 40
0
 40
0
 40
0
 40
1
 40
1
 40
1
 40
1
 10
1790.652997
 20
1212.910095
 30
0.0
 10
1791.960342
 20
1213.663916
 30
0.0
 10
1793.571058
 20
1213.663916
 30
0.0
 10
1794.878403
 20
1212.910095
 30
0.0
  0
SPLINE
  5
147
100
AcDbEntity
  8
Layer_1
 62
7
100
AcDbSpline
 70
8
 71
3
 72
8
 73
4
 74
0
 40
0
 40
0
 40
0
 40
0
 40
1
 40
1
 40
1
 40
1
 10
1794.878403
 20
1212.910095
 30
0.0
 10
1796.185749
 20
1212.156275
 30
0.0
 10
1796.991107
 20
1210.763156
 30
0.0
 10
1796.991107
 20
1209.255515
 30
0.0
  0
LWPOLYLINE
  5
148
100
AcDbEntity
  8
Layer_1
 62
7
100
AcDbPolyline
 90
1
 70
1
 10
1541.884922
 20
1280.970976
 30
0.0
  0
SPLINE
  5
149
100
AcDbEntity
  8
Layer_1
 62
7
100
AcDbSpline
 70
8
 71
3
 72
8
 73
4
 74
0
 40
0
 40
0
 40
0
 40
0
 40
1
 40
1
 40
1
 40
1
 10
1541.884922
 20
1209.255515
 30
0.0
 10
1541.884922
 20
1207.747874
 30
0.0
 10
1541.079521
 20
1206.354756
 30
0.0
 10
1539.772106
 20
1205.600935
 30
0.0
  0
SPLINE
  5
14a
100
AcDbEntity
  8
Layer_1
 62
7
100
AcDbSpline
 70
8
 71
3
 72
8
 73
4
 74
0
 40
0
 40
0
 40
0
 40
0
 40
1
 40
1
 40
1
 40
1
 10
1539.772106
 20
1205.600935
 30
0.0
 10
1538.464690
 20
1204.847114
 30
0.0
 10
1536.853888
 20
1204.847114
 30
0.0
 10
1535.546473
 20
1205.600935
 30
0.0
  0
SPLINE
  5
14b
100
AcDbEntity
  8
Layer_1
 62
7
100
AcDbSpline
 70
8
 71
3
 72
8
 73
4
 74
0
 40
0
 40
0
 40
0
 40
0
 40
1
 40
1
 40
1
 40
1
 10
1535.546473
 20
1205.600935
 30
0.0
 10
1534.239057
 20
1206.354756
 30
0.0
 10
1533.433656
 20
1207.747874
 30
0.0
 10
1533.433656
 20
1209.255515
 30
0.0
  0
SPLINE
  5
14c
100
AcDbEntity
  8
Layer_1
 62
7
100
AcDbSpline
 70
8
 71
3
 72
8
 73
4
 74
0
 40
0
 40
0
 40
0
 40
0
 40
1
 40
1
 40
1
 40
1
 10
1533.433656
 20
1209.255515
 30
0.0
 10
1533.433656
 20
1211.586126
 30
0.0
 10
1535.325537
 20
1213.475460
 30
0.0
 10
1537.659289
 20
1213.475460
 30
0.0
  0
SPLINE
  5
14d
100
AcDbEntity
  8
Layer_1
 62
7
100
AcDbSpline
 70
8
 71
3
 72
8
 73
4
 74
0
 40
0
 40
0
 40
0
 40
0
 40
1
 40
1
 40
1
 40
1
 10
1537.659289
 20
1213.475460
 30
0.0
 10
1539.993042
 20
1213.475460
 30
0.0
 10
1541.884922
 20
1211.586126
 30
0.0
 10
1541.884922
 20
1209.255515
 30
0.0
  0
LWPOLYLINE
  5
14e
100
AcDbEntity
  8
Layer_1
 62
7
100
AcDbPolyline
 90
1
 70
1
 10
1796.991107
 20
1209.255515
 30
0.0
  0
SPLINE
  5
14f
100
AcDbEntity
  8
Layer_1
 62
7
100
AcDbSpline
 70
8
 71
3
 72
8
 73
4
 74
0
 40
0
 40
0
 40
0
 40
0
 40
1
 40
1
 40
1
 40
1
 10
1796.990965
 20
1137.540055
 30
0.0
 10
1796.990965
 20
1136.032413
 30
0.0
 10
1796.185607
 20
1134.639295
 30
0.0
 10
1794.878262
 20
1133.885474
 30
0.0
  0
SPLINE
  5
150
100
AcDbEntity
  8
Layer_1
 62
7
100
AcDbSpline
 70
8
 71
3
 72
8
 73
4
 74
0
 40
0
 40
0
 40
0
 40
0
 40
1
 40
1
 40
1
 40
1
 10
1794.878262
 20
1133.885474
 30
0.0
 10
1793.570916
 20
1133.131654
 30
0.0
 10
1791.960201
 20
1133.131654
 30
0.0
 10
1790.652855
 20
1133.885474
 30
0.0
  0
SPLINE
  5
151
100
AcDbEntity
  8
Layer_1
 62
7
100
AcDbSpline
 70
8
 71
3
 72
8
 73
4
 74
0
 40
0
 40
0
 40
0
 40
0
 40
1
 40
1
 40
1
 40
1
 10
1790.652855
 20
1133.885474
 30
0.0
 10
1789.345510
 20
1134.639295
 30
0.0
 10
1788.540152
 20
1136.032413
 30
0.0
 10
1788.540152
 20
1137.540055
 30
0.0
  0
SPLINE
  5
152
100
AcDbEntity
  8
Layer_1
 62
7
100
AcDbSpline
 70
8
 71
3
 72
8
 73
4
 74
0
 40
0
 40
0
 40
0
 40
0
 40
1
 40
1
 40
1
 40
1
 10
1788.540152
 20
1137.540055
 30
0.0
 10
1788.540152
 20
1139.047696
 30
0.0
 10
1789.345510
 20
1140.440814
 30
0.0
 10
1790.652855
 20
1141.194635
 30
0.0
  0
SPLINE
  5
153
100
AcDbEntity
  8
Layer_1
 62
7
100
AcDbSpline
 70
8
 71
3
 72
8
 73
4
 74
0
 40
0
 40
0
 40
0
 40
0
 40
1
 40
1
 40
1
 40
1
 10
1790.652855
 20
1141.194635
 30
0.0
 10
1791.960201
 20
1141.948455
 30
0.0
 10
1793.570916
 20
1141.948455
 30
0.0
 10
1794.878262
 20
1141.194635
 30
0.0
  0
SPLINE
  5
154
100
AcDbEntity
  8
Layer_1
 62
7
100
AcDbSpline
 70
8
 71
3
 72
8
 73
4
 74
0
 40
0
 40
0
 40
0
 40
0
 40
1
 40
1
 40
1
 40
1
 10
1794.878262
 20
1141.194635
 30
0.0
 10
1796.185607
 20
1140.440814
 30
0.0
 10
1796.990965
 20
1139.047696
 30
0.0
 10
1796.990965
 20
1137.540055
 30
0.0
  0
LWPOLYLINE
  5
155
100
AcDbEntity
  8
Layer_1
 62
7
100
AcDbPolyline
 90
1
 70
1
 10
1541.884922
 20
1209.255515
 30
0.0
  0
SPLINE
  5
156
100
AcDbEntity
  8
Layer_1
 62
7
100
AcDbSpline
 70
8
 71
3
 72
8
 73
4
 74
0
 40
0
 40
0
 40
0
 40
0
 40
1
 40
1
 40
1
 40
1
 10
1541.884922
 20
1137.540055
 30
0.0
 10
1541.884922
 20
1136.032413
 30
0.0
 10
1541.079521
 20
1134.639295
 30
0.0
 10
1539.772106
 20
1133.885474
 30
0.0
  0
SPLINE
  5
157
100
AcDbEntity
  8
Layer_1
 62
7
100
AcDbSpline
 70
8
 71
3
 72
8
 73
4
 74
0
 40
0
 40
0
 40
0
 40
0
 40
1
 40
1
 40
1
 40
1
 10
1539.772106
 20
1133.885474
 30
0.0
 10
1538.464690
 20
1133.131654
 30
0.0
 10
1536.853888
 20
1133.131654
 30
0.0
 10
1535.546473
 20
1133.885474
 30
0.0
  0
SPLINE
  5
158
100
AcDbEntity
  8
Layer_1
 62
7
100
AcDbSpline
 70
8
 71
3
 72
8
 73
4
 74
0
 40
0
 40
0
 40
0
 40
0
 40
1
 40
1
 40
1
 40
1
 10
1535.546473
 20
1133.885474
 30
0.0
 10
1534.239057
 20
1134.639295
 30
0.0
 10
1533.433656
 20
1136.032413
 30
0.0
 10
1533.433656
 20
1137.540055
 30
0.0
  0
SPLINE
  5
159
100
AcDbEntity
  8
Layer_1
 62
7
100
AcDbSpline
 70
8
 71
3
 72
8
 73
4
 74
0
 40
0
 40
0
 40
0
 40
0
 40
1
 40
1
 40
1
 40
1
 10
1533.433656
 20
1137.540055
 30
0.0
 10
1533.433656
 20
1139.870666
 30
0.0
 10
1535.325537
 20
1141.760000
 30
0.0
 10
1537.659289
 20
1141.760000
 30
0.0
  0
SPLINE
  5
15a
100
AcDbEntity
  8
Layer_1
 62
7
100
AcDbSpline
 70
8
 71
3
 72
8
 73
4
 74
0
 40
0
 40
0
 40
0
 40
0
 40
1
 40
1
 40
1
 40
1
 10
1537.659289
 20
1141.760000
 30
0.0
 10
1539.993042
 20
1141.760000
 30
0.0
 10
1541.884922
 20
1139.870666
 30
0.0
 10
1541.884922
 20
1137.540055
 30
0.0
  0
LWPOLYLINE
  5
15b
100
AcDbEntity
  8
Layer_1
 62
7
100
AcDbPolyline
 90
1
 70
1
 10
1796.990965
 20
1137.540055
 30
0.0
  0
SPLINE
  5
15c
100
AcDbEntity
  8
Layer_1
 62
7
100
AcDbSpline
 70
8
 71
3
 72
8
 73
4
 74
0
 40
0
 40
0
 40
0
 40
0
 40
1
 40
1
 40
1
 40
1
 10
1796.990937
 20
1065.824594
 30
0.0
 10
1796.990937
 20
1064.316953
 30
0.0
 10
1796.185579
 20
1062.923835
 30
0.0
 10
1794.878233
 20
1062.170014
 30
0.0
  0
SPLINE
  5
15d
100
AcDbEntity
  8
Layer_1
 62
7
100
AcDbSpline
 70
8
 71
3
 72
8
 73
4
 74
0
 40
0
 40
0
 40
0
 40
0
 40
1
 40
1
 40
1
 40
1
 10
1794.878233
 20
1062.170014
 30
0.0
 10
1793.570888
 20
1061.416193
 30
0.0
 10
1791.960172
 20
1061.416193
 30
0.0
 10
1790.652827
 20
1062.170014
 30
0.0
  0
SPLINE
  5
15e
100
AcDbEntity
  8
Layer_1
 62
7
100
AcDbSpline
 70
8
 71
3
 72
8
 73
4
 74
0
 40
0
 40
0
 40
0
 40
0
 40
1
 40
1
 40
1
 40
1
 10
1790.652827
 20
1062.170014
 30
0.0
 10
1789.345482
 20
1062.923835
 30
0.0
 10
1788.540124
 20
1064.316953
 30
0.0
 10
1788.540124
 20
1065.824594
 30
0.0
  0
SPLINE
  5
15f
100
AcDbEntity
  8
Layer_1
 62
7
100
AcDbSpline
 70
8
 71
3
 72
8
 73
4
 74
0
 40
0
 40
0
 40
0
 40
0
 40
1
 40
1
 40
1
 40
1
 10
1788.540124
 20
1065.824594
 30
0.0
 10
1788.540124
 20
1067.332235
 30
0.0
 10
1789.345482
 20
1068.725354
 30
0.0
 10
1790.652827
 20
1069.479174
 30
0.0
  0
SPLINE
  5
160
100
AcDbEntity
  8
Layer_1
 62
7
100
AcDbSpline
 70
8
 71
3
 72
8
 73
4
 74
0
 40
0
 40
0
 40
0
 40
0
 40
1
 40
1
 40
1
 40
1
 10
1790.652827
 20
1069.479174
 30
0.0
 10
1791.960172
 20
1070.232995
 30
0.0
 10
1793.570888
 20
1070.232995
 30
0.0
 10
1794.878233
 20
1069.479174
 30
0.0
  0
SPLINE
  5
161
100
AcDbEntity
  8
Layer_1
 62
7
100
AcDbSpline
 70
8
 71
3
 72
8
 73
4
 74
0
 40
0
 40
0
 40
0
 40
0
 40
1
 40
1
 40
1
 40
1
 10
1794.878233
 20
1069.479174
 30
0.0
 10
1796.185579
 20
1068.725354
 30
0.0
 10
1796.990937
 20
1067.332235
 30
0.0
 10
1796.990937
 20
1065.824594
 30
0.0
  0
LWPOLYLINE
  5
162
100
AcDbEntity
  8
Layer_1
 62
7
100
AcDbPolyline
 90
1
 70
1
 10
1541.884922
 20
1137.540055
 30
0.0
  0
SPLINE
  5
163
100
AcDbEntity
  8
Layer_1
 62
7
100
AcDbSpline
 70
8
 71
3
 72
8
 73
4
 74
0
 40
0
 40
0
 40
0
 40
0
 40
1
 40
1
 40
1
 40
1
 10
1541.884922
 20
1065.824594
 30
0.0
 10
1541.884922
 20
1064.316953
 30
0.0
 10
1541.079521
 20
1062.923835
 30
0.0
 10
1539.772106
 20
1062.170014
 30
0.0
  0
SPLINE
  5
164
100
AcDbEntity
  8
Layer_1
 62
7
100
AcDbSpline
 70
8
 71
3
 72
8
 73
4
 74
0
 40
0
 40
0
 40
0
 40
0
 40
1
 40
1
 40
1
 40
1
 10
1539.772106
 20
1062.170014
 30
0.0
 10
1538.464690
 20
1061.416193
 30
0.0
 10
1536.853888
 20
1061.416193
 30
0.0
 10
1535.546473
 20
1062.170014
 30
0.0
  0
SPLINE
  5
165
100
AcDbEntity
  8
Layer_1
 62
7
100
AcDbSpline
 70
8
 71
3
 72
8
 73
4
 74
0
 40
0
 40
0
 40
0
 40
0
 40
1
 40
1
 40
1
 40
1
 10
1535.546473
 20
1062.170014
 30
0.0
 10
1534.239057
 20
1062.923835
 30
0.0
 10
1533.433656
 20
1064.316953
 30
0.0
 10
1533.433656
 20
1065.824594
 30
0.0
  0
SPLINE
  5
166
100
AcDbEntity
  8
Layer_1
 62
7
100
AcDbSpline
 70
8
 71
3
 72
8
 73
4
 74
0
 40
0
 40
0
 40
0
 40
0
 40
1
 40
1
 40
1
 40
1
 10
1533.433656
 20
1065.824594
 30
0.0
 10
1533.433656
 20
1068.155205
 30
0.0
 10
1535.325537
 20
1070.044539
 30
0.0
 10
1537.659289
 20
1070.044539
 30
0.0
  0
SPLINE
  5
167
100
AcDbEntity
  8
Layer_1
 62
7
100
AcDbSpline
 70
8
 71
3
 72
8
 73
4
 74
0
 40
0
 40
0
 40
0
 40
0
 40
1
 40
1
 40
1
 40
1
 10
1537.659289
 20
1070.044539
 30
0.0
 10
1539.993042
 20
1070.044539
 30
0.0
 10
1541.884922
 20
1068.155205
 30
0.0
 10
1541.884922
 20
1065.824594
 30
0.0
  0
LWPOLYLINE
  5
168
100
AcDbEntity
  8
Layer_1
 62
7
100
AcDbPolyline
 90
1
 70
1
 10
1796.990937
 20
1065.824594
 30
0.0
  0
SPLINE
  5
169
100
AcDbEntity
  8
Layer_1
 62
7
100
AcDbSpline
 70
8
 71
3
 72
8
 73
4
 74
0
 40
0
 40
0
 40
0
 40
0
 40
1
 40
1
 40
1
 40
1
 10
1796.990937
 20
994.108935
 30
0.0
 10
1796.990937
 20
992.601294
 30
0.0
 10
1796.185579
 20
991.208176
 30
0.0
 10
1794.878233
 20
990.454355
 30
0.0
  0
SPLINE
  5
16a
100
AcDbEntity
  8
Layer_1
 62
7
100
AcDbSpline
 70
8
 71
3
 72
8
 73
4
 74
0
 40
0
 40
0
 40
0
 40
0
 40
1
 40
1
 40
1
 40
1
 10
1794.878233
 20
990.454355
 30
0.0
 10
1793.570888
 20
989.700534
 30
0.0
 10
1791.960172
 20
989.700534
 30
0.0
 10
1790.652827
 20
990.454355
 30
0.0
  0
SPLINE
  5
16b
100
AcDbEntity
  8
Layer_1
 62
7
100
AcDbSpline
 70
8
 71
3
 72
8
 73
4
 74
0
 40
0
 40
0
 40
0
 40
0
 40
1
 40
1
 40
1
 40
1
 10
1790.652827
 20
990.454355
 30
0.0
 10
1789.345482
 20
991.208176
 30
0.0
 10
1788.540124
 20
992.601294
 30
0.0
 10
1788.540124
 20
994.108935
 30
0.0
  0
SPLINE
  5
16c
100
AcDbEntity
  8
Layer_1
 62
7
100
AcDbSpline
 70
8
 71
3
 72
8
 73
4
 74
0
 40
0
 40
0
 40
0
 40
0
 40
1
 40
1
 40
1
 40
1
 10
1788.540124
 20
994.108935
 30
0.0
 10
1788.540124
 20
995.616576
 30
0.0
 10
1789.345482
 20
997.009695
 30
0.0
 10
1790.652827
 20
997.763515
 30
0.0
  0
SPLINE
  5
16d
100
AcDbEntity
  8
Layer_1
 62
7
100
AcDbSpline
 70
8
 71
3
 72
8
 73
4
 74
0
 40
0
 40
0
 40
0
 40
0
 40
1
 40
1
 40
1
 40
1
 10
1790.652827
 20
997.763515
 30
0.0
 10
1791.960172
 20
998.517336
 30
0.0
 10
1793.570888
 20
998.517336
 30
0.0
 10
1794.878233
 20
997.763515
 30
0.0
  0
SPLINE
  5
16e
100
AcDbEntity
  8
Layer_1
 62
7
100
AcDbSpline
 70
8
 71
3
 72
8
 73
4
 74
0
 40
0
 40
0
 40
0
 40
0
 40
1
 40
1
 40
1
 40
1
 10
1794.878233
 20
997.763515
 30
0.0
 10
1796.185579
 20
997.009695
 30
0.0
 10
1796.990937
 20
995.616576
 30
0.0
 10
1796.990937
 20
994.108935
 30
0.0
  0
LWPOLYLINE
  5
16f
100
AcDbEntity
  8
Layer_1
 62
7
100
AcDbPolyline
 90
1
 70
1
 10
1541.884922
 20
1065.824594
 30
0.0
  0
SPLINE
  5
170
100
AcDbEntity
  8
Layer_1
 62
7
100
AcDbSpline
 70
8
 71
3
 72
8
 73
4
 74
0
 40
0
 40
0
 40
0
 40
0
 40
1
 40
1
 40
1
 40
1
 10
1541.884922
 20
994.108935
 30
0.0
 10
1541.884922
 20
992.601294
 30
0.0
 10
1541.079521
 20
991.208176
 30
0.0
 10
1539.772106
 20
990.454355
 30
0.0
  0
SPLINE
  5
171
100
AcDbEntity
  8
Layer_1
 62
7
100
AcDbSpline
 70
8
 71
3
 72
8
 73
4
 74
0
 40
0
 40
0
 40
0
 40
0
 40
1
 40
1
 40
1
 40
1
 10
1539.772106
 20
990.454355
 30
0.0
 10
1538.464690
 20
989.700534
 30
0.0
 10
1536.853888
 20
989.700534
 30
0.0
 10
1535.546473
 20
990.454355
 30
0.0
  0
SPLINE
  5
172
100
AcDbEntity
  8
Layer_1
 62
7
100
AcDbSpline
 70
8
 71
3
 72
8
 73
4
 74
0
 40
0
 40
0
 40
0
 40
0
 40
1
 40
1
 40
1
 40
1
 10
1535.546473
 20
990.454355
 30
0.0
 10
1534.239057
 20
991.208176
 30
0.0
 10
1533.433656
 20
992.601294
 30
0.0
 10
1533.433656
 20
994.108935
 30
0.0
  0
SPLINE
  5
173
100
AcDbEntity
  8
Layer_1
 62
7
100
AcDbSpline
 70
8
 71
3
 72
8
 73
4
 74
0
 40
0
 40
0
 40
0
 40
0
 40
1
 40
1
 40
1
 40
1
 10
1533.433656
 20
994.108935
 30
0.0
 10
1533.433656
 20
996.439546
 30
0.0
 10
1535.325537
 20
998.328880
 30
0.0
 10
1537.659289
 20
998.328880
 30
0.0
  0
SPLINE
  5
174
100
AcDbEntity
  8
Layer_1
 62
7
100
AcDbSpline
 70
8
 71
3
 72
8
 73
4
 74
0
 40
0
 40
0
 40
0
 40
0
 40
1
 40
1
 40
1
 40
1
 10
1537.659289
 20
998.328880
 30
0.0
 10
1539.993042
 20
998.328880
 30
0.0
 10
1541.884922
 20
996.439546
 30
0.0
 10
1541.884922
 20
994.108935
 30
0.0
  0
LWPOLYLINE
  5
175
100
AcDbEntity
  8
Layer_1
 62
7
100
AcDbPolyline
 90
1
 70
1
 10
1796.990937
 20
994.108935
 30
0.0
  0
SPLINE
  5
176
100
AcDbEntity
  8
Layer_1
 62
7
100
AcDbSpline
 70
8
 71
3
 72
8
 73
4
 74
0
 40
0
 40
0
 40
0
 40
0
 40
1
 40
1
 40
1
 40
1
 10
1796.990937
 20
922.393645
 30
0.0
 10
1796.990937
 20
920.886003
 30
0.0
 10
1796.185579
 20
919.492885
 30
0.0
 10
1794.878233
 20
918.739065
 30
0.0
  0
SPLINE
  5
177
100
AcDbEntity
  8
Layer_1
 62
7
100
AcDbSpline
 70
8
 71
3
 72
8
 73
4
 74
0
 40
0
 40
0
 40
0
 40
0
 40
1
 40
1
 40
1
 40
1
 10
1794.878233
 20
918.739065
 30
0.0
 10
1793.570888
 20
917.985244
 30
0.0
 10
1791.960172
 20
917.985244
 30
0.0
 10
1790.652827
 20
918.739065
 30
0.0
  0
SPLINE
  5
178
100
AcDbEntity
  8
Layer_1
 62
7
100
AcDbSpline
 70
8
 71
3
 72
8
 73
4
 74
0
 40
0
 40
0
 40
0
 40
0
 40
1
 40
1
 40
1
 40
1
 10
1790.652827
 20
918.739065
 30
0.0
 10
1789.345482
 20
919.492885
 30
0.0
 10
1788.540124
 20
920.886003
 30
0.0
 10
1788.540124
 20
922.393645
 30
0.0
  0
SPLINE
  5
179
100
AcDbEntity
  8
Layer_1
 62
7
100
AcDbSpline
 70
8
 71
3
 72
8
 73
4
 74
0
 40
0
 40
0
 40
0
 40
0
 40
1
 40
1
 40
1
 40
1
 10
1788.540124
 20
922.393645
 30
0.0
 10
1788.540124
 20
923.901286
 30
0.0
 10
1789.345482
 20
925.294404
 30
0.0
 10
1790.652827
 20
926.048225
 30
0.0
  0
SPLINE
  5
17a
100
AcDbEntity
  8
Layer_1
 62
7
100
AcDbSpline
 70
8
 71
3
 72
8
 73
4
 74
0
 40
0
 40
0
 40
0
 40
0
 40
1
 40
1
 40
1
 40
1
 10
1790.652827
 20
926.048225
 30
0.0
 10
1791.960172
 20
926.802045
 30
0.0
 10
1793.570888
 20
926.802045
 30
0.0
 10
1794.878233
 20
926.048225
 30
0.0
  0
SPLINE
  5
17b
100
AcDbEntity
  8
Layer_1
 62
7
100
AcDbSpline
 70
8
 71
3
 72
8
 73
4
 74
0
 40
0
 40
0
 40
0
 40
0
 40
1
 40
1
 40
1
 40
1
 10
1794.878233
 20
926.048225
 30
0.0
 10
1796.185579
 20
925.294404
 30
0.0
 10
1796.990937
 20
923.901286
 30
0.0
 10
1796.990937
 20
922.393645
 30
0.0
  0
LWPOLYLINE
  5
17c
100
AcDbEntity
  8
Layer_1
 62
7
100
AcDbPolyline
 90
1
 70
1
 10
1541.884922
 20
994.108935
 30
0.0
  0
SPLINE
  5
17d
100
AcDbEntity
  8
Layer_1
 62
7
100
AcDbSpline
 70
8
 71
3
 72
8
 73
4
 74
0
 40
0
 40
0
 40
0
 40
0
 40
1
 40
1
 40
1
 40
1
 10
1541.884922
 20
922.393645
 30
0.0
 10
1541.884922
 20
920.886003
 30
0.0
 10
1541.079521
 20
919.492885
 30
0.0
 10
1539.772106
 20
918.739065
 30
0.0
  0
SPLINE
  5
17e
100
AcDbEntity
  8
Layer_1
 62
7
100
AcDbSpline
 70
8
 71
3
 72
8
 73
4
 74
0
 40
0
 40
0
 40
0
 40
0
 40
1
 40
1
 40
1
 40
1
 10
1539.772106
 20
918.739065
 30
0.0
 10
1538.464690
 20
917.985244
 30
0.0
 10
1536.853888
 20
917.985244
 30
0.0
 10
1535.546473
 20
918.739065
 30
0.0
  0
SPLINE
  5
17f
100
AcDbEntity
  8
Layer_1
 62
7
100
AcDbSpline
 70
8
 71
3
 72
8
 73
4
 74
0
 40
0
 40
0
 40
0
 40
0
 40
1
 40
1
 40
1
 40
1
 10
1535.546473
 20
918.739065
 30
0.0
 10
1534.239057
 20
919.492885
 30
0.0
 10
1533.433656
 20
920.886003
 30
0.0
 10
1533.433656
 20
922.393645
 30
0.0
  0
SPLINE
  5
180
100
AcDbEntity
  8
Layer_1
 62
7
100
AcDbSpline
 70
8
 71
3
 72
8
 73
4
 74
0
 40
0
 40
0
 40
0
 40
0
 40
1
 40
1
 40
1
 40
1
 10
1533.433656
 20
922.393645
 30
0.0
 10
1533.433656
 20
924.724256
 30
0.0
 10
1535.325537
 20
926.613590
 30
0.0
 10
1537.659289
 20
926.613590
 30
0.0
  0
SPLINE
  5
181
100
AcDbEntity
  8
Layer_1
 62
7
100
AcDbSpline
 70
8
 71
3
 72
8
 73
4
 74
0
 40
0
 40
0
 40
0
 40
0
 40
1
 40
1
 40
1
 40
1
 10
1537.659289
 20
926.613590
 30
0.0
 10
1539.993042
 20
926.613590
 30
0.0
 10
1541.884922
 20
924.724256
 30
0.0
 10
1541.884922
 20
922.393645
 30
0.0
  0
LWPOLYLINE
  5
182
100
AcDbEntity
  8
Layer_1
 62
7
100
AcDbPolyline
 90
1
 70
1
 10
1796.990937
 20
922.393645
 30
0.0
  0
LWPOLYLINE
  5
183
100
AcDbEntity
  8
Layer_1
 62
7
100
AcDbPolyline
 90
1
 70
1
 10
1541.884922
 20
922.393645
 30
0.0
  0
LWPOLYLINE
  5
184
100
AcDbEntity
  8
Layer_1
 62
5
100
AcDbPolyline
 90
83
 70
0
 10
334.064023
 20
1763.291507
 30
0.0
 10
334.064023
 20
1744.393888
 30
0.0
 10
351.071898
 20
1744.393888
 30
0.0
 10
351.071898
 20
1706.598592
 30
0.0
 10
334.064023
 20
1706.598592
 30
0.0
 10
334.064023
 20
1668.803325
 30
0.0
 10
351.071898
 20
1668.803325
 30
0.0
 10
351.071898
 20
1631.008057
 30
0.0
 10
334.064023
 20
1631.008057
 30
0.0
 10
334.064023
 20
1593.212762
 30
0.0
 10
351.071898
 20
1593.212762
 30
0.0
 10
351.071898
 20
1555.417494
 30
0.0
 10
334.064023
 20
1555.417494
 30
0.0
 10
334.064023
 20
1517.622227
 30
0.0
 10
351.071898
 20
1517.622227
 30
0.0
 10
351.071898
 20
1479.826931
 30
0.0
 10
334.064023
 20
1479.826931
 30
0.0
 10
334.064023
 20
1442.031664
 30
0.0
 10
351.071898
 20
1442.031664
 30
0.0
 10
351.071898
 20
1404.236368
 30
0.0
 10
334.064023
 20
1404.236368
 30
0.0
 10
334.064023
 20
1366.441101
 30
0.0
 10
351.071898
 20
1366.441101
 30
0.0
 10
351.071898
 20
1328.645834
 30
0.0
 10
334.064023
 20
1328.645834
 30
0.0
 10
334.064023
 20
1290.850566
 30
0.0
 10
351.071898
 20
1290.850566
 30
0.0
 10
351.071898
 20
1253.055271
 30
0.0
 10
334.064023
 20
1253.055271
 30
0.0
 10
334.064023
 20
1215.260003
 30
0.0
 10
351.071898
 20
1215.260003
 30
0.0
 10
351.071898
 20
1177.464736
 30
0.0
 10
334.064023
 20
1177.464736
 30
0.0
 10
334.064023
 20
1139.669440
 30
0.0
 10
351.071898
 20
1139.669440
 30
0.0
 10
351.071898
 20
1101.874173
 30
0.0
 10
334.064023
 20
1101.874173
 30
0.0
 10
334.064023
 20
1064.078906
 30
0.0
 10
351.071898
 20
1064.078906
 30
0.0
 10
351.071898
 20
1026.283610
 30
0.0
 10
334.064023
 20
1026.283610
 30
0.0
 10
334.064023
 20
988.488343
 30
0.0
 10
351.071898
 20
988.488343
 30
0.0
 10
351.071898
 20
950.693075
 30
0.0
 10
334.064023
 20
950.693075
 30
0.0
 10
334.064023
 20
912.897808
 30
0.0
 10
351.071898
 20
912.897808
 30
0.0
 10
351.071898
 20
875.102512
 30
0.0
 10
334.064023
 20
875.102512
 30
0.0
 10
334.064023
 20
837.307245
 30
0.0
 10
351.071898
 20
837.307245
 30
0.0
 10
351.071898
 20
799.511978
 30
0.0
 10
334.064023
 20
799.511978
 30
0.0
 10
334.064023
 20
761.716427
 30
0.0
 10
351.071898
 20
761.716427
 30
0.0
 10
351.071898
 20
723.921528
 30
0.0
 10
334.064023
 20
723.921528
 30
0.0
 10
334.064023
 20
686.126062
 30
0.0
 10
351.071898
 20
686.126062
 30
0.0
 10
351.071898
 20
648.330880
 30
0.0
 10
334.064023
 20
648.330880
 30
0.0
 10
334.064023
 20
629.433147
 30
0.0
 10
319.635676
 20
629.433147
 30
0.0
 10
319.635676
 20
612.425556
 30
0.0
 10
290.778982
 20
612.425556
 30
0.0
 10
290.778982
 20
629.433147
 30
0.0
 10
261.922289
 20
629.433147
 30
0.0
 10
261.922289
 20
612.425556
 30
0.0
 10
233.065595
 20
612.425556
 30
0.0
 10
233.065595
 20
629.433147
 30
0.0
 10
204.208901
 20
629.433147
 30
0.0
 10
204.208901
 20
612.425556
 30
0.0
 10
175.352037
 20
612.425556
 30
0.0
 10
175.352037
 20
629.433147
 30
0.0
 10
146.495173
 20
629.433147
 30
0.0
 10
146.495173
 20
612.425556
 30
0.0
 10
117.638309
 20
612.425556
 30
0.0
 10
117.638309
 20
629.433147
 30
0.0
 10
88.781445
 20
629.433147
 30
0.0
 10
88.781445
 20
612.425556
 30
0.0
 10
59.924581
 20
612.425556
 30
0.0
 10
59.924581
 20
629.433147
 30
0.0
 10
45.496149
 20
629.433147
 30
0.0
  0
LWPOLYLINE
  5
185
100
AcDbEntity
  8
Layer_1
 62
5
100
AcDbPolyline
 90
3
 70
0
 10
28.488190
 20
612.425556
 30
0.0
 10
28.488190
 20
629.433147
 30
0.0
 10
45.496149
 20
629.433147
 30
0.0
  0
LWPOLYLINE
  5
186
100
AcDbEntity
  8
Layer_1
 62
5
100
AcDbPolyline
 90
80
 70
0
 10
351.071898
 20
629.433147
 30
0.0
 10
351.071898
 20
592.177682
 30
0.0
 10
334.064023
 20
592.177682
 30
0.0
 10
334.064023
 20
551.682783
 30
0.0
 10
351.071898
 20
551.682783
 30
0.0
 10
351.071898
 20
511.187884
 30
0.0
 10
334.064023
 20
511.187884
 30
0.0
 10
334.064023
 20
470.693268
 30
0.0
 10
351.071898
 20
470.693268
 30
0.0
 10
351.071898
 20
430.198369
 30
0.0
 10
334.064023
 20
430.198369
 30
0.0
 10
334.064023
 20
389.703470
 30
0.0
 10
351.071898
 20
389.703470
 30
0.0
 10
351.071898
 20
349.208572
 30
0.0
 10
334.064023
 20
349.208572
 30
0.0
 10
334.064023
 20
308.713673
 30
0.0
 10
351.071898
 20
308.713673
 30
0.0
 10
351.071898
 20
268.218774
 30
0.0
 10
334.064023
 20
268.218774
 30
0.0
 10
334.064023
 20
227.723875
 30
0.0
 10
351.071898
 20
227.723875
 30
0.0
 10
351.071898
 20
187.228692
 30
0.0
 10
334.064023
 20
187.228692
 30
0.0
 10
334.064023
 20
146.733794
 30
0.0
 10
351.071898
 20
146.733794
 30
0.0
 10
351.071898
 20
106.238895
 30
0.0
 10
334.064023
 20
106.238895
 30
0.0
 10
334.064023
 20
65.743996
 30
0.0
 10
351.071898
 20
65.743996
 30
0.0
 10
351.071898
 20
28.488530
 30
0.0
 10
319.635676
 20
28.488530
 30
0.0
 10
319.635676
 20
45.496405
 30
0.0
 10
290.778982
 20
45.496405
 30
0.0
 10
290.778982
 20
28.488530
 30
0.0
 10
261.922289
 20
28.488530
 30
0.0
 10
261.922289
 20
45.496405
 30
0.0
 10
233.065595
 20
45.496405
 30
0.0
 10
233.065595
 20
28.488530
 30
0.0
 10
204.208901
 20
28.488530
 30
0.0
 10
204.208901
 20
45.496405
 30
0.0
 10
175.352037
 20
45.496405
 30
0.0
 10
175.352037
 20
28.488530
 30
0.0
 10
146.495173
 20
28.488530
 30
0.0
 10
146.495173
 20
45.496405
 30
0.0
 10
117.638309
 20
45.496405
 30
0.0
 10
117.638309
 20
28.488530
 30
0.0
 10
88.781445
 20
28.488530
 30
0.0
 10
88.781445
 20
45.496405
 30
0.0
 10
59.924581
 20
45.496405
 30
0.0
 10
59.924581
 20
28.488530
 30
0.0
 10
28.488190
 20
28.488530
 30
0.0
 10
28.488190
 20
65.743996
 30
0.0
 10
45.496149
 20
65.743996
 30
0.0
 10
45.496149
 20
106.238895
 30
0.0
 10
28.488190
 20
106.238895
 30
0.0
 10
28.488190
 20
146.733794
 30
0.0
 10
45.496149
 20
146.733794
 30
0.0
 10
45.496149
 20
187.228692
 30
0.0
 10
28.488190
 20
187.228692
 30
0.0
 10
28.488190
 20
227.723875
 30
0.0
 10
45.496149
 20
227.723875
 30
0.0
 10
45.496149
 20
268.218774
 30
0.0
 10
28.488190
 20
268.218774
 30
0.0
 10
28.488190
 20
308.713673
 30
0.0
 10
45.496149
 20
308.713673
 30
0.0
 10
45.496149
 20
349.208572
 30
0.0
 10
28.488190
 20
349.208572
 30
0.0
 10
28.488190
 20
389.703470
 30
0.0
 10
45.496149
 20
389.703470
 30
0.0
 10
45.496149
 20
430.198369
 30
0.0
 10
28.488190
 20
430.198369
 30
0.0
 10
28.488190
 20
470.693268
 30
0.0
 10
45.496149
 20
470.693268
 30
0.0
 10
45.496149
 20
511.187884
 30
0.0
 10
28.488190
 20
511.187884
 30
0.0
 10
28.488190
 20
551.682783
 30
0.0
 10
45.496149
 20
551.682783
 30
0.0
 10
45.496149
 20
592.177682
 30
0.0
 10
28.488190
 20
592.177682
 30
0.0
 10
28.488190
 20
612.425556
 30
0.0
  0
SPLINE
  5
187
100
AcDbEntity
  8
Layer_1
 62
7
100
AcDbSpline
 70
8
 71
3
 72
8
 73
4
 74
0
 40
0
 40
0
 40
0
 40
0
 40
1
 40
1
 40
1
 40
1
 10
872.191625
 20
1567.832846
 30
0.0
 10
872.191625
 20
1566.325205
 30
0.0
 10
871.386249
 20
1564.932087
 30
0.0
 10
870.078873
 20
1564.178266
 30
0.0
  0
SPLINE
  5
188
100
AcDbEntity
  8
Layer_1
 62
7
100
AcDbSpline
 70
8
 71
3
 72
8
 73
4
 74
0
 40
0
 40
0
 40
0
 40
0
 40
1
 40
1
 40
1
 40
1
 10
870.078873
 20
1564.178266
 30
0.0
 10
868.771498
 20
1563.424445
 30
0.0
 10
867.160745
 20
1563.424445
 30
0.0
 10
865.853370
 20
1564.178266
 30
0.0
  0
SPLINE
  5
189
100
AcDbEntity
  8
Layer_1
 62
7
100
AcDbSpline
 70
8
 71
3
 72
8
 73
4
 74
0
 40
0
 40
0
 40
0
 40
0
 40
1
 40
1
 40
1
 40
1
 10
865.853370
 20
1564.178266
 30
0.0
 10
864.545995
 20
1564.932087
 30
0.0
 10
863.740618
 20
1566.325205
 30
0.0
 10
863.740618
 20
1567.832846
 30
0.0
  0
SPLINE
  5
18a
100
AcDbEntity
  8
Layer_1
 62
7
100
AcDbSpline
 70
8
 71
3
 72
8
 73
4
 74
0
 40
0
 40
0
 40
0
 40
0
 40
1
 40
1
 40
1
 40
1
 10
863.740618
 20
1567.832846
 30
0.0
 10
863.740618
 20
1569.340487
 30
0.0
 10
864.545995
 20
1570.733605
 30
0.0
 10
865.853370
 20
1571.487426
 30
0.0
  0
SPLINE
  5
18b
100
AcDbEntity
  8
Layer_1
 62
7
100
AcDbSpline
 70
8
 71
3
 72
8
 73
4
 74
0
 40
0
 40
0
 40
0
 40
0
 40
1
 40
1
 40
1
 40
1
 10
865.853370
 20
1571.487426
 30
0.0
 10
867.160745
 20
1572.241247
 30
0.0
 10
868.771498
 20
1572.241247
 30
0.0
 10
870.078873
 20
1571.487426
 30
0.0
  0
SPLINE
  5
18c
100
AcDbEntity
  8
Layer_1
 62
7
100
AcDbSpline
 70
8
 71
3
 72
8
 73
4
 74
0
 40
0
 40
0
 40
0
 40
0
 40
1
 40
1
 40
1
 40
1
 10
870.078873
 20
1571.487426
 30
0.0
 10
871.386249
 20
1570.733605
 30
0.0
 10
872.191625
 20
1569.340487
 30
0.0
 10
872.191625
 20
1567.832846
 30
0.0
  0
LWPOLYLINE
  5
18d
100
AcDbEntity
  8
Layer_1
 62
5
100
AcDbPolyline
 90
70
 70
0
 10
334.064023
 20
1763.291507
 30
0.0
 10
371.319375
 20
1763.291507
 30
0.0
 10
371.319375
 20
1780.299382
 30
0.0
 10
411.814303
 20
1780.299382
 30
0.0
 10
411.814303
 20
1763.291507
 30
0.0
 10
452.309230
 20
1763.291507
 30
0.0
 10
452.309230
 20
1780.299382
 30
0.0
 10
492.803902
 20
1780.299382
 30
0.0
 10
492.803902
 20
1763.291507
 30
0.0
 10
533.298603
 20
1763.291507
 30
0.0
 10
533.298603
 20
1780.299382
 30
0.0
 10
573.793303
 20
1780.299382
 30
0.0
 10
573.793303
 20
1763.291507
 30
0.0
 10
614.288004
 20
1763.291507
 30
0.0
 10
614.288004
 20
1780.299382
 30
0.0
 10
654.782732
 20
1780.299382
 30
0.0
 10
654.782732
 20
1763.291507
 30
0.0
 10
695.277433
 20
1763.291507
 30
0.0
 10
695.277433
 20
1780.299382
 30
0.0
 10
735.772162
 20
1780.299382
 30
0.0
 10
735.772162
 20
1763.291507
 30
0.0
 10
776.266862
 20
1763.291507
 30
0.0
 10
776.266862
 20
1780.299382
 30
0.0
 10
816.761818
 20
1780.299382
 30
0.0
 10
816.761818
 20
1763.291507
 30
0.0
 10
857.256773
 20
1763.291507
 30
0.0
 10
857.256773
 20
1780.299382
 30
0.0
 10
897.751672
 20
1780.299382
 30
0.0
 10
897.751672
 20
1763.291507
 30
0.0
 10
935.007025
 20
1763.291507
 30
0.0
 10
935.007025
 20
1744.393888
 30
0.0
 10
917.999122
 20
1744.393888
 30
0.0
 10
917.999122
 20
1706.598592
 30
0.0
 10
935.007025
 20
1706.598592
 30
0.0
 10
935.007025
 20
1668.803325
 30
0.0
 10
917.999122
 20
1668.803325
 30
0.0
 10
917.999122
 20
1631.008057
 30
0.0
 10
935.007025
 20
1631.008057
 30
0.0
 10
935.007025
 20
1621.700923
 30
0.0
 10
935.007025
 20
629.433147
 30
0.0
 10
897.751672
 20
629.433147
 30
0.0
 10
897.751672
 20
612.425556
 30
0.0
 10
857.256773
 20
612.425556
 30
0.0
 10
857.256773
 20
629.433147
 30
0.0
 10
816.761818
 20
629.433147
 30
0.0
 10
816.761818
 20
612.425556
 30
0.0
 10
776.266862
 20
612.425556
 30
0.0
 10
776.266862
 20
629.433147
 30
0.0
 10
735.772162
 20
629.433147
 30
0.0
 10
735.772162
 20
612.425556
 30
0.0
 10
695.277433
 20
612.425556
 30
0.0
 10
695.277433
 20
629.433147
 30
0.0
 10
654.782732
 20
629.433147
 30
0.0
 10
654.782732
 20
612.425556
 30
0.0
 10
614.288004
 20
612.425556
 30
0.0
 10
614.288004
 20
629.433147
 30
0.0
 10
573.793303
 20
629.433147
 30
0.0
 10
573.793303
 20
612.425556
 30
0.0
 10
533.298603
 20
612.425556
 30
0.0
 10
533.298603
 20
629.433147
 30
0.0
 10
492.803902
 20
629.433147
 30
0.0
 10
492.803902
 20
612.425556
 30
0.0
 10
452.309230
 20
612.425556
 30
0.0
 10
452.309230
 20
629.433147
 30
0.0
 10
411.814303
 20
629.433147
 30
0.0
 10
411.814303
 20
612.425556
 30
0.0
 10
371.319375
 20
612.425556
 30
0.0
 10
371.319375
 20
629.433147
 30
0.0
 10
351.071898
 20
629.433147
 30
0.0
 10
334.064023
 20
629.433147
 30
0.0
  0
SPLINE
  5
18e
100
AcDbEntity
  8
Layer_1
 62
7
100
AcDbSpline
 70
8
 71
3
 72
8
 73
4
 74
0
 40
0
 40
0
 40
0
 40
0
 40
1
 40
1
 40
1
 40
1
 10
617.081744
 20
1567.832846
 30
0.0
 10
617.081744
 20
1566.325205
 30
0.0
 10
616.276343
 20
1564.932087
 30
0.0
 10
614.968927
 20
1564.178266
 30
0.0
  0
SPLINE
  5
18f
100
AcDbEntity
  8
Layer_1
 62
7
100
AcDbSpline
 70
8
 71
3
 72
8
 73
4
 74
0
 40
0
 40
0
 40
0
 40
0
 40
1
 40
1
 40
1
 40
1
 10
614.968927
 20
1564.178266
 30
0.0
 10
613.661512
 20
1563.424445
 30
0.0
 10
612.050709
 20
1563.424445
 30
0.0
 10
610.743294
 20
1564.178266
 30
0.0
  0
SPLINE
  5
190
100
AcDbEntity
  8
Layer_1
 62
7
100
AcDbSpline
 70
8
 71
3
 72
8
 73
4
 74
0
 40
0
 40
0
 40
0
 40
0
 40
1
 40
1
 40
1
 40
1
 10
610.743294
 20
1564.178266
 30
0.0
 10
609.435879
 20
1564.932087
 30
0.0
 10
608.630477
 20
1566.325205
 30
0.0
 10
608.630477
 20
1567.832846
 30
0.0
  0
SPLINE
  5
191
100
AcDbEntity
  8
Layer_1
 62
7
100
AcDbSpline
 70
8
 71
3
 72
8
 73
4
 74
0
 40
0
 40
0
 40
0
 40
0
 40
1
 40
1
 40
1
 40
1
 10
608.630477
 20
1567.832846
 30
0.0
 10
608.630477
 20
1569.340487
 30
0.0
 10
609.435879
 20
1570.733605
 30
0.0
 10
610.743294
 20
1571.487426
 30
0.0
  0
SPLINE
  5
192
100
AcDbEntity
  8
Layer_1
 62
7
100
AcDbSpline
 70
8
 71
3
 72
8
 73
4
 74
0
 40
0
 40
0
 40
0
 40
0
 40
1
 40
1
 40
1
 40
1
 10
610.743294
 20
1571.487426
 30
0.0
 10
612.050709
 20
1572.241247
 30
0.0
 10
613.661512
 20
1572.241247
 30
0.0
 10
614.968927
 20
1571.487426
 30
0.0
  0
SPLINE
  5
193
100
AcDbEntity
  8
Layer_1
 62
7
100
AcDbSpline
 70
8
 71
3
 72
8
 73
4
 74
0
 40
0
 40
0
 40
0
 40
0
 40
1
 40
1
 40
1
 40
1
 10
614.968927
 20
1571.487426
 30
0.0
 10
616.276343
 20
1570.733605
 30
0.0
 10
617.081744
 20
1569.340487
 30
0.0
 10
617.081744
 20
1567.832846
 30
0.0
  0
LWPOLYLINE
  5
194
100
AcDbEntity
  8
Layer_1
 62
7
100
AcDbPolyline
 90
1
 70
1
 10
872.191625
 20
1567.832846
 30
0.0
  0
SPLINE
  5
195
100
AcDbEntity
  8
Layer_1
 62
7
100
AcDbSpline
 70
8
 71
3
 72
8
 73
4
 74
0
 40
0
 40
0
 40
0
 40
0
 40
1
 40
1
 40
1
 40
1
 10
872.191625
 20
1496.117556
 30
0.0
 10
872.191625
 20
1494.609914
 30
0.0
 10
871.386249
 20
1493.216796
 30
0.0
 10
870.078873
 20
1492.462975
 30
0.0
  0
SPLINE
  5
196
100
AcDbEntity
  8
Layer_1
 62
7
100
AcDbSpline
 70
8
 71
3
 72
8
 73
4
 74
0
 40
0
 40
0
 40
0
 40
0
 40
1
 40
1
 40
1
 40
1
 10
870.078873
 20
1492.462975
 30
0.0
 10
868.771498
 20
1491.709155
 30
0.0
 10
867.160745
 20
1491.709155
 30
0.0
 10
865.853370
 20
1492.462975
 30
0.0
  0
SPLINE
  5
197
100
AcDbEntity
  8
Layer_1
 62
7
100
AcDbSpline
 70
8
 71
3
 72
8
 73
4
 74
0
 40
0
 40
0
 40
0
 40
0
 40
1
 40
1
 40
1
 40
1
 10
865.853370
 20
1492.462975
 30
0.0
 10
864.545995
 20
1493.216796
 30
0.0
 10
863.740618
 20
1494.609914
 30
0.0
 10
863.740618
 20
1496.117556
 30
0.0
  0
SPLINE
  5
198
100
AcDbEntity
  8
Layer_1
 62
7
100
AcDbSpline
 70
8
 71
3
 72
8
 73
4
 74
0
 40
0
 40
0
 40
0
 40
0
 40
1
 40
1
 40
1
 40
1
 10
863.740618
 20
1496.117556
 30
0.0
 10
863.740618
 20
1497.625197
 30
0.0
 10
864.545995
 20
1499.018315
 30
0.0
 10
865.853370
 20
1499.772136
 30
0.0
  0
SPLINE
  5
199
100
AcDbEntity
  8
Layer_1
 62
7
100
AcDbSpline
 70
8
 71
3
 72
8
 73
4
 74
0
 40
0
 40
0
 40
0
 40
0
 40
1
 40
1
 40
1
 40
1
 10
865.853370
 20
1499.772136
 30
0.0
 10
867.160745
 20
1500.525956
 30
0.0
 10
868.771498
 20
1500.525956
 30
0.0
 10
870.078873
 20
1499.772136
 30
0.0
  0
SPLINE
  5
19a
100
AcDbEntity
  8
Layer_1
 62
7
100
AcDbSpline
 70
8
 71
3
 72
8
 73
4
 74
0
 40
0
 40
0
 40
0
 40
0
 40
1
 40
1
 40
1
 40
1
 10
870.078873
 20
1499.772136
 30
0.0
 10
871.386249
 20
1499.018315
 30
0.0
 10
872.191625
 20
1497.625197
 30
0.0
 10
872.191625
 20
1496.117556
 30
0.0
  0
LWPOLYLINE
  5
19b
100
AcDbEntity
  8
Layer_1
 62
7
100
AcDbPolyline
 90
1
 70
1
 10
617.081744
 20
1567.832846
 30
0.0
  0
SPLINE
  5
19c
100
AcDbEntity
  8
Layer_1
 62
7
100
AcDbSpline
 70
8
 71
3
 72
8
 73
4
 74
0
 40
0
 40
0
 40
0
 40
0
 40
1
 40
1
 40
1
 40
1
 10
617.081744
 20
1496.117556
 30
0.0
 10
617.081744
 20
1494.609914
 30
0.0
 10
616.276343
 20
1493.216796
 30
0.0
 10
614.968927
 20
1492.462975
 30
0.0
  0
SPLINE
  5
19d
100
AcDbEntity
  8
Layer_1
 62
7
100
AcDbSpline
 70
8
 71
3
 72
8
 73
4
 74
0
 40
0
 40
0
 40
0
 40
0
 40
1
 40
1
 40
1
 40
1
 10
614.968927
 20
1492.462975
 30
0.0
 10
613.661512
 20
1491.709155
 30
0.0
 10
612.050709
 20
1491.709155
 30
0.0
 10
610.743294
 20
1492.462975
 30
0.0
  0
SPLINE
  5
19e
100
AcDbEntity
  8
Layer_1
 62
7
100
AcDbSpline
 70
8
 71
3
 72
8
 73
4
 74
0
 40
0
 40
0
 40
0
 40
0
 40
1
 40
1
 40
1
 40
1
 10
610.743294
 20
1492.462975
 30
0.0
 10
609.435879
 20
1493.216796
 30
0.0
 10
608.630477
 20
1494.609914
 30
0.0
 10
608.630477
 20
1496.117556
 30
0.0
  0
SPLINE
  5
19f
100
AcDbEntity
  8
Layer_1
 62
7
100
AcDbSpline
 70
8
 71
3
 72
8
 73
4
 74
0
 40
0
 40
0
 40
0
 40
0
 40
1
 40
1
 40
1
 40
1
 10
608.630477
 20
1496.117556
 30
0.0
 10
608.630477
 20
1497.625197
 30
0.0
 10
609.435879
 20
1499.018315
 30
0.0
 10
610.743294
 20
1499.772136
 30
0.0
  0
SPLINE
  5
1a0
100
AcDbEntity
  8
Layer_1
 62
7
100
AcDbSpline
 70
8
 71
3
 72
8
 73
4
 74
0
 40
0
 40
0
 40
0
 40
0
 40
1
 40
1
 40
1
 40
1
 10
610.743294
 20
1499.772136
 30
0.0
 10
612.050709
 20
1500.525956
 30
0.0
 10
613.661512
 20
1500.525956
 30
0.0
 10
614.968927
 20
1499.772136
 30
0.0
  0
SPLINE
  5
1a1
100
AcDbEntity
  8
Layer_1
 62
7
100
AcDbSpline
 70
8
 71
3
 72
8
 73
4
 74
0
 40
0
 40
0
 40
0
 40
0
 40
1
 40
1
 40
1
 40
1
 10
614.968927
 20
1499.772136
 30
0.0
 10
616.276343
 20
1499.018315
 30
0.0
 10
617.081744
 20
1497.625197
 30
0.0
 10
617.081744
 20
1496.117556
 30
0.0
  0
LWPOLYLINE
  5
1a2
100
AcDbEntity
  8
Layer_1
 62
7
100
AcDbPolyline
 90
1
 70
1
 10
872.191625
 20
1496.117556
 30
0.0
  0
SPLINE
  5
1a3
100
AcDbEntity
  8
Layer_1
 62
7
100
AcDbSpline
 70
8
 71
3
 72
8
 73
4
 74
0
 40
0
 40
0
 40
0
 40
0
 40
1
 40
1
 40
1
 40
1
 10
872.191625
 20
1424.402095
 30
0.0
 10
872.191625
 20
1422.894454
 30
0.0
 10
871.386249
 20
1421.501336
 30
0.0
 10
870.078873
 20
1420.747515
 30
0.0
  0
SPLINE
  5
1a4
100
AcDbEntity
  8
Layer_1
 62
7
100
AcDbSpline
 70
8
 71
3
 72
8
 73
4
 74
0
 40
0
 40
0
 40
0
 40
0
 40
1
 40
1
 40
1
 40
1
 10
870.078873
 20
1420.747515
 30
0.0
 10
868.771498
 20
1419.993694
 30
0.0
 10
867.160745
 20
1419.993694
 30
0.0
 10
865.853370
 20
1420.747515
 30
0.0
  0
SPLINE
  5
1a5
100
AcDbEntity
  8
Layer_1
 62
7
100
AcDbSpline
 70
8
 71
3
 72
8
 73
4
 74
0
 40
0
 40
0
 40
0
 40
0
 40
1
 40
1
 40
1
 40
1
 10
865.853370
 20
1420.747515
 30
0.0
 10
864.545995
 20
1421.501336
 30
0.0
 10
863.740618
 20
1422.894454
 30
0.0
 10
863.740618
 20
1424.402095
 30
0.0
  0
SPLINE
  5
1a6
100
AcDbEntity
  8
Layer_1
 62
7
100
AcDbSpline
 70
8
 71
3
 72
8
 73
4
 74
0
 40
0
 40
0
 40
0
 40
0
 40
1
 40
1
 40
1
 40
1
 10
863.740618
 20
1424.402095
 30
0.0
 10
863.740618
 20
1425.909736
 30
0.0
 10
864.545995
 20
1427.302855
 30
0.0
 10
865.853370
 20
1428.056675
 30
0.0
  0
SPLINE
  5
1a7
100
AcDbEntity
  8
Layer_1
 62
7
100
AcDbSpline
 70
8
 71
3
 72
8
 73
4
 74
0
 40
0
 40
0
 40
0
 40
0
 40
1
 40
1
 40
1
 40
1
 10
865.853370
 20
1428.056675
 30
0.0
 10
867.160745
 20
1428.810496
 30
0.0
 10
868.771498
 20
1428.810496
 30
0.0
 10
870.078873
 20
1428.056675
 30
0.0
  0
SPLINE
  5
1a8
100
AcDbEntity
  8
Layer_1
 62
7
100
AcDbSpline
 70
8
 71
3
 72
8
 73
4
 74
0
 40
0
 40
0
 40
0
 40
0
 40
1
 40
1
 40
1
 40
1
 10
870.078873
 20
1428.056675
 30
0.0
 10
871.386249
 20
1427.302855
 30
0.0
 10
872.191625
 20
1425.909736
 30
0.0
 10
872.191625
 20
1424.402095
 30
0.0
  0
LWPOLYLINE
  5
1a9
100
AcDbEntity
  8
Layer_1
 62
7
100
AcDbPolyline
 90
1
 70
1
 10
617.081744
 20
1496.117556
 30
0.0
  0
SPLINE
  5
1aa
100
AcDbEntity
  8
Layer_1
 62
7
100
AcDbSpline
 70
8
 71
3
 72
8
 73
4
 74
0
 40
0
 40
0
 40
0
 40
0
 40
1
 40
1
 40
1
 40
1
 10
617.081744
 20
1424.402095
 30
0.0
 10
617.081744
 20
1422.894454
 30
0.0
 10
616.276343
 20
1421.501336
 30
0.0
 10
614.968927
 20
1420.747515
 30
0.0
  0
SPLINE
  5
1ab
100
AcDbEntity
  8
Layer_1
 62
7
100
AcDbSpline
 70
8
 71
3
 72
8
 73
4
 74
0
 40
0
 40
0
 40
0
 40
0
 40
1
 40
1
 40
1
 40
1
 10
614.968927
 20
1420.747515
 30
0.0
 10
613.661512
 20
1419.993694
 30
0.0
 10
612.050709
 20
1419.993694
 30
0.0
 10
610.743294
 20
1420.747515
 30
0.0
  0
SPLINE
  5
1ac
100
AcDbEntity
  8
Layer_1
 62
7
100
AcDbSpline
 70
8
 71
3
 72
8
 73
4
 74
0
 40
0
 40
0
 40
0
 40
0
 40
1
 40
1
 40
1
 40
1
 10
610.743294
 20
1420.747515
 30
0.0
 10
609.435879
 20
1421.501336
 30
0.0
 10
608.630477
 20
1422.894454
 30
0.0
 10
608.630477
 20
1424.402095
 30
0.0
  0
SPLINE
  5
1ad
100
AcDbEntity
  8
Layer_1
 62
7
100
AcDbSpline
 70
8
 71
3
 72
8
 73
4
 74
0
 40
0
 40
0
 40
0
 40
0
 40
1
 40
1
 40
1
 40
1
 10
608.630477
 20
1424.402095
 30
0.0
 10
608.630477
 20
1425.909736
 30
0.0
 10
609.435879
 20
1427.302855
 30
0.0
 10
610.743294
 20
1428.056675
 30
0.0
  0
SPLINE
  5
1ae
100
AcDbEntity
  8
Layer_1
 62
7
100
AcDbSpline
 70
8
 71
3
 72
8
 73
4
 74
0
 40
0
 40
0
 40
0
 40
0
 40
1
 40
1
 40
1
 40
1
 10
610.743294
 20
1428.056675
 30
0.0
 10
612.050709
 20
1428.810496
 30
0.0
 10
613.661512
 20
1428.810496
 30
0.0
 10
614.968927
 20
1428.056675
 30
0.0
  0
SPLINE
  5
1af
100
AcDbEntity
  8
Layer_1
 62
7
100
AcDbSpline
 70
8
 71
3
 72
8
 73
4
 74
0
 40
0
 40
0
 40
0
 40
0
 40
1
 40
1
 40
1
 40
1
 10
614.968927
 20
1428.056675
 30
0.0
 10
616.276343
 20
1427.302855
 30
0.0
 10
617.081744
 20
1425.909736
 30
0.0
 10
617.081744
 20
1424.402095
 30
0.0
  0
LWPOLYLINE
  5
1b0
100
AcDbEntity
  8
Layer_1
 62
7
100
AcDbPolyline
 90
1
 70
1
 10
872.191625
 20
1424.402095
 30
0.0
  0
SPLINE
  5
1b1
100
AcDbEntity
  8
Layer_1
 62
7
100
AcDbSpline
 70
8
 71
3
 72
8
 73
4
 74
0
 40
0
 40
0
 40
0
 40
0
 40
1
 40
1
 40
1
 40
1
 10
872.191625
 20
1352.686436
 30
0.0
 10
872.191625
 20
1351.178795
 30
0.0
 10
871.386249
 20
1349.785677
 30
0.0
 10
870.078873
 20
1349.031856
 30
0.0
  0
SPLINE
  5
1b2
100
AcDbEntity
  8
Layer_1
 62
7
100
AcDbSpline
 70
8
 71
3
 72
8
 73
4
 74
0
 40
0
 40
0
 40
0
 40
0
 40
1
 40
1
 40
1
 40
1
 10
870.078873
 20
1349.031856
 30
0.0
 10
868.771498
 20
1348.278035
 30
0.0
 10
867.160745
 20
1348.278035
 30
0.0
 10
865.853370
 20
1349.031856
 30
0.0
  0
SPLINE
  5
1b3
100
AcDbEntity
  8
Layer_1
 62
7
100
AcDbSpline
 70
8
 71
3
 72
8
 73
4
 74
0
 40
0
 40
0
 40
0
 40
0
 40
1
 40
1
 40
1
 40
1
 10
865.853370
 20
1349.031856
 30
0.0
 10
864.545995
 20
1349.785677
 30
0.0
 10
863.740618
 20
1351.178795
 30
0.0
 10
863.740618
 20
1352.686436
 30
0.0
  0
SPLINE
  5
1b4
100
AcDbEntity
  8
Layer_1
 62
7
100
AcDbSpline
 70
8
 71
3
 72
8
 73
4
 74
0
 40
0
 40
0
 40
0
 40
0
 40
1
 40
1
 40
1
 40
1
 10
863.740618
 20
1352.686436
 30
0.0
 10
863.740618
 20
1354.194077
 30
0.0
 10
864.545995
 20
1355.587196
 30
0.0
 10
865.853370
 20
1356.341016
 30
0.0
  0
SPLINE
  5
1b5
100
AcDbEntity
  8
Layer_1
 62
7
100
AcDbSpline
 70
8
 71
3
 72
8
 73
4
 74
0
 40
0
 40
0
 40
0
 40
0
 40
1
 40
1
 40
1
 40
1
 10
865.853370
 20
1356.341016
 30
0.0
 10
867.160745
 20
1357.094837
 30
0.0
 10
868.771498
 20
1357.094837
 30
0.0
 10
870.078873
 20
1356.341016
 30
0.0
  0
SPLINE
  5
1b6
100
AcDbEntity
  8
Layer_1
 62
7
100
AcDbSpline
 70
8
 71
3
 72
8
 73
4
 74
0
 40
0
 40
0
 40
0
 40
0
 40
1
 40
1
 40
1
 40
1
 10
870.078873
 20
1356.341016
 30
0.0
 10
871.386249
 20
1355.587196
 30
0.0
 10
872.191625
 20
1354.194077
 30
0.0
 10
872.191625
 20
1352.686436
 30
0.0
  0
LWPOLYLINE
  5
1b7
100
AcDbEntity
  8
Layer_1
 62
7
100
AcDbPolyline
 90
1
 70
1
 10
617.081744
 20
1424.402095
 30
0.0
  0
SPLINE
  5
1b8
100
AcDbEntity
  8
Layer_1
 62
7
100
AcDbSpline
 70
8
 71
3
 72
8
 73
4
 74
0
 40
0
 40
0
 40
0
 40
0
 40
1
 40
1
 40
1
 40
1
 10
617.081744
 20
1352.686436
 30
0.0
 10
617.081744
 20
1351.178795
 30
0.0
 10
616.276343
 20
1349.785677
 30
0.0
 10
614.968927
 20
1349.031856
 30
0.0
  0
SPLINE
  5
1b9
100
AcDbEntity
  8
Layer_1
 62
7
100
AcDbSpline
 70
8
 71
3
 72
8
 73
4
 74
0
 40
0
 40
0
 40
0
 40
0
 40
1
 40
1
 40
1
 40
1
 10
614.968927
 20
1349.031856
 30
0.0
 10
613.661512
 20
1348.278035
 30
0.0
 10
612.050709
 20
1348.278035
 30
0.0
 10
610.743294
 20
1349.031856
 30
0.0
  0
SPLINE
  5
1ba
100
AcDbEntity
  8
Layer_1
 62
7
100
AcDbSpline
 70
8
 71
3
 72
8
 73
4
 74
0
 40
0
 40
0
 40
0
 40
0
 40
1
 40
1
 40
1
 40
1
 10
610.743294
 20
1349.031856
 30
0.0
 10
609.435879
 20
1349.785677
 30
0.0
 10
608.630477
 20
1351.178795
 30
0.0
 10
608.630477
 20
1352.686436
 30
0.0
  0
SPLINE
  5
1bb
100
AcDbEntity
  8
Layer_1
 62
7
100
AcDbSpline
 70
8
 71
3
 72
8
 73
4
 74
0
 40
0
 40
0
 40
0
 40
0
 40
1
 40
1
 40
1
 40
1
 10
608.630477
 20
1352.686436
 30
0.0
 10
608.630477
 20
1354.194077
 30
0.0
 10
609.435879
 20
1355.587196
 30
0.0
 10
610.743294
 20
1356.341016
 30
0.0
  0
SPLINE
  5
1bc
100
AcDbEntity
  8
Layer_1
 62
7
100
AcDbSpline
 70
8
 71
3
 72
8
 73
4
 74
0
 40
0
 40
0
 40
0
 40
0
 40
1
 40
1
 40
1
 40
1
 10
610.743294
 20
1356.341016
 30
0.0
 10
612.050709
 20
1357.094837
 30
0.0
 10
613.661512
 20
1357.094837
 30
0.0
 10
614.968927
 20
1356.341016
 30
0.0
  0
SPLINE
  5
1bd
100
AcDbEntity
  8
Layer_1
 62
7
100
AcDbSpline
 70
8
 71
3
 72
8
 73
4
 74
0
 40
0
 40
0
 40
0
 40
0
 40
1
 40
1
 40
1
 40
1
 10
614.968927
 20
1356.341016
 30
0.0
 10
616.276343
 20
1355.587196
 30
0.0
 10
617.081744
 20
1354.194077
 30
0.0
 10
617.081744
 20
1352.686436
 30
0.0
  0
LWPOLYLINE
  5
1be
100
AcDbEntity
  8
Layer_1
 62
7
100
AcDbPolyline
 90
1
 70
1
 10
872.191625
 20
1352.686436
 30
0.0
  0
SPLINE
  5
1bf
100
AcDbEntity
  8
Layer_1
 62
7
100
AcDbSpline
 70
8
 71
3
 72
8
 73
4
 74
0
 40
0
 40
0
 40
0
 40
0
 40
1
 40
1
 40
1
 40
1
 10
872.191625
 20
1280.970976
 30
0.0
 10
872.191625
 20
1279.463334
 30
0.0
 10
871.386249
 20
1278.070216
 30
0.0
 10
870.078873
 20
1277.316395
 30
0.0
  0
SPLINE
  5
1c0
100
AcDbEntity
  8
Layer_1
 62
7
100
AcDbSpline
 70
8
 71
3
 72
8
 73
4
 74
0
 40
0
 40
0
 40
0
 40
0
 40
1
 40
1
 40
1
 40
1
 10
870.078873
 20
1277.316395
 30
0.0
 10
868.771498
 20
1276.562575
 30
0.0
 10
867.160745
 20
1276.562575
 30
0.0
 10
865.853370
 20
1277.316395
 30
0.0
  0
SPLINE
  5
1c1
100
AcDbEntity
  8
Layer_1
 62
7
100
AcDbSpline
 70
8
 71
3
 72
8
 73
4
 74
0
 40
0
 40
0
 40
0
 40
0
 40
1
 40
1
 40
1
 40
1
 10
865.853370
 20
1277.316395
 30
0.0
 10
864.545995
 20
1278.070216
 30
0.0
 10
863.740618
 20
1279.463334
 30
0.0
 10
863.740618
 20
1280.970976
 30
0.0
  0
SPLINE
  5
1c2
100
AcDbEntity
  8
Layer_1
 62
7
100
AcDbSpline
 70
8
 71
3
 72
8
 73
4
 74
0
 40
0
 40
0
 40
0
 40
0
 40
1
 40
1
 40
1
 40
1
 10
863.740618
 20
1280.970976
 30
0.0
 10
863.740618
 20
1282.478617
 30
0.0
 10
864.545995
 20
1283.871735
 30
0.0
 10
865.853370
 20
1284.625556
 30
0.0
  0
SPLINE
  5
1c3
100
AcDbEntity
  8
Layer_1
 62
7
100
AcDbSpline
 70
8
 71
3
 72
8
 73
4
 74
0
 40
0
 40
0
 40
0
 40
0
 40
1
 40
1
 40
1
 40
1
 10
865.853370
 20
1284.625556
 30
0.0
 10
867.160745
 20
1285.379376
 30
0.0
 10
868.771498
 20
1285.379376
 30
0.0
 10
870.078873
 20
1284.625556
 30
0.0
  0
SPLINE
  5
1c4
100
AcDbEntity
  8
Layer_1
 62
7
100
AcDbSpline
 70
8
 71
3
 72
8
 73
4
 74
0
 40
0
 40
0
 40
0
 40
0
 40
1
 40
1
 40
1
 40
1
 10
870.078873
 20
1284.625556
 30
0.0
 10
871.386249
 20
1283.871735
 30
0.0
 10
872.191625
 20
1282.478617
 30
0.0
 10
872.191625
 20
1280.970976
 30
0.0
  0
LWPOLYLINE
  5
1c5
100
AcDbEntity
  8
Layer_1
 62
7
100
AcDbPolyline
 90
1
 70
1
 10
617.081744
 20
1352.686436
 30
0.0
  0
SPLINE
  5
1c6
100
AcDbEntity
  8
Layer_1
 62
7
100
AcDbSpline
 70
8
 71
3
 72
8
 73
4
 74
0
 40
0
 40
0
 40
0
 40
0
 40
1
 40
1
 40
1
 40
1
 10
617.081744
 20
1280.970976
 30
0.0
 10
617.081744
 20
1279.463334
 30
0.0
 10
616.276343
 20
1278.070216
 30
0.0
 10
614.968927
 20
1277.316395
 30
0.0
  0
SPLINE
  5
1c7
100
AcDbEntity
  8
Layer_1
 62
7
100
AcDbSpline
 70
8
 71
3
 72
8
 73
4
 74
0
 40
0
 40
0
 40
0
 40
0
 40
1
 40
1
 40
1
 40
1
 10
614.968927
 20
1277.316395
 30
0.0
 10
613.661512
 20
1276.562575
 30
0.0
 10
612.050709
 20
1276.562575
 30
0.0
 10
610.743294
 20
1277.316395
 30
0.0
  0
SPLINE
  5
1c8
100
AcDbEntity
  8
Layer_1
 62
7
100
AcDbSpline
 70
8
 71
3
 72
8
 73
4
 74
0
 40
0
 40
0
 40
0
 40
0
 40
1
 40
1
 40
1
 40
1
 10
610.743294
 20
1277.316395
 30
0.0
 10
609.435879
 20
1278.070216
 30
0.0
 10
608.630477
 20
1279.463334
 30
0.0
 10
608.630477
 20
1280.970976
 30
0.0
  0
SPLINE
  5
1c9
100
AcDbEntity
  8
Layer_1
 62
7
100
AcDbSpline
 70
8
 71
3
 72
8
 73
4
 74
0
 40
0
 40
0
 40
0
 40
0
 40
1
 40
1
 40
1
 40
1
 10
608.630477
 20
1280.970976
 30
0.0
 10
608.630477
 20
1282.478617
 30
0.0
 10
609.435879
 20
1283.871735
 30
0.0
 10
610.743294
 20
1284.625556
 30
0.0
  0
SPLINE
  5
1ca
100
AcDbEntity
  8
Layer_1
 62
7
100
AcDbSpline
 70
8
 71
3
 72
8
 73
4
 74
0
 40
0
 40
0
 40
0
 40
0
 40
1
 40
1
 40
1
 40
1
 10
610.743294
 20
1284.625556
 30
0.0
 10
612.050709
 20
1285.379376
 30
0.0
 10
613.661512
 20
1285.379376
 30
0.0
 10
614.968927
 20
1284.625556
 30
0.0
  0
SPLINE
  5
1cb
100
AcDbEntity
  8
Layer_1
 62
7
100
AcDbSpline
 70
8
 71
3
 72
8
 73
4
 74
0
 40
0
 40
0
 40
0
 40
0
 40
1
 40
1
 40
1
 40
1
 10
614.968927
 20
1284.625556
 30
0.0
 10
616.276343
 20
1283.871735
 30
0.0
 10
617.081744
 20
1282.478617
 30
0.0
 10
617.081744
 20
1280.970976
 30
0.0
  0
LWPOLYLINE
  5
1cc
100
AcDbEntity
  8
Layer_1
 62
7
100
AcDbPolyline
 90
1
 70
1
 10
872.191625
 20
1280.970976
 30
0.0
  0
SPLINE
  5
1cd
100
AcDbEntity
  8
Layer_1
 62
7
100
AcDbSpline
 70
8
 71
3
 72
8
 73
4
 74
0
 40
0
 40
0
 40
0
 40
0
 40
1
 40
1
 40
1
 40
1
 10
872.191256
 20
1209.255515
 30
0.0
 10
872.191256
 20
1207.747874
 30
0.0
 10
871.385880
 20
1206.354756
 30
0.0
 10
870.078505
 20
1205.600935
 30
0.0
  0
SPLINE
  5
1ce
100
AcDbEntity
  8
Layer_1
 62
7
100
AcDbSpline
 70
8
 71
3
 72
8
 73
4
 74
0
 40
0
 40
0
 40
0
 40
0
 40
1
 40
1
 40
1
 40
1
 10
870.078505
 20
1205.600935
 30
0.0
 10
868.771130
 20
1204.847114
 30
0.0
 10
867.160377
 20
1204.847114
 30
0.0
 10
865.853002
 20
1205.600935
 30
0.0
  0
SPLINE
  5
1cf
100
AcDbEntity
  8
Layer_1
 62
7
100
AcDbSpline
 70
8
 71
3
 72
8
 73
4
 74
0
 40
0
 40
0
 40
0
 40
0
 40
1
 40
1
 40
1
 40
1
 10
865.853002
 20
1205.600935
 30
0.0
 10
864.545626
 20
1206.354756
 30
0.0
 10
863.740250
 20
1207.747874
 30
0.0
 10
863.740250
 20
1209.255515
 30
0.0
  0
SPLINE
  5
1d0
100
AcDbEntity
  8
Layer_1
 62
7
100
AcDbSpline
 70
8
 71
3
 72
8
 73
4
 74
0
 40
0
 40
0
 40
0
 40
0
 40
1
 40
1
 40
1
 40
1
 10
863.740250
 20
1209.255515
 30
0.0
 10
863.740250
 20
1210.763156
 30
0.0
 10
864.545626
 20
1212.156275
 30
0.0
 10
865.853002
 20
1212.910095
 30
0.0
  0
SPLINE
  5
1d1
100
AcDbEntity
  8
Layer_1
 62
7
100
AcDbSpline
 70
8
 71
3
 72
8
 73
4
 74
0
 40
0
 40
0
 40
0
 40
0
 40
1
 40
1
 40
1
 40
1
 10
865.853002
 20
1212.910095
 30
0.0
 10
867.160377
 20
1213.663916
 30
0.0
 10
868.771130
 20
1213.663916
 30
0.0
 10
870.078505
 20
1212.910095
 30
0.0
  0
SPLINE
  5
1d2
100
AcDbEntity
  8
Layer_1
 62
7
100
AcDbSpline
 70
8
 71
3
 72
8
 73
4
 74
0
 40
0
 40
0
 40
0
 40
0
 40
1
 40
1
 40
1
 40
1
 10
870.078505
 20
1212.910095
 30
0.0
 10
871.385880
 20
1212.156275
 30
0.0
 10
872.191256
 20
1210.763156
 30
0.0
 10
872.191256
 20
1209.255515
 30
0.0
  0
LWPOLYLINE
  5
1d3
100
AcDbEntity
  8
Layer_1
 62
7
100
AcDbPolyline
 90
1
 70
1
 10
617.081744
 20
1280.970976
 30
0.0
  0
SPLINE
  5
1d4
100
AcDbEntity
  8
Layer_1
 62
7
100
AcDbSpline
 70
8
 71
3
 72
8
 73
4
 74
0
 40
0
 40
0
 40
0
 40
0
 40
1
 40
1
 40
1
 40
1
 10
617.081744
 20
1209.255515
 30
0.0
 10
617.081744
 20
1207.747874
 30
0.0
 10
616.276343
 20
1206.354756
 30
0.0
 10
614.968927
 20
1205.600935
 30
0.0
  0
SPLINE
  5
1d5
100
AcDbEntity
  8
Layer_1
 62
7
100
AcDbSpline
 70
8
 71
3
 72
8
 73
4
 74
0
 40
0
 40
0
 40
0
 40
0
 40
1
 40
1
 40
1
 40
1
 10
614.968927
 20
1205.600935
 30
0.0
 10
613.661512
 20
1204.847114
 30
0.0
 10
612.050709
 20
1204.847114
 30
0.0
 10
610.743294
 20
1205.600935
 30
0.0
  0
SPLINE
  5
1d6
100
AcDbEntity
  8
Layer_1
 62
7
100
AcDbSpline
 70
8
 71
3
 72
8
 73
4
 74
0
 40
0
 40
0
 40
0
 40
0
 40
1
 40
1
 40
1
 40
1
 10
610.743294
 20
1205.600935
 30
0.0
 10
609.435879
 20
1206.354756
 30
0.0
 10
608.630477
 20
1207.747874
 30
0.0
 10
608.630477
 20
1209.255515
 30
0.0
  0
SPLINE
  5
1d7
100
AcDbEntity
  8
Layer_1
 62
7
100
AcDbSpline
 70
8
 71
3
 72
8
 73
4
 74
0
 40
0
 40
0
 40
0
 40
0
 40
1
 40
1
 40
1
 40
1
 10
608.630477
 20
1209.255515
 30
0.0
 10
608.630477
 20
1210.763156
 30
0.0
 10
609.435879
 20
1212.156275
 30
0.0
 10
610.743294
 20
1212.910095
 30
0.0
  0
SPLINE
  5
1d8
100
AcDbEntity
  8
Layer_1
 62
7
100
AcDbSpline
 70
8
 71
3
 72
8
 73
4
 74
0
 40
0
 40
0
 40
0
 40
0
 40
1
 40
1
 40
1
 40
1
 10
610.743294
 20
1212.910095
 30
0.0
 10
612.050709
 20
1213.663916
 30
0.0
 10
613.661512
 20
1213.663916
 30
0.0
 10
614.968927
 20
1212.910095
 30
0.0
  0
SPLINE
  5
1d9
100
AcDbEntity
  8
Layer_1
 62
7
100
AcDbSpline
 70
8
 71
3
 72
8
 73
4
 74
0
 40
0
 40
0
 40
0
 40
0
 40
1
 40
1
 40
1
 40
1
 10
614.968927
 20
1212.910095
 30
0.0
 10
616.276343
 20
1212.156275
 30
0.0
 10
617.081744
 20
1210.763156
 30
0.0
 10
617.081744
 20
1209.255515
 30
0.0
  0
LWPOLYLINE
  5
1da
100
AcDbEntity
  8
Layer_1
 62
7
100
AcDbPolyline
 90
1
 70
1
 10
872.191256
 20
1209.255515
 30
0.0
  0
SPLINE
  5
1db
100
AcDbEntity
  8
Layer_1
 62
7
100
AcDbSpline
 70
8
 71
3
 72
8
 73
4
 74
0
 40
0
 40
0
 40
0
 40
0
 40
1
 40
1
 40
1
 40
1
 10
872.191256
 20
1137.540055
 30
0.0
 10
872.191256
 20
1136.032413
 30
0.0
 10
871.385880
 20
1134.639295
 30
0.0
 10
870.078505
 20
1133.885474
 30
0.0
  0
SPLINE
  5
1dc
100
AcDbEntity
  8
Layer_1
 62
7
100
AcDbSpline
 70
8
 71
3
 72
8
 73
4
 74
0
 40
0
 40
0
 40
0
 40
0
 40
1
 40
1
 40
1
 40
1
 10
870.078505
 20
1133.885474
 30
0.0
 10
868.771130
 20
1133.131654
 30
0.0
 10
867.160377
 20
1133.131654
 30
0.0
 10
865.853002
 20
1133.885474
 30
0.0
  0
SPLINE
  5
1dd
100
AcDbEntity
  8
Layer_1
 62
7
100
AcDbSpline
 70
8
 71
3
 72
8
 73
4
 74
0
 40
0
 40
0
 40
0
 40
0
 40
1
 40
1
 40
1
 40
1
 10
865.853002
 20
1133.885474
 30
0.0
 10
864.545626
 20
1134.639295
 30
0.0
 10
863.740250
 20
1136.032413
 30
0.0
 10
863.740250
 20
1137.540055
 30
0.0
  0
SPLINE
  5
1de
100
AcDbEntity
  8
Layer_1
 62
7
100
AcDbSpline
 70
8
 71
3
 72
8
 73
4
 74
0
 40
0
 40
0
 40
0
 40
0
 40
1
 40
1
 40
1
 40
1
 10
863.740250
 20
1137.540055
 30
0.0
 10
863.740250
 20
1139.047696
 30
0.0
 10
864.545626
 20
1140.440814
 30
0.0
 10
865.853002
 20
1141.194635
 30
0.0
  0
SPLINE
  5
1df
100
AcDbEntity
  8
Layer_1
 62
7
100
AcDbSpline
 70
8
 71
3
 72
8
 73
4
 74
0
 40
0
 40
0
 40
0
 40
0
 40
1
 40
1
 40
1
 40
1
 10
865.853002
 20
1141.194635
 30
0.0
 10
867.160377
 20
1141.948455
 30
0.0
 10
868.771130
 20
1141.948455
 30
0.0
 10
870.078505
 20
1141.194635
 30
0.0
  0
SPLINE
  5
1e0
100
AcDbEntity
  8
Layer_1
 62
7
100
AcDbSpline
 70
8
 71
3
 72
8
 73
4
 74
0
 40
0
 40
0
 40
0
 40
0
 40
1
 40
1
 40
1
 40
1
 10
870.078505
 20
1141.194635
 30
0.0
 10
871.385880
 20
1140.440814
 30
0.0
 10
872.191256
 20
1139.047696
 30
0.0
 10
872.191256
 20
1137.540055
 30
0.0
  0
LWPOLYLINE
  5
1e1
100
AcDbEntity
  8
Layer_1
 62
7
100
AcDbPolyline
 90
1
 70
1
 10
617.081744
 20
1209.255515
 30
0.0
  0
SPLINE
  5
1e2
100
AcDbEntity
  8
Layer_1
 62
7
100
AcDbSpline
 70
8
 71
3
 72
8
 73
4
 74
0
 40
0
 40
0
 40
0
 40
0
 40
1
 40
1
 40
1
 40
1
 10
617.081744
 20
1137.540055
 30
0.0
 10
617.081744
 20
1136.032413
 30
0.0
 10
616.276343
 20
1134.639295
 30
0.0
 10
614.968927
 20
1133.885474
 30
0.0
  0
SPLINE
  5
1e3
100
AcDbEntity
  8
Layer_1
 62
7
100
AcDbSpline
 70
8
 71
3
 72
8
 73
4
 74
0
 40
0
 40
0
 40
0
 40
0
 40
1
 40
1
 40
1
 40
1
 10
614.968927
 20
1133.885474
 30
0.0
 10
613.661512
 20
1133.131654
 30
0.0
 10
612.050709
 20
1133.131654
 30
0.0
 10
610.743294
 20
1133.885474
 30
0.0
  0
SPLINE
  5
1e4
100
AcDbEntity
  8
Layer_1
 62
7
100
AcDbSpline
 70
8
 71
3
 72
8
 73
4
 74
0
 40
0
 40
0
 40
0
 40
0
 40
1
 40
1
 40
1
 40
1
 10
610.743294
 20
1133.885474
 30
0.0
 10
609.435879
 20
1134.639295
 30
0.0
 10
608.630477
 20
1136.032413
 30
0.0
 10
608.630477
 20
1137.540055
 30
0.0
  0
SPLINE
  5
1e5
100
AcDbEntity
  8
Layer_1
 62
7
100
AcDbSpline
 70
8
 71
3
 72
8
 73
4
 74
0
 40
0
 40
0
 40
0
 40
0
 40
1
 40
1
 40
1
 40
1
 10
608.630477
 20
1137.540055
 30
0.0
 10
608.630477
 20
1139.047696
 30
0.0
 10
609.435879
 20
1140.440814
 30
0.0
 10
610.743294
 20
1141.194635
 30
0.0
  0
SPLINE
  5
1e6
100
AcDbEntity
  8
Layer_1
 62
7
100
AcDbSpline
 70
8
 71
3
 72
8
 73
4
 74
0
 40
0
 40
0
 40
0
 40
0
 40
1
 40
1
 40
1
 40
1
 10
610.743294
 20
1141.194635
 30
0.0
 10
612.050709
 20
1141.948455
 30
0.0
 10
613.661512
 20
1141.948455
 30
0.0
 10
614.968927
 20
1141.194635
 30
0.0
  0
SPLINE
  5
1e7
100
AcDbEntity
  8
Layer_1
 62
7
100
AcDbSpline
 70
8
 71
3
 72
8
 73
4
 74
0
 40
0
 40
0
 40
0
 40
0
 40
1
 40
1
 40
1
 40
1
 10
614.968927
 20
1141.194635
 30
0.0
 10
616.276343
 20
1140.440814
 30
0.0
 10
617.081744
 20
1139.047696
 30
0.0
 10
617.081744
 20
1137.540055
 30
0.0
  0
LWPOLYLINE
  5
1e8
100
AcDbEntity
  8
Layer_1
 62
7
100
AcDbPolyline
 90
1
 70
1
 10
872.191256
 20
1137.540055
 30
0.0
  0
SPLINE
  5
1e9
100
AcDbEntity
  8
Layer_1
 62
7
100
AcDbSpline
 70
8
 71
3
 72
8
 73
4
 74
0
 40
0
 40
0
 40
0
 40
0
 40
1
 40
1
 40
1
 40
1
 10
872.191256
 20
1065.824594
 30
0.0
 10
872.191256
 20
1064.316953
 30
0.0
 10
871.385880
 20
1062.923835
 30
0.0
 10
870.078505
 20
1062.170014
 30
0.0
  0
SPLINE
  5
1ea
100
AcDbEntity
  8
Layer_1
 62
7
100
AcDbSpline
 70
8
 71
3
 72
8
 73
4
 74
0
 40
0
 40
0
 40
0
 40
0
 40
1
 40
1
 40
1
 40
1
 10
870.078505
 20
1062.170014
 30
0.0
 10
868.771130
 20
1061.416193
 30
0.0
 10
867.160377
 20
1061.416193
 30
0.0
 10
865.853002
 20
1062.170014
 30
0.0
  0
SPLINE
  5
1eb
100
AcDbEntity
  8
Layer_1
 62
7
100
AcDbSpline
 70
8
 71
3
 72
8
 73
4
 74
0
 40
0
 40
0
 40
0
 40
0
 40
1
 40
1
 40
1
 40
1
 10
865.853002
 20
1062.170014
 30
0.0
 10
864.545626
 20
1062.923835
 30
0.0
 10
863.740250
 20
1064.316953
 30
0.0
 10
863.740250
 20
1065.824594
 30
0.0
  0
SPLINE
  5
1ec
100
AcDbEntity
  8
Layer_1
 62
7
100
AcDbSpline
 70
8
 71
3
 72
8
 73
4
 74
0
 40
0
 40
0
 40
0
 40
0
 40
1
 40
1
 40
1
 40
1
 10
863.740250
 20
1065.824594
 30
0.0
 10
863.740250
 20
1067.332235
 30
0.0
 10
864.545626
 20
1068.725354
 30
0.0
 10
865.853002
 20
1069.479174
 30
0.0
  0
SPLINE
  5
1ed
100
AcDbEntity
  8
Layer_1
 62
7
100
AcDbSpline
 70
8
 71
3
 72
8
 73
4
 74
0
 40
0
 40
0
 40
0
 40
0
 40
1
 40
1
 40
1
 40
1
 10
865.853002
 20
1069.479174
 30
0.0
 10
867.160377
 20
1070.232995
 30
0.0
 10
868.771130
 20
1070.232995
 30
0.0
 10
870.078505
 20
1069.479174
 30
0.0
  0
SPLINE
  5
1ee
100
AcDbEntity
  8
Layer_1
 62
7
100
AcDbSpline
 70
8
 71
3
 72
8
 73
4
 74
0
 40
0
 40
0
 40
0
 40
0
 40
1
 40
1
 40
1
 40
1
 10
870.078505
 20
1069.479174
 30
0.0
 10
871.385880
 20
1068.725354
 30
0.0
 10
872.191256
 20
1067.332235
 30
0.0
 10
872.191256
 20
1065.824594
 30
0.0
  0
LWPOLYLINE
  5
1ef
100
AcDbEntity
  8
Layer_1
 62
7
100
AcDbPolyline
 90
1
 70
1
 10
617.081744
 20
1137.540055
 30
0.0
  0
SPLINE
  5
1f0
100
AcDbEntity
  8
Layer_1
 62
7
100
AcDbSpline
 70
8
 71
3
 72
8
 73
4
 74
0
 40
0
 40
0
 40
0
 40
0
 40
1
 40
1
 40
1
 40
1
 10
617.081744
 20
1065.824594
 30
0.0
 10
617.081744
 20
1064.316953
 30
0.0
 10
616.276343
 20
1062.923835
 30
0.0
 10
614.968927
 20
1062.170014
 30
0.0
  0
SPLINE
  5
1f1
100
AcDbEntity
  8
Layer_1
 62
7
100
AcDbSpline
 70
8
 71
3
 72
8
 73
4
 74
0
 40
0
 40
0
 40
0
 40
0
 40
1
 40
1
 40
1
 40
1
 10
614.968927
 20
1062.170014
 30
0.0
 10
613.661512
 20
1061.416193
 30
0.0
 10
612.050709
 20
1061.416193
 30
0.0
 10
610.743294
 20
1062.170014
 30
0.0
  0
SPLINE
  5
1f2
100
AcDbEntity
  8
Layer_1
 62
7
100
AcDbSpline
 70
8
 71
3
 72
8
 73
4
 74
0
 40
0
 40
0
 40
0
 40
0
 40
1
 40
1
 40
1
 40
1
 10
610.743294
 20
1062.170014
 30
0.0
 10
609.435879
 20
1062.923835
 30
0.0
 10
608.630477
 20
1064.316953
 30
0.0
 10
608.630477
 20
1065.824594
 30
0.0
  0
SPLINE
  5
1f3
100
AcDbEntity
  8
Layer_1
 62
7
100
AcDbSpline
 70
8
 71
3
 72
8
 73
4
 74
0
 40
0
 40
0
 40
0
 40
0
 40
1
 40
1
 40
1
 40
1
 10
608.630477
 20
1065.824594
 30
0.0
 10
608.630477
 20
1067.332235
 30
0.0
 10
609.435879
 20
1068.725354
 30
0.0
 10
610.743294
 20
1069.479174
 30
0.0
  0
SPLINE
  5
1f4
100
AcDbEntity
  8
Layer_1
 62
7
100
AcDbSpline
 70
8
 71
3
 72
8
 73
4
 74
0
 40
0
 40
0
 40
0
 40
0
 40
1
 40
1
 40
1
 40
1
 10
610.743294
 20
1069.479174
 30
0.0
 10
612.050709
 20
1070.232995
 30
0.0
 10
613.661512
 20
1070.232995
 30
0.0
 10
614.968927
 20
1069.479174
 30
0.0
  0
SPLINE
  5
1f5
100
AcDbEntity
  8
Layer_1
 62
7
100
AcDbSpline
 70
8
 71
3
 72
8
 73
4
 74
0
 40
0
 40
0
 40
0
 40
0
 40
1
 40
1
 40
1
 40
1
 10
614.968927
 20
1069.479174
 30
0.0
 10
616.276343
 20
1068.725354
 30
0.0
 10
617.081744
 20
1067.332235
 30
0.0
 10
617.081744
 20
1065.824594
 30
0.0
  0
LWPOLYLINE
  5
1f6
100
AcDbEntity
  8
Layer_1
 62
7
100
AcDbPolyline
 90
1
 70
1
 10
872.191256
 20
1065.824594
 30
0.0
  0
SPLINE
  5
1f7
100
AcDbEntity
  8
Layer_1
 62
7
100
AcDbSpline
 70
8
 71
3
 72
8
 73
4
 74
0
 40
0
 40
0
 40
0
 40
0
 40
1
 40
1
 40
1
 40
1
 10
872.191256
 20
994.108935
 30
0.0
 10
872.191256
 20
992.601294
 30
0.0
 10
871.385880
 20
991.208176
 30
0.0
 10
870.078505
 20
990.454355
 30
0.0
  0
SPLINE
  5
1f8
100
AcDbEntity
  8
Layer_1
 62
7
100
AcDbSpline
 70
8
 71
3
 72
8
 73
4
 74
0
 40
0
 40
0
 40
0
 40
0
 40
1
 40
1
 40
1
 40
1
 10
870.078505
 20
990.454355
 30
0.0
 10
868.771130
 20
989.700534
 30
0.0
 10
867.160377
 20
989.700534
 30
0.0
 10
865.853002
 20
990.454355
 30
0.0
  0
SPLINE
  5
1f9
100
AcDbEntity
  8
Layer_1
 62
7
100
AcDbSpline
 70
8
 71
3
 72
8
 73
4
 74
0
 40
0
 40
0
 40
0
 40
0
 40
1
 40
1
 40
1
 40
1
 10
865.853002
 20
990.454355
 30
0.0
 10
864.545626
 20
991.208176
 30
0.0
 10
863.740250
 20
992.601294
 30
0.0
 10
863.740250
 20
994.108935
 30
0.0
  0
SPLINE
  5
1fa
100
AcDbEntity
  8
Layer_1
 62
7
100
AcDbSpline
 70
8
 71
3
 72
8
 73
4
 74
0
 40
0
 40
0
 40
0
 40
0
 40
1
 40
1
 40
1
 40
1
 10
863.740250
 20
994.108935
 30
0.0
 10
863.740250
 20
995.616576
 30
0.0
 10
864.545626
 20
997.009695
 30
0.0
 10
865.853002
 20
997.763515
 30
0.0
  0
SPLINE
  5
1fb
100
AcDbEntity
  8
Layer_1
 62
7
100
AcDbSpline
 70
8
 71
3
 72
8
 73
4
 74
0
 40
0
 40
0
 40
0
 40
0
 40
1
 40
1
 40
1
 40
1
 10
865.853002
 20
997.763515
 30
0.0
 10
867.160377
 20
998.517336
 30
0.0
 10
868.771130
 20
998.517336
 30
0.0
 10
870.078505
 20
997.763515
 30
0.0
  0
SPLINE
  5
1fc
100
AcDbEntity
  8
Layer_1
 62
7
100
AcDbSpline
 70
8
 71
3
 72
8
 73
4
 74
0
 40
0
 40
0
 40
0
 40
0
 40
1
 40
1
 40
1
 40
1
 10
870.078505
 20
997.763515
 30
0.0
 10
871.385880
 20
997.009695
 30
0.0
 10
872.191256
 20
995.616576
 30
0.0
 10
872.191256
 20
994.108935
 30
0.0
  0
LWPOLYLINE
  5
1fd
100
AcDbEntity
  8
Layer_1
 62
7
100
AcDbPolyline
 90
1
 70
1
 10
617.081744
 20
1065.824594
 30
0.0
  0
SPLINE
  5
1fe
100
AcDbEntity
  8
Layer_1
 62
7
100
AcDbSpline
 70
8
 71
3
 72
8
 73
4
 74
0
 40
0
 40
0
 40
0
 40
0
 40
1
 40
1
 40
1
 40
1
 10
617.081744
 20
994.108935
 30
0.0
 10
617.081744
 20
992.601294
 30
0.0
 10
616.276343
 20
991.208176
 30
0.0
 10
614.968927
 20
990.454355
 30
0.0
  0
SPLINE
  5
1ff
100
AcDbEntity
  8
Layer_1
 62
7
100
AcDbSpline
 70
8
 71
3
 72
8
 73
4
 74
0
 40
0
 40
0
 40
0
 40
0
 40
1
 40
1
 40
1
 40
1
 10
614.968927
 20
990.454355
 30
0.0
 10
613.661512
 20
989.700534
 30
0.0
 10
612.050709
 20
989.700534
 30
0.0
 10
610.743294
 20
990.454355
 30
0.0
  0
SPLINE
  5
200
100
AcDbEntity
  8
Layer_1
 62
7
100
AcDbSpline
 70
8
 71
3
 72
8
 73
4
 74
0
 40
0
 40
0
 40
0
 40
0
 40
1
 40
1
 40
1
 40
1
 10
610.743294
 20
990.454355
 30
0.0
 10
609.435879
 20
991.208176
 30
0.0
 10
608.630477
 20
992.601294
 30
0.0
 10
608.630477
 20
994.108935
 30
0.0
  0
SPLINE
  5
201
100
AcDbEntity
  8
Layer_1
 62
7
100
AcDbSpline
 70
8
 71
3
 72
8
 73
4
 74
0
 40
0
 40
0
 40
0
 40
0
 40
1
 40
1
 40
1
 40
1
 10
608.630477
 20
994.108935
 30
0.0
 10
608.630477
 20
995.616576
 30
0.0
 10
609.435879
 20
997.009695
 30
0.0
 10
610.743294
 20
997.763515
 30
0.0
  0
SPLINE
  5
202
100
AcDbEntity
  8
Layer_1
 62
7
100
AcDbSpline
 70
8
 71
3
 72
8
 73
4
 74
0
 40
0
 40
0
 40
0
 40
0
 40
1
 40
1
 40
1
 40
1
 10
610.743294
 20
997.763515
 30
0.0
 10
612.050709
 20
998.517336
 30
0.0
 10
613.661512
 20
998.517336
 30
0.0
 10
614.968927
 20
997.763515
 30
0.0
  0
SPLINE
  5
203
100
AcDbEntity
  8
Layer_1
 62
7
100
AcDbSpline
 70
8
 71
3
 72
8
 73
4
 74
0
 40
0
 40
0
 40
0
 40
0
 40
1
 40
1
 40
1
 40
1
 10
614.968927
 20
997.763515
 30
0.0
 10
616.276343
 20
997.009695
 30
0.0
 10
617.081744
 20
995.616576
 30
0.0
 10
617.081744
 20
994.108935
 30
0.0
  0
LWPOLYLINE
  5
204
100
AcDbEntity
  8
Layer_1
 62
7
100
AcDbPolyline
 90
1
 70
1
 10
872.191256
 20
994.108935
 30
0.0
  0
SPLINE
  5
205
100
AcDbEntity
  8
Layer_1
 62
7
100
AcDbSpline
 70
8
 71
3
 72
8
 73
4
 74
0
 40
0
 40
0
 40
0
 40
0
 40
1
 40
1
 40
1
 40
1
 10
872.191256
 20
922.393645
 30
0.0
 10
872.191256
 20
920.886003
 30
0.0
 10
871.385880
 20
919.492885
 30
0.0
 10
870.078505
 20
918.739065
 30
0.0
  0
SPLINE
  5
206
100
AcDbEntity
  8
Layer_1
 62
7
100
AcDbSpline
 70
8
 71
3
 72
8
 73
4
 74
0
 40
0
 40
0
 40
0
 40
0
 40
1
 40
1
 40
1
 40
1
 10
870.078505
 20
918.739065
 30
0.0
 10
868.771130
 20
917.985244
 30
0.0
 10
867.160377
 20
917.985244
 30
0.0
 10
865.853002
 20
918.739065
 30
0.0
  0
SPLINE
  5
207
100
AcDbEntity
  8
Layer_1
 62
7
100
AcDbSpline
 70
8
 71
3
 72
8
 73
4
 74
0
 40
0
 40
0
 40
0
 40
0
 40
1
 40
1
 40
1
 40
1
 10
865.853002
 20
918.739065
 30
0.0
 10
864.545626
 20
919.492885
 30
0.0
 10
863.740250
 20
920.886003
 30
0.0
 10
863.740250
 20
922.393645
 30
0.0
  0
SPLINE
  5
208
100
AcDbEntity
  8
Layer_1
 62
7
100
AcDbSpline
 70
8
 71
3
 72
8
 73
4
 74
0
 40
0
 40
0
 40
0
 40
0
 40
1
 40
1
 40
1
 40
1
 10
863.740250
 20
922.393645
 30
0.0
 10
863.740250
 20
923.901286
 30
0.0
 10
864.545626
 20
925.294404
 30
0.0
 10
865.853002
 20
926.048225
 30
0.0
  0
SPLINE
  5
209
100
AcDbEntity
  8
Layer_1
 62
7
100
AcDbSpline
 70
8
 71
3
 72
8
 73
4
 74
0
 40
0
 40
0
 40
0
 40
0
 40
1
 40
1
 40
1
 40
1
 10
865.853002
 20
926.048225
 30
0.0
 10
867.160377
 20
926.802045
 30
0.0
 10
868.771130
 20
926.802045
 30
0.0
 10
870.078505
 20
926.048225
 30
0.0
  0
SPLINE
  5
20a
100
AcDbEntity
  8
Layer_1
 62
7
100
AcDbSpline
 70
8
 71
3
 72
8
 73
4
 74
0
 40
0
 40
0
 40
0
 40
0
 40
1
 40
1
 40
1
 40
1
 10
870.078505
 20
926.048225
 30
0.0
 10
871.385880
 20
925.294404
 30
0.0
 10
872.191256
 20
923.901286
 30
0.0
 10
872.191256
 20
922.393645
 30
0.0
  0
LWPOLYLINE
  5
20b
100
AcDbEntity
  8
Layer_1
 62
7
100
AcDbPolyline
 90
1
 70
1
 10
617.081744
 20
994.108935
 30
0.0
  0
SPLINE
  5
20c
100
AcDbEntity
  8
Layer_1
 62
7
100
AcDbSpline
 70
8
 71
3
 72
8
 73
4
 74
0
 40
0
 40
0
 40
0
 40
0
 40
1
 40
1
 40
1
 40
1
 10
617.081744
 20
922.393645
 30
0.0
 10
617.081744
 20
920.886003
 30
0.0
 10
616.276343
 20
919.492885
 30
0.0
 10
614.968927
 20
918.739065
 30
0.0
  0
SPLINE
  5
20d
100
AcDbEntity
  8
Layer_1
 62
7
100
AcDbSpline
 70
8
 71
3
 72
8
 73
4
 74
0
 40
0
 40
0
 40
0
 40
0
 40
1
 40
1
 40
1
 40
1
 10
614.968927
 20
918.739065
 30
0.0
 10
613.661512
 20
917.985244
 30
0.0
 10
612.050709
 20
917.985244
 30
0.0
 10
610.743294
 20
918.739065
 30
0.0
  0
SPLINE
  5
20e
100
AcDbEntity
  8
Layer_1
 62
7
100
AcDbSpline
 70
8
 71
3
 72
8
 73
4
 74
0
 40
0
 40
0
 40
0
 40
0
 40
1
 40
1
 40
1
 40
1
 10
610.743294
 20
918.739065
 30
0.0
 10
609.435879
 20
919.492885
 30
0.0
 10
608.630477
 20
920.886003
 30
0.0
 10
608.630477
 20
922.393645
 30
0.0
  0
SPLINE
  5
20f
100
AcDbEntity
  8
Layer_1
 62
7
100
AcDbSpline
 70
8
 71
3
 72
8
 73
4
 74
0
 40
0
 40
0
 40
0
 40
0
 40
1
 40
1
 40
1
 40
1
 10
608.630477
 20
922.393645
 30
0.0
 10
608.630477
 20
923.901286
 30
0.0
 10
609.435879
 20
925.294404
 30
0.0
 10
610.743294
 20
926.048225
 30
0.0
  0
SPLINE
  5
210
100
AcDbEntity
  8
Layer_1
 62
7
100
AcDbSpline
 70
8
 71
3
 72
8
 73
4
 74
0
 40
0
 40
0
 40
0
 40
0
 40
1
 40
1
 40
1
 40
1
 10
610.743294
 20
926.048225
 30
0.0
 10
612.050709
 20
926.802045
 30
0.0
 10
613.661512
 20
926.802045
 30
0.0
 10
614.968927
 20
926.048225
 30
0.0
  0
SPLINE
  5
211
100
AcDbEntity
  8
Layer_1
 62
7
100
AcDbSpline
 70
8
 71
3
 72
8
 73
4
 74
0
 40
0
 40
0
 40
0
 40
0
 40
1
 40
1
 40
1
 40
1
 10
614.968927
 20
926.048225
 30
0.0
 10
616.276343
 20
925.294404
 30
0.0
 10
617.081744
 20
923.901286
 30
0.0
 10
617.081744
 20
922.393645
 30
0.0
  0
LWPOLYLINE
  5
212
100
AcDbEntity
  8
Layer_1
 62
7
100
AcDbPolyline
 90
1
 70
1
 10
872.191256
 20
922.393645
 30
0.0
  0
LWPOLYLINE
  5
213
100
AcDbEntity
  8
Layer_1
 62
7
100
AcDbPolyline
 90
1
 70
1
 10
617.081744
 20
922.393645
 30
0.0
  0
LWPOLYLINE
  5
214
100
AcDbEntity
  8
Layer_1
 62
5
100
AcDbPolyline
 90
11
 70
0
 10
45.496376
 20
629.433431
 30
0.0
 10
45.496376
 20
648.331164
 30
0.0
 10
28.488530
 20
648.331164
 30
0.0
 10
28.488530
 20
686.126346
 30
0.0
 10
45.496376
 20
686.126346
 30
0.0
 10
45.496376
 20
723.921528
 30
0.0
 10
28.488530
 20
723.921528
 30
0.0
 10
28.488530
 20
761.716994
 30
0.0
 10
45.496376
 20
761.716994
 30
0.0
 10
45.496376
 20
768.189000
 30
0.0
 10
334.064278
 20
768.189000
 30
0.0
  0
ENDSEC
  0
SECTION
  2
OBJECTS
  0
DICTIONARY
  5
C
330
0
100
AcDbDictionary
  3
ACAD_GROUP
350
D
  3
ACAD_MLINESTYLE
350
17
  0
DICTIONARY
  5
D
330
C
100
AcDbDictionary
  0
DICTIONARY
  5
1A
330
C
100
AcDbDictionary
  0
DICTIONARY
  5
17
330
C
100
AcDbDictionary
  3
STANDARD
350
18
  0
DICTIONARY
  5
19
330
C
100
AcDbDictionary
  0
ENDSEC
  0
EOF
