G04 Layer_Color=65535*
%FSLAX25Y25*%
%MOIN*%
G70*
G01*
G75*
%ADD21C,0.00787*%
%ADD22C,0.01000*%
D21*
X291630Y295937D02*
G03*
X291630Y295937I-10630J0D01*
G01*
X252500Y247492D02*
G03*
X252500Y252492I0J2500D01*
G01*
X246905Y235685D02*
Y266000D01*
X235094D02*
X246905D01*
X235094Y235685D02*
Y266000D01*
Y235685D02*
X246905D01*
X281000Y307874D02*
Y311874D01*
X279000Y309874D02*
X283000D01*
X252500Y240740D02*
Y247492D01*
Y252492D02*
Y259244D01*
X292500D01*
Y240740D02*
Y259244D01*
X252500Y240740D02*
X292500D01*
X476004Y295937D02*
G03*
X476004Y295937I-10630J0D01*
G01*
X436874Y247492D02*
G03*
X436874Y252492I0J2500D01*
G01*
X431280Y235685D02*
Y266000D01*
X419468D02*
X431280D01*
X419468Y235685D02*
Y266000D01*
Y235685D02*
X431280D01*
X465374Y307874D02*
Y311874D01*
X463374Y309874D02*
X467374D01*
X436874Y240740D02*
Y247492D01*
Y252492D02*
Y259244D01*
X476874D01*
Y240740D02*
Y259244D01*
X436874Y240740D02*
X476874D01*
X291630Y432811D02*
G03*
X291630Y432811I-10630J0D01*
G01*
X252500Y384366D02*
G03*
X252500Y389366I0J2500D01*
G01*
X246905Y372559D02*
Y402874D01*
X235094D02*
X246905D01*
X235094Y372559D02*
Y402874D01*
Y372559D02*
X246905D01*
X281000Y444748D02*
Y448748D01*
X279000Y446748D02*
X283000D01*
X252500Y377614D02*
Y384366D01*
Y389366D02*
Y396118D01*
X292500D01*
Y377614D02*
Y396118D01*
X252500Y377614D02*
X292500D01*
X476004Y432811D02*
G03*
X476004Y432811I-10630J0D01*
G01*
X436874Y384366D02*
G03*
X436874Y389366I0J2500D01*
G01*
X431280Y372559D02*
Y402874D01*
X419468D02*
X431280D01*
X419468Y372559D02*
Y402874D01*
Y372559D02*
X431280D01*
X465374Y444748D02*
Y448748D01*
X463374Y446748D02*
X467374D01*
X436874Y377614D02*
Y384366D01*
Y389366D02*
Y396118D01*
X476874D01*
Y377614D02*
Y396118D01*
X436874Y377614D02*
X476874D01*
D22*
X297413Y223000D02*
Y313500D01*
X320413D01*
X329413Y304500D01*
Y233500D02*
Y304500D01*
X318913Y223000D02*
X329413Y233500D01*
X297413Y223000D02*
X318913D01*
X332413D02*
Y313500D01*
X355413D01*
X364413Y304500D01*
Y233500D02*
Y304500D01*
X353913Y223000D02*
X364413Y233500D01*
X332413Y223000D02*
X353913D01*
X227909Y280752D02*
X259405D01*
X227909D02*
Y302406D01*
X258224D01*
X259405D01*
Y280752D02*
Y302406D01*
X263002Y301999D02*
X262002Y300999D01*
Y299000D01*
X263002Y298000D01*
X267000D01*
X268000Y299000D01*
Y300999D01*
X267000Y301999D01*
X268000Y303998D02*
Y305997D01*
Y304998D01*
X262002D01*
X263002Y303998D01*
X227002Y241499D02*
X226002Y240499D01*
Y238500D01*
X227002Y237500D01*
X231000D01*
X232000Y238500D01*
Y240499D01*
X231000Y241499D01*
X232000Y247497D02*
Y243498D01*
X228001Y247497D01*
X227002D01*
X226002Y246497D01*
Y244498D01*
X227002Y243498D01*
X262002Y283499D02*
Y281499D01*
Y282499D01*
X267000D01*
X268000Y281499D01*
Y280500D01*
X267000Y279500D01*
X268000Y285498D02*
Y287497D01*
Y286498D01*
X262002D01*
X263002Y285498D01*
X299502Y267499D02*
Y265499D01*
Y266499D01*
X304500D01*
X305500Y265499D01*
Y264500D01*
X304500Y263500D01*
X305500Y273497D02*
Y269498D01*
X301501Y273497D01*
X300502D01*
X299502Y272497D01*
Y270498D01*
X300502Y269498D01*
X334502Y268499D02*
Y266499D01*
Y267499D01*
X339500D01*
X340500Y266499D01*
Y265500D01*
X339500Y264500D01*
X335502Y270498D02*
X334502Y271498D01*
Y273497D01*
X335502Y274497D01*
X336501D01*
X337501Y273497D01*
Y272497D01*
Y273497D01*
X338501Y274497D01*
X339500D01*
X340500Y273497D01*
Y271498D01*
X339500Y270498D01*
X369002Y268499D02*
Y266499D01*
Y267499D01*
X374000D01*
X375000Y266499D01*
Y265500D01*
X374000Y264500D01*
X375000Y273497D02*
X369002D01*
X372001Y270498D01*
Y274497D01*
X268502Y245000D02*
X273500D01*
X274500Y246000D01*
Y247999D01*
X273500Y248999D01*
X268502D01*
X274500Y250998D02*
Y252997D01*
Y251998D01*
X268502D01*
X269502Y250998D01*
X481787Y223000D02*
Y313500D01*
X504787D01*
X513787Y304500D01*
Y233500D02*
Y304500D01*
X503287Y223000D02*
X513787Y233500D01*
X481787Y223000D02*
X503287D01*
X516787D02*
Y313500D01*
X539787D01*
X548787Y304500D01*
Y233500D02*
Y304500D01*
X538287Y223000D02*
X548787Y233500D01*
X516787Y223000D02*
X538287D01*
X412284Y280752D02*
X443780D01*
X412284D02*
Y302406D01*
X442598D01*
X443780D01*
Y280752D02*
Y302406D01*
X447376Y301999D02*
X446376Y300999D01*
Y299000D01*
X447376Y298000D01*
X451374D01*
X452374Y299000D01*
Y300999D01*
X451374Y301999D01*
X452374Y303998D02*
Y305997D01*
Y304998D01*
X446376D01*
X447376Y303998D01*
X411376Y241499D02*
X410376Y240499D01*
Y238500D01*
X411376Y237500D01*
X415374D01*
X416374Y238500D01*
Y240499D01*
X415374Y241499D01*
X416374Y247497D02*
Y243498D01*
X412375Y247497D01*
X411376D01*
X410376Y246497D01*
Y244498D01*
X411376Y243498D01*
X446376Y283499D02*
Y281499D01*
Y282499D01*
X451374D01*
X452374Y281499D01*
Y280500D01*
X451374Y279500D01*
X452374Y285498D02*
Y287497D01*
Y286498D01*
X446376D01*
X447376Y285498D01*
X483876Y267499D02*
Y265499D01*
Y266499D01*
X488874D01*
X489874Y265499D01*
Y264500D01*
X488874Y263500D01*
X489874Y273497D02*
Y269498D01*
X485875Y273497D01*
X484876D01*
X483876Y272497D01*
Y270498D01*
X484876Y269498D01*
X518876Y268499D02*
Y266499D01*
Y267499D01*
X523874D01*
X524874Y266499D01*
Y265500D01*
X523874Y264500D01*
X519876Y270498D02*
X518876Y271498D01*
Y273497D01*
X519876Y274497D01*
X520875D01*
X521875Y273497D01*
Y272497D01*
Y273497D01*
X522875Y274497D01*
X523874D01*
X524874Y273497D01*
Y271498D01*
X523874Y270498D01*
X553376Y268499D02*
Y266499D01*
Y267499D01*
X558374D01*
X559374Y266499D01*
Y265500D01*
X558374Y264500D01*
X559374Y273497D02*
X553376D01*
X556375Y270498D01*
Y274497D01*
X452876Y245000D02*
X457874D01*
X458874Y246000D01*
Y247999D01*
X457874Y248999D01*
X452876D01*
X458874Y250998D02*
Y252997D01*
Y251998D01*
X452876D01*
X453876Y250998D01*
X297413Y359874D02*
Y450374D01*
X320413D01*
X329413Y441374D01*
Y370374D02*
Y441374D01*
X318913Y359874D02*
X329413Y370374D01*
X297413Y359874D02*
X318913D01*
X332413D02*
Y450374D01*
X355413D01*
X364413Y441374D01*
Y370374D02*
Y441374D01*
X353913Y359874D02*
X364413Y370374D01*
X332413Y359874D02*
X353913D01*
X227909Y417626D02*
X259405D01*
X227909D02*
Y439280D01*
X258224D01*
X259405D01*
Y417626D02*
Y439280D01*
X263002Y438873D02*
X262002Y437873D01*
Y435874D01*
X263002Y434874D01*
X267000D01*
X268000Y435874D01*
Y437873D01*
X267000Y438873D01*
X268000Y440872D02*
Y442871D01*
Y441872D01*
X262002D01*
X263002Y440872D01*
X227002Y378373D02*
X226002Y377373D01*
Y375374D01*
X227002Y374374D01*
X231000D01*
X232000Y375374D01*
Y377373D01*
X231000Y378373D01*
X232000Y384371D02*
Y380372D01*
X228001Y384371D01*
X227002D01*
X226002Y383371D01*
Y381372D01*
X227002Y380372D01*
X262002Y420373D02*
Y418373D01*
Y419373D01*
X267000D01*
X268000Y418373D01*
Y417374D01*
X267000Y416374D01*
X268000Y422372D02*
Y424371D01*
Y423372D01*
X262002D01*
X263002Y422372D01*
X299502Y404373D02*
Y402373D01*
Y403373D01*
X304500D01*
X305500Y402373D01*
Y401374D01*
X304500Y400374D01*
X305500Y410371D02*
Y406372D01*
X301501Y410371D01*
X300502D01*
X299502Y409371D01*
Y407372D01*
X300502Y406372D01*
X334502Y405373D02*
Y403373D01*
Y404373D01*
X339500D01*
X340500Y403373D01*
Y402374D01*
X339500Y401374D01*
X335502Y407372D02*
X334502Y408372D01*
Y410371D01*
X335502Y411371D01*
X336501D01*
X337501Y410371D01*
Y409371D01*
Y410371D01*
X338501Y411371D01*
X339500D01*
X340500Y410371D01*
Y408372D01*
X339500Y407372D01*
X369002Y405373D02*
Y403373D01*
Y404373D01*
X374000D01*
X375000Y403373D01*
Y402374D01*
X374000Y401374D01*
X375000Y410371D02*
X369002D01*
X372001Y407372D01*
Y411371D01*
X268502Y381874D02*
X273500D01*
X274500Y382874D01*
Y384873D01*
X273500Y385873D01*
X268502D01*
X274500Y387872D02*
Y389871D01*
Y388872D01*
X268502D01*
X269502Y387872D01*
X481787Y359874D02*
Y450374D01*
X504787D01*
X513787Y441374D01*
Y370374D02*
Y441374D01*
X503287Y359874D02*
X513787Y370374D01*
X481787Y359874D02*
X503287D01*
X516787D02*
Y450374D01*
X539787D01*
X548787Y441374D01*
Y370374D02*
Y441374D01*
X538287Y359874D02*
X548787Y370374D01*
X516787Y359874D02*
X538287D01*
X412284Y417626D02*
X443780D01*
X412284D02*
Y439280D01*
X442598D01*
X443780D01*
Y417626D02*
Y439280D01*
X447376Y438873D02*
X446376Y437873D01*
Y435874D01*
X447376Y434874D01*
X451374D01*
X452374Y435874D01*
Y437873D01*
X451374Y438873D01*
X452374Y440872D02*
Y442871D01*
Y441872D01*
X446376D01*
X447376Y440872D01*
X411376Y378373D02*
X410376Y377373D01*
Y375374D01*
X411376Y374374D01*
X415374D01*
X416374Y375374D01*
Y377373D01*
X415374Y378373D01*
X416374Y384371D02*
Y380372D01*
X412375Y384371D01*
X411376D01*
X410376Y383371D01*
Y381372D01*
X411376Y380372D01*
X446376Y420373D02*
Y418373D01*
Y419373D01*
X451374D01*
X452374Y418373D01*
Y417374D01*
X451374Y416374D01*
X452374Y422372D02*
Y424371D01*
Y423372D01*
X446376D01*
X447376Y422372D01*
X483876Y404373D02*
Y402373D01*
Y403373D01*
X488874D01*
X489874Y402373D01*
Y401374D01*
X488874Y400374D01*
X489874Y410371D02*
Y406372D01*
X485875Y410371D01*
X484876D01*
X483876Y409371D01*
Y407372D01*
X484876Y406372D01*
X518876Y405373D02*
Y403373D01*
Y404373D01*
X523874D01*
X524874Y403373D01*
Y402374D01*
X523874Y401374D01*
X519876Y407372D02*
X518876Y408372D01*
Y410371D01*
X519876Y411371D01*
X520875D01*
X521875Y410371D01*
Y409371D01*
Y410371D01*
X522875Y411371D01*
X523874D01*
X524874Y410371D01*
Y408372D01*
X523874Y407372D01*
X553376Y405373D02*
Y403373D01*
Y404373D01*
X558374D01*
X559374Y403373D01*
Y402374D01*
X558374Y401374D01*
X559374Y410371D02*
X553376D01*
X556375Y407372D01*
Y411371D01*
X452876Y381874D02*
X457874D01*
X458874Y382874D01*
Y384873D01*
X457874Y385873D01*
X452876D01*
X458874Y387872D02*
Y389871D01*
Y388872D01*
X452876D01*
X453876Y387872D01*
M02*
