G04 Layer_Physical_Order=1*
G04 Layer_Color=255*
%FSLAX25Y25*%
%MOIN*%
G70*
G01*
G75*
%ADD10C,0.03000*%
%ADD11C,0.07000*%
%ADD12C,0.00700*%
%ADD13C,0.05118*%
%ADD14C,0.13780*%
%ADD15R,0.13780X0.13780*%
%ADD16R,0.06693X0.06693*%
%ADD17C,0.06693*%
%ADD18R,0.05905X0.05905*%
%ADD19C,0.05905*%
%ADD20C,0.07087*%
G36*
X579154Y324594D02*
X405594D01*
Y329206D01*
X405643Y329216D01*
X405905Y328583D01*
X406634Y327634D01*
X407583Y326905D01*
X408688Y326448D01*
X409374Y326357D01*
Y330874D01*
Y335391D01*
X408688Y335300D01*
X407583Y334842D01*
X406634Y334114D01*
X405905Y333165D01*
X405643Y332533D01*
X405594Y332542D01*
Y339206D01*
X405643Y339215D01*
X405905Y338583D01*
X406634Y337634D01*
X407583Y336905D01*
X408688Y336448D01*
X409874Y336292D01*
X411060Y336448D01*
X412165Y336905D01*
X413114Y337634D01*
X413843Y338583D01*
X414300Y339688D01*
X414457Y340874D01*
X414300Y342060D01*
X413843Y343165D01*
X413114Y344114D01*
X412165Y344843D01*
X411060Y345300D01*
X409874Y345457D01*
X408688Y345300D01*
X407583Y344843D01*
X406634Y344114D01*
X405905Y343165D01*
X405643Y342532D01*
X405594Y342542D01*
Y451154D01*
X579154D01*
Y324594D01*
D02*
G37*
G36*
X394780D02*
X221220D01*
Y329206D01*
X221269Y329216D01*
X221531Y328583D01*
X222260Y327634D01*
X223209Y326905D01*
X224314Y326448D01*
X225000Y326357D01*
Y330874D01*
Y335391D01*
X224314Y335300D01*
X223209Y334842D01*
X222260Y334114D01*
X221531Y333165D01*
X221269Y332533D01*
X221220Y332542D01*
Y339206D01*
X221269Y339215D01*
X221531Y338583D01*
X222260Y337634D01*
X223209Y336905D01*
X224314Y336448D01*
X225500Y336292D01*
X226686Y336448D01*
X227791Y336905D01*
X228740Y337634D01*
X229469Y338583D01*
X229926Y339688D01*
X230083Y340874D01*
X229926Y342060D01*
X229469Y343165D01*
X228740Y344114D01*
X227791Y344843D01*
X226686Y345300D01*
X225500Y345457D01*
X224314Y345300D01*
X223209Y344843D01*
X222260Y344114D01*
X221531Y343165D01*
X221269Y342532D01*
X221220Y342542D01*
Y451154D01*
X394780D01*
Y324594D01*
D02*
G37*
G36*
X579154Y187720D02*
X405594D01*
Y192332D01*
X405643Y192341D01*
X405905Y191709D01*
X406634Y190760D01*
X407583Y190031D01*
X408688Y189574D01*
X409374Y189483D01*
Y194000D01*
Y198517D01*
X408688Y198426D01*
X407583Y197968D01*
X406634Y197240D01*
X405905Y196291D01*
X405643Y195659D01*
X405594Y195668D01*
Y202332D01*
X405643Y202342D01*
X405905Y201709D01*
X406634Y200760D01*
X407583Y200031D01*
X408688Y199574D01*
X409874Y199417D01*
X411060Y199574D01*
X412165Y200031D01*
X413114Y200760D01*
X413843Y201709D01*
X414300Y202814D01*
X414457Y204000D01*
X414300Y205186D01*
X413843Y206291D01*
X413114Y207240D01*
X412165Y207968D01*
X411060Y208426D01*
X409874Y208582D01*
X408688Y208426D01*
X407583Y207968D01*
X406634Y207240D01*
X405905Y206291D01*
X405643Y205659D01*
X405594Y205668D01*
Y314280D01*
X579154D01*
Y187720D01*
D02*
G37*
G36*
X394780D02*
X221220D01*
Y192332D01*
X221269Y192341D01*
X221531Y191709D01*
X222260Y190760D01*
X223209Y190031D01*
X224314Y189574D01*
X225000Y189483D01*
Y194000D01*
Y198517D01*
X224314Y198426D01*
X223209Y197968D01*
X222260Y197240D01*
X221531Y196291D01*
X221269Y195659D01*
X221220Y195668D01*
Y202332D01*
X221269Y202342D01*
X221531Y201709D01*
X222260Y200760D01*
X223209Y200031D01*
X224314Y199574D01*
X225500Y199417D01*
X226686Y199574D01*
X227791Y200031D01*
X228740Y200760D01*
X229469Y201709D01*
X229926Y202814D01*
X230083Y204000D01*
X229926Y205186D01*
X229469Y206291D01*
X228740Y207240D01*
X227791Y207968D01*
X226686Y208426D01*
X225500Y208582D01*
X224314Y208426D01*
X223209Y207968D01*
X222260Y207240D01*
X221531Y206291D01*
X221269Y205659D01*
X221220Y205668D01*
Y314280D01*
X394780D01*
Y187720D01*
D02*
G37*
%LPC*%
G36*
X567287Y444302D02*
X565741Y444150D01*
X564253Y443699D01*
X562883Y442966D01*
X561681Y441980D01*
X560696Y440779D01*
X560500Y440413D01*
X539269D01*
X538393Y441480D01*
X537192Y442466D01*
X535821Y443198D01*
X534334Y443650D01*
X532787Y443802D01*
X531241Y443650D01*
X529753Y443198D01*
X528383Y442466D01*
X527181Y441480D01*
X526306Y440413D01*
X504269D01*
X503393Y441480D01*
X502192Y442466D01*
X500821Y443198D01*
X499334Y443650D01*
X497787Y443802D01*
X496241Y443650D01*
X494753Y443198D01*
X493383Y442466D01*
X492181Y441480D01*
X491195Y440279D01*
X490463Y438908D01*
X490012Y437421D01*
X489859Y435874D01*
X490012Y434327D01*
X490463Y432840D01*
X491195Y431469D01*
X492181Y430268D01*
X493383Y429282D01*
X494753Y428550D01*
X496241Y428098D01*
X497787Y427946D01*
X499334Y428098D01*
X500821Y428550D01*
X502192Y429282D01*
X503393Y430268D01*
X504269Y431335D01*
X526306D01*
X527181Y430268D01*
X528383Y429282D01*
X529753Y428550D01*
X531241Y428098D01*
X532787Y427946D01*
X534334Y428098D01*
X535821Y428550D01*
X537192Y429282D01*
X538393Y430268D01*
X539269Y431335D01*
X561216D01*
X561681Y430768D01*
X562883Y429782D01*
X564253Y429050D01*
X565741Y428598D01*
X567287Y428446D01*
X568834Y428598D01*
X570321Y429050D01*
X571692Y429782D01*
X572893Y430768D01*
X573879Y431969D01*
X574612Y433340D01*
X575063Y434827D01*
X575215Y436374D01*
X575063Y437921D01*
X574612Y439408D01*
X573879Y440779D01*
X572893Y441980D01*
X571692Y442966D01*
X570321Y443699D01*
X568834Y444150D01*
X567287Y444302D01*
D02*
G37*
G36*
X465374Y440338D02*
X464445Y440215D01*
X463579Y439857D01*
X462836Y439286D01*
X462265Y438543D01*
X461907Y437677D01*
X461784Y436748D01*
X461907Y435819D01*
X462265Y434953D01*
X462836Y434210D01*
X463579Y433639D01*
X464445Y433281D01*
X465374Y433158D01*
X466303Y433281D01*
X467169Y433639D01*
X467912Y434210D01*
X468483Y434953D01*
X468842Y435819D01*
X468964Y436748D01*
X468842Y437677D01*
X468483Y438543D01*
X467912Y439286D01*
X467169Y439857D01*
X466303Y440215D01*
X465374Y440338D01*
D02*
G37*
G36*
X465874Y432398D02*
Y429374D01*
X468898D01*
X468842Y429803D01*
X468483Y430669D01*
X467912Y431412D01*
X467169Y431983D01*
X466303Y432341D01*
X465874Y432398D01*
D02*
G37*
G36*
X464874D02*
X464445Y432341D01*
X463579Y431983D01*
X462836Y431412D01*
X462265Y430669D01*
X461907Y429803D01*
X461850Y429374D01*
X464874D01*
Y432398D01*
D02*
G37*
G36*
X424720Y441770D02*
X412720D01*
X411745Y441575D01*
X410918Y441023D01*
X410072Y440176D01*
X409519Y439350D01*
X409325Y438374D01*
Y413874D01*
X409519Y412899D01*
X410072Y412072D01*
X413572Y408572D01*
X414399Y408019D01*
X415374Y407825D01*
X447818D01*
X449325Y406318D01*
Y405385D01*
X449055Y405177D01*
X448421Y404352D01*
X448023Y403390D01*
X447887Y402358D01*
X448023Y401326D01*
X448421Y400365D01*
X449055Y399539D01*
X449881Y398906D01*
X450842Y398507D01*
X451874Y398371D01*
X452906Y398507D01*
X453867Y398906D01*
X454693Y399539D01*
X455327Y400365D01*
X455725Y401326D01*
X455861Y402358D01*
X455725Y403390D01*
X455327Y404352D01*
X454693Y405177D01*
X454423Y405385D01*
Y407374D01*
X454229Y408350D01*
X453676Y409176D01*
X450676Y412176D01*
X449850Y412729D01*
X448874Y412923D01*
X416430D01*
X414423Y414930D01*
Y420654D01*
X414470Y420670D01*
X414774Y420274D01*
X415682Y419577D01*
X416739Y419139D01*
X417374Y419056D01*
Y423374D01*
Y427692D01*
X416739Y427609D01*
X415682Y427171D01*
X414774Y426474D01*
X414470Y426078D01*
X414423Y426094D01*
Y430654D01*
X414470Y430670D01*
X414774Y430274D01*
X415682Y429577D01*
X416739Y429140D01*
X417874Y428990D01*
X419009Y429140D01*
X420066Y429577D01*
X420974Y430274D01*
X421671Y431182D01*
X422109Y432239D01*
X422258Y433374D01*
X422109Y434509D01*
X421671Y435566D01*
X420974Y436474D01*
X420778Y436624D01*
X420794Y436671D01*
X423665D01*
X424378Y435958D01*
X424077Y435566D01*
X423639Y434509D01*
X423490Y433374D01*
X423639Y432239D01*
X424077Y431182D01*
X424774Y430274D01*
X425682Y429577D01*
X426739Y429140D01*
X427874Y428990D01*
X429009Y429140D01*
X430066Y429577D01*
X430974Y430274D01*
X431671Y431182D01*
X432109Y432239D01*
X432258Y433374D01*
X432109Y434509D01*
X431671Y435566D01*
X430974Y436474D01*
X430225Y437049D01*
X429676Y437869D01*
X426523Y441023D01*
X425696Y441575D01*
X424720Y441770D01*
D02*
G37*
G36*
X468898Y428374D02*
X465874D01*
Y425350D01*
X466303Y425407D01*
X467169Y425765D01*
X467912Y426336D01*
X468483Y427079D01*
X468842Y427945D01*
X468898Y428374D01*
D02*
G37*
G36*
X464874D02*
X461850D01*
X461907Y427945D01*
X462265Y427079D01*
X462836Y426336D01*
X463579Y425765D01*
X464445Y425407D01*
X464874Y425350D01*
Y428374D01*
D02*
G37*
G36*
X418374Y427692D02*
Y423874D01*
X422192D01*
X422109Y424509D01*
X421671Y425566D01*
X420974Y426474D01*
X420066Y427171D01*
X419009Y427609D01*
X418374Y427692D01*
D02*
G37*
G36*
X422192Y422874D02*
X418374D01*
Y419056D01*
X419009Y419139D01*
X420066Y419577D01*
X420974Y420274D01*
X421671Y421182D01*
X422109Y422239D01*
X422192Y422874D01*
D02*
G37*
G36*
X437874Y427758D02*
X436739Y427609D01*
X435682Y427171D01*
X434774Y426474D01*
X434077Y425566D01*
X433639Y424509D01*
X433490Y423374D01*
X433639Y422239D01*
X434077Y421182D01*
X434774Y420274D01*
X435682Y419577D01*
X436739Y419139D01*
X437874Y418990D01*
X439009Y419139D01*
X440066Y419577D01*
X440974Y420274D01*
X441671Y421182D01*
X442109Y422239D01*
X442258Y423374D01*
X442109Y424509D01*
X441671Y425566D01*
X440974Y426474D01*
X440066Y427171D01*
X439009Y427609D01*
X437874Y427758D01*
D02*
G37*
G36*
X427874D02*
X426739Y427609D01*
X425682Y427171D01*
X424774Y426474D01*
X424077Y425566D01*
X423639Y424509D01*
X423490Y423374D01*
X423639Y422239D01*
X424077Y421182D01*
X424774Y420274D01*
X425682Y419577D01*
X426739Y419139D01*
X427874Y418990D01*
X429009Y419139D01*
X430066Y419577D01*
X430974Y420274D01*
X431671Y421182D01*
X432109Y422239D01*
X432258Y423374D01*
X432109Y424509D01*
X431671Y425566D01*
X430974Y426474D01*
X430066Y427171D01*
X429009Y427609D01*
X427874Y427758D01*
D02*
G37*
G36*
X567787Y424253D02*
Y416874D01*
X575166D01*
X575063Y417921D01*
X574612Y419408D01*
X573879Y420779D01*
X572893Y421980D01*
X571692Y422966D01*
X570321Y423699D01*
X568834Y424150D01*
X567787Y424253D01*
D02*
G37*
G36*
X566787Y424253D02*
X565741Y424150D01*
X564253Y423699D01*
X562883Y422966D01*
X561681Y421980D01*
X560696Y420779D01*
X559963Y419408D01*
X559512Y417921D01*
X559409Y416874D01*
X566787D01*
Y424253D01*
D02*
G37*
G36*
X533287Y423753D02*
Y416374D01*
X540666D01*
X540563Y417421D01*
X540112Y418908D01*
X539379Y420279D01*
X538393Y421480D01*
X537192Y422466D01*
X535821Y423199D01*
X534334Y423650D01*
X533287Y423753D01*
D02*
G37*
G36*
X498287D02*
Y416374D01*
X505666D01*
X505563Y417421D01*
X505112Y418908D01*
X504379Y420279D01*
X503393Y421480D01*
X502192Y422466D01*
X500821Y423199D01*
X499334Y423650D01*
X498287Y423753D01*
D02*
G37*
G36*
X532287Y423753D02*
X531241Y423650D01*
X529753Y423199D01*
X528383Y422466D01*
X527181Y421480D01*
X526195Y420279D01*
X525463Y418908D01*
X525012Y417421D01*
X524909Y416374D01*
X532287D01*
Y423753D01*
D02*
G37*
G36*
X497287D02*
X496241Y423650D01*
X494753Y423199D01*
X493383Y422466D01*
X492181Y421480D01*
X491195Y420279D01*
X490463Y418908D01*
X490012Y417421D01*
X489909Y416374D01*
X497287D01*
Y423753D01*
D02*
G37*
G36*
X566787Y415874D02*
X559409D01*
X559512Y414827D01*
X559963Y413340D01*
X560696Y411970D01*
X561681Y410768D01*
X562883Y409782D01*
X564253Y409050D01*
X565741Y408598D01*
X566787Y408495D01*
Y415874D01*
D02*
G37*
G36*
X575166D02*
X567787D01*
Y408495D01*
X568834Y408598D01*
X570321Y409050D01*
X571692Y409782D01*
X572893Y410768D01*
X573879Y411970D01*
X574612Y413340D01*
X575063Y414827D01*
X575166Y415874D01*
D02*
G37*
G36*
X532287Y415374D02*
X524909D01*
X525012Y414327D01*
X525463Y412840D01*
X526195Y411470D01*
X527181Y410268D01*
X528383Y409282D01*
X529753Y408550D01*
X531241Y408098D01*
X532287Y407995D01*
Y415374D01*
D02*
G37*
G36*
X497287D02*
X489909D01*
X490012Y414327D01*
X490463Y412840D01*
X491195Y411470D01*
X492181Y410268D01*
X493383Y409282D01*
X494753Y408550D01*
X496241Y408098D01*
X497287Y407995D01*
Y415374D01*
D02*
G37*
G36*
X540666D02*
X533287D01*
Y407995D01*
X534334Y408098D01*
X535821Y408550D01*
X537192Y409282D01*
X538393Y410268D01*
X539379Y411470D01*
X540112Y412840D01*
X540563Y414327D01*
X540666Y415374D01*
D02*
G37*
G36*
X505666D02*
X498287D01*
Y407995D01*
X499334Y408098D01*
X500821Y408550D01*
X502192Y409282D01*
X503393Y410268D01*
X504379Y411470D01*
X505112Y412840D01*
X505563Y414327D01*
X505666Y415374D01*
D02*
G37*
G36*
X471874Y406345D02*
X470842Y406209D01*
X469881Y405811D01*
X469055Y405177D01*
X468421Y404352D01*
X468023Y403390D01*
X467887Y402358D01*
X468023Y401326D01*
X468421Y400365D01*
X469055Y399539D01*
X469881Y398906D01*
X470842Y398507D01*
X471874Y398371D01*
X472906Y398507D01*
X473868Y398906D01*
X474693Y399539D01*
X475327Y400365D01*
X475725Y401326D01*
X475861Y402358D01*
X475725Y403390D01*
X475327Y404352D01*
X474693Y405177D01*
X473868Y405811D01*
X472906Y406209D01*
X471874Y406345D01*
D02*
G37*
G36*
X441874D02*
X440842Y406209D01*
X439881Y405811D01*
X439055Y405177D01*
X438421Y404352D01*
X438023Y403390D01*
X437887Y402358D01*
X438023Y401326D01*
X438421Y400365D01*
X439055Y399539D01*
X439881Y398906D01*
X440842Y398507D01*
X441874Y398371D01*
X442906Y398507D01*
X443867Y398906D01*
X444693Y399539D01*
X445327Y400365D01*
X445725Y401326D01*
X445861Y402358D01*
X445725Y403390D01*
X445327Y404352D01*
X444693Y405177D01*
X443867Y405811D01*
X442906Y406209D01*
X441874Y406345D01*
D02*
G37*
G36*
X567787Y404253D02*
Y396874D01*
X575166D01*
X575063Y397921D01*
X574612Y399408D01*
X573879Y400779D01*
X572893Y401980D01*
X571692Y402966D01*
X570321Y403698D01*
X568834Y404150D01*
X567787Y404253D01*
D02*
G37*
G36*
X566787Y404253D02*
X565741Y404150D01*
X564253Y403698D01*
X562883Y402966D01*
X561681Y401980D01*
X560696Y400779D01*
X559963Y399408D01*
X559512Y397921D01*
X559409Y396874D01*
X566787D01*
Y404253D01*
D02*
G37*
G36*
X533287Y403753D02*
Y396374D01*
X540666D01*
X540563Y397421D01*
X540112Y398908D01*
X539379Y400279D01*
X538393Y401480D01*
X537192Y402466D01*
X535821Y403198D01*
X534334Y403650D01*
X533287Y403753D01*
D02*
G37*
G36*
X498287D02*
Y396374D01*
X505666D01*
X505563Y397421D01*
X505112Y398908D01*
X504379Y400279D01*
X503393Y401480D01*
X502192Y402466D01*
X500821Y403198D01*
X499334Y403650D01*
X498287Y403753D01*
D02*
G37*
G36*
X532287Y403753D02*
X531241Y403650D01*
X529753Y403198D01*
X528383Y402466D01*
X527181Y401480D01*
X526195Y400279D01*
X525463Y398908D01*
X525012Y397421D01*
X524909Y396374D01*
X532287D01*
Y403753D01*
D02*
G37*
G36*
X497287D02*
X496241Y403650D01*
X494753Y403198D01*
X493383Y402466D01*
X492181Y401480D01*
X491195Y400279D01*
X490463Y398908D01*
X490012Y397421D01*
X489909Y396374D01*
X497287D01*
Y403753D01*
D02*
G37*
G36*
X425374Y401149D02*
X424445Y401026D01*
X423579Y400668D01*
X422836Y400097D01*
X422265Y399354D01*
X421907Y398488D01*
X421784Y397559D01*
X421907Y396630D01*
X422265Y395764D01*
X422836Y395021D01*
X423579Y394450D01*
X424445Y394092D01*
X425374Y393969D01*
X426303Y394092D01*
X427169Y394450D01*
X427912Y395021D01*
X428483Y395764D01*
X428841Y396630D01*
X428964Y397559D01*
X428841Y398488D01*
X428483Y399354D01*
X427912Y400097D01*
X427169Y400668D01*
X426303Y401026D01*
X425374Y401149D01*
D02*
G37*
G36*
X566787Y395874D02*
X559409D01*
X559512Y394827D01*
X559963Y393340D01*
X560696Y391969D01*
X561681Y390768D01*
X562883Y389782D01*
X564253Y389050D01*
X565741Y388598D01*
X566787Y388495D01*
Y395874D01*
D02*
G37*
G36*
X575166D02*
X567787D01*
Y388495D01*
X568834Y388598D01*
X570321Y389050D01*
X571692Y389782D01*
X572893Y390768D01*
X573879Y391969D01*
X574612Y393340D01*
X575063Y394827D01*
X575166Y395874D01*
D02*
G37*
G36*
X532287Y395374D02*
X524909D01*
X525012Y394327D01*
X525463Y392840D01*
X526195Y391470D01*
X527181Y390268D01*
X528383Y389282D01*
X529753Y388550D01*
X531241Y388098D01*
X532287Y387995D01*
Y395374D01*
D02*
G37*
G36*
X497287D02*
X489909D01*
X490012Y394327D01*
X490463Y392840D01*
X491195Y391470D01*
X492181Y390268D01*
X493383Y389282D01*
X494753Y388550D01*
X496241Y388098D01*
X497287Y387995D01*
Y395374D01*
D02*
G37*
G36*
X540666D02*
X533287D01*
Y387995D01*
X534334Y388098D01*
X535821Y388550D01*
X537192Y389282D01*
X538393Y390268D01*
X539379Y391470D01*
X540112Y392840D01*
X540563Y394327D01*
X540666Y395374D01*
D02*
G37*
G36*
X505666D02*
X498287D01*
Y387995D01*
X499334Y388098D01*
X500821Y388550D01*
X502192Y389282D01*
X503393Y390268D01*
X504379Y391470D01*
X505112Y392840D01*
X505563Y394327D01*
X505666Y395374D01*
D02*
G37*
G36*
X575177Y384264D02*
X559398D01*
Y380413D01*
X540677D01*
Y383764D01*
X524898D01*
Y380413D01*
X505677D01*
Y383764D01*
X489898D01*
Y367984D01*
X505677D01*
Y371335D01*
X524898D01*
Y367984D01*
X540677D01*
Y371335D01*
X559398D01*
Y368484D01*
X575177D01*
Y384264D01*
D02*
G37*
G36*
X425874Y381398D02*
Y378374D01*
X428898D01*
X428841Y378803D01*
X428483Y379669D01*
X427912Y380412D01*
X427169Y380983D01*
X426303Y381342D01*
X425874Y381398D01*
D02*
G37*
G36*
X424874D02*
X424445Y381342D01*
X423579Y380983D01*
X422836Y380412D01*
X422265Y379669D01*
X421907Y378803D01*
X421850Y378374D01*
X424874D01*
Y381398D01*
D02*
G37*
G36*
X452374Y375423D02*
X451987Y375346D01*
X451874Y375361D01*
X450842Y375225D01*
X449881Y374827D01*
X449055Y374193D01*
X448421Y373368D01*
X448023Y372406D01*
X447887Y371374D01*
X448023Y370342D01*
X448421Y369381D01*
X449055Y368555D01*
X449825Y367964D01*
Y364874D01*
X450019Y363899D01*
X450572Y363072D01*
X458072Y355572D01*
X458899Y355019D01*
X459874Y354825D01*
X484818D01*
X486325Y353318D01*
Y343712D01*
X485906Y343165D01*
X485448Y342060D01*
X485291Y340874D01*
X485448Y339688D01*
X485906Y338583D01*
X486634Y337634D01*
X487583Y336905D01*
X488688Y336448D01*
X489874Y336292D01*
X491060Y336448D01*
X492165Y336905D01*
X493114Y337634D01*
X493843Y338583D01*
X494300Y339688D01*
X494456Y340874D01*
X494300Y342060D01*
X493843Y343165D01*
X493114Y344114D01*
X492165Y344843D01*
X491423Y345150D01*
Y354374D01*
X491229Y355349D01*
X490676Y356176D01*
X487676Y359176D01*
X486849Y359729D01*
X486617Y359775D01*
X486622Y359825D01*
X492818D01*
X496325Y356318D01*
Y343712D01*
X495905Y343165D01*
X495448Y342060D01*
X495292Y340874D01*
X495448Y339688D01*
X495905Y338583D01*
X496634Y337634D01*
X497583Y336905D01*
X498688Y336448D01*
X499874Y336292D01*
X501060Y336448D01*
X502165Y336905D01*
X503114Y337634D01*
X503843Y338583D01*
X504300Y339688D01*
X504457Y340874D01*
X504300Y342060D01*
X503843Y343165D01*
X503114Y344114D01*
X502189Y344824D01*
X502206Y344874D01*
X507542D01*
X507559Y344824D01*
X506634Y344114D01*
X505905Y343165D01*
X505448Y342060D01*
X505292Y340874D01*
X505448Y339688D01*
X505905Y338583D01*
X506634Y337634D01*
X507583Y336905D01*
X508688Y336448D01*
X509874Y336292D01*
X511060Y336448D01*
X512165Y336905D01*
X513114Y337634D01*
X513843Y338583D01*
X514300Y339688D01*
X514457Y340874D01*
X514300Y342060D01*
X513843Y343165D01*
X513114Y344114D01*
X512189Y344824D01*
X512206Y344874D01*
X517542D01*
X517559Y344824D01*
X516634Y344114D01*
X515906Y343165D01*
X515448Y342060D01*
X515292Y340874D01*
X515448Y339688D01*
X515906Y338583D01*
X516634Y337634D01*
X517583Y336905D01*
X518688Y336448D01*
X519874Y336292D01*
X521060Y336448D01*
X522165Y336905D01*
X523114Y337634D01*
X523843Y338583D01*
X524300Y339688D01*
X524457Y340874D01*
X524300Y342060D01*
X523843Y343165D01*
X523114Y344114D01*
X522189Y344824D01*
X522206Y344874D01*
X527542D01*
X527559Y344824D01*
X526634Y344114D01*
X525906Y343165D01*
X525448Y342060D01*
X525291Y340874D01*
X525448Y339688D01*
X525906Y338583D01*
X526634Y337634D01*
X527583Y336905D01*
X528688Y336448D01*
X529874Y336292D01*
X531060Y336448D01*
X532165Y336905D01*
X533114Y337634D01*
X533843Y338583D01*
X534300Y339688D01*
X534456Y340874D01*
X534300Y342060D01*
X533843Y343165D01*
X533114Y344114D01*
X532189Y344824D01*
X532206Y344874D01*
X537542D01*
X537559Y344824D01*
X536634Y344114D01*
X535906Y343165D01*
X535448Y342060D01*
X535291Y340874D01*
X535448Y339688D01*
X535906Y338583D01*
X536634Y337634D01*
X537583Y336905D01*
X538688Y336448D01*
X539874Y336292D01*
X541060Y336448D01*
X542165Y336905D01*
X543114Y337634D01*
X543843Y338583D01*
X544300Y339688D01*
X544456Y340874D01*
X544300Y342060D01*
X543843Y343165D01*
X543114Y344114D01*
X542189Y344824D01*
X542206Y344874D01*
X547542D01*
X547559Y344824D01*
X546634Y344114D01*
X545905Y343165D01*
X545448Y342060D01*
X545292Y340874D01*
X545448Y339688D01*
X545905Y338583D01*
X546634Y337634D01*
X547583Y336905D01*
X548688Y336448D01*
X549874Y336292D01*
X551060Y336448D01*
X552165Y336905D01*
X553114Y337634D01*
X553843Y338583D01*
X554300Y339688D01*
X554457Y340874D01*
X554300Y342060D01*
X553843Y343165D01*
X553114Y344114D01*
X552189Y344824D01*
X552206Y344874D01*
X557542D01*
X557559Y344824D01*
X556634Y344114D01*
X555905Y343165D01*
X555448Y342060D01*
X555292Y340874D01*
X555448Y339688D01*
X555905Y338583D01*
X556634Y337634D01*
X557583Y336905D01*
X558688Y336448D01*
X559874Y336292D01*
X561060Y336448D01*
X562165Y336905D01*
X563114Y337634D01*
X563843Y338583D01*
X564300Y339688D01*
X564457Y340874D01*
X564300Y342060D01*
X563843Y343165D01*
X563114Y344114D01*
X562189Y344824D01*
X562206Y344874D01*
X567542D01*
X567559Y344824D01*
X566634Y344114D01*
X565906Y343165D01*
X565448Y342060D01*
X565292Y340874D01*
X565448Y339688D01*
X565906Y338583D01*
X566634Y337634D01*
X567583Y336905D01*
X568688Y336448D01*
X569874Y336292D01*
X571060Y336448D01*
X572165Y336905D01*
X573114Y337634D01*
X573843Y338583D01*
X574300Y339688D01*
X574457Y340874D01*
X574300Y342060D01*
X573843Y343165D01*
X573114Y344114D01*
X572189Y344824D01*
X572206Y344874D01*
X573874D01*
Y358551D01*
X501094D01*
X500676Y359176D01*
X495676Y364176D01*
X494849Y364729D01*
X493874Y364923D01*
X470430D01*
X465516Y369837D01*
X465725Y370342D01*
X465861Y371374D01*
X465725Y372406D01*
X465327Y373368D01*
X464693Y374193D01*
X463868Y374827D01*
X462906Y375225D01*
X461874Y375361D01*
X460842Y375225D01*
X459881Y374827D01*
X459055Y374193D01*
X458421Y373368D01*
X458023Y372406D01*
X457887Y371374D01*
X458023Y370342D01*
X458421Y369381D01*
X459055Y368555D01*
X459881Y367921D01*
X460463Y367680D01*
X467572Y360572D01*
X468399Y360019D01*
X468631Y359973D01*
X468626Y359923D01*
X460930D01*
X454923Y365930D01*
Y368854D01*
X455327Y369381D01*
X455725Y370342D01*
X455861Y371374D01*
X455725Y372406D01*
X455327Y373368D01*
X454693Y374193D01*
X454295Y374498D01*
X454176Y374676D01*
X453349Y375229D01*
X452374Y375423D01*
D02*
G37*
G36*
X428898Y377374D02*
X425874D01*
Y374350D01*
X426303Y374407D01*
X427169Y374765D01*
X427912Y375336D01*
X428483Y376079D01*
X428841Y376945D01*
X428898Y377374D01*
D02*
G37*
G36*
X424874D02*
X421850D01*
X421907Y376945D01*
X422265Y376079D01*
X422836Y375336D01*
X423579Y374765D01*
X424445Y374407D01*
X424874Y374350D01*
Y377374D01*
D02*
G37*
G36*
X472374Y375295D02*
Y371874D01*
X475795D01*
X475725Y372406D01*
X475327Y373368D01*
X474693Y374193D01*
X473868Y374827D01*
X472906Y375225D01*
X472374Y375295D01*
D02*
G37*
G36*
X471374D02*
X470842Y375225D01*
X469881Y374827D01*
X469055Y374193D01*
X468421Y373368D01*
X468023Y372406D01*
X467953Y371874D01*
X471374D01*
Y375295D01*
D02*
G37*
G36*
X475795Y370874D02*
X472374D01*
Y367453D01*
X472906Y367523D01*
X473868Y367921D01*
X474693Y368555D01*
X475327Y369381D01*
X475725Y370342D01*
X475795Y370874D01*
D02*
G37*
G36*
X471374D02*
X467953D01*
X468023Y370342D01*
X468421Y369381D01*
X469055Y368555D01*
X469881Y367921D01*
X470842Y367523D01*
X471374Y367453D01*
Y370874D01*
D02*
G37*
G36*
X445827Y375327D02*
X437921D01*
Y367421D01*
X445827D01*
Y375327D01*
D02*
G37*
G36*
X479874Y345457D02*
X478688Y345300D01*
X477583Y344843D01*
X476634Y344114D01*
X475906Y343165D01*
X475448Y342060D01*
X475291Y340874D01*
X475448Y339688D01*
X475906Y338583D01*
X476634Y337634D01*
X477583Y336905D01*
X478688Y336448D01*
X479874Y336292D01*
X481060Y336448D01*
X482165Y336905D01*
X483114Y337634D01*
X483843Y338583D01*
X484300Y339688D01*
X484456Y340874D01*
X484300Y342060D01*
X483843Y343165D01*
X483114Y344114D01*
X482165Y344843D01*
X481060Y345300D01*
X479874Y345457D01*
D02*
G37*
G36*
X469874D02*
X468688Y345300D01*
X467583Y344843D01*
X466634Y344114D01*
X465906Y343165D01*
X465448Y342060D01*
X465292Y340874D01*
X465448Y339688D01*
X465906Y338583D01*
X466634Y337634D01*
X467583Y336905D01*
X468688Y336448D01*
X469874Y336292D01*
X471060Y336448D01*
X472165Y336905D01*
X473114Y337634D01*
X473843Y338583D01*
X474300Y339688D01*
X474457Y340874D01*
X474300Y342060D01*
X473843Y343165D01*
X473114Y344114D01*
X472165Y344843D01*
X471060Y345300D01*
X469874Y345457D01*
D02*
G37*
G36*
X442220Y437720D02*
X433528D01*
Y429028D01*
X442220D01*
Y430825D01*
X444318D01*
X459325Y415818D01*
Y405385D01*
X459055Y405177D01*
X458421Y404352D01*
X458023Y403390D01*
X457887Y402358D01*
X458023Y401326D01*
X458421Y400365D01*
X459055Y399539D01*
X459325Y399332D01*
Y394430D01*
X447818Y382923D01*
X438874D01*
X437899Y382729D01*
X437072Y382176D01*
X432572Y377676D01*
X432019Y376850D01*
X431825Y375874D01*
Y366374D01*
X432019Y365399D01*
X432572Y364572D01*
X435572Y361572D01*
X436399Y361019D01*
X437374Y360825D01*
X444818D01*
X456325Y349318D01*
Y343712D01*
X455905Y343165D01*
X455448Y342060D01*
X455292Y340874D01*
X455448Y339688D01*
X455905Y338583D01*
X456634Y337634D01*
X457583Y336905D01*
X458688Y336448D01*
X459874Y336292D01*
X461060Y336448D01*
X462165Y336905D01*
X463114Y337634D01*
X463843Y338583D01*
X464300Y339688D01*
X464457Y340874D01*
X464300Y342060D01*
X463843Y343165D01*
X463114Y344114D01*
X462165Y344843D01*
X461423Y345150D01*
Y350374D01*
X461229Y351349D01*
X460676Y352176D01*
X447676Y365176D01*
X446849Y365729D01*
X445874Y365923D01*
X438430D01*
X436923Y367430D01*
Y374818D01*
X439930Y377825D01*
X448874D01*
X449850Y378019D01*
X450676Y378572D01*
X463676Y391572D01*
X464229Y392399D01*
X464423Y393374D01*
Y399332D01*
X464693Y399539D01*
X465327Y400365D01*
X465725Y401326D01*
X465861Y402358D01*
X465725Y403390D01*
X465327Y404352D01*
X464693Y405177D01*
X464423Y405385D01*
Y416874D01*
X464229Y417849D01*
X463676Y418676D01*
X447176Y435176D01*
X446349Y435729D01*
X445374Y435923D01*
X442220D01*
Y437720D01*
D02*
G37*
G36*
X449874Y345457D02*
X448688Y345300D01*
X447583Y344843D01*
X446634Y344114D01*
X445905Y343165D01*
X445448Y342060D01*
X445292Y340874D01*
X445448Y339688D01*
X445905Y338583D01*
X446634Y337634D01*
X447583Y336905D01*
X448688Y336448D01*
X449874Y336292D01*
X451060Y336448D01*
X452165Y336905D01*
X453114Y337634D01*
X453843Y338583D01*
X454300Y339688D01*
X454457Y340874D01*
X454300Y342060D01*
X453843Y343165D01*
X453114Y344114D01*
X452165Y344843D01*
X451060Y345300D01*
X449874Y345457D01*
D02*
G37*
G36*
X439874D02*
X438688Y345300D01*
X437583Y344843D01*
X436634Y344114D01*
X435906Y343165D01*
X435448Y342060D01*
X435291Y340874D01*
X435448Y339688D01*
X435906Y338583D01*
X436634Y337634D01*
X437583Y336905D01*
X438688Y336448D01*
X439874Y336292D01*
X441060Y336448D01*
X442165Y336905D01*
X443114Y337634D01*
X443843Y338583D01*
X444300Y339688D01*
X444456Y340874D01*
X444300Y342060D01*
X443843Y343165D01*
X443114Y344114D01*
X442165Y344843D01*
X441060Y345300D01*
X439874Y345457D01*
D02*
G37*
G36*
X429874D02*
X428688Y345300D01*
X427583Y344843D01*
X426634Y344114D01*
X425906Y343165D01*
X425448Y342060D01*
X425291Y340874D01*
X425448Y339688D01*
X425906Y338583D01*
X426634Y337634D01*
X427583Y336905D01*
X428688Y336448D01*
X429874Y336292D01*
X431060Y336448D01*
X432165Y336905D01*
X433114Y337634D01*
X433843Y338583D01*
X434300Y339688D01*
X434456Y340874D01*
X434300Y342060D01*
X433843Y343165D01*
X433114Y344114D01*
X432165Y344843D01*
X431060Y345300D01*
X429874Y345457D01*
D02*
G37*
G36*
X419874D02*
X418688Y345300D01*
X417583Y344843D01*
X416634Y344114D01*
X415906Y343165D01*
X415448Y342060D01*
X415292Y340874D01*
X415448Y339688D01*
X415906Y338583D01*
X416634Y337634D01*
X417583Y336905D01*
X418688Y336448D01*
X419874Y336292D01*
X421060Y336448D01*
X422165Y336905D01*
X423114Y337634D01*
X423843Y338583D01*
X424300Y339688D01*
X424457Y340874D01*
X424300Y342060D01*
X423843Y343165D01*
X423114Y344114D01*
X422165Y344843D01*
X421060Y345300D01*
X419874Y345457D01*
D02*
G37*
G36*
X570374Y335391D02*
Y331374D01*
X574391D01*
X574300Y332060D01*
X573843Y333165D01*
X573114Y334114D01*
X572165Y334842D01*
X571060Y335300D01*
X570374Y335391D01*
D02*
G37*
G36*
X560374D02*
Y331374D01*
X564391D01*
X564300Y332060D01*
X563843Y333165D01*
X563114Y334114D01*
X562165Y334842D01*
X561060Y335300D01*
X560374Y335391D01*
D02*
G37*
G36*
X550374D02*
Y331374D01*
X554391D01*
X554300Y332060D01*
X553843Y333165D01*
X553114Y334114D01*
X552165Y334842D01*
X551060Y335300D01*
X550374Y335391D01*
D02*
G37*
G36*
X540374D02*
Y331374D01*
X544391D01*
X544300Y332060D01*
X543843Y333165D01*
X543114Y334114D01*
X542165Y334842D01*
X541060Y335300D01*
X540374Y335391D01*
D02*
G37*
G36*
X530374D02*
Y331374D01*
X534391D01*
X534300Y332060D01*
X533843Y333165D01*
X533114Y334114D01*
X532165Y334842D01*
X531060Y335300D01*
X530374Y335391D01*
D02*
G37*
G36*
X520374D02*
Y331374D01*
X524391D01*
X524300Y332060D01*
X523843Y333165D01*
X523114Y334114D01*
X522165Y334842D01*
X521060Y335300D01*
X520374Y335391D01*
D02*
G37*
G36*
X510374D02*
Y331374D01*
X514391D01*
X514300Y332060D01*
X513843Y333165D01*
X513114Y334114D01*
X512165Y334842D01*
X511060Y335300D01*
X510374Y335391D01*
D02*
G37*
G36*
X500374D02*
Y331374D01*
X504391D01*
X504300Y332060D01*
X503843Y333165D01*
X503114Y334114D01*
X502165Y334842D01*
X501060Y335300D01*
X500374Y335391D01*
D02*
G37*
G36*
X490374D02*
Y331374D01*
X494391D01*
X494300Y332060D01*
X493843Y333165D01*
X493114Y334114D01*
X492165Y334842D01*
X491060Y335300D01*
X490374Y335391D01*
D02*
G37*
G36*
X480374D02*
Y331374D01*
X484391D01*
X484300Y332060D01*
X483843Y333165D01*
X483114Y334114D01*
X482165Y334842D01*
X481060Y335300D01*
X480374Y335391D01*
D02*
G37*
G36*
X470374D02*
Y331374D01*
X474391D01*
X474300Y332060D01*
X473843Y333165D01*
X473114Y334114D01*
X472165Y334842D01*
X471060Y335300D01*
X470374Y335391D01*
D02*
G37*
G36*
X460374D02*
Y331374D01*
X464391D01*
X464300Y332060D01*
X463843Y333165D01*
X463114Y334114D01*
X462165Y334842D01*
X461060Y335300D01*
X460374Y335391D01*
D02*
G37*
G36*
X450374D02*
Y331374D01*
X454391D01*
X454300Y332060D01*
X453843Y333165D01*
X453114Y334114D01*
X452165Y334842D01*
X451060Y335300D01*
X450374Y335391D01*
D02*
G37*
G36*
X440374D02*
Y331374D01*
X444391D01*
X444300Y332060D01*
X443843Y333165D01*
X443114Y334114D01*
X442165Y334842D01*
X441060Y335300D01*
X440374Y335391D01*
D02*
G37*
G36*
X430374D02*
Y331374D01*
X434391D01*
X434300Y332060D01*
X433843Y333165D01*
X433114Y334114D01*
X432165Y334842D01*
X431060Y335300D01*
X430374Y335391D01*
D02*
G37*
G36*
X420374D02*
Y331374D01*
X424391D01*
X424300Y332060D01*
X423843Y333165D01*
X423114Y334114D01*
X422165Y334842D01*
X421060Y335300D01*
X420374Y335391D01*
D02*
G37*
G36*
X410374D02*
Y331374D01*
X414391D01*
X414300Y332060D01*
X413843Y333165D01*
X413114Y334114D01*
X412165Y334842D01*
X411060Y335300D01*
X410374Y335391D01*
D02*
G37*
G36*
X569374D02*
X568688Y335300D01*
X567583Y334842D01*
X566634Y334114D01*
X565906Y333165D01*
X565448Y332060D01*
X565357Y331374D01*
X569374D01*
Y335391D01*
D02*
G37*
G36*
X559374D02*
X558688Y335300D01*
X557583Y334842D01*
X556634Y334114D01*
X555905Y333165D01*
X555448Y332060D01*
X555357Y331374D01*
X559374D01*
Y335391D01*
D02*
G37*
G36*
X549374D02*
X548688Y335300D01*
X547583Y334842D01*
X546634Y334114D01*
X545905Y333165D01*
X545448Y332060D01*
X545357Y331374D01*
X549374D01*
Y335391D01*
D02*
G37*
G36*
X539374D02*
X538688Y335300D01*
X537583Y334842D01*
X536634Y334114D01*
X535906Y333165D01*
X535448Y332060D01*
X535357Y331374D01*
X539374D01*
Y335391D01*
D02*
G37*
G36*
X529374D02*
X528688Y335300D01*
X527583Y334842D01*
X526634Y334114D01*
X525906Y333165D01*
X525448Y332060D01*
X525357Y331374D01*
X529374D01*
Y335391D01*
D02*
G37*
G36*
X519374D02*
X518688Y335300D01*
X517583Y334842D01*
X516634Y334114D01*
X515906Y333165D01*
X515448Y332060D01*
X515357Y331374D01*
X519374D01*
Y335391D01*
D02*
G37*
G36*
X509374D02*
X508688Y335300D01*
X507583Y334842D01*
X506634Y334114D01*
X505905Y333165D01*
X505448Y332060D01*
X505357Y331374D01*
X509374D01*
Y335391D01*
D02*
G37*
G36*
X499374D02*
X498688Y335300D01*
X497583Y334842D01*
X496634Y334114D01*
X495905Y333165D01*
X495448Y332060D01*
X495357Y331374D01*
X499374D01*
Y335391D01*
D02*
G37*
G36*
X489374D02*
X488688Y335300D01*
X487583Y334842D01*
X486634Y334114D01*
X485906Y333165D01*
X485448Y332060D01*
X485357Y331374D01*
X489374D01*
Y335391D01*
D02*
G37*
G36*
X479374D02*
X478688Y335300D01*
X477583Y334842D01*
X476634Y334114D01*
X475906Y333165D01*
X475448Y332060D01*
X475357Y331374D01*
X479374D01*
Y335391D01*
D02*
G37*
G36*
X469374D02*
X468688Y335300D01*
X467583Y334842D01*
X466634Y334114D01*
X465906Y333165D01*
X465448Y332060D01*
X465357Y331374D01*
X469374D01*
Y335391D01*
D02*
G37*
G36*
X459374D02*
X458688Y335300D01*
X457583Y334842D01*
X456634Y334114D01*
X455905Y333165D01*
X455448Y332060D01*
X455357Y331374D01*
X459374D01*
Y335391D01*
D02*
G37*
G36*
X449374D02*
X448688Y335300D01*
X447583Y334842D01*
X446634Y334114D01*
X445905Y333165D01*
X445448Y332060D01*
X445357Y331374D01*
X449374D01*
Y335391D01*
D02*
G37*
G36*
X439374D02*
X438688Y335300D01*
X437583Y334842D01*
X436634Y334114D01*
X435906Y333165D01*
X435448Y332060D01*
X435357Y331374D01*
X439374D01*
Y335391D01*
D02*
G37*
G36*
X429374D02*
X428688Y335300D01*
X427583Y334842D01*
X426634Y334114D01*
X425906Y333165D01*
X425448Y332060D01*
X425357Y331374D01*
X429374D01*
Y335391D01*
D02*
G37*
G36*
X419374D02*
X418688Y335300D01*
X417583Y334842D01*
X416634Y334114D01*
X415906Y333165D01*
X415448Y332060D01*
X415357Y331374D01*
X419374D01*
Y335391D01*
D02*
G37*
G36*
X574391Y330374D02*
X570374D01*
Y326357D01*
X571060Y326448D01*
X572165Y326905D01*
X573114Y327634D01*
X573843Y328583D01*
X574300Y329688D01*
X574391Y330374D01*
D02*
G37*
G36*
X564391D02*
X560374D01*
Y326357D01*
X561060Y326448D01*
X562165Y326905D01*
X563114Y327634D01*
X563843Y328583D01*
X564300Y329688D01*
X564391Y330374D01*
D02*
G37*
G36*
X554391D02*
X550374D01*
Y326357D01*
X551060Y326448D01*
X552165Y326905D01*
X553114Y327634D01*
X553843Y328583D01*
X554300Y329688D01*
X554391Y330374D01*
D02*
G37*
G36*
X544391D02*
X540374D01*
Y326357D01*
X541060Y326448D01*
X542165Y326905D01*
X543114Y327634D01*
X543843Y328583D01*
X544300Y329688D01*
X544391Y330374D01*
D02*
G37*
G36*
X534391D02*
X530374D01*
Y326357D01*
X531060Y326448D01*
X532165Y326905D01*
X533114Y327634D01*
X533843Y328583D01*
X534300Y329688D01*
X534391Y330374D01*
D02*
G37*
G36*
X524391D02*
X520374D01*
Y326357D01*
X521060Y326448D01*
X522165Y326905D01*
X523114Y327634D01*
X523843Y328583D01*
X524300Y329688D01*
X524391Y330374D01*
D02*
G37*
G36*
X514391D02*
X510374D01*
Y326357D01*
X511060Y326448D01*
X512165Y326905D01*
X513114Y327634D01*
X513843Y328583D01*
X514300Y329688D01*
X514391Y330374D01*
D02*
G37*
G36*
X504391D02*
X500374D01*
Y326357D01*
X501060Y326448D01*
X502165Y326905D01*
X503114Y327634D01*
X503843Y328583D01*
X504300Y329688D01*
X504391Y330374D01*
D02*
G37*
G36*
X494391D02*
X490374D01*
Y326357D01*
X491060Y326448D01*
X492165Y326905D01*
X493114Y327634D01*
X493843Y328583D01*
X494300Y329688D01*
X494391Y330374D01*
D02*
G37*
G36*
X484391D02*
X480374D01*
Y326357D01*
X481060Y326448D01*
X482165Y326905D01*
X483114Y327634D01*
X483843Y328583D01*
X484300Y329688D01*
X484391Y330374D01*
D02*
G37*
G36*
X474391D02*
X470374D01*
Y326357D01*
X471060Y326448D01*
X472165Y326905D01*
X473114Y327634D01*
X473843Y328583D01*
X474300Y329688D01*
X474391Y330374D01*
D02*
G37*
G36*
X464391D02*
X460374D01*
Y326357D01*
X461060Y326448D01*
X462165Y326905D01*
X463114Y327634D01*
X463843Y328583D01*
X464300Y329688D01*
X464391Y330374D01*
D02*
G37*
G36*
X454391D02*
X450374D01*
Y326357D01*
X451060Y326448D01*
X452165Y326905D01*
X453114Y327634D01*
X453843Y328583D01*
X454300Y329688D01*
X454391Y330374D01*
D02*
G37*
G36*
X444391D02*
X440374D01*
Y326357D01*
X441060Y326448D01*
X442165Y326905D01*
X443114Y327634D01*
X443843Y328583D01*
X444300Y329688D01*
X444391Y330374D01*
D02*
G37*
G36*
X434391D02*
X430374D01*
Y326357D01*
X431060Y326448D01*
X432165Y326905D01*
X433114Y327634D01*
X433843Y328583D01*
X434300Y329688D01*
X434391Y330374D01*
D02*
G37*
G36*
X424391D02*
X420374D01*
Y326357D01*
X421060Y326448D01*
X422165Y326905D01*
X423114Y327634D01*
X423843Y328583D01*
X424300Y329688D01*
X424391Y330374D01*
D02*
G37*
G36*
X414391D02*
X410374D01*
Y326357D01*
X411060Y326448D01*
X412165Y326905D01*
X413114Y327634D01*
X413843Y328583D01*
X414300Y329688D01*
X414391Y330374D01*
D02*
G37*
G36*
X569374D02*
X565357D01*
X565448Y329688D01*
X565906Y328583D01*
X566634Y327634D01*
X567583Y326905D01*
X568688Y326448D01*
X569374Y326357D01*
Y330374D01*
D02*
G37*
G36*
X559374D02*
X555357D01*
X555448Y329688D01*
X555905Y328583D01*
X556634Y327634D01*
X557583Y326905D01*
X558688Y326448D01*
X559374Y326357D01*
Y330374D01*
D02*
G37*
G36*
X549374D02*
X545357D01*
X545448Y329688D01*
X545905Y328583D01*
X546634Y327634D01*
X547583Y326905D01*
X548688Y326448D01*
X549374Y326357D01*
Y330374D01*
D02*
G37*
G36*
X539374D02*
X535357D01*
X535448Y329688D01*
X535906Y328583D01*
X536634Y327634D01*
X537583Y326905D01*
X538688Y326448D01*
X539374Y326357D01*
Y330374D01*
D02*
G37*
G36*
X529374D02*
X525357D01*
X525448Y329688D01*
X525906Y328583D01*
X526634Y327634D01*
X527583Y326905D01*
X528688Y326448D01*
X529374Y326357D01*
Y330374D01*
D02*
G37*
G36*
X519374D02*
X515357D01*
X515448Y329688D01*
X515906Y328583D01*
X516634Y327634D01*
X517583Y326905D01*
X518688Y326448D01*
X519374Y326357D01*
Y330374D01*
D02*
G37*
G36*
X509374D02*
X505357D01*
X505448Y329688D01*
X505905Y328583D01*
X506634Y327634D01*
X507583Y326905D01*
X508688Y326448D01*
X509374Y326357D01*
Y330374D01*
D02*
G37*
G36*
X499374D02*
X495357D01*
X495448Y329688D01*
X495905Y328583D01*
X496634Y327634D01*
X497583Y326905D01*
X498688Y326448D01*
X499374Y326357D01*
Y330374D01*
D02*
G37*
G36*
X489374D02*
X485357D01*
X485448Y329688D01*
X485906Y328583D01*
X486634Y327634D01*
X487583Y326905D01*
X488688Y326448D01*
X489374Y326357D01*
Y330374D01*
D02*
G37*
G36*
X479374D02*
X475357D01*
X475448Y329688D01*
X475906Y328583D01*
X476634Y327634D01*
X477583Y326905D01*
X478688Y326448D01*
X479374Y326357D01*
Y330374D01*
D02*
G37*
G36*
X469374D02*
X465357D01*
X465448Y329688D01*
X465906Y328583D01*
X466634Y327634D01*
X467583Y326905D01*
X468688Y326448D01*
X469374Y326357D01*
Y330374D01*
D02*
G37*
G36*
X459374D02*
X455357D01*
X455448Y329688D01*
X455905Y328583D01*
X456634Y327634D01*
X457583Y326905D01*
X458688Y326448D01*
X459374Y326357D01*
Y330374D01*
D02*
G37*
G36*
X449374D02*
X445357D01*
X445448Y329688D01*
X445905Y328583D01*
X446634Y327634D01*
X447583Y326905D01*
X448688Y326448D01*
X449374Y326357D01*
Y330374D01*
D02*
G37*
G36*
X439374D02*
X435357D01*
X435448Y329688D01*
X435906Y328583D01*
X436634Y327634D01*
X437583Y326905D01*
X438688Y326448D01*
X439374Y326357D01*
Y330374D01*
D02*
G37*
G36*
X429374D02*
X425357D01*
X425448Y329688D01*
X425906Y328583D01*
X426634Y327634D01*
X427583Y326905D01*
X428688Y326448D01*
X429374Y326357D01*
Y330374D01*
D02*
G37*
G36*
X419374D02*
X415357D01*
X415448Y329688D01*
X415906Y328583D01*
X416634Y327634D01*
X417583Y326905D01*
X418688Y326448D01*
X419374Y326357D01*
Y330374D01*
D02*
G37*
G36*
X382913Y444302D02*
X381367Y444150D01*
X379879Y443699D01*
X378509Y442966D01*
X377307Y441980D01*
X376322Y440779D01*
X376126Y440413D01*
X354895D01*
X354019Y441480D01*
X352818Y442466D01*
X351447Y443198D01*
X349960Y443650D01*
X348413Y443802D01*
X346867Y443650D01*
X345379Y443198D01*
X344009Y442466D01*
X342807Y441480D01*
X341932Y440413D01*
X319895D01*
X319019Y441480D01*
X317818Y442466D01*
X316447Y443198D01*
X314960Y443650D01*
X313413Y443802D01*
X311867Y443650D01*
X310379Y443198D01*
X309009Y442466D01*
X307807Y441480D01*
X306821Y440279D01*
X306089Y438908D01*
X305638Y437421D01*
X305485Y435874D01*
X305638Y434327D01*
X306089Y432840D01*
X306821Y431469D01*
X307807Y430268D01*
X309009Y429282D01*
X310379Y428550D01*
X311867Y428098D01*
X313413Y427946D01*
X314960Y428098D01*
X316447Y428550D01*
X317818Y429282D01*
X319019Y430268D01*
X319895Y431335D01*
X341932D01*
X342807Y430268D01*
X344009Y429282D01*
X345379Y428550D01*
X346867Y428098D01*
X348413Y427946D01*
X349960Y428098D01*
X351447Y428550D01*
X352818Y429282D01*
X354019Y430268D01*
X354895Y431335D01*
X376842D01*
X377307Y430768D01*
X378509Y429782D01*
X379879Y429050D01*
X381367Y428598D01*
X382913Y428446D01*
X384460Y428598D01*
X385947Y429050D01*
X387318Y429782D01*
X388519Y430768D01*
X389505Y431969D01*
X390238Y433340D01*
X390689Y434827D01*
X390841Y436374D01*
X390689Y437921D01*
X390238Y439408D01*
X389505Y440779D01*
X388519Y441980D01*
X387318Y442966D01*
X385947Y443699D01*
X384460Y444150D01*
X382913Y444302D01*
D02*
G37*
G36*
X281000Y440338D02*
X280071Y440215D01*
X279205Y439857D01*
X278462Y439286D01*
X277891Y438543D01*
X277533Y437677D01*
X277410Y436748D01*
X277533Y435819D01*
X277891Y434953D01*
X278462Y434210D01*
X279205Y433639D01*
X280071Y433281D01*
X281000Y433158D01*
X281929Y433281D01*
X282795Y433639D01*
X283538Y434210D01*
X284109Y434953D01*
X284467Y435819D01*
X284590Y436748D01*
X284467Y437677D01*
X284109Y438543D01*
X283538Y439286D01*
X282795Y439857D01*
X281929Y440215D01*
X281000Y440338D01*
D02*
G37*
G36*
X281500Y432398D02*
Y429374D01*
X284524D01*
X284467Y429803D01*
X284109Y430669D01*
X283538Y431412D01*
X282795Y431983D01*
X281929Y432341D01*
X281500Y432398D01*
D02*
G37*
G36*
X280500D02*
X280071Y432341D01*
X279205Y431983D01*
X278462Y431412D01*
X277891Y430669D01*
X277533Y429803D01*
X277476Y429374D01*
X280500D01*
Y432398D01*
D02*
G37*
G36*
X240347Y441770D02*
X228346D01*
X227371Y441575D01*
X226544Y441023D01*
X225698Y440176D01*
X225145Y439350D01*
X224951Y438374D01*
Y413874D01*
X225145Y412899D01*
X225698Y412072D01*
X229198Y408572D01*
X230025Y408019D01*
X231000Y407825D01*
X263444D01*
X264951Y406318D01*
Y405385D01*
X264681Y405177D01*
X264047Y404352D01*
X263649Y403390D01*
X263513Y402358D01*
X263649Y401326D01*
X264047Y400365D01*
X264681Y399539D01*
X265507Y398906D01*
X266468Y398507D01*
X267500Y398371D01*
X268532Y398507D01*
X269493Y398906D01*
X270319Y399539D01*
X270953Y400365D01*
X271351Y401326D01*
X271487Y402358D01*
X271351Y403390D01*
X270953Y404352D01*
X270319Y405177D01*
X270049Y405385D01*
Y407374D01*
X269855Y408350D01*
X269302Y409176D01*
X266302Y412176D01*
X265476Y412729D01*
X264500Y412923D01*
X232056D01*
X230049Y414930D01*
Y420654D01*
X230096Y420670D01*
X230400Y420274D01*
X231308Y419577D01*
X232365Y419139D01*
X233000Y419056D01*
Y423374D01*
Y427692D01*
X232365Y427609D01*
X231308Y427171D01*
X230400Y426474D01*
X230096Y426078D01*
X230049Y426094D01*
Y430654D01*
X230096Y430670D01*
X230400Y430274D01*
X231308Y429577D01*
X232365Y429140D01*
X233500Y428990D01*
X234635Y429140D01*
X235692Y429577D01*
X236600Y430274D01*
X237297Y431182D01*
X237735Y432239D01*
X237884Y433374D01*
X237735Y434509D01*
X237297Y435566D01*
X236600Y436474D01*
X236404Y436624D01*
X236420Y436671D01*
X239291D01*
X240004Y435958D01*
X239703Y435566D01*
X239265Y434509D01*
X239116Y433374D01*
X239265Y432239D01*
X239703Y431182D01*
X240400Y430274D01*
X241308Y429577D01*
X242365Y429140D01*
X243500Y428990D01*
X244635Y429140D01*
X245692Y429577D01*
X246600Y430274D01*
X247297Y431182D01*
X247735Y432239D01*
X247884Y433374D01*
X247735Y434509D01*
X247297Y435566D01*
X246600Y436474D01*
X245851Y437049D01*
X245302Y437869D01*
X242149Y441023D01*
X241322Y441575D01*
X240347Y441770D01*
D02*
G37*
G36*
X284524Y428374D02*
X281500D01*
Y425350D01*
X281929Y425407D01*
X282795Y425765D01*
X283538Y426336D01*
X284109Y427079D01*
X284467Y427945D01*
X284524Y428374D01*
D02*
G37*
G36*
X280500D02*
X277476D01*
X277533Y427945D01*
X277891Y427079D01*
X278462Y426336D01*
X279205Y425765D01*
X280071Y425407D01*
X280500Y425350D01*
Y428374D01*
D02*
G37*
G36*
X234000Y427692D02*
Y423874D01*
X237818D01*
X237735Y424509D01*
X237297Y425566D01*
X236600Y426474D01*
X235692Y427171D01*
X234635Y427609D01*
X234000Y427692D01*
D02*
G37*
G36*
X237818Y422874D02*
X234000D01*
Y419056D01*
X234635Y419139D01*
X235692Y419577D01*
X236600Y420274D01*
X237297Y421182D01*
X237735Y422239D01*
X237818Y422874D01*
D02*
G37*
G36*
X253500Y427758D02*
X252365Y427609D01*
X251308Y427171D01*
X250400Y426474D01*
X249703Y425566D01*
X249265Y424509D01*
X249116Y423374D01*
X249265Y422239D01*
X249703Y421182D01*
X250400Y420274D01*
X251308Y419577D01*
X252365Y419139D01*
X253500Y418990D01*
X254635Y419139D01*
X255692Y419577D01*
X256600Y420274D01*
X257297Y421182D01*
X257735Y422239D01*
X257884Y423374D01*
X257735Y424509D01*
X257297Y425566D01*
X256600Y426474D01*
X255692Y427171D01*
X254635Y427609D01*
X253500Y427758D01*
D02*
G37*
G36*
X243500D02*
X242365Y427609D01*
X241308Y427171D01*
X240400Y426474D01*
X239703Y425566D01*
X239265Y424509D01*
X239116Y423374D01*
X239265Y422239D01*
X239703Y421182D01*
X240400Y420274D01*
X241308Y419577D01*
X242365Y419139D01*
X243500Y418990D01*
X244635Y419139D01*
X245692Y419577D01*
X246600Y420274D01*
X247297Y421182D01*
X247735Y422239D01*
X247884Y423374D01*
X247735Y424509D01*
X247297Y425566D01*
X246600Y426474D01*
X245692Y427171D01*
X244635Y427609D01*
X243500Y427758D01*
D02*
G37*
G36*
X383413Y424253D02*
Y416874D01*
X390792D01*
X390689Y417921D01*
X390238Y419408D01*
X389505Y420779D01*
X388519Y421980D01*
X387318Y422966D01*
X385947Y423699D01*
X384460Y424150D01*
X383413Y424253D01*
D02*
G37*
G36*
X382413Y424253D02*
X381367Y424150D01*
X379879Y423699D01*
X378509Y422966D01*
X377307Y421980D01*
X376322Y420779D01*
X375589Y419408D01*
X375138Y417921D01*
X375035Y416874D01*
X382413D01*
Y424253D01*
D02*
G37*
G36*
X348913Y423753D02*
Y416374D01*
X356292D01*
X356189Y417421D01*
X355738Y418908D01*
X355005Y420279D01*
X354019Y421480D01*
X352818Y422466D01*
X351447Y423199D01*
X349960Y423650D01*
X348913Y423753D01*
D02*
G37*
G36*
X313913D02*
Y416374D01*
X321292D01*
X321189Y417421D01*
X320738Y418908D01*
X320005Y420279D01*
X319019Y421480D01*
X317818Y422466D01*
X316447Y423199D01*
X314960Y423650D01*
X313913Y423753D01*
D02*
G37*
G36*
X347913Y423753D02*
X346867Y423650D01*
X345379Y423199D01*
X344009Y422466D01*
X342807Y421480D01*
X341822Y420279D01*
X341089Y418908D01*
X340638Y417421D01*
X340535Y416374D01*
X347913D01*
Y423753D01*
D02*
G37*
G36*
X312913D02*
X311867Y423650D01*
X310379Y423199D01*
X309009Y422466D01*
X307807Y421480D01*
X306821Y420279D01*
X306089Y418908D01*
X305638Y417421D01*
X305535Y416374D01*
X312913D01*
Y423753D01*
D02*
G37*
G36*
X382413Y415874D02*
X375035D01*
X375138Y414827D01*
X375589Y413340D01*
X376322Y411970D01*
X377307Y410768D01*
X378509Y409782D01*
X379879Y409050D01*
X381367Y408598D01*
X382413Y408495D01*
Y415874D01*
D02*
G37*
G36*
X390792D02*
X383413D01*
Y408495D01*
X384460Y408598D01*
X385947Y409050D01*
X387318Y409782D01*
X388519Y410768D01*
X389505Y411970D01*
X390238Y413340D01*
X390689Y414827D01*
X390792Y415874D01*
D02*
G37*
G36*
X347913Y415374D02*
X340535D01*
X340638Y414327D01*
X341089Y412840D01*
X341822Y411470D01*
X342807Y410268D01*
X344009Y409282D01*
X345379Y408550D01*
X346867Y408098D01*
X347913Y407995D01*
Y415374D01*
D02*
G37*
G36*
X312913D02*
X305535D01*
X305638Y414327D01*
X306089Y412840D01*
X306821Y411470D01*
X307807Y410268D01*
X309009Y409282D01*
X310379Y408550D01*
X311867Y408098D01*
X312913Y407995D01*
Y415374D01*
D02*
G37*
G36*
X356292D02*
X348913D01*
Y407995D01*
X349960Y408098D01*
X351447Y408550D01*
X352818Y409282D01*
X354019Y410268D01*
X355005Y411470D01*
X355738Y412840D01*
X356189Y414327D01*
X356292Y415374D01*
D02*
G37*
G36*
X321292D02*
X313913D01*
Y407995D01*
X314960Y408098D01*
X316447Y408550D01*
X317818Y409282D01*
X319019Y410268D01*
X320005Y411470D01*
X320738Y412840D01*
X321189Y414327D01*
X321292Y415374D01*
D02*
G37*
G36*
X287500Y406345D02*
X286468Y406209D01*
X285507Y405811D01*
X284681Y405177D01*
X284047Y404352D01*
X283649Y403390D01*
X283513Y402358D01*
X283649Y401326D01*
X284047Y400365D01*
X284681Y399539D01*
X285507Y398906D01*
X286468Y398507D01*
X287500Y398371D01*
X288532Y398507D01*
X289493Y398906D01*
X290319Y399539D01*
X290953Y400365D01*
X291351Y401326D01*
X291487Y402358D01*
X291351Y403390D01*
X290953Y404352D01*
X290319Y405177D01*
X289493Y405811D01*
X288532Y406209D01*
X287500Y406345D01*
D02*
G37*
G36*
X257500D02*
X256468Y406209D01*
X255507Y405811D01*
X254681Y405177D01*
X254047Y404352D01*
X253649Y403390D01*
X253513Y402358D01*
X253649Y401326D01*
X254047Y400365D01*
X254681Y399539D01*
X255507Y398906D01*
X256468Y398507D01*
X257500Y398371D01*
X258532Y398507D01*
X259493Y398906D01*
X260319Y399539D01*
X260953Y400365D01*
X261351Y401326D01*
X261487Y402358D01*
X261351Y403390D01*
X260953Y404352D01*
X260319Y405177D01*
X259493Y405811D01*
X258532Y406209D01*
X257500Y406345D01*
D02*
G37*
G36*
X383413Y404253D02*
Y396874D01*
X390792D01*
X390689Y397921D01*
X390238Y399408D01*
X389505Y400779D01*
X388519Y401980D01*
X387318Y402966D01*
X385947Y403698D01*
X384460Y404150D01*
X383413Y404253D01*
D02*
G37*
G36*
X382413Y404253D02*
X381367Y404150D01*
X379879Y403698D01*
X378509Y402966D01*
X377307Y401980D01*
X376322Y400779D01*
X375589Y399408D01*
X375138Y397921D01*
X375035Y396874D01*
X382413D01*
Y404253D01*
D02*
G37*
G36*
X348913Y403753D02*
Y396374D01*
X356292D01*
X356189Y397421D01*
X355738Y398908D01*
X355005Y400279D01*
X354019Y401480D01*
X352818Y402466D01*
X351447Y403198D01*
X349960Y403650D01*
X348913Y403753D01*
D02*
G37*
G36*
X313913D02*
Y396374D01*
X321292D01*
X321189Y397421D01*
X320738Y398908D01*
X320005Y400279D01*
X319019Y401480D01*
X317818Y402466D01*
X316447Y403198D01*
X314960Y403650D01*
X313913Y403753D01*
D02*
G37*
G36*
X347913Y403753D02*
X346867Y403650D01*
X345379Y403198D01*
X344009Y402466D01*
X342807Y401480D01*
X341822Y400279D01*
X341089Y398908D01*
X340638Y397421D01*
X340535Y396374D01*
X347913D01*
Y403753D01*
D02*
G37*
G36*
X312913D02*
X311867Y403650D01*
X310379Y403198D01*
X309009Y402466D01*
X307807Y401480D01*
X306821Y400279D01*
X306089Y398908D01*
X305638Y397421D01*
X305535Y396374D01*
X312913D01*
Y403753D01*
D02*
G37*
G36*
X241000Y401149D02*
X240071Y401026D01*
X239205Y400668D01*
X238462Y400097D01*
X237891Y399354D01*
X237533Y398488D01*
X237410Y397559D01*
X237533Y396630D01*
X237891Y395764D01*
X238462Y395021D01*
X239205Y394450D01*
X240071Y394092D01*
X241000Y393969D01*
X241929Y394092D01*
X242795Y394450D01*
X243538Y395021D01*
X244109Y395764D01*
X244467Y396630D01*
X244590Y397559D01*
X244467Y398488D01*
X244109Y399354D01*
X243538Y400097D01*
X242795Y400668D01*
X241929Y401026D01*
X241000Y401149D01*
D02*
G37*
G36*
X382413Y395874D02*
X375035D01*
X375138Y394827D01*
X375589Y393340D01*
X376322Y391969D01*
X377307Y390768D01*
X378509Y389782D01*
X379879Y389050D01*
X381367Y388598D01*
X382413Y388495D01*
Y395874D01*
D02*
G37*
G36*
X390792D02*
X383413D01*
Y388495D01*
X384460Y388598D01*
X385947Y389050D01*
X387318Y389782D01*
X388519Y390768D01*
X389505Y391969D01*
X390238Y393340D01*
X390689Y394827D01*
X390792Y395874D01*
D02*
G37*
G36*
X347913Y395374D02*
X340535D01*
X340638Y394327D01*
X341089Y392840D01*
X341822Y391470D01*
X342807Y390268D01*
X344009Y389282D01*
X345379Y388550D01*
X346867Y388098D01*
X347913Y387995D01*
Y395374D01*
D02*
G37*
G36*
X312913D02*
X305535D01*
X305638Y394327D01*
X306089Y392840D01*
X306821Y391470D01*
X307807Y390268D01*
X309009Y389282D01*
X310379Y388550D01*
X311867Y388098D01*
X312913Y387995D01*
Y395374D01*
D02*
G37*
G36*
X356292D02*
X348913D01*
Y387995D01*
X349960Y388098D01*
X351447Y388550D01*
X352818Y389282D01*
X354019Y390268D01*
X355005Y391470D01*
X355738Y392840D01*
X356189Y394327D01*
X356292Y395374D01*
D02*
G37*
G36*
X321292D02*
X313913D01*
Y387995D01*
X314960Y388098D01*
X316447Y388550D01*
X317818Y389282D01*
X319019Y390268D01*
X320005Y391470D01*
X320738Y392840D01*
X321189Y394327D01*
X321292Y395374D01*
D02*
G37*
G36*
X390803Y384264D02*
X375024D01*
Y380413D01*
X356303D01*
Y383764D01*
X340524D01*
Y380413D01*
X321303D01*
Y383764D01*
X305523D01*
Y367984D01*
X321303D01*
Y371335D01*
X340524D01*
Y367984D01*
X356303D01*
Y371335D01*
X375024D01*
Y368484D01*
X390803D01*
Y384264D01*
D02*
G37*
G36*
X241500Y381398D02*
Y378374D01*
X244524D01*
X244467Y378803D01*
X244109Y379669D01*
X243538Y380412D01*
X242795Y380983D01*
X241929Y381342D01*
X241500Y381398D01*
D02*
G37*
G36*
X240500D02*
X240071Y381342D01*
X239205Y380983D01*
X238462Y380412D01*
X237891Y379669D01*
X237533Y378803D01*
X237476Y378374D01*
X240500D01*
Y381398D01*
D02*
G37*
G36*
X268000Y375423D02*
X267613Y375346D01*
X267500Y375361D01*
X266468Y375225D01*
X265507Y374827D01*
X264681Y374193D01*
X264047Y373368D01*
X263649Y372406D01*
X263513Y371374D01*
X263649Y370342D01*
X264047Y369381D01*
X264681Y368555D01*
X265451Y367964D01*
Y364874D01*
X265645Y363899D01*
X266198Y363072D01*
X273698Y355572D01*
X274524Y355019D01*
X275500Y354825D01*
X300444D01*
X301951Y353318D01*
Y343712D01*
X301531Y343165D01*
X301074Y342060D01*
X300918Y340874D01*
X301074Y339688D01*
X301531Y338583D01*
X302260Y337634D01*
X303209Y336905D01*
X304314Y336448D01*
X305500Y336292D01*
X306686Y336448D01*
X307791Y336905D01*
X308740Y337634D01*
X309469Y338583D01*
X309926Y339688D01*
X310083Y340874D01*
X309926Y342060D01*
X309469Y343165D01*
X308740Y344114D01*
X307791Y344843D01*
X307049Y345150D01*
Y354374D01*
X306855Y355349D01*
X306302Y356176D01*
X303302Y359176D01*
X302476Y359729D01*
X302243Y359775D01*
X302248Y359825D01*
X308444D01*
X311951Y356318D01*
Y343712D01*
X311531Y343165D01*
X311074Y342060D01*
X310917Y340874D01*
X311074Y339688D01*
X311531Y338583D01*
X312260Y337634D01*
X313209Y336905D01*
X314314Y336448D01*
X315500Y336292D01*
X316686Y336448D01*
X317791Y336905D01*
X318740Y337634D01*
X319469Y338583D01*
X319926Y339688D01*
X320082Y340874D01*
X319926Y342060D01*
X319469Y343165D01*
X318740Y344114D01*
X317815Y344824D01*
X317832Y344874D01*
X323168D01*
X323185Y344824D01*
X322260Y344114D01*
X321531Y343165D01*
X321074Y342060D01*
X320918Y340874D01*
X321074Y339688D01*
X321531Y338583D01*
X322260Y337634D01*
X323209Y336905D01*
X324314Y336448D01*
X325500Y336292D01*
X326686Y336448D01*
X327791Y336905D01*
X328740Y337634D01*
X329469Y338583D01*
X329926Y339688D01*
X330083Y340874D01*
X329926Y342060D01*
X329469Y343165D01*
X328740Y344114D01*
X327815Y344824D01*
X327832Y344874D01*
X333168D01*
X333185Y344824D01*
X332260Y344114D01*
X331531Y343165D01*
X331074Y342060D01*
X330918Y340874D01*
X331074Y339688D01*
X331531Y338583D01*
X332260Y337634D01*
X333209Y336905D01*
X334314Y336448D01*
X335500Y336292D01*
X336686Y336448D01*
X337791Y336905D01*
X338740Y337634D01*
X339469Y338583D01*
X339926Y339688D01*
X340083Y340874D01*
X339926Y342060D01*
X339469Y343165D01*
X338740Y344114D01*
X337815Y344824D01*
X337832Y344874D01*
X343168D01*
X343185Y344824D01*
X342260Y344114D01*
X341531Y343165D01*
X341074Y342060D01*
X340917Y340874D01*
X341074Y339688D01*
X341531Y338583D01*
X342260Y337634D01*
X343209Y336905D01*
X344314Y336448D01*
X345500Y336292D01*
X346686Y336448D01*
X347791Y336905D01*
X348740Y337634D01*
X349469Y338583D01*
X349926Y339688D01*
X350082Y340874D01*
X349926Y342060D01*
X349469Y343165D01*
X348740Y344114D01*
X347815Y344824D01*
X347832Y344874D01*
X353168D01*
X353185Y344824D01*
X352260Y344114D01*
X351531Y343165D01*
X351074Y342060D01*
X350918Y340874D01*
X351074Y339688D01*
X351531Y338583D01*
X352260Y337634D01*
X353209Y336905D01*
X354314Y336448D01*
X355500Y336292D01*
X356686Y336448D01*
X357791Y336905D01*
X358740Y337634D01*
X359469Y338583D01*
X359926Y339688D01*
X360083Y340874D01*
X359926Y342060D01*
X359469Y343165D01*
X358740Y344114D01*
X357815Y344824D01*
X357832Y344874D01*
X363168D01*
X363185Y344824D01*
X362260Y344114D01*
X361531Y343165D01*
X361074Y342060D01*
X360917Y340874D01*
X361074Y339688D01*
X361531Y338583D01*
X362260Y337634D01*
X363209Y336905D01*
X364314Y336448D01*
X365500Y336292D01*
X366686Y336448D01*
X367791Y336905D01*
X368740Y337634D01*
X369469Y338583D01*
X369926Y339688D01*
X370082Y340874D01*
X369926Y342060D01*
X369469Y343165D01*
X368740Y344114D01*
X367815Y344824D01*
X367832Y344874D01*
X373168D01*
X373185Y344824D01*
X372260Y344114D01*
X371531Y343165D01*
X371074Y342060D01*
X370918Y340874D01*
X371074Y339688D01*
X371531Y338583D01*
X372260Y337634D01*
X373209Y336905D01*
X374314Y336448D01*
X375500Y336292D01*
X376686Y336448D01*
X377791Y336905D01*
X378740Y337634D01*
X379469Y338583D01*
X379926Y339688D01*
X380083Y340874D01*
X379926Y342060D01*
X379469Y343165D01*
X378740Y344114D01*
X377815Y344824D01*
X377832Y344874D01*
X383168D01*
X383185Y344824D01*
X382260Y344114D01*
X381531Y343165D01*
X381074Y342060D01*
X380918Y340874D01*
X381074Y339688D01*
X381531Y338583D01*
X382260Y337634D01*
X383209Y336905D01*
X384314Y336448D01*
X385500Y336292D01*
X386686Y336448D01*
X387791Y336905D01*
X388740Y337634D01*
X389469Y338583D01*
X389926Y339688D01*
X390083Y340874D01*
X389926Y342060D01*
X389469Y343165D01*
X388740Y344114D01*
X387815Y344824D01*
X387832Y344874D01*
X389500D01*
Y358551D01*
X316720D01*
X316302Y359176D01*
X311302Y364176D01*
X310475Y364729D01*
X309500Y364923D01*
X286056D01*
X281142Y369837D01*
X281351Y370342D01*
X281487Y371374D01*
X281351Y372406D01*
X280953Y373368D01*
X280319Y374193D01*
X279493Y374827D01*
X278532Y375225D01*
X277500Y375361D01*
X276468Y375225D01*
X275507Y374827D01*
X274681Y374193D01*
X274047Y373368D01*
X273649Y372406D01*
X273513Y371374D01*
X273649Y370342D01*
X274047Y369381D01*
X274681Y368555D01*
X275507Y367921D01*
X276089Y367680D01*
X283198Y360572D01*
X284025Y360019D01*
X284257Y359973D01*
X284252Y359923D01*
X276556D01*
X270549Y365930D01*
Y368854D01*
X270953Y369381D01*
X271351Y370342D01*
X271487Y371374D01*
X271351Y372406D01*
X270953Y373368D01*
X270319Y374193D01*
X269921Y374498D01*
X269802Y374676D01*
X268975Y375229D01*
X268000Y375423D01*
D02*
G37*
G36*
X244524Y377374D02*
X241500D01*
Y374350D01*
X241929Y374407D01*
X242795Y374765D01*
X243538Y375336D01*
X244109Y376079D01*
X244467Y376945D01*
X244524Y377374D01*
D02*
G37*
G36*
X240500D02*
X237476D01*
X237533Y376945D01*
X237891Y376079D01*
X238462Y375336D01*
X239205Y374765D01*
X240071Y374407D01*
X240500Y374350D01*
Y377374D01*
D02*
G37*
G36*
X288000Y375295D02*
Y371874D01*
X291421D01*
X291351Y372406D01*
X290953Y373368D01*
X290319Y374193D01*
X289493Y374827D01*
X288532Y375225D01*
X288000Y375295D01*
D02*
G37*
G36*
X287000D02*
X286468Y375225D01*
X285507Y374827D01*
X284681Y374193D01*
X284047Y373368D01*
X283649Y372406D01*
X283579Y371874D01*
X287000D01*
Y375295D01*
D02*
G37*
G36*
X291421Y370874D02*
X288000D01*
Y367453D01*
X288532Y367523D01*
X289493Y367921D01*
X290319Y368555D01*
X290953Y369381D01*
X291351Y370342D01*
X291421Y370874D01*
D02*
G37*
G36*
X287000D02*
X283579D01*
X283649Y370342D01*
X284047Y369381D01*
X284681Y368555D01*
X285507Y367921D01*
X286468Y367523D01*
X287000Y367453D01*
Y370874D01*
D02*
G37*
G36*
X261453Y375327D02*
X253547D01*
Y367421D01*
X261453D01*
Y375327D01*
D02*
G37*
G36*
X295500Y345457D02*
X294314Y345300D01*
X293209Y344843D01*
X292260Y344114D01*
X291531Y343165D01*
X291074Y342060D01*
X290917Y340874D01*
X291074Y339688D01*
X291531Y338583D01*
X292260Y337634D01*
X293209Y336905D01*
X294314Y336448D01*
X295500Y336292D01*
X296686Y336448D01*
X297791Y336905D01*
X298740Y337634D01*
X299469Y338583D01*
X299926Y339688D01*
X300082Y340874D01*
X299926Y342060D01*
X299469Y343165D01*
X298740Y344114D01*
X297791Y344843D01*
X296686Y345300D01*
X295500Y345457D01*
D02*
G37*
G36*
X285500D02*
X284314Y345300D01*
X283209Y344843D01*
X282260Y344114D01*
X281531Y343165D01*
X281074Y342060D01*
X280918Y340874D01*
X281074Y339688D01*
X281531Y338583D01*
X282260Y337634D01*
X283209Y336905D01*
X284314Y336448D01*
X285500Y336292D01*
X286686Y336448D01*
X287791Y336905D01*
X288740Y337634D01*
X289469Y338583D01*
X289926Y339688D01*
X290083Y340874D01*
X289926Y342060D01*
X289469Y343165D01*
X288740Y344114D01*
X287791Y344843D01*
X286686Y345300D01*
X285500Y345457D01*
D02*
G37*
G36*
X257846Y437720D02*
X249153D01*
Y429028D01*
X257846D01*
Y430825D01*
X259944D01*
X274951Y415818D01*
Y405385D01*
X274681Y405177D01*
X274047Y404352D01*
X273649Y403390D01*
X273513Y402358D01*
X273649Y401326D01*
X274047Y400365D01*
X274681Y399539D01*
X274951Y399332D01*
Y394430D01*
X263444Y382923D01*
X254500D01*
X253524Y382729D01*
X252698Y382176D01*
X248198Y377676D01*
X247645Y376850D01*
X247451Y375874D01*
Y366374D01*
X247645Y365399D01*
X248198Y364572D01*
X251198Y361572D01*
X252025Y361019D01*
X253000Y360825D01*
X260444D01*
X271951Y349318D01*
Y343712D01*
X271531Y343165D01*
X271074Y342060D01*
X270918Y340874D01*
X271074Y339688D01*
X271531Y338583D01*
X272260Y337634D01*
X273209Y336905D01*
X274314Y336448D01*
X275500Y336292D01*
X276686Y336448D01*
X277791Y336905D01*
X278740Y337634D01*
X279469Y338583D01*
X279926Y339688D01*
X280083Y340874D01*
X279926Y342060D01*
X279469Y343165D01*
X278740Y344114D01*
X277791Y344843D01*
X277049Y345150D01*
Y350374D01*
X276855Y351349D01*
X276302Y352176D01*
X263302Y365176D01*
X262475Y365729D01*
X261500Y365923D01*
X254056D01*
X252549Y367430D01*
Y374818D01*
X255556Y377825D01*
X264500D01*
X265476Y378019D01*
X266302Y378572D01*
X279302Y391572D01*
X279855Y392399D01*
X280049Y393374D01*
Y399332D01*
X280319Y399539D01*
X280953Y400365D01*
X281351Y401326D01*
X281487Y402358D01*
X281351Y403390D01*
X280953Y404352D01*
X280319Y405177D01*
X280049Y405385D01*
Y416874D01*
X279855Y417849D01*
X279302Y418676D01*
X262802Y435176D01*
X261976Y435729D01*
X261000Y435923D01*
X257846D01*
Y437720D01*
D02*
G37*
G36*
X265500Y345457D02*
X264314Y345300D01*
X263209Y344843D01*
X262260Y344114D01*
X261531Y343165D01*
X261074Y342060D01*
X260917Y340874D01*
X261074Y339688D01*
X261531Y338583D01*
X262260Y337634D01*
X263209Y336905D01*
X264314Y336448D01*
X265500Y336292D01*
X266686Y336448D01*
X267791Y336905D01*
X268740Y337634D01*
X269469Y338583D01*
X269926Y339688D01*
X270082Y340874D01*
X269926Y342060D01*
X269469Y343165D01*
X268740Y344114D01*
X267791Y344843D01*
X266686Y345300D01*
X265500Y345457D01*
D02*
G37*
G36*
X255500D02*
X254314Y345300D01*
X253209Y344843D01*
X252260Y344114D01*
X251531Y343165D01*
X251074Y342060D01*
X250918Y340874D01*
X251074Y339688D01*
X251531Y338583D01*
X252260Y337634D01*
X253209Y336905D01*
X254314Y336448D01*
X255500Y336292D01*
X256686Y336448D01*
X257791Y336905D01*
X258740Y337634D01*
X259469Y338583D01*
X259926Y339688D01*
X260083Y340874D01*
X259926Y342060D01*
X259469Y343165D01*
X258740Y344114D01*
X257791Y344843D01*
X256686Y345300D01*
X255500Y345457D01*
D02*
G37*
G36*
X245500D02*
X244314Y345300D01*
X243209Y344843D01*
X242260Y344114D01*
X241531Y343165D01*
X241074Y342060D01*
X240917Y340874D01*
X241074Y339688D01*
X241531Y338583D01*
X242260Y337634D01*
X243209Y336905D01*
X244314Y336448D01*
X245500Y336292D01*
X246686Y336448D01*
X247791Y336905D01*
X248740Y337634D01*
X249469Y338583D01*
X249926Y339688D01*
X250082Y340874D01*
X249926Y342060D01*
X249469Y343165D01*
X248740Y344114D01*
X247791Y344843D01*
X246686Y345300D01*
X245500Y345457D01*
D02*
G37*
G36*
X235500D02*
X234314Y345300D01*
X233209Y344843D01*
X232260Y344114D01*
X231531Y343165D01*
X231074Y342060D01*
X230918Y340874D01*
X231074Y339688D01*
X231531Y338583D01*
X232260Y337634D01*
X233209Y336905D01*
X234314Y336448D01*
X235500Y336292D01*
X236686Y336448D01*
X237791Y336905D01*
X238740Y337634D01*
X239469Y338583D01*
X239926Y339688D01*
X240083Y340874D01*
X239926Y342060D01*
X239469Y343165D01*
X238740Y344114D01*
X237791Y344843D01*
X236686Y345300D01*
X235500Y345457D01*
D02*
G37*
G36*
X386000Y335391D02*
Y331374D01*
X390017D01*
X389926Y332060D01*
X389469Y333165D01*
X388740Y334114D01*
X387791Y334842D01*
X386686Y335300D01*
X386000Y335391D01*
D02*
G37*
G36*
X376000D02*
Y331374D01*
X380017D01*
X379926Y332060D01*
X379469Y333165D01*
X378740Y334114D01*
X377791Y334842D01*
X376686Y335300D01*
X376000Y335391D01*
D02*
G37*
G36*
X366000D02*
Y331374D01*
X370017D01*
X369926Y332060D01*
X369469Y333165D01*
X368740Y334114D01*
X367791Y334842D01*
X366686Y335300D01*
X366000Y335391D01*
D02*
G37*
G36*
X356000D02*
Y331374D01*
X360017D01*
X359926Y332060D01*
X359469Y333165D01*
X358740Y334114D01*
X357791Y334842D01*
X356686Y335300D01*
X356000Y335391D01*
D02*
G37*
G36*
X346000D02*
Y331374D01*
X350017D01*
X349926Y332060D01*
X349469Y333165D01*
X348740Y334114D01*
X347791Y334842D01*
X346686Y335300D01*
X346000Y335391D01*
D02*
G37*
G36*
X336000D02*
Y331374D01*
X340017D01*
X339926Y332060D01*
X339469Y333165D01*
X338740Y334114D01*
X337791Y334842D01*
X336686Y335300D01*
X336000Y335391D01*
D02*
G37*
G36*
X326000D02*
Y331374D01*
X330017D01*
X329926Y332060D01*
X329469Y333165D01*
X328740Y334114D01*
X327791Y334842D01*
X326686Y335300D01*
X326000Y335391D01*
D02*
G37*
G36*
X316000D02*
Y331374D01*
X320017D01*
X319926Y332060D01*
X319469Y333165D01*
X318740Y334114D01*
X317791Y334842D01*
X316686Y335300D01*
X316000Y335391D01*
D02*
G37*
G36*
X306000D02*
Y331374D01*
X310017D01*
X309926Y332060D01*
X309469Y333165D01*
X308740Y334114D01*
X307791Y334842D01*
X306686Y335300D01*
X306000Y335391D01*
D02*
G37*
G36*
X296000D02*
Y331374D01*
X300017D01*
X299926Y332060D01*
X299469Y333165D01*
X298740Y334114D01*
X297791Y334842D01*
X296686Y335300D01*
X296000Y335391D01*
D02*
G37*
G36*
X286000D02*
Y331374D01*
X290017D01*
X289926Y332060D01*
X289469Y333165D01*
X288740Y334114D01*
X287791Y334842D01*
X286686Y335300D01*
X286000Y335391D01*
D02*
G37*
G36*
X276000D02*
Y331374D01*
X280017D01*
X279926Y332060D01*
X279469Y333165D01*
X278740Y334114D01*
X277791Y334842D01*
X276686Y335300D01*
X276000Y335391D01*
D02*
G37*
G36*
X266000D02*
Y331374D01*
X270017D01*
X269926Y332060D01*
X269469Y333165D01*
X268740Y334114D01*
X267791Y334842D01*
X266686Y335300D01*
X266000Y335391D01*
D02*
G37*
G36*
X256000D02*
Y331374D01*
X260017D01*
X259926Y332060D01*
X259469Y333165D01*
X258740Y334114D01*
X257791Y334842D01*
X256686Y335300D01*
X256000Y335391D01*
D02*
G37*
G36*
X246000D02*
Y331374D01*
X250017D01*
X249926Y332060D01*
X249469Y333165D01*
X248740Y334114D01*
X247791Y334842D01*
X246686Y335300D01*
X246000Y335391D01*
D02*
G37*
G36*
X236000D02*
Y331374D01*
X240017D01*
X239926Y332060D01*
X239469Y333165D01*
X238740Y334114D01*
X237791Y334842D01*
X236686Y335300D01*
X236000Y335391D01*
D02*
G37*
G36*
X226000D02*
Y331374D01*
X230017D01*
X229926Y332060D01*
X229469Y333165D01*
X228740Y334114D01*
X227791Y334842D01*
X226686Y335300D01*
X226000Y335391D01*
D02*
G37*
G36*
X385000D02*
X384314Y335300D01*
X383209Y334842D01*
X382260Y334114D01*
X381531Y333165D01*
X381074Y332060D01*
X380983Y331374D01*
X385000D01*
Y335391D01*
D02*
G37*
G36*
X375000D02*
X374314Y335300D01*
X373209Y334842D01*
X372260Y334114D01*
X371531Y333165D01*
X371074Y332060D01*
X370983Y331374D01*
X375000D01*
Y335391D01*
D02*
G37*
G36*
X365000D02*
X364314Y335300D01*
X363209Y334842D01*
X362260Y334114D01*
X361531Y333165D01*
X361074Y332060D01*
X360983Y331374D01*
X365000D01*
Y335391D01*
D02*
G37*
G36*
X355000D02*
X354314Y335300D01*
X353209Y334842D01*
X352260Y334114D01*
X351531Y333165D01*
X351074Y332060D01*
X350983Y331374D01*
X355000D01*
Y335391D01*
D02*
G37*
G36*
X345000D02*
X344314Y335300D01*
X343209Y334842D01*
X342260Y334114D01*
X341531Y333165D01*
X341074Y332060D01*
X340983Y331374D01*
X345000D01*
Y335391D01*
D02*
G37*
G36*
X335000D02*
X334314Y335300D01*
X333209Y334842D01*
X332260Y334114D01*
X331531Y333165D01*
X331074Y332060D01*
X330983Y331374D01*
X335000D01*
Y335391D01*
D02*
G37*
G36*
X325000D02*
X324314Y335300D01*
X323209Y334842D01*
X322260Y334114D01*
X321531Y333165D01*
X321074Y332060D01*
X320983Y331374D01*
X325000D01*
Y335391D01*
D02*
G37*
G36*
X315000D02*
X314314Y335300D01*
X313209Y334842D01*
X312260Y334114D01*
X311531Y333165D01*
X311074Y332060D01*
X310983Y331374D01*
X315000D01*
Y335391D01*
D02*
G37*
G36*
X305000D02*
X304314Y335300D01*
X303209Y334842D01*
X302260Y334114D01*
X301531Y333165D01*
X301074Y332060D01*
X300983Y331374D01*
X305000D01*
Y335391D01*
D02*
G37*
G36*
X295000D02*
X294314Y335300D01*
X293209Y334842D01*
X292260Y334114D01*
X291531Y333165D01*
X291074Y332060D01*
X290983Y331374D01*
X295000D01*
Y335391D01*
D02*
G37*
G36*
X285000D02*
X284314Y335300D01*
X283209Y334842D01*
X282260Y334114D01*
X281531Y333165D01*
X281074Y332060D01*
X280983Y331374D01*
X285000D01*
Y335391D01*
D02*
G37*
G36*
X275000D02*
X274314Y335300D01*
X273209Y334842D01*
X272260Y334114D01*
X271531Y333165D01*
X271074Y332060D01*
X270983Y331374D01*
X275000D01*
Y335391D01*
D02*
G37*
G36*
X265000D02*
X264314Y335300D01*
X263209Y334842D01*
X262260Y334114D01*
X261531Y333165D01*
X261074Y332060D01*
X260983Y331374D01*
X265000D01*
Y335391D01*
D02*
G37*
G36*
X255000D02*
X254314Y335300D01*
X253209Y334842D01*
X252260Y334114D01*
X251531Y333165D01*
X251074Y332060D01*
X250983Y331374D01*
X255000D01*
Y335391D01*
D02*
G37*
G36*
X245000D02*
X244314Y335300D01*
X243209Y334842D01*
X242260Y334114D01*
X241531Y333165D01*
X241074Y332060D01*
X240983Y331374D01*
X245000D01*
Y335391D01*
D02*
G37*
G36*
X235000D02*
X234314Y335300D01*
X233209Y334842D01*
X232260Y334114D01*
X231531Y333165D01*
X231074Y332060D01*
X230983Y331374D01*
X235000D01*
Y335391D01*
D02*
G37*
G36*
X390017Y330374D02*
X386000D01*
Y326357D01*
X386686Y326448D01*
X387791Y326905D01*
X388740Y327634D01*
X389469Y328583D01*
X389926Y329688D01*
X390017Y330374D01*
D02*
G37*
G36*
X380017D02*
X376000D01*
Y326357D01*
X376686Y326448D01*
X377791Y326905D01*
X378740Y327634D01*
X379469Y328583D01*
X379926Y329688D01*
X380017Y330374D01*
D02*
G37*
G36*
X370017D02*
X366000D01*
Y326357D01*
X366686Y326448D01*
X367791Y326905D01*
X368740Y327634D01*
X369469Y328583D01*
X369926Y329688D01*
X370017Y330374D01*
D02*
G37*
G36*
X360017D02*
X356000D01*
Y326357D01*
X356686Y326448D01*
X357791Y326905D01*
X358740Y327634D01*
X359469Y328583D01*
X359926Y329688D01*
X360017Y330374D01*
D02*
G37*
G36*
X350017D02*
X346000D01*
Y326357D01*
X346686Y326448D01*
X347791Y326905D01*
X348740Y327634D01*
X349469Y328583D01*
X349926Y329688D01*
X350017Y330374D01*
D02*
G37*
G36*
X340017D02*
X336000D01*
Y326357D01*
X336686Y326448D01*
X337791Y326905D01*
X338740Y327634D01*
X339469Y328583D01*
X339926Y329688D01*
X340017Y330374D01*
D02*
G37*
G36*
X330017D02*
X326000D01*
Y326357D01*
X326686Y326448D01*
X327791Y326905D01*
X328740Y327634D01*
X329469Y328583D01*
X329926Y329688D01*
X330017Y330374D01*
D02*
G37*
G36*
X320017D02*
X316000D01*
Y326357D01*
X316686Y326448D01*
X317791Y326905D01*
X318740Y327634D01*
X319469Y328583D01*
X319926Y329688D01*
X320017Y330374D01*
D02*
G37*
G36*
X310017D02*
X306000D01*
Y326357D01*
X306686Y326448D01*
X307791Y326905D01*
X308740Y327634D01*
X309469Y328583D01*
X309926Y329688D01*
X310017Y330374D01*
D02*
G37*
G36*
X300017D02*
X296000D01*
Y326357D01*
X296686Y326448D01*
X297791Y326905D01*
X298740Y327634D01*
X299469Y328583D01*
X299926Y329688D01*
X300017Y330374D01*
D02*
G37*
G36*
X290017D02*
X286000D01*
Y326357D01*
X286686Y326448D01*
X287791Y326905D01*
X288740Y327634D01*
X289469Y328583D01*
X289926Y329688D01*
X290017Y330374D01*
D02*
G37*
G36*
X280017D02*
X276000D01*
Y326357D01*
X276686Y326448D01*
X277791Y326905D01*
X278740Y327634D01*
X279469Y328583D01*
X279926Y329688D01*
X280017Y330374D01*
D02*
G37*
G36*
X270017D02*
X266000D01*
Y326357D01*
X266686Y326448D01*
X267791Y326905D01*
X268740Y327634D01*
X269469Y328583D01*
X269926Y329688D01*
X270017Y330374D01*
D02*
G37*
G36*
X260017D02*
X256000D01*
Y326357D01*
X256686Y326448D01*
X257791Y326905D01*
X258740Y327634D01*
X259469Y328583D01*
X259926Y329688D01*
X260017Y330374D01*
D02*
G37*
G36*
X250017D02*
X246000D01*
Y326357D01*
X246686Y326448D01*
X247791Y326905D01*
X248740Y327634D01*
X249469Y328583D01*
X249926Y329688D01*
X250017Y330374D01*
D02*
G37*
G36*
X240017D02*
X236000D01*
Y326357D01*
X236686Y326448D01*
X237791Y326905D01*
X238740Y327634D01*
X239469Y328583D01*
X239926Y329688D01*
X240017Y330374D01*
D02*
G37*
G36*
X230017D02*
X226000D01*
Y326357D01*
X226686Y326448D01*
X227791Y326905D01*
X228740Y327634D01*
X229469Y328583D01*
X229926Y329688D01*
X230017Y330374D01*
D02*
G37*
G36*
X385000D02*
X380983D01*
X381074Y329688D01*
X381531Y328583D01*
X382260Y327634D01*
X383209Y326905D01*
X384314Y326448D01*
X385000Y326357D01*
Y330374D01*
D02*
G37*
G36*
X375000D02*
X370983D01*
X371074Y329688D01*
X371531Y328583D01*
X372260Y327634D01*
X373209Y326905D01*
X374314Y326448D01*
X375000Y326357D01*
Y330374D01*
D02*
G37*
G36*
X365000D02*
X360983D01*
X361074Y329688D01*
X361531Y328583D01*
X362260Y327634D01*
X363209Y326905D01*
X364314Y326448D01*
X365000Y326357D01*
Y330374D01*
D02*
G37*
G36*
X355000D02*
X350983D01*
X351074Y329688D01*
X351531Y328583D01*
X352260Y327634D01*
X353209Y326905D01*
X354314Y326448D01*
X355000Y326357D01*
Y330374D01*
D02*
G37*
G36*
X345000D02*
X340983D01*
X341074Y329688D01*
X341531Y328583D01*
X342260Y327634D01*
X343209Y326905D01*
X344314Y326448D01*
X345000Y326357D01*
Y330374D01*
D02*
G37*
G36*
X335000D02*
X330983D01*
X331074Y329688D01*
X331531Y328583D01*
X332260Y327634D01*
X333209Y326905D01*
X334314Y326448D01*
X335000Y326357D01*
Y330374D01*
D02*
G37*
G36*
X325000D02*
X320983D01*
X321074Y329688D01*
X321531Y328583D01*
X322260Y327634D01*
X323209Y326905D01*
X324314Y326448D01*
X325000Y326357D01*
Y330374D01*
D02*
G37*
G36*
X315000D02*
X310983D01*
X311074Y329688D01*
X311531Y328583D01*
X312260Y327634D01*
X313209Y326905D01*
X314314Y326448D01*
X315000Y326357D01*
Y330374D01*
D02*
G37*
G36*
X305000D02*
X300983D01*
X301074Y329688D01*
X301531Y328583D01*
X302260Y327634D01*
X303209Y326905D01*
X304314Y326448D01*
X305000Y326357D01*
Y330374D01*
D02*
G37*
G36*
X295000D02*
X290983D01*
X291074Y329688D01*
X291531Y328583D01*
X292260Y327634D01*
X293209Y326905D01*
X294314Y326448D01*
X295000Y326357D01*
Y330374D01*
D02*
G37*
G36*
X285000D02*
X280983D01*
X281074Y329688D01*
X281531Y328583D01*
X282260Y327634D01*
X283209Y326905D01*
X284314Y326448D01*
X285000Y326357D01*
Y330374D01*
D02*
G37*
G36*
X275000D02*
X270983D01*
X271074Y329688D01*
X271531Y328583D01*
X272260Y327634D01*
X273209Y326905D01*
X274314Y326448D01*
X275000Y326357D01*
Y330374D01*
D02*
G37*
G36*
X265000D02*
X260983D01*
X261074Y329688D01*
X261531Y328583D01*
X262260Y327634D01*
X263209Y326905D01*
X264314Y326448D01*
X265000Y326357D01*
Y330374D01*
D02*
G37*
G36*
X255000D02*
X250983D01*
X251074Y329688D01*
X251531Y328583D01*
X252260Y327634D01*
X253209Y326905D01*
X254314Y326448D01*
X255000Y326357D01*
Y330374D01*
D02*
G37*
G36*
X245000D02*
X240983D01*
X241074Y329688D01*
X241531Y328583D01*
X242260Y327634D01*
X243209Y326905D01*
X244314Y326448D01*
X245000Y326357D01*
Y330374D01*
D02*
G37*
G36*
X235000D02*
X230983D01*
X231074Y329688D01*
X231531Y328583D01*
X232260Y327634D01*
X233209Y326905D01*
X234314Y326448D01*
X235000Y326357D01*
Y330374D01*
D02*
G37*
G36*
X567287Y307428D02*
X565741Y307276D01*
X564253Y306824D01*
X562883Y306092D01*
X561681Y305106D01*
X560696Y303905D01*
X560500Y303539D01*
X539269D01*
X538393Y304606D01*
X537192Y305592D01*
X535821Y306325D01*
X534334Y306776D01*
X532787Y306928D01*
X531241Y306776D01*
X529753Y306325D01*
X528383Y305592D01*
X527181Y304606D01*
X526306Y303539D01*
X504269D01*
X503393Y304606D01*
X502192Y305592D01*
X500821Y306325D01*
X499334Y306776D01*
X497787Y306928D01*
X496241Y306776D01*
X494753Y306325D01*
X493383Y305592D01*
X492181Y304606D01*
X491195Y303404D01*
X490463Y302034D01*
X490012Y300547D01*
X489859Y299000D01*
X490012Y297453D01*
X490463Y295966D01*
X491195Y294596D01*
X492181Y293394D01*
X493383Y292408D01*
X494753Y291675D01*
X496241Y291224D01*
X497787Y291072D01*
X499334Y291224D01*
X500821Y291675D01*
X502192Y292408D01*
X503393Y293394D01*
X504269Y294461D01*
X526306D01*
X527181Y293394D01*
X528383Y292408D01*
X529753Y291675D01*
X531241Y291224D01*
X532787Y291072D01*
X534334Y291224D01*
X535821Y291675D01*
X537192Y292408D01*
X538393Y293394D01*
X539269Y294461D01*
X561216D01*
X561681Y293894D01*
X562883Y292908D01*
X564253Y292176D01*
X565741Y291724D01*
X567287Y291572D01*
X568834Y291724D01*
X570321Y292176D01*
X571692Y292908D01*
X572893Y293894D01*
X573879Y295095D01*
X574612Y296466D01*
X575063Y297953D01*
X575215Y299500D01*
X575063Y301047D01*
X574612Y302534D01*
X573879Y303905D01*
X572893Y305106D01*
X571692Y306092D01*
X570321Y306824D01*
X568834Y307276D01*
X567287Y307428D01*
D02*
G37*
G36*
X465374Y303464D02*
X464445Y303342D01*
X463579Y302983D01*
X462836Y302412D01*
X462265Y301669D01*
X461907Y300803D01*
X461784Y299874D01*
X461907Y298945D01*
X462265Y298079D01*
X462836Y297336D01*
X463579Y296765D01*
X464445Y296407D01*
X465374Y296284D01*
X466303Y296407D01*
X467169Y296765D01*
X467912Y297336D01*
X468483Y298079D01*
X468842Y298945D01*
X468964Y299874D01*
X468842Y300803D01*
X468483Y301669D01*
X467912Y302412D01*
X467169Y302983D01*
X466303Y303342D01*
X465374Y303464D01*
D02*
G37*
G36*
X465874Y295524D02*
Y292500D01*
X468898D01*
X468842Y292929D01*
X468483Y293795D01*
X467912Y294538D01*
X467169Y295109D01*
X466303Y295467D01*
X465874Y295524D01*
D02*
G37*
G36*
X464874D02*
X464445Y295467D01*
X463579Y295109D01*
X462836Y294538D01*
X462265Y293795D01*
X461907Y292929D01*
X461850Y292500D01*
X464874D01*
Y295524D01*
D02*
G37*
G36*
X424720Y304895D02*
X412720D01*
X411745Y304701D01*
X410918Y304149D01*
X410072Y303302D01*
X409519Y302476D01*
X409325Y301500D01*
Y277000D01*
X409519Y276025D01*
X410072Y275198D01*
X413572Y271698D01*
X414399Y271145D01*
X415374Y270951D01*
X447818D01*
X449325Y269444D01*
Y268511D01*
X449055Y268303D01*
X448421Y267478D01*
X448023Y266516D01*
X447887Y265484D01*
X448023Y264452D01*
X448421Y263491D01*
X449055Y262665D01*
X449881Y262032D01*
X450842Y261633D01*
X451874Y261497D01*
X452906Y261633D01*
X453867Y262032D01*
X454693Y262665D01*
X455327Y263491D01*
X455725Y264452D01*
X455861Y265484D01*
X455725Y266516D01*
X455327Y267478D01*
X454693Y268303D01*
X454423Y268511D01*
Y270500D01*
X454229Y271476D01*
X453676Y272302D01*
X450676Y275302D01*
X449850Y275855D01*
X448874Y276049D01*
X416430D01*
X414423Y278056D01*
Y283780D01*
X414470Y283796D01*
X414774Y283400D01*
X415682Y282703D01*
X416739Y282265D01*
X417374Y282182D01*
Y286500D01*
Y290818D01*
X416739Y290735D01*
X415682Y290297D01*
X414774Y289600D01*
X414470Y289204D01*
X414423Y289220D01*
Y293780D01*
X414470Y293796D01*
X414774Y293400D01*
X415682Y292703D01*
X416739Y292265D01*
X417874Y292116D01*
X419009Y292265D01*
X420066Y292703D01*
X420974Y293400D01*
X421671Y294308D01*
X422109Y295365D01*
X422258Y296500D01*
X422109Y297635D01*
X421671Y298692D01*
X420974Y299600D01*
X420778Y299750D01*
X420794Y299798D01*
X423665D01*
X424378Y299084D01*
X424077Y298692D01*
X423639Y297635D01*
X423490Y296500D01*
X423639Y295365D01*
X424077Y294308D01*
X424774Y293400D01*
X425682Y292703D01*
X426739Y292265D01*
X427874Y292116D01*
X429009Y292265D01*
X430066Y292703D01*
X430974Y293400D01*
X431671Y294308D01*
X432109Y295365D01*
X432258Y296500D01*
X432109Y297635D01*
X431671Y298692D01*
X430974Y299600D01*
X430225Y300175D01*
X429676Y300995D01*
X426523Y304149D01*
X425696Y304701D01*
X424720Y304895D01*
D02*
G37*
G36*
X468898Y291500D02*
X465874D01*
Y288476D01*
X466303Y288533D01*
X467169Y288891D01*
X467912Y289462D01*
X468483Y290205D01*
X468842Y291071D01*
X468898Y291500D01*
D02*
G37*
G36*
X464874D02*
X461850D01*
X461907Y291071D01*
X462265Y290205D01*
X462836Y289462D01*
X463579Y288891D01*
X464445Y288533D01*
X464874Y288476D01*
Y291500D01*
D02*
G37*
G36*
X418374Y290818D02*
Y287000D01*
X422192D01*
X422109Y287635D01*
X421671Y288692D01*
X420974Y289600D01*
X420066Y290297D01*
X419009Y290735D01*
X418374Y290818D01*
D02*
G37*
G36*
X422192Y286000D02*
X418374D01*
Y282182D01*
X419009Y282265D01*
X420066Y282703D01*
X420974Y283400D01*
X421671Y284308D01*
X422109Y285365D01*
X422192Y286000D01*
D02*
G37*
G36*
X437874Y290884D02*
X436739Y290735D01*
X435682Y290297D01*
X434774Y289600D01*
X434077Y288692D01*
X433639Y287635D01*
X433490Y286500D01*
X433639Y285365D01*
X434077Y284308D01*
X434774Y283400D01*
X435682Y282703D01*
X436739Y282265D01*
X437874Y282116D01*
X439009Y282265D01*
X440066Y282703D01*
X440974Y283400D01*
X441671Y284308D01*
X442109Y285365D01*
X442258Y286500D01*
X442109Y287635D01*
X441671Y288692D01*
X440974Y289600D01*
X440066Y290297D01*
X439009Y290735D01*
X437874Y290884D01*
D02*
G37*
G36*
X427874D02*
X426739Y290735D01*
X425682Y290297D01*
X424774Y289600D01*
X424077Y288692D01*
X423639Y287635D01*
X423490Y286500D01*
X423639Y285365D01*
X424077Y284308D01*
X424774Y283400D01*
X425682Y282703D01*
X426739Y282265D01*
X427874Y282116D01*
X429009Y282265D01*
X430066Y282703D01*
X430974Y283400D01*
X431671Y284308D01*
X432109Y285365D01*
X432258Y286500D01*
X432109Y287635D01*
X431671Y288692D01*
X430974Y289600D01*
X430066Y290297D01*
X429009Y290735D01*
X427874Y290884D01*
D02*
G37*
G36*
X567787Y287379D02*
Y280000D01*
X575166D01*
X575063Y281047D01*
X574612Y282534D01*
X573879Y283905D01*
X572893Y285106D01*
X571692Y286092D01*
X570321Y286824D01*
X568834Y287276D01*
X567787Y287379D01*
D02*
G37*
G36*
X566787Y287379D02*
X565741Y287276D01*
X564253Y286824D01*
X562883Y286092D01*
X561681Y285106D01*
X560696Y283905D01*
X559963Y282534D01*
X559512Y281047D01*
X559409Y280000D01*
X566787D01*
Y287379D01*
D02*
G37*
G36*
X533287Y286879D02*
Y279500D01*
X540666D01*
X540563Y280547D01*
X540112Y282034D01*
X539379Y283404D01*
X538393Y284606D01*
X537192Y285592D01*
X535821Y286325D01*
X534334Y286776D01*
X533287Y286879D01*
D02*
G37*
G36*
X498287D02*
Y279500D01*
X505666D01*
X505563Y280547D01*
X505112Y282034D01*
X504379Y283404D01*
X503393Y284606D01*
X502192Y285592D01*
X500821Y286325D01*
X499334Y286776D01*
X498287Y286879D01*
D02*
G37*
G36*
X532287Y286879D02*
X531241Y286776D01*
X529753Y286325D01*
X528383Y285592D01*
X527181Y284606D01*
X526195Y283404D01*
X525463Y282034D01*
X525012Y280547D01*
X524909Y279500D01*
X532287D01*
Y286879D01*
D02*
G37*
G36*
X497287D02*
X496241Y286776D01*
X494753Y286325D01*
X493383Y285592D01*
X492181Y284606D01*
X491195Y283404D01*
X490463Y282034D01*
X490012Y280547D01*
X489909Y279500D01*
X497287D01*
Y286879D01*
D02*
G37*
G36*
X566787Y279000D02*
X559409D01*
X559512Y277953D01*
X559963Y276466D01*
X560696Y275096D01*
X561681Y273894D01*
X562883Y272908D01*
X564253Y272176D01*
X565741Y271724D01*
X566787Y271621D01*
Y279000D01*
D02*
G37*
G36*
X575166D02*
X567787D01*
Y271621D01*
X568834Y271724D01*
X570321Y272176D01*
X571692Y272908D01*
X572893Y273894D01*
X573879Y275096D01*
X574612Y276466D01*
X575063Y277953D01*
X575166Y279000D01*
D02*
G37*
G36*
X532287Y278500D02*
X524909D01*
X525012Y277453D01*
X525463Y275966D01*
X526195Y274595D01*
X527181Y273394D01*
X528383Y272408D01*
X529753Y271675D01*
X531241Y271224D01*
X532287Y271121D01*
Y278500D01*
D02*
G37*
G36*
X497287D02*
X489909D01*
X490012Y277453D01*
X490463Y275966D01*
X491195Y274595D01*
X492181Y273394D01*
X493383Y272408D01*
X494753Y271675D01*
X496241Y271224D01*
X497287Y271121D01*
Y278500D01*
D02*
G37*
G36*
X540666D02*
X533287D01*
Y271121D01*
X534334Y271224D01*
X535821Y271675D01*
X537192Y272408D01*
X538393Y273394D01*
X539379Y274595D01*
X540112Y275966D01*
X540563Y277453D01*
X540666Y278500D01*
D02*
G37*
G36*
X505666D02*
X498287D01*
Y271121D01*
X499334Y271224D01*
X500821Y271675D01*
X502192Y272408D01*
X503393Y273394D01*
X504379Y274595D01*
X505112Y275966D01*
X505563Y277453D01*
X505666Y278500D01*
D02*
G37*
G36*
X471874Y269471D02*
X470842Y269335D01*
X469881Y268937D01*
X469055Y268303D01*
X468421Y267478D01*
X468023Y266516D01*
X467887Y265484D01*
X468023Y264452D01*
X468421Y263491D01*
X469055Y262665D01*
X469881Y262032D01*
X470842Y261633D01*
X471874Y261497D01*
X472906Y261633D01*
X473868Y262032D01*
X474693Y262665D01*
X475327Y263491D01*
X475725Y264452D01*
X475861Y265484D01*
X475725Y266516D01*
X475327Y267478D01*
X474693Y268303D01*
X473868Y268937D01*
X472906Y269335D01*
X471874Y269471D01*
D02*
G37*
G36*
X441874D02*
X440842Y269335D01*
X439881Y268937D01*
X439055Y268303D01*
X438421Y267478D01*
X438023Y266516D01*
X437887Y265484D01*
X438023Y264452D01*
X438421Y263491D01*
X439055Y262665D01*
X439881Y262032D01*
X440842Y261633D01*
X441874Y261497D01*
X442906Y261633D01*
X443867Y262032D01*
X444693Y262665D01*
X445327Y263491D01*
X445725Y264452D01*
X445861Y265484D01*
X445725Y266516D01*
X445327Y267478D01*
X444693Y268303D01*
X443867Y268937D01*
X442906Y269335D01*
X441874Y269471D01*
D02*
G37*
G36*
X567787Y267379D02*
Y260000D01*
X575166D01*
X575063Y261047D01*
X574612Y262534D01*
X573879Y263905D01*
X572893Y265106D01*
X571692Y266092D01*
X570321Y266825D01*
X568834Y267276D01*
X567787Y267379D01*
D02*
G37*
G36*
X566787Y267379D02*
X565741Y267276D01*
X564253Y266825D01*
X562883Y266092D01*
X561681Y265106D01*
X560696Y263905D01*
X559963Y262534D01*
X559512Y261047D01*
X559409Y260000D01*
X566787D01*
Y267379D01*
D02*
G37*
G36*
X533287Y266879D02*
Y259500D01*
X540666D01*
X540563Y260547D01*
X540112Y262034D01*
X539379Y263404D01*
X538393Y264606D01*
X537192Y265592D01*
X535821Y266324D01*
X534334Y266776D01*
X533287Y266879D01*
D02*
G37*
G36*
X498287D02*
Y259500D01*
X505666D01*
X505563Y260547D01*
X505112Y262034D01*
X504379Y263404D01*
X503393Y264606D01*
X502192Y265592D01*
X500821Y266324D01*
X499334Y266776D01*
X498287Y266879D01*
D02*
G37*
G36*
X532287Y266879D02*
X531241Y266776D01*
X529753Y266324D01*
X528383Y265592D01*
X527181Y264606D01*
X526195Y263404D01*
X525463Y262034D01*
X525012Y260547D01*
X524909Y259500D01*
X532287D01*
Y266879D01*
D02*
G37*
G36*
X497287D02*
X496241Y266776D01*
X494753Y266324D01*
X493383Y265592D01*
X492181Y264606D01*
X491195Y263404D01*
X490463Y262034D01*
X490012Y260547D01*
X489909Y259500D01*
X497287D01*
Y266879D01*
D02*
G37*
G36*
X425374Y264275D02*
X424445Y264153D01*
X423579Y263794D01*
X422836Y263223D01*
X422265Y262480D01*
X421907Y261614D01*
X421784Y260685D01*
X421907Y259756D01*
X422265Y258890D01*
X422836Y258147D01*
X423579Y257576D01*
X424445Y257218D01*
X425374Y257095D01*
X426303Y257218D01*
X427169Y257576D01*
X427912Y258147D01*
X428483Y258890D01*
X428841Y259756D01*
X428964Y260685D01*
X428841Y261614D01*
X428483Y262480D01*
X427912Y263223D01*
X427169Y263794D01*
X426303Y264153D01*
X425374Y264275D01*
D02*
G37*
G36*
X566787Y259000D02*
X559409D01*
X559512Y257953D01*
X559963Y256466D01*
X560696Y255096D01*
X561681Y253894D01*
X562883Y252908D01*
X564253Y252175D01*
X565741Y251724D01*
X566787Y251621D01*
Y259000D01*
D02*
G37*
G36*
X575166D02*
X567787D01*
Y251621D01*
X568834Y251724D01*
X570321Y252175D01*
X571692Y252908D01*
X572893Y253894D01*
X573879Y255096D01*
X574612Y256466D01*
X575063Y257953D01*
X575166Y259000D01*
D02*
G37*
G36*
X532287Y258500D02*
X524909D01*
X525012Y257453D01*
X525463Y255966D01*
X526195Y254595D01*
X527181Y253394D01*
X528383Y252408D01*
X529753Y251676D01*
X531241Y251224D01*
X532287Y251121D01*
Y258500D01*
D02*
G37*
G36*
X497287D02*
X489909D01*
X490012Y257453D01*
X490463Y255966D01*
X491195Y254595D01*
X492181Y253394D01*
X493383Y252408D01*
X494753Y251676D01*
X496241Y251224D01*
X497287Y251121D01*
Y258500D01*
D02*
G37*
G36*
X540666D02*
X533287D01*
Y251121D01*
X534334Y251224D01*
X535821Y251676D01*
X537192Y252408D01*
X538393Y253394D01*
X539379Y254595D01*
X540112Y255966D01*
X540563Y257453D01*
X540666Y258500D01*
D02*
G37*
G36*
X505666D02*
X498287D01*
Y251121D01*
X499334Y251224D01*
X500821Y251676D01*
X502192Y252408D01*
X503393Y253394D01*
X504379Y254595D01*
X505112Y255966D01*
X505563Y257453D01*
X505666Y258500D01*
D02*
G37*
G36*
X575177Y247390D02*
X559398D01*
Y243539D01*
X540677D01*
Y246890D01*
X524898D01*
Y243539D01*
X505677D01*
Y246890D01*
X489898D01*
Y231110D01*
X505677D01*
Y234461D01*
X524898D01*
Y231110D01*
X540677D01*
Y234461D01*
X559398D01*
Y231610D01*
X575177D01*
Y247390D01*
D02*
G37*
G36*
X425874Y244524D02*
Y241500D01*
X428898D01*
X428841Y241929D01*
X428483Y242795D01*
X427912Y243538D01*
X427169Y244109D01*
X426303Y244467D01*
X425874Y244524D01*
D02*
G37*
G36*
X424874D02*
X424445Y244467D01*
X423579Y244109D01*
X422836Y243538D01*
X422265Y242795D01*
X421907Y241929D01*
X421850Y241500D01*
X424874D01*
Y244524D01*
D02*
G37*
G36*
X452374Y238549D02*
X451987Y238472D01*
X451874Y238487D01*
X450842Y238351D01*
X449881Y237953D01*
X449055Y237319D01*
X448421Y236493D01*
X448023Y235532D01*
X447887Y234500D01*
X448023Y233468D01*
X448421Y232507D01*
X449055Y231681D01*
X449825Y231090D01*
Y228000D01*
X450019Y227025D01*
X450572Y226198D01*
X458072Y218698D01*
X458899Y218145D01*
X459874Y217951D01*
X484818D01*
X486325Y216444D01*
Y206838D01*
X485906Y206291D01*
X485448Y205186D01*
X485291Y204000D01*
X485448Y202814D01*
X485906Y201709D01*
X486634Y200760D01*
X487583Y200031D01*
X488688Y199574D01*
X489874Y199417D01*
X491060Y199574D01*
X492165Y200031D01*
X493114Y200760D01*
X493843Y201709D01*
X494300Y202814D01*
X494456Y204000D01*
X494300Y205186D01*
X493843Y206291D01*
X493114Y207240D01*
X492165Y207968D01*
X491423Y208276D01*
Y217500D01*
X491229Y218476D01*
X490676Y219302D01*
X487676Y222302D01*
X486849Y222855D01*
X486617Y222901D01*
X486622Y222951D01*
X492818D01*
X496325Y219444D01*
Y206838D01*
X495905Y206291D01*
X495448Y205186D01*
X495292Y204000D01*
X495448Y202814D01*
X495905Y201709D01*
X496634Y200760D01*
X497583Y200031D01*
X498688Y199574D01*
X499874Y199417D01*
X501060Y199574D01*
X502165Y200031D01*
X503114Y200760D01*
X503843Y201709D01*
X504300Y202814D01*
X504457Y204000D01*
X504300Y205186D01*
X503843Y206291D01*
X503114Y207240D01*
X502189Y207950D01*
X502206Y208000D01*
X507542D01*
X507559Y207950D01*
X506634Y207240D01*
X505905Y206291D01*
X505448Y205186D01*
X505292Y204000D01*
X505448Y202814D01*
X505905Y201709D01*
X506634Y200760D01*
X507583Y200031D01*
X508688Y199574D01*
X509874Y199417D01*
X511060Y199574D01*
X512165Y200031D01*
X513114Y200760D01*
X513843Y201709D01*
X514300Y202814D01*
X514457Y204000D01*
X514300Y205186D01*
X513843Y206291D01*
X513114Y207240D01*
X512189Y207950D01*
X512206Y208000D01*
X517542D01*
X517559Y207950D01*
X516634Y207240D01*
X515906Y206291D01*
X515448Y205186D01*
X515292Y204000D01*
X515448Y202814D01*
X515906Y201709D01*
X516634Y200760D01*
X517583Y200031D01*
X518688Y199574D01*
X519874Y199417D01*
X521060Y199574D01*
X522165Y200031D01*
X523114Y200760D01*
X523843Y201709D01*
X524300Y202814D01*
X524457Y204000D01*
X524300Y205186D01*
X523843Y206291D01*
X523114Y207240D01*
X522189Y207950D01*
X522206Y208000D01*
X527542D01*
X527559Y207950D01*
X526634Y207240D01*
X525906Y206291D01*
X525448Y205186D01*
X525291Y204000D01*
X525448Y202814D01*
X525906Y201709D01*
X526634Y200760D01*
X527583Y200031D01*
X528688Y199574D01*
X529874Y199417D01*
X531060Y199574D01*
X532165Y200031D01*
X533114Y200760D01*
X533843Y201709D01*
X534300Y202814D01*
X534456Y204000D01*
X534300Y205186D01*
X533843Y206291D01*
X533114Y207240D01*
X532189Y207950D01*
X532206Y208000D01*
X537542D01*
X537559Y207950D01*
X536634Y207240D01*
X535906Y206291D01*
X535448Y205186D01*
X535291Y204000D01*
X535448Y202814D01*
X535906Y201709D01*
X536634Y200760D01*
X537583Y200031D01*
X538688Y199574D01*
X539874Y199417D01*
X541060Y199574D01*
X542165Y200031D01*
X543114Y200760D01*
X543843Y201709D01*
X544300Y202814D01*
X544456Y204000D01*
X544300Y205186D01*
X543843Y206291D01*
X543114Y207240D01*
X542189Y207950D01*
X542206Y208000D01*
X547542D01*
X547559Y207950D01*
X546634Y207240D01*
X545905Y206291D01*
X545448Y205186D01*
X545292Y204000D01*
X545448Y202814D01*
X545905Y201709D01*
X546634Y200760D01*
X547583Y200031D01*
X548688Y199574D01*
X549874Y199417D01*
X551060Y199574D01*
X552165Y200031D01*
X553114Y200760D01*
X553843Y201709D01*
X554300Y202814D01*
X554457Y204000D01*
X554300Y205186D01*
X553843Y206291D01*
X553114Y207240D01*
X552189Y207950D01*
X552206Y208000D01*
X557542D01*
X557559Y207950D01*
X556634Y207240D01*
X555905Y206291D01*
X555448Y205186D01*
X555292Y204000D01*
X555448Y202814D01*
X555905Y201709D01*
X556634Y200760D01*
X557583Y200031D01*
X558688Y199574D01*
X559874Y199417D01*
X561060Y199574D01*
X562165Y200031D01*
X563114Y200760D01*
X563843Y201709D01*
X564300Y202814D01*
X564457Y204000D01*
X564300Y205186D01*
X563843Y206291D01*
X563114Y207240D01*
X562189Y207950D01*
X562206Y208000D01*
X567542D01*
X567559Y207950D01*
X566634Y207240D01*
X565906Y206291D01*
X565448Y205186D01*
X565292Y204000D01*
X565448Y202814D01*
X565906Y201709D01*
X566634Y200760D01*
X567583Y200031D01*
X568688Y199574D01*
X569874Y199417D01*
X571060Y199574D01*
X572165Y200031D01*
X573114Y200760D01*
X573843Y201709D01*
X574300Y202814D01*
X574457Y204000D01*
X574300Y205186D01*
X573843Y206291D01*
X573114Y207240D01*
X572189Y207950D01*
X572206Y208000D01*
X573874D01*
Y221677D01*
X501094D01*
X500676Y222302D01*
X495676Y227302D01*
X494849Y227855D01*
X493874Y228049D01*
X470430D01*
X465516Y232963D01*
X465725Y233468D01*
X465861Y234500D01*
X465725Y235532D01*
X465327Y236493D01*
X464693Y237319D01*
X463868Y237953D01*
X462906Y238351D01*
X461874Y238487D01*
X460842Y238351D01*
X459881Y237953D01*
X459055Y237319D01*
X458421Y236493D01*
X458023Y235532D01*
X457887Y234500D01*
X458023Y233468D01*
X458421Y232507D01*
X459055Y231681D01*
X459881Y231047D01*
X460463Y230806D01*
X467572Y223698D01*
X468399Y223145D01*
X468631Y223099D01*
X468626Y223049D01*
X460930D01*
X454923Y229056D01*
Y231980D01*
X455327Y232507D01*
X455725Y233468D01*
X455861Y234500D01*
X455725Y235532D01*
X455327Y236493D01*
X454693Y237319D01*
X454295Y237624D01*
X454176Y237802D01*
X453349Y238355D01*
X452374Y238549D01*
D02*
G37*
G36*
X428898Y240500D02*
X425874D01*
Y237476D01*
X426303Y237533D01*
X427169Y237891D01*
X427912Y238462D01*
X428483Y239205D01*
X428841Y240071D01*
X428898Y240500D01*
D02*
G37*
G36*
X424874D02*
X421850D01*
X421907Y240071D01*
X422265Y239205D01*
X422836Y238462D01*
X423579Y237891D01*
X424445Y237533D01*
X424874Y237476D01*
Y240500D01*
D02*
G37*
G36*
X472374Y238421D02*
Y235000D01*
X475795D01*
X475725Y235532D01*
X475327Y236493D01*
X474693Y237319D01*
X473868Y237953D01*
X472906Y238351D01*
X472374Y238421D01*
D02*
G37*
G36*
X471374D02*
X470842Y238351D01*
X469881Y237953D01*
X469055Y237319D01*
X468421Y236493D01*
X468023Y235532D01*
X467953Y235000D01*
X471374D01*
Y238421D01*
D02*
G37*
G36*
X475795Y234000D02*
X472374D01*
Y230579D01*
X472906Y230649D01*
X473868Y231047D01*
X474693Y231681D01*
X475327Y232507D01*
X475725Y233468D01*
X475795Y234000D01*
D02*
G37*
G36*
X471374D02*
X467953D01*
X468023Y233468D01*
X468421Y232507D01*
X469055Y231681D01*
X469881Y231047D01*
X470842Y230649D01*
X471374Y230579D01*
Y234000D01*
D02*
G37*
G36*
X445827Y238453D02*
X437921D01*
Y230547D01*
X445827D01*
Y238453D01*
D02*
G37*
G36*
X479874Y208582D02*
X478688Y208426D01*
X477583Y207968D01*
X476634Y207240D01*
X475906Y206291D01*
X475448Y205186D01*
X475291Y204000D01*
X475448Y202814D01*
X475906Y201709D01*
X476634Y200760D01*
X477583Y200031D01*
X478688Y199574D01*
X479874Y199417D01*
X481060Y199574D01*
X482165Y200031D01*
X483114Y200760D01*
X483843Y201709D01*
X484300Y202814D01*
X484456Y204000D01*
X484300Y205186D01*
X483843Y206291D01*
X483114Y207240D01*
X482165Y207968D01*
X481060Y208426D01*
X479874Y208582D01*
D02*
G37*
G36*
X469874D02*
X468688Y208426D01*
X467583Y207968D01*
X466634Y207240D01*
X465906Y206291D01*
X465448Y205186D01*
X465292Y204000D01*
X465448Y202814D01*
X465906Y201709D01*
X466634Y200760D01*
X467583Y200031D01*
X468688Y199574D01*
X469874Y199417D01*
X471060Y199574D01*
X472165Y200031D01*
X473114Y200760D01*
X473843Y201709D01*
X474300Y202814D01*
X474457Y204000D01*
X474300Y205186D01*
X473843Y206291D01*
X473114Y207240D01*
X472165Y207968D01*
X471060Y208426D01*
X469874Y208582D01*
D02*
G37*
G36*
X442220Y300847D02*
X433528D01*
Y292154D01*
X442220D01*
Y293951D01*
X444318D01*
X459325Y278944D01*
Y268511D01*
X459055Y268303D01*
X458421Y267478D01*
X458023Y266516D01*
X457887Y265484D01*
X458023Y264452D01*
X458421Y263491D01*
X459055Y262665D01*
X459325Y262458D01*
Y257556D01*
X447818Y246049D01*
X438874D01*
X437899Y245855D01*
X437072Y245302D01*
X432572Y240802D01*
X432019Y239976D01*
X431825Y239000D01*
Y229500D01*
X432019Y228524D01*
X432572Y227698D01*
X435572Y224698D01*
X436399Y224145D01*
X437374Y223951D01*
X444818D01*
X456325Y212444D01*
Y206838D01*
X455905Y206291D01*
X455448Y205186D01*
X455292Y204000D01*
X455448Y202814D01*
X455905Y201709D01*
X456634Y200760D01*
X457583Y200031D01*
X458688Y199574D01*
X459874Y199417D01*
X461060Y199574D01*
X462165Y200031D01*
X463114Y200760D01*
X463843Y201709D01*
X464300Y202814D01*
X464457Y204000D01*
X464300Y205186D01*
X463843Y206291D01*
X463114Y207240D01*
X462165Y207968D01*
X461423Y208276D01*
Y213500D01*
X461229Y214475D01*
X460676Y215302D01*
X447676Y228302D01*
X446849Y228855D01*
X445874Y229049D01*
X438430D01*
X436923Y230556D01*
Y237944D01*
X439930Y240951D01*
X448874D01*
X449850Y241145D01*
X450676Y241698D01*
X463676Y254698D01*
X464229Y255524D01*
X464423Y256500D01*
Y262458D01*
X464693Y262665D01*
X465327Y263491D01*
X465725Y264452D01*
X465861Y265484D01*
X465725Y266516D01*
X465327Y267478D01*
X464693Y268303D01*
X464423Y268511D01*
Y280000D01*
X464229Y280976D01*
X463676Y281802D01*
X447176Y298302D01*
X446349Y298855D01*
X445374Y299049D01*
X442220D01*
Y300847D01*
D02*
G37*
G36*
X449874Y208582D02*
X448688Y208426D01*
X447583Y207968D01*
X446634Y207240D01*
X445905Y206291D01*
X445448Y205186D01*
X445292Y204000D01*
X445448Y202814D01*
X445905Y201709D01*
X446634Y200760D01*
X447583Y200031D01*
X448688Y199574D01*
X449874Y199417D01*
X451060Y199574D01*
X452165Y200031D01*
X453114Y200760D01*
X453843Y201709D01*
X454300Y202814D01*
X454457Y204000D01*
X454300Y205186D01*
X453843Y206291D01*
X453114Y207240D01*
X452165Y207968D01*
X451060Y208426D01*
X449874Y208582D01*
D02*
G37*
G36*
X439874D02*
X438688Y208426D01*
X437583Y207968D01*
X436634Y207240D01*
X435906Y206291D01*
X435448Y205186D01*
X435291Y204000D01*
X435448Y202814D01*
X435906Y201709D01*
X436634Y200760D01*
X437583Y200031D01*
X438688Y199574D01*
X439874Y199417D01*
X441060Y199574D01*
X442165Y200031D01*
X443114Y200760D01*
X443843Y201709D01*
X444300Y202814D01*
X444456Y204000D01*
X444300Y205186D01*
X443843Y206291D01*
X443114Y207240D01*
X442165Y207968D01*
X441060Y208426D01*
X439874Y208582D01*
D02*
G37*
G36*
X429874D02*
X428688Y208426D01*
X427583Y207968D01*
X426634Y207240D01*
X425906Y206291D01*
X425448Y205186D01*
X425291Y204000D01*
X425448Y202814D01*
X425906Y201709D01*
X426634Y200760D01*
X427583Y200031D01*
X428688Y199574D01*
X429874Y199417D01*
X431060Y199574D01*
X432165Y200031D01*
X433114Y200760D01*
X433843Y201709D01*
X434300Y202814D01*
X434456Y204000D01*
X434300Y205186D01*
X433843Y206291D01*
X433114Y207240D01*
X432165Y207968D01*
X431060Y208426D01*
X429874Y208582D01*
D02*
G37*
G36*
X419874D02*
X418688Y208426D01*
X417583Y207968D01*
X416634Y207240D01*
X415906Y206291D01*
X415448Y205186D01*
X415292Y204000D01*
X415448Y202814D01*
X415906Y201709D01*
X416634Y200760D01*
X417583Y200031D01*
X418688Y199574D01*
X419874Y199417D01*
X421060Y199574D01*
X422165Y200031D01*
X423114Y200760D01*
X423843Y201709D01*
X424300Y202814D01*
X424457Y204000D01*
X424300Y205186D01*
X423843Y206291D01*
X423114Y207240D01*
X422165Y207968D01*
X421060Y208426D01*
X419874Y208582D01*
D02*
G37*
G36*
X570374Y198517D02*
Y194500D01*
X574391D01*
X574300Y195186D01*
X573843Y196291D01*
X573114Y197240D01*
X572165Y197968D01*
X571060Y198426D01*
X570374Y198517D01*
D02*
G37*
G36*
X560374D02*
Y194500D01*
X564391D01*
X564300Y195186D01*
X563843Y196291D01*
X563114Y197240D01*
X562165Y197968D01*
X561060Y198426D01*
X560374Y198517D01*
D02*
G37*
G36*
X550374D02*
Y194500D01*
X554391D01*
X554300Y195186D01*
X553843Y196291D01*
X553114Y197240D01*
X552165Y197968D01*
X551060Y198426D01*
X550374Y198517D01*
D02*
G37*
G36*
X540374D02*
Y194500D01*
X544391D01*
X544300Y195186D01*
X543843Y196291D01*
X543114Y197240D01*
X542165Y197968D01*
X541060Y198426D01*
X540374Y198517D01*
D02*
G37*
G36*
X530374D02*
Y194500D01*
X534391D01*
X534300Y195186D01*
X533843Y196291D01*
X533114Y197240D01*
X532165Y197968D01*
X531060Y198426D01*
X530374Y198517D01*
D02*
G37*
G36*
X520374D02*
Y194500D01*
X524391D01*
X524300Y195186D01*
X523843Y196291D01*
X523114Y197240D01*
X522165Y197968D01*
X521060Y198426D01*
X520374Y198517D01*
D02*
G37*
G36*
X510374D02*
Y194500D01*
X514391D01*
X514300Y195186D01*
X513843Y196291D01*
X513114Y197240D01*
X512165Y197968D01*
X511060Y198426D01*
X510374Y198517D01*
D02*
G37*
G36*
X500374D02*
Y194500D01*
X504391D01*
X504300Y195186D01*
X503843Y196291D01*
X503114Y197240D01*
X502165Y197968D01*
X501060Y198426D01*
X500374Y198517D01*
D02*
G37*
G36*
X490374D02*
Y194500D01*
X494391D01*
X494300Y195186D01*
X493843Y196291D01*
X493114Y197240D01*
X492165Y197968D01*
X491060Y198426D01*
X490374Y198517D01*
D02*
G37*
G36*
X480374D02*
Y194500D01*
X484391D01*
X484300Y195186D01*
X483843Y196291D01*
X483114Y197240D01*
X482165Y197968D01*
X481060Y198426D01*
X480374Y198517D01*
D02*
G37*
G36*
X470374D02*
Y194500D01*
X474391D01*
X474300Y195186D01*
X473843Y196291D01*
X473114Y197240D01*
X472165Y197968D01*
X471060Y198426D01*
X470374Y198517D01*
D02*
G37*
G36*
X460374D02*
Y194500D01*
X464391D01*
X464300Y195186D01*
X463843Y196291D01*
X463114Y197240D01*
X462165Y197968D01*
X461060Y198426D01*
X460374Y198517D01*
D02*
G37*
G36*
X450374D02*
Y194500D01*
X454391D01*
X454300Y195186D01*
X453843Y196291D01*
X453114Y197240D01*
X452165Y197968D01*
X451060Y198426D01*
X450374Y198517D01*
D02*
G37*
G36*
X440374D02*
Y194500D01*
X444391D01*
X444300Y195186D01*
X443843Y196291D01*
X443114Y197240D01*
X442165Y197968D01*
X441060Y198426D01*
X440374Y198517D01*
D02*
G37*
G36*
X430374D02*
Y194500D01*
X434391D01*
X434300Y195186D01*
X433843Y196291D01*
X433114Y197240D01*
X432165Y197968D01*
X431060Y198426D01*
X430374Y198517D01*
D02*
G37*
G36*
X420374D02*
Y194500D01*
X424391D01*
X424300Y195186D01*
X423843Y196291D01*
X423114Y197240D01*
X422165Y197968D01*
X421060Y198426D01*
X420374Y198517D01*
D02*
G37*
G36*
X410374D02*
Y194500D01*
X414391D01*
X414300Y195186D01*
X413843Y196291D01*
X413114Y197240D01*
X412165Y197968D01*
X411060Y198426D01*
X410374Y198517D01*
D02*
G37*
G36*
X569374D02*
X568688Y198426D01*
X567583Y197968D01*
X566634Y197240D01*
X565906Y196291D01*
X565448Y195186D01*
X565357Y194500D01*
X569374D01*
Y198517D01*
D02*
G37*
G36*
X559374D02*
X558688Y198426D01*
X557583Y197968D01*
X556634Y197240D01*
X555905Y196291D01*
X555448Y195186D01*
X555357Y194500D01*
X559374D01*
Y198517D01*
D02*
G37*
G36*
X549374D02*
X548688Y198426D01*
X547583Y197968D01*
X546634Y197240D01*
X545905Y196291D01*
X545448Y195186D01*
X545357Y194500D01*
X549374D01*
Y198517D01*
D02*
G37*
G36*
X539374D02*
X538688Y198426D01*
X537583Y197968D01*
X536634Y197240D01*
X535906Y196291D01*
X535448Y195186D01*
X535357Y194500D01*
X539374D01*
Y198517D01*
D02*
G37*
G36*
X529374D02*
X528688Y198426D01*
X527583Y197968D01*
X526634Y197240D01*
X525906Y196291D01*
X525448Y195186D01*
X525357Y194500D01*
X529374D01*
Y198517D01*
D02*
G37*
G36*
X519374D02*
X518688Y198426D01*
X517583Y197968D01*
X516634Y197240D01*
X515906Y196291D01*
X515448Y195186D01*
X515357Y194500D01*
X519374D01*
Y198517D01*
D02*
G37*
G36*
X509374D02*
X508688Y198426D01*
X507583Y197968D01*
X506634Y197240D01*
X505905Y196291D01*
X505448Y195186D01*
X505357Y194500D01*
X509374D01*
Y198517D01*
D02*
G37*
G36*
X499374D02*
X498688Y198426D01*
X497583Y197968D01*
X496634Y197240D01*
X495905Y196291D01*
X495448Y195186D01*
X495357Y194500D01*
X499374D01*
Y198517D01*
D02*
G37*
G36*
X489374D02*
X488688Y198426D01*
X487583Y197968D01*
X486634Y197240D01*
X485906Y196291D01*
X485448Y195186D01*
X485357Y194500D01*
X489374D01*
Y198517D01*
D02*
G37*
G36*
X479374D02*
X478688Y198426D01*
X477583Y197968D01*
X476634Y197240D01*
X475906Y196291D01*
X475448Y195186D01*
X475357Y194500D01*
X479374D01*
Y198517D01*
D02*
G37*
G36*
X469374D02*
X468688Y198426D01*
X467583Y197968D01*
X466634Y197240D01*
X465906Y196291D01*
X465448Y195186D01*
X465357Y194500D01*
X469374D01*
Y198517D01*
D02*
G37*
G36*
X459374D02*
X458688Y198426D01*
X457583Y197968D01*
X456634Y197240D01*
X455905Y196291D01*
X455448Y195186D01*
X455357Y194500D01*
X459374D01*
Y198517D01*
D02*
G37*
G36*
X449374D02*
X448688Y198426D01*
X447583Y197968D01*
X446634Y197240D01*
X445905Y196291D01*
X445448Y195186D01*
X445357Y194500D01*
X449374D01*
Y198517D01*
D02*
G37*
G36*
X439374D02*
X438688Y198426D01*
X437583Y197968D01*
X436634Y197240D01*
X435906Y196291D01*
X435448Y195186D01*
X435357Y194500D01*
X439374D01*
Y198517D01*
D02*
G37*
G36*
X429374D02*
X428688Y198426D01*
X427583Y197968D01*
X426634Y197240D01*
X425906Y196291D01*
X425448Y195186D01*
X425357Y194500D01*
X429374D01*
Y198517D01*
D02*
G37*
G36*
X419374D02*
X418688Y198426D01*
X417583Y197968D01*
X416634Y197240D01*
X415906Y196291D01*
X415448Y195186D01*
X415357Y194500D01*
X419374D01*
Y198517D01*
D02*
G37*
G36*
X574391Y193500D02*
X570374D01*
Y189483D01*
X571060Y189574D01*
X572165Y190031D01*
X573114Y190760D01*
X573843Y191709D01*
X574300Y192814D01*
X574391Y193500D01*
D02*
G37*
G36*
X564391D02*
X560374D01*
Y189483D01*
X561060Y189574D01*
X562165Y190031D01*
X563114Y190760D01*
X563843Y191709D01*
X564300Y192814D01*
X564391Y193500D01*
D02*
G37*
G36*
X554391D02*
X550374D01*
Y189483D01*
X551060Y189574D01*
X552165Y190031D01*
X553114Y190760D01*
X553843Y191709D01*
X554300Y192814D01*
X554391Y193500D01*
D02*
G37*
G36*
X544391D02*
X540374D01*
Y189483D01*
X541060Y189574D01*
X542165Y190031D01*
X543114Y190760D01*
X543843Y191709D01*
X544300Y192814D01*
X544391Y193500D01*
D02*
G37*
G36*
X534391D02*
X530374D01*
Y189483D01*
X531060Y189574D01*
X532165Y190031D01*
X533114Y190760D01*
X533843Y191709D01*
X534300Y192814D01*
X534391Y193500D01*
D02*
G37*
G36*
X524391D02*
X520374D01*
Y189483D01*
X521060Y189574D01*
X522165Y190031D01*
X523114Y190760D01*
X523843Y191709D01*
X524300Y192814D01*
X524391Y193500D01*
D02*
G37*
G36*
X514391D02*
X510374D01*
Y189483D01*
X511060Y189574D01*
X512165Y190031D01*
X513114Y190760D01*
X513843Y191709D01*
X514300Y192814D01*
X514391Y193500D01*
D02*
G37*
G36*
X504391D02*
X500374D01*
Y189483D01*
X501060Y189574D01*
X502165Y190031D01*
X503114Y190760D01*
X503843Y191709D01*
X504300Y192814D01*
X504391Y193500D01*
D02*
G37*
G36*
X494391D02*
X490374D01*
Y189483D01*
X491060Y189574D01*
X492165Y190031D01*
X493114Y190760D01*
X493843Y191709D01*
X494300Y192814D01*
X494391Y193500D01*
D02*
G37*
G36*
X484391D02*
X480374D01*
Y189483D01*
X481060Y189574D01*
X482165Y190031D01*
X483114Y190760D01*
X483843Y191709D01*
X484300Y192814D01*
X484391Y193500D01*
D02*
G37*
G36*
X474391D02*
X470374D01*
Y189483D01*
X471060Y189574D01*
X472165Y190031D01*
X473114Y190760D01*
X473843Y191709D01*
X474300Y192814D01*
X474391Y193500D01*
D02*
G37*
G36*
X464391D02*
X460374D01*
Y189483D01*
X461060Y189574D01*
X462165Y190031D01*
X463114Y190760D01*
X463843Y191709D01*
X464300Y192814D01*
X464391Y193500D01*
D02*
G37*
G36*
X454391D02*
X450374D01*
Y189483D01*
X451060Y189574D01*
X452165Y190031D01*
X453114Y190760D01*
X453843Y191709D01*
X454300Y192814D01*
X454391Y193500D01*
D02*
G37*
G36*
X444391D02*
X440374D01*
Y189483D01*
X441060Y189574D01*
X442165Y190031D01*
X443114Y190760D01*
X443843Y191709D01*
X444300Y192814D01*
X444391Y193500D01*
D02*
G37*
G36*
X434391D02*
X430374D01*
Y189483D01*
X431060Y189574D01*
X432165Y190031D01*
X433114Y190760D01*
X433843Y191709D01*
X434300Y192814D01*
X434391Y193500D01*
D02*
G37*
G36*
X424391D02*
X420374D01*
Y189483D01*
X421060Y189574D01*
X422165Y190031D01*
X423114Y190760D01*
X423843Y191709D01*
X424300Y192814D01*
X424391Y193500D01*
D02*
G37*
G36*
X414391D02*
X410374D01*
Y189483D01*
X411060Y189574D01*
X412165Y190031D01*
X413114Y190760D01*
X413843Y191709D01*
X414300Y192814D01*
X414391Y193500D01*
D02*
G37*
G36*
X569374D02*
X565357D01*
X565448Y192814D01*
X565906Y191709D01*
X566634Y190760D01*
X567583Y190031D01*
X568688Y189574D01*
X569374Y189483D01*
Y193500D01*
D02*
G37*
G36*
X559374D02*
X555357D01*
X555448Y192814D01*
X555905Y191709D01*
X556634Y190760D01*
X557583Y190031D01*
X558688Y189574D01*
X559374Y189483D01*
Y193500D01*
D02*
G37*
G36*
X549374D02*
X545357D01*
X545448Y192814D01*
X545905Y191709D01*
X546634Y190760D01*
X547583Y190031D01*
X548688Y189574D01*
X549374Y189483D01*
Y193500D01*
D02*
G37*
G36*
X539374D02*
X535357D01*
X535448Y192814D01*
X535906Y191709D01*
X536634Y190760D01*
X537583Y190031D01*
X538688Y189574D01*
X539374Y189483D01*
Y193500D01*
D02*
G37*
G36*
X529374D02*
X525357D01*
X525448Y192814D01*
X525906Y191709D01*
X526634Y190760D01*
X527583Y190031D01*
X528688Y189574D01*
X529374Y189483D01*
Y193500D01*
D02*
G37*
G36*
X519374D02*
X515357D01*
X515448Y192814D01*
X515906Y191709D01*
X516634Y190760D01*
X517583Y190031D01*
X518688Y189574D01*
X519374Y189483D01*
Y193500D01*
D02*
G37*
G36*
X509374D02*
X505357D01*
X505448Y192814D01*
X505905Y191709D01*
X506634Y190760D01*
X507583Y190031D01*
X508688Y189574D01*
X509374Y189483D01*
Y193500D01*
D02*
G37*
G36*
X499374D02*
X495357D01*
X495448Y192814D01*
X495905Y191709D01*
X496634Y190760D01*
X497583Y190031D01*
X498688Y189574D01*
X499374Y189483D01*
Y193500D01*
D02*
G37*
G36*
X489374D02*
X485357D01*
X485448Y192814D01*
X485906Y191709D01*
X486634Y190760D01*
X487583Y190031D01*
X488688Y189574D01*
X489374Y189483D01*
Y193500D01*
D02*
G37*
G36*
X479374D02*
X475357D01*
X475448Y192814D01*
X475906Y191709D01*
X476634Y190760D01*
X477583Y190031D01*
X478688Y189574D01*
X479374Y189483D01*
Y193500D01*
D02*
G37*
G36*
X469374D02*
X465357D01*
X465448Y192814D01*
X465906Y191709D01*
X466634Y190760D01*
X467583Y190031D01*
X468688Y189574D01*
X469374Y189483D01*
Y193500D01*
D02*
G37*
G36*
X459374D02*
X455357D01*
X455448Y192814D01*
X455905Y191709D01*
X456634Y190760D01*
X457583Y190031D01*
X458688Y189574D01*
X459374Y189483D01*
Y193500D01*
D02*
G37*
G36*
X449374D02*
X445357D01*
X445448Y192814D01*
X445905Y191709D01*
X446634Y190760D01*
X447583Y190031D01*
X448688Y189574D01*
X449374Y189483D01*
Y193500D01*
D02*
G37*
G36*
X439374D02*
X435357D01*
X435448Y192814D01*
X435906Y191709D01*
X436634Y190760D01*
X437583Y190031D01*
X438688Y189574D01*
X439374Y189483D01*
Y193500D01*
D02*
G37*
G36*
X429374D02*
X425357D01*
X425448Y192814D01*
X425906Y191709D01*
X426634Y190760D01*
X427583Y190031D01*
X428688Y189574D01*
X429374Y189483D01*
Y193500D01*
D02*
G37*
G36*
X419374D02*
X415357D01*
X415448Y192814D01*
X415906Y191709D01*
X416634Y190760D01*
X417583Y190031D01*
X418688Y189574D01*
X419374Y189483D01*
Y193500D01*
D02*
G37*
G36*
X382913Y307428D02*
X381367Y307276D01*
X379879Y306824D01*
X378509Y306092D01*
X377307Y305106D01*
X376322Y303905D01*
X376126Y303539D01*
X354895D01*
X354019Y304606D01*
X352818Y305592D01*
X351447Y306325D01*
X349960Y306776D01*
X348413Y306928D01*
X346867Y306776D01*
X345379Y306325D01*
X344009Y305592D01*
X342807Y304606D01*
X341932Y303539D01*
X319895D01*
X319019Y304606D01*
X317818Y305592D01*
X316447Y306325D01*
X314960Y306776D01*
X313413Y306928D01*
X311867Y306776D01*
X310379Y306325D01*
X309009Y305592D01*
X307807Y304606D01*
X306821Y303404D01*
X306089Y302034D01*
X305638Y300547D01*
X305485Y299000D01*
X305638Y297453D01*
X306089Y295966D01*
X306821Y294596D01*
X307807Y293394D01*
X309009Y292408D01*
X310379Y291675D01*
X311867Y291224D01*
X313413Y291072D01*
X314960Y291224D01*
X316447Y291675D01*
X317818Y292408D01*
X319019Y293394D01*
X319895Y294461D01*
X341932D01*
X342807Y293394D01*
X344009Y292408D01*
X345379Y291675D01*
X346867Y291224D01*
X348413Y291072D01*
X349960Y291224D01*
X351447Y291675D01*
X352818Y292408D01*
X354019Y293394D01*
X354895Y294461D01*
X376842D01*
X377307Y293894D01*
X378509Y292908D01*
X379879Y292176D01*
X381367Y291724D01*
X382913Y291572D01*
X384460Y291724D01*
X385947Y292176D01*
X387318Y292908D01*
X388519Y293894D01*
X389505Y295095D01*
X390238Y296466D01*
X390689Y297953D01*
X390841Y299500D01*
X390689Y301047D01*
X390238Y302534D01*
X389505Y303905D01*
X388519Y305106D01*
X387318Y306092D01*
X385947Y306824D01*
X384460Y307276D01*
X382913Y307428D01*
D02*
G37*
G36*
X281000Y303464D02*
X280071Y303342D01*
X279205Y302983D01*
X278462Y302412D01*
X277891Y301669D01*
X277533Y300803D01*
X277410Y299874D01*
X277533Y298945D01*
X277891Y298079D01*
X278462Y297336D01*
X279205Y296765D01*
X280071Y296407D01*
X281000Y296284D01*
X281929Y296407D01*
X282795Y296765D01*
X283538Y297336D01*
X284109Y298079D01*
X284467Y298945D01*
X284590Y299874D01*
X284467Y300803D01*
X284109Y301669D01*
X283538Y302412D01*
X282795Y302983D01*
X281929Y303342D01*
X281000Y303464D01*
D02*
G37*
G36*
X281500Y295524D02*
Y292500D01*
X284524D01*
X284467Y292929D01*
X284109Y293795D01*
X283538Y294538D01*
X282795Y295109D01*
X281929Y295467D01*
X281500Y295524D01*
D02*
G37*
G36*
X280500D02*
X280071Y295467D01*
X279205Y295109D01*
X278462Y294538D01*
X277891Y293795D01*
X277533Y292929D01*
X277476Y292500D01*
X280500D01*
Y295524D01*
D02*
G37*
G36*
X240347Y304895D02*
X228346D01*
X227371Y304701D01*
X226544Y304149D01*
X225698Y303302D01*
X225145Y302476D01*
X224951Y301500D01*
Y277000D01*
X225145Y276025D01*
X225698Y275198D01*
X229198Y271698D01*
X230025Y271145D01*
X231000Y270951D01*
X263444D01*
X264951Y269444D01*
Y268511D01*
X264681Y268303D01*
X264047Y267478D01*
X263649Y266516D01*
X263513Y265484D01*
X263649Y264452D01*
X264047Y263491D01*
X264681Y262665D01*
X265507Y262032D01*
X266468Y261633D01*
X267500Y261497D01*
X268532Y261633D01*
X269493Y262032D01*
X270319Y262665D01*
X270953Y263491D01*
X271351Y264452D01*
X271487Y265484D01*
X271351Y266516D01*
X270953Y267478D01*
X270319Y268303D01*
X270049Y268511D01*
Y270500D01*
X269855Y271476D01*
X269302Y272302D01*
X266302Y275302D01*
X265476Y275855D01*
X264500Y276049D01*
X232056D01*
X230049Y278056D01*
Y283780D01*
X230096Y283796D01*
X230400Y283400D01*
X231308Y282703D01*
X232365Y282265D01*
X233000Y282182D01*
Y286500D01*
Y290818D01*
X232365Y290735D01*
X231308Y290297D01*
X230400Y289600D01*
X230096Y289204D01*
X230049Y289220D01*
Y293780D01*
X230096Y293796D01*
X230400Y293400D01*
X231308Y292703D01*
X232365Y292265D01*
X233500Y292116D01*
X234635Y292265D01*
X235692Y292703D01*
X236600Y293400D01*
X237297Y294308D01*
X237735Y295365D01*
X237884Y296500D01*
X237735Y297635D01*
X237297Y298692D01*
X236600Y299600D01*
X236404Y299750D01*
X236420Y299798D01*
X239291D01*
X240004Y299084D01*
X239703Y298692D01*
X239265Y297635D01*
X239116Y296500D01*
X239265Y295365D01*
X239703Y294308D01*
X240400Y293400D01*
X241308Y292703D01*
X242365Y292265D01*
X243500Y292116D01*
X244635Y292265D01*
X245692Y292703D01*
X246600Y293400D01*
X247297Y294308D01*
X247735Y295365D01*
X247884Y296500D01*
X247735Y297635D01*
X247297Y298692D01*
X246600Y299600D01*
X245851Y300175D01*
X245302Y300995D01*
X242149Y304149D01*
X241322Y304701D01*
X240347Y304895D01*
D02*
G37*
G36*
X284524Y291500D02*
X281500D01*
Y288476D01*
X281929Y288533D01*
X282795Y288891D01*
X283538Y289462D01*
X284109Y290205D01*
X284467Y291071D01*
X284524Y291500D01*
D02*
G37*
G36*
X280500D02*
X277476D01*
X277533Y291071D01*
X277891Y290205D01*
X278462Y289462D01*
X279205Y288891D01*
X280071Y288533D01*
X280500Y288476D01*
Y291500D01*
D02*
G37*
G36*
X234000Y290818D02*
Y287000D01*
X237818D01*
X237735Y287635D01*
X237297Y288692D01*
X236600Y289600D01*
X235692Y290297D01*
X234635Y290735D01*
X234000Y290818D01*
D02*
G37*
G36*
X237818Y286000D02*
X234000D01*
Y282182D01*
X234635Y282265D01*
X235692Y282703D01*
X236600Y283400D01*
X237297Y284308D01*
X237735Y285365D01*
X237818Y286000D01*
D02*
G37*
G36*
X253500Y290884D02*
X252365Y290735D01*
X251308Y290297D01*
X250400Y289600D01*
X249703Y288692D01*
X249265Y287635D01*
X249116Y286500D01*
X249265Y285365D01*
X249703Y284308D01*
X250400Y283400D01*
X251308Y282703D01*
X252365Y282265D01*
X253500Y282116D01*
X254635Y282265D01*
X255692Y282703D01*
X256600Y283400D01*
X257297Y284308D01*
X257735Y285365D01*
X257884Y286500D01*
X257735Y287635D01*
X257297Y288692D01*
X256600Y289600D01*
X255692Y290297D01*
X254635Y290735D01*
X253500Y290884D01*
D02*
G37*
G36*
X243500D02*
X242365Y290735D01*
X241308Y290297D01*
X240400Y289600D01*
X239703Y288692D01*
X239265Y287635D01*
X239116Y286500D01*
X239265Y285365D01*
X239703Y284308D01*
X240400Y283400D01*
X241308Y282703D01*
X242365Y282265D01*
X243500Y282116D01*
X244635Y282265D01*
X245692Y282703D01*
X246600Y283400D01*
X247297Y284308D01*
X247735Y285365D01*
X247884Y286500D01*
X247735Y287635D01*
X247297Y288692D01*
X246600Y289600D01*
X245692Y290297D01*
X244635Y290735D01*
X243500Y290884D01*
D02*
G37*
G36*
X383413Y287379D02*
Y280000D01*
X390792D01*
X390689Y281047D01*
X390238Y282534D01*
X389505Y283905D01*
X388519Y285106D01*
X387318Y286092D01*
X385947Y286824D01*
X384460Y287276D01*
X383413Y287379D01*
D02*
G37*
G36*
X382413Y287379D02*
X381367Y287276D01*
X379879Y286824D01*
X378509Y286092D01*
X377307Y285106D01*
X376322Y283905D01*
X375589Y282534D01*
X375138Y281047D01*
X375035Y280000D01*
X382413D01*
Y287379D01*
D02*
G37*
G36*
X348913Y286879D02*
Y279500D01*
X356292D01*
X356189Y280547D01*
X355738Y282034D01*
X355005Y283404D01*
X354019Y284606D01*
X352818Y285592D01*
X351447Y286325D01*
X349960Y286776D01*
X348913Y286879D01*
D02*
G37*
G36*
X313913D02*
Y279500D01*
X321292D01*
X321189Y280547D01*
X320738Y282034D01*
X320005Y283404D01*
X319019Y284606D01*
X317818Y285592D01*
X316447Y286325D01*
X314960Y286776D01*
X313913Y286879D01*
D02*
G37*
G36*
X347913Y286879D02*
X346867Y286776D01*
X345379Y286325D01*
X344009Y285592D01*
X342807Y284606D01*
X341822Y283404D01*
X341089Y282034D01*
X340638Y280547D01*
X340535Y279500D01*
X347913D01*
Y286879D01*
D02*
G37*
G36*
X312913D02*
X311867Y286776D01*
X310379Y286325D01*
X309009Y285592D01*
X307807Y284606D01*
X306821Y283404D01*
X306089Y282034D01*
X305638Y280547D01*
X305535Y279500D01*
X312913D01*
Y286879D01*
D02*
G37*
G36*
X382413Y279000D02*
X375035D01*
X375138Y277953D01*
X375589Y276466D01*
X376322Y275096D01*
X377307Y273894D01*
X378509Y272908D01*
X379879Y272176D01*
X381367Y271724D01*
X382413Y271621D01*
Y279000D01*
D02*
G37*
G36*
X390792D02*
X383413D01*
Y271621D01*
X384460Y271724D01*
X385947Y272176D01*
X387318Y272908D01*
X388519Y273894D01*
X389505Y275096D01*
X390238Y276466D01*
X390689Y277953D01*
X390792Y279000D01*
D02*
G37*
G36*
X347913Y278500D02*
X340535D01*
X340638Y277453D01*
X341089Y275966D01*
X341822Y274595D01*
X342807Y273394D01*
X344009Y272408D01*
X345379Y271675D01*
X346867Y271224D01*
X347913Y271121D01*
Y278500D01*
D02*
G37*
G36*
X312913D02*
X305535D01*
X305638Y277453D01*
X306089Y275966D01*
X306821Y274595D01*
X307807Y273394D01*
X309009Y272408D01*
X310379Y271675D01*
X311867Y271224D01*
X312913Y271121D01*
Y278500D01*
D02*
G37*
G36*
X356292D02*
X348913D01*
Y271121D01*
X349960Y271224D01*
X351447Y271675D01*
X352818Y272408D01*
X354019Y273394D01*
X355005Y274595D01*
X355738Y275966D01*
X356189Y277453D01*
X356292Y278500D01*
D02*
G37*
G36*
X321292D02*
X313913D01*
Y271121D01*
X314960Y271224D01*
X316447Y271675D01*
X317818Y272408D01*
X319019Y273394D01*
X320005Y274595D01*
X320738Y275966D01*
X321189Y277453D01*
X321292Y278500D01*
D02*
G37*
G36*
X287500Y269471D02*
X286468Y269335D01*
X285507Y268937D01*
X284681Y268303D01*
X284047Y267478D01*
X283649Y266516D01*
X283513Y265484D01*
X283649Y264452D01*
X284047Y263491D01*
X284681Y262665D01*
X285507Y262032D01*
X286468Y261633D01*
X287500Y261497D01*
X288532Y261633D01*
X289493Y262032D01*
X290319Y262665D01*
X290953Y263491D01*
X291351Y264452D01*
X291487Y265484D01*
X291351Y266516D01*
X290953Y267478D01*
X290319Y268303D01*
X289493Y268937D01*
X288532Y269335D01*
X287500Y269471D01*
D02*
G37*
G36*
X257500D02*
X256468Y269335D01*
X255507Y268937D01*
X254681Y268303D01*
X254047Y267478D01*
X253649Y266516D01*
X253513Y265484D01*
X253649Y264452D01*
X254047Y263491D01*
X254681Y262665D01*
X255507Y262032D01*
X256468Y261633D01*
X257500Y261497D01*
X258532Y261633D01*
X259493Y262032D01*
X260319Y262665D01*
X260953Y263491D01*
X261351Y264452D01*
X261487Y265484D01*
X261351Y266516D01*
X260953Y267478D01*
X260319Y268303D01*
X259493Y268937D01*
X258532Y269335D01*
X257500Y269471D01*
D02*
G37*
G36*
X383413Y267379D02*
Y260000D01*
X390792D01*
X390689Y261047D01*
X390238Y262534D01*
X389505Y263905D01*
X388519Y265106D01*
X387318Y266092D01*
X385947Y266825D01*
X384460Y267276D01*
X383413Y267379D01*
D02*
G37*
G36*
X382413Y267379D02*
X381367Y267276D01*
X379879Y266825D01*
X378509Y266092D01*
X377307Y265106D01*
X376322Y263905D01*
X375589Y262534D01*
X375138Y261047D01*
X375035Y260000D01*
X382413D01*
Y267379D01*
D02*
G37*
G36*
X348913Y266879D02*
Y259500D01*
X356292D01*
X356189Y260547D01*
X355738Y262034D01*
X355005Y263404D01*
X354019Y264606D01*
X352818Y265592D01*
X351447Y266324D01*
X349960Y266776D01*
X348913Y266879D01*
D02*
G37*
G36*
X313913D02*
Y259500D01*
X321292D01*
X321189Y260547D01*
X320738Y262034D01*
X320005Y263404D01*
X319019Y264606D01*
X317818Y265592D01*
X316447Y266324D01*
X314960Y266776D01*
X313913Y266879D01*
D02*
G37*
G36*
X347913Y266879D02*
X346867Y266776D01*
X345379Y266324D01*
X344009Y265592D01*
X342807Y264606D01*
X341822Y263404D01*
X341089Y262034D01*
X340638Y260547D01*
X340535Y259500D01*
X347913D01*
Y266879D01*
D02*
G37*
G36*
X312913D02*
X311867Y266776D01*
X310379Y266324D01*
X309009Y265592D01*
X307807Y264606D01*
X306821Y263404D01*
X306089Y262034D01*
X305638Y260547D01*
X305535Y259500D01*
X312913D01*
Y266879D01*
D02*
G37*
G36*
X241000Y264275D02*
X240071Y264153D01*
X239205Y263794D01*
X238462Y263223D01*
X237891Y262480D01*
X237533Y261614D01*
X237410Y260685D01*
X237533Y259756D01*
X237891Y258890D01*
X238462Y258147D01*
X239205Y257576D01*
X240071Y257218D01*
X241000Y257095D01*
X241929Y257218D01*
X242795Y257576D01*
X243538Y258147D01*
X244109Y258890D01*
X244467Y259756D01*
X244590Y260685D01*
X244467Y261614D01*
X244109Y262480D01*
X243538Y263223D01*
X242795Y263794D01*
X241929Y264153D01*
X241000Y264275D01*
D02*
G37*
G36*
X382413Y259000D02*
X375035D01*
X375138Y257953D01*
X375589Y256466D01*
X376322Y255096D01*
X377307Y253894D01*
X378509Y252908D01*
X379879Y252175D01*
X381367Y251724D01*
X382413Y251621D01*
Y259000D01*
D02*
G37*
G36*
X390792D02*
X383413D01*
Y251621D01*
X384460Y251724D01*
X385947Y252175D01*
X387318Y252908D01*
X388519Y253894D01*
X389505Y255096D01*
X390238Y256466D01*
X390689Y257953D01*
X390792Y259000D01*
D02*
G37*
G36*
X347913Y258500D02*
X340535D01*
X340638Y257453D01*
X341089Y255966D01*
X341822Y254595D01*
X342807Y253394D01*
X344009Y252408D01*
X345379Y251676D01*
X346867Y251224D01*
X347913Y251121D01*
Y258500D01*
D02*
G37*
G36*
X312913D02*
X305535D01*
X305638Y257453D01*
X306089Y255966D01*
X306821Y254595D01*
X307807Y253394D01*
X309009Y252408D01*
X310379Y251676D01*
X311867Y251224D01*
X312913Y251121D01*
Y258500D01*
D02*
G37*
G36*
X356292D02*
X348913D01*
Y251121D01*
X349960Y251224D01*
X351447Y251676D01*
X352818Y252408D01*
X354019Y253394D01*
X355005Y254595D01*
X355738Y255966D01*
X356189Y257453D01*
X356292Y258500D01*
D02*
G37*
G36*
X321292D02*
X313913D01*
Y251121D01*
X314960Y251224D01*
X316447Y251676D01*
X317818Y252408D01*
X319019Y253394D01*
X320005Y254595D01*
X320738Y255966D01*
X321189Y257453D01*
X321292Y258500D01*
D02*
G37*
G36*
X390803Y247390D02*
X375024D01*
Y243539D01*
X356303D01*
Y246890D01*
X340524D01*
Y243539D01*
X321303D01*
Y246890D01*
X305523D01*
Y231110D01*
X321303D01*
Y234461D01*
X340524D01*
Y231110D01*
X356303D01*
Y234461D01*
X375024D01*
Y231610D01*
X390803D01*
Y247390D01*
D02*
G37*
G36*
X241500Y244524D02*
Y241500D01*
X244524D01*
X244467Y241929D01*
X244109Y242795D01*
X243538Y243538D01*
X242795Y244109D01*
X241929Y244467D01*
X241500Y244524D01*
D02*
G37*
G36*
X240500D02*
X240071Y244467D01*
X239205Y244109D01*
X238462Y243538D01*
X237891Y242795D01*
X237533Y241929D01*
X237476Y241500D01*
X240500D01*
Y244524D01*
D02*
G37*
G36*
X268000Y238549D02*
X267613Y238472D01*
X267500Y238487D01*
X266468Y238351D01*
X265507Y237953D01*
X264681Y237319D01*
X264047Y236493D01*
X263649Y235532D01*
X263513Y234500D01*
X263649Y233468D01*
X264047Y232507D01*
X264681Y231681D01*
X265451Y231090D01*
Y228000D01*
X265645Y227025D01*
X266198Y226198D01*
X273698Y218698D01*
X274524Y218145D01*
X275500Y217951D01*
X300444D01*
X301951Y216444D01*
Y206838D01*
X301531Y206291D01*
X301074Y205186D01*
X300918Y204000D01*
X301074Y202814D01*
X301531Y201709D01*
X302260Y200760D01*
X303209Y200031D01*
X304314Y199574D01*
X305500Y199417D01*
X306686Y199574D01*
X307791Y200031D01*
X308740Y200760D01*
X309469Y201709D01*
X309926Y202814D01*
X310083Y204000D01*
X309926Y205186D01*
X309469Y206291D01*
X308740Y207240D01*
X307791Y207968D01*
X307049Y208276D01*
Y217500D01*
X306855Y218476D01*
X306302Y219302D01*
X303302Y222302D01*
X302476Y222855D01*
X302243Y222901D01*
X302248Y222951D01*
X308444D01*
X311951Y219444D01*
Y206838D01*
X311531Y206291D01*
X311074Y205186D01*
X310917Y204000D01*
X311074Y202814D01*
X311531Y201709D01*
X312260Y200760D01*
X313209Y200031D01*
X314314Y199574D01*
X315500Y199417D01*
X316686Y199574D01*
X317791Y200031D01*
X318740Y200760D01*
X319469Y201709D01*
X319926Y202814D01*
X320082Y204000D01*
X319926Y205186D01*
X319469Y206291D01*
X318740Y207240D01*
X317815Y207950D01*
X317832Y208000D01*
X323168D01*
X323185Y207950D01*
X322260Y207240D01*
X321531Y206291D01*
X321074Y205186D01*
X320918Y204000D01*
X321074Y202814D01*
X321531Y201709D01*
X322260Y200760D01*
X323209Y200031D01*
X324314Y199574D01*
X325500Y199417D01*
X326686Y199574D01*
X327791Y200031D01*
X328740Y200760D01*
X329469Y201709D01*
X329926Y202814D01*
X330083Y204000D01*
X329926Y205186D01*
X329469Y206291D01*
X328740Y207240D01*
X327815Y207950D01*
X327832Y208000D01*
X333168D01*
X333185Y207950D01*
X332260Y207240D01*
X331531Y206291D01*
X331074Y205186D01*
X330918Y204000D01*
X331074Y202814D01*
X331531Y201709D01*
X332260Y200760D01*
X333209Y200031D01*
X334314Y199574D01*
X335500Y199417D01*
X336686Y199574D01*
X337791Y200031D01*
X338740Y200760D01*
X339469Y201709D01*
X339926Y202814D01*
X340083Y204000D01*
X339926Y205186D01*
X339469Y206291D01*
X338740Y207240D01*
X337815Y207950D01*
X337832Y208000D01*
X343168D01*
X343185Y207950D01*
X342260Y207240D01*
X341531Y206291D01*
X341074Y205186D01*
X340917Y204000D01*
X341074Y202814D01*
X341531Y201709D01*
X342260Y200760D01*
X343209Y200031D01*
X344314Y199574D01*
X345500Y199417D01*
X346686Y199574D01*
X347791Y200031D01*
X348740Y200760D01*
X349469Y201709D01*
X349926Y202814D01*
X350082Y204000D01*
X349926Y205186D01*
X349469Y206291D01*
X348740Y207240D01*
X347815Y207950D01*
X347832Y208000D01*
X353168D01*
X353185Y207950D01*
X352260Y207240D01*
X351531Y206291D01*
X351074Y205186D01*
X350918Y204000D01*
X351074Y202814D01*
X351531Y201709D01*
X352260Y200760D01*
X353209Y200031D01*
X354314Y199574D01*
X355500Y199417D01*
X356686Y199574D01*
X357791Y200031D01*
X358740Y200760D01*
X359469Y201709D01*
X359926Y202814D01*
X360083Y204000D01*
X359926Y205186D01*
X359469Y206291D01*
X358740Y207240D01*
X357815Y207950D01*
X357832Y208000D01*
X363168D01*
X363185Y207950D01*
X362260Y207240D01*
X361531Y206291D01*
X361074Y205186D01*
X360917Y204000D01*
X361074Y202814D01*
X361531Y201709D01*
X362260Y200760D01*
X363209Y200031D01*
X364314Y199574D01*
X365500Y199417D01*
X366686Y199574D01*
X367791Y200031D01*
X368740Y200760D01*
X369469Y201709D01*
X369926Y202814D01*
X370082Y204000D01*
X369926Y205186D01*
X369469Y206291D01*
X368740Y207240D01*
X367815Y207950D01*
X367832Y208000D01*
X373168D01*
X373185Y207950D01*
X372260Y207240D01*
X371531Y206291D01*
X371074Y205186D01*
X370918Y204000D01*
X371074Y202814D01*
X371531Y201709D01*
X372260Y200760D01*
X373209Y200031D01*
X374314Y199574D01*
X375500Y199417D01*
X376686Y199574D01*
X377791Y200031D01*
X378740Y200760D01*
X379469Y201709D01*
X379926Y202814D01*
X380083Y204000D01*
X379926Y205186D01*
X379469Y206291D01*
X378740Y207240D01*
X377815Y207950D01*
X377832Y208000D01*
X383168D01*
X383185Y207950D01*
X382260Y207240D01*
X381531Y206291D01*
X381074Y205186D01*
X380918Y204000D01*
X381074Y202814D01*
X381531Y201709D01*
X382260Y200760D01*
X383209Y200031D01*
X384314Y199574D01*
X385500Y199417D01*
X386686Y199574D01*
X387791Y200031D01*
X388740Y200760D01*
X389469Y201709D01*
X389926Y202814D01*
X390083Y204000D01*
X389926Y205186D01*
X389469Y206291D01*
X388740Y207240D01*
X387815Y207950D01*
X387832Y208000D01*
X389500D01*
Y221677D01*
X316720D01*
X316302Y222302D01*
X311302Y227302D01*
X310475Y227855D01*
X309500Y228049D01*
X286056D01*
X281142Y232963D01*
X281351Y233468D01*
X281487Y234500D01*
X281351Y235532D01*
X280953Y236493D01*
X280319Y237319D01*
X279493Y237953D01*
X278532Y238351D01*
X277500Y238487D01*
X276468Y238351D01*
X275507Y237953D01*
X274681Y237319D01*
X274047Y236493D01*
X273649Y235532D01*
X273513Y234500D01*
X273649Y233468D01*
X274047Y232507D01*
X274681Y231681D01*
X275507Y231047D01*
X276089Y230806D01*
X283198Y223698D01*
X284025Y223145D01*
X284257Y223099D01*
X284252Y223049D01*
X276556D01*
X270549Y229056D01*
Y231980D01*
X270953Y232507D01*
X271351Y233468D01*
X271487Y234500D01*
X271351Y235532D01*
X270953Y236493D01*
X270319Y237319D01*
X269921Y237624D01*
X269802Y237802D01*
X268975Y238355D01*
X268000Y238549D01*
D02*
G37*
G36*
X244524Y240500D02*
X241500D01*
Y237476D01*
X241929Y237533D01*
X242795Y237891D01*
X243538Y238462D01*
X244109Y239205D01*
X244467Y240071D01*
X244524Y240500D01*
D02*
G37*
G36*
X240500D02*
X237476D01*
X237533Y240071D01*
X237891Y239205D01*
X238462Y238462D01*
X239205Y237891D01*
X240071Y237533D01*
X240500Y237476D01*
Y240500D01*
D02*
G37*
G36*
X288000Y238421D02*
Y235000D01*
X291421D01*
X291351Y235532D01*
X290953Y236493D01*
X290319Y237319D01*
X289493Y237953D01*
X288532Y238351D01*
X288000Y238421D01*
D02*
G37*
G36*
X287000D02*
X286468Y238351D01*
X285507Y237953D01*
X284681Y237319D01*
X284047Y236493D01*
X283649Y235532D01*
X283579Y235000D01*
X287000D01*
Y238421D01*
D02*
G37*
G36*
X291421Y234000D02*
X288000D01*
Y230579D01*
X288532Y230649D01*
X289493Y231047D01*
X290319Y231681D01*
X290953Y232507D01*
X291351Y233468D01*
X291421Y234000D01*
D02*
G37*
G36*
X287000D02*
X283579D01*
X283649Y233468D01*
X284047Y232507D01*
X284681Y231681D01*
X285507Y231047D01*
X286468Y230649D01*
X287000Y230579D01*
Y234000D01*
D02*
G37*
G36*
X261453Y238453D02*
X253547D01*
Y230547D01*
X261453D01*
Y238453D01*
D02*
G37*
G36*
X295500Y208582D02*
X294314Y208426D01*
X293209Y207968D01*
X292260Y207240D01*
X291531Y206291D01*
X291074Y205186D01*
X290917Y204000D01*
X291074Y202814D01*
X291531Y201709D01*
X292260Y200760D01*
X293209Y200031D01*
X294314Y199574D01*
X295500Y199417D01*
X296686Y199574D01*
X297791Y200031D01*
X298740Y200760D01*
X299469Y201709D01*
X299926Y202814D01*
X300082Y204000D01*
X299926Y205186D01*
X299469Y206291D01*
X298740Y207240D01*
X297791Y207968D01*
X296686Y208426D01*
X295500Y208582D01*
D02*
G37*
G36*
X285500D02*
X284314Y208426D01*
X283209Y207968D01*
X282260Y207240D01*
X281531Y206291D01*
X281074Y205186D01*
X280918Y204000D01*
X281074Y202814D01*
X281531Y201709D01*
X282260Y200760D01*
X283209Y200031D01*
X284314Y199574D01*
X285500Y199417D01*
X286686Y199574D01*
X287791Y200031D01*
X288740Y200760D01*
X289469Y201709D01*
X289926Y202814D01*
X290083Y204000D01*
X289926Y205186D01*
X289469Y206291D01*
X288740Y207240D01*
X287791Y207968D01*
X286686Y208426D01*
X285500Y208582D01*
D02*
G37*
G36*
X257846Y300847D02*
X249153D01*
Y292154D01*
X257846D01*
Y293951D01*
X259944D01*
X274951Y278944D01*
Y268511D01*
X274681Y268303D01*
X274047Y267478D01*
X273649Y266516D01*
X273513Y265484D01*
X273649Y264452D01*
X274047Y263491D01*
X274681Y262665D01*
X274951Y262458D01*
Y257556D01*
X263444Y246049D01*
X254500D01*
X253524Y245855D01*
X252698Y245302D01*
X248198Y240802D01*
X247645Y239976D01*
X247451Y239000D01*
Y229500D01*
X247645Y228524D01*
X248198Y227698D01*
X251198Y224698D01*
X252025Y224145D01*
X253000Y223951D01*
X260444D01*
X271951Y212444D01*
Y206838D01*
X271531Y206291D01*
X271074Y205186D01*
X270918Y204000D01*
X271074Y202814D01*
X271531Y201709D01*
X272260Y200760D01*
X273209Y200031D01*
X274314Y199574D01*
X275500Y199417D01*
X276686Y199574D01*
X277791Y200031D01*
X278740Y200760D01*
X279469Y201709D01*
X279926Y202814D01*
X280083Y204000D01*
X279926Y205186D01*
X279469Y206291D01*
X278740Y207240D01*
X277791Y207968D01*
X277049Y208276D01*
Y213500D01*
X276855Y214475D01*
X276302Y215302D01*
X263302Y228302D01*
X262475Y228855D01*
X261500Y229049D01*
X254056D01*
X252549Y230556D01*
Y237944D01*
X255556Y240951D01*
X264500D01*
X265476Y241145D01*
X266302Y241698D01*
X279302Y254698D01*
X279855Y255524D01*
X280049Y256500D01*
Y262458D01*
X280319Y262665D01*
X280953Y263491D01*
X281351Y264452D01*
X281487Y265484D01*
X281351Y266516D01*
X280953Y267478D01*
X280319Y268303D01*
X280049Y268511D01*
Y280000D01*
X279855Y280976D01*
X279302Y281802D01*
X262802Y298302D01*
X261976Y298855D01*
X261000Y299049D01*
X257846D01*
Y300847D01*
D02*
G37*
G36*
X265500Y208582D02*
X264314Y208426D01*
X263209Y207968D01*
X262260Y207240D01*
X261531Y206291D01*
X261074Y205186D01*
X260917Y204000D01*
X261074Y202814D01*
X261531Y201709D01*
X262260Y200760D01*
X263209Y200031D01*
X264314Y199574D01*
X265500Y199417D01*
X266686Y199574D01*
X267791Y200031D01*
X268740Y200760D01*
X269469Y201709D01*
X269926Y202814D01*
X270082Y204000D01*
X269926Y205186D01*
X269469Y206291D01*
X268740Y207240D01*
X267791Y207968D01*
X266686Y208426D01*
X265500Y208582D01*
D02*
G37*
G36*
X255500D02*
X254314Y208426D01*
X253209Y207968D01*
X252260Y207240D01*
X251531Y206291D01*
X251074Y205186D01*
X250918Y204000D01*
X251074Y202814D01*
X251531Y201709D01*
X252260Y200760D01*
X253209Y200031D01*
X254314Y199574D01*
X255500Y199417D01*
X256686Y199574D01*
X257791Y200031D01*
X258740Y200760D01*
X259469Y201709D01*
X259926Y202814D01*
X260083Y204000D01*
X259926Y205186D01*
X259469Y206291D01*
X258740Y207240D01*
X257791Y207968D01*
X256686Y208426D01*
X255500Y208582D01*
D02*
G37*
G36*
X245500D02*
X244314Y208426D01*
X243209Y207968D01*
X242260Y207240D01*
X241531Y206291D01*
X241074Y205186D01*
X240917Y204000D01*
X241074Y202814D01*
X241531Y201709D01*
X242260Y200760D01*
X243209Y200031D01*
X244314Y199574D01*
X245500Y199417D01*
X246686Y199574D01*
X247791Y200031D01*
X248740Y200760D01*
X249469Y201709D01*
X249926Y202814D01*
X250082Y204000D01*
X249926Y205186D01*
X249469Y206291D01*
X248740Y207240D01*
X247791Y207968D01*
X246686Y208426D01*
X245500Y208582D01*
D02*
G37*
G36*
X235500D02*
X234314Y208426D01*
X233209Y207968D01*
X232260Y207240D01*
X231531Y206291D01*
X231074Y205186D01*
X230918Y204000D01*
X231074Y202814D01*
X231531Y201709D01*
X232260Y200760D01*
X233209Y200031D01*
X234314Y199574D01*
X235500Y199417D01*
X236686Y199574D01*
X237791Y200031D01*
X238740Y200760D01*
X239469Y201709D01*
X239926Y202814D01*
X240083Y204000D01*
X239926Y205186D01*
X239469Y206291D01*
X238740Y207240D01*
X237791Y207968D01*
X236686Y208426D01*
X235500Y208582D01*
D02*
G37*
G36*
X386000Y198517D02*
Y194500D01*
X390017D01*
X389926Y195186D01*
X389469Y196291D01*
X388740Y197240D01*
X387791Y197968D01*
X386686Y198426D01*
X386000Y198517D01*
D02*
G37*
G36*
X376000D02*
Y194500D01*
X380017D01*
X379926Y195186D01*
X379469Y196291D01*
X378740Y197240D01*
X377791Y197968D01*
X376686Y198426D01*
X376000Y198517D01*
D02*
G37*
G36*
X366000D02*
Y194500D01*
X370017D01*
X369926Y195186D01*
X369469Y196291D01*
X368740Y197240D01*
X367791Y197968D01*
X366686Y198426D01*
X366000Y198517D01*
D02*
G37*
G36*
X356000D02*
Y194500D01*
X360017D01*
X359926Y195186D01*
X359469Y196291D01*
X358740Y197240D01*
X357791Y197968D01*
X356686Y198426D01*
X356000Y198517D01*
D02*
G37*
G36*
X346000D02*
Y194500D01*
X350017D01*
X349926Y195186D01*
X349469Y196291D01*
X348740Y197240D01*
X347791Y197968D01*
X346686Y198426D01*
X346000Y198517D01*
D02*
G37*
G36*
X336000D02*
Y194500D01*
X340017D01*
X339926Y195186D01*
X339469Y196291D01*
X338740Y197240D01*
X337791Y197968D01*
X336686Y198426D01*
X336000Y198517D01*
D02*
G37*
G36*
X326000D02*
Y194500D01*
X330017D01*
X329926Y195186D01*
X329469Y196291D01*
X328740Y197240D01*
X327791Y197968D01*
X326686Y198426D01*
X326000Y198517D01*
D02*
G37*
G36*
X316000D02*
Y194500D01*
X320017D01*
X319926Y195186D01*
X319469Y196291D01*
X318740Y197240D01*
X317791Y197968D01*
X316686Y198426D01*
X316000Y198517D01*
D02*
G37*
G36*
X306000D02*
Y194500D01*
X310017D01*
X309926Y195186D01*
X309469Y196291D01*
X308740Y197240D01*
X307791Y197968D01*
X306686Y198426D01*
X306000Y198517D01*
D02*
G37*
G36*
X296000D02*
Y194500D01*
X300017D01*
X299926Y195186D01*
X299469Y196291D01*
X298740Y197240D01*
X297791Y197968D01*
X296686Y198426D01*
X296000Y198517D01*
D02*
G37*
G36*
X286000D02*
Y194500D01*
X290017D01*
X289926Y195186D01*
X289469Y196291D01*
X288740Y197240D01*
X287791Y197968D01*
X286686Y198426D01*
X286000Y198517D01*
D02*
G37*
G36*
X276000D02*
Y194500D01*
X280017D01*
X279926Y195186D01*
X279469Y196291D01*
X278740Y197240D01*
X277791Y197968D01*
X276686Y198426D01*
X276000Y198517D01*
D02*
G37*
G36*
X266000D02*
Y194500D01*
X270017D01*
X269926Y195186D01*
X269469Y196291D01*
X268740Y197240D01*
X267791Y197968D01*
X266686Y198426D01*
X266000Y198517D01*
D02*
G37*
G36*
X256000D02*
Y194500D01*
X260017D01*
X259926Y195186D01*
X259469Y196291D01*
X258740Y197240D01*
X257791Y197968D01*
X256686Y198426D01*
X256000Y198517D01*
D02*
G37*
G36*
X246000D02*
Y194500D01*
X250017D01*
X249926Y195186D01*
X249469Y196291D01*
X248740Y197240D01*
X247791Y197968D01*
X246686Y198426D01*
X246000Y198517D01*
D02*
G37*
G36*
X236000D02*
Y194500D01*
X240017D01*
X239926Y195186D01*
X239469Y196291D01*
X238740Y197240D01*
X237791Y197968D01*
X236686Y198426D01*
X236000Y198517D01*
D02*
G37*
G36*
X226000D02*
Y194500D01*
X230017D01*
X229926Y195186D01*
X229469Y196291D01*
X228740Y197240D01*
X227791Y197968D01*
X226686Y198426D01*
X226000Y198517D01*
D02*
G37*
G36*
X385000D02*
X384314Y198426D01*
X383209Y197968D01*
X382260Y197240D01*
X381531Y196291D01*
X381074Y195186D01*
X380983Y194500D01*
X385000D01*
Y198517D01*
D02*
G37*
G36*
X375000D02*
X374314Y198426D01*
X373209Y197968D01*
X372260Y197240D01*
X371531Y196291D01*
X371074Y195186D01*
X370983Y194500D01*
X375000D01*
Y198517D01*
D02*
G37*
G36*
X365000D02*
X364314Y198426D01*
X363209Y197968D01*
X362260Y197240D01*
X361531Y196291D01*
X361074Y195186D01*
X360983Y194500D01*
X365000D01*
Y198517D01*
D02*
G37*
G36*
X355000D02*
X354314Y198426D01*
X353209Y197968D01*
X352260Y197240D01*
X351531Y196291D01*
X351074Y195186D01*
X350983Y194500D01*
X355000D01*
Y198517D01*
D02*
G37*
G36*
X345000D02*
X344314Y198426D01*
X343209Y197968D01*
X342260Y197240D01*
X341531Y196291D01*
X341074Y195186D01*
X340983Y194500D01*
X345000D01*
Y198517D01*
D02*
G37*
G36*
X335000D02*
X334314Y198426D01*
X333209Y197968D01*
X332260Y197240D01*
X331531Y196291D01*
X331074Y195186D01*
X330983Y194500D01*
X335000D01*
Y198517D01*
D02*
G37*
G36*
X325000D02*
X324314Y198426D01*
X323209Y197968D01*
X322260Y197240D01*
X321531Y196291D01*
X321074Y195186D01*
X320983Y194500D01*
X325000D01*
Y198517D01*
D02*
G37*
G36*
X315000D02*
X314314Y198426D01*
X313209Y197968D01*
X312260Y197240D01*
X311531Y196291D01*
X311074Y195186D01*
X310983Y194500D01*
X315000D01*
Y198517D01*
D02*
G37*
G36*
X305000D02*
X304314Y198426D01*
X303209Y197968D01*
X302260Y197240D01*
X301531Y196291D01*
X301074Y195186D01*
X300983Y194500D01*
X305000D01*
Y198517D01*
D02*
G37*
G36*
X295000D02*
X294314Y198426D01*
X293209Y197968D01*
X292260Y197240D01*
X291531Y196291D01*
X291074Y195186D01*
X290983Y194500D01*
X295000D01*
Y198517D01*
D02*
G37*
G36*
X285000D02*
X284314Y198426D01*
X283209Y197968D01*
X282260Y197240D01*
X281531Y196291D01*
X281074Y195186D01*
X280983Y194500D01*
X285000D01*
Y198517D01*
D02*
G37*
G36*
X275000D02*
X274314Y198426D01*
X273209Y197968D01*
X272260Y197240D01*
X271531Y196291D01*
X271074Y195186D01*
X270983Y194500D01*
X275000D01*
Y198517D01*
D02*
G37*
G36*
X265000D02*
X264314Y198426D01*
X263209Y197968D01*
X262260Y197240D01*
X261531Y196291D01*
X261074Y195186D01*
X260983Y194500D01*
X265000D01*
Y198517D01*
D02*
G37*
G36*
X255000D02*
X254314Y198426D01*
X253209Y197968D01*
X252260Y197240D01*
X251531Y196291D01*
X251074Y195186D01*
X250983Y194500D01*
X255000D01*
Y198517D01*
D02*
G37*
G36*
X245000D02*
X244314Y198426D01*
X243209Y197968D01*
X242260Y197240D01*
X241531Y196291D01*
X241074Y195186D01*
X240983Y194500D01*
X245000D01*
Y198517D01*
D02*
G37*
G36*
X235000D02*
X234314Y198426D01*
X233209Y197968D01*
X232260Y197240D01*
X231531Y196291D01*
X231074Y195186D01*
X230983Y194500D01*
X235000D01*
Y198517D01*
D02*
G37*
G36*
X390017Y193500D02*
X386000D01*
Y189483D01*
X386686Y189574D01*
X387791Y190031D01*
X388740Y190760D01*
X389469Y191709D01*
X389926Y192814D01*
X390017Y193500D01*
D02*
G37*
G36*
X380017D02*
X376000D01*
Y189483D01*
X376686Y189574D01*
X377791Y190031D01*
X378740Y190760D01*
X379469Y191709D01*
X379926Y192814D01*
X380017Y193500D01*
D02*
G37*
G36*
X370017D02*
X366000D01*
Y189483D01*
X366686Y189574D01*
X367791Y190031D01*
X368740Y190760D01*
X369469Y191709D01*
X369926Y192814D01*
X370017Y193500D01*
D02*
G37*
G36*
X360017D02*
X356000D01*
Y189483D01*
X356686Y189574D01*
X357791Y190031D01*
X358740Y190760D01*
X359469Y191709D01*
X359926Y192814D01*
X360017Y193500D01*
D02*
G37*
G36*
X350017D02*
X346000D01*
Y189483D01*
X346686Y189574D01*
X347791Y190031D01*
X348740Y190760D01*
X349469Y191709D01*
X349926Y192814D01*
X350017Y193500D01*
D02*
G37*
G36*
X340017D02*
X336000D01*
Y189483D01*
X336686Y189574D01*
X337791Y190031D01*
X338740Y190760D01*
X339469Y191709D01*
X339926Y192814D01*
X340017Y193500D01*
D02*
G37*
G36*
X330017D02*
X326000D01*
Y189483D01*
X326686Y189574D01*
X327791Y190031D01*
X328740Y190760D01*
X329469Y191709D01*
X329926Y192814D01*
X330017Y193500D01*
D02*
G37*
G36*
X320017D02*
X316000D01*
Y189483D01*
X316686Y189574D01*
X317791Y190031D01*
X318740Y190760D01*
X319469Y191709D01*
X319926Y192814D01*
X320017Y193500D01*
D02*
G37*
G36*
X310017D02*
X306000D01*
Y189483D01*
X306686Y189574D01*
X307791Y190031D01*
X308740Y190760D01*
X309469Y191709D01*
X309926Y192814D01*
X310017Y193500D01*
D02*
G37*
G36*
X300017D02*
X296000D01*
Y189483D01*
X296686Y189574D01*
X297791Y190031D01*
X298740Y190760D01*
X299469Y191709D01*
X299926Y192814D01*
X300017Y193500D01*
D02*
G37*
G36*
X290017D02*
X286000D01*
Y189483D01*
X286686Y189574D01*
X287791Y190031D01*
X288740Y190760D01*
X289469Y191709D01*
X289926Y192814D01*
X290017Y193500D01*
D02*
G37*
G36*
X280017D02*
X276000D01*
Y189483D01*
X276686Y189574D01*
X277791Y190031D01*
X278740Y190760D01*
X279469Y191709D01*
X279926Y192814D01*
X280017Y193500D01*
D02*
G37*
G36*
X270017D02*
X266000D01*
Y189483D01*
X266686Y189574D01*
X267791Y190031D01*
X268740Y190760D01*
X269469Y191709D01*
X269926Y192814D01*
X270017Y193500D01*
D02*
G37*
G36*
X260017D02*
X256000D01*
Y189483D01*
X256686Y189574D01*
X257791Y190031D01*
X258740Y190760D01*
X259469Y191709D01*
X259926Y192814D01*
X260017Y193500D01*
D02*
G37*
G36*
X250017D02*
X246000D01*
Y189483D01*
X246686Y189574D01*
X247791Y190031D01*
X248740Y190760D01*
X249469Y191709D01*
X249926Y192814D01*
X250017Y193500D01*
D02*
G37*
G36*
X240017D02*
X236000D01*
Y189483D01*
X236686Y189574D01*
X237791Y190031D01*
X238740Y190760D01*
X239469Y191709D01*
X239926Y192814D01*
X240017Y193500D01*
D02*
G37*
G36*
X230017D02*
X226000D01*
Y189483D01*
X226686Y189574D01*
X227791Y190031D01*
X228740Y190760D01*
X229469Y191709D01*
X229926Y192814D01*
X230017Y193500D01*
D02*
G37*
G36*
X385000D02*
X380983D01*
X381074Y192814D01*
X381531Y191709D01*
X382260Y190760D01*
X383209Y190031D01*
X384314Y189574D01*
X385000Y189483D01*
Y193500D01*
D02*
G37*
G36*
X375000D02*
X370983D01*
X371074Y192814D01*
X371531Y191709D01*
X372260Y190760D01*
X373209Y190031D01*
X374314Y189574D01*
X375000Y189483D01*
Y193500D01*
D02*
G37*
G36*
X365000D02*
X360983D01*
X361074Y192814D01*
X361531Y191709D01*
X362260Y190760D01*
X363209Y190031D01*
X364314Y189574D01*
X365000Y189483D01*
Y193500D01*
D02*
G37*
G36*
X355000D02*
X350983D01*
X351074Y192814D01*
X351531Y191709D01*
X352260Y190760D01*
X353209Y190031D01*
X354314Y189574D01*
X355000Y189483D01*
Y193500D01*
D02*
G37*
G36*
X345000D02*
X340983D01*
X341074Y192814D01*
X341531Y191709D01*
X342260Y190760D01*
X343209Y190031D01*
X344314Y189574D01*
X345000Y189483D01*
Y193500D01*
D02*
G37*
G36*
X335000D02*
X330983D01*
X331074Y192814D01*
X331531Y191709D01*
X332260Y190760D01*
X333209Y190031D01*
X334314Y189574D01*
X335000Y189483D01*
Y193500D01*
D02*
G37*
G36*
X325000D02*
X320983D01*
X321074Y192814D01*
X321531Y191709D01*
X322260Y190760D01*
X323209Y190031D01*
X324314Y189574D01*
X325000Y189483D01*
Y193500D01*
D02*
G37*
G36*
X315000D02*
X310983D01*
X311074Y192814D01*
X311531Y191709D01*
X312260Y190760D01*
X313209Y190031D01*
X314314Y189574D01*
X315000Y189483D01*
Y193500D01*
D02*
G37*
G36*
X305000D02*
X300983D01*
X301074Y192814D01*
X301531Y191709D01*
X302260Y190760D01*
X303209Y190031D01*
X304314Y189574D01*
X305000Y189483D01*
Y193500D01*
D02*
G37*
G36*
X295000D02*
X290983D01*
X291074Y192814D01*
X291531Y191709D01*
X292260Y190760D01*
X293209Y190031D01*
X294314Y189574D01*
X295000Y189483D01*
Y193500D01*
D02*
G37*
G36*
X285000D02*
X280983D01*
X281074Y192814D01*
X281531Y191709D01*
X282260Y190760D01*
X283209Y190031D01*
X284314Y189574D01*
X285000Y189483D01*
Y193500D01*
D02*
G37*
G36*
X275000D02*
X270983D01*
X271074Y192814D01*
X271531Y191709D01*
X272260Y190760D01*
X273209Y190031D01*
X274314Y189574D01*
X275000Y189483D01*
Y193500D01*
D02*
G37*
G36*
X265000D02*
X260983D01*
X261074Y192814D01*
X261531Y191709D01*
X262260Y190760D01*
X263209Y190031D01*
X264314Y189574D01*
X265000Y189483D01*
Y193500D01*
D02*
G37*
G36*
X255000D02*
X250983D01*
X251074Y192814D01*
X251531Y191709D01*
X252260Y190760D01*
X253209Y190031D01*
X254314Y189574D01*
X255000Y189483D01*
Y193500D01*
D02*
G37*
G36*
X245000D02*
X240983D01*
X241074Y192814D01*
X241531Y191709D01*
X242260Y190760D01*
X243209Y190031D01*
X244314Y189574D01*
X245000Y189483D01*
Y193500D01*
D02*
G37*
G36*
X235000D02*
X230983D01*
X231074Y192814D01*
X231531Y191709D01*
X232260Y190760D01*
X233209Y190031D01*
X234314Y189574D01*
X235000Y189483D01*
Y193500D01*
D02*
G37*
%LPD*%
D10*
X382413Y239000D02*
X382913Y239500D01*
X382413Y299000D02*
X382913Y299500D01*
X261500Y226500D02*
X274500Y213500D01*
X253000Y226500D02*
X261500D01*
X250000Y229500D02*
X253000Y226500D01*
X264500Y243500D02*
X277500Y256500D01*
X254500Y243500D02*
X264500D01*
X250000Y239000D02*
X254500Y243500D01*
X250000Y229500D02*
Y239000D01*
X277500Y256500D02*
Y265484D01*
X268000Y228000D02*
X275500Y220500D01*
X267500Y265484D02*
Y270500D01*
X264500Y273500D02*
X267500Y270500D01*
X228346Y302346D02*
X240347D01*
X243500Y299193D01*
Y296500D02*
Y299193D01*
X277500Y265484D02*
Y280000D01*
X261000Y296500D02*
X277500Y280000D01*
X253500Y296500D02*
X261000D01*
X231000Y273500D02*
X264500D01*
X227500Y277000D02*
X231000Y273500D01*
X227500Y277000D02*
Y301500D01*
X228346Y302346D01*
X304500Y206000D02*
Y217500D01*
X275500Y220500D02*
X301500D01*
X304500Y217500D01*
X285000Y225500D02*
X309500D01*
X314500Y206000D02*
Y220500D01*
X309500Y225500D02*
X314500Y220500D01*
X276750Y233750D02*
X285000Y225500D01*
X274500Y204000D02*
Y213500D01*
X268000Y228000D02*
Y236000D01*
X566787Y239000D02*
X567287Y239500D01*
X566787Y299000D02*
X567287Y299500D01*
X445874Y226500D02*
X458874Y213500D01*
X437374Y226500D02*
X445874D01*
X434374Y229500D02*
X437374Y226500D01*
X448874Y243500D02*
X461874Y256500D01*
X438874Y243500D02*
X448874D01*
X434374Y239000D02*
X438874Y243500D01*
X434374Y229500D02*
Y239000D01*
X461874Y256500D02*
Y265484D01*
X452374Y228000D02*
X459874Y220500D01*
X451874Y265484D02*
Y270500D01*
X448874Y273500D02*
X451874Y270500D01*
X412720Y302346D02*
X424720D01*
X427874Y299193D01*
Y296500D02*
Y299193D01*
X461874Y265484D02*
Y280000D01*
X445374Y296500D02*
X461874Y280000D01*
X437874Y296500D02*
X445374D01*
X415374Y273500D02*
X448874D01*
X411874Y277000D02*
X415374Y273500D01*
X411874Y277000D02*
Y301500D01*
X412720Y302346D01*
X488874Y206000D02*
Y217500D01*
X459874Y220500D02*
X485874D01*
X488874Y217500D01*
X469374Y225500D02*
X493874D01*
X498874Y206000D02*
Y220500D01*
X493874Y225500D02*
X498874Y220500D01*
X461124Y233750D02*
X469374Y225500D01*
X458874Y204000D02*
Y213500D01*
X452374Y228000D02*
Y236000D01*
X382413Y375874D02*
X382913Y376374D01*
X382413Y435874D02*
X382913Y436374D01*
X261500Y363374D02*
X274500Y350374D01*
X253000Y363374D02*
X261500D01*
X250000Y366374D02*
X253000Y363374D01*
X264500Y380374D02*
X277500Y393374D01*
X254500Y380374D02*
X264500D01*
X250000Y375874D02*
X254500Y380374D01*
X250000Y366374D02*
Y375874D01*
X277500Y393374D02*
Y402358D01*
X268000Y364874D02*
X275500Y357374D01*
X267500Y402358D02*
Y407374D01*
X264500Y410374D02*
X267500Y407374D01*
X228346Y439221D02*
X240347D01*
X243500Y436067D01*
Y433374D02*
Y436067D01*
X277500Y402358D02*
Y416874D01*
X261000Y433374D02*
X277500Y416874D01*
X253500Y433374D02*
X261000D01*
X231000Y410374D02*
X264500D01*
X227500Y413874D02*
X231000Y410374D01*
X227500Y413874D02*
Y438374D01*
X228346Y439221D01*
X304500Y342874D02*
Y354374D01*
X275500Y357374D02*
X301500D01*
X304500Y354374D01*
X285000Y362374D02*
X309500D01*
X314500Y342874D02*
Y357374D01*
X309500Y362374D02*
X314500Y357374D01*
X276750Y370624D02*
X285000Y362374D01*
X274500Y340874D02*
Y350374D01*
X268000Y364874D02*
Y372874D01*
X566787Y375874D02*
X567287Y376374D01*
X566787Y435874D02*
X567287Y436374D01*
X445874Y363374D02*
X458874Y350374D01*
X437374Y363374D02*
X445874D01*
X434374Y366374D02*
X437374Y363374D01*
X448874Y380374D02*
X461874Y393374D01*
X438874Y380374D02*
X448874D01*
X434374Y375874D02*
X438874Y380374D01*
X434374Y366374D02*
Y375874D01*
X461874Y393374D02*
Y402358D01*
X452374Y364874D02*
X459874Y357374D01*
X451874Y402358D02*
Y407374D01*
X448874Y410374D02*
X451874Y407374D01*
X412720Y439221D02*
X424720D01*
X427874Y436067D01*
Y433374D02*
Y436067D01*
X461874Y402358D02*
Y416874D01*
X445374Y433374D02*
X461874Y416874D01*
X437874Y433374D02*
X445374D01*
X415374Y410374D02*
X448874D01*
X411874Y413874D02*
X415374Y410374D01*
X411874Y413874D02*
Y438374D01*
X412720Y439221D01*
X488874Y342874D02*
Y354374D01*
X459874Y357374D02*
X485874D01*
X488874Y354374D01*
X469374Y362374D02*
X493874D01*
X498874Y342874D02*
Y357374D01*
X493874Y362374D02*
X498874Y357374D01*
X461124Y370624D02*
X469374Y362374D01*
X458874Y340874D02*
Y350374D01*
X452374Y364874D02*
Y372874D01*
D11*
X348413Y239000D02*
X382413D01*
X313413D02*
X348413D01*
Y299000D02*
X382413D01*
X313413D02*
X348413D01*
X532787Y239000D02*
X566787D01*
X497787D02*
X532787D01*
Y299000D02*
X566787D01*
X497787D02*
X532787D01*
X348413Y375874D02*
X382413D01*
X313413D02*
X348413D01*
Y435874D02*
X382413D01*
X313413D02*
X348413D01*
X532787Y375874D02*
X566787D01*
X497787D02*
X532787D01*
Y435874D02*
X566787D01*
X497787D02*
X532787D01*
D12*
X319199Y219977D02*
X318200D01*
X317700Y219477D01*
Y217478D01*
X318200Y216978D01*
X319199D01*
X319699Y217478D01*
Y219477D01*
X319199Y219977D01*
X320699D02*
Y217978D01*
X321699Y216978D01*
X322698Y217978D01*
Y219977D01*
X328696D02*
X326697D01*
Y218478D01*
X327697D01*
X326697D01*
Y216978D01*
X329696D02*
X330696D01*
X330196D01*
Y219977D01*
X329696D01*
X332695Y216978D02*
X333695D01*
X334195Y217478D01*
Y218478D01*
X333695Y218978D01*
X332695D01*
X332195Y218478D01*
Y217478D01*
X332695Y216978D01*
X335194Y215979D02*
Y218978D01*
X336694D01*
X337194Y218478D01*
Y217478D01*
X336694Y216978D01*
X335194D01*
X338193Y215979D02*
Y218978D01*
X339693D01*
X340193Y218478D01*
Y217478D01*
X339693Y216978D01*
X338193D01*
X341192Y218978D02*
Y217478D01*
X341692Y216978D01*
X343192D01*
Y216478D01*
X342692Y215979D01*
X342192D01*
X343192Y216978D02*
Y218978D01*
X344691Y219477D02*
Y218978D01*
X344191D01*
X345191D01*
X344691D01*
Y217478D01*
X345191Y216978D01*
X346691Y218978D02*
Y216978D01*
Y217978D01*
X347190Y218478D01*
X347690Y218978D01*
X348190D01*
X350189Y216978D02*
X351189D01*
X351689Y217478D01*
Y218478D01*
X351189Y218978D01*
X350189D01*
X349690Y218478D01*
Y217478D01*
X350189Y216978D01*
X352689D02*
Y218978D01*
X354188D01*
X354688Y218478D01*
Y216978D01*
X360686Y219477D02*
X360186Y219977D01*
X359187D01*
X358687Y219477D01*
Y218978D01*
X359187Y218478D01*
X360186D01*
X360686Y217978D01*
Y217478D01*
X360186Y216978D01*
X359187D01*
X358687Y217478D01*
X361686Y216978D02*
X362685D01*
X362186D01*
Y219977D01*
X361686D01*
X364685Y218978D02*
X365685D01*
X366184Y218478D01*
Y216978D01*
X364685D01*
X364185Y217478D01*
X364685Y217978D01*
X366184D01*
X367184Y218978D02*
X368184Y216978D01*
X369183Y218978D01*
X371683Y216978D02*
X370683D01*
X370183Y217478D01*
Y218478D01*
X370683Y218978D01*
X371683D01*
X372182Y218478D01*
Y217978D01*
X370183D01*
X376181Y219977D02*
Y217978D01*
X377181Y216978D01*
X378180Y217978D01*
Y219977D01*
X379180Y216978D02*
X380180D01*
X379680D01*
Y219977D01*
X379180Y219477D01*
X381679Y216978D02*
Y217478D01*
X382179D01*
Y216978D01*
X381679D01*
X384178Y219477D02*
X384678Y219977D01*
X385678D01*
X386178Y219477D01*
Y217478D01*
X385678Y216978D01*
X384678D01*
X384178Y217478D01*
Y219477D01*
X317700Y213699D02*
Y210700D01*
X319199D01*
X319699Y211199D01*
Y211699D01*
X319199Y212199D01*
X317700D01*
X319199D01*
X319699Y212699D01*
Y213199D01*
X319199Y213699D01*
X317700D01*
X320699Y212699D02*
Y211199D01*
X321199Y210700D01*
X322698D01*
Y210200D01*
X322199Y209700D01*
X321699D01*
X322698Y210700D02*
Y212699D01*
X323698D02*
X324198D01*
Y212199D01*
X323698D01*
Y212699D01*
Y211199D02*
X324198D01*
Y210700D01*
X323698D01*
Y211199D01*
X331196Y213699D02*
X329196D01*
Y212199D01*
X330196D01*
X329196D01*
Y210700D01*
X332195Y212699D02*
Y210700D01*
Y211699D01*
X332695Y212199D01*
X333195Y212699D01*
X333695D01*
X335694Y210700D02*
X336694D01*
X337194Y211199D01*
Y212199D01*
X336694Y212699D01*
X335694D01*
X335194Y212199D01*
Y211199D01*
X335694Y210700D01*
X340193Y213699D02*
Y210700D01*
X338693D01*
X338193Y211199D01*
Y212199D01*
X338693Y212699D01*
X340193D01*
X341692Y210700D02*
X342692D01*
X343192Y211199D01*
Y212199D01*
X342692Y212699D01*
X341692D01*
X341192Y212199D01*
Y211199D01*
X341692Y210700D01*
X344691Y210200D02*
X345191Y210700D01*
Y211199D01*
X344691D01*
Y210700D01*
X345191D01*
X344691Y210200D01*
X344191Y209700D01*
X352189Y213699D02*
X351189D01*
X351689D01*
Y211199D01*
X351189Y210700D01*
X350689D01*
X350189Y211199D01*
X353188Y212699D02*
Y211199D01*
X353688Y210700D01*
X355188D01*
Y212699D01*
X356188Y210700D02*
Y212699D01*
X357687D01*
X358187Y212199D01*
Y210700D01*
X360686D02*
X359686D01*
X359187Y211199D01*
Y212199D01*
X359686Y212699D01*
X360686D01*
X361186Y212199D01*
Y211699D01*
X359187D01*
X367184Y210700D02*
X365185D01*
X367184Y212699D01*
Y213199D01*
X366684Y213699D01*
X365685D01*
X365185Y213199D01*
X368184D02*
X368684Y213699D01*
X369683D01*
X370183Y213199D01*
Y211199D01*
X369683Y210700D01*
X368684D01*
X368184Y211199D01*
Y213199D01*
X371183Y210700D02*
X372182D01*
X371683D01*
Y213699D01*
X371183Y213199D01*
X373682Y213699D02*
X375681D01*
Y213199D01*
X373682Y211199D01*
Y210700D01*
X503574Y219977D02*
X502574D01*
X502074Y219477D01*
Y217478D01*
X502574Y216978D01*
X503574D01*
X504073Y217478D01*
Y219477D01*
X503574Y219977D01*
X505073D02*
Y217978D01*
X506073Y216978D01*
X507072Y217978D01*
Y219977D01*
X513070D02*
X511071D01*
Y218478D01*
X512071D01*
X511071D01*
Y216978D01*
X514070D02*
X515070D01*
X514570D01*
Y219977D01*
X514070D01*
X517069Y216978D02*
X518069D01*
X518569Y217478D01*
Y218478D01*
X518069Y218978D01*
X517069D01*
X516569Y218478D01*
Y217478D01*
X517069Y216978D01*
X519568Y215979D02*
Y218978D01*
X521068D01*
X521568Y218478D01*
Y217478D01*
X521068Y216978D01*
X519568D01*
X522567Y215979D02*
Y218978D01*
X524067D01*
X524567Y218478D01*
Y217478D01*
X524067Y216978D01*
X522567D01*
X525566Y218978D02*
Y217478D01*
X526066Y216978D01*
X527566D01*
Y216478D01*
X527066Y215979D01*
X526566D01*
X527566Y216978D02*
Y218978D01*
X529065Y219477D02*
Y218978D01*
X528566D01*
X529565D01*
X529065D01*
Y217478D01*
X529565Y216978D01*
X531065Y218978D02*
Y216978D01*
Y217978D01*
X531565Y218478D01*
X532064Y218978D01*
X532564D01*
X534563Y216978D02*
X535563D01*
X536063Y217478D01*
Y218478D01*
X535563Y218978D01*
X534563D01*
X534064Y218478D01*
Y217478D01*
X534563Y216978D01*
X537063D02*
Y218978D01*
X538562D01*
X539062Y218478D01*
Y216978D01*
X545060Y219477D02*
X544560Y219977D01*
X543561D01*
X543061Y219477D01*
Y218978D01*
X543561Y218478D01*
X544560D01*
X545060Y217978D01*
Y217478D01*
X544560Y216978D01*
X543561D01*
X543061Y217478D01*
X546060Y216978D02*
X547059D01*
X546560D01*
Y219977D01*
X546060D01*
X549059Y218978D02*
X550059D01*
X550558Y218478D01*
Y216978D01*
X549059D01*
X548559Y217478D01*
X549059Y217978D01*
X550558D01*
X551558Y218978D02*
X552558Y216978D01*
X553557Y218978D01*
X556057Y216978D02*
X555057D01*
X554557Y217478D01*
Y218478D01*
X555057Y218978D01*
X556057D01*
X556556Y218478D01*
Y217978D01*
X554557D01*
X560555Y219977D02*
Y217978D01*
X561555Y216978D01*
X562555Y217978D01*
Y219977D01*
X563554Y216978D02*
X564554D01*
X564054D01*
Y219977D01*
X563554Y219477D01*
X566053Y216978D02*
Y217478D01*
X566553D01*
Y216978D01*
X566053D01*
X568552Y219477D02*
X569052Y219977D01*
X570052D01*
X570552Y219477D01*
Y217478D01*
X570052Y216978D01*
X569052D01*
X568552Y217478D01*
Y219477D01*
X502074Y213699D02*
Y210700D01*
X503574D01*
X504073Y211199D01*
Y211699D01*
X503574Y212199D01*
X502074D01*
X503574D01*
X504073Y212699D01*
Y213199D01*
X503574Y213699D01*
X502074D01*
X505073Y212699D02*
Y211199D01*
X505573Y210700D01*
X507072D01*
Y210200D01*
X506573Y209700D01*
X506073D01*
X507072Y210700D02*
Y212699D01*
X508072D02*
X508572D01*
Y212199D01*
X508072D01*
Y212699D01*
Y211199D02*
X508572D01*
Y210700D01*
X508072D01*
Y211199D01*
X515570Y213699D02*
X513570D01*
Y212199D01*
X514570D01*
X513570D01*
Y210700D01*
X516569Y212699D02*
Y210700D01*
Y211699D01*
X517069Y212199D01*
X517569Y212699D01*
X518069D01*
X520068Y210700D02*
X521068D01*
X521568Y211199D01*
Y212199D01*
X521068Y212699D01*
X520068D01*
X519568Y212199D01*
Y211199D01*
X520068Y210700D01*
X524567Y213699D02*
Y210700D01*
X523067D01*
X522567Y211199D01*
Y212199D01*
X523067Y212699D01*
X524567D01*
X526066Y210700D02*
X527066D01*
X527566Y211199D01*
Y212199D01*
X527066Y212699D01*
X526066D01*
X525566Y212199D01*
Y211199D01*
X526066Y210700D01*
X529065Y210200D02*
X529565Y210700D01*
Y211199D01*
X529065D01*
Y210700D01*
X529565D01*
X529065Y210200D01*
X528566Y209700D01*
X536563Y213699D02*
X535563D01*
X536063D01*
Y211199D01*
X535563Y210700D01*
X535063D01*
X534563Y211199D01*
X537563Y212699D02*
Y211199D01*
X538062Y210700D01*
X539562D01*
Y212699D01*
X540562Y210700D02*
Y212699D01*
X542061D01*
X542561Y212199D01*
Y210700D01*
X545060D02*
X544061D01*
X543561Y211199D01*
Y212199D01*
X544061Y212699D01*
X545060D01*
X545560Y212199D01*
Y211699D01*
X543561D01*
X551558Y210700D02*
X549559D01*
X551558Y212699D01*
Y213199D01*
X551058Y213699D01*
X550059D01*
X549559Y213199D01*
X552558D02*
X553057Y213699D01*
X554057D01*
X554557Y213199D01*
Y211199D01*
X554057Y210700D01*
X553057D01*
X552558Y211199D01*
Y213199D01*
X555557Y210700D02*
X556556D01*
X556057D01*
Y213699D01*
X555557Y213199D01*
X558056Y213699D02*
X560055D01*
Y213199D01*
X558056Y211199D01*
Y210700D01*
X319199Y356851D02*
X318200D01*
X317700Y356351D01*
Y354352D01*
X318200Y353852D01*
X319199D01*
X319699Y354352D01*
Y356351D01*
X319199Y356851D01*
X320699D02*
Y354852D01*
X321699Y353852D01*
X322698Y354852D01*
Y356851D01*
X328696D02*
X326697D01*
Y355352D01*
X327697D01*
X326697D01*
Y353852D01*
X329696D02*
X330696D01*
X330196D01*
Y356851D01*
X329696D01*
X332695Y353852D02*
X333695D01*
X334195Y354352D01*
Y355352D01*
X333695Y355852D01*
X332695D01*
X332195Y355352D01*
Y354352D01*
X332695Y353852D01*
X335194Y352853D02*
Y355852D01*
X336694D01*
X337194Y355352D01*
Y354352D01*
X336694Y353852D01*
X335194D01*
X338193Y352853D02*
Y355852D01*
X339693D01*
X340193Y355352D01*
Y354352D01*
X339693Y353852D01*
X338193D01*
X341192Y355852D02*
Y354352D01*
X341692Y353852D01*
X343192D01*
Y353352D01*
X342692Y352853D01*
X342192D01*
X343192Y353852D02*
Y355852D01*
X344691Y356351D02*
Y355852D01*
X344191D01*
X345191D01*
X344691D01*
Y354352D01*
X345191Y353852D01*
X346691Y355852D02*
Y353852D01*
Y354852D01*
X347190Y355352D01*
X347690Y355852D01*
X348190D01*
X350189Y353852D02*
X351189D01*
X351689Y354352D01*
Y355352D01*
X351189Y355852D01*
X350189D01*
X349690Y355352D01*
Y354352D01*
X350189Y353852D01*
X352689D02*
Y355852D01*
X354188D01*
X354688Y355352D01*
Y353852D01*
X360686Y356351D02*
X360186Y356851D01*
X359187D01*
X358687Y356351D01*
Y355852D01*
X359187Y355352D01*
X360186D01*
X360686Y354852D01*
Y354352D01*
X360186Y353852D01*
X359187D01*
X358687Y354352D01*
X361686Y353852D02*
X362685D01*
X362186D01*
Y356851D01*
X361686D01*
X364685Y355852D02*
X365685D01*
X366184Y355352D01*
Y353852D01*
X364685D01*
X364185Y354352D01*
X364685Y354852D01*
X366184D01*
X367184Y355852D02*
X368184Y353852D01*
X369183Y355852D01*
X371683Y353852D02*
X370683D01*
X370183Y354352D01*
Y355352D01*
X370683Y355852D01*
X371683D01*
X372182Y355352D01*
Y354852D01*
X370183D01*
X376181Y356851D02*
Y354852D01*
X377181Y353852D01*
X378180Y354852D01*
Y356851D01*
X379180Y353852D02*
X380180D01*
X379680D01*
Y356851D01*
X379180Y356351D01*
X381679Y353852D02*
Y354352D01*
X382179D01*
Y353852D01*
X381679D01*
X384178Y356351D02*
X384678Y356851D01*
X385678D01*
X386178Y356351D01*
Y354352D01*
X385678Y353852D01*
X384678D01*
X384178Y354352D01*
Y356351D01*
X317700Y350573D02*
Y347574D01*
X319199D01*
X319699Y348074D01*
Y348573D01*
X319199Y349073D01*
X317700D01*
X319199D01*
X319699Y349573D01*
Y350073D01*
X319199Y350573D01*
X317700D01*
X320699Y349573D02*
Y348074D01*
X321199Y347574D01*
X322698D01*
Y347074D01*
X322199Y346574D01*
X321699D01*
X322698Y347574D02*
Y349573D01*
X323698D02*
X324198D01*
Y349073D01*
X323698D01*
Y349573D01*
Y348074D02*
X324198D01*
Y347574D01*
X323698D01*
Y348074D01*
X331196Y350573D02*
X329196D01*
Y349073D01*
X330196D01*
X329196D01*
Y347574D01*
X332195Y349573D02*
Y347574D01*
Y348573D01*
X332695Y349073D01*
X333195Y349573D01*
X333695D01*
X335694Y347574D02*
X336694D01*
X337194Y348074D01*
Y349073D01*
X336694Y349573D01*
X335694D01*
X335194Y349073D01*
Y348074D01*
X335694Y347574D01*
X340193Y350573D02*
Y347574D01*
X338693D01*
X338193Y348074D01*
Y349073D01*
X338693Y349573D01*
X340193D01*
X341692Y347574D02*
X342692D01*
X343192Y348074D01*
Y349073D01*
X342692Y349573D01*
X341692D01*
X341192Y349073D01*
Y348074D01*
X341692Y347574D01*
X344691Y347074D02*
X345191Y347574D01*
Y348074D01*
X344691D01*
Y347574D01*
X345191D01*
X344691Y347074D01*
X344191Y346574D01*
X352189Y350573D02*
X351189D01*
X351689D01*
Y348074D01*
X351189Y347574D01*
X350689D01*
X350189Y348074D01*
X353188Y349573D02*
Y348074D01*
X353688Y347574D01*
X355188D01*
Y349573D01*
X356188Y347574D02*
Y349573D01*
X357687D01*
X358187Y349073D01*
Y347574D01*
X360686D02*
X359686D01*
X359187Y348074D01*
Y349073D01*
X359686Y349573D01*
X360686D01*
X361186Y349073D01*
Y348573D01*
X359187D01*
X367184Y347574D02*
X365185D01*
X367184Y349573D01*
Y350073D01*
X366684Y350573D01*
X365685D01*
X365185Y350073D01*
X368184D02*
X368684Y350573D01*
X369683D01*
X370183Y350073D01*
Y348074D01*
X369683Y347574D01*
X368684D01*
X368184Y348074D01*
Y350073D01*
X371183Y347574D02*
X372182D01*
X371683D01*
Y350573D01*
X371183Y350073D01*
X373682Y350573D02*
X375681D01*
Y350073D01*
X373682Y348074D01*
Y347574D01*
X503574Y356851D02*
X502574D01*
X502074Y356351D01*
Y354352D01*
X502574Y353852D01*
X503574D01*
X504073Y354352D01*
Y356351D01*
X503574Y356851D01*
X505073D02*
Y354852D01*
X506073Y353852D01*
X507072Y354852D01*
Y356851D01*
X513070D02*
X511071D01*
Y355352D01*
X512071D01*
X511071D01*
Y353852D01*
X514070D02*
X515070D01*
X514570D01*
Y356851D01*
X514070D01*
X517069Y353852D02*
X518069D01*
X518569Y354352D01*
Y355352D01*
X518069Y355852D01*
X517069D01*
X516569Y355352D01*
Y354352D01*
X517069Y353852D01*
X519568Y352853D02*
Y355852D01*
X521068D01*
X521568Y355352D01*
Y354352D01*
X521068Y353852D01*
X519568D01*
X522567Y352853D02*
Y355852D01*
X524067D01*
X524567Y355352D01*
Y354352D01*
X524067Y353852D01*
X522567D01*
X525566Y355852D02*
Y354352D01*
X526066Y353852D01*
X527566D01*
Y353352D01*
X527066Y352853D01*
X526566D01*
X527566Y353852D02*
Y355852D01*
X529065Y356351D02*
Y355852D01*
X528566D01*
X529565D01*
X529065D01*
Y354352D01*
X529565Y353852D01*
X531065Y355852D02*
Y353852D01*
Y354852D01*
X531565Y355352D01*
X532064Y355852D01*
X532564D01*
X534563Y353852D02*
X535563D01*
X536063Y354352D01*
Y355352D01*
X535563Y355852D01*
X534563D01*
X534064Y355352D01*
Y354352D01*
X534563Y353852D01*
X537063D02*
Y355852D01*
X538562D01*
X539062Y355352D01*
Y353852D01*
X545060Y356351D02*
X544560Y356851D01*
X543561D01*
X543061Y356351D01*
Y355852D01*
X543561Y355352D01*
X544560D01*
X545060Y354852D01*
Y354352D01*
X544560Y353852D01*
X543561D01*
X543061Y354352D01*
X546060Y353852D02*
X547059D01*
X546560D01*
Y356851D01*
X546060D01*
X549059Y355852D02*
X550059D01*
X550558Y355352D01*
Y353852D01*
X549059D01*
X548559Y354352D01*
X549059Y354852D01*
X550558D01*
X551558Y355852D02*
X552558Y353852D01*
X553557Y355852D01*
X556057Y353852D02*
X555057D01*
X554557Y354352D01*
Y355352D01*
X555057Y355852D01*
X556057D01*
X556556Y355352D01*
Y354852D01*
X554557D01*
X560555Y356851D02*
Y354852D01*
X561555Y353852D01*
X562555Y354852D01*
Y356851D01*
X563554Y353852D02*
X564554D01*
X564054D01*
Y356851D01*
X563554Y356351D01*
X566053Y353852D02*
Y354352D01*
X566553D01*
Y353852D01*
X566053D01*
X568552Y356351D02*
X569052Y356851D01*
X570052D01*
X570552Y356351D01*
Y354352D01*
X570052Y353852D01*
X569052D01*
X568552Y354352D01*
Y356351D01*
X502074Y350573D02*
Y347574D01*
X503574D01*
X504073Y348074D01*
Y348573D01*
X503574Y349073D01*
X502074D01*
X503574D01*
X504073Y349573D01*
Y350073D01*
X503574Y350573D01*
X502074D01*
X505073Y349573D02*
Y348074D01*
X505573Y347574D01*
X507072D01*
Y347074D01*
X506573Y346574D01*
X506073D01*
X507072Y347574D02*
Y349573D01*
X508072D02*
X508572D01*
Y349073D01*
X508072D01*
Y349573D01*
Y348074D02*
X508572D01*
Y347574D01*
X508072D01*
Y348074D01*
X515570Y350573D02*
X513570D01*
Y349073D01*
X514570D01*
X513570D01*
Y347574D01*
X516569Y349573D02*
Y347574D01*
Y348573D01*
X517069Y349073D01*
X517569Y349573D01*
X518069D01*
X520068Y347574D02*
X521068D01*
X521568Y348074D01*
Y349073D01*
X521068Y349573D01*
X520068D01*
X519568Y349073D01*
Y348074D01*
X520068Y347574D01*
X524567Y350573D02*
Y347574D01*
X523067D01*
X522567Y348074D01*
Y349073D01*
X523067Y349573D01*
X524567D01*
X526066Y347574D02*
X527066D01*
X527566Y348074D01*
Y349073D01*
X527066Y349573D01*
X526066D01*
X525566Y349073D01*
Y348074D01*
X526066Y347574D01*
X529065Y347074D02*
X529565Y347574D01*
Y348074D01*
X529065D01*
Y347574D01*
X529565D01*
X529065Y347074D01*
X528566Y346574D01*
X536563Y350573D02*
X535563D01*
X536063D01*
Y348074D01*
X535563Y347574D01*
X535063D01*
X534563Y348074D01*
X537563Y349573D02*
Y348074D01*
X538062Y347574D01*
X539562D01*
Y349573D01*
X540562Y347574D02*
Y349573D01*
X542061D01*
X542561Y349073D01*
Y347574D01*
X545060D02*
X544061D01*
X543561Y348074D01*
Y349073D01*
X544061Y349573D01*
X545060D01*
X545560Y349073D01*
Y348573D01*
X543561D01*
X551558Y347574D02*
X549559D01*
X551558Y349573D01*
Y350073D01*
X551058Y350573D01*
X550059D01*
X549559Y350073D01*
X552558D02*
X553057Y350573D01*
X554057D01*
X554557Y350073D01*
Y348074D01*
X554057Y347574D01*
X553057D01*
X552558Y348074D01*
Y350073D01*
X555557Y347574D02*
X556556D01*
X556057D01*
Y350573D01*
X555557Y350073D01*
X558056Y350573D02*
X560055D01*
Y350073D01*
X558056Y348074D01*
Y347574D01*
D13*
X241000Y260685D02*
D03*
Y241000D02*
D03*
X281000Y299874D02*
D03*
Y292000D02*
D03*
X425374Y260685D02*
D03*
Y241000D02*
D03*
X465374Y299874D02*
D03*
Y292000D02*
D03*
X241000Y397559D02*
D03*
Y377874D02*
D03*
X281000Y436748D02*
D03*
Y428874D02*
D03*
X425374Y397559D02*
D03*
Y377874D02*
D03*
X465374Y436748D02*
D03*
Y428874D02*
D03*
D14*
X313413Y299000D02*
D03*
Y279000D02*
D03*
Y259000D02*
D03*
X348413Y299000D02*
D03*
Y279000D02*
D03*
Y259000D02*
D03*
X382913Y299500D02*
D03*
Y279500D02*
D03*
Y259500D02*
D03*
X497787Y299000D02*
D03*
Y279000D02*
D03*
Y259000D02*
D03*
X532787Y299000D02*
D03*
Y279000D02*
D03*
Y259000D02*
D03*
X567287Y299500D02*
D03*
Y279500D02*
D03*
Y259500D02*
D03*
X313413Y435874D02*
D03*
Y415874D02*
D03*
Y395874D02*
D03*
X348413Y435874D02*
D03*
Y415874D02*
D03*
Y395874D02*
D03*
X382913Y436374D02*
D03*
Y416374D02*
D03*
Y396374D02*
D03*
X497787Y435874D02*
D03*
Y415874D02*
D03*
Y395874D02*
D03*
X532787Y435874D02*
D03*
Y415874D02*
D03*
Y395874D02*
D03*
X567287Y436374D02*
D03*
Y416374D02*
D03*
Y396374D02*
D03*
D15*
X313413Y239000D02*
D03*
X348413D02*
D03*
X382913Y239500D02*
D03*
X497787Y239000D02*
D03*
X532787D02*
D03*
X567287Y239500D02*
D03*
X313413Y375874D02*
D03*
X348413D02*
D03*
X382913Y376374D02*
D03*
X497787Y375874D02*
D03*
X532787D02*
D03*
X567287Y376374D02*
D03*
D16*
X253500Y296500D02*
D03*
X437874D02*
D03*
X253500Y433374D02*
D03*
X437874D02*
D03*
D17*
X253500Y286500D02*
D03*
X243500Y296500D02*
D03*
Y286500D02*
D03*
X233500Y296500D02*
D03*
Y286500D02*
D03*
X437874D02*
D03*
X427874Y296500D02*
D03*
Y286500D02*
D03*
X417874Y296500D02*
D03*
Y286500D02*
D03*
X253500Y423374D02*
D03*
X243500Y433374D02*
D03*
Y423374D02*
D03*
X233500Y433374D02*
D03*
Y423374D02*
D03*
X437874D02*
D03*
X427874Y433374D02*
D03*
Y423374D02*
D03*
X417874Y433374D02*
D03*
Y423374D02*
D03*
D18*
X257500Y234500D02*
D03*
X441874D02*
D03*
X257500Y371374D02*
D03*
X441874D02*
D03*
D19*
X267500Y234500D02*
D03*
X277500D02*
D03*
X287500D02*
D03*
X257500Y265484D02*
D03*
X267500D02*
D03*
X277500D02*
D03*
X287500D02*
D03*
X451874Y234500D02*
D03*
X461874D02*
D03*
X471874D02*
D03*
X441874Y265484D02*
D03*
X451874D02*
D03*
X461874D02*
D03*
X471874D02*
D03*
X267500Y371374D02*
D03*
X277500D02*
D03*
X287500D02*
D03*
X257500Y402358D02*
D03*
X267500D02*
D03*
X277500D02*
D03*
X287500D02*
D03*
X451874Y371374D02*
D03*
X461874D02*
D03*
X471874D02*
D03*
X441874Y402358D02*
D03*
X451874D02*
D03*
X461874D02*
D03*
X471874D02*
D03*
D20*
X385500Y204000D02*
D03*
Y194000D02*
D03*
X375500Y204000D02*
D03*
Y194000D02*
D03*
X365500Y204000D02*
D03*
Y194000D02*
D03*
X355500Y204000D02*
D03*
Y194000D02*
D03*
X345500Y204000D02*
D03*
Y194000D02*
D03*
X335500Y204000D02*
D03*
Y194000D02*
D03*
X325500Y204000D02*
D03*
Y194000D02*
D03*
X315500Y204000D02*
D03*
Y194000D02*
D03*
X305500Y204000D02*
D03*
Y194000D02*
D03*
X295500Y204000D02*
D03*
Y194000D02*
D03*
X285500Y204000D02*
D03*
Y194000D02*
D03*
X275500Y204000D02*
D03*
Y194000D02*
D03*
X265500Y204000D02*
D03*
Y194000D02*
D03*
X255500Y204000D02*
D03*
Y194000D02*
D03*
X245500Y204000D02*
D03*
Y194000D02*
D03*
X235500Y204000D02*
D03*
Y194000D02*
D03*
X225500Y204000D02*
D03*
Y194000D02*
D03*
X569874Y204000D02*
D03*
Y194000D02*
D03*
X559874Y204000D02*
D03*
Y194000D02*
D03*
X549874Y204000D02*
D03*
Y194000D02*
D03*
X539874Y204000D02*
D03*
Y194000D02*
D03*
X529874Y204000D02*
D03*
Y194000D02*
D03*
X519874Y204000D02*
D03*
Y194000D02*
D03*
X509874Y204000D02*
D03*
Y194000D02*
D03*
X499874Y204000D02*
D03*
Y194000D02*
D03*
X489874Y204000D02*
D03*
Y194000D02*
D03*
X479874Y204000D02*
D03*
Y194000D02*
D03*
X469874Y204000D02*
D03*
Y194000D02*
D03*
X459874Y204000D02*
D03*
Y194000D02*
D03*
X449874Y204000D02*
D03*
Y194000D02*
D03*
X439874Y204000D02*
D03*
Y194000D02*
D03*
X429874Y204000D02*
D03*
Y194000D02*
D03*
X419874Y204000D02*
D03*
Y194000D02*
D03*
X409874Y204000D02*
D03*
Y194000D02*
D03*
X385500Y340874D02*
D03*
Y330874D02*
D03*
X375500Y340874D02*
D03*
Y330874D02*
D03*
X365500Y340874D02*
D03*
Y330874D02*
D03*
X355500Y340874D02*
D03*
Y330874D02*
D03*
X345500Y340874D02*
D03*
Y330874D02*
D03*
X335500Y340874D02*
D03*
Y330874D02*
D03*
X325500Y340874D02*
D03*
Y330874D02*
D03*
X315500Y340874D02*
D03*
Y330874D02*
D03*
X305500Y340874D02*
D03*
Y330874D02*
D03*
X295500Y340874D02*
D03*
Y330874D02*
D03*
X285500Y340874D02*
D03*
Y330874D02*
D03*
X275500Y340874D02*
D03*
Y330874D02*
D03*
X265500Y340874D02*
D03*
Y330874D02*
D03*
X255500Y340874D02*
D03*
Y330874D02*
D03*
X245500Y340874D02*
D03*
Y330874D02*
D03*
X235500Y340874D02*
D03*
Y330874D02*
D03*
X225500Y340874D02*
D03*
Y330874D02*
D03*
X569874Y340874D02*
D03*
Y330874D02*
D03*
X559874Y340874D02*
D03*
Y330874D02*
D03*
X549874Y340874D02*
D03*
Y330874D02*
D03*
X539874Y340874D02*
D03*
Y330874D02*
D03*
X529874Y340874D02*
D03*
Y330874D02*
D03*
X519874Y340874D02*
D03*
Y330874D02*
D03*
X509874Y340874D02*
D03*
Y330874D02*
D03*
X499874Y340874D02*
D03*
Y330874D02*
D03*
X489874Y340874D02*
D03*
Y330874D02*
D03*
X479874Y340874D02*
D03*
Y330874D02*
D03*
X469874Y340874D02*
D03*
Y330874D02*
D03*
X459874Y340874D02*
D03*
Y330874D02*
D03*
X449874Y340874D02*
D03*
Y330874D02*
D03*
X439874Y340874D02*
D03*
Y330874D02*
D03*
X429874Y340874D02*
D03*
Y330874D02*
D03*
X419874Y340874D02*
D03*
Y330874D02*
D03*
X409874Y340874D02*
D03*
Y330874D02*
D03*
M02*
