G04 Layer_Physical_Order=1*
G04 Layer_Color=255*
%FSLAX25Y25*%
%MOIN*%
G70*
G01*
G75*
%ADD10C,0.03000*%
%ADD11C,0.07000*%
%ADD12C,0.00700*%
%ADD13C,0.07087*%
%ADD14C,0.05906*%
%ADD15R,0.05906X0.05906*%
%ADD16C,0.05118*%
%ADD17C,0.06693*%
%ADD18R,0.06693X0.06693*%
%ADD19R,0.13780X0.13780*%
%ADD20C,0.13780*%
G36*
X174780Y1220D02*
X1220D01*
Y5832D01*
X1269Y5841D01*
X1531Y5209D01*
X2260Y4260D01*
X3209Y3531D01*
X4314Y3074D01*
X5000Y2983D01*
Y7500D01*
Y12017D01*
X4314Y11926D01*
X3209Y11468D01*
X2260Y10740D01*
X1531Y9791D01*
X1269Y9159D01*
X1220Y9168D01*
Y15832D01*
X1269Y15842D01*
X1531Y15209D01*
X2260Y14260D01*
X3209Y13531D01*
X4314Y13074D01*
X5500Y12918D01*
X6686Y13074D01*
X7791Y13531D01*
X8740Y14260D01*
X9469Y15209D01*
X9926Y16314D01*
X10082Y17500D01*
X9926Y18686D01*
X9469Y19791D01*
X8740Y20740D01*
X7791Y21468D01*
X6686Y21926D01*
X5500Y22083D01*
X4314Y21926D01*
X3209Y21468D01*
X2260Y20740D01*
X1531Y19791D01*
X1269Y19159D01*
X1220Y19168D01*
Y127780D01*
X174780D01*
Y1220D01*
D02*
G37*
%LPC*%
G36*
X95000Y12017D02*
X94314Y11926D01*
X93209Y11468D01*
X92260Y10740D01*
X91531Y9791D01*
X91074Y8686D01*
X90983Y8000D01*
X95000D01*
Y12017D01*
D02*
G37*
G36*
X75000D02*
X74314Y11926D01*
X73209Y11468D01*
X72260Y10740D01*
X71531Y9791D01*
X71074Y8686D01*
X70983Y8000D01*
X75000D01*
Y12017D01*
D02*
G37*
G36*
X85000D02*
X84314Y11926D01*
X83209Y11468D01*
X82260Y10740D01*
X81531Y9791D01*
X81074Y8686D01*
X80983Y8000D01*
X85000D01*
Y12017D01*
D02*
G37*
G36*
X125000D02*
X124314Y11926D01*
X123209Y11468D01*
X122260Y10740D01*
X121531Y9791D01*
X121074Y8686D01*
X120983Y8000D01*
X125000D01*
Y12017D01*
D02*
G37*
G36*
X135000D02*
X134314Y11926D01*
X133209Y11468D01*
X132260Y10740D01*
X131531Y9791D01*
X131074Y8686D01*
X130983Y8000D01*
X135000D01*
Y12017D01*
D02*
G37*
G36*
X105000D02*
X104314Y11926D01*
X103209Y11468D01*
X102260Y10740D01*
X101531Y9791D01*
X101074Y8686D01*
X100983Y8000D01*
X105000D01*
Y12017D01*
D02*
G37*
G36*
X115000D02*
X114314Y11926D01*
X113209Y11468D01*
X112260Y10740D01*
X111531Y9791D01*
X111074Y8686D01*
X110983Y8000D01*
X115000D01*
Y12017D01*
D02*
G37*
G36*
X65000D02*
X64314Y11926D01*
X63209Y11468D01*
X62260Y10740D01*
X61531Y9791D01*
X61074Y8686D01*
X60983Y8000D01*
X65000D01*
Y12017D01*
D02*
G37*
G36*
X15000D02*
X14314Y11926D01*
X13209Y11468D01*
X12260Y10740D01*
X11531Y9791D01*
X11074Y8686D01*
X10983Y8000D01*
X15000D01*
Y12017D01*
D02*
G37*
G36*
X170017Y7000D02*
X166000D01*
Y2983D01*
X166686Y3074D01*
X167791Y3531D01*
X168740Y4260D01*
X169469Y5209D01*
X169926Y6314D01*
X170017Y7000D01*
D02*
G37*
G36*
X160017D02*
X156000D01*
Y2983D01*
X156686Y3074D01*
X157791Y3531D01*
X158740Y4260D01*
X159469Y5209D01*
X159926Y6314D01*
X160017Y7000D01*
D02*
G37*
G36*
X25000Y12017D02*
X24314Y11926D01*
X23209Y11468D01*
X22260Y10740D01*
X21531Y9791D01*
X21074Y8686D01*
X20983Y8000D01*
X25000D01*
Y12017D01*
D02*
G37*
G36*
X55000D02*
X54314Y11926D01*
X53209Y11468D01*
X52260Y10740D01*
X51531Y9791D01*
X51074Y8686D01*
X50983Y8000D01*
X55000D01*
Y12017D01*
D02*
G37*
G36*
X45000D02*
X44314Y11926D01*
X43209Y11468D01*
X42260Y10740D01*
X41531Y9791D01*
X41074Y8686D01*
X40983Y8000D01*
X45000D01*
Y12017D01*
D02*
G37*
G36*
X35000D02*
X34314Y11926D01*
X33209Y11468D01*
X32260Y10740D01*
X31531Y9791D01*
X31074Y8686D01*
X30983Y8000D01*
X35000D01*
Y12017D01*
D02*
G37*
G36*
X76000D02*
Y8000D01*
X80017D01*
X79926Y8686D01*
X79469Y9791D01*
X78740Y10740D01*
X77791Y11468D01*
X76686Y11926D01*
X76000Y12017D01*
D02*
G37*
G36*
X66000D02*
Y8000D01*
X70017D01*
X69926Y8686D01*
X69469Y9791D01*
X68740Y10740D01*
X67791Y11468D01*
X66686Y11926D01*
X66000Y12017D01*
D02*
G37*
G36*
X56000D02*
Y8000D01*
X60017D01*
X59926Y8686D01*
X59469Y9791D01*
X58740Y10740D01*
X57791Y11468D01*
X56686Y11926D01*
X56000Y12017D01*
D02*
G37*
G36*
X86000D02*
Y8000D01*
X90017D01*
X89926Y8686D01*
X89469Y9791D01*
X88740Y10740D01*
X87791Y11468D01*
X86686Y11926D01*
X86000Y12017D01*
D02*
G37*
G36*
X116000D02*
Y8000D01*
X120017D01*
X119926Y8686D01*
X119469Y9791D01*
X118740Y10740D01*
X117791Y11468D01*
X116686Y11926D01*
X116000Y12017D01*
D02*
G37*
G36*
X106000D02*
Y8000D01*
X110017D01*
X109926Y8686D01*
X109469Y9791D01*
X108740Y10740D01*
X107791Y11468D01*
X106686Y11926D01*
X106000Y12017D01*
D02*
G37*
G36*
X96000D02*
Y8000D01*
X100017D01*
X99926Y8686D01*
X99469Y9791D01*
X98740Y10740D01*
X97791Y11468D01*
X96686Y11926D01*
X96000Y12017D01*
D02*
G37*
G36*
X46000D02*
Y8000D01*
X50017D01*
X49926Y8686D01*
X49469Y9791D01*
X48740Y10740D01*
X47791Y11468D01*
X46686Y11926D01*
X46000Y12017D01*
D02*
G37*
G36*
X165000D02*
X164314Y11926D01*
X163209Y11468D01*
X162260Y10740D01*
X161531Y9791D01*
X161074Y8686D01*
X160983Y8000D01*
X165000D01*
Y12017D01*
D02*
G37*
G36*
X155000D02*
X154314Y11926D01*
X153209Y11468D01*
X152260Y10740D01*
X151531Y9791D01*
X151074Y8686D01*
X150983Y8000D01*
X155000D01*
Y12017D01*
D02*
G37*
G36*
X145000D02*
X144314Y11926D01*
X143209Y11468D01*
X142260Y10740D01*
X141531Y9791D01*
X141074Y8686D01*
X140983Y8000D01*
X145000D01*
Y12017D01*
D02*
G37*
G36*
X6000D02*
Y8000D01*
X10017D01*
X9926Y8686D01*
X9469Y9791D01*
X8740Y10740D01*
X7791Y11468D01*
X6686Y11926D01*
X6000Y12017D01*
D02*
G37*
G36*
X36000D02*
Y8000D01*
X40017D01*
X39926Y8686D01*
X39469Y9791D01*
X38740Y10740D01*
X37791Y11468D01*
X36686Y11926D01*
X36000Y12017D01*
D02*
G37*
G36*
X26000D02*
Y8000D01*
X30017D01*
X29926Y8686D01*
X29469Y9791D01*
X28740Y10740D01*
X27791Y11468D01*
X26686Y11926D01*
X26000Y12017D01*
D02*
G37*
G36*
X16000D02*
Y8000D01*
X20017D01*
X19926Y8686D01*
X19469Y9791D01*
X18740Y10740D01*
X17791Y11468D01*
X16686Y11926D01*
X16000Y12017D01*
D02*
G37*
G36*
X115000Y7000D02*
X110983D01*
X111074Y6314D01*
X111531Y5209D01*
X112260Y4260D01*
X113209Y3531D01*
X114314Y3074D01*
X115000Y2983D01*
Y7000D01*
D02*
G37*
G36*
X105000D02*
X100983D01*
X101074Y6314D01*
X101531Y5209D01*
X102260Y4260D01*
X103209Y3531D01*
X104314Y3074D01*
X105000Y2983D01*
Y7000D01*
D02*
G37*
G36*
X95000D02*
X90983D01*
X91074Y6314D01*
X91531Y5209D01*
X92260Y4260D01*
X93209Y3531D01*
X94314Y3074D01*
X95000Y2983D01*
Y7000D01*
D02*
G37*
G36*
X125000D02*
X120983D01*
X121074Y6314D01*
X121531Y5209D01*
X122260Y4260D01*
X123209Y3531D01*
X124314Y3074D01*
X125000Y2983D01*
Y7000D01*
D02*
G37*
G36*
X155000D02*
X150983D01*
X151074Y6314D01*
X151531Y5209D01*
X152260Y4260D01*
X153209Y3531D01*
X154314Y3074D01*
X155000Y2983D01*
Y7000D01*
D02*
G37*
G36*
X145000D02*
X140983D01*
X141074Y6314D01*
X141531Y5209D01*
X142260Y4260D01*
X143209Y3531D01*
X144314Y3074D01*
X145000Y2983D01*
Y7000D01*
D02*
G37*
G36*
X135000D02*
X130983D01*
X131074Y6314D01*
X131531Y5209D01*
X132260Y4260D01*
X133209Y3531D01*
X134314Y3074D01*
X135000Y2983D01*
Y7000D01*
D02*
G37*
G36*
X85000D02*
X80983D01*
X81074Y6314D01*
X81531Y5209D01*
X82260Y4260D01*
X83209Y3531D01*
X84314Y3074D01*
X85000Y2983D01*
Y7000D01*
D02*
G37*
G36*
X35000D02*
X30983D01*
X31074Y6314D01*
X31531Y5209D01*
X32260Y4260D01*
X33209Y3531D01*
X34314Y3074D01*
X35000Y2983D01*
Y7000D01*
D02*
G37*
G36*
X25000D02*
X20983D01*
X21074Y6314D01*
X21531Y5209D01*
X22260Y4260D01*
X23209Y3531D01*
X24314Y3074D01*
X25000Y2983D01*
Y7000D01*
D02*
G37*
G36*
X15000D02*
X10983D01*
X11074Y6314D01*
X11531Y5209D01*
X12260Y4260D01*
X13209Y3531D01*
X14314Y3074D01*
X15000Y2983D01*
Y7000D01*
D02*
G37*
G36*
X45000D02*
X40983D01*
X41074Y6314D01*
X41531Y5209D01*
X42260Y4260D01*
X43209Y3531D01*
X44314Y3074D01*
X45000Y2983D01*
Y7000D01*
D02*
G37*
G36*
X75000D02*
X70983D01*
X71074Y6314D01*
X71531Y5209D01*
X72260Y4260D01*
X73209Y3531D01*
X74314Y3074D01*
X75000Y2983D01*
Y7000D01*
D02*
G37*
G36*
X65000D02*
X60983D01*
X61074Y6314D01*
X61531Y5209D01*
X62260Y4260D01*
X63209Y3531D01*
X64314Y3074D01*
X65000Y2983D01*
Y7000D01*
D02*
G37*
G36*
X55000D02*
X50983D01*
X51074Y6314D01*
X51531Y5209D01*
X52260Y4260D01*
X53209Y3531D01*
X54314Y3074D01*
X55000Y2983D01*
Y7000D01*
D02*
G37*
G36*
X165000D02*
X160983D01*
X161074Y6314D01*
X161531Y5209D01*
X162260Y4260D01*
X163209Y3531D01*
X164314Y3074D01*
X165000Y2983D01*
Y7000D01*
D02*
G37*
G36*
X110017D02*
X106000D01*
Y2983D01*
X106686Y3074D01*
X107791Y3531D01*
X108740Y4260D01*
X109469Y5209D01*
X109926Y6314D01*
X110017Y7000D01*
D02*
G37*
G36*
X100017D02*
X96000D01*
Y2983D01*
X96686Y3074D01*
X97791Y3531D01*
X98740Y4260D01*
X99469Y5209D01*
X99926Y6314D01*
X100017Y7000D01*
D02*
G37*
G36*
X90017D02*
X86000D01*
Y2983D01*
X86686Y3074D01*
X87791Y3531D01*
X88740Y4260D01*
X89469Y5209D01*
X89926Y6314D01*
X90017Y7000D01*
D02*
G37*
G36*
X120017D02*
X116000D01*
Y2983D01*
X116686Y3074D01*
X117791Y3531D01*
X118740Y4260D01*
X119469Y5209D01*
X119926Y6314D01*
X120017Y7000D01*
D02*
G37*
G36*
X150017D02*
X146000D01*
Y2983D01*
X146686Y3074D01*
X147791Y3531D01*
X148740Y4260D01*
X149469Y5209D01*
X149926Y6314D01*
X150017Y7000D01*
D02*
G37*
G36*
X140017D02*
X136000D01*
Y2983D01*
X136686Y3074D01*
X137791Y3531D01*
X138740Y4260D01*
X139469Y5209D01*
X139926Y6314D01*
X140017Y7000D01*
D02*
G37*
G36*
X130017D02*
X126000D01*
Y2983D01*
X126686Y3074D01*
X127791Y3531D01*
X128740Y4260D01*
X129469Y5209D01*
X129926Y6314D01*
X130017Y7000D01*
D02*
G37*
G36*
X80017D02*
X76000D01*
Y2983D01*
X76686Y3074D01*
X77791Y3531D01*
X78740Y4260D01*
X79469Y5209D01*
X79926Y6314D01*
X80017Y7000D01*
D02*
G37*
G36*
X30017D02*
X26000D01*
Y2983D01*
X26686Y3074D01*
X27791Y3531D01*
X28740Y4260D01*
X29469Y5209D01*
X29926Y6314D01*
X30017Y7000D01*
D02*
G37*
G36*
X20017D02*
X16000D01*
Y2983D01*
X16686Y3074D01*
X17791Y3531D01*
X18740Y4260D01*
X19469Y5209D01*
X19926Y6314D01*
X20017Y7000D01*
D02*
G37*
G36*
X10017D02*
X6000D01*
Y2983D01*
X6686Y3074D01*
X7791Y3531D01*
X8740Y4260D01*
X9469Y5209D01*
X9926Y6314D01*
X10017Y7000D01*
D02*
G37*
G36*
X40017D02*
X36000D01*
Y2983D01*
X36686Y3074D01*
X37791Y3531D01*
X38740Y4260D01*
X39469Y5209D01*
X39926Y6314D01*
X40017Y7000D01*
D02*
G37*
G36*
X70017D02*
X66000D01*
Y2983D01*
X66686Y3074D01*
X67791Y3531D01*
X68740Y4260D01*
X69469Y5209D01*
X69926Y6314D01*
X70017Y7000D01*
D02*
G37*
G36*
X60017D02*
X56000D01*
Y2983D01*
X56686Y3074D01*
X57791Y3531D01*
X58740Y4260D01*
X59469Y5209D01*
X59926Y6314D01*
X60017Y7000D01*
D02*
G37*
G36*
X50017D02*
X46000D01*
Y2983D01*
X46686Y3074D01*
X47791Y3531D01*
X48740Y4260D01*
X49469Y5209D01*
X49926Y6314D01*
X50017Y7000D01*
D02*
G37*
G36*
X127913Y92000D02*
X120535D01*
X120638Y90953D01*
X121089Y89466D01*
X121821Y88095D01*
X122807Y86894D01*
X124009Y85908D01*
X125379Y85176D01*
X126867Y84724D01*
X127913Y84621D01*
Y92000D01*
D02*
G37*
G36*
X92913D02*
X85535D01*
X85638Y90953D01*
X86089Y89466D01*
X86822Y88095D01*
X87807Y86894D01*
X89009Y85908D01*
X90379Y85176D01*
X91867Y84724D01*
X92913Y84621D01*
Y92000D01*
D02*
G37*
G36*
X136292D02*
X128913D01*
Y84621D01*
X129960Y84724D01*
X131447Y85176D01*
X132818Y85908D01*
X134019Y86894D01*
X135005Y88095D01*
X135738Y89466D01*
X136189Y90953D01*
X136292Y92000D01*
D02*
G37*
G36*
X170792Y92500D02*
X163413D01*
Y85121D01*
X164460Y85224D01*
X165947Y85676D01*
X167318Y86408D01*
X168519Y87394D01*
X169505Y88595D01*
X170238Y89966D01*
X170689Y91453D01*
X170792Y92500D01*
D02*
G37*
G36*
X127913Y100379D02*
X126867Y100276D01*
X125379Y99825D01*
X124009Y99092D01*
X122807Y98106D01*
X121821Y96904D01*
X121089Y95534D01*
X120638Y94047D01*
X120535Y93000D01*
X127913D01*
Y100379D01*
D02*
G37*
G36*
X92913D02*
X91867Y100276D01*
X90379Y99825D01*
X89009Y99092D01*
X87807Y98106D01*
X86822Y96904D01*
X86089Y95534D01*
X85638Y94047D01*
X85535Y93000D01*
X92913D01*
Y100379D01*
D02*
G37*
G36*
X162413Y92500D02*
X155035D01*
X155138Y91453D01*
X155589Y89966D01*
X156322Y88595D01*
X157307Y87394D01*
X158509Y86408D01*
X159879Y85676D01*
X161367Y85224D01*
X162413Y85121D01*
Y92500D01*
D02*
G37*
G36*
X101292Y92000D02*
X93913D01*
Y84621D01*
X94960Y84724D01*
X96447Y85176D01*
X97818Y85908D01*
X99019Y86894D01*
X100005Y88095D01*
X100738Y89466D01*
X101189Y90953D01*
X101292Y92000D01*
D02*
G37*
G36*
X128913Y80379D02*
Y73000D01*
X136292D01*
X136189Y74047D01*
X135738Y75534D01*
X135005Y76904D01*
X134019Y78106D01*
X132818Y79092D01*
X131447Y79825D01*
X129960Y80276D01*
X128913Y80379D01*
D02*
G37*
G36*
X93913D02*
Y73000D01*
X101292D01*
X101189Y74047D01*
X100738Y75534D01*
X100005Y76904D01*
X99019Y78106D01*
X97818Y79092D01*
X96447Y79825D01*
X94960Y80276D01*
X93913Y80379D01*
D02*
G37*
G36*
X127913Y80379D02*
X126867Y80276D01*
X125379Y79825D01*
X124009Y79092D01*
X122807Y78106D01*
X121821Y76904D01*
X121089Y75534D01*
X120638Y74047D01*
X120535Y73000D01*
X127913D01*
Y80379D01*
D02*
G37*
G36*
X162413Y80879D02*
X161367Y80776D01*
X159879Y80325D01*
X158509Y79592D01*
X157307Y78606D01*
X156322Y77404D01*
X155589Y76034D01*
X155138Y74547D01*
X155035Y73500D01*
X162413D01*
Y80879D01*
D02*
G37*
G36*
X67500Y82971D02*
X66468Y82835D01*
X65507Y82437D01*
X64681Y81803D01*
X64047Y80978D01*
X63649Y80016D01*
X63513Y78984D01*
X63649Y77952D01*
X64047Y76991D01*
X64681Y76165D01*
X65507Y75532D01*
X66468Y75133D01*
X67500Y74997D01*
X68532Y75133D01*
X69493Y75532D01*
X70319Y76165D01*
X70953Y76991D01*
X71351Y77952D01*
X71487Y78984D01*
X71351Y80016D01*
X70953Y80978D01*
X70319Y81803D01*
X69493Y82437D01*
X68532Y82835D01*
X67500Y82971D01*
D02*
G37*
G36*
X37500D02*
X36468Y82835D01*
X35507Y82437D01*
X34681Y81803D01*
X34047Y80978D01*
X33649Y80016D01*
X33513Y78984D01*
X33649Y77952D01*
X34047Y76991D01*
X34681Y76165D01*
X35507Y75532D01*
X36468Y75133D01*
X37500Y74997D01*
X38532Y75133D01*
X39493Y75532D01*
X40319Y76165D01*
X40953Y76991D01*
X41351Y77952D01*
X41487Y78984D01*
X41351Y80016D01*
X40953Y80978D01*
X40319Y81803D01*
X39493Y82437D01*
X38532Y82835D01*
X37500Y82971D01*
D02*
G37*
G36*
X163413Y80879D02*
Y73500D01*
X170792D01*
X170689Y74547D01*
X170238Y76034D01*
X169505Y77404D01*
X168519Y78606D01*
X167318Y79592D01*
X165947Y80325D01*
X164460Y80776D01*
X163413Y80879D01*
D02*
G37*
G36*
X20346Y118395D02*
X8347D01*
X7371Y118201D01*
X6544Y117649D01*
X5698Y116802D01*
X5145Y115975D01*
X4951Y115000D01*
Y90500D01*
X5145Y89525D01*
X5698Y88698D01*
X9198Y85198D01*
X10025Y84645D01*
X11000Y84451D01*
X43444D01*
X44951Y82944D01*
Y82011D01*
X44681Y81803D01*
X44047Y80978D01*
X43649Y80016D01*
X43513Y78984D01*
X43649Y77952D01*
X44047Y76991D01*
X44681Y76165D01*
X45507Y75532D01*
X46468Y75133D01*
X47500Y74997D01*
X48532Y75133D01*
X49493Y75532D01*
X50319Y76165D01*
X50953Y76991D01*
X51351Y77952D01*
X51487Y78984D01*
X51351Y80016D01*
X50953Y80978D01*
X50319Y81803D01*
X50049Y82011D01*
Y84000D01*
X49855Y84975D01*
X49302Y85802D01*
X46302Y88802D01*
X45476Y89355D01*
X44500Y89549D01*
X12056D01*
X10049Y91556D01*
Y97280D01*
X10096Y97296D01*
X10400Y96900D01*
X11308Y96203D01*
X12365Y95765D01*
X13000Y95682D01*
Y100000D01*
Y104318D01*
X12365Y104235D01*
X11308Y103797D01*
X10400Y103100D01*
X10096Y102704D01*
X10049Y102720D01*
Y107280D01*
X10096Y107296D01*
X10400Y106900D01*
X11308Y106203D01*
X12365Y105765D01*
X13500Y105616D01*
X14635Y105765D01*
X15692Y106203D01*
X16600Y106900D01*
X17297Y107808D01*
X17735Y108865D01*
X17884Y110000D01*
X17735Y111135D01*
X17297Y112192D01*
X16600Y113100D01*
X16404Y113250D01*
X16420Y113297D01*
X19291D01*
X20004Y112584D01*
X19703Y112192D01*
X19265Y111135D01*
X19116Y110000D01*
X19265Y108865D01*
X19703Y107808D01*
X20400Y106900D01*
X21308Y106203D01*
X22365Y105765D01*
X23500Y105616D01*
X24635Y105765D01*
X25692Y106203D01*
X26600Y106900D01*
X27297Y107808D01*
X27735Y108865D01*
X27884Y110000D01*
X27735Y111135D01*
X27297Y112192D01*
X26600Y113100D01*
X25851Y113675D01*
X25302Y114495D01*
X22149Y117649D01*
X21322Y118201D01*
X20346Y118395D01*
D02*
G37*
G36*
X64524Y105000D02*
X61500D01*
Y101976D01*
X61929Y102033D01*
X62795Y102391D01*
X63538Y102962D01*
X64109Y103705D01*
X64467Y104571D01*
X64524Y105000D01*
D02*
G37*
G36*
X60500D02*
X57476D01*
X57533Y104571D01*
X57891Y103705D01*
X58462Y102962D01*
X59205Y102391D01*
X60071Y102033D01*
X60500Y101976D01*
Y105000D01*
D02*
G37*
G36*
Y109024D02*
X60071Y108967D01*
X59205Y108609D01*
X58462Y108038D01*
X57891Y107295D01*
X57533Y106429D01*
X57476Y106000D01*
X60500D01*
Y109024D01*
D02*
G37*
G36*
X162913Y120928D02*
X161367Y120776D01*
X159879Y120325D01*
X158509Y119592D01*
X157307Y118606D01*
X156322Y117404D01*
X156126Y117039D01*
X134895D01*
X134019Y118106D01*
X132818Y119092D01*
X131447Y119825D01*
X129960Y120276D01*
X128413Y120428D01*
X126867Y120276D01*
X125379Y119825D01*
X124009Y119092D01*
X122807Y118106D01*
X121932Y117039D01*
X99895D01*
X99019Y118106D01*
X97818Y119092D01*
X96447Y119825D01*
X94960Y120276D01*
X93413Y120428D01*
X91867Y120276D01*
X90379Y119825D01*
X89009Y119092D01*
X87807Y118106D01*
X86822Y116904D01*
X86089Y115534D01*
X85638Y114047D01*
X85485Y112500D01*
X85638Y110953D01*
X86089Y109466D01*
X86822Y108096D01*
X87807Y106894D01*
X89009Y105908D01*
X90379Y105175D01*
X91867Y104724D01*
X93413Y104572D01*
X94960Y104724D01*
X96447Y105175D01*
X97818Y105908D01*
X99019Y106894D01*
X99895Y107961D01*
X121932D01*
X122807Y106894D01*
X124009Y105908D01*
X125379Y105175D01*
X126867Y104724D01*
X128413Y104572D01*
X129960Y104724D01*
X131447Y105175D01*
X132818Y105908D01*
X134019Y106894D01*
X134895Y107961D01*
X156842D01*
X157307Y107394D01*
X158509Y106408D01*
X159879Y105675D01*
X161367Y105224D01*
X162913Y105072D01*
X164460Y105224D01*
X165947Y105675D01*
X167318Y106408D01*
X168519Y107394D01*
X169505Y108596D01*
X170238Y109966D01*
X170689Y111453D01*
X170841Y113000D01*
X170689Y114547D01*
X170238Y116034D01*
X169505Y117404D01*
X168519Y118606D01*
X167318Y119592D01*
X165947Y120325D01*
X164460Y120776D01*
X162913Y120928D01*
D02*
G37*
G36*
X61000Y116964D02*
X60071Y116841D01*
X59205Y116483D01*
X58462Y115912D01*
X57891Y115169D01*
X57533Y114303D01*
X57410Y113374D01*
X57533Y112445D01*
X57891Y111579D01*
X58462Y110836D01*
X59205Y110265D01*
X60071Y109907D01*
X61000Y109784D01*
X61929Y109907D01*
X62795Y110265D01*
X63538Y110836D01*
X64109Y111579D01*
X64467Y112445D01*
X64590Y113374D01*
X64467Y114303D01*
X64109Y115169D01*
X63538Y115912D01*
X62795Y116483D01*
X61929Y116841D01*
X61000Y116964D01*
D02*
G37*
G36*
X61500Y109024D02*
Y106000D01*
X64524D01*
X64467Y106429D01*
X64109Y107295D01*
X63538Y108038D01*
X62795Y108609D01*
X61929Y108967D01*
X61500Y109024D01*
D02*
G37*
G36*
X14000Y104318D02*
Y100500D01*
X17818D01*
X17735Y101135D01*
X17297Y102192D01*
X16600Y103100D01*
X15692Y103797D01*
X14635Y104235D01*
X14000Y104318D01*
D02*
G37*
G36*
X162413Y100879D02*
X161367Y100776D01*
X159879Y100324D01*
X158509Y99592D01*
X157307Y98606D01*
X156322Y97404D01*
X155589Y96034D01*
X155138Y94547D01*
X155035Y93500D01*
X162413D01*
Y100879D01*
D02*
G37*
G36*
X128913Y100379D02*
Y93000D01*
X136292D01*
X136189Y94047D01*
X135738Y95534D01*
X135005Y96904D01*
X134019Y98106D01*
X132818Y99092D01*
X131447Y99825D01*
X129960Y100276D01*
X128913Y100379D01*
D02*
G37*
G36*
X93913D02*
Y93000D01*
X101292D01*
X101189Y94047D01*
X100738Y95534D01*
X100005Y96904D01*
X99019Y98106D01*
X97818Y99092D01*
X96447Y99825D01*
X94960Y100276D01*
X93913Y100379D01*
D02*
G37*
G36*
X163413Y100879D02*
Y93500D01*
X170792D01*
X170689Y94547D01*
X170238Y96034D01*
X169505Y97404D01*
X168519Y98606D01*
X167318Y99592D01*
X165947Y100324D01*
X164460Y100776D01*
X163413Y100879D01*
D02*
G37*
G36*
X17818Y99500D02*
X14000D01*
Y95682D01*
X14635Y95765D01*
X15692Y96203D01*
X16600Y96900D01*
X17297Y97808D01*
X17735Y98865D01*
X17818Y99500D01*
D02*
G37*
G36*
X33500Y104384D02*
X32365Y104235D01*
X31308Y103797D01*
X30400Y103100D01*
X29703Y102192D01*
X29265Y101135D01*
X29116Y100000D01*
X29265Y98865D01*
X29703Y97808D01*
X30400Y96900D01*
X31308Y96203D01*
X32365Y95765D01*
X33500Y95616D01*
X34635Y95765D01*
X35692Y96203D01*
X36600Y96900D01*
X37297Y97808D01*
X37735Y98865D01*
X37884Y100000D01*
X37735Y101135D01*
X37297Y102192D01*
X36600Y103100D01*
X35692Y103797D01*
X34635Y104235D01*
X33500Y104384D01*
D02*
G37*
G36*
X23500D02*
X22365Y104235D01*
X21308Y103797D01*
X20400Y103100D01*
X19703Y102192D01*
X19265Y101135D01*
X19116Y100000D01*
X19265Y98865D01*
X19703Y97808D01*
X20400Y96900D01*
X21308Y96203D01*
X22365Y95765D01*
X23500Y95616D01*
X24635Y95765D01*
X25692Y96203D01*
X26600Y96900D01*
X27297Y97808D01*
X27735Y98865D01*
X27884Y100000D01*
X27735Y101135D01*
X27297Y102192D01*
X26600Y103100D01*
X25692Y103797D01*
X24635Y104235D01*
X23500Y104384D01*
D02*
G37*
G36*
X92913Y80379D02*
X91867Y80276D01*
X90379Y79825D01*
X89009Y79092D01*
X87807Y78106D01*
X86822Y76904D01*
X86089Y75534D01*
X85638Y74047D01*
X85535Y73000D01*
X92913D01*
Y80379D01*
D02*
G37*
G36*
X65500Y22083D02*
X64314Y21926D01*
X63209Y21468D01*
X62260Y20740D01*
X61531Y19791D01*
X61074Y18686D01*
X60918Y17500D01*
X61074Y16314D01*
X61531Y15209D01*
X62260Y14260D01*
X63209Y13531D01*
X64314Y13074D01*
X65500Y12918D01*
X66686Y13074D01*
X67791Y13531D01*
X68740Y14260D01*
X69469Y15209D01*
X69926Y16314D01*
X70082Y17500D01*
X69926Y18686D01*
X69469Y19791D01*
X68740Y20740D01*
X67791Y21468D01*
X66686Y21926D01*
X65500Y22083D01*
D02*
G37*
G36*
X37846Y114347D02*
X29154D01*
Y105654D01*
X37846D01*
Y107451D01*
X39944D01*
X54951Y92444D01*
Y82011D01*
X54681Y81803D01*
X54047Y80978D01*
X53649Y80016D01*
X53513Y78984D01*
X53649Y77952D01*
X54047Y76991D01*
X54681Y76165D01*
X54951Y75958D01*
Y71056D01*
X43444Y59549D01*
X34500D01*
X33525Y59355D01*
X32698Y58802D01*
X28198Y54302D01*
X27645Y53475D01*
X27451Y52500D01*
Y43000D01*
X27645Y42024D01*
X28198Y41198D01*
X31198Y38198D01*
X32024Y37645D01*
X33000Y37451D01*
X40444D01*
X51951Y25944D01*
Y20338D01*
X51531Y19791D01*
X51074Y18686D01*
X50918Y17500D01*
X51074Y16314D01*
X51531Y15209D01*
X52260Y14260D01*
X53209Y13531D01*
X54314Y13074D01*
X55500Y12918D01*
X56686Y13074D01*
X57791Y13531D01*
X58740Y14260D01*
X59469Y15209D01*
X59926Y16314D01*
X60083Y17500D01*
X59926Y18686D01*
X59469Y19791D01*
X58740Y20740D01*
X57791Y21468D01*
X57049Y21776D01*
Y27000D01*
X56855Y27975D01*
X56302Y28802D01*
X43302Y41802D01*
X42476Y42355D01*
X41500Y42549D01*
X34056D01*
X32549Y44056D01*
Y51444D01*
X35556Y54451D01*
X44500D01*
X45476Y54645D01*
X46302Y55198D01*
X59302Y68198D01*
X59855Y69024D01*
X60049Y70000D01*
Y75958D01*
X60319Y76165D01*
X60953Y76991D01*
X61351Y77952D01*
X61487Y78984D01*
X61351Y80016D01*
X60953Y80978D01*
X60319Y81803D01*
X60049Y82011D01*
Y93500D01*
X59855Y94476D01*
X59302Y95302D01*
X42802Y111802D01*
X41976Y112355D01*
X41000Y112549D01*
X37846D01*
Y114347D01*
D02*
G37*
G36*
X45500Y22083D02*
X44314Y21926D01*
X43209Y21468D01*
X42260Y20740D01*
X41531Y19791D01*
X41074Y18686D01*
X40918Y17500D01*
X41074Y16314D01*
X41531Y15209D01*
X42260Y14260D01*
X43209Y13531D01*
X44314Y13074D01*
X45500Y12918D01*
X46686Y13074D01*
X47791Y13531D01*
X48740Y14260D01*
X49469Y15209D01*
X49926Y16314D01*
X50082Y17500D01*
X49926Y18686D01*
X49469Y19791D01*
X48740Y20740D01*
X47791Y21468D01*
X46686Y21926D01*
X45500Y22083D01*
D02*
G37*
G36*
X75500D02*
X74314Y21926D01*
X73209Y21468D01*
X72260Y20740D01*
X71531Y19791D01*
X71074Y18686D01*
X70917Y17500D01*
X71074Y16314D01*
X71531Y15209D01*
X72260Y14260D01*
X73209Y13531D01*
X74314Y13074D01*
X75500Y12918D01*
X76686Y13074D01*
X77791Y13531D01*
X78740Y14260D01*
X79469Y15209D01*
X79926Y16314D01*
X80082Y17500D01*
X79926Y18686D01*
X79469Y19791D01*
X78740Y20740D01*
X77791Y21468D01*
X76686Y21926D01*
X75500Y22083D01*
D02*
G37*
G36*
X71421Y47500D02*
X68000D01*
Y44079D01*
X68532Y44149D01*
X69493Y44547D01*
X70319Y45181D01*
X70953Y46007D01*
X71351Y46968D01*
X71421Y47500D01*
D02*
G37*
G36*
X67000D02*
X63579D01*
X63649Y46968D01*
X64047Y46007D01*
X64681Y45181D01*
X65507Y44547D01*
X66468Y44149D01*
X67000Y44079D01*
Y47500D01*
D02*
G37*
G36*
X41453Y51953D02*
X33547D01*
Y44047D01*
X41453D01*
Y51953D01*
D02*
G37*
G36*
X35500Y22083D02*
X34314Y21926D01*
X33209Y21468D01*
X32260Y20740D01*
X31531Y19791D01*
X31074Y18686D01*
X30918Y17500D01*
X31074Y16314D01*
X31531Y15209D01*
X32260Y14260D01*
X33209Y13531D01*
X34314Y13074D01*
X35500Y12918D01*
X36686Y13074D01*
X37791Y13531D01*
X38740Y14260D01*
X39469Y15209D01*
X39926Y16314D01*
X40082Y17500D01*
X39926Y18686D01*
X39469Y19791D01*
X38740Y20740D01*
X37791Y21468D01*
X36686Y21926D01*
X35500Y22083D01*
D02*
G37*
G36*
X146000Y12017D02*
Y8000D01*
X150017D01*
X149926Y8686D01*
X149469Y9791D01*
X148740Y10740D01*
X147791Y11468D01*
X146686Y11926D01*
X146000Y12017D01*
D02*
G37*
G36*
X136000D02*
Y8000D01*
X140017D01*
X139926Y8686D01*
X139469Y9791D01*
X138740Y10740D01*
X137791Y11468D01*
X136686Y11926D01*
X136000Y12017D01*
D02*
G37*
G36*
X126000D02*
Y8000D01*
X130017D01*
X129926Y8686D01*
X129469Y9791D01*
X128740Y10740D01*
X127791Y11468D01*
X126686Y11926D01*
X126000Y12017D01*
D02*
G37*
G36*
X156000D02*
Y8000D01*
X160017D01*
X159926Y8686D01*
X159469Y9791D01*
X158740Y10740D01*
X157791Y11468D01*
X156686Y11926D01*
X156000Y12017D01*
D02*
G37*
G36*
X25500Y22083D02*
X24314Y21926D01*
X23209Y21468D01*
X22260Y20740D01*
X21531Y19791D01*
X21074Y18686D01*
X20918Y17500D01*
X21074Y16314D01*
X21531Y15209D01*
X22260Y14260D01*
X23209Y13531D01*
X24314Y13074D01*
X25500Y12918D01*
X26686Y13074D01*
X27791Y13531D01*
X28740Y14260D01*
X29469Y15209D01*
X29926Y16314D01*
X30082Y17500D01*
X29926Y18686D01*
X29469Y19791D01*
X28740Y20740D01*
X27791Y21468D01*
X26686Y21926D01*
X25500Y22083D01*
D02*
G37*
G36*
X15500D02*
X14314Y21926D01*
X13209Y21468D01*
X12260Y20740D01*
X11531Y19791D01*
X11074Y18686D01*
X10917Y17500D01*
X11074Y16314D01*
X11531Y15209D01*
X12260Y14260D01*
X13209Y13531D01*
X14314Y13074D01*
X15500Y12918D01*
X16686Y13074D01*
X17791Y13531D01*
X18740Y14260D01*
X19469Y15209D01*
X19926Y16314D01*
X20083Y17500D01*
X19926Y18686D01*
X19469Y19791D01*
X18740Y20740D01*
X17791Y21468D01*
X16686Y21926D01*
X15500Y22083D01*
D02*
G37*
G36*
X166000Y12017D02*
Y8000D01*
X170017D01*
X169926Y8686D01*
X169469Y9791D01*
X168740Y10740D01*
X167791Y11468D01*
X166686Y11926D01*
X166000Y12017D01*
D02*
G37*
G36*
X92913Y72000D02*
X85535D01*
X85638Y70953D01*
X86089Y69466D01*
X86822Y68095D01*
X87807Y66894D01*
X89009Y65908D01*
X90379Y65175D01*
X91867Y64724D01*
X92913Y64621D01*
Y72000D01*
D02*
G37*
G36*
X136292D02*
X128913D01*
Y64621D01*
X129960Y64724D01*
X131447Y65175D01*
X132818Y65908D01*
X134019Y66894D01*
X135005Y68095D01*
X135738Y69466D01*
X136189Y70953D01*
X136292Y72000D01*
D02*
G37*
G36*
X101292D02*
X93913D01*
Y64621D01*
X94960Y64724D01*
X96447Y65175D01*
X97818Y65908D01*
X99019Y66894D01*
X100005Y68095D01*
X100738Y69466D01*
X101189Y70953D01*
X101292Y72000D01*
D02*
G37*
G36*
X127913D02*
X120535D01*
X120638Y70953D01*
X121089Y69466D01*
X121821Y68095D01*
X122807Y66894D01*
X124009Y65908D01*
X125379Y65175D01*
X126867Y64724D01*
X127913Y64621D01*
Y72000D01*
D02*
G37*
G36*
X21000Y77775D02*
X20071Y77653D01*
X19205Y77294D01*
X18462Y76723D01*
X17891Y75980D01*
X17533Y75114D01*
X17410Y74185D01*
X17533Y73256D01*
X17891Y72390D01*
X18462Y71647D01*
X19205Y71076D01*
X20071Y70718D01*
X21000Y70595D01*
X21929Y70718D01*
X22795Y71076D01*
X23538Y71647D01*
X24109Y72390D01*
X24467Y73256D01*
X24590Y74185D01*
X24467Y75114D01*
X24109Y75980D01*
X23538Y76723D01*
X22795Y77294D01*
X21929Y77653D01*
X21000Y77775D01*
D02*
G37*
G36*
X162413Y72500D02*
X155035D01*
X155138Y71453D01*
X155589Y69966D01*
X156322Y68595D01*
X157307Y67394D01*
X158509Y66408D01*
X159879Y65675D01*
X161367Y65224D01*
X162413Y65121D01*
Y72500D01*
D02*
G37*
G36*
X170792D02*
X163413D01*
Y65121D01*
X164460Y65224D01*
X165947Y65675D01*
X167318Y66408D01*
X168519Y67394D01*
X169505Y68595D01*
X170238Y69966D01*
X170689Y71453D01*
X170792Y72500D01*
D02*
G37*
G36*
X170803Y60890D02*
X155024D01*
Y57039D01*
X136303D01*
Y60390D01*
X120524D01*
Y57039D01*
X101303D01*
Y60390D01*
X85523D01*
Y44610D01*
X101303D01*
Y47961D01*
X120524D01*
Y44610D01*
X136303D01*
Y47961D01*
X155024D01*
Y45110D01*
X170803D01*
Y60890D01*
D02*
G37*
G36*
X20500Y54000D02*
X17476D01*
X17533Y53571D01*
X17891Y52705D01*
X18462Y51962D01*
X19205Y51391D01*
X20071Y51033D01*
X20500Y50976D01*
Y54000D01*
D02*
G37*
G36*
X68000Y51921D02*
Y48500D01*
X71421D01*
X71351Y49032D01*
X70953Y49993D01*
X70319Y50819D01*
X69493Y51453D01*
X68532Y51851D01*
X68000Y51921D01*
D02*
G37*
G36*
X67000D02*
X66468Y51851D01*
X65507Y51453D01*
X64681Y50819D01*
X64047Y49993D01*
X63649Y49032D01*
X63579Y48500D01*
X67000D01*
Y51921D01*
D02*
G37*
G36*
X24524Y54000D02*
X21500D01*
Y50976D01*
X21929Y51033D01*
X22795Y51391D01*
X23538Y51962D01*
X24109Y52705D01*
X24467Y53571D01*
X24524Y54000D01*
D02*
G37*
G36*
X21500Y58024D02*
Y55000D01*
X24524D01*
X24467Y55429D01*
X24109Y56295D01*
X23538Y57038D01*
X22795Y57609D01*
X21929Y57967D01*
X21500Y58024D01*
D02*
G37*
G36*
X20500D02*
X20071Y57967D01*
X19205Y57609D01*
X18462Y57038D01*
X17891Y56295D01*
X17533Y55429D01*
X17476Y55000D01*
X20500D01*
Y58024D01*
D02*
G37*
G36*
X48000Y52049D02*
X47613Y51972D01*
X47500Y51987D01*
X46468Y51851D01*
X45507Y51453D01*
X44681Y50819D01*
X44047Y49993D01*
X43649Y49032D01*
X43513Y48000D01*
X43649Y46968D01*
X44047Y46007D01*
X44681Y45181D01*
X45451Y44590D01*
Y41500D01*
X45645Y40525D01*
X46198Y39698D01*
X53698Y32198D01*
X54524Y31645D01*
X55500Y31451D01*
X80444D01*
X81951Y29944D01*
Y20338D01*
X81531Y19791D01*
X81074Y18686D01*
X80918Y17500D01*
X81074Y16314D01*
X81531Y15209D01*
X82260Y14260D01*
X83209Y13531D01*
X84314Y13074D01*
X85500Y12918D01*
X86686Y13074D01*
X87791Y13531D01*
X88740Y14260D01*
X89469Y15209D01*
X89926Y16314D01*
X90083Y17500D01*
X89926Y18686D01*
X89469Y19791D01*
X88740Y20740D01*
X87791Y21468D01*
X87049Y21776D01*
Y31000D01*
X86855Y31975D01*
X86302Y32802D01*
X83302Y35802D01*
X82476Y36355D01*
X82243Y36401D01*
X82248Y36451D01*
X88444D01*
X91951Y32944D01*
Y20338D01*
X91531Y19791D01*
X91074Y18686D01*
X90917Y17500D01*
X91074Y16314D01*
X91531Y15209D01*
X92260Y14260D01*
X93209Y13531D01*
X94314Y13074D01*
X95500Y12918D01*
X96686Y13074D01*
X97791Y13531D01*
X98740Y14260D01*
X99469Y15209D01*
X99926Y16314D01*
X100083Y17500D01*
X99926Y18686D01*
X99469Y19791D01*
X98740Y20740D01*
X97815Y21450D01*
X97832Y21500D01*
X103168D01*
X103185Y21450D01*
X102260Y20740D01*
X101531Y19791D01*
X101074Y18686D01*
X100917Y17500D01*
X101074Y16314D01*
X101531Y15209D01*
X102260Y14260D01*
X103209Y13531D01*
X104314Y13074D01*
X105500Y12918D01*
X106686Y13074D01*
X107791Y13531D01*
X108740Y14260D01*
X109469Y15209D01*
X109926Y16314D01*
X110082Y17500D01*
X109926Y18686D01*
X109469Y19791D01*
X108740Y20740D01*
X107815Y21450D01*
X107832Y21500D01*
X113168D01*
X113185Y21450D01*
X112260Y20740D01*
X111531Y19791D01*
X111074Y18686D01*
X110917Y17500D01*
X111074Y16314D01*
X111531Y15209D01*
X112260Y14260D01*
X113209Y13531D01*
X114314Y13074D01*
X115500Y12918D01*
X116686Y13074D01*
X117791Y13531D01*
X118740Y14260D01*
X119469Y15209D01*
X119926Y16314D01*
X120082Y17500D01*
X119926Y18686D01*
X119469Y19791D01*
X118740Y20740D01*
X117815Y21450D01*
X117832Y21500D01*
X123168D01*
X123185Y21450D01*
X122260Y20740D01*
X121531Y19791D01*
X121074Y18686D01*
X120917Y17500D01*
X121074Y16314D01*
X121531Y15209D01*
X122260Y14260D01*
X123209Y13531D01*
X124314Y13074D01*
X125500Y12918D01*
X126686Y13074D01*
X127791Y13531D01*
X128740Y14260D01*
X129469Y15209D01*
X129926Y16314D01*
X130082Y17500D01*
X129926Y18686D01*
X129469Y19791D01*
X128740Y20740D01*
X127815Y21450D01*
X127832Y21500D01*
X133168D01*
X133185Y21450D01*
X132260Y20740D01*
X131531Y19791D01*
X131074Y18686D01*
X130918Y17500D01*
X131074Y16314D01*
X131531Y15209D01*
X132260Y14260D01*
X133209Y13531D01*
X134314Y13074D01*
X135500Y12918D01*
X136686Y13074D01*
X137791Y13531D01*
X138740Y14260D01*
X139469Y15209D01*
X139926Y16314D01*
X140083Y17500D01*
X139926Y18686D01*
X139469Y19791D01*
X138740Y20740D01*
X137815Y21450D01*
X137832Y21500D01*
X143168D01*
X143185Y21450D01*
X142260Y20740D01*
X141531Y19791D01*
X141074Y18686D01*
X140918Y17500D01*
X141074Y16314D01*
X141531Y15209D01*
X142260Y14260D01*
X143209Y13531D01*
X144314Y13074D01*
X145500Y12918D01*
X146686Y13074D01*
X147791Y13531D01*
X148740Y14260D01*
X149469Y15209D01*
X149926Y16314D01*
X150083Y17500D01*
X149926Y18686D01*
X149469Y19791D01*
X148740Y20740D01*
X147815Y21450D01*
X147832Y21500D01*
X153168D01*
X153185Y21450D01*
X152260Y20740D01*
X151531Y19791D01*
X151074Y18686D01*
X150917Y17500D01*
X151074Y16314D01*
X151531Y15209D01*
X152260Y14260D01*
X153209Y13531D01*
X154314Y13074D01*
X155500Y12918D01*
X156686Y13074D01*
X157791Y13531D01*
X158740Y14260D01*
X159469Y15209D01*
X159926Y16314D01*
X160082Y17500D01*
X159926Y18686D01*
X159469Y19791D01*
X158740Y20740D01*
X157815Y21450D01*
X157832Y21500D01*
X163168D01*
X163185Y21450D01*
X162260Y20740D01*
X161531Y19791D01*
X161074Y18686D01*
X160917Y17500D01*
X161074Y16314D01*
X161531Y15209D01*
X162260Y14260D01*
X163209Y13531D01*
X164314Y13074D01*
X165500Y12918D01*
X166686Y13074D01*
X167791Y13531D01*
X168740Y14260D01*
X169469Y15209D01*
X169926Y16314D01*
X170082Y17500D01*
X169926Y18686D01*
X169469Y19791D01*
X168740Y20740D01*
X167815Y21450D01*
X167832Y21500D01*
X169500D01*
Y35177D01*
X96720D01*
X96302Y35802D01*
X91302Y40802D01*
X90475Y41355D01*
X89500Y41549D01*
X66056D01*
X61142Y46463D01*
X61351Y46968D01*
X61487Y48000D01*
X61351Y49032D01*
X60953Y49993D01*
X60319Y50819D01*
X59493Y51453D01*
X58532Y51851D01*
X57500Y51987D01*
X56468Y51851D01*
X55507Y51453D01*
X54681Y50819D01*
X54047Y49993D01*
X53649Y49032D01*
X53513Y48000D01*
X53649Y46968D01*
X54047Y46007D01*
X54681Y45181D01*
X55507Y44547D01*
X56089Y44306D01*
X63198Y37198D01*
X64025Y36645D01*
X64257Y36599D01*
X64252Y36549D01*
X56556D01*
X50549Y42556D01*
Y45480D01*
X50953Y46007D01*
X51351Y46968D01*
X51487Y48000D01*
X51351Y49032D01*
X50953Y49993D01*
X50319Y50819D01*
X49921Y51124D01*
X49802Y51302D01*
X48976Y51855D01*
X48000Y52049D01*
D02*
G37*
%LPD*%
D10*
Y41500D02*
Y49500D01*
X54500Y17500D02*
Y27000D01*
X56750Y47250D02*
X65000Y39000D01*
X89500D02*
X94500Y34000D01*
Y19500D02*
Y34000D01*
X65000Y39000D02*
X89500D01*
X81500Y34000D02*
X84500Y31000D01*
X55500Y34000D02*
X81500D01*
X84500Y19500D02*
Y31000D01*
X7500Y115000D02*
X8347Y115847D01*
X7500Y90500D02*
Y115000D01*
Y90500D02*
X11000Y87000D01*
X44500D01*
X33500Y110000D02*
X41000D01*
X57500Y93500D01*
Y78984D02*
Y93500D01*
X23500Y110000D02*
Y112693D01*
X20346Y115847D02*
X23500Y112693D01*
X8347Y115847D02*
X20346D01*
X44500Y87000D02*
X47500Y84000D01*
Y78984D02*
Y84000D01*
X48000Y41500D02*
X55500Y34000D01*
X57500Y70000D02*
Y78984D01*
X30000Y43000D02*
Y52500D01*
X34500Y57000D01*
X44500D01*
X57500Y70000D01*
X30000Y43000D02*
X33000Y40000D01*
X41500D01*
X54500Y27000D01*
X162413Y112500D02*
X162913Y113000D01*
X162413Y52500D02*
X162913Y53000D01*
D11*
X93413Y112500D02*
X128413D01*
X162413D01*
X93413Y52500D02*
X128413D01*
X162413D01*
D12*
X99199Y33477D02*
X98200D01*
X97700Y32977D01*
Y30978D01*
X98200Y30478D01*
X99199D01*
X99699Y30978D01*
Y32977D01*
X99199Y33477D01*
X100699D02*
Y31478D01*
X101699Y30478D01*
X102698Y31478D01*
Y33477D01*
X108696D02*
X106697D01*
Y31978D01*
X107697D01*
X106697D01*
Y30478D01*
X109696D02*
X110696D01*
X110196D01*
Y33477D01*
X109696D01*
X112695Y30478D02*
X113695D01*
X114195Y30978D01*
Y31978D01*
X113695Y32478D01*
X112695D01*
X112195Y31978D01*
Y30978D01*
X112695Y30478D01*
X115194Y29478D02*
Y32478D01*
X116694D01*
X117194Y31978D01*
Y30978D01*
X116694Y30478D01*
X115194D01*
X118193Y29478D02*
Y32478D01*
X119693D01*
X120193Y31978D01*
Y30978D01*
X119693Y30478D01*
X118193D01*
X121192Y32478D02*
Y30978D01*
X121692Y30478D01*
X123192D01*
Y29978D01*
X122692Y29478D01*
X122192D01*
X123192Y30478D02*
Y32478D01*
X124691Y32977D02*
Y32478D01*
X124191D01*
X125191D01*
X124691D01*
Y30978D01*
X125191Y30478D01*
X126691Y32478D02*
Y30478D01*
Y31478D01*
X127190Y31978D01*
X127690Y32478D01*
X128190D01*
X130190Y30478D02*
X131189D01*
X131689Y30978D01*
Y31978D01*
X131189Y32478D01*
X130190D01*
X129690Y31978D01*
Y30978D01*
X130190Y30478D01*
X132689D02*
Y32478D01*
X134188D01*
X134688Y31978D01*
Y30478D01*
X140686Y32977D02*
X140186Y33477D01*
X139187D01*
X138687Y32977D01*
Y32478D01*
X139187Y31978D01*
X140186D01*
X140686Y31478D01*
Y30978D01*
X140186Y30478D01*
X139187D01*
X138687Y30978D01*
X141686Y30478D02*
X142685D01*
X142186D01*
Y33477D01*
X141686D01*
X144685Y32478D02*
X145685D01*
X146184Y31978D01*
Y30478D01*
X144685D01*
X144185Y30978D01*
X144685Y31478D01*
X146184D01*
X147184Y32478D02*
X148184Y30478D01*
X149183Y32478D01*
X151682Y30478D02*
X150683D01*
X150183Y30978D01*
Y31978D01*
X150683Y32478D01*
X151682D01*
X152182Y31978D01*
Y31478D01*
X150183D01*
X156181Y33477D02*
Y31478D01*
X157181Y30478D01*
X158180Y31478D01*
Y33477D01*
X159180Y30478D02*
X160180D01*
X159680D01*
Y33477D01*
X159180Y32977D01*
X161679Y30478D02*
Y30978D01*
X162179D01*
Y30478D01*
X161679D01*
X164179Y32977D02*
X164678Y33477D01*
X165678D01*
X166178Y32977D01*
Y30978D01*
X165678Y30478D01*
X164678D01*
X164179Y30978D01*
Y32977D01*
X97700Y27199D02*
Y24200D01*
X99199D01*
X99699Y24700D01*
Y25199D01*
X99199Y25699D01*
X97700D01*
X99199D01*
X99699Y26199D01*
Y26699D01*
X99199Y27199D01*
X97700D01*
X100699Y26199D02*
Y24700D01*
X101199Y24200D01*
X102698D01*
Y23700D01*
X102199Y23200D01*
X101699D01*
X102698Y24200D02*
Y26199D01*
X103698D02*
X104198D01*
Y25699D01*
X103698D01*
Y26199D01*
Y24700D02*
X104198D01*
Y24200D01*
X103698D01*
Y24700D01*
X111196Y27199D02*
X109196D01*
Y25699D01*
X110196D01*
X109196D01*
Y24200D01*
X112195Y26199D02*
Y24200D01*
Y25199D01*
X112695Y25699D01*
X113195Y26199D01*
X113695D01*
X115694Y24200D02*
X116694D01*
X117194Y24700D01*
Y25699D01*
X116694Y26199D01*
X115694D01*
X115194Y25699D01*
Y24700D01*
X115694Y24200D01*
X120193Y27199D02*
Y24200D01*
X118693D01*
X118193Y24700D01*
Y25699D01*
X118693Y26199D01*
X120193D01*
X121692Y24200D02*
X122692D01*
X123192Y24700D01*
Y25699D01*
X122692Y26199D01*
X121692D01*
X121192Y25699D01*
Y24700D01*
X121692Y24200D01*
X124691Y23700D02*
X125191Y24200D01*
Y24700D01*
X124691D01*
Y24200D01*
X125191D01*
X124691Y23700D01*
X124191Y23200D01*
X132189Y27199D02*
X131189D01*
X131689D01*
Y24700D01*
X131189Y24200D01*
X130689D01*
X130190Y24700D01*
X133188Y26199D02*
Y24700D01*
X133688Y24200D01*
X135188D01*
Y26199D01*
X136188Y24200D02*
Y26199D01*
X137687D01*
X138187Y25699D01*
Y24200D01*
X140686D02*
X139686D01*
X139187Y24700D01*
Y25699D01*
X139686Y26199D01*
X140686D01*
X141186Y25699D01*
Y25199D01*
X139187D01*
X147184Y24200D02*
X145185D01*
X147184Y26199D01*
Y26699D01*
X146684Y27199D01*
X145685D01*
X145185Y26699D01*
X148184D02*
X148684Y27199D01*
X149683D01*
X150183Y26699D01*
Y24700D01*
X149683Y24200D01*
X148684D01*
X148184Y24700D01*
Y26699D01*
X151183Y24200D02*
X152182D01*
X151682D01*
Y27199D01*
X151183Y26699D01*
X153682Y27199D02*
X155681D01*
Y26699D01*
X153682Y24700D01*
Y24200D01*
D13*
X5500Y7500D02*
D03*
Y17500D02*
D03*
X15500Y7500D02*
D03*
Y17500D02*
D03*
X25500Y7500D02*
D03*
Y17500D02*
D03*
X35500Y7500D02*
D03*
Y17500D02*
D03*
X45500Y7500D02*
D03*
Y17500D02*
D03*
X55500Y7500D02*
D03*
Y17500D02*
D03*
X65500Y7500D02*
D03*
Y17500D02*
D03*
X75500Y7500D02*
D03*
Y17500D02*
D03*
X85500Y7500D02*
D03*
Y17500D02*
D03*
X95500Y7500D02*
D03*
Y17500D02*
D03*
X105500Y7500D02*
D03*
Y17500D02*
D03*
X115500Y7500D02*
D03*
Y17500D02*
D03*
X125500Y7500D02*
D03*
Y17500D02*
D03*
X135500Y7500D02*
D03*
Y17500D02*
D03*
X145500Y7500D02*
D03*
Y17500D02*
D03*
X155500Y7500D02*
D03*
Y17500D02*
D03*
X165500Y7500D02*
D03*
Y17500D02*
D03*
D14*
X67500Y78984D02*
D03*
X57500D02*
D03*
X47500D02*
D03*
X37500D02*
D03*
X67500Y48000D02*
D03*
X57500D02*
D03*
X47500D02*
D03*
D15*
X37500D02*
D03*
D16*
X61000Y105500D02*
D03*
Y113374D02*
D03*
X21000Y54500D02*
D03*
Y74185D02*
D03*
D17*
X13500Y100000D02*
D03*
Y110000D02*
D03*
X23500Y100000D02*
D03*
Y110000D02*
D03*
X33500Y100000D02*
D03*
D18*
Y110000D02*
D03*
D19*
X162913Y53000D02*
D03*
X128413Y52500D02*
D03*
X93413D02*
D03*
D20*
X162913Y73000D02*
D03*
Y93000D02*
D03*
Y113000D02*
D03*
X128413Y72500D02*
D03*
Y92500D02*
D03*
Y112500D02*
D03*
X93413Y72500D02*
D03*
Y92500D02*
D03*
Y112500D02*
D03*
M02*
