G04 Layer_Color=65535*
%FSLAX25Y25*%
%MOIN*%
G70*
G01*
G75*
%ADD21C,0.00787*%
%ADD22C,0.01000*%
D21*
X32500Y60992D02*
G03*
X32500Y65992I0J2500D01*
G01*
X71630Y109437D02*
G03*
X71630Y109437I-10630J0D01*
G01*
X32500Y54240D02*
X72500D01*
Y72744D01*
X32500D02*
X72500D01*
X32500Y65992D02*
Y72744D01*
Y54240D02*
Y60992D01*
X59000Y123374D02*
X63000D01*
X61000Y121374D02*
Y125374D01*
X15094Y49185D02*
X26906D01*
X15094D02*
Y79500D01*
X26906D01*
Y49185D02*
Y79500D01*
D22*
X39406Y94252D02*
Y115905D01*
X38224D02*
X39406D01*
X7909D02*
X38224D01*
X7909Y94252D02*
Y115905D01*
Y94252D02*
X39406D01*
X112413Y36500D02*
X133913D01*
X144413Y47000D01*
Y118000D01*
X135413Y127000D02*
X144413Y118000D01*
X112413Y127000D02*
X135413D01*
X112413Y36500D02*
Y127000D01*
X77413Y36500D02*
X98913D01*
X109413Y47000D01*
Y118000D01*
X100413Y127000D02*
X109413Y118000D01*
X77413Y127000D02*
X100413D01*
X77413Y36500D02*
Y127000D01*
X48502Y58500D02*
X53500D01*
X54500Y59500D01*
Y61499D01*
X53500Y62499D01*
X48502D01*
X54500Y64498D02*
Y66497D01*
Y65498D01*
X48502D01*
X49502Y64498D01*
X149002Y81999D02*
Y79999D01*
Y80999D01*
X154000D01*
X155000Y79999D01*
Y79000D01*
X154000Y78000D01*
X155000Y86997D02*
X149002D01*
X152001Y83998D01*
Y87997D01*
X114502Y81999D02*
Y79999D01*
Y80999D01*
X119500D01*
X120500Y79999D01*
Y79000D01*
X119500Y78000D01*
X115502Y83998D02*
X114502Y84998D01*
Y86997D01*
X115502Y87997D01*
X116501D01*
X117501Y86997D01*
Y85997D01*
Y86997D01*
X118501Y87997D01*
X119500D01*
X120500Y86997D01*
Y84998D01*
X119500Y83998D01*
X79502Y80999D02*
Y78999D01*
Y79999D01*
X84500D01*
X85500Y78999D01*
Y78000D01*
X84500Y77000D01*
X85500Y86997D02*
Y82998D01*
X81501Y86997D01*
X80502D01*
X79502Y85997D01*
Y83998D01*
X80502Y82998D01*
X42002Y96999D02*
Y94999D01*
Y95999D01*
X47000D01*
X48000Y94999D01*
Y94000D01*
X47000Y93000D01*
X48000Y98998D02*
Y100997D01*
Y99998D01*
X42002D01*
X43002Y98998D01*
X7002Y54999D02*
X6002Y53999D01*
Y52000D01*
X7002Y51000D01*
X11000D01*
X12000Y52000D01*
Y53999D01*
X11000Y54999D01*
X12000Y60997D02*
Y56998D01*
X8001Y60997D01*
X7002D01*
X6002Y59997D01*
Y57998D01*
X7002Y56998D01*
X43002Y115499D02*
X42002Y114499D01*
Y112500D01*
X43002Y111500D01*
X47000D01*
X48000Y112500D01*
Y114499D01*
X47000Y115499D01*
X48000Y117498D02*
Y119497D01*
Y118498D01*
X42002D01*
X43002Y117498D01*
M02*
