G04*
G04 #@! TF.GenerationSoftware,Altium Limited,Altium Designer,18.1.9 (240)*
G04*
G04 Layer_Physical_Order=2*
G04 Layer_Color=16711680*
%FSLAX25Y25*%
%MOIN*%
G70*
G01*
G75*
%ADD14C,0.01000*%
%ADD23C,0.08000*%
%ADD24C,0.06000*%
%ADD25R,0.06000X0.06000*%
%ADD26C,0.02362*%
G36*
X146780Y1220D02*
X112190D01*
X111807Y2144D01*
X117081Y7419D01*
X117413Y7915D01*
X117529Y8500D01*
Y13899D01*
X117572Y13927D01*
X118054Y14649D01*
X118099Y14871D01*
X119147Y15147D01*
X119983Y14506D01*
X120956Y14103D01*
X122000Y13965D01*
X123044Y14103D01*
X124017Y14506D01*
X124853Y15147D01*
X125494Y15983D01*
X125897Y16956D01*
X126034Y18000D01*
X125897Y19044D01*
X125494Y20017D01*
X124853Y20853D01*
X124017Y21494D01*
X123044Y21897D01*
X122000Y22035D01*
X120956Y21897D01*
X119983Y21494D01*
X119147Y20853D01*
X118506Y20017D01*
X118103Y19044D01*
X117965Y18000D01*
X117031Y17434D01*
X116851Y17555D01*
X116000Y17724D01*
X115149Y17555D01*
X114427Y17073D01*
X113945Y16351D01*
X113776Y15500D01*
X113945Y14649D01*
X114427Y13927D01*
X114471Y13899D01*
Y9133D01*
X108872Y3535D01*
X105005D01*
X104622Y4459D01*
X106449Y6286D01*
X106500Y6276D01*
X107351Y6445D01*
X108072Y6927D01*
X108554Y7649D01*
X108724Y8500D01*
X108554Y9351D01*
X108072Y10073D01*
X107351Y10555D01*
X106500Y10724D01*
X105649Y10555D01*
X104928Y10073D01*
X104773Y9841D01*
X103601D01*
X103446Y10073D01*
X102725Y10555D01*
X101874Y10724D01*
X101023Y10555D01*
X100302Y10073D01*
X99993Y9610D01*
X99794Y9555D01*
X99080D01*
X98881Y9610D01*
X98572Y10073D01*
X97851Y10555D01*
X97000Y10724D01*
X96149Y10555D01*
X95428Y10073D01*
X95121Y9614D01*
X94278Y9707D01*
X94056Y9842D01*
X94055Y9851D01*
X93572Y10572D01*
X92851Y11055D01*
X92211Y11182D01*
Y32440D01*
X92094Y33026D01*
X91763Y33522D01*
X84529Y40755D01*
Y61190D01*
X89810Y66471D01*
X124500D01*
X125085Y66587D01*
X125581Y66919D01*
X128056Y69393D01*
X128695Y69129D01*
X130000Y68957D01*
X131305Y69129D01*
X132522Y69633D01*
X133566Y70434D01*
X134368Y71478D01*
X134871Y72695D01*
X135043Y74000D01*
X134871Y75305D01*
X134368Y76522D01*
X133566Y77566D01*
X132522Y78368D01*
X131305Y78871D01*
X130000Y79043D01*
X128695Y78871D01*
X127478Y78368D01*
X126434Y77566D01*
X125633Y76522D01*
X125129Y75305D01*
X124957Y74000D01*
X125129Y72695D01*
X125633Y71478D01*
X125712Y71375D01*
X123866Y69529D01*
X96030D01*
X95723Y70129D01*
X95639Y70529D01*
X96368Y71478D01*
X96871Y72695D01*
X97043Y74000D01*
X96871Y75305D01*
X96368Y76522D01*
X95566Y77566D01*
X94522Y78368D01*
X93305Y78871D01*
X92000Y79043D01*
X90695Y78871D01*
X89478Y78368D01*
X88434Y77566D01*
X87633Y76522D01*
X87129Y75305D01*
X86957Y74000D01*
X87129Y72695D01*
X87633Y71478D01*
X87953Y71061D01*
X84134Y67242D01*
X83210Y67625D01*
Y70161D01*
X83566Y70434D01*
X84368Y71478D01*
X84871Y72695D01*
X85043Y74000D01*
X84871Y75305D01*
X84368Y76522D01*
X83566Y77566D01*
X82522Y78368D01*
X81305Y78871D01*
X80000Y79043D01*
X78695Y78871D01*
X77478Y78368D01*
X76434Y77566D01*
X75633Y76522D01*
X75129Y75305D01*
X74957Y74000D01*
X75129Y72695D01*
X75633Y71478D01*
X76434Y70434D01*
X77478Y69633D01*
X78695Y69129D01*
X78832Y69111D01*
X78865Y68098D01*
X78649Y68054D01*
X77928Y67572D01*
X77899Y67529D01*
X74634D01*
X55695Y86468D01*
X55897Y86956D01*
X56034Y88000D01*
X55897Y89044D01*
X55494Y90017D01*
X54853Y90853D01*
X54017Y91494D01*
X53044Y91897D01*
X52000Y92035D01*
X50956Y91897D01*
X49983Y91494D01*
X49401Y91047D01*
X48566Y91348D01*
X48401Y91489D01*
Y93129D01*
X48284Y93714D01*
X47953Y94210D01*
X45695Y96468D01*
X45897Y96956D01*
X46035Y98000D01*
X45897Y99044D01*
X45494Y100017D01*
X44853Y100853D01*
X44588Y101056D01*
X44928Y102056D01*
X49072D01*
X49412Y101056D01*
X49147Y100853D01*
X48506Y100017D01*
X48103Y99044D01*
X48097Y99000D01*
X55903D01*
X55897Y99044D01*
X55494Y100017D01*
X54853Y100853D01*
X54588Y101056D01*
X54928Y102056D01*
X69549D01*
X70043Y101056D01*
X69633Y100522D01*
X69129Y99305D01*
X68957Y98000D01*
X69129Y96695D01*
X69633Y95478D01*
X70434Y94434D01*
X71478Y93633D01*
X72695Y93129D01*
X74000Y92957D01*
X75305Y93129D01*
X76522Y93633D01*
X77566Y94434D01*
X78368Y95478D01*
X78871Y96695D01*
X79043Y98000D01*
X78871Y99305D01*
X78368Y100522D01*
X77957Y101056D01*
X78451Y102056D01*
X81549D01*
X82042Y101056D01*
X81633Y100522D01*
X81129Y99305D01*
X80957Y98000D01*
X81129Y96695D01*
X81633Y95478D01*
X82434Y94434D01*
X83478Y93633D01*
X84695Y93129D01*
X86000Y92957D01*
X87305Y93129D01*
X88522Y93633D01*
X89566Y94434D01*
X90368Y95478D01*
X90871Y96695D01*
X91043Y98000D01*
X90871Y99305D01*
X90368Y100522D01*
X89957Y101056D01*
X90451Y102056D01*
X91781D01*
X93540Y100297D01*
X93129Y99305D01*
X92957Y98000D01*
X93129Y96695D01*
X93633Y95478D01*
X94434Y94434D01*
X95478Y93633D01*
X96695Y93129D01*
X98000Y92957D01*
X99305Y93129D01*
X100522Y93633D01*
X101566Y94434D01*
X102367Y95478D01*
X102871Y96695D01*
X103043Y98000D01*
X102871Y99305D01*
X102367Y100522D01*
X101566Y101566D01*
X100522Y102367D01*
X99305Y102871D01*
X98000Y103043D01*
X96695Y102871D01*
X95703Y102460D01*
X93496Y104667D01*
X93000Y104998D01*
X92415Y105115D01*
X29956D01*
X29371Y104998D01*
X28875Y104667D01*
X25919Y101710D01*
X25587Y101214D01*
X25471Y100629D01*
Y82676D01*
X25587Y82091D01*
X25919Y81594D01*
X50531Y56981D01*
X50173Y55926D01*
X49956Y55897D01*
X48983Y55494D01*
X48147Y54853D01*
X47506Y54017D01*
X47103Y53044D01*
X46966Y52000D01*
X47103Y50956D01*
X47506Y49983D01*
X48147Y49147D01*
X48983Y48506D01*
X49956Y48103D01*
X51000Y47965D01*
X52044Y48103D01*
X53017Y48506D01*
X53853Y49147D01*
X54277Y49700D01*
X55211Y49900D01*
X55527Y49864D01*
X75971Y29421D01*
Y5319D01*
X76087Y4734D01*
X76419Y4237D01*
X78512Y2144D01*
X78129Y1220D01*
X1220D01*
Y106780D01*
X146780D01*
Y1220D01*
D02*
G37*
%LPC*%
G36*
X55903Y97000D02*
X53000D01*
Y94097D01*
X53044Y94103D01*
X54017Y94506D01*
X54853Y95147D01*
X55494Y95983D01*
X55897Y96956D01*
X55903Y97000D01*
D02*
G37*
G36*
X51000D02*
X48097D01*
X48103Y96956D01*
X48506Y95983D01*
X49147Y95147D01*
X49983Y94506D01*
X50956Y94103D01*
X51000Y94097D01*
Y97000D01*
D02*
G37*
G36*
X136000Y103043D02*
X134695Y102871D01*
X133478Y102367D01*
X132434Y101566D01*
X131632Y100522D01*
X131129Y99305D01*
X130957Y98000D01*
X131129Y96695D01*
X131632Y95478D01*
X132434Y94434D01*
X133478Y93633D01*
X134695Y93129D01*
X136000Y92957D01*
X137305Y93129D01*
X138522Y93633D01*
X139566Y94434D01*
X140367Y95478D01*
X140871Y96695D01*
X141043Y98000D01*
X140871Y99305D01*
X140367Y100522D01*
X139566Y101566D01*
X138522Y102367D01*
X137305Y102871D01*
X136000Y103043D01*
D02*
G37*
G36*
X122000D02*
X120695Y102871D01*
X119478Y102367D01*
X118434Y101566D01*
X117632Y100522D01*
X117129Y99305D01*
X116957Y98000D01*
X117129Y96695D01*
X117632Y95478D01*
X118434Y94434D01*
X119478Y93633D01*
X120695Y93129D01*
X122000Y92957D01*
X123305Y93129D01*
X124522Y93633D01*
X125566Y94434D01*
X126367Y95478D01*
X126871Y96695D01*
X127043Y98000D01*
X126871Y99305D01*
X126367Y100522D01*
X125566Y101566D01*
X124522Y102367D01*
X123305Y102871D01*
X122000Y103043D01*
D02*
G37*
G36*
X110000D02*
X108695Y102871D01*
X107478Y102367D01*
X106434Y101566D01*
X105632Y100522D01*
X105129Y99305D01*
X104957Y98000D01*
X105129Y96695D01*
X105632Y95478D01*
X106434Y94434D01*
X107478Y93633D01*
X108695Y93129D01*
X110000Y92957D01*
X111305Y93129D01*
X112522Y93633D01*
X113566Y94434D01*
X114367Y95478D01*
X114871Y96695D01*
X115043Y98000D01*
X114871Y99305D01*
X114367Y100522D01*
X113566Y101566D01*
X112522Y102367D01*
X111305Y102871D01*
X110000Y103043D01*
D02*
G37*
G36*
X10000D02*
X8695Y102871D01*
X7478Y102367D01*
X6434Y101566D01*
X5632Y100522D01*
X5129Y99305D01*
X4957Y98000D01*
X5129Y96695D01*
X5632Y95478D01*
X6434Y94434D01*
X7478Y93633D01*
X8695Y93129D01*
X10000Y92957D01*
X11305Y93129D01*
X12522Y93633D01*
X13566Y94434D01*
X14367Y95478D01*
X14871Y96695D01*
X15043Y98000D01*
X14871Y99305D01*
X14367Y100522D01*
X13566Y101566D01*
X12522Y102367D01*
X11305Y102871D01*
X10000Y103043D01*
D02*
G37*
G36*
X122000Y91043D02*
X120695Y90871D01*
X119478Y90368D01*
X118434Y89566D01*
X117632Y88522D01*
X117129Y87305D01*
X116957Y86000D01*
X117129Y84695D01*
X117632Y83478D01*
X118434Y82434D01*
X119478Y81633D01*
X120695Y81129D01*
X122000Y80957D01*
X123305Y81129D01*
X124522Y81633D01*
X125566Y82434D01*
X126367Y83478D01*
X126871Y84695D01*
X127043Y86000D01*
X126871Y87305D01*
X126367Y88522D01*
X125566Y89566D01*
X124522Y90368D01*
X123305Y90871D01*
X122000Y91043D01*
D02*
G37*
G36*
X110000D02*
X108695Y90871D01*
X107478Y90368D01*
X106434Y89566D01*
X105632Y88522D01*
X105129Y87305D01*
X104957Y86000D01*
X105129Y84695D01*
X105632Y83478D01*
X106434Y82434D01*
X107478Y81633D01*
X108695Y81129D01*
X110000Y80957D01*
X111305Y81129D01*
X112522Y81633D01*
X113566Y82434D01*
X114367Y83478D01*
X114871Y84695D01*
X115043Y86000D01*
X114871Y87305D01*
X114367Y88522D01*
X113566Y89566D01*
X112522Y90368D01*
X111305Y90871D01*
X110000Y91043D01*
D02*
G37*
G36*
X98000D02*
X96695Y90871D01*
X95478Y90368D01*
X94434Y89566D01*
X93633Y88522D01*
X93129Y87305D01*
X92957Y86000D01*
X93129Y84695D01*
X93633Y83478D01*
X94434Y82434D01*
X95478Y81633D01*
X96695Y81129D01*
X98000Y80957D01*
X99305Y81129D01*
X100522Y81633D01*
X101566Y82434D01*
X102367Y83478D01*
X102871Y84695D01*
X103043Y86000D01*
X102871Y87305D01*
X102367Y88522D01*
X101566Y89566D01*
X100522Y90368D01*
X99305Y90871D01*
X98000Y91043D01*
D02*
G37*
G36*
X86126D02*
X84821Y90871D01*
X83604Y90368D01*
X82560Y89566D01*
X81758Y88522D01*
X81255Y87305D01*
X81083Y86000D01*
X81255Y84695D01*
X81758Y83478D01*
X82560Y82434D01*
X83604Y81633D01*
X84821Y81129D01*
X86126Y80957D01*
X87431Y81129D01*
X88648Y81633D01*
X89692Y82434D01*
X90494Y83478D01*
X90997Y84695D01*
X91169Y86000D01*
X90997Y87305D01*
X90494Y88522D01*
X89692Y89566D01*
X88648Y90368D01*
X87431Y90871D01*
X86126Y91043D01*
D02*
G37*
G36*
X74000D02*
X72695Y90871D01*
X71478Y90368D01*
X70434Y89566D01*
X69633Y88522D01*
X69129Y87305D01*
X68957Y86000D01*
X69129Y84695D01*
X69633Y83478D01*
X70434Y82434D01*
X71478Y81633D01*
X72695Y81129D01*
X74000Y80957D01*
X75305Y81129D01*
X76522Y81633D01*
X77566Y82434D01*
X78368Y83478D01*
X78871Y84695D01*
X79043Y86000D01*
X78871Y87305D01*
X78368Y88522D01*
X77566Y89566D01*
X76522Y90368D01*
X75305Y90871D01*
X74000Y91043D01*
D02*
G37*
G36*
X11000Y82911D02*
Y79000D01*
X14911D01*
X14871Y79305D01*
X14367Y80522D01*
X13566Y81566D01*
X12522Y82367D01*
X11305Y82871D01*
X11000Y82911D01*
D02*
G37*
G36*
X9000D02*
X8695Y82871D01*
X7478Y82367D01*
X6434Y81566D01*
X5632Y80522D01*
X5129Y79305D01*
X5088Y79000D01*
X9000D01*
Y82911D01*
D02*
G37*
G36*
X14911Y77000D02*
X11000D01*
Y73089D01*
X11305Y73129D01*
X12522Y73633D01*
X13566Y74434D01*
X14367Y75478D01*
X14871Y76695D01*
X14911Y77000D01*
D02*
G37*
G36*
X9000D02*
X5088D01*
X5129Y76695D01*
X5632Y75478D01*
X6434Y74434D01*
X7478Y73633D01*
X8695Y73129D01*
X9000Y73089D01*
Y77000D01*
D02*
G37*
G36*
X136000Y65043D02*
X134695Y64871D01*
X133478Y64368D01*
X132434Y63566D01*
X131632Y62522D01*
X131129Y61305D01*
X130972Y60113D01*
X130388Y59529D01*
X91601D01*
X91572Y59572D01*
X90851Y60054D01*
X90000Y60224D01*
X89149Y60054D01*
X88428Y59572D01*
X87945Y58851D01*
X87776Y58000D01*
X87945Y57149D01*
X88428Y56428D01*
Y55572D01*
X87945Y54851D01*
X87776Y54000D01*
X87945Y53149D01*
X88428Y52428D01*
X89149Y51946D01*
X90000Y51776D01*
X90851Y51946D01*
X91572Y52428D01*
X91601Y52471D01*
X130367D01*
X131247Y51590D01*
X131129Y51305D01*
X130957Y50000D01*
X131129Y48695D01*
X131632Y47478D01*
X132434Y46434D01*
X133478Y45632D01*
X134695Y45129D01*
X136000Y44957D01*
X137305Y45129D01*
X138522Y45632D01*
X139566Y46434D01*
X140367Y47478D01*
X140871Y48695D01*
X141043Y50000D01*
X140871Y51305D01*
X140367Y52522D01*
X139566Y53566D01*
X138522Y54368D01*
X138301Y54459D01*
Y55541D01*
X138522Y55633D01*
X139566Y56434D01*
X140367Y57478D01*
X140871Y58695D01*
X141043Y60000D01*
X140871Y61305D01*
X140367Y62522D01*
X139566Y63566D01*
X138522Y64368D01*
X137305Y64871D01*
X136000Y65043D01*
D02*
G37*
G36*
X11000Y62911D02*
Y59000D01*
X14911D01*
X14871Y59305D01*
X14367Y60522D01*
X13566Y61566D01*
X12522Y62367D01*
X11305Y62871D01*
X11000Y62911D01*
D02*
G37*
G36*
X9000D02*
X8695Y62871D01*
X7478Y62367D01*
X6434Y61566D01*
X5632Y60522D01*
X5129Y59305D01*
X5088Y59000D01*
X9000D01*
Y62911D01*
D02*
G37*
G36*
X14911Y57000D02*
X11000D01*
Y53088D01*
X11305Y53129D01*
X12522Y53632D01*
X13566Y54434D01*
X14367Y55478D01*
X14871Y56695D01*
X14911Y57000D01*
D02*
G37*
G36*
X9000D02*
X5088D01*
X5129Y56695D01*
X5632Y55478D01*
X6434Y54434D01*
X7478Y53632D01*
X8695Y53129D01*
X9000Y53088D01*
Y57000D01*
D02*
G37*
G36*
X41000Y56034D02*
X39956Y55897D01*
X38983Y55494D01*
X38147Y54853D01*
X37506Y54017D01*
X37103Y53044D01*
X36966Y52000D01*
X37103Y50956D01*
X37506Y49983D01*
X38147Y49147D01*
X38983Y48506D01*
X39956Y48103D01*
X41000Y47965D01*
X42044Y48103D01*
X43017Y48506D01*
X43853Y49147D01*
X44494Y49983D01*
X44897Y50956D01*
X45035Y52000D01*
X44897Y53044D01*
X44494Y54017D01*
X43853Y54853D01*
X43017Y55494D01*
X42044Y55897D01*
X41000Y56034D01*
D02*
G37*
G36*
X51000Y46035D02*
X49956Y45897D01*
X48983Y45494D01*
X48147Y44853D01*
X47506Y44017D01*
X47146Y43149D01*
X46761Y42997D01*
X46076Y42902D01*
X45566Y43566D01*
X44522Y44368D01*
X43305Y44871D01*
X42000Y45043D01*
X40695Y44871D01*
X39478Y44368D01*
X38434Y43566D01*
X37633Y42522D01*
X37129Y41305D01*
X36957Y40000D01*
X37129Y38695D01*
X37633Y37478D01*
X38434Y36434D01*
X39478Y35633D01*
X40695Y35129D01*
X42000Y34957D01*
X43305Y35129D01*
X44522Y35633D01*
X45566Y36434D01*
X46367Y37478D01*
X46804Y38531D01*
X47085Y38587D01*
X47581Y38919D01*
X47831Y39168D01*
X48147Y39147D01*
X48983Y38506D01*
X49956Y38103D01*
X51000Y37966D01*
X52044Y38103D01*
X53017Y38506D01*
X53853Y39147D01*
X54494Y39983D01*
X54897Y40956D01*
X55035Y42000D01*
X54897Y43044D01*
X54494Y44017D01*
X53853Y44853D01*
X53017Y45494D01*
X52044Y45897D01*
X51000Y46035D01*
D02*
G37*
G36*
X123000Y41903D02*
Y39000D01*
X125903D01*
X125897Y39044D01*
X125494Y40017D01*
X124853Y40853D01*
X124017Y41494D01*
X123044Y41897D01*
X123000Y41903D01*
D02*
G37*
G36*
X121000D02*
X120956Y41897D01*
X119983Y41494D01*
X119147Y40853D01*
X118506Y40017D01*
X118103Y39044D01*
X118097Y39000D01*
X121000D01*
Y41903D01*
D02*
G37*
G36*
X125903Y37000D02*
X123000D01*
Y34097D01*
X123044Y34103D01*
X124017Y34506D01*
X124853Y35147D01*
X125494Y35983D01*
X125897Y36956D01*
X125903Y37000D01*
D02*
G37*
G36*
X121000D02*
X118097D01*
X118103Y36956D01*
X118506Y35983D01*
X119147Y35147D01*
X119983Y34506D01*
X120956Y34103D01*
X121000Y34097D01*
Y37000D01*
D02*
G37*
G36*
X10000Y43043D02*
X8695Y42871D01*
X7478Y42368D01*
X6434Y41566D01*
X5632Y40522D01*
X5129Y39305D01*
X4957Y38000D01*
X5129Y36695D01*
X5632Y35478D01*
X6434Y34434D01*
X7478Y33632D01*
X8695Y33129D01*
X10000Y32957D01*
X11305Y33129D01*
X12522Y33632D01*
X13566Y34434D01*
X14367Y35478D01*
X14871Y36695D01*
X15043Y38000D01*
X14871Y39305D01*
X14367Y40522D01*
X13566Y41566D01*
X12522Y42368D01*
X11305Y42871D01*
X10000Y43043D01*
D02*
G37*
G36*
X60000Y34034D02*
X58956Y33897D01*
X57983Y33494D01*
X57147Y32853D01*
X56506Y32017D01*
X56103Y31044D01*
X55966Y30000D01*
X56103Y28956D01*
X56506Y27983D01*
X57147Y27147D01*
X57983Y26506D01*
X58956Y26103D01*
X60000Y25965D01*
X61044Y26103D01*
X62017Y26506D01*
X62853Y27147D01*
X63494Y27983D01*
X63897Y28956D01*
X64034Y30000D01*
X63897Y31044D01*
X63494Y32017D01*
X62853Y32853D01*
X62017Y33494D01*
X61044Y33897D01*
X60000Y34034D01*
D02*
G37*
G36*
X132522Y33043D02*
X131216Y32871D01*
X130000Y32368D01*
X128956Y31566D01*
X128154Y30522D01*
X127650Y29305D01*
X127479Y28000D01*
X127650Y26695D01*
X128154Y25478D01*
X128956Y24434D01*
X130000Y23632D01*
X131216Y23129D01*
X132522Y22957D01*
X133827Y23129D01*
X135043Y23632D01*
X136088Y24434D01*
X136889Y25478D01*
X137393Y26695D01*
X137565Y28000D01*
X137393Y29305D01*
X136889Y30522D01*
X136088Y31566D01*
X135043Y32368D01*
X133827Y32871D01*
X132522Y33043D01*
D02*
G37*
G36*
X33000Y21903D02*
Y19000D01*
X35903D01*
X35897Y19044D01*
X35494Y20017D01*
X34853Y20853D01*
X34017Y21494D01*
X33044Y21897D01*
X33000Y21903D01*
D02*
G37*
G36*
X31000D02*
X30956Y21897D01*
X29983Y21494D01*
X29147Y20853D01*
X28506Y20017D01*
X28103Y19044D01*
X28097Y19000D01*
X31000D01*
Y21903D01*
D02*
G37*
G36*
X35903Y17000D02*
X28097D01*
X28103Y16956D01*
X28506Y15983D01*
X29147Y15147D01*
X29923Y14552D01*
X29983Y14119D01*
Y13881D01*
X29923Y13448D01*
X29147Y12853D01*
X28506Y12017D01*
X28103Y11044D01*
X28097Y11000D01*
X35903D01*
X35897Y11044D01*
X35494Y12017D01*
X34853Y12853D01*
X34077Y13448D01*
X34017Y13881D01*
Y14119D01*
X34077Y14552D01*
X34853Y15147D01*
X35494Y15983D01*
X35897Y16956D01*
X35903Y17000D01*
D02*
G37*
G36*
Y9000D02*
X33000D01*
Y6097D01*
X33044Y6103D01*
X34017Y6506D01*
X34853Y7147D01*
X35494Y7983D01*
X35897Y8956D01*
X35903Y9000D01*
D02*
G37*
G36*
X31000D02*
X28097D01*
X28103Y8956D01*
X28506Y7983D01*
X29147Y7147D01*
X29983Y6506D01*
X30956Y6103D01*
X31000Y6097D01*
Y9000D01*
D02*
G37*
G36*
X52000Y22035D02*
X50956Y21897D01*
X49983Y21494D01*
X49147Y20853D01*
X48506Y20017D01*
X48103Y19044D01*
X47965Y18000D01*
X48103Y16956D01*
X48506Y15983D01*
X49147Y15147D01*
X49923Y14552D01*
X49983Y14119D01*
Y13881D01*
X49923Y13448D01*
X49147Y12853D01*
X48506Y12017D01*
X48103Y11044D01*
X47965Y10000D01*
X48103Y8956D01*
X48506Y7983D01*
X49147Y7147D01*
X49983Y6506D01*
X50956Y6103D01*
X52000Y5965D01*
X53044Y6103D01*
X54017Y6506D01*
X54853Y7147D01*
X55448Y7923D01*
X55881Y7983D01*
X56119D01*
X56552Y7923D01*
X57147Y7147D01*
X57983Y6506D01*
X58956Y6103D01*
X60000Y5965D01*
X61044Y6103D01*
X62017Y6506D01*
X62853Y7147D01*
X63494Y7983D01*
X63897Y8956D01*
X64034Y10000D01*
X63897Y11044D01*
X63494Y12017D01*
X62853Y12853D01*
X62017Y13494D01*
X61044Y13897D01*
X60000Y14035D01*
X58956Y13897D01*
X57983Y13494D01*
X57147Y12853D01*
X56552Y12077D01*
X56119Y12017D01*
X55881D01*
X55448Y12077D01*
X54853Y12853D01*
X54077Y13448D01*
X54017Y13881D01*
Y14119D01*
X54077Y14552D01*
X54853Y15147D01*
X55494Y15983D01*
X55897Y16956D01*
X56034Y18000D01*
X55897Y19044D01*
X55494Y20017D01*
X54853Y20853D01*
X54017Y21494D01*
X53044Y21897D01*
X52000Y22035D01*
D02*
G37*
%LPD*%
D14*
X83000Y61823D02*
X89177Y68000D01*
X83000Y40121D02*
Y61823D01*
Y40121D02*
X90681Y32440D01*
X81500Y62445D02*
X92000Y72945D01*
X81500Y39500D02*
Y62445D01*
Y39500D02*
X89181Y31819D01*
X89177Y68000D02*
X124500D01*
X74000Y51305D02*
X75000Y50305D01*
X80000Y72000D02*
X81681Y70319D01*
X80000Y63066D02*
X81681Y64747D01*
Y70319D01*
X92000Y72945D02*
Y74000D01*
X80000Y56000D02*
Y63066D01*
X75000Y51000D02*
X80000Y56000D01*
X70000D02*
X75000Y61000D01*
X70000Y48500D02*
Y56000D01*
X98506Y5006D02*
X101874Y8374D01*
X89873Y5006D02*
X98506D01*
X65000Y61000D02*
Y66868D01*
X46871Y84996D02*
X65000Y66868D01*
X50000Y41000D02*
X51000Y42000D01*
X47500Y41000D02*
X50000D01*
X46500Y40000D02*
X47500Y41000D01*
X42000Y40000D02*
X46500D01*
X55609Y51946D02*
X77500Y30055D01*
X51500Y51946D02*
X55609D01*
X74000Y66000D02*
X79500D01*
X52000Y88000D02*
X74000Y66000D01*
X46871Y84996D02*
Y93129D01*
X42000Y98000D02*
X46871Y93129D01*
X70000Y48500D02*
X87681Y30819D01*
X77500Y5319D02*
Y30055D01*
X81000Y5819D02*
Y28676D01*
X27000Y82676D02*
X81000Y28676D01*
X27000Y82676D02*
Y100629D01*
X82500Y8000D02*
Y29500D01*
X32000Y80000D02*
X82500Y29500D01*
X32000Y80000D02*
Y88000D01*
X96292Y8500D02*
X97000D01*
X29956Y103585D02*
X92415D01*
X27000Y100629D02*
X29956Y103585D01*
X92415D02*
X98000Y98000D01*
X109506Y2006D02*
X116000Y8500D01*
X80813Y2006D02*
X109506D01*
X77500Y5319D02*
X80813Y2006D01*
X101506Y3506D02*
X106500Y8500D01*
X86994Y3506D02*
X101506D01*
X82500Y8000D02*
X86994Y3506D01*
X87681Y7198D02*
X89873Y5006D01*
X94298Y6506D02*
X96292Y8500D01*
X90494Y6506D02*
X94298D01*
X89181Y7819D02*
X90494Y6506D01*
X90681Y10319D02*
X92000Y9000D01*
X90000Y54000D02*
X131000D01*
X135000Y50000D01*
X135500Y59500D02*
Y60500D01*
X90000Y58000D02*
X131022D01*
X124500Y68000D02*
X130000Y73500D01*
X135000Y50000D02*
X136000D01*
X132522Y59500D02*
X135500D01*
X131022Y58000D02*
X132522Y59500D01*
X90681Y10319D02*
Y32440D01*
X87681Y7198D02*
Y30819D01*
X80000Y72000D02*
Y74000D01*
X101874Y8374D02*
Y8500D01*
X89181Y7819D02*
Y31819D01*
X130000Y73500D02*
Y74000D01*
X116000Y8500D02*
Y15500D01*
X135500Y60500D02*
X136000Y60000D01*
D23*
X110000Y98000D02*
D03*
X122000D02*
D03*
Y86000D02*
D03*
X110000D02*
D03*
X98000D02*
D03*
X86126D02*
D03*
X74000D02*
D03*
Y98000D02*
D03*
X86000D02*
D03*
X98000D02*
D03*
X10000Y58000D02*
D03*
X136000Y60000D02*
D03*
Y50000D02*
D03*
X10000Y38000D02*
D03*
X42000Y40000D02*
D03*
X132522Y28000D02*
D03*
X80000Y74000D02*
D03*
X92000D02*
D03*
X130000D02*
D03*
X10000Y98000D02*
D03*
Y78000D02*
D03*
X136000Y98000D02*
D03*
D24*
X122000Y18000D02*
D03*
Y38000D02*
D03*
X52000Y18000D02*
D03*
X32000D02*
D03*
X52000Y10000D02*
D03*
X32000D02*
D03*
X60000D02*
D03*
Y30000D02*
D03*
X52000Y98000D02*
D03*
Y88000D02*
D03*
X42000Y98000D02*
D03*
Y88000D02*
D03*
X32000Y98000D02*
D03*
X41000Y52000D02*
D03*
X51000D02*
D03*
X75000Y61000D02*
D03*
X65000D02*
D03*
X75000Y51000D02*
D03*
X51000Y42000D02*
D03*
D25*
X32000Y88000D02*
D03*
D26*
X79500Y66000D02*
D03*
X97000Y8500D02*
D03*
X92000Y9000D02*
D03*
X90000Y54000D02*
D03*
Y58000D02*
D03*
X81000Y5819D02*
D03*
X101874Y8500D02*
D03*
X116000Y15500D02*
D03*
X106500Y8500D02*
D03*
M02*
