G04*
G04 #@! TF.GenerationSoftware,Altium Limited,Altium Designer,18.1.9 (240)*
G04*
G04 Layer_Color=65535*
%FSLAX25Y25*%
%MOIN*%
G70*
G01*
G75*
%ADD10C,0.02362*%
%ADD11C,0.00984*%
%ADD12C,0.00787*%
%ADD13C,0.00400*%
%ADD14C,0.01000*%
D10*
X86913Y39268D02*
G03*
X86913Y39268I-1181J0D01*
G01*
D11*
X77760Y45272D02*
G03*
X77760Y45272I-492J0D01*
G01*
D12*
X122000Y23000D02*
Y33000D01*
X119000Y31000D02*
X125000Y25000D01*
X119000D02*
X125000Y31000D01*
X37000Y18000D02*
X47000D01*
X39000Y15000D02*
X45000Y21000D01*
X39000D02*
X45000Y15000D01*
X37000Y10000D02*
X47000D01*
X39000Y7000D02*
X45000Y13000D01*
X39000D02*
X45000Y7000D01*
X60000Y15000D02*
Y25000D01*
X57000Y23000D02*
X63000Y17000D01*
X57000D02*
X63000Y23000D01*
X81795Y18795D02*
X106205D01*
X81795Y43205D02*
X106205D01*
Y18795D02*
Y43205D01*
X81795Y18795D02*
Y43205D01*
X26000Y84000D02*
X28000Y82000D01*
X58000D01*
Y104000D01*
X26000D02*
X58000D01*
X26000Y84000D02*
Y104000D01*
X20208Y26787D02*
X23750D01*
X20208D02*
Y28980D01*
X21894Y26787D02*
Y28137D01*
X20208Y29385D02*
X23750D01*
X21388Y30971D02*
X21557Y30634D01*
X21894Y30296D01*
X22401Y30128D01*
X22738D01*
X23244Y30296D01*
X23581Y30634D01*
X23750Y30971D01*
Y31477D01*
X23581Y31814D01*
X23244Y32152D01*
X22738Y32320D01*
X22401D01*
X21894Y32152D01*
X21557Y31814D01*
X21388Y31477D01*
Y30971D01*
Y33097D02*
X24931D01*
X21894D02*
X21557Y33434D01*
X21388Y33771D01*
Y34277D01*
X21557Y34615D01*
X21894Y34952D01*
X22401Y35121D01*
X22738D01*
X23244Y34952D01*
X23581Y34615D01*
X23750Y34277D01*
Y33771D01*
X23581Y33434D01*
X23244Y33097D01*
X21388Y35880D02*
X24931D01*
X21894D02*
X21557Y36217D01*
X21388Y36555D01*
Y37061D01*
X21557Y37398D01*
X21894Y37736D01*
X22401Y37904D01*
X22738D01*
X23244Y37736D01*
X23581Y37398D01*
X23750Y37061D01*
Y36555D01*
X23581Y36217D01*
X23244Y35880D01*
X21388Y38832D02*
X23750Y39844D01*
X21388Y40856D02*
X23750Y39844D01*
X24425Y39507D01*
X24762Y39169D01*
X24931Y38832D01*
Y38663D01*
X20208Y41447D02*
X23750D01*
X21388Y43134D02*
X23075Y41447D01*
X22401Y42122D02*
X23750Y43302D01*
X21388Y44703D02*
X21557Y44365D01*
X21894Y44028D01*
X22401Y43859D01*
X22738D01*
X23244Y44028D01*
X23581Y44365D01*
X23750Y44703D01*
Y45209D01*
X23581Y45546D01*
X23244Y45883D01*
X22738Y46052D01*
X22401D01*
X21894Y45883D01*
X21557Y45546D01*
X21388Y45209D01*
Y44703D01*
Y46828D02*
X23750D01*
X22401D02*
X21894Y46997D01*
X21557Y47334D01*
X21388Y47672D01*
Y48178D01*
X20208Y51282D02*
X23750D01*
X20208D02*
X23750Y52631D01*
X20208Y53981D02*
X23750Y52631D01*
X20208Y53981D02*
X23750D01*
X21388Y57017D02*
X23750D01*
X21894D02*
X21557Y56680D01*
X21388Y56342D01*
Y55836D01*
X21557Y55499D01*
X21894Y55161D01*
X22401Y54993D01*
X22738D01*
X23244Y55161D01*
X23581Y55499D01*
X23750Y55836D01*
Y56342D01*
X23581Y56680D01*
X23244Y57017D01*
X21894Y59817D02*
X21557Y59649D01*
X21388Y59143D01*
Y58637D01*
X21557Y58131D01*
X21894Y57962D01*
X22232Y58131D01*
X22401Y58468D01*
X22569Y59311D01*
X22738Y59649D01*
X23075Y59817D01*
X23244D01*
X23581Y59649D01*
X23750Y59143D01*
Y58637D01*
X23581Y58131D01*
X23244Y57962D01*
X20208Y61066D02*
X23075D01*
X23581Y61234D01*
X23750Y61572D01*
Y61909D01*
X21388Y60560D02*
Y61740D01*
X22401Y62415D02*
Y64440D01*
X22063D01*
X21726Y64271D01*
X21557Y64102D01*
X21388Y63765D01*
Y63259D01*
X21557Y62921D01*
X21894Y62584D01*
X22401Y62415D01*
X22738D01*
X23244Y62584D01*
X23581Y62921D01*
X23750Y63259D01*
Y63765D01*
X23581Y64102D01*
X23244Y64440D01*
X21388Y65199D02*
X23750D01*
X22401D02*
X21894Y65367D01*
X21557Y65705D01*
X21388Y66042D01*
Y66548D01*
Y69652D02*
X23750Y70664D01*
X21388Y71676D02*
X23750Y70664D01*
X21051Y72419D02*
X20882D01*
X20545Y72588D01*
X20376Y72756D01*
X20208Y73094D01*
Y73768D01*
X20376Y74106D01*
X20545Y74274D01*
X20882Y74443D01*
X21220D01*
X21557Y74274D01*
X22063Y73937D01*
X23750Y72250D01*
Y74612D01*
X27529Y26787D02*
X31072D01*
X27529D02*
Y28980D01*
X29216Y26787D02*
Y28137D01*
X28710Y29385D02*
X31072D01*
X29722D02*
X29216Y29554D01*
X28879Y29891D01*
X28710Y30229D01*
Y30735D01*
Y31899D02*
X28879Y31561D01*
X29216Y31224D01*
X29722Y31055D01*
X30060D01*
X30566Y31224D01*
X30903Y31561D01*
X31072Y31899D01*
Y32405D01*
X30903Y32742D01*
X30566Y33080D01*
X30060Y33248D01*
X29722D01*
X29216Y33080D01*
X28879Y32742D01*
X28710Y32405D01*
Y31899D01*
X27529Y36049D02*
X31072D01*
X29216D02*
X28879Y35711D01*
X28710Y35374D01*
Y34868D01*
X28879Y34530D01*
X29216Y34193D01*
X29722Y34024D01*
X30060D01*
X30566Y34193D01*
X30903Y34530D01*
X31072Y34868D01*
Y35374D01*
X30903Y35711D01*
X30566Y36049D01*
X29722Y36993D02*
Y39018D01*
X29385D01*
X29048Y38849D01*
X28879Y38680D01*
X28710Y38343D01*
Y37837D01*
X28879Y37499D01*
X29216Y37162D01*
X29722Y36993D01*
X30060D01*
X30566Y37162D01*
X30903Y37499D01*
X31072Y37837D01*
Y38343D01*
X30903Y38680D01*
X30566Y39018D01*
X28710Y42560D02*
X31072Y43572D01*
X28710Y44585D02*
X31072Y43572D01*
X28710Y47182D02*
X31072D01*
X29216D02*
X28879Y46845D01*
X28710Y46508D01*
Y46001D01*
X28879Y45664D01*
X29216Y45327D01*
X29722Y45158D01*
X30060D01*
X30566Y45327D01*
X30903Y45664D01*
X31072Y46001D01*
Y46508D01*
X30903Y46845D01*
X30566Y47182D01*
X28710Y48127D02*
X31072D01*
X29385D02*
X28879Y48633D01*
X28710Y48970D01*
Y49477D01*
X28879Y49814D01*
X29385Y49983D01*
X31072D01*
X27529Y55718D02*
X31072D01*
X29216D02*
X28879Y55381D01*
X28710Y55043D01*
Y54537D01*
X28879Y54200D01*
X29216Y53863D01*
X29722Y53694D01*
X30060D01*
X30566Y53863D01*
X30903Y54200D01*
X31072Y54537D01*
Y55043D01*
X30903Y55381D01*
X30566Y55718D01*
X29722Y56663D02*
Y58687D01*
X29385D01*
X29048Y58518D01*
X28879Y58350D01*
X28710Y58012D01*
Y57506D01*
X28879Y57169D01*
X29216Y56832D01*
X29722Y56663D01*
X30060D01*
X30566Y56832D01*
X30903Y57169D01*
X31072Y57506D01*
Y58012D01*
X30903Y58350D01*
X30566Y58687D01*
X28710Y59446D02*
X31072D01*
X29722D02*
X29216Y59615D01*
X28879Y59952D01*
X28710Y60290D01*
Y60796D01*
X27529Y63900D02*
X31072D01*
X27529D02*
X31072Y65249D01*
X27529Y66599D02*
X31072Y65249D01*
X27529Y66599D02*
X31072D01*
X29722Y67611D02*
Y69635D01*
X29385D01*
X29048Y69467D01*
X28879Y69298D01*
X28710Y68961D01*
Y68454D01*
X28879Y68117D01*
X29216Y67780D01*
X29722Y67611D01*
X30060D01*
X30566Y67780D01*
X30903Y68117D01*
X31072Y68454D01*
Y68961D01*
X30903Y69298D01*
X30566Y69635D01*
X29722Y70394D02*
Y72419D01*
X29385D01*
X29048Y72250D01*
X28879Y72081D01*
X28710Y71744D01*
Y71238D01*
X28879Y70900D01*
X29216Y70563D01*
X29722Y70394D01*
X30060D01*
X30566Y70563D01*
X30903Y70900D01*
X31072Y71238D01*
Y71744D01*
X30903Y72081D01*
X30566Y72419D01*
X28710Y73178D02*
X31072D01*
X29722D02*
X29216Y73347D01*
X28879Y73684D01*
X28710Y74021D01*
Y74527D01*
X29722Y74848D02*
Y76872D01*
X29385D01*
X29048Y76704D01*
X28879Y76535D01*
X28710Y76197D01*
Y75691D01*
X28879Y75354D01*
X29216Y75017D01*
X29722Y74848D01*
X30060D01*
X30566Y75017D01*
X30903Y75354D01*
X31072Y75691D01*
Y76197D01*
X30903Y76535D01*
X30566Y76872D01*
X28710Y77631D02*
X31072D01*
X29385D02*
X28879Y78137D01*
X28710Y78475D01*
Y78981D01*
X28879Y79318D01*
X29385Y79487D01*
X31072D01*
X34514Y26956D02*
X34345D01*
X34007Y27125D01*
X33839Y27294D01*
X33670Y27631D01*
Y28306D01*
X33839Y28643D01*
X34007Y28812D01*
X34345Y28980D01*
X34682D01*
X35020Y28812D01*
X35526Y28474D01*
X37213Y26787D01*
Y29149D01*
X33670Y30954D02*
X33839Y30448D01*
X34345Y30111D01*
X35188Y29942D01*
X35694D01*
X36538Y30111D01*
X37044Y30448D01*
X37213Y30954D01*
Y31291D01*
X37044Y31798D01*
X36538Y32135D01*
X35694Y32304D01*
X35188D01*
X34345Y32135D01*
X33839Y31798D01*
X33670Y31291D01*
Y30954D01*
X34345Y33097D02*
X34176Y33434D01*
X33670Y33940D01*
X37213D01*
X34851Y37887D02*
X35357Y37719D01*
X35694Y37381D01*
X35863Y36875D01*
Y36707D01*
X35694Y36200D01*
X35357Y35863D01*
X34851Y35694D01*
X34682D01*
X34176Y35863D01*
X33839Y36200D01*
X33670Y36707D01*
Y36875D01*
X33839Y37381D01*
X34176Y37719D01*
X34851Y37887D01*
X35694D01*
X36538Y37719D01*
X37044Y37381D01*
X37213Y36875D01*
Y36538D01*
X37044Y36032D01*
X36707Y35863D01*
X35694Y38849D02*
Y41885D01*
X33670Y43944D02*
X33839Y43437D01*
X34345Y43100D01*
X35188Y42931D01*
X35694D01*
X36538Y43100D01*
X37044Y43437D01*
X37213Y43944D01*
Y44281D01*
X37044Y44787D01*
X36538Y45124D01*
X35694Y45293D01*
X35188D01*
X34345Y45124D01*
X33839Y44787D01*
X33670Y44281D01*
Y43944D01*
X34176Y48110D02*
X33839Y47941D01*
X33670Y47435D01*
Y47098D01*
X33839Y46592D01*
X34345Y46255D01*
X35188Y46086D01*
X36032D01*
X36707Y46255D01*
X37044Y46592D01*
X37213Y47098D01*
Y47267D01*
X37044Y47773D01*
X36707Y48110D01*
X36200Y48279D01*
X36032D01*
X35526Y48110D01*
X35188Y47773D01*
X35020Y47267D01*
Y47098D01*
X35188Y46592D01*
X35526Y46255D01*
X36032Y46086D01*
X35694Y49055D02*
Y52091D01*
X33670Y54149D02*
X33839Y53643D01*
X34345Y53306D01*
X35188Y53137D01*
X35694D01*
X36538Y53306D01*
X37044Y53643D01*
X37213Y54149D01*
Y54487D01*
X37044Y54993D01*
X36538Y55330D01*
X35694Y55499D01*
X35188D01*
X34345Y55330D01*
X33839Y54993D01*
X33670Y54487D01*
Y54149D01*
Y57135D02*
X33839Y56629D01*
X34176Y56460D01*
X34514D01*
X34851Y56629D01*
X35020Y56967D01*
X35188Y57641D01*
X35357Y58147D01*
X35694Y58485D01*
X36032Y58653D01*
X36538D01*
X36875Y58485D01*
X37044Y58316D01*
X37213Y57810D01*
Y57135D01*
X37044Y56629D01*
X36875Y56460D01*
X36538Y56292D01*
X36032D01*
X35694Y56460D01*
X35357Y56798D01*
X35188Y57304D01*
X35020Y57979D01*
X34851Y58316D01*
X34514Y58485D01*
X34176D01*
X33839Y58316D01*
X33670Y57810D01*
Y57135D01*
X34345Y62230D02*
X34176Y62567D01*
X33670Y63073D01*
X37213D01*
X34176Y66852D02*
X33839Y66683D01*
X33670Y66177D01*
Y65840D01*
X33839Y65334D01*
X34345Y64996D01*
X35188Y64828D01*
X36032D01*
X36707Y64996D01*
X37044Y65334D01*
X37213Y65840D01*
Y66009D01*
X37044Y66515D01*
X36707Y66852D01*
X36200Y67021D01*
X36032D01*
X35526Y66852D01*
X35188Y66515D01*
X35020Y66009D01*
Y65840D01*
X35188Y65334D01*
X35526Y64996D01*
X36032Y64828D01*
X34851Y67965D02*
X35020Y67797D01*
X35188Y67965D01*
X35020Y68134D01*
X34851Y67965D01*
X36875D02*
X37044Y67797D01*
X37213Y67965D01*
X37044Y68134D01*
X36875Y67965D01*
X33670Y70934D02*
Y69247D01*
X35188Y69079D01*
X35020Y69247D01*
X34851Y69753D01*
Y70260D01*
X35020Y70766D01*
X35357Y71103D01*
X35863Y71272D01*
X36200D01*
X36707Y71103D01*
X37044Y70766D01*
X37213Y70260D01*
Y69753D01*
X37044Y69247D01*
X36875Y69079D01*
X36538Y68910D01*
X33670Y73077D02*
X33839Y72571D01*
X34345Y72233D01*
X35188Y72065D01*
X35694D01*
X36538Y72233D01*
X37044Y72571D01*
X37213Y73077D01*
Y73414D01*
X37044Y73920D01*
X36538Y74258D01*
X35694Y74426D01*
X35188D01*
X34345Y74258D01*
X33839Y73920D01*
X33670Y73414D01*
Y73077D01*
Y77581D02*
X37213Y75219D01*
X33670D02*
Y77581D01*
X37213Y75219D02*
Y77581D01*
D13*
X68500Y66500D02*
Y68000D01*
X69250D01*
X69500Y67750D01*
Y67250D01*
X69250Y67000D01*
X68500D01*
X69999Y66500D02*
Y68000D01*
X70749D01*
X70999Y67750D01*
Y67250D01*
X70749Y67000D01*
X69999D01*
X70499D02*
X70999Y66500D01*
X72499Y67750D02*
X72249Y68000D01*
X71749D01*
X71499Y67750D01*
Y66750D01*
X71749Y66500D01*
X72249D01*
X72499Y66750D01*
Y67250D01*
X71999D01*
X81250Y56999D02*
X80750D01*
X80500Y56750D01*
Y55750D01*
X80750Y55500D01*
X81250D01*
X81500Y55750D01*
Y56750D01*
X81250Y56999D01*
X81999Y55500D02*
Y56999D01*
X82749D01*
X82999Y56750D01*
Y56250D01*
X82749Y56000D01*
X81999D01*
X83499Y55500D02*
Y56999D01*
X84249D01*
X84499Y56750D01*
Y56250D01*
X84249Y56000D01*
X83499D01*
X83999D02*
X84499Y55500D01*
X56750Y48000D02*
X56250D01*
X56000Y47750D01*
Y46750D01*
X56250Y46500D01*
X56750D01*
X57000Y46750D01*
Y47750D01*
X56750Y48000D01*
X57499Y46500D02*
Y48000D01*
X58249D01*
X58499Y47750D01*
Y47250D01*
X58249Y47000D01*
X57499D01*
X58999Y46500D02*
Y48000D01*
X59749D01*
X59999Y47750D01*
Y47250D01*
X59749Y47000D01*
X58999D01*
X59499D02*
X59999Y46500D01*
X44500Y57500D02*
Y59000D01*
X45250D01*
X45500Y58750D01*
Y58250D01*
X45250Y58000D01*
X44500D01*
X46000Y57500D02*
Y59000D01*
X46749D01*
X46999Y58750D01*
Y58250D01*
X46749Y58000D01*
X46000D01*
X46499D02*
X46999Y57500D01*
X48499Y58750D02*
X48249Y59000D01*
X47749D01*
X47499Y58750D01*
Y57750D01*
X47749Y57500D01*
X48249D01*
X48499Y57750D01*
Y58250D01*
X47999D01*
D14*
X66001Y12000D02*
X70000Y14666D01*
X66001D02*
X70000Y12000D01*
X66001Y15999D02*
Y18665D01*
Y17332D01*
X70000D01*
Y19997D02*
X67334D01*
X66001Y21330D01*
X67334Y22663D01*
X70000D01*
X68001D01*
Y19997D01*
X66001Y23996D02*
X70000D01*
Y26662D01*
Y27995D02*
Y29328D01*
Y28661D01*
X66001D01*
X66668Y27995D01*
X89276Y34498D02*
Y29500D01*
X90275Y28500D01*
X92275D01*
X93274Y29500D01*
Y34498D01*
X95274Y28500D02*
X97273D01*
X96273D01*
Y34498D01*
X95274Y33498D01*
X120000Y62998D02*
X123999D01*
X121999D01*
Y57000D01*
X125998Y62998D02*
X129997Y57000D01*
Y62998D02*
X125998Y57000D01*
X120000Y45000D02*
Y50998D01*
X122999D01*
X123999Y49998D01*
Y47999D01*
X122999Y46999D01*
X120000D01*
X121999D02*
X123999Y45000D01*
X125998Y50998D02*
X129997Y45000D01*
Y50998D02*
X125998Y45000D01*
X61999Y81998D02*
X59999D01*
X60999D01*
Y77000D01*
X59999Y76000D01*
X59000D01*
X58000Y77000D01*
X63998Y76000D02*
X65997D01*
X64998D01*
Y81998D01*
X63998Y80998D01*
X5999Y70998D02*
X4999Y71998D01*
X3000D01*
X2000Y70998D01*
Y67000D01*
X3000Y66000D01*
X4999D01*
X5999Y67000D01*
Y68999D01*
X3999D01*
X7998Y66000D02*
Y71998D01*
X11997Y66000D01*
Y71998D01*
X13996D02*
Y66000D01*
X16995D01*
X17995Y67000D01*
Y70998D01*
X16995Y71998D01*
X13996D01*
X22666Y11332D02*
X21999Y11999D01*
X20666D01*
X20000Y11332D01*
Y8666D01*
X20666Y8000D01*
X21999D01*
X22666Y8666D01*
X23999Y11332D02*
X24665Y11999D01*
X25998D01*
X26665Y11332D01*
Y10666D01*
X25998Y9999D01*
X25332D01*
X25998D01*
X26665Y9333D01*
Y8666D01*
X25998Y8000D01*
X24665D01*
X23999Y8666D01*
X22666Y19332D02*
X21999Y19999D01*
X20666D01*
X20000Y19332D01*
Y16667D01*
X20666Y16000D01*
X21999D01*
X22666Y16667D01*
X26665Y16000D02*
X23999D01*
X26665Y18666D01*
Y19332D01*
X25998Y19999D01*
X24665D01*
X23999Y19332D01*
X129666D02*
X128999Y19999D01*
X127666D01*
X127000Y19332D01*
Y16667D01*
X127666Y16000D01*
X128999D01*
X129666Y16667D01*
X130999Y16000D02*
X132332D01*
X131665D01*
Y19999D01*
X130999Y19332D01*
X7999Y30998D02*
X4000D01*
Y27999D01*
X5999Y28999D01*
X6999D01*
X7999Y27999D01*
Y26000D01*
X6999Y25000D01*
X5000D01*
X4000Y26000D01*
X9998Y30998D02*
Y26999D01*
X11997Y25000D01*
X13997Y26999D01*
Y30998D01*
M02*
