M48
;Layer_Color=9474304
;FILE_FORMAT=2:5
INCH,LZ
;TYPE=PLATED
T1F00S00C0.03000
T2F00S00C0.05200
T3F00S00C0.06700
%
T01
X0476835Y0204866
X0486835
X0496835
X0506835
X0516835
X0526835
X0536835
X0546835
X0556835
X0566835
Y0214866
X0556835
X0546835
X0536835
X0526835
X0516835
X0506835
X0496835
X0486835
X0476835
X0472835Y023185
X0482835
X0492835
X0502835
X0512835
X0522835
X0532835
X0546835Y023785
Y025785
X0532835Y026185
X0522835
X0512835
X0502835
X0492835
X0482835
X0472835
X0462835Y028585
Y029585
X0452835
Y028585
X0442835
Y029585
X0446835Y0214866
X0456835
X0466835
Y0204866
X0456835
X0446835
X0436835
Y0214866
X0426835
Y0204866
X0416835
Y0214866
X0406835
Y0204866
X039385
Y0214866
X038385
Y0204866
X037385
Y0214866
X036385
Y0204866
X035385
Y0214866
X034385
Y0204866
X033385
Y0214866
X032385
Y0204866
X031385
Y0214866
X031985Y023185
X032985
X033985
X034985
X035985
X037385Y023785
Y025785
X035985Y026185
X034985
X033985
X032985
X031985
X030985
X029985
Y023185
X030985
X030385Y0214866
Y0204866
X029385
Y0214866
X028385
Y0204866
X027385
Y0214866
X026385
Y0204866
X025385
Y0214866
X024385
X023385
Y0204866
X024385
X026985Y028585
X027985
X028985
Y029585
X027985
X026985
X027385Y032385
X028385
X029385
X030385
Y033385
X029385
X028385
X027385
X026385
Y032385
X025385
Y033385
X024385
X023385
Y032385
X024385
X029985Y0350835
X030985
Y0380835
X029985
X028985Y0404835
Y0414835
X027985
Y0404835
X026985
Y0414835
X031985Y0380835
X032985
X033985
X034985
X035985
X037385Y0376835
Y0356835
X035985Y0350835
X034985
X033985
X032985
X031985
X032385Y033385
X033385
X034385
X035385
Y032385
X036385
X037385
X038385
X039385
Y033385
X038385
X037385
X036385
X034385Y032385
X033385
X032385
X031385
Y033385
X0406835
X0416835
X0426835
X0436835
X0446835
X0456835
X0466835
Y032385
X0456835
X0446835
X0436835
X0426835
X0416835
X0406835
X0442835Y0404835
X0452835
X0462835
Y0414835
X0452835
X0442835
X0472835Y0380835
X0482835
X0492835
X0502835
X0512835
X0522835
X0532835
X0546835Y0376835
Y0356835
X0532835Y0350835
X0522835
X0512835
X0502835
X0492835
X0482835
X0472835
X0476835Y033385
X0486835
X0496835
X0506835
X0516835
X0526835
Y032385
X0536835
X0546835
X0556835
X0566835
Y033385
X0556835
X0546835
X0536835
X0516835Y032385
X0506835
X0496835
X0486835
X0476835
T02
X0490835Y027385
X0502835
X0540835
X0560835Y027785
Y029785
X0546835
X0560835Y025785
Y023785
X0543356Y022785
X0452835Y023985
X0420835Y023785
Y025785
Y027785
Y029785
X038785
X037385
X036785Y027385
X038785Y027785
Y025785
Y023785
X0370372Y022785
X032985Y027385
X031785
X027985Y023985
X024785Y023785
Y025785
Y027785
Y029785
Y0356835
Y0376835
Y0396835
Y0416835
X027985Y0358835
X031785Y0392835
X032985
X036785
X038785Y0396835
Y0416835
X037385
X0420835
Y0396835
Y0376835
Y0356835
X038785
Y0376835
X0370372Y0346835
X0452835Y0358835
X0490835Y0392835
X0502835
X0540835
X0560835Y0396835
Y0416835
X0546835
X0560835Y0376835
Y0356835
X0543356Y0346835
T03
X0484835Y028585
X0496835
X0508835
X0520835
Y029785
X0508835
X0496835
X0484835
X0532835
Y028585
X035985
X034785
X033585
X032385
Y029785
X033585
X034785
X035985
X031185
Y028585
Y0404835
Y0416835
X032385
Y0404835
X033585
X034785
Y0416835
X033585
X035985
Y0404835
X0484835
X0496835
X0508835
X0520835
Y0416835
X0508835
X0496835
X0484835
X0532835
Y0404835
M30
