M48
;Layer_Color=9474304
;FILE_FORMAT=2:5
INCH,LZ
;TYPE=PLATED
T1F00S00C0.01181
T2F00S00C0.03000
T3F00S00C0.04500
T4F00S00C0.05200
%
T01
X0081Y0005819
X0092Y0009
X0097Y00085
X0101874
X01065
X0116Y00155
X009Y0054
Y0058
X00795Y0066
T02
X0032Y001
Y0018
X0052
Y001
X006
Y003
X0051Y0042
Y0052
X0041
X0065Y0061
X0075
Y0051
X0122Y0038
Y0018
X0052Y0088
Y0098
X0042
Y0088
X0032
Y0098
T03
X0074Y0086
Y0098
X0086
X0098
X011
X0122
Y0086
X011
X0098
X0086126
X0136Y006
Y005
T04
X001Y0038
Y0058
Y0078
Y0098
X0042Y004
X008Y0074
X0092
X013
X0136Y0098
X0132522Y0028
M30
