G04*
G04 #@! TF.GenerationSoftware,Altium Limited,Altium Designer,18.1.9 (240)*
G04*
G04 Layer_Color=65535*
%FSLAX25Y25*%
%MOIN*%
G70*
G01*
G75*
%ADD16C,0.01000*%
%ADD17C,0.00787*%
%ADD18C,0.01181*%
D16*
X362350Y249850D02*
G03*
X362350Y243850I350J-3000D01*
G01*
X323850Y251849D02*
Y246850D01*
X324850Y245850D01*
X326849D01*
X327849Y246850D01*
Y251849D01*
X329849Y245850D02*
X331848D01*
X330848D01*
Y251849D01*
X329849Y250849D01*
X269849Y309848D02*
X267850D01*
X268849D01*
Y304850D01*
X267850Y303850D01*
X266850D01*
X265850Y304850D01*
X275847Y303850D02*
X271849D01*
X275847Y307849D01*
Y308849D01*
X274848Y309848D01*
X272848D01*
X271849Y308849D01*
X235849Y226864D02*
X233850D01*
X234849D01*
Y221866D01*
X233850Y220866D01*
X232850D01*
X231850Y221866D01*
X237848Y220866D02*
X239848D01*
X238848D01*
Y226864D01*
X237848Y225865D01*
X382849Y249849D02*
X381849Y250849D01*
X379850D01*
X378850Y249849D01*
Y245850D01*
X379850Y244850D01*
X381849D01*
X382849Y245850D01*
X384848Y244850D02*
X386848D01*
X385848D01*
Y250849D01*
X384848Y249849D01*
X535335Y249850D02*
G03*
X535335Y243850I350J-3000D01*
G01*
X496835Y251849D02*
Y246850D01*
X497834Y245850D01*
X499834D01*
X500833Y246850D01*
Y251849D01*
X502833Y245850D02*
X504832D01*
X503832D01*
Y251849D01*
X502833Y250849D01*
X442833Y309848D02*
X440834D01*
X441834D01*
Y304850D01*
X440834Y303850D01*
X439834D01*
X438835Y304850D01*
X448831Y303850D02*
X444833D01*
X448831Y307849D01*
Y308849D01*
X447832Y309848D01*
X445832D01*
X444833Y308849D01*
X408833Y226864D02*
X406834D01*
X407834D01*
Y221866D01*
X406834Y220866D01*
X405834D01*
X404835Y221866D01*
X410833Y220866D02*
X412832D01*
X411832D01*
Y226864D01*
X410833Y225865D01*
X555833Y249849D02*
X554834Y250849D01*
X552834D01*
X551835Y249849D01*
Y245850D01*
X552834Y244850D01*
X554834D01*
X555833Y245850D01*
X557833Y244850D02*
X559832D01*
X558832D01*
Y250849D01*
X557833Y249849D01*
X362350Y368835D02*
G03*
X362350Y362835I350J-3000D01*
G01*
X323850Y370833D02*
Y365834D01*
X324850Y364835D01*
X326849D01*
X327849Y365834D01*
Y370833D01*
X329849Y364835D02*
X331848D01*
X330848D01*
Y370833D01*
X329849Y369833D01*
X269849Y428833D02*
X267850D01*
X268849D01*
Y423834D01*
X267850Y422835D01*
X266850D01*
X265850Y423834D01*
X275847Y422835D02*
X271849D01*
X275847Y426833D01*
Y427833D01*
X274848Y428833D01*
X272848D01*
X271849Y427833D01*
X235849Y345848D02*
X233850D01*
X234849D01*
Y340850D01*
X233850Y339850D01*
X232850D01*
X231850Y340850D01*
X237848Y339850D02*
X239848D01*
X238848D01*
Y345848D01*
X237848Y344849D01*
X382849Y368833D02*
X381849Y369833D01*
X379850D01*
X378850Y368833D01*
Y364834D01*
X379850Y363835D01*
X381849D01*
X382849Y364834D01*
X384848Y363835D02*
X386848D01*
X385848D01*
Y369833D01*
X384848Y368833D01*
X535335Y368835D02*
G03*
X535335Y362835I350J-3000D01*
G01*
X496835Y370833D02*
Y365834D01*
X497834Y364835D01*
X499834D01*
X500833Y365834D01*
Y370833D01*
X502833Y364835D02*
X504832D01*
X503832D01*
Y370833D01*
X502833Y369833D01*
X442833Y428833D02*
X440834D01*
X441834D01*
Y423834D01*
X440834Y422835D01*
X439834D01*
X438835Y423834D01*
X448831Y422835D02*
X444833D01*
X448831Y426833D01*
Y427833D01*
X447832Y428833D01*
X445832D01*
X444833Y427833D01*
X408833Y345848D02*
X406834D01*
X407834D01*
Y340850D01*
X406834Y339850D01*
X405834D01*
X404835Y340850D01*
X410833Y339850D02*
X412832D01*
X411832D01*
Y345848D01*
X410833Y344849D01*
X555833Y368833D02*
X554834Y369833D01*
X552834D01*
X551835Y368833D01*
Y364834D01*
X552834Y363835D01*
X554834D01*
X555833Y364834D01*
X557833Y363835D02*
X559832D01*
X558832D01*
Y369833D01*
X557833Y368833D01*
D17*
X297850Y236850D02*
Y256850D01*
X362350D01*
Y249850D02*
Y256850D01*
Y236850D02*
Y243850D01*
X297850Y236850D02*
X362350D01*
X373850Y242850D02*
Y252850D01*
X370850Y250850D02*
X376850Y244850D01*
X370850D02*
X376850Y250850D01*
X263850Y281850D02*
X265850Y279850D01*
X295850D01*
Y301850D01*
X263850D02*
X295850D01*
X263850Y281850D02*
Y301850D01*
X255058Y223638D02*
X258600D01*
X255058D02*
Y225831D01*
X256745Y223638D02*
Y224987D01*
X255058Y226236D02*
X258600D01*
X256239Y227821D02*
X256407Y227484D01*
X256745Y227147D01*
X257251Y226978D01*
X257588D01*
X258094Y227147D01*
X258432Y227484D01*
X258600Y227821D01*
Y228327D01*
X258432Y228665D01*
X258094Y229002D01*
X257588Y229171D01*
X257251D01*
X256745Y229002D01*
X256407Y228665D01*
X256239Y228327D01*
Y227821D01*
Y229947D02*
X259781D01*
X256745D02*
X256407Y230284D01*
X256239Y230622D01*
Y231128D01*
X256407Y231465D01*
X256745Y231803D01*
X257251Y231971D01*
X257588D01*
X258094Y231803D01*
X258432Y231465D01*
X258600Y231128D01*
Y230622D01*
X258432Y230284D01*
X258094Y229947D01*
X256239Y232730D02*
X259781D01*
X256745D02*
X256407Y233068D01*
X256239Y233405D01*
Y233911D01*
X256407Y234249D01*
X256745Y234586D01*
X257251Y234755D01*
X257588D01*
X258094Y234586D01*
X258432Y234249D01*
X258600Y233911D01*
Y233405D01*
X258432Y233068D01*
X258094Y232730D01*
X256239Y235683D02*
X258600Y236695D01*
X256239Y237707D02*
X258600Y236695D01*
X259275Y236357D01*
X259613Y236020D01*
X259781Y235683D01*
Y235514D01*
X255058Y238297D02*
X258600D01*
X256239Y239984D02*
X257926Y238297D01*
X257251Y238972D02*
X258600Y240153D01*
X256239Y241553D02*
X256407Y241216D01*
X256745Y240878D01*
X257251Y240709D01*
X257588D01*
X258094Y240878D01*
X258432Y241216D01*
X258600Y241553D01*
Y242059D01*
X258432Y242396D01*
X258094Y242734D01*
X257588Y242902D01*
X257251D01*
X256745Y242734D01*
X256407Y242396D01*
X256239Y242059D01*
Y241553D01*
Y243678D02*
X258600D01*
X257251D02*
X256745Y243847D01*
X256407Y244185D01*
X256239Y244522D01*
Y245028D01*
X255564Y250494D02*
X255227Y250156D01*
X255058Y249650D01*
Y248975D01*
X255227Y248469D01*
X255564Y248132D01*
X255901D01*
X256239Y248301D01*
X256407Y248469D01*
X256576Y248807D01*
X256914Y249819D01*
X257082Y250156D01*
X257251Y250325D01*
X257588Y250494D01*
X258094D01*
X258432Y250156D01*
X258600Y249650D01*
Y248975D01*
X258432Y248469D01*
X258094Y248132D01*
X255058Y251287D02*
X258600D01*
X256239Y254053D02*
X258600D01*
X256745D02*
X256407Y253716D01*
X256239Y253378D01*
Y252872D01*
X256407Y252535D01*
X256745Y252198D01*
X257251Y252029D01*
X257588D01*
X258094Y252198D01*
X258432Y252535D01*
X258600Y252872D01*
Y253378D01*
X258432Y253716D01*
X258094Y254053D01*
X256239Y254998D02*
X258600Y256010D01*
X256239Y257022D02*
X258600Y256010D01*
X257251Y257596D02*
Y259620D01*
X256914D01*
X256576Y259451D01*
X256407Y259283D01*
X256239Y258945D01*
Y258439D01*
X256407Y258102D01*
X256745Y257764D01*
X257251Y257596D01*
X257588D01*
X258094Y257764D01*
X258432Y258102D01*
X258600Y258439D01*
Y258945D01*
X258432Y259283D01*
X258094Y259620D01*
X256239Y263162D02*
X258600Y264175D01*
X256239Y265187D02*
X258600Y264175D01*
X255901Y265929D02*
X255733D01*
X255395Y266098D01*
X255227Y266266D01*
X255058Y266604D01*
Y267279D01*
X255227Y267616D01*
X255395Y267785D01*
X255733Y267953D01*
X256070D01*
X256407Y267785D01*
X256914Y267447D01*
X258600Y265760D01*
Y268122D01*
X262380Y223638D02*
X265922D01*
X262380D02*
Y225831D01*
X264067Y223638D02*
Y224987D01*
X263561Y226236D02*
X265922D01*
X264573D02*
X264067Y226404D01*
X263729Y226742D01*
X263561Y227079D01*
Y227585D01*
Y228749D02*
X263729Y228412D01*
X264067Y228074D01*
X264573Y227906D01*
X264910D01*
X265416Y228074D01*
X265754Y228412D01*
X265922Y228749D01*
Y229255D01*
X265754Y229593D01*
X265416Y229930D01*
X264910Y230099D01*
X264573D01*
X264067Y229930D01*
X263729Y229593D01*
X263561Y229255D01*
Y228749D01*
X262380Y232899D02*
X265922D01*
X264067D02*
X263729Y232562D01*
X263561Y232224D01*
Y231718D01*
X263729Y231381D01*
X264067Y231043D01*
X264573Y230875D01*
X264910D01*
X265416Y231043D01*
X265754Y231381D01*
X265922Y231718D01*
Y232224D01*
X265754Y232562D01*
X265416Y232899D01*
X264573Y233844D02*
Y235868D01*
X264235D01*
X263898Y235699D01*
X263729Y235531D01*
X263561Y235193D01*
Y234687D01*
X263729Y234350D01*
X264067Y234012D01*
X264573Y233844D01*
X264910D01*
X265416Y234012D01*
X265754Y234350D01*
X265922Y234687D01*
Y235193D01*
X265754Y235531D01*
X265416Y235868D01*
X263561Y239411D02*
X265922Y240423D01*
X263561Y241435D02*
X265922Y240423D01*
X263561Y244033D02*
X265922D01*
X264067D02*
X263729Y243695D01*
X263561Y243358D01*
Y242852D01*
X263729Y242514D01*
X264067Y242177D01*
X264573Y242008D01*
X264910D01*
X265416Y242177D01*
X265754Y242514D01*
X265922Y242852D01*
Y243358D01*
X265754Y243695D01*
X265416Y244033D01*
X263561Y244977D02*
X265922D01*
X264235D02*
X263729Y245483D01*
X263561Y245821D01*
Y246327D01*
X263729Y246664D01*
X264235Y246833D01*
X265922D01*
X262380Y252569D02*
X265922D01*
X264067D02*
X263729Y252231D01*
X263561Y251894D01*
Y251388D01*
X263729Y251050D01*
X264067Y250713D01*
X264573Y250544D01*
X264910D01*
X265416Y250713D01*
X265754Y251050D01*
X265922Y251388D01*
Y251894D01*
X265754Y252231D01*
X265416Y252569D01*
X264573Y253513D02*
Y255538D01*
X264235D01*
X263898Y255369D01*
X263729Y255200D01*
X263561Y254863D01*
Y254357D01*
X263729Y254019D01*
X264067Y253682D01*
X264573Y253513D01*
X264910D01*
X265416Y253682D01*
X265754Y254019D01*
X265922Y254357D01*
Y254863D01*
X265754Y255200D01*
X265416Y255538D01*
X263561Y256297D02*
X265922D01*
X264573D02*
X264067Y256465D01*
X263729Y256803D01*
X263561Y257140D01*
Y257646D01*
X262380Y260750D02*
X265922D01*
X262380D02*
X265922Y262100D01*
X262380Y263449D02*
X265922Y262100D01*
X262380Y263449D02*
X265922D01*
X264573Y264461D02*
Y266486D01*
X264235D01*
X263898Y266317D01*
X263729Y266148D01*
X263561Y265811D01*
Y265305D01*
X263729Y264967D01*
X264067Y264630D01*
X264573Y264461D01*
X264910D01*
X265416Y264630D01*
X265754Y264967D01*
X265922Y265305D01*
Y265811D01*
X265754Y266148D01*
X265416Y266486D01*
X264573Y267245D02*
Y269269D01*
X264235D01*
X263898Y269100D01*
X263729Y268932D01*
X263561Y268594D01*
Y268088D01*
X263729Y267751D01*
X264067Y267413D01*
X264573Y267245D01*
X264910D01*
X265416Y267413D01*
X265754Y267751D01*
X265922Y268088D01*
Y268594D01*
X265754Y268932D01*
X265416Y269269D01*
X263561Y270028D02*
X265922D01*
X264573D02*
X264067Y270197D01*
X263729Y270534D01*
X263561Y270872D01*
Y271378D01*
X264573Y271698D02*
Y273723D01*
X264235D01*
X263898Y273554D01*
X263729Y273385D01*
X263561Y273048D01*
Y272542D01*
X263729Y272204D01*
X264067Y271867D01*
X264573Y271698D01*
X264910D01*
X265416Y271867D01*
X265754Y272204D01*
X265922Y272542D01*
Y273048D01*
X265754Y273385D01*
X265416Y273723D01*
X263561Y274482D02*
X265922D01*
X264235D02*
X263729Y274988D01*
X263561Y275325D01*
Y275831D01*
X263729Y276169D01*
X264235Y276337D01*
X265922D01*
X269364Y223807D02*
X269195D01*
X268858Y223975D01*
X268689Y224144D01*
X268520Y224481D01*
Y225156D01*
X268689Y225493D01*
X268858Y225662D01*
X269195Y225831D01*
X269533D01*
X269870Y225662D01*
X270376Y225325D01*
X272063Y223638D01*
Y225999D01*
X268520Y227804D02*
X268689Y227298D01*
X269195Y226961D01*
X270039Y226792D01*
X270545D01*
X271388Y226961D01*
X271894Y227298D01*
X272063Y227804D01*
Y228142D01*
X271894Y228648D01*
X271388Y228985D01*
X270545Y229154D01*
X270039D01*
X269195Y228985D01*
X268689Y228648D01*
X268520Y228142D01*
Y227804D01*
X269195Y229947D02*
X269026Y230284D01*
X268520Y230790D01*
X272063D01*
X269701Y234738D02*
X270207Y234569D01*
X270545Y234232D01*
X270713Y233726D01*
Y233557D01*
X270545Y233051D01*
X270207Y232714D01*
X269701Y232545D01*
X269533D01*
X269026Y232714D01*
X268689Y233051D01*
X268520Y233557D01*
Y233726D01*
X268689Y234232D01*
X269026Y234569D01*
X269701Y234738D01*
X270545D01*
X271388Y234569D01*
X271894Y234232D01*
X272063Y233726D01*
Y233388D01*
X271894Y232882D01*
X271557Y232714D01*
X270545Y235699D02*
Y238736D01*
X268520Y240794D02*
X268689Y240288D01*
X269195Y239950D01*
X270039Y239782D01*
X270545D01*
X271388Y239950D01*
X271894Y240288D01*
X272063Y240794D01*
Y241131D01*
X271894Y241637D01*
X271388Y241975D01*
X270545Y242143D01*
X270039D01*
X269195Y241975D01*
X268689Y241637D01*
X268520Y241131D01*
Y240794D01*
X269026Y244961D02*
X268689Y244792D01*
X268520Y244286D01*
Y243948D01*
X268689Y243442D01*
X269195Y243105D01*
X270039Y242936D01*
X270882D01*
X271557Y243105D01*
X271894Y243442D01*
X272063Y243948D01*
Y244117D01*
X271894Y244623D01*
X271557Y244961D01*
X271051Y245129D01*
X270882D01*
X270376Y244961D01*
X270039Y244623D01*
X269870Y244117D01*
Y243948D01*
X270039Y243442D01*
X270376Y243105D01*
X270882Y242936D01*
X270545Y245905D02*
Y248942D01*
X268520Y251000D02*
X268689Y250494D01*
X269195Y250156D01*
X270039Y249988D01*
X270545D01*
X271388Y250156D01*
X271894Y250494D01*
X272063Y251000D01*
Y251337D01*
X271894Y251843D01*
X271388Y252181D01*
X270545Y252349D01*
X270039D01*
X269195Y252181D01*
X268689Y251843D01*
X268520Y251337D01*
Y251000D01*
Y253986D02*
X268689Y253480D01*
X269026Y253311D01*
X269364D01*
X269701Y253480D01*
X269870Y253817D01*
X270039Y254492D01*
X270207Y254998D01*
X270545Y255335D01*
X270882Y255504D01*
X271388D01*
X271726Y255335D01*
X271894Y255167D01*
X272063Y254660D01*
Y253986D01*
X271894Y253480D01*
X271726Y253311D01*
X271388Y253142D01*
X270882D01*
X270545Y253311D01*
X270207Y253648D01*
X270039Y254154D01*
X269870Y254829D01*
X269701Y255167D01*
X269364Y255335D01*
X269026D01*
X268689Y255167D01*
X268520Y254660D01*
Y253986D01*
X269195Y259080D02*
X269026Y259418D01*
X268520Y259924D01*
X272063D01*
X268520Y263702D02*
Y262015D01*
X270039Y261847D01*
X269870Y262015D01*
X269701Y262522D01*
Y263028D01*
X269870Y263534D01*
X270207Y263871D01*
X270713Y264040D01*
X271051D01*
X271557Y263871D01*
X271894Y263534D01*
X272063Y263028D01*
Y262522D01*
X271894Y262015D01*
X271726Y261847D01*
X271388Y261678D01*
X269701Y265001D02*
X269870Y264833D01*
X270039Y265001D01*
X269870Y265170D01*
X269701Y265001D01*
X271726D02*
X271894Y264833D01*
X272063Y265001D01*
X271894Y265170D01*
X271726Y265001D01*
X268520Y266283D02*
Y268139D01*
X269870Y267127D01*
Y267633D01*
X270039Y267970D01*
X270207Y268139D01*
X270713Y268308D01*
X271051D01*
X271557Y268139D01*
X271894Y267802D01*
X272063Y267296D01*
Y266789D01*
X271894Y266283D01*
X271726Y266115D01*
X271388Y265946D01*
X268520Y269944D02*
X268689Y269438D01*
X269026Y269269D01*
X269364D01*
X269701Y269438D01*
X269870Y269775D01*
X270039Y270450D01*
X270207Y270956D01*
X270545Y271294D01*
X270882Y271462D01*
X271388D01*
X271726Y271294D01*
X271894Y271125D01*
X272063Y270619D01*
Y269944D01*
X271894Y269438D01*
X271726Y269269D01*
X271388Y269100D01*
X270882D01*
X270545Y269269D01*
X270207Y269607D01*
X270039Y270113D01*
X269870Y270788D01*
X269701Y271125D01*
X269364Y271294D01*
X269026D01*
X268689Y271125D01*
X268520Y270619D01*
Y269944D01*
Y274617D02*
X272063Y272255D01*
X268520D02*
Y274617D01*
X272063Y272255D02*
Y274617D01*
X470835Y236850D02*
Y256850D01*
X535335D01*
Y249850D02*
Y256850D01*
Y236850D02*
Y243850D01*
X470835Y236850D02*
X535335D01*
X546835Y242850D02*
Y252850D01*
X543835Y250850D02*
X549835Y244850D01*
X543835D02*
X549835Y250850D01*
X436835Y281850D02*
X438835Y279850D01*
X468835D01*
Y301850D01*
X436835D02*
X468835D01*
X436835Y281850D02*
Y301850D01*
X428042Y223638D02*
X431585D01*
X428042D02*
Y225831D01*
X429729Y223638D02*
Y224987D01*
X428042Y226236D02*
X431585D01*
X429223Y227821D02*
X429392Y227484D01*
X429729Y227147D01*
X430235Y226978D01*
X430573D01*
X431079Y227147D01*
X431416Y227484D01*
X431585Y227821D01*
Y228327D01*
X431416Y228665D01*
X431079Y229002D01*
X430573Y229171D01*
X430235D01*
X429729Y229002D01*
X429392Y228665D01*
X429223Y228327D01*
Y227821D01*
Y229947D02*
X432766D01*
X429729D02*
X429392Y230284D01*
X429223Y230622D01*
Y231128D01*
X429392Y231465D01*
X429729Y231803D01*
X430235Y231971D01*
X430573D01*
X431079Y231803D01*
X431416Y231465D01*
X431585Y231128D01*
Y230622D01*
X431416Y230284D01*
X431079Y229947D01*
X429223Y232730D02*
X432766D01*
X429729D02*
X429392Y233068D01*
X429223Y233405D01*
Y233911D01*
X429392Y234249D01*
X429729Y234586D01*
X430235Y234755D01*
X430573D01*
X431079Y234586D01*
X431416Y234249D01*
X431585Y233911D01*
Y233405D01*
X431416Y233068D01*
X431079Y232730D01*
X429223Y235683D02*
X431585Y236695D01*
X429223Y237707D02*
X431585Y236695D01*
X432260Y236357D01*
X432597Y236020D01*
X432766Y235683D01*
Y235514D01*
X428042Y238297D02*
X431585D01*
X429223Y239984D02*
X430910Y238297D01*
X430235Y238972D02*
X431585Y240153D01*
X429223Y241553D02*
X429392Y241216D01*
X429729Y240878D01*
X430235Y240709D01*
X430573D01*
X431079Y240878D01*
X431416Y241216D01*
X431585Y241553D01*
Y242059D01*
X431416Y242396D01*
X431079Y242734D01*
X430573Y242902D01*
X430235D01*
X429729Y242734D01*
X429392Y242396D01*
X429223Y242059D01*
Y241553D01*
Y243678D02*
X431585D01*
X430235D02*
X429729Y243847D01*
X429392Y244185D01*
X429223Y244522D01*
Y245028D01*
X428548Y250494D02*
X428211Y250156D01*
X428042Y249650D01*
Y248975D01*
X428211Y248469D01*
X428548Y248132D01*
X428886D01*
X429223Y248301D01*
X429392Y248469D01*
X429560Y248807D01*
X429898Y249819D01*
X430066Y250156D01*
X430235Y250325D01*
X430573Y250494D01*
X431079D01*
X431416Y250156D01*
X431585Y249650D01*
Y248975D01*
X431416Y248469D01*
X431079Y248132D01*
X428042Y251287D02*
X431585D01*
X429223Y254053D02*
X431585D01*
X429729D02*
X429392Y253716D01*
X429223Y253378D01*
Y252872D01*
X429392Y252535D01*
X429729Y252198D01*
X430235Y252029D01*
X430573D01*
X431079Y252198D01*
X431416Y252535D01*
X431585Y252872D01*
Y253378D01*
X431416Y253716D01*
X431079Y254053D01*
X429223Y254998D02*
X431585Y256010D01*
X429223Y257022D02*
X431585Y256010D01*
X430235Y257596D02*
Y259620D01*
X429898D01*
X429560Y259451D01*
X429392Y259283D01*
X429223Y258945D01*
Y258439D01*
X429392Y258102D01*
X429729Y257764D01*
X430235Y257596D01*
X430573D01*
X431079Y257764D01*
X431416Y258102D01*
X431585Y258439D01*
Y258945D01*
X431416Y259283D01*
X431079Y259620D01*
X429223Y263162D02*
X431585Y264175D01*
X429223Y265187D02*
X431585Y264175D01*
X428886Y265929D02*
X428717D01*
X428380Y266098D01*
X428211Y266266D01*
X428042Y266604D01*
Y267279D01*
X428211Y267616D01*
X428380Y267785D01*
X428717Y267953D01*
X429054D01*
X429392Y267785D01*
X429898Y267447D01*
X431585Y265760D01*
Y268122D01*
X435364Y223638D02*
X438906D01*
X435364D02*
Y225831D01*
X437051Y223638D02*
Y224987D01*
X436545Y226236D02*
X438906D01*
X437557D02*
X437051Y226404D01*
X436713Y226742D01*
X436545Y227079D01*
Y227585D01*
Y228749D02*
X436713Y228412D01*
X437051Y228074D01*
X437557Y227906D01*
X437894D01*
X438400Y228074D01*
X438738Y228412D01*
X438906Y228749D01*
Y229255D01*
X438738Y229593D01*
X438400Y229930D01*
X437894Y230099D01*
X437557D01*
X437051Y229930D01*
X436713Y229593D01*
X436545Y229255D01*
Y228749D01*
X435364Y232899D02*
X438906D01*
X437051D02*
X436713Y232562D01*
X436545Y232224D01*
Y231718D01*
X436713Y231381D01*
X437051Y231043D01*
X437557Y230875D01*
X437894D01*
X438400Y231043D01*
X438738Y231381D01*
X438906Y231718D01*
Y232224D01*
X438738Y232562D01*
X438400Y232899D01*
X437557Y233844D02*
Y235868D01*
X437219D01*
X436882Y235699D01*
X436713Y235531D01*
X436545Y235193D01*
Y234687D01*
X436713Y234350D01*
X437051Y234012D01*
X437557Y233844D01*
X437894D01*
X438400Y234012D01*
X438738Y234350D01*
X438906Y234687D01*
Y235193D01*
X438738Y235531D01*
X438400Y235868D01*
X436545Y239411D02*
X438906Y240423D01*
X436545Y241435D02*
X438906Y240423D01*
X436545Y244033D02*
X438906D01*
X437051D02*
X436713Y243695D01*
X436545Y243358D01*
Y242852D01*
X436713Y242514D01*
X437051Y242177D01*
X437557Y242008D01*
X437894D01*
X438400Y242177D01*
X438738Y242514D01*
X438906Y242852D01*
Y243358D01*
X438738Y243695D01*
X438400Y244033D01*
X436545Y244977D02*
X438906D01*
X437219D02*
X436713Y245483D01*
X436545Y245821D01*
Y246327D01*
X436713Y246664D01*
X437219Y246833D01*
X438906D01*
X435364Y252569D02*
X438906D01*
X437051D02*
X436713Y252231D01*
X436545Y251894D01*
Y251388D01*
X436713Y251050D01*
X437051Y250713D01*
X437557Y250544D01*
X437894D01*
X438400Y250713D01*
X438738Y251050D01*
X438906Y251388D01*
Y251894D01*
X438738Y252231D01*
X438400Y252569D01*
X437557Y253513D02*
Y255538D01*
X437219D01*
X436882Y255369D01*
X436713Y255200D01*
X436545Y254863D01*
Y254357D01*
X436713Y254019D01*
X437051Y253682D01*
X437557Y253513D01*
X437894D01*
X438400Y253682D01*
X438738Y254019D01*
X438906Y254357D01*
Y254863D01*
X438738Y255200D01*
X438400Y255538D01*
X436545Y256297D02*
X438906D01*
X437557D02*
X437051Y256465D01*
X436713Y256803D01*
X436545Y257140D01*
Y257646D01*
X435364Y260750D02*
X438906D01*
X435364D02*
X438906Y262100D01*
X435364Y263449D02*
X438906Y262100D01*
X435364Y263449D02*
X438906D01*
X437557Y264461D02*
Y266486D01*
X437219D01*
X436882Y266317D01*
X436713Y266148D01*
X436545Y265811D01*
Y265305D01*
X436713Y264967D01*
X437051Y264630D01*
X437557Y264461D01*
X437894D01*
X438400Y264630D01*
X438738Y264967D01*
X438906Y265305D01*
Y265811D01*
X438738Y266148D01*
X438400Y266486D01*
X437557Y267245D02*
Y269269D01*
X437219D01*
X436882Y269100D01*
X436713Y268932D01*
X436545Y268594D01*
Y268088D01*
X436713Y267751D01*
X437051Y267413D01*
X437557Y267245D01*
X437894D01*
X438400Y267413D01*
X438738Y267751D01*
X438906Y268088D01*
Y268594D01*
X438738Y268932D01*
X438400Y269269D01*
X436545Y270028D02*
X438906D01*
X437557D02*
X437051Y270197D01*
X436713Y270534D01*
X436545Y270872D01*
Y271378D01*
X437557Y271698D02*
Y273723D01*
X437219D01*
X436882Y273554D01*
X436713Y273385D01*
X436545Y273048D01*
Y272542D01*
X436713Y272204D01*
X437051Y271867D01*
X437557Y271698D01*
X437894D01*
X438400Y271867D01*
X438738Y272204D01*
X438906Y272542D01*
Y273048D01*
X438738Y273385D01*
X438400Y273723D01*
X436545Y274482D02*
X438906D01*
X437219D02*
X436713Y274988D01*
X436545Y275325D01*
Y275831D01*
X436713Y276169D01*
X437219Y276337D01*
X438906D01*
X442348Y223807D02*
X442179D01*
X441842Y223975D01*
X441673Y224144D01*
X441505Y224481D01*
Y225156D01*
X441673Y225493D01*
X441842Y225662D01*
X442179Y225831D01*
X442517D01*
X442854Y225662D01*
X443360Y225325D01*
X445047Y223638D01*
Y225999D01*
X441505Y227804D02*
X441673Y227298D01*
X442179Y226961D01*
X443023Y226792D01*
X443529D01*
X444373Y226961D01*
X444878Y227298D01*
X445047Y227804D01*
Y228142D01*
X444878Y228648D01*
X444373Y228985D01*
X443529Y229154D01*
X443023D01*
X442179Y228985D01*
X441673Y228648D01*
X441505Y228142D01*
Y227804D01*
X442179Y229947D02*
X442011Y230284D01*
X441505Y230790D01*
X445047D01*
X442686Y234738D02*
X443192Y234569D01*
X443529Y234232D01*
X443698Y233726D01*
Y233557D01*
X443529Y233051D01*
X443192Y232714D01*
X442686Y232545D01*
X442517D01*
X442011Y232714D01*
X441673Y233051D01*
X441505Y233557D01*
Y233726D01*
X441673Y234232D01*
X442011Y234569D01*
X442686Y234738D01*
X443529D01*
X444373Y234569D01*
X444878Y234232D01*
X445047Y233726D01*
Y233388D01*
X444878Y232882D01*
X444541Y232714D01*
X443529Y235699D02*
Y238736D01*
X441505Y240794D02*
X441673Y240288D01*
X442179Y239950D01*
X443023Y239782D01*
X443529D01*
X444373Y239950D01*
X444878Y240288D01*
X445047Y240794D01*
Y241131D01*
X444878Y241637D01*
X444373Y241975D01*
X443529Y242143D01*
X443023D01*
X442179Y241975D01*
X441673Y241637D01*
X441505Y241131D01*
Y240794D01*
X442011Y244961D02*
X441673Y244792D01*
X441505Y244286D01*
Y243948D01*
X441673Y243442D01*
X442179Y243105D01*
X443023Y242936D01*
X443866D01*
X444541Y243105D01*
X444878Y243442D01*
X445047Y243948D01*
Y244117D01*
X444878Y244623D01*
X444541Y244961D01*
X444035Y245129D01*
X443866D01*
X443360Y244961D01*
X443023Y244623D01*
X442854Y244117D01*
Y243948D01*
X443023Y243442D01*
X443360Y243105D01*
X443866Y242936D01*
X443529Y245905D02*
Y248942D01*
X441505Y251000D02*
X441673Y250494D01*
X442179Y250156D01*
X443023Y249988D01*
X443529D01*
X444373Y250156D01*
X444878Y250494D01*
X445047Y251000D01*
Y251337D01*
X444878Y251843D01*
X444373Y252181D01*
X443529Y252349D01*
X443023D01*
X442179Y252181D01*
X441673Y251843D01*
X441505Y251337D01*
Y251000D01*
Y253986D02*
X441673Y253480D01*
X442011Y253311D01*
X442348D01*
X442686Y253480D01*
X442854Y253817D01*
X443023Y254492D01*
X443192Y254998D01*
X443529Y255335D01*
X443866Y255504D01*
X444373D01*
X444710Y255335D01*
X444878Y255167D01*
X445047Y254660D01*
Y253986D01*
X444878Y253480D01*
X444710Y253311D01*
X444373Y253142D01*
X443866D01*
X443529Y253311D01*
X443192Y253648D01*
X443023Y254154D01*
X442854Y254829D01*
X442686Y255167D01*
X442348Y255335D01*
X442011D01*
X441673Y255167D01*
X441505Y254660D01*
Y253986D01*
X442179Y259080D02*
X442011Y259418D01*
X441505Y259924D01*
X445047D01*
X441505Y263702D02*
Y262015D01*
X443023Y261847D01*
X442854Y262015D01*
X442686Y262522D01*
Y263028D01*
X442854Y263534D01*
X443192Y263871D01*
X443698Y264040D01*
X444035D01*
X444541Y263871D01*
X444878Y263534D01*
X445047Y263028D01*
Y262522D01*
X444878Y262015D01*
X444710Y261847D01*
X444373Y261678D01*
X442686Y265001D02*
X442854Y264833D01*
X443023Y265001D01*
X442854Y265170D01*
X442686Y265001D01*
X444710D02*
X444878Y264833D01*
X445047Y265001D01*
X444878Y265170D01*
X444710Y265001D01*
X441505Y266283D02*
Y268139D01*
X442854Y267127D01*
Y267633D01*
X443023Y267970D01*
X443192Y268139D01*
X443698Y268308D01*
X444035D01*
X444541Y268139D01*
X444878Y267802D01*
X445047Y267296D01*
Y266789D01*
X444878Y266283D01*
X444710Y266115D01*
X444373Y265946D01*
X441505Y269944D02*
X441673Y269438D01*
X442011Y269269D01*
X442348D01*
X442686Y269438D01*
X442854Y269775D01*
X443023Y270450D01*
X443192Y270956D01*
X443529Y271294D01*
X443866Y271462D01*
X444373D01*
X444710Y271294D01*
X444878Y271125D01*
X445047Y270619D01*
Y269944D01*
X444878Y269438D01*
X444710Y269269D01*
X444373Y269100D01*
X443866D01*
X443529Y269269D01*
X443192Y269607D01*
X443023Y270113D01*
X442854Y270788D01*
X442686Y271125D01*
X442348Y271294D01*
X442011D01*
X441673Y271125D01*
X441505Y270619D01*
Y269944D01*
Y274617D02*
X445047Y272255D01*
X441505D02*
Y274617D01*
X445047Y272255D02*
Y274617D01*
X297850Y355835D02*
Y375835D01*
X362350D01*
Y368835D02*
Y375835D01*
Y355835D02*
Y362835D01*
X297850Y355835D02*
X362350D01*
X373850Y361835D02*
Y371835D01*
X370850Y369835D02*
X376850Y363835D01*
X370850D02*
X376850Y369835D01*
X263850Y400835D02*
X265850Y398835D01*
X295850D01*
Y420835D01*
X263850D02*
X295850D01*
X263850Y400835D02*
Y420835D01*
X255058Y342622D02*
X258600D01*
X255058D02*
Y344815D01*
X256745Y342622D02*
Y343972D01*
X255058Y345220D02*
X258600D01*
X256239Y346806D02*
X256407Y346468D01*
X256745Y346131D01*
X257251Y345962D01*
X257588D01*
X258094Y346131D01*
X258432Y346468D01*
X258600Y346806D01*
Y347312D01*
X258432Y347649D01*
X258094Y347987D01*
X257588Y348155D01*
X257251D01*
X256745Y347987D01*
X256407Y347649D01*
X256239Y347312D01*
Y346806D01*
Y348931D02*
X259781D01*
X256745D02*
X256407Y349269D01*
X256239Y349606D01*
Y350112D01*
X256407Y350449D01*
X256745Y350787D01*
X257251Y350956D01*
X257588D01*
X258094Y350787D01*
X258432Y350449D01*
X258600Y350112D01*
Y349606D01*
X258432Y349269D01*
X258094Y348931D01*
X256239Y351715D02*
X259781D01*
X256745D02*
X256407Y352052D01*
X256239Y352389D01*
Y352895D01*
X256407Y353233D01*
X256745Y353570D01*
X257251Y353739D01*
X257588D01*
X258094Y353570D01*
X258432Y353233D01*
X258600Y352895D01*
Y352389D01*
X258432Y352052D01*
X258094Y351715D01*
X256239Y354667D02*
X258600Y355679D01*
X256239Y356691D02*
X258600Y355679D01*
X259275Y355342D01*
X259613Y355004D01*
X259781Y354667D01*
Y354498D01*
X255058Y357281D02*
X258600D01*
X256239Y358968D02*
X257926Y357281D01*
X257251Y357956D02*
X258600Y359137D01*
X256239Y360537D02*
X256407Y360200D01*
X256745Y359862D01*
X257251Y359694D01*
X257588D01*
X258094Y359862D01*
X258432Y360200D01*
X258600Y360537D01*
Y361043D01*
X258432Y361381D01*
X258094Y361718D01*
X257588Y361887D01*
X257251D01*
X256745Y361718D01*
X256407Y361381D01*
X256239Y361043D01*
Y360537D01*
Y362663D02*
X258600D01*
X257251D02*
X256745Y362831D01*
X256407Y363169D01*
X256239Y363506D01*
Y364012D01*
X255564Y369478D02*
X255227Y369141D01*
X255058Y368635D01*
Y367960D01*
X255227Y367454D01*
X255564Y367116D01*
X255901D01*
X256239Y367285D01*
X256407Y367454D01*
X256576Y367791D01*
X256914Y368803D01*
X257082Y369141D01*
X257251Y369309D01*
X257588Y369478D01*
X258094D01*
X258432Y369141D01*
X258600Y368635D01*
Y367960D01*
X258432Y367454D01*
X258094Y367116D01*
X255058Y370271D02*
X258600D01*
X256239Y373037D02*
X258600D01*
X256745D02*
X256407Y372700D01*
X256239Y372363D01*
Y371856D01*
X256407Y371519D01*
X256745Y371182D01*
X257251Y371013D01*
X257588D01*
X258094Y371182D01*
X258432Y371519D01*
X258600Y371856D01*
Y372363D01*
X258432Y372700D01*
X258094Y373037D01*
X256239Y373982D02*
X258600Y374994D01*
X256239Y376006D02*
X258600Y374994D01*
X257251Y376580D02*
Y378604D01*
X256914D01*
X256576Y378435D01*
X256407Y378267D01*
X256239Y377929D01*
Y377423D01*
X256407Y377086D01*
X256745Y376749D01*
X257251Y376580D01*
X257588D01*
X258094Y376749D01*
X258432Y377086D01*
X258600Y377423D01*
Y377929D01*
X258432Y378267D01*
X258094Y378604D01*
X256239Y382147D02*
X258600Y383159D01*
X256239Y384171D02*
X258600Y383159D01*
X255901Y384913D02*
X255733D01*
X255395Y385082D01*
X255227Y385251D01*
X255058Y385588D01*
Y386263D01*
X255227Y386600D01*
X255395Y386769D01*
X255733Y386938D01*
X256070D01*
X256407Y386769D01*
X256914Y386432D01*
X258600Y384745D01*
Y387106D01*
X262380Y342622D02*
X265922D01*
X262380D02*
Y344815D01*
X264067Y342622D02*
Y343972D01*
X263561Y345220D02*
X265922D01*
X264573D02*
X264067Y345389D01*
X263729Y345726D01*
X263561Y346063D01*
Y346569D01*
Y347733D02*
X263729Y347396D01*
X264067Y347059D01*
X264573Y346890D01*
X264910D01*
X265416Y347059D01*
X265754Y347396D01*
X265922Y347733D01*
Y348239D01*
X265754Y348577D01*
X265416Y348914D01*
X264910Y349083D01*
X264573D01*
X264067Y348914D01*
X263729Y348577D01*
X263561Y348239D01*
Y347733D01*
X262380Y351883D02*
X265922D01*
X264067D02*
X263729Y351546D01*
X263561Y351208D01*
Y350702D01*
X263729Y350365D01*
X264067Y350028D01*
X264573Y349859D01*
X264910D01*
X265416Y350028D01*
X265754Y350365D01*
X265922Y350702D01*
Y351208D01*
X265754Y351546D01*
X265416Y351883D01*
X264573Y352828D02*
Y354852D01*
X264235D01*
X263898Y354684D01*
X263729Y354515D01*
X263561Y354177D01*
Y353671D01*
X263729Y353334D01*
X264067Y352997D01*
X264573Y352828D01*
X264910D01*
X265416Y352997D01*
X265754Y353334D01*
X265922Y353671D01*
Y354177D01*
X265754Y354515D01*
X265416Y354852D01*
X263561Y358395D02*
X265922Y359407D01*
X263561Y360419D02*
X265922Y359407D01*
X263561Y363017D02*
X265922D01*
X264067D02*
X263729Y362680D01*
X263561Y362342D01*
Y361836D01*
X263729Y361499D01*
X264067Y361161D01*
X264573Y360993D01*
X264910D01*
X265416Y361161D01*
X265754Y361499D01*
X265922Y361836D01*
Y362342D01*
X265754Y362680D01*
X265416Y363017D01*
X263561Y363962D02*
X265922D01*
X264235D02*
X263729Y364468D01*
X263561Y364805D01*
Y365311D01*
X263729Y365649D01*
X264235Y365817D01*
X265922D01*
X262380Y371553D02*
X265922D01*
X264067D02*
X263729Y371216D01*
X263561Y370878D01*
Y370372D01*
X263729Y370035D01*
X264067Y369697D01*
X264573Y369529D01*
X264910D01*
X265416Y369697D01*
X265754Y370035D01*
X265922Y370372D01*
Y370878D01*
X265754Y371216D01*
X265416Y371553D01*
X264573Y372498D02*
Y374522D01*
X264235D01*
X263898Y374353D01*
X263729Y374184D01*
X263561Y373847D01*
Y373341D01*
X263729Y373004D01*
X264067Y372666D01*
X264573Y372498D01*
X264910D01*
X265416Y372666D01*
X265754Y373004D01*
X265922Y373341D01*
Y373847D01*
X265754Y374184D01*
X265416Y374522D01*
X263561Y375281D02*
X265922D01*
X264573D02*
X264067Y375450D01*
X263729Y375787D01*
X263561Y376124D01*
Y376630D01*
X262380Y379734D02*
X265922D01*
X262380D02*
X265922Y381084D01*
X262380Y382434D02*
X265922Y381084D01*
X262380Y382434D02*
X265922D01*
X264573Y383446D02*
Y385470D01*
X264235D01*
X263898Y385301D01*
X263729Y385133D01*
X263561Y384795D01*
Y384289D01*
X263729Y383952D01*
X264067Y383614D01*
X264573Y383446D01*
X264910D01*
X265416Y383614D01*
X265754Y383952D01*
X265922Y384289D01*
Y384795D01*
X265754Y385133D01*
X265416Y385470D01*
X264573Y386229D02*
Y388253D01*
X264235D01*
X263898Y388085D01*
X263729Y387916D01*
X263561Y387579D01*
Y387073D01*
X263729Y386735D01*
X264067Y386398D01*
X264573Y386229D01*
X264910D01*
X265416Y386398D01*
X265754Y386735D01*
X265922Y387073D01*
Y387579D01*
X265754Y387916D01*
X265416Y388253D01*
X263561Y389013D02*
X265922D01*
X264573D02*
X264067Y389181D01*
X263729Y389519D01*
X263561Y389856D01*
Y390362D01*
X264573Y390683D02*
Y392707D01*
X264235D01*
X263898Y392538D01*
X263729Y392370D01*
X263561Y392032D01*
Y391526D01*
X263729Y391189D01*
X264067Y390851D01*
X264573Y390683D01*
X264910D01*
X265416Y390851D01*
X265754Y391189D01*
X265922Y391526D01*
Y392032D01*
X265754Y392370D01*
X265416Y392707D01*
X263561Y393466D02*
X265922D01*
X264235D02*
X263729Y393972D01*
X263561Y394309D01*
Y394816D01*
X263729Y395153D01*
X264235Y395322D01*
X265922D01*
X269364Y342791D02*
X269195D01*
X268858Y342959D01*
X268689Y343128D01*
X268520Y343465D01*
Y344140D01*
X268689Y344478D01*
X268858Y344646D01*
X269195Y344815D01*
X269533D01*
X269870Y344646D01*
X270376Y344309D01*
X272063Y342622D01*
Y344984D01*
X268520Y346789D02*
X268689Y346283D01*
X269195Y345945D01*
X270039Y345777D01*
X270545D01*
X271388Y345945D01*
X271894Y346283D01*
X272063Y346789D01*
Y347126D01*
X271894Y347632D01*
X271388Y347970D01*
X270545Y348138D01*
X270039D01*
X269195Y347970D01*
X268689Y347632D01*
X268520Y347126D01*
Y346789D01*
X269195Y348931D02*
X269026Y349269D01*
X268520Y349775D01*
X272063D01*
X269701Y353722D02*
X270207Y353553D01*
X270545Y353216D01*
X270713Y352710D01*
Y352541D01*
X270545Y352035D01*
X270207Y351698D01*
X269701Y351529D01*
X269533D01*
X269026Y351698D01*
X268689Y352035D01*
X268520Y352541D01*
Y352710D01*
X268689Y353216D01*
X269026Y353553D01*
X269701Y353722D01*
X270545D01*
X271388Y353553D01*
X271894Y353216D01*
X272063Y352710D01*
Y352373D01*
X271894Y351866D01*
X271557Y351698D01*
X270545Y354684D02*
Y357720D01*
X268520Y359778D02*
X268689Y359272D01*
X269195Y358935D01*
X270039Y358766D01*
X270545D01*
X271388Y358935D01*
X271894Y359272D01*
X272063Y359778D01*
Y360116D01*
X271894Y360622D01*
X271388Y360959D01*
X270545Y361128D01*
X270039D01*
X269195Y360959D01*
X268689Y360622D01*
X268520Y360116D01*
Y359778D01*
X269026Y363945D02*
X268689Y363776D01*
X268520Y363270D01*
Y362933D01*
X268689Y362427D01*
X269195Y362089D01*
X270039Y361920D01*
X270882D01*
X271557Y362089D01*
X271894Y362427D01*
X272063Y362933D01*
Y363101D01*
X271894Y363608D01*
X271557Y363945D01*
X271051Y364113D01*
X270882D01*
X270376Y363945D01*
X270039Y363608D01*
X269870Y363101D01*
Y362933D01*
X270039Y362427D01*
X270376Y362089D01*
X270882Y361920D01*
X270545Y364890D02*
Y367926D01*
X268520Y369984D02*
X268689Y369478D01*
X269195Y369141D01*
X270039Y368972D01*
X270545D01*
X271388Y369141D01*
X271894Y369478D01*
X272063Y369984D01*
Y370321D01*
X271894Y370828D01*
X271388Y371165D01*
X270545Y371334D01*
X270039D01*
X269195Y371165D01*
X268689Y370828D01*
X268520Y370321D01*
Y369984D01*
Y372970D02*
X268689Y372464D01*
X269026Y372295D01*
X269364D01*
X269701Y372464D01*
X269870Y372801D01*
X270039Y373476D01*
X270207Y373982D01*
X270545Y374320D01*
X270882Y374488D01*
X271388D01*
X271726Y374320D01*
X271894Y374151D01*
X272063Y373645D01*
Y372970D01*
X271894Y372464D01*
X271726Y372295D01*
X271388Y372126D01*
X270882D01*
X270545Y372295D01*
X270207Y372633D01*
X270039Y373139D01*
X269870Y373813D01*
X269701Y374151D01*
X269364Y374320D01*
X269026D01*
X268689Y374151D01*
X268520Y373645D01*
Y372970D01*
X269195Y378064D02*
X269026Y378402D01*
X268520Y378908D01*
X272063D01*
X268520Y382687D02*
Y381000D01*
X270039Y380831D01*
X269870Y381000D01*
X269701Y381506D01*
Y382012D01*
X269870Y382518D01*
X270207Y382855D01*
X270713Y383024D01*
X271051D01*
X271557Y382855D01*
X271894Y382518D01*
X272063Y382012D01*
Y381506D01*
X271894Y381000D01*
X271726Y380831D01*
X271388Y380662D01*
X269701Y383986D02*
X269870Y383817D01*
X270039Y383986D01*
X269870Y384154D01*
X269701Y383986D01*
X271726D02*
X271894Y383817D01*
X272063Y383986D01*
X271894Y384154D01*
X271726Y383986D01*
X268520Y385268D02*
Y387123D01*
X269870Y386111D01*
Y386617D01*
X270039Y386954D01*
X270207Y387123D01*
X270713Y387292D01*
X271051D01*
X271557Y387123D01*
X271894Y386786D01*
X272063Y386280D01*
Y385774D01*
X271894Y385268D01*
X271726Y385099D01*
X271388Y384930D01*
X268520Y388928D02*
X268689Y388422D01*
X269026Y388253D01*
X269364D01*
X269701Y388422D01*
X269870Y388760D01*
X270039Y389434D01*
X270207Y389940D01*
X270545Y390278D01*
X270882Y390446D01*
X271388D01*
X271726Y390278D01*
X271894Y390109D01*
X272063Y389603D01*
Y388928D01*
X271894Y388422D01*
X271726Y388253D01*
X271388Y388085D01*
X270882D01*
X270545Y388253D01*
X270207Y388591D01*
X270039Y389097D01*
X269870Y389772D01*
X269701Y390109D01*
X269364Y390278D01*
X269026D01*
X268689Y390109D01*
X268520Y389603D01*
Y388928D01*
Y393601D02*
X272063Y391239D01*
X268520D02*
Y393601D01*
X272063Y391239D02*
Y393601D01*
X470835Y355835D02*
Y375835D01*
X535335D01*
Y368835D02*
Y375835D01*
Y355835D02*
Y362835D01*
X470835Y355835D02*
X535335D01*
X546835Y361835D02*
Y371835D01*
X543835Y369835D02*
X549835Y363835D01*
X543835D02*
X549835Y369835D01*
X436835Y400835D02*
X438835Y398835D01*
X468835D01*
Y420835D01*
X436835D02*
X468835D01*
X436835Y400835D02*
Y420835D01*
X428042Y342622D02*
X431585D01*
X428042D02*
Y344815D01*
X429729Y342622D02*
Y343972D01*
X428042Y345220D02*
X431585D01*
X429223Y346806D02*
X429392Y346468D01*
X429729Y346131D01*
X430235Y345962D01*
X430573D01*
X431079Y346131D01*
X431416Y346468D01*
X431585Y346806D01*
Y347312D01*
X431416Y347649D01*
X431079Y347987D01*
X430573Y348155D01*
X430235D01*
X429729Y347987D01*
X429392Y347649D01*
X429223Y347312D01*
Y346806D01*
Y348931D02*
X432766D01*
X429729D02*
X429392Y349269D01*
X429223Y349606D01*
Y350112D01*
X429392Y350449D01*
X429729Y350787D01*
X430235Y350956D01*
X430573D01*
X431079Y350787D01*
X431416Y350449D01*
X431585Y350112D01*
Y349606D01*
X431416Y349269D01*
X431079Y348931D01*
X429223Y351715D02*
X432766D01*
X429729D02*
X429392Y352052D01*
X429223Y352389D01*
Y352895D01*
X429392Y353233D01*
X429729Y353570D01*
X430235Y353739D01*
X430573D01*
X431079Y353570D01*
X431416Y353233D01*
X431585Y352895D01*
Y352389D01*
X431416Y352052D01*
X431079Y351715D01*
X429223Y354667D02*
X431585Y355679D01*
X429223Y356691D02*
X431585Y355679D01*
X432260Y355342D01*
X432597Y355004D01*
X432766Y354667D01*
Y354498D01*
X428042Y357281D02*
X431585D01*
X429223Y358968D02*
X430910Y357281D01*
X430235Y357956D02*
X431585Y359137D01*
X429223Y360537D02*
X429392Y360200D01*
X429729Y359862D01*
X430235Y359694D01*
X430573D01*
X431079Y359862D01*
X431416Y360200D01*
X431585Y360537D01*
Y361043D01*
X431416Y361381D01*
X431079Y361718D01*
X430573Y361887D01*
X430235D01*
X429729Y361718D01*
X429392Y361381D01*
X429223Y361043D01*
Y360537D01*
Y362663D02*
X431585D01*
X430235D02*
X429729Y362831D01*
X429392Y363169D01*
X429223Y363506D01*
Y364012D01*
X428548Y369478D02*
X428211Y369141D01*
X428042Y368635D01*
Y367960D01*
X428211Y367454D01*
X428548Y367116D01*
X428886D01*
X429223Y367285D01*
X429392Y367454D01*
X429560Y367791D01*
X429898Y368803D01*
X430066Y369141D01*
X430235Y369309D01*
X430573Y369478D01*
X431079D01*
X431416Y369141D01*
X431585Y368635D01*
Y367960D01*
X431416Y367454D01*
X431079Y367116D01*
X428042Y370271D02*
X431585D01*
X429223Y373037D02*
X431585D01*
X429729D02*
X429392Y372700D01*
X429223Y372363D01*
Y371856D01*
X429392Y371519D01*
X429729Y371182D01*
X430235Y371013D01*
X430573D01*
X431079Y371182D01*
X431416Y371519D01*
X431585Y371856D01*
Y372363D01*
X431416Y372700D01*
X431079Y373037D01*
X429223Y373982D02*
X431585Y374994D01*
X429223Y376006D02*
X431585Y374994D01*
X430235Y376580D02*
Y378604D01*
X429898D01*
X429560Y378435D01*
X429392Y378267D01*
X429223Y377929D01*
Y377423D01*
X429392Y377086D01*
X429729Y376749D01*
X430235Y376580D01*
X430573D01*
X431079Y376749D01*
X431416Y377086D01*
X431585Y377423D01*
Y377929D01*
X431416Y378267D01*
X431079Y378604D01*
X429223Y382147D02*
X431585Y383159D01*
X429223Y384171D02*
X431585Y383159D01*
X428886Y384913D02*
X428717D01*
X428380Y385082D01*
X428211Y385251D01*
X428042Y385588D01*
Y386263D01*
X428211Y386600D01*
X428380Y386769D01*
X428717Y386938D01*
X429054D01*
X429392Y386769D01*
X429898Y386432D01*
X431585Y384745D01*
Y387106D01*
X435364Y342622D02*
X438906D01*
X435364D02*
Y344815D01*
X437051Y342622D02*
Y343972D01*
X436545Y345220D02*
X438906D01*
X437557D02*
X437051Y345389D01*
X436713Y345726D01*
X436545Y346063D01*
Y346569D01*
Y347733D02*
X436713Y347396D01*
X437051Y347059D01*
X437557Y346890D01*
X437894D01*
X438400Y347059D01*
X438738Y347396D01*
X438906Y347733D01*
Y348239D01*
X438738Y348577D01*
X438400Y348914D01*
X437894Y349083D01*
X437557D01*
X437051Y348914D01*
X436713Y348577D01*
X436545Y348239D01*
Y347733D01*
X435364Y351883D02*
X438906D01*
X437051D02*
X436713Y351546D01*
X436545Y351208D01*
Y350702D01*
X436713Y350365D01*
X437051Y350028D01*
X437557Y349859D01*
X437894D01*
X438400Y350028D01*
X438738Y350365D01*
X438906Y350702D01*
Y351208D01*
X438738Y351546D01*
X438400Y351883D01*
X437557Y352828D02*
Y354852D01*
X437219D01*
X436882Y354684D01*
X436713Y354515D01*
X436545Y354177D01*
Y353671D01*
X436713Y353334D01*
X437051Y352997D01*
X437557Y352828D01*
X437894D01*
X438400Y352997D01*
X438738Y353334D01*
X438906Y353671D01*
Y354177D01*
X438738Y354515D01*
X438400Y354852D01*
X436545Y358395D02*
X438906Y359407D01*
X436545Y360419D02*
X438906Y359407D01*
X436545Y363017D02*
X438906D01*
X437051D02*
X436713Y362680D01*
X436545Y362342D01*
Y361836D01*
X436713Y361499D01*
X437051Y361161D01*
X437557Y360993D01*
X437894D01*
X438400Y361161D01*
X438738Y361499D01*
X438906Y361836D01*
Y362342D01*
X438738Y362680D01*
X438400Y363017D01*
X436545Y363962D02*
X438906D01*
X437219D02*
X436713Y364468D01*
X436545Y364805D01*
Y365311D01*
X436713Y365649D01*
X437219Y365817D01*
X438906D01*
X435364Y371553D02*
X438906D01*
X437051D02*
X436713Y371216D01*
X436545Y370878D01*
Y370372D01*
X436713Y370035D01*
X437051Y369697D01*
X437557Y369529D01*
X437894D01*
X438400Y369697D01*
X438738Y370035D01*
X438906Y370372D01*
Y370878D01*
X438738Y371216D01*
X438400Y371553D01*
X437557Y372498D02*
Y374522D01*
X437219D01*
X436882Y374353D01*
X436713Y374184D01*
X436545Y373847D01*
Y373341D01*
X436713Y373004D01*
X437051Y372666D01*
X437557Y372498D01*
X437894D01*
X438400Y372666D01*
X438738Y373004D01*
X438906Y373341D01*
Y373847D01*
X438738Y374184D01*
X438400Y374522D01*
X436545Y375281D02*
X438906D01*
X437557D02*
X437051Y375450D01*
X436713Y375787D01*
X436545Y376124D01*
Y376630D01*
X435364Y379734D02*
X438906D01*
X435364D02*
X438906Y381084D01*
X435364Y382434D02*
X438906Y381084D01*
X435364Y382434D02*
X438906D01*
X437557Y383446D02*
Y385470D01*
X437219D01*
X436882Y385301D01*
X436713Y385133D01*
X436545Y384795D01*
Y384289D01*
X436713Y383952D01*
X437051Y383614D01*
X437557Y383446D01*
X437894D01*
X438400Y383614D01*
X438738Y383952D01*
X438906Y384289D01*
Y384795D01*
X438738Y385133D01*
X438400Y385470D01*
X437557Y386229D02*
Y388253D01*
X437219D01*
X436882Y388085D01*
X436713Y387916D01*
X436545Y387579D01*
Y387073D01*
X436713Y386735D01*
X437051Y386398D01*
X437557Y386229D01*
X437894D01*
X438400Y386398D01*
X438738Y386735D01*
X438906Y387073D01*
Y387579D01*
X438738Y387916D01*
X438400Y388253D01*
X436545Y389013D02*
X438906D01*
X437557D02*
X437051Y389181D01*
X436713Y389519D01*
X436545Y389856D01*
Y390362D01*
X437557Y390683D02*
Y392707D01*
X437219D01*
X436882Y392538D01*
X436713Y392370D01*
X436545Y392032D01*
Y391526D01*
X436713Y391189D01*
X437051Y390851D01*
X437557Y390683D01*
X437894D01*
X438400Y390851D01*
X438738Y391189D01*
X438906Y391526D01*
Y392032D01*
X438738Y392370D01*
X438400Y392707D01*
X436545Y393466D02*
X438906D01*
X437219D02*
X436713Y393972D01*
X436545Y394309D01*
Y394816D01*
X436713Y395153D01*
X437219Y395322D01*
X438906D01*
X442348Y342791D02*
X442179D01*
X441842Y342959D01*
X441673Y343128D01*
X441505Y343465D01*
Y344140D01*
X441673Y344478D01*
X441842Y344646D01*
X442179Y344815D01*
X442517D01*
X442854Y344646D01*
X443360Y344309D01*
X445047Y342622D01*
Y344984D01*
X441505Y346789D02*
X441673Y346283D01*
X442179Y345945D01*
X443023Y345777D01*
X443529D01*
X444373Y345945D01*
X444878Y346283D01*
X445047Y346789D01*
Y347126D01*
X444878Y347632D01*
X444373Y347970D01*
X443529Y348138D01*
X443023D01*
X442179Y347970D01*
X441673Y347632D01*
X441505Y347126D01*
Y346789D01*
X442179Y348931D02*
X442011Y349269D01*
X441505Y349775D01*
X445047D01*
X442686Y353722D02*
X443192Y353553D01*
X443529Y353216D01*
X443698Y352710D01*
Y352541D01*
X443529Y352035D01*
X443192Y351698D01*
X442686Y351529D01*
X442517D01*
X442011Y351698D01*
X441673Y352035D01*
X441505Y352541D01*
Y352710D01*
X441673Y353216D01*
X442011Y353553D01*
X442686Y353722D01*
X443529D01*
X444373Y353553D01*
X444878Y353216D01*
X445047Y352710D01*
Y352373D01*
X444878Y351866D01*
X444541Y351698D01*
X443529Y354684D02*
Y357720D01*
X441505Y359778D02*
X441673Y359272D01*
X442179Y358935D01*
X443023Y358766D01*
X443529D01*
X444373Y358935D01*
X444878Y359272D01*
X445047Y359778D01*
Y360116D01*
X444878Y360622D01*
X444373Y360959D01*
X443529Y361128D01*
X443023D01*
X442179Y360959D01*
X441673Y360622D01*
X441505Y360116D01*
Y359778D01*
X442011Y363945D02*
X441673Y363776D01*
X441505Y363270D01*
Y362933D01*
X441673Y362427D01*
X442179Y362089D01*
X443023Y361920D01*
X443866D01*
X444541Y362089D01*
X444878Y362427D01*
X445047Y362933D01*
Y363101D01*
X444878Y363608D01*
X444541Y363945D01*
X444035Y364113D01*
X443866D01*
X443360Y363945D01*
X443023Y363608D01*
X442854Y363101D01*
Y362933D01*
X443023Y362427D01*
X443360Y362089D01*
X443866Y361920D01*
X443529Y364890D02*
Y367926D01*
X441505Y369984D02*
X441673Y369478D01*
X442179Y369141D01*
X443023Y368972D01*
X443529D01*
X444373Y369141D01*
X444878Y369478D01*
X445047Y369984D01*
Y370321D01*
X444878Y370828D01*
X444373Y371165D01*
X443529Y371334D01*
X443023D01*
X442179Y371165D01*
X441673Y370828D01*
X441505Y370321D01*
Y369984D01*
Y372970D02*
X441673Y372464D01*
X442011Y372295D01*
X442348D01*
X442686Y372464D01*
X442854Y372801D01*
X443023Y373476D01*
X443192Y373982D01*
X443529Y374320D01*
X443866Y374488D01*
X444373D01*
X444710Y374320D01*
X444878Y374151D01*
X445047Y373645D01*
Y372970D01*
X444878Y372464D01*
X444710Y372295D01*
X444373Y372126D01*
X443866D01*
X443529Y372295D01*
X443192Y372633D01*
X443023Y373139D01*
X442854Y373813D01*
X442686Y374151D01*
X442348Y374320D01*
X442011D01*
X441673Y374151D01*
X441505Y373645D01*
Y372970D01*
X442179Y378064D02*
X442011Y378402D01*
X441505Y378908D01*
X445047D01*
X441505Y382687D02*
Y381000D01*
X443023Y380831D01*
X442854Y381000D01*
X442686Y381506D01*
Y382012D01*
X442854Y382518D01*
X443192Y382855D01*
X443698Y383024D01*
X444035D01*
X444541Y382855D01*
X444878Y382518D01*
X445047Y382012D01*
Y381506D01*
X444878Y381000D01*
X444710Y380831D01*
X444373Y380662D01*
X442686Y383986D02*
X442854Y383817D01*
X443023Y383986D01*
X442854Y384154D01*
X442686Y383986D01*
X444710D02*
X444878Y383817D01*
X445047Y383986D01*
X444878Y384154D01*
X444710Y383986D01*
X441505Y385268D02*
Y387123D01*
X442854Y386111D01*
Y386617D01*
X443023Y386954D01*
X443192Y387123D01*
X443698Y387292D01*
X444035D01*
X444541Y387123D01*
X444878Y386786D01*
X445047Y386280D01*
Y385774D01*
X444878Y385268D01*
X444710Y385099D01*
X444373Y384930D01*
X441505Y388928D02*
X441673Y388422D01*
X442011Y388253D01*
X442348D01*
X442686Y388422D01*
X442854Y388760D01*
X443023Y389434D01*
X443192Y389940D01*
X443529Y390278D01*
X443866Y390446D01*
X444373D01*
X444710Y390278D01*
X444878Y390109D01*
X445047Y389603D01*
Y388928D01*
X444878Y388422D01*
X444710Y388253D01*
X444373Y388085D01*
X443866D01*
X443529Y388253D01*
X443192Y388591D01*
X443023Y389097D01*
X442854Y389772D01*
X442686Y390109D01*
X442348Y390278D01*
X442011D01*
X441673Y390109D01*
X441505Y389603D01*
Y388928D01*
Y393601D02*
X445047Y391239D01*
X441505D02*
Y393601D01*
X445047Y391239D02*
Y393601D01*
D18*
X369475Y291224D02*
X369100Y291599D01*
X368537Y291787D01*
X367788D01*
X367225Y291599D01*
X366850Y291224D01*
Y290849D01*
X367038Y290475D01*
X367225Y290287D01*
X367600Y290100D01*
X368725Y289725D01*
X369100Y289537D01*
X369287Y289350D01*
X369475Y288975D01*
Y288413D01*
X369100Y288038D01*
X368537Y287850D01*
X367788D01*
X367225Y288038D01*
X366850Y288413D01*
X370356Y289725D02*
X372042D01*
X372605Y289912D01*
X372792Y290100D01*
X372980Y290475D01*
Y291037D01*
X372792Y291412D01*
X372605Y291599D01*
X372042Y291787D01*
X370356D01*
Y287850D01*
X376859D02*
X375360Y291787D01*
X373861Y287850D01*
X374423Y289162D02*
X376297D01*
X377778Y291787D02*
Y287850D01*
Y291787D02*
X379465D01*
X380027Y291599D01*
X380215Y291412D01*
X380402Y291037D01*
Y290662D01*
X380215Y290287D01*
X380027Y290100D01*
X379465Y289912D01*
X377778D01*
X379090D02*
X380402Y287850D01*
X383720Y291787D02*
X381283D01*
Y287850D01*
X383720D01*
X381283Y289912D02*
X382783D01*
X349475Y226224D02*
X349100Y226599D01*
X348537Y226787D01*
X347788D01*
X347225Y226599D01*
X346850Y226224D01*
Y225849D01*
X347038Y225475D01*
X347225Y225287D01*
X347600Y225100D01*
X348725Y224725D01*
X349100Y224537D01*
X349287Y224350D01*
X349475Y223975D01*
Y223413D01*
X349100Y223038D01*
X348537Y222850D01*
X347788D01*
X347225Y223038D01*
X346850Y223413D01*
X350356Y224725D02*
X352042D01*
X352605Y224912D01*
X352792Y225100D01*
X352980Y225475D01*
Y226037D01*
X352792Y226412D01*
X352605Y226599D01*
X352042Y226787D01*
X350356D01*
Y222850D01*
X356859D02*
X355360Y226787D01*
X353860Y222850D01*
X354423Y224162D02*
X356297D01*
X357778Y226787D02*
Y222850D01*
Y226787D02*
X359465D01*
X360027Y226599D01*
X360215Y226412D01*
X360402Y226037D01*
Y225662D01*
X360215Y225287D01*
X360027Y225100D01*
X359465Y224912D01*
X357778D01*
X359090D02*
X360402Y222850D01*
X363720Y226787D02*
X361283D01*
Y222850D01*
X363720D01*
X361283Y224912D02*
X362783D01*
X299850Y275787D02*
Y271850D01*
Y275787D02*
X301350Y271850D01*
X302849Y275787D02*
X301350Y271850D01*
X302849Y275787D02*
Y271850D01*
X305099Y275787D02*
X304724Y275599D01*
X304349Y275224D01*
X304161Y274849D01*
X303974Y274287D01*
Y273350D01*
X304161Y272788D01*
X304349Y272413D01*
X304724Y272038D01*
X305099Y271850D01*
X305848D01*
X306223Y272038D01*
X306598Y272413D01*
X306785Y272788D01*
X306973Y273350D01*
Y274287D01*
X306785Y274849D01*
X306598Y275224D01*
X306223Y275599D01*
X305848Y275787D01*
X305099D01*
X310515Y275224D02*
X310141Y275599D01*
X309578Y275787D01*
X308829D01*
X308266Y275599D01*
X307891Y275224D01*
Y274849D01*
X308079Y274475D01*
X308266Y274287D01*
X308641Y274100D01*
X309766Y273725D01*
X310141Y273537D01*
X310328Y273350D01*
X310515Y272975D01*
Y272413D01*
X310141Y272038D01*
X309578Y271850D01*
X308829D01*
X308266Y272038D01*
X307891Y272413D01*
X311397Y275787D02*
Y271850D01*
X354662Y274849D02*
X354474Y275224D01*
X354100Y275599D01*
X353725Y275787D01*
X352975D01*
X352600Y275599D01*
X352225Y275224D01*
X352038Y274849D01*
X351850Y274287D01*
Y273350D01*
X352038Y272788D01*
X352225Y272413D01*
X352600Y272038D01*
X352975Y271850D01*
X353725D01*
X354100Y272038D01*
X354474Y272413D01*
X354662Y272788D01*
X355768Y275787D02*
Y271850D01*
X358017D01*
X358448Y275787D02*
Y271850D01*
X361072Y275787D02*
X358448Y273162D01*
X359385Y274100D02*
X361072Y271850D01*
X335850Y275787D02*
Y271850D01*
X336675Y275787D02*
Y271850D01*
Y275787D02*
X339299Y271850D01*
Y275787D02*
Y271850D01*
X341698Y275787D02*
Y271850D01*
X340386Y275787D02*
X343010D01*
X288474Y241224D02*
X288100Y241599D01*
X287537Y241787D01*
X286788D01*
X286225Y241599D01*
X285850Y241224D01*
Y240849D01*
X286038Y240475D01*
X286225Y240287D01*
X286600Y240100D01*
X287725Y239725D01*
X288100Y239537D01*
X288287Y239350D01*
X288474Y238975D01*
Y238413D01*
X288100Y238038D01*
X287537Y237850D01*
X286788D01*
X286225Y238038D01*
X285850Y238413D01*
X292167Y240849D02*
X291980Y241224D01*
X291605Y241599D01*
X291230Y241787D01*
X290480D01*
X290105Y241599D01*
X289730Y241224D01*
X289543Y240849D01*
X289355Y240287D01*
Y239350D01*
X289543Y238788D01*
X289730Y238413D01*
X290105Y238038D01*
X290480Y237850D01*
X291230D01*
X291605Y238038D01*
X291980Y238413D01*
X292167Y238788D01*
X293273Y241787D02*
Y237850D01*
X295897Y241787D02*
X293273Y239162D01*
X294210Y240100D02*
X295897Y237850D01*
X310474Y308224D02*
X310100Y308599D01*
X309537Y308787D01*
X308788D01*
X308225Y308599D01*
X307850Y308224D01*
Y307849D01*
X308038Y307474D01*
X308225Y307287D01*
X308600Y307100D01*
X309725Y306725D01*
X310100Y306537D01*
X310287Y306350D01*
X310474Y305975D01*
Y305413D01*
X310100Y305038D01*
X309537Y304850D01*
X308788D01*
X308225Y305038D01*
X307850Y305413D01*
X311355Y306350D02*
X313605D01*
Y306725D01*
X313417Y307100D01*
X313230Y307287D01*
X312855Y307474D01*
X312293D01*
X311918Y307287D01*
X311543Y306912D01*
X311355Y306350D01*
Y305975D01*
X311543Y305413D01*
X311918Y305038D01*
X312293Y304850D01*
X312855D01*
X313230Y305038D01*
X313605Y305413D01*
X314448Y308787D02*
Y304850D01*
X315273Y306350D02*
X317522D01*
Y306725D01*
X317335Y307100D01*
X317147Y307287D01*
X316772Y307474D01*
X316210D01*
X315835Y307287D01*
X315460Y306912D01*
X315273Y306350D01*
Y305975D01*
X315460Y305413D01*
X315835Y305038D01*
X316210Y304850D01*
X316772D01*
X317147Y305038D01*
X317522Y305413D01*
X320615Y306912D02*
X320240Y307287D01*
X319865Y307474D01*
X319303D01*
X318928Y307287D01*
X318553Y306912D01*
X318366Y306350D01*
Y305975D01*
X318553Y305413D01*
X318928Y305038D01*
X319303Y304850D01*
X319865D01*
X320240Y305038D01*
X320615Y305413D01*
X322021Y308787D02*
Y305600D01*
X322208Y305038D01*
X322583Y304850D01*
X322958D01*
X321458Y307474D02*
X322770D01*
X383850Y307037D02*
X384225Y307224D01*
X384788Y307787D01*
Y303850D01*
X386924Y306849D02*
Y307037D01*
X387112Y307412D01*
X387299Y307599D01*
X387674Y307787D01*
X388424D01*
X388799Y307599D01*
X388986Y307412D01*
X389174Y307037D01*
Y306662D01*
X388986Y306287D01*
X388611Y305725D01*
X386737Y303850D01*
X389361D01*
X390242Y307787D02*
X391741Y303850D01*
X393241Y307787D02*
X391741Y303850D01*
X232850Y299037D02*
X233225Y299224D01*
X233788Y299787D01*
Y295850D01*
X235924Y298849D02*
Y299037D01*
X236112Y299412D01*
X236299Y299599D01*
X236674Y299787D01*
X237424D01*
X237799Y299599D01*
X237986Y299412D01*
X238174Y299037D01*
Y298662D01*
X237986Y298287D01*
X237611Y297725D01*
X235737Y295850D01*
X238361D01*
X239242Y299787D02*
X240741Y295850D01*
X242241Y299787D02*
X240741Y295850D01*
X385662Y268849D02*
X385474Y269224D01*
X385100Y269599D01*
X384725Y269787D01*
X383975D01*
X383600Y269599D01*
X383225Y269224D01*
X383038Y268849D01*
X382850Y268287D01*
Y267350D01*
X383038Y266788D01*
X383225Y266413D01*
X383600Y266038D01*
X383975Y265850D01*
X384725D01*
X385100Y266038D01*
X385474Y266413D01*
X385662Y266788D01*
Y267350D01*
X384725D02*
X385662D01*
X386562Y269787D02*
Y265850D01*
Y269787D02*
X389186Y265850D01*
Y269787D02*
Y265850D01*
X390273Y269787D02*
Y265850D01*
Y269787D02*
X391585D01*
X392147Y269599D01*
X392522Y269224D01*
X392709Y268849D01*
X392897Y268287D01*
Y267350D01*
X392709Y266788D01*
X392522Y266413D01*
X392147Y266038D01*
X391585Y265850D01*
X390273D01*
X235662Y268849D02*
X235474Y269224D01*
X235100Y269599D01*
X234725Y269787D01*
X233975D01*
X233600Y269599D01*
X233225Y269224D01*
X233038Y268849D01*
X232850Y268287D01*
Y267350D01*
X233038Y266788D01*
X233225Y266413D01*
X233600Y266038D01*
X233975Y265850D01*
X234725D01*
X235100Y266038D01*
X235474Y266413D01*
X235662Y266788D01*
Y267350D01*
X234725D02*
X235662D01*
X236562Y269787D02*
Y265850D01*
Y269787D02*
X239186Y265850D01*
Y269787D02*
Y265850D01*
X240273Y269787D02*
Y265850D01*
Y269787D02*
X241585D01*
X242147Y269599D01*
X242522Y269224D01*
X242709Y268849D01*
X242897Y268287D01*
Y267350D01*
X242709Y266788D01*
X242522Y266413D01*
X242147Y266038D01*
X241585Y265850D01*
X240273D01*
X387100Y231787D02*
X385225D01*
X385038Y230100D01*
X385225Y230287D01*
X385788Y230474D01*
X386350D01*
X386912Y230287D01*
X387287Y229912D01*
X387474Y229350D01*
Y228975D01*
X387287Y228413D01*
X386912Y228038D01*
X386350Y227850D01*
X385788D01*
X385225Y228038D01*
X385038Y228225D01*
X384850Y228600D01*
X388355Y231787D02*
X389855Y227850D01*
X391354Y231787D02*
X389855Y227850D01*
X235100Y239787D02*
X233225D01*
X233038Y238100D01*
X233225Y238287D01*
X233788Y238474D01*
X234350D01*
X234912Y238287D01*
X235287Y237912D01*
X235474Y237350D01*
Y236975D01*
X235287Y236413D01*
X234912Y236038D01*
X234350Y235850D01*
X233788D01*
X233225Y236038D01*
X233038Y236225D01*
X232850Y236600D01*
X236355Y239787D02*
X237855Y235850D01*
X239354Y239787D02*
X237855Y235850D01*
X542459Y291224D02*
X542084Y291599D01*
X541522Y291787D01*
X540772D01*
X540209Y291599D01*
X539835Y291224D01*
Y290849D01*
X540022Y290475D01*
X540209Y290287D01*
X540584Y290100D01*
X541709Y289725D01*
X542084Y289537D01*
X542271Y289350D01*
X542459Y288975D01*
Y288413D01*
X542084Y288038D01*
X541522Y287850D01*
X540772D01*
X540209Y288038D01*
X539835Y288413D01*
X543340Y289725D02*
X545027D01*
X545589Y289912D01*
X545776Y290100D01*
X545964Y290475D01*
Y291037D01*
X545776Y291412D01*
X545589Y291599D01*
X545027Y291787D01*
X543340D01*
Y287850D01*
X549844D02*
X548344Y291787D01*
X546845Y287850D01*
X547407Y289162D02*
X549281D01*
X550762Y291787D02*
Y287850D01*
Y291787D02*
X552449D01*
X553011Y291599D01*
X553199Y291412D01*
X553386Y291037D01*
Y290662D01*
X553199Y290287D01*
X553011Y290100D01*
X552449Y289912D01*
X550762D01*
X552074D02*
X553386Y287850D01*
X556704Y291787D02*
X554267D01*
Y287850D01*
X556704D01*
X554267Y289912D02*
X555767D01*
X522459Y226224D02*
X522084Y226599D01*
X521522Y226787D01*
X520772D01*
X520210Y226599D01*
X519835Y226224D01*
Y225849D01*
X520022Y225475D01*
X520210Y225287D01*
X520584Y225100D01*
X521709Y224725D01*
X522084Y224537D01*
X522271Y224350D01*
X522459Y223975D01*
Y223413D01*
X522084Y223038D01*
X521522Y222850D01*
X520772D01*
X520210Y223038D01*
X519835Y223413D01*
X523340Y224725D02*
X525027D01*
X525589Y224912D01*
X525776Y225100D01*
X525964Y225475D01*
Y226037D01*
X525776Y226412D01*
X525589Y226599D01*
X525027Y226787D01*
X523340D01*
Y222850D01*
X529844D02*
X528344Y226787D01*
X526845Y222850D01*
X527407Y224162D02*
X529281D01*
X530762Y226787D02*
Y222850D01*
Y226787D02*
X532449D01*
X533011Y226599D01*
X533199Y226412D01*
X533386Y226037D01*
Y225662D01*
X533199Y225287D01*
X533011Y225100D01*
X532449Y224912D01*
X530762D01*
X532074D02*
X533386Y222850D01*
X536704Y226787D02*
X534267D01*
Y222850D01*
X536704D01*
X534267Y224912D02*
X535767D01*
X472835Y275787D02*
Y271850D01*
Y275787D02*
X474334Y271850D01*
X475834Y275787D02*
X474334Y271850D01*
X475834Y275787D02*
Y271850D01*
X478083Y275787D02*
X477708Y275599D01*
X477333Y275224D01*
X477146Y274849D01*
X476958Y274287D01*
Y273350D01*
X477146Y272788D01*
X477333Y272413D01*
X477708Y272038D01*
X478083Y271850D01*
X478833D01*
X479208Y272038D01*
X479582Y272413D01*
X479770Y272788D01*
X479957Y273350D01*
Y274287D01*
X479770Y274849D01*
X479582Y275224D01*
X479208Y275599D01*
X478833Y275787D01*
X478083D01*
X483500Y275224D02*
X483125Y275599D01*
X482563Y275787D01*
X481813D01*
X481250Y275599D01*
X480876Y275224D01*
Y274849D01*
X481063Y274475D01*
X481250Y274287D01*
X481625Y274100D01*
X482750Y273725D01*
X483125Y273537D01*
X483312Y273350D01*
X483500Y272975D01*
Y272413D01*
X483125Y272038D01*
X482563Y271850D01*
X481813D01*
X481250Y272038D01*
X480876Y272413D01*
X484381Y275787D02*
Y271850D01*
X527646Y274849D02*
X527459Y275224D01*
X527084Y275599D01*
X526709Y275787D01*
X525959D01*
X525584Y275599D01*
X525210Y275224D01*
X525022Y274849D01*
X524835Y274287D01*
Y273350D01*
X525022Y272788D01*
X525210Y272413D01*
X525584Y272038D01*
X525959Y271850D01*
X526709D01*
X527084Y272038D01*
X527459Y272413D01*
X527646Y272788D01*
X528752Y275787D02*
Y271850D01*
X531001D01*
X531432Y275787D02*
Y271850D01*
X534057Y275787D02*
X531432Y273162D01*
X532370Y274100D02*
X534057Y271850D01*
X508835Y275787D02*
Y271850D01*
X509659Y275787D02*
Y271850D01*
Y275787D02*
X512284Y271850D01*
Y275787D02*
Y271850D01*
X514683Y275787D02*
Y271850D01*
X513371Y275787D02*
X515995D01*
X461459Y241224D02*
X461084Y241599D01*
X460522Y241787D01*
X459772D01*
X459209Y241599D01*
X458835Y241224D01*
Y240849D01*
X459022Y240475D01*
X459209Y240287D01*
X459584Y240100D01*
X460709Y239725D01*
X461084Y239537D01*
X461271Y239350D01*
X461459Y238975D01*
Y238413D01*
X461084Y238038D01*
X460522Y237850D01*
X459772D01*
X459209Y238038D01*
X458835Y238413D01*
X465151Y240849D02*
X464964Y241224D01*
X464589Y241599D01*
X464214Y241787D01*
X463464D01*
X463090Y241599D01*
X462715Y241224D01*
X462527Y240849D01*
X462340Y240287D01*
Y239350D01*
X462527Y238788D01*
X462715Y238413D01*
X463090Y238038D01*
X463464Y237850D01*
X464214D01*
X464589Y238038D01*
X464964Y238413D01*
X465151Y238788D01*
X466257Y241787D02*
Y237850D01*
X468881Y241787D02*
X466257Y239162D01*
X467194Y240100D02*
X468881Y237850D01*
X483459Y308224D02*
X483084Y308599D01*
X482522Y308787D01*
X481772D01*
X481210Y308599D01*
X480835Y308224D01*
Y307849D01*
X481022Y307474D01*
X481210Y307287D01*
X481584Y307100D01*
X482709Y306725D01*
X483084Y306537D01*
X483271Y306350D01*
X483459Y305975D01*
Y305413D01*
X483084Y305038D01*
X482522Y304850D01*
X481772D01*
X481210Y305038D01*
X480835Y305413D01*
X484340Y306350D02*
X486589D01*
Y306725D01*
X486402Y307100D01*
X486214Y307287D01*
X485839Y307474D01*
X485277D01*
X484902Y307287D01*
X484527Y306912D01*
X484340Y306350D01*
Y305975D01*
X484527Y305413D01*
X484902Y305038D01*
X485277Y304850D01*
X485839D01*
X486214Y305038D01*
X486589Y305413D01*
X487432Y308787D02*
Y304850D01*
X488257Y306350D02*
X490506D01*
Y306725D01*
X490319Y307100D01*
X490132Y307287D01*
X489757Y307474D01*
X489194D01*
X488819Y307287D01*
X488445Y306912D01*
X488257Y306350D01*
Y305975D01*
X488445Y305413D01*
X488819Y305038D01*
X489194Y304850D01*
X489757D01*
X490132Y305038D01*
X490506Y305413D01*
X493599Y306912D02*
X493224Y307287D01*
X492849Y307474D01*
X492287D01*
X491912Y307287D01*
X491537Y306912D01*
X491350Y306350D01*
Y305975D01*
X491537Y305413D01*
X491912Y305038D01*
X492287Y304850D01*
X492849D01*
X493224Y305038D01*
X493599Y305413D01*
X495005Y308787D02*
Y305600D01*
X495192Y305038D01*
X495567Y304850D01*
X495942D01*
X494443Y307474D02*
X495755D01*
X556835Y307037D02*
X557209Y307224D01*
X557772Y307787D01*
Y303850D01*
X559909Y306849D02*
Y307037D01*
X560096Y307412D01*
X560284Y307599D01*
X560658Y307787D01*
X561408D01*
X561783Y307599D01*
X561970Y307412D01*
X562158Y307037D01*
Y306662D01*
X561970Y306287D01*
X561595Y305725D01*
X559721Y303850D01*
X562345D01*
X563226Y307787D02*
X564726Y303850D01*
X566225Y307787D02*
X564726Y303850D01*
X405835Y299037D02*
X406210Y299224D01*
X406772Y299787D01*
Y295850D01*
X408909Y298849D02*
Y299037D01*
X409096Y299412D01*
X409283Y299599D01*
X409658Y299787D01*
X410408D01*
X410783Y299599D01*
X410970Y299412D01*
X411158Y299037D01*
Y298662D01*
X410970Y298287D01*
X410596Y297725D01*
X408721Y295850D01*
X411345D01*
X412226Y299787D02*
X413726Y295850D01*
X415225Y299787D02*
X413726Y295850D01*
X558646Y268849D02*
X558459Y269224D01*
X558084Y269599D01*
X557709Y269787D01*
X556959D01*
X556584Y269599D01*
X556210Y269224D01*
X556022Y268849D01*
X555835Y268287D01*
Y267350D01*
X556022Y266788D01*
X556210Y266413D01*
X556584Y266038D01*
X556959Y265850D01*
X557709D01*
X558084Y266038D01*
X558459Y266413D01*
X558646Y266788D01*
Y267350D01*
X557709D02*
X558646D01*
X559546Y269787D02*
Y265850D01*
Y269787D02*
X562170Y265850D01*
Y269787D02*
Y265850D01*
X563257Y269787D02*
Y265850D01*
Y269787D02*
X564569D01*
X565132Y269599D01*
X565506Y269224D01*
X565694Y268849D01*
X565881Y268287D01*
Y267350D01*
X565694Y266788D01*
X565506Y266413D01*
X565132Y266038D01*
X564569Y265850D01*
X563257D01*
X408646Y268849D02*
X408459Y269224D01*
X408084Y269599D01*
X407709Y269787D01*
X406959D01*
X406584Y269599D01*
X406210Y269224D01*
X406022Y268849D01*
X405835Y268287D01*
Y267350D01*
X406022Y266788D01*
X406210Y266413D01*
X406584Y266038D01*
X406959Y265850D01*
X407709D01*
X408084Y266038D01*
X408459Y266413D01*
X408646Y266788D01*
Y267350D01*
X407709D02*
X408646D01*
X409546Y269787D02*
Y265850D01*
Y269787D02*
X412170Y265850D01*
Y269787D02*
Y265850D01*
X413257Y269787D02*
Y265850D01*
Y269787D02*
X414569D01*
X415132Y269599D01*
X415506Y269224D01*
X415694Y268849D01*
X415881Y268287D01*
Y267350D01*
X415694Y266788D01*
X415506Y266413D01*
X415132Y266038D01*
X414569Y265850D01*
X413257D01*
X560084Y231787D02*
X558210D01*
X558022Y230100D01*
X558210Y230287D01*
X558772Y230474D01*
X559334D01*
X559896Y230287D01*
X560271Y229912D01*
X560459Y229350D01*
Y228975D01*
X560271Y228413D01*
X559896Y228038D01*
X559334Y227850D01*
X558772D01*
X558210Y228038D01*
X558022Y228225D01*
X557835Y228600D01*
X561340Y231787D02*
X562839Y227850D01*
X564339Y231787D02*
X562839Y227850D01*
X408084Y239787D02*
X406210D01*
X406022Y238100D01*
X406210Y238287D01*
X406772Y238474D01*
X407334D01*
X407896Y238287D01*
X408271Y237912D01*
X408459Y237350D01*
Y236975D01*
X408271Y236413D01*
X407896Y236038D01*
X407334Y235850D01*
X406772D01*
X406210Y236038D01*
X406022Y236225D01*
X405835Y236600D01*
X409340Y239787D02*
X410839Y235850D01*
X412339Y239787D02*
X410839Y235850D01*
X369475Y410209D02*
X369100Y410583D01*
X368537Y410771D01*
X367788D01*
X367225Y410583D01*
X366850Y410209D01*
Y409834D01*
X367038Y409459D01*
X367225Y409271D01*
X367600Y409084D01*
X368725Y408709D01*
X369100Y408522D01*
X369287Y408334D01*
X369475Y407959D01*
Y407397D01*
X369100Y407022D01*
X368537Y406835D01*
X367788D01*
X367225Y407022D01*
X366850Y407397D01*
X370356Y408709D02*
X372042D01*
X372605Y408896D01*
X372792Y409084D01*
X372980Y409459D01*
Y410021D01*
X372792Y410396D01*
X372605Y410583D01*
X372042Y410771D01*
X370356D01*
Y406835D01*
X376859D02*
X375360Y410771D01*
X373861Y406835D01*
X374423Y408147D02*
X376297D01*
X377778Y410771D02*
Y406835D01*
Y410771D02*
X379465D01*
X380027Y410583D01*
X380215Y410396D01*
X380402Y410021D01*
Y409646D01*
X380215Y409271D01*
X380027Y409084D01*
X379465Y408896D01*
X377778D01*
X379090D02*
X380402Y406835D01*
X383720Y410771D02*
X381283D01*
Y406835D01*
X383720D01*
X381283Y408896D02*
X382783D01*
X349475Y345209D02*
X349100Y345583D01*
X348537Y345771D01*
X347788D01*
X347225Y345583D01*
X346850Y345209D01*
Y344834D01*
X347038Y344459D01*
X347225Y344271D01*
X347600Y344084D01*
X348725Y343709D01*
X349100Y343522D01*
X349287Y343334D01*
X349475Y342959D01*
Y342397D01*
X349100Y342022D01*
X348537Y341835D01*
X347788D01*
X347225Y342022D01*
X346850Y342397D01*
X350356Y343709D02*
X352042D01*
X352605Y343896D01*
X352792Y344084D01*
X352980Y344459D01*
Y345021D01*
X352792Y345396D01*
X352605Y345583D01*
X352042Y345771D01*
X350356D01*
Y341835D01*
X356859D02*
X355360Y345771D01*
X353860Y341835D01*
X354423Y343147D02*
X356297D01*
X357778Y345771D02*
Y341835D01*
Y345771D02*
X359465D01*
X360027Y345583D01*
X360215Y345396D01*
X360402Y345021D01*
Y344646D01*
X360215Y344271D01*
X360027Y344084D01*
X359465Y343896D01*
X357778D01*
X359090D02*
X360402Y341835D01*
X363720Y345771D02*
X361283D01*
Y341835D01*
X363720D01*
X361283Y343896D02*
X362783D01*
X299850Y394771D02*
Y390835D01*
Y394771D02*
X301350Y390835D01*
X302849Y394771D02*
X301350Y390835D01*
X302849Y394771D02*
Y390835D01*
X305099Y394771D02*
X304724Y394583D01*
X304349Y394209D01*
X304161Y393834D01*
X303974Y393271D01*
Y392334D01*
X304161Y391772D01*
X304349Y391397D01*
X304724Y391022D01*
X305099Y390835D01*
X305848D01*
X306223Y391022D01*
X306598Y391397D01*
X306785Y391772D01*
X306973Y392334D01*
Y393271D01*
X306785Y393834D01*
X306598Y394209D01*
X306223Y394583D01*
X305848Y394771D01*
X305099D01*
X310515Y394209D02*
X310141Y394583D01*
X309578Y394771D01*
X308829D01*
X308266Y394583D01*
X307891Y394209D01*
Y393834D01*
X308079Y393459D01*
X308266Y393271D01*
X308641Y393084D01*
X309766Y392709D01*
X310141Y392522D01*
X310328Y392334D01*
X310515Y391959D01*
Y391397D01*
X310141Y391022D01*
X309578Y390835D01*
X308829D01*
X308266Y391022D01*
X307891Y391397D01*
X311397Y394771D02*
Y390835D01*
X354662Y393834D02*
X354474Y394209D01*
X354100Y394583D01*
X353725Y394771D01*
X352975D01*
X352600Y394583D01*
X352225Y394209D01*
X352038Y393834D01*
X351850Y393271D01*
Y392334D01*
X352038Y391772D01*
X352225Y391397D01*
X352600Y391022D01*
X352975Y390835D01*
X353725D01*
X354100Y391022D01*
X354474Y391397D01*
X354662Y391772D01*
X355768Y394771D02*
Y390835D01*
X358017D01*
X358448Y394771D02*
Y390835D01*
X361072Y394771D02*
X358448Y392147D01*
X359385Y393084D02*
X361072Y390835D01*
X335850Y394771D02*
Y390835D01*
X336675Y394771D02*
Y390835D01*
Y394771D02*
X339299Y390835D01*
Y394771D02*
Y390835D01*
X341698Y394771D02*
Y390835D01*
X340386Y394771D02*
X343010D01*
X288474Y360209D02*
X288100Y360583D01*
X287537Y360771D01*
X286788D01*
X286225Y360583D01*
X285850Y360209D01*
Y359834D01*
X286038Y359459D01*
X286225Y359271D01*
X286600Y359084D01*
X287725Y358709D01*
X288100Y358522D01*
X288287Y358334D01*
X288474Y357959D01*
Y357397D01*
X288100Y357022D01*
X287537Y356835D01*
X286788D01*
X286225Y357022D01*
X285850Y357397D01*
X292167Y359834D02*
X291980Y360209D01*
X291605Y360583D01*
X291230Y360771D01*
X290480D01*
X290105Y360583D01*
X289730Y360209D01*
X289543Y359834D01*
X289355Y359271D01*
Y358334D01*
X289543Y357772D01*
X289730Y357397D01*
X290105Y357022D01*
X290480Y356835D01*
X291230D01*
X291605Y357022D01*
X291980Y357397D01*
X292167Y357772D01*
X293273Y360771D02*
Y356835D01*
X295897Y360771D02*
X293273Y358147D01*
X294210Y359084D02*
X295897Y356835D01*
X310474Y427209D02*
X310100Y427583D01*
X309537Y427771D01*
X308788D01*
X308225Y427583D01*
X307850Y427209D01*
Y426834D01*
X308038Y426459D01*
X308225Y426271D01*
X308600Y426084D01*
X309725Y425709D01*
X310100Y425522D01*
X310287Y425334D01*
X310474Y424959D01*
Y424397D01*
X310100Y424022D01*
X309537Y423835D01*
X308788D01*
X308225Y424022D01*
X307850Y424397D01*
X311355Y425334D02*
X313605D01*
Y425709D01*
X313417Y426084D01*
X313230Y426271D01*
X312855Y426459D01*
X312293D01*
X311918Y426271D01*
X311543Y425896D01*
X311355Y425334D01*
Y424959D01*
X311543Y424397D01*
X311918Y424022D01*
X312293Y423835D01*
X312855D01*
X313230Y424022D01*
X313605Y424397D01*
X314448Y427771D02*
Y423835D01*
X315273Y425334D02*
X317522D01*
Y425709D01*
X317335Y426084D01*
X317147Y426271D01*
X316772Y426459D01*
X316210D01*
X315835Y426271D01*
X315460Y425896D01*
X315273Y425334D01*
Y424959D01*
X315460Y424397D01*
X315835Y424022D01*
X316210Y423835D01*
X316772D01*
X317147Y424022D01*
X317522Y424397D01*
X320615Y425896D02*
X320240Y426271D01*
X319865Y426459D01*
X319303D01*
X318928Y426271D01*
X318553Y425896D01*
X318366Y425334D01*
Y424959D01*
X318553Y424397D01*
X318928Y424022D01*
X319303Y423835D01*
X319865D01*
X320240Y424022D01*
X320615Y424397D01*
X322021Y427771D02*
Y424584D01*
X322208Y424022D01*
X322583Y423835D01*
X322958D01*
X321458Y426459D02*
X322770D01*
X383850Y426021D02*
X384225Y426208D01*
X384788Y426771D01*
Y422835D01*
X386924Y425834D02*
Y426021D01*
X387112Y426396D01*
X387299Y426583D01*
X387674Y426771D01*
X388424D01*
X388799Y426583D01*
X388986Y426396D01*
X389174Y426021D01*
Y425646D01*
X388986Y425271D01*
X388611Y424709D01*
X386737Y422835D01*
X389361D01*
X390242Y426771D02*
X391741Y422835D01*
X393241Y426771D02*
X391741Y422835D01*
X232850Y418021D02*
X233225Y418209D01*
X233788Y418771D01*
Y414835D01*
X235924Y417834D02*
Y418021D01*
X236112Y418396D01*
X236299Y418583D01*
X236674Y418771D01*
X237424D01*
X237799Y418583D01*
X237986Y418396D01*
X238174Y418021D01*
Y417646D01*
X237986Y417271D01*
X237611Y416709D01*
X235737Y414835D01*
X238361D01*
X239242Y418771D02*
X240741Y414835D01*
X242241Y418771D02*
X240741Y414835D01*
X385662Y387834D02*
X385474Y388209D01*
X385100Y388583D01*
X384725Y388771D01*
X383975D01*
X383600Y388583D01*
X383225Y388209D01*
X383038Y387834D01*
X382850Y387271D01*
Y386334D01*
X383038Y385772D01*
X383225Y385397D01*
X383600Y385022D01*
X383975Y384835D01*
X384725D01*
X385100Y385022D01*
X385474Y385397D01*
X385662Y385772D01*
Y386334D01*
X384725D02*
X385662D01*
X386562Y388771D02*
Y384835D01*
Y388771D02*
X389186Y384835D01*
Y388771D02*
Y384835D01*
X390273Y388771D02*
Y384835D01*
Y388771D02*
X391585D01*
X392147Y388583D01*
X392522Y388209D01*
X392709Y387834D01*
X392897Y387271D01*
Y386334D01*
X392709Y385772D01*
X392522Y385397D01*
X392147Y385022D01*
X391585Y384835D01*
X390273D01*
X235662Y387834D02*
X235474Y388209D01*
X235100Y388583D01*
X234725Y388771D01*
X233975D01*
X233600Y388583D01*
X233225Y388209D01*
X233038Y387834D01*
X232850Y387271D01*
Y386334D01*
X233038Y385772D01*
X233225Y385397D01*
X233600Y385022D01*
X233975Y384835D01*
X234725D01*
X235100Y385022D01*
X235474Y385397D01*
X235662Y385772D01*
Y386334D01*
X234725D02*
X235662D01*
X236562Y388771D02*
Y384835D01*
Y388771D02*
X239186Y384835D01*
Y388771D02*
Y384835D01*
X240273Y388771D02*
Y384835D01*
Y388771D02*
X241585D01*
X242147Y388583D01*
X242522Y388209D01*
X242709Y387834D01*
X242897Y387271D01*
Y386334D01*
X242709Y385772D01*
X242522Y385397D01*
X242147Y385022D01*
X241585Y384835D01*
X240273D01*
X387100Y350771D02*
X385225D01*
X385038Y349084D01*
X385225Y349271D01*
X385788Y349459D01*
X386350D01*
X386912Y349271D01*
X387287Y348896D01*
X387474Y348334D01*
Y347959D01*
X387287Y347397D01*
X386912Y347022D01*
X386350Y346835D01*
X385788D01*
X385225Y347022D01*
X385038Y347210D01*
X384850Y347584D01*
X388355Y350771D02*
X389855Y346835D01*
X391354Y350771D02*
X389855Y346835D01*
X235100Y358771D02*
X233225D01*
X233038Y357084D01*
X233225Y357271D01*
X233788Y357459D01*
X234350D01*
X234912Y357271D01*
X235287Y356896D01*
X235474Y356334D01*
Y355959D01*
X235287Y355397D01*
X234912Y355022D01*
X234350Y354835D01*
X233788D01*
X233225Y355022D01*
X233038Y355209D01*
X232850Y355584D01*
X236355Y358771D02*
X237855Y354835D01*
X239354Y358771D02*
X237855Y354835D01*
X542459Y410209D02*
X542084Y410583D01*
X541522Y410771D01*
X540772D01*
X540209Y410583D01*
X539835Y410209D01*
Y409834D01*
X540022Y409459D01*
X540209Y409271D01*
X540584Y409084D01*
X541709Y408709D01*
X542084Y408522D01*
X542271Y408334D01*
X542459Y407959D01*
Y407397D01*
X542084Y407022D01*
X541522Y406835D01*
X540772D01*
X540209Y407022D01*
X539835Y407397D01*
X543340Y408709D02*
X545027D01*
X545589Y408896D01*
X545776Y409084D01*
X545964Y409459D01*
Y410021D01*
X545776Y410396D01*
X545589Y410583D01*
X545027Y410771D01*
X543340D01*
Y406835D01*
X549844D02*
X548344Y410771D01*
X546845Y406835D01*
X547407Y408147D02*
X549281D01*
X550762Y410771D02*
Y406835D01*
Y410771D02*
X552449D01*
X553011Y410583D01*
X553199Y410396D01*
X553386Y410021D01*
Y409646D01*
X553199Y409271D01*
X553011Y409084D01*
X552449Y408896D01*
X550762D01*
X552074D02*
X553386Y406835D01*
X556704Y410771D02*
X554267D01*
Y406835D01*
X556704D01*
X554267Y408896D02*
X555767D01*
X522459Y345209D02*
X522084Y345583D01*
X521522Y345771D01*
X520772D01*
X520210Y345583D01*
X519835Y345209D01*
Y344834D01*
X520022Y344459D01*
X520210Y344271D01*
X520584Y344084D01*
X521709Y343709D01*
X522084Y343522D01*
X522271Y343334D01*
X522459Y342959D01*
Y342397D01*
X522084Y342022D01*
X521522Y341835D01*
X520772D01*
X520210Y342022D01*
X519835Y342397D01*
X523340Y343709D02*
X525027D01*
X525589Y343896D01*
X525776Y344084D01*
X525964Y344459D01*
Y345021D01*
X525776Y345396D01*
X525589Y345583D01*
X525027Y345771D01*
X523340D01*
Y341835D01*
X529844D02*
X528344Y345771D01*
X526845Y341835D01*
X527407Y343147D02*
X529281D01*
X530762Y345771D02*
Y341835D01*
Y345771D02*
X532449D01*
X533011Y345583D01*
X533199Y345396D01*
X533386Y345021D01*
Y344646D01*
X533199Y344271D01*
X533011Y344084D01*
X532449Y343896D01*
X530762D01*
X532074D02*
X533386Y341835D01*
X536704Y345771D02*
X534267D01*
Y341835D01*
X536704D01*
X534267Y343896D02*
X535767D01*
X472835Y394771D02*
Y390835D01*
Y394771D02*
X474334Y390835D01*
X475834Y394771D02*
X474334Y390835D01*
X475834Y394771D02*
Y390835D01*
X478083Y394771D02*
X477708Y394583D01*
X477333Y394209D01*
X477146Y393834D01*
X476958Y393271D01*
Y392334D01*
X477146Y391772D01*
X477333Y391397D01*
X477708Y391022D01*
X478083Y390835D01*
X478833D01*
X479208Y391022D01*
X479582Y391397D01*
X479770Y391772D01*
X479957Y392334D01*
Y393271D01*
X479770Y393834D01*
X479582Y394209D01*
X479208Y394583D01*
X478833Y394771D01*
X478083D01*
X483500Y394209D02*
X483125Y394583D01*
X482563Y394771D01*
X481813D01*
X481250Y394583D01*
X480876Y394209D01*
Y393834D01*
X481063Y393459D01*
X481250Y393271D01*
X481625Y393084D01*
X482750Y392709D01*
X483125Y392522D01*
X483312Y392334D01*
X483500Y391959D01*
Y391397D01*
X483125Y391022D01*
X482563Y390835D01*
X481813D01*
X481250Y391022D01*
X480876Y391397D01*
X484381Y394771D02*
Y390835D01*
X527646Y393834D02*
X527459Y394209D01*
X527084Y394583D01*
X526709Y394771D01*
X525959D01*
X525584Y394583D01*
X525210Y394209D01*
X525022Y393834D01*
X524835Y393271D01*
Y392334D01*
X525022Y391772D01*
X525210Y391397D01*
X525584Y391022D01*
X525959Y390835D01*
X526709D01*
X527084Y391022D01*
X527459Y391397D01*
X527646Y391772D01*
X528752Y394771D02*
Y390835D01*
X531001D01*
X531432Y394771D02*
Y390835D01*
X534057Y394771D02*
X531432Y392147D01*
X532370Y393084D02*
X534057Y390835D01*
X508835Y394771D02*
Y390835D01*
X509659Y394771D02*
Y390835D01*
Y394771D02*
X512284Y390835D01*
Y394771D02*
Y390835D01*
X514683Y394771D02*
Y390835D01*
X513371Y394771D02*
X515995D01*
X461459Y360209D02*
X461084Y360583D01*
X460522Y360771D01*
X459772D01*
X459209Y360583D01*
X458835Y360209D01*
Y359834D01*
X459022Y359459D01*
X459209Y359271D01*
X459584Y359084D01*
X460709Y358709D01*
X461084Y358522D01*
X461271Y358334D01*
X461459Y357959D01*
Y357397D01*
X461084Y357022D01*
X460522Y356835D01*
X459772D01*
X459209Y357022D01*
X458835Y357397D01*
X465151Y359834D02*
X464964Y360209D01*
X464589Y360583D01*
X464214Y360771D01*
X463464D01*
X463090Y360583D01*
X462715Y360209D01*
X462527Y359834D01*
X462340Y359271D01*
Y358334D01*
X462527Y357772D01*
X462715Y357397D01*
X463090Y357022D01*
X463464Y356835D01*
X464214D01*
X464589Y357022D01*
X464964Y357397D01*
X465151Y357772D01*
X466257Y360771D02*
Y356835D01*
X468881Y360771D02*
X466257Y358147D01*
X467194Y359084D02*
X468881Y356835D01*
X483459Y427209D02*
X483084Y427583D01*
X482522Y427771D01*
X481772D01*
X481210Y427583D01*
X480835Y427209D01*
Y426834D01*
X481022Y426459D01*
X481210Y426271D01*
X481584Y426084D01*
X482709Y425709D01*
X483084Y425522D01*
X483271Y425334D01*
X483459Y424959D01*
Y424397D01*
X483084Y424022D01*
X482522Y423835D01*
X481772D01*
X481210Y424022D01*
X480835Y424397D01*
X484340Y425334D02*
X486589D01*
Y425709D01*
X486402Y426084D01*
X486214Y426271D01*
X485839Y426459D01*
X485277D01*
X484902Y426271D01*
X484527Y425896D01*
X484340Y425334D01*
Y424959D01*
X484527Y424397D01*
X484902Y424022D01*
X485277Y423835D01*
X485839D01*
X486214Y424022D01*
X486589Y424397D01*
X487432Y427771D02*
Y423835D01*
X488257Y425334D02*
X490506D01*
Y425709D01*
X490319Y426084D01*
X490132Y426271D01*
X489757Y426459D01*
X489194D01*
X488819Y426271D01*
X488445Y425896D01*
X488257Y425334D01*
Y424959D01*
X488445Y424397D01*
X488819Y424022D01*
X489194Y423835D01*
X489757D01*
X490132Y424022D01*
X490506Y424397D01*
X493599Y425896D02*
X493224Y426271D01*
X492849Y426459D01*
X492287D01*
X491912Y426271D01*
X491537Y425896D01*
X491350Y425334D01*
Y424959D01*
X491537Y424397D01*
X491912Y424022D01*
X492287Y423835D01*
X492849D01*
X493224Y424022D01*
X493599Y424397D01*
X495005Y427771D02*
Y424584D01*
X495192Y424022D01*
X495567Y423835D01*
X495942D01*
X494443Y426459D02*
X495755D01*
X556835Y426021D02*
X557209Y426208D01*
X557772Y426771D01*
Y422835D01*
X559909Y425834D02*
Y426021D01*
X560096Y426396D01*
X560284Y426583D01*
X560658Y426771D01*
X561408D01*
X561783Y426583D01*
X561970Y426396D01*
X562158Y426021D01*
Y425646D01*
X561970Y425271D01*
X561595Y424709D01*
X559721Y422835D01*
X562345D01*
X563226Y426771D02*
X564726Y422835D01*
X566225Y426771D02*
X564726Y422835D01*
X405835Y418021D02*
X406210Y418209D01*
X406772Y418771D01*
Y414835D01*
X408909Y417834D02*
Y418021D01*
X409096Y418396D01*
X409283Y418583D01*
X409658Y418771D01*
X410408D01*
X410783Y418583D01*
X410970Y418396D01*
X411158Y418021D01*
Y417646D01*
X410970Y417271D01*
X410596Y416709D01*
X408721Y414835D01*
X411345D01*
X412226Y418771D02*
X413726Y414835D01*
X415225Y418771D02*
X413726Y414835D01*
X558646Y387834D02*
X558459Y388209D01*
X558084Y388583D01*
X557709Y388771D01*
X556959D01*
X556584Y388583D01*
X556210Y388209D01*
X556022Y387834D01*
X555835Y387271D01*
Y386334D01*
X556022Y385772D01*
X556210Y385397D01*
X556584Y385022D01*
X556959Y384835D01*
X557709D01*
X558084Y385022D01*
X558459Y385397D01*
X558646Y385772D01*
Y386334D01*
X557709D02*
X558646D01*
X559546Y388771D02*
Y384835D01*
Y388771D02*
X562170Y384835D01*
Y388771D02*
Y384835D01*
X563257Y388771D02*
Y384835D01*
Y388771D02*
X564569D01*
X565132Y388583D01*
X565506Y388209D01*
X565694Y387834D01*
X565881Y387271D01*
Y386334D01*
X565694Y385772D01*
X565506Y385397D01*
X565132Y385022D01*
X564569Y384835D01*
X563257D01*
X408646Y387834D02*
X408459Y388209D01*
X408084Y388583D01*
X407709Y388771D01*
X406959D01*
X406584Y388583D01*
X406210Y388209D01*
X406022Y387834D01*
X405835Y387271D01*
Y386334D01*
X406022Y385772D01*
X406210Y385397D01*
X406584Y385022D01*
X406959Y384835D01*
X407709D01*
X408084Y385022D01*
X408459Y385397D01*
X408646Y385772D01*
Y386334D01*
X407709D02*
X408646D01*
X409546Y388771D02*
Y384835D01*
Y388771D02*
X412170Y384835D01*
Y388771D02*
Y384835D01*
X413257Y388771D02*
Y384835D01*
Y388771D02*
X414569D01*
X415132Y388583D01*
X415506Y388209D01*
X415694Y387834D01*
X415881Y387271D01*
Y386334D01*
X415694Y385772D01*
X415506Y385397D01*
X415132Y385022D01*
X414569Y384835D01*
X413257D01*
X560084Y350771D02*
X558210D01*
X558022Y349084D01*
X558210Y349271D01*
X558772Y349459D01*
X559334D01*
X559896Y349271D01*
X560271Y348896D01*
X560459Y348334D01*
Y347959D01*
X560271Y347397D01*
X559896Y347022D01*
X559334Y346835D01*
X558772D01*
X558210Y347022D01*
X558022Y347210D01*
X557835Y347584D01*
X561340Y350771D02*
X562839Y346835D01*
X564339Y350771D02*
X562839Y346835D01*
X408084Y358771D02*
X406210D01*
X406022Y357084D01*
X406210Y357271D01*
X406772Y357459D01*
X407334D01*
X407896Y357271D01*
X408271Y356896D01*
X408459Y356334D01*
Y355959D01*
X408271Y355397D01*
X407896Y355022D01*
X407334Y354835D01*
X406772D01*
X406210Y355022D01*
X406022Y355209D01*
X405835Y355584D01*
X409340Y358771D02*
X410839Y354835D01*
X412339Y358771D02*
X410839Y354835D01*
M02*
