G04*
G04 #@! TF.GenerationSoftware,Altium Limited,Altium Designer,18.1.9 (240)*
G04*
G04 Layer_Physical_Order=1*
G04 Layer_Color=255*
%FSLAX25Y25*%
%MOIN*%
G70*
G01*
G75*
%ADD10C,0.02000*%
%ADD11C,0.04000*%
%ADD12C,0.08000*%
%ADD13R,0.06000X0.06000*%
%ADD14C,0.06000*%
%ADD15C,0.10000*%
G36*
X571614Y335377D02*
X570614Y335178D01*
X570329Y335868D01*
X569688Y336703D01*
X568852Y337344D01*
X567879Y337747D01*
X566835Y337885D01*
X565790Y337747D01*
X564817Y337344D01*
X563982Y336703D01*
X563341Y335868D01*
X562938Y334895D01*
X562800Y333850D01*
X562938Y332806D01*
X563341Y331833D01*
X563982Y330998D01*
X564817Y330356D01*
X565790Y329953D01*
X566835Y329816D01*
X567879Y329953D01*
X568852Y330356D01*
X569688Y330998D01*
X570329Y331833D01*
X570614Y332523D01*
X571614Y332324D01*
Y328328D01*
X570819Y327835D01*
X567819D01*
Y323850D01*
X566835D01*
Y322866D01*
X562850D01*
Y320055D01*
X560076D01*
X559746Y320843D01*
X559712Y321055D01*
X560315Y321841D01*
X560716Y322810D01*
X560724Y322866D01*
X556835D01*
X552946D01*
X552953Y322810D01*
X553354Y321841D01*
X553958Y321055D01*
X553924Y320843D01*
X553593Y320055D01*
X550076D01*
X549746Y320843D01*
X549712Y321055D01*
X550315Y321841D01*
X550716Y322810D01*
X550724Y322866D01*
X546835D01*
X542946D01*
X542953Y322810D01*
X543354Y321841D01*
X543958Y321055D01*
X543924Y320843D01*
X543593Y320055D01*
X540076D01*
X539746Y320843D01*
X539712Y321055D01*
X540315Y321841D01*
X540716Y322810D01*
X540724Y322866D01*
X536835D01*
X532946D01*
X532953Y322810D01*
X533354Y321841D01*
X533958Y321055D01*
X533924Y320843D01*
X533593Y320055D01*
X530076D01*
X529746Y320843D01*
X529712Y321055D01*
X530315Y321841D01*
X530716Y322810D01*
X530724Y322866D01*
X526835D01*
X522946D01*
X522953Y322810D01*
X523354Y321841D01*
X523958Y321055D01*
X523924Y320843D01*
X523593Y320055D01*
X520076D01*
X519746Y320843D01*
X519712Y321055D01*
X520315Y321841D01*
X520716Y322810D01*
X520724Y322866D01*
X516835D01*
X512946D01*
X512953Y322810D01*
X513354Y321841D01*
X513958Y321055D01*
X513924Y320843D01*
X513593Y320055D01*
X510076D01*
X509746Y320843D01*
X509712Y321055D01*
X510315Y321841D01*
X510716Y322810D01*
X510724Y322866D01*
X506835D01*
X502946D01*
X502953Y322810D01*
X503354Y321841D01*
X503958Y321055D01*
X503924Y320843D01*
X503593Y320055D01*
X500076D01*
X499746Y320843D01*
X499712Y321055D01*
X500315Y321841D01*
X500716Y322810D01*
X500724Y322866D01*
X496835D01*
X492946D01*
X492953Y322810D01*
X493354Y321841D01*
X493958Y321055D01*
X493924Y320843D01*
X493593Y320055D01*
X490076D01*
X489746Y320843D01*
X489712Y321055D01*
X490315Y321841D01*
X490716Y322810D01*
X490724Y322866D01*
X486835D01*
X482946D01*
X482953Y322810D01*
X483354Y321841D01*
X483958Y321055D01*
X483924Y320843D01*
X483593Y320055D01*
X480076D01*
X479746Y320843D01*
X479712Y321055D01*
X480315Y321841D01*
X480716Y322810D01*
X480724Y322866D01*
X476835D01*
X472946D01*
X472953Y322810D01*
X473354Y321841D01*
X473958Y321055D01*
X473924Y320843D01*
X473593Y320055D01*
X470076D01*
X469746Y320843D01*
X469712Y321055D01*
X470315Y321841D01*
X470716Y322810D01*
X470724Y322866D01*
X466835D01*
X462946D01*
X462953Y322810D01*
X463354Y321841D01*
X463958Y321055D01*
X463924Y320843D01*
X463593Y320055D01*
X460076D01*
X459746Y320843D01*
X459712Y321055D01*
X460315Y321841D01*
X460716Y322810D01*
X460724Y322866D01*
X456835D01*
X452946D01*
X452953Y322810D01*
X453354Y321841D01*
X453958Y321055D01*
X453924Y320843D01*
X453593Y320055D01*
X450076D01*
X449746Y320843D01*
X449712Y321055D01*
X450315Y321841D01*
X450716Y322810D01*
X450724Y322866D01*
X446835D01*
X442946D01*
X442953Y322810D01*
X443354Y321841D01*
X443958Y321055D01*
X443924Y320843D01*
X443593Y320055D01*
X440076D01*
X439746Y320843D01*
X439712Y321055D01*
X440315Y321841D01*
X440716Y322810D01*
X440724Y322866D01*
X436835D01*
X432946D01*
X432953Y322810D01*
X433354Y321841D01*
X433958Y321055D01*
X433924Y320843D01*
X433593Y320055D01*
X430076D01*
X429746Y320843D01*
X429712Y321055D01*
X430315Y321841D01*
X430716Y322810D01*
X430724Y322866D01*
X426835D01*
X422946D01*
X422953Y322810D01*
X423354Y321841D01*
X423958Y321055D01*
X423924Y320843D01*
X423593Y320055D01*
X420076D01*
X419746Y320843D01*
X419712Y321055D01*
X420315Y321841D01*
X420716Y322810D01*
X420724Y322866D01*
X416835D01*
X412946D01*
X412953Y322810D01*
X413354Y321841D01*
X413958Y321055D01*
X413924Y320843D01*
X413593Y320055D01*
X410076D01*
X409746Y320843D01*
X409712Y321055D01*
X410315Y321841D01*
X410716Y322810D01*
X410724Y322866D01*
X406835D01*
Y323850D01*
X405850D01*
Y327739D01*
X405794Y327732D01*
X404825Y327331D01*
X403993Y326692D01*
X403354Y325860D01*
X403055Y325137D01*
X402055Y325336D01*
Y332324D01*
X403055Y332523D01*
X403341Y331833D01*
X403982Y330998D01*
X404817Y330356D01*
X405790Y329953D01*
X406835Y329816D01*
X407879Y329953D01*
X408852Y330356D01*
X409688Y330998D01*
X410329Y331833D01*
X410732Y332806D01*
X410869Y333850D01*
X410732Y334895D01*
X410329Y335868D01*
X409688Y336703D01*
X408852Y337344D01*
X407879Y337747D01*
X406835Y337885D01*
X405790Y337747D01*
X404817Y337344D01*
X403982Y336703D01*
X403341Y335868D01*
X403055Y335178D01*
X402055Y335377D01*
Y435614D01*
X571614D01*
Y335377D01*
D02*
G37*
G36*
X398630D02*
X397630Y335178D01*
X397344Y335868D01*
X396703Y336703D01*
X395868Y337344D01*
X394895Y337747D01*
X393850Y337885D01*
X392806Y337747D01*
X391833Y337344D01*
X390998Y336703D01*
X390356Y335868D01*
X389953Y334895D01*
X389816Y333850D01*
X389953Y332806D01*
X390356Y331833D01*
X390998Y330998D01*
X391833Y330356D01*
X392806Y329953D01*
X393850Y329816D01*
X394895Y329953D01*
X395868Y330356D01*
X396703Y330998D01*
X397344Y331833D01*
X397630Y332523D01*
X398630Y332324D01*
Y328328D01*
X397835Y327835D01*
X394835D01*
Y323850D01*
X393850D01*
Y322866D01*
X389866D01*
Y320055D01*
X387092D01*
X386761Y320843D01*
X386727Y321055D01*
X387331Y321841D01*
X387732Y322810D01*
X387739Y322866D01*
X383850D01*
X379961D01*
X379969Y322810D01*
X380370Y321841D01*
X380973Y321055D01*
X380940Y320843D01*
X380609Y320055D01*
X377092D01*
X376761Y320843D01*
X376727Y321055D01*
X377331Y321841D01*
X377732Y322810D01*
X377739Y322866D01*
X373850D01*
X369961D01*
X369969Y322810D01*
X370370Y321841D01*
X370973Y321055D01*
X370939Y320843D01*
X370609Y320055D01*
X367092D01*
X366761Y320843D01*
X366727Y321055D01*
X367331Y321841D01*
X367732Y322810D01*
X367739Y322866D01*
X363850D01*
X359961D01*
X359969Y322810D01*
X360370Y321841D01*
X360973Y321055D01*
X360940Y320843D01*
X360609Y320055D01*
X357092D01*
X356761Y320843D01*
X356727Y321055D01*
X357331Y321841D01*
X357732Y322810D01*
X357739Y322866D01*
X353850D01*
X349961D01*
X349969Y322810D01*
X350370Y321841D01*
X350973Y321055D01*
X350939Y320843D01*
X350609Y320055D01*
X347092D01*
X346761Y320843D01*
X346727Y321055D01*
X347331Y321841D01*
X347732Y322810D01*
X347739Y322866D01*
X343850D01*
X339961D01*
X339969Y322810D01*
X340370Y321841D01*
X340973Y321055D01*
X340939Y320843D01*
X340609Y320055D01*
X337092D01*
X336761Y320843D01*
X336727Y321055D01*
X337331Y321841D01*
X337732Y322810D01*
X337739Y322866D01*
X333850D01*
X329961D01*
X329969Y322810D01*
X330370Y321841D01*
X330973Y321055D01*
X330940Y320843D01*
X330609Y320055D01*
X327092D01*
X326761Y320843D01*
X326727Y321055D01*
X327331Y321841D01*
X327732Y322810D01*
X327739Y322866D01*
X323850D01*
X319961D01*
X319969Y322810D01*
X320370Y321841D01*
X320973Y321055D01*
X320939Y320843D01*
X320609Y320055D01*
X317092D01*
X316761Y320843D01*
X316727Y321055D01*
X317331Y321841D01*
X317732Y322810D01*
X317739Y322866D01*
X313850D01*
X309961D01*
X309969Y322810D01*
X310370Y321841D01*
X310973Y321055D01*
X310940Y320843D01*
X310609Y320055D01*
X307092D01*
X306761Y320843D01*
X306727Y321055D01*
X307331Y321841D01*
X307732Y322810D01*
X307739Y322866D01*
X303850D01*
X299961D01*
X299969Y322810D01*
X300370Y321841D01*
X300973Y321055D01*
X300939Y320843D01*
X300609Y320055D01*
X297092D01*
X296761Y320843D01*
X296727Y321055D01*
X297331Y321841D01*
X297732Y322810D01*
X297739Y322866D01*
X293850D01*
X289961D01*
X289969Y322810D01*
X290370Y321841D01*
X290973Y321055D01*
X290939Y320843D01*
X290609Y320055D01*
X287092D01*
X286761Y320843D01*
X286727Y321055D01*
X287331Y321841D01*
X287732Y322810D01*
X287739Y322866D01*
X283850D01*
X279961D01*
X279969Y322810D01*
X280370Y321841D01*
X280973Y321055D01*
X280940Y320843D01*
X280609Y320055D01*
X277092D01*
X276761Y320843D01*
X276727Y321055D01*
X277331Y321841D01*
X277732Y322810D01*
X277739Y322866D01*
X273850D01*
X269961D01*
X269969Y322810D01*
X270370Y321841D01*
X270973Y321055D01*
X270939Y320843D01*
X270609Y320055D01*
X267092D01*
X266761Y320843D01*
X266727Y321055D01*
X267331Y321841D01*
X267732Y322810D01*
X267739Y322866D01*
X263850D01*
X259961D01*
X259969Y322810D01*
X260370Y321841D01*
X260973Y321055D01*
X260940Y320843D01*
X260609Y320055D01*
X257092D01*
X256761Y320843D01*
X256727Y321055D01*
X257331Y321841D01*
X257732Y322810D01*
X257739Y322866D01*
X253850D01*
X249961D01*
X249969Y322810D01*
X250370Y321841D01*
X250973Y321055D01*
X250939Y320843D01*
X250609Y320055D01*
X247092D01*
X246761Y320843D01*
X246727Y321055D01*
X247331Y321841D01*
X247732Y322810D01*
X247739Y322866D01*
X243850D01*
X239961D01*
X239969Y322810D01*
X240370Y321841D01*
X240973Y321055D01*
X240939Y320843D01*
X240609Y320055D01*
X237092D01*
X236761Y320843D01*
X236727Y321055D01*
X237331Y321841D01*
X237732Y322810D01*
X237739Y322866D01*
X233850D01*
Y323850D01*
X232866D01*
Y327739D01*
X232810Y327732D01*
X231841Y327331D01*
X231009Y326692D01*
X230370Y325860D01*
X230071Y325137D01*
X229071Y325336D01*
Y332324D01*
X230071Y332523D01*
X230356Y331833D01*
X230998Y330998D01*
X231833Y330356D01*
X232806Y329953D01*
X233850Y329816D01*
X234895Y329953D01*
X235868Y330356D01*
X236703Y330998D01*
X237344Y331833D01*
X237747Y332806D01*
X237885Y333850D01*
X237747Y334895D01*
X237344Y335868D01*
X236703Y336703D01*
X235868Y337344D01*
X234895Y337747D01*
X233850Y337885D01*
X232806Y337747D01*
X231833Y337344D01*
X230998Y336703D01*
X230356Y335868D01*
X230071Y335178D01*
X229071Y335377D01*
Y435614D01*
X398630D01*
Y335377D01*
D02*
G37*
G36*
X571614Y216393D02*
X570614Y216194D01*
X570329Y216883D01*
X569688Y217719D01*
X568852Y218360D01*
X567879Y218763D01*
X566835Y218901D01*
X565790Y218763D01*
X564817Y218360D01*
X563982Y217719D01*
X563341Y216883D01*
X562938Y215910D01*
X562800Y214866D01*
X562938Y213822D01*
X563341Y212849D01*
X563982Y212013D01*
X564817Y211372D01*
X565790Y210969D01*
X566835Y210832D01*
X567879Y210969D01*
X568852Y211372D01*
X569688Y212013D01*
X570329Y212849D01*
X570614Y213539D01*
X571614Y213340D01*
Y209344D01*
X570819Y208850D01*
X567819D01*
Y204866D01*
X566835D01*
Y203882D01*
X562850D01*
Y201071D01*
X560076D01*
X559746Y201859D01*
X559712Y202071D01*
X560315Y202857D01*
X560716Y203826D01*
X560724Y203882D01*
X556835D01*
X552946D01*
X552953Y203826D01*
X553354Y202857D01*
X553958Y202071D01*
X553924Y201859D01*
X553593Y201071D01*
X550076D01*
X549746Y201859D01*
X549712Y202071D01*
X550315Y202857D01*
X550716Y203826D01*
X550724Y203882D01*
X546835D01*
X542946D01*
X542953Y203826D01*
X543354Y202857D01*
X543958Y202071D01*
X543924Y201859D01*
X543593Y201071D01*
X540076D01*
X539746Y201859D01*
X539712Y202071D01*
X540315Y202857D01*
X540716Y203826D01*
X540724Y203882D01*
X536835D01*
X532946D01*
X532953Y203826D01*
X533354Y202857D01*
X533958Y202071D01*
X533924Y201859D01*
X533593Y201071D01*
X530076D01*
X529746Y201859D01*
X529712Y202071D01*
X530315Y202857D01*
X530716Y203826D01*
X530724Y203882D01*
X526835D01*
X522946D01*
X522953Y203826D01*
X523354Y202857D01*
X523958Y202071D01*
X523924Y201859D01*
X523593Y201071D01*
X520076D01*
X519746Y201859D01*
X519712Y202071D01*
X520315Y202857D01*
X520716Y203826D01*
X520724Y203882D01*
X516835D01*
X512946D01*
X512953Y203826D01*
X513354Y202857D01*
X513958Y202071D01*
X513924Y201859D01*
X513593Y201071D01*
X510076D01*
X509746Y201859D01*
X509712Y202071D01*
X510315Y202857D01*
X510716Y203826D01*
X510724Y203882D01*
X506835D01*
X502946D01*
X502953Y203826D01*
X503354Y202857D01*
X503958Y202071D01*
X503924Y201859D01*
X503593Y201071D01*
X500076D01*
X499746Y201859D01*
X499712Y202071D01*
X500315Y202857D01*
X500716Y203826D01*
X500724Y203882D01*
X496835D01*
X492946D01*
X492953Y203826D01*
X493354Y202857D01*
X493958Y202071D01*
X493924Y201859D01*
X493593Y201071D01*
X490076D01*
X489746Y201859D01*
X489712Y202071D01*
X490315Y202857D01*
X490716Y203826D01*
X490724Y203882D01*
X486835D01*
X482946D01*
X482953Y203826D01*
X483354Y202857D01*
X483958Y202071D01*
X483924Y201859D01*
X483593Y201071D01*
X480076D01*
X479746Y201859D01*
X479712Y202071D01*
X480315Y202857D01*
X480716Y203826D01*
X480724Y203882D01*
X476835D01*
X472946D01*
X472953Y203826D01*
X473354Y202857D01*
X473958Y202071D01*
X473924Y201859D01*
X473593Y201071D01*
X470076D01*
X469746Y201859D01*
X469712Y202071D01*
X470315Y202857D01*
X470716Y203826D01*
X470724Y203882D01*
X466835D01*
X462946D01*
X462953Y203826D01*
X463354Y202857D01*
X463958Y202071D01*
X463924Y201859D01*
X463593Y201071D01*
X460076D01*
X459746Y201859D01*
X459712Y202071D01*
X460315Y202857D01*
X460716Y203826D01*
X460724Y203882D01*
X456835D01*
X452946D01*
X452953Y203826D01*
X453354Y202857D01*
X453958Y202071D01*
X453924Y201859D01*
X453593Y201071D01*
X450076D01*
X449746Y201859D01*
X449712Y202071D01*
X450315Y202857D01*
X450716Y203826D01*
X450724Y203882D01*
X446835D01*
X442946D01*
X442953Y203826D01*
X443354Y202857D01*
X443958Y202071D01*
X443924Y201859D01*
X443593Y201071D01*
X440076D01*
X439746Y201859D01*
X439712Y202071D01*
X440315Y202857D01*
X440716Y203826D01*
X440724Y203882D01*
X436835D01*
X432946D01*
X432953Y203826D01*
X433354Y202857D01*
X433958Y202071D01*
X433924Y201859D01*
X433593Y201071D01*
X430076D01*
X429746Y201859D01*
X429712Y202071D01*
X430315Y202857D01*
X430716Y203826D01*
X430724Y203882D01*
X426835D01*
X422946D01*
X422953Y203826D01*
X423354Y202857D01*
X423958Y202071D01*
X423924Y201859D01*
X423593Y201071D01*
X420076D01*
X419746Y201859D01*
X419712Y202071D01*
X420315Y202857D01*
X420716Y203826D01*
X420724Y203882D01*
X416835D01*
X412946D01*
X412953Y203826D01*
X413354Y202857D01*
X413958Y202071D01*
X413924Y201859D01*
X413593Y201071D01*
X410076D01*
X409746Y201859D01*
X409712Y202071D01*
X410315Y202857D01*
X410716Y203826D01*
X410724Y203882D01*
X406835D01*
Y204866D01*
X405850D01*
Y208755D01*
X405794Y208748D01*
X404825Y208346D01*
X403993Y207708D01*
X403354Y206875D01*
X403055Y206153D01*
X402055Y206351D01*
Y213340D01*
X403055Y213539D01*
X403341Y212849D01*
X403982Y212013D01*
X404817Y211372D01*
X405790Y210969D01*
X406835Y210832D01*
X407879Y210969D01*
X408852Y211372D01*
X409688Y212013D01*
X410329Y212849D01*
X410732Y213822D01*
X410869Y214866D01*
X410732Y215910D01*
X410329Y216883D01*
X409688Y217719D01*
X408852Y218360D01*
X407879Y218763D01*
X406835Y218901D01*
X405790Y218763D01*
X404817Y218360D01*
X403982Y217719D01*
X403341Y216883D01*
X403055Y216194D01*
X402055Y216393D01*
Y316630D01*
X571614D01*
Y216393D01*
D02*
G37*
G36*
X398630D02*
X397630Y216194D01*
X397344Y216883D01*
X396703Y217719D01*
X395868Y218360D01*
X394895Y218763D01*
X393850Y218901D01*
X392806Y218763D01*
X391833Y218360D01*
X390998Y217719D01*
X390356Y216883D01*
X389953Y215910D01*
X389816Y214866D01*
X389953Y213822D01*
X390356Y212849D01*
X390998Y212013D01*
X391833Y211372D01*
X392806Y210969D01*
X393850Y210832D01*
X394895Y210969D01*
X395868Y211372D01*
X396703Y212013D01*
X397344Y212849D01*
X397630Y213539D01*
X398630Y213340D01*
Y209344D01*
X397835Y208850D01*
X394835D01*
Y204866D01*
X393850D01*
Y203882D01*
X389866D01*
Y201071D01*
X387092D01*
X386761Y201859D01*
X386727Y202071D01*
X387331Y202857D01*
X387732Y203826D01*
X387739Y203882D01*
X383850D01*
X379961D01*
X379969Y203826D01*
X380370Y202857D01*
X380973Y202071D01*
X380940Y201859D01*
X380609Y201071D01*
X377092D01*
X376761Y201859D01*
X376727Y202071D01*
X377331Y202857D01*
X377732Y203826D01*
X377739Y203882D01*
X373850D01*
X369961D01*
X369969Y203826D01*
X370370Y202857D01*
X370973Y202071D01*
X370939Y201859D01*
X370609Y201071D01*
X367092D01*
X366761Y201859D01*
X366727Y202071D01*
X367331Y202857D01*
X367732Y203826D01*
X367739Y203882D01*
X363850D01*
X359961D01*
X359969Y203826D01*
X360370Y202857D01*
X360973Y202071D01*
X360940Y201859D01*
X360609Y201071D01*
X357092D01*
X356761Y201859D01*
X356727Y202071D01*
X357331Y202857D01*
X357732Y203826D01*
X357739Y203882D01*
X353850D01*
X349961D01*
X349969Y203826D01*
X350370Y202857D01*
X350973Y202071D01*
X350939Y201859D01*
X350609Y201071D01*
X347092D01*
X346761Y201859D01*
X346727Y202071D01*
X347331Y202857D01*
X347732Y203826D01*
X347739Y203882D01*
X343850D01*
X339961D01*
X339969Y203826D01*
X340370Y202857D01*
X340973Y202071D01*
X340939Y201859D01*
X340609Y201071D01*
X337092D01*
X336761Y201859D01*
X336727Y202071D01*
X337331Y202857D01*
X337732Y203826D01*
X337739Y203882D01*
X333850D01*
X329961D01*
X329969Y203826D01*
X330370Y202857D01*
X330973Y202071D01*
X330940Y201859D01*
X330609Y201071D01*
X327092D01*
X326761Y201859D01*
X326727Y202071D01*
X327331Y202857D01*
X327732Y203826D01*
X327739Y203882D01*
X323850D01*
X319961D01*
X319969Y203826D01*
X320370Y202857D01*
X320973Y202071D01*
X320939Y201859D01*
X320609Y201071D01*
X317092D01*
X316761Y201859D01*
X316727Y202071D01*
X317331Y202857D01*
X317732Y203826D01*
X317739Y203882D01*
X313850D01*
X309961D01*
X309969Y203826D01*
X310370Y202857D01*
X310973Y202071D01*
X310940Y201859D01*
X310609Y201071D01*
X307092D01*
X306761Y201859D01*
X306727Y202071D01*
X307331Y202857D01*
X307732Y203826D01*
X307739Y203882D01*
X303850D01*
X299961D01*
X299969Y203826D01*
X300370Y202857D01*
X300973Y202071D01*
X300939Y201859D01*
X300609Y201071D01*
X297092D01*
X296761Y201859D01*
X296727Y202071D01*
X297331Y202857D01*
X297732Y203826D01*
X297739Y203882D01*
X293850D01*
X289961D01*
X289969Y203826D01*
X290370Y202857D01*
X290973Y202071D01*
X290939Y201859D01*
X290609Y201071D01*
X287092D01*
X286761Y201859D01*
X286727Y202071D01*
X287331Y202857D01*
X287732Y203826D01*
X287739Y203882D01*
X283850D01*
X279961D01*
X279969Y203826D01*
X280370Y202857D01*
X280973Y202071D01*
X280940Y201859D01*
X280609Y201071D01*
X277092D01*
X276761Y201859D01*
X276727Y202071D01*
X277331Y202857D01*
X277732Y203826D01*
X277739Y203882D01*
X273850D01*
X269961D01*
X269969Y203826D01*
X270370Y202857D01*
X270973Y202071D01*
X270939Y201859D01*
X270609Y201071D01*
X267092D01*
X266761Y201859D01*
X266727Y202071D01*
X267331Y202857D01*
X267732Y203826D01*
X267739Y203882D01*
X263850D01*
X259961D01*
X259969Y203826D01*
X260370Y202857D01*
X260973Y202071D01*
X260940Y201859D01*
X260609Y201071D01*
X257092D01*
X256761Y201859D01*
X256727Y202071D01*
X257331Y202857D01*
X257732Y203826D01*
X257739Y203882D01*
X253850D01*
X249961D01*
X249969Y203826D01*
X250370Y202857D01*
X250973Y202071D01*
X250939Y201859D01*
X250609Y201071D01*
X247092D01*
X246761Y201859D01*
X246727Y202071D01*
X247331Y202857D01*
X247732Y203826D01*
X247739Y203882D01*
X243850D01*
X239961D01*
X239969Y203826D01*
X240370Y202857D01*
X240973Y202071D01*
X240939Y201859D01*
X240609Y201071D01*
X237092D01*
X236761Y201859D01*
X236727Y202071D01*
X237331Y202857D01*
X237732Y203826D01*
X237739Y203882D01*
X233850D01*
Y204866D01*
X232866D01*
Y208755D01*
X232810Y208748D01*
X231841Y208346D01*
X231009Y207708D01*
X230370Y206875D01*
X230071Y206153D01*
X229071Y206351D01*
Y213340D01*
X230071Y213539D01*
X230356Y212849D01*
X230998Y212013D01*
X231833Y211372D01*
X232806Y210969D01*
X233850Y210832D01*
X234895Y210969D01*
X235868Y211372D01*
X236703Y212013D01*
X237344Y212849D01*
X237747Y213822D01*
X237885Y214866D01*
X237747Y215910D01*
X237344Y216883D01*
X236703Y217719D01*
X235868Y218360D01*
X234895Y218763D01*
X233850Y218901D01*
X232806Y218763D01*
X231833Y218360D01*
X230998Y217719D01*
X230356Y216883D01*
X230071Y216194D01*
X229071Y216393D01*
Y316630D01*
X398630D01*
Y216393D01*
D02*
G37*
%LPC*%
G36*
X532835Y422864D02*
X531658Y422748D01*
X530527Y422405D01*
X529485Y421848D01*
X528572Y421098D01*
X527822Y420184D01*
X527383Y419363D01*
X526884Y419250D01*
X526785D01*
X526287Y419363D01*
X525848Y420184D01*
X525098Y421098D01*
X524184Y421848D01*
X523142Y422405D01*
X522011Y422748D01*
X520835Y422864D01*
X519658Y422748D01*
X518527Y422405D01*
X517485Y421848D01*
X516572Y421098D01*
X515822Y420184D01*
X515383Y419363D01*
X514884Y419250D01*
X514785D01*
X514287Y419363D01*
X513848Y420184D01*
X513098Y421098D01*
X512184Y421848D01*
X511142Y422405D01*
X510011Y422748D01*
X508835Y422864D01*
X507658Y422748D01*
X506527Y422405D01*
X505485Y421848D01*
X504571Y421098D01*
X503822Y420184D01*
X503383Y419363D01*
X502884Y419250D01*
X502785D01*
X502287Y419363D01*
X501848Y420184D01*
X501098Y421098D01*
X500184Y421848D01*
X499142Y422405D01*
X498011Y422748D01*
X496835Y422864D01*
X495658Y422748D01*
X494527Y422405D01*
X493485Y421848D01*
X492571Y421098D01*
X491822Y420184D01*
X491383Y419363D01*
X490884Y419250D01*
X490785D01*
X490287Y419363D01*
X489848Y420184D01*
X489098Y421098D01*
X488184Y421848D01*
X487142Y422405D01*
X486011Y422748D01*
X484835Y422864D01*
X483658Y422748D01*
X482527Y422405D01*
X481485Y421848D01*
X480572Y421098D01*
X479822Y420184D01*
X479264Y419142D01*
X478922Y418011D01*
X478806Y416835D01*
X478922Y415658D01*
X479264Y414527D01*
X479822Y413485D01*
X480572Y412571D01*
X481485Y411822D01*
X482306Y411383D01*
X482419Y410884D01*
Y410785D01*
X482306Y410287D01*
X481485Y409848D01*
X480572Y409098D01*
X479822Y408184D01*
X479264Y407142D01*
X478922Y406011D01*
X478806Y404835D01*
X478922Y403658D01*
X479264Y402527D01*
X479822Y401485D01*
X480572Y400571D01*
X481485Y399822D01*
X482527Y399265D01*
X483658Y398921D01*
X484835Y398806D01*
X486011Y398921D01*
X487142Y399265D01*
X488184Y399822D01*
X489098Y400571D01*
X489848Y401485D01*
X490287Y402306D01*
X490785Y402419D01*
X490884D01*
X491383Y402306D01*
X491822Y401485D01*
X492571Y400571D01*
X493485Y399822D01*
X494527Y399265D01*
X495658Y398921D01*
X496835Y398806D01*
X498011Y398921D01*
X499142Y399265D01*
X500184Y399822D01*
X501098Y400571D01*
X501848Y401485D01*
X502287Y402306D01*
X502785Y402419D01*
X502884D01*
X503383Y402306D01*
X503822Y401485D01*
X504571Y400571D01*
X505485Y399822D01*
X506527Y399265D01*
X507658Y398921D01*
X508835Y398806D01*
X510011Y398921D01*
X511142Y399265D01*
X511389Y399397D01*
X513393Y397393D01*
X517951Y392835D01*
X511393Y386277D01*
X510951Y385615D01*
X510795Y384835D01*
Y384312D01*
X509982Y383687D01*
X509341Y382852D01*
X508938Y381879D01*
X508800Y380835D01*
X508938Y379790D01*
X509341Y378817D01*
X509982Y377982D01*
X510817Y377341D01*
X511790Y376938D01*
X512835Y376800D01*
X513879Y376938D01*
X514852Y377341D01*
X515688Y377982D01*
X516329Y378817D01*
X516732Y379790D01*
X516869Y380835D01*
X516732Y381879D01*
X516329Y382852D01*
X515688Y383687D01*
X515658Y383710D01*
X515592Y384708D01*
X522277Y391393D01*
X528277Y397393D01*
X530280Y399397D01*
X530527Y399265D01*
X531658Y398921D01*
X532835Y398806D01*
X534011Y398921D01*
X535142Y399265D01*
X536184Y399822D01*
X537098Y400571D01*
X537848Y401485D01*
X538405Y402527D01*
X538748Y403658D01*
X538864Y404835D01*
X538748Y406011D01*
X538405Y407142D01*
X537848Y408184D01*
X537098Y409098D01*
X536184Y409848D01*
X535363Y410287D01*
X535250Y410785D01*
Y410884D01*
X535363Y411383D01*
X536184Y411822D01*
X537098Y412571D01*
X537848Y413485D01*
X538405Y414527D01*
X538748Y415658D01*
X538864Y416835D01*
X538748Y418011D01*
X538405Y419142D01*
X537848Y420184D01*
X537098Y421098D01*
X536184Y421848D01*
X535142Y422405D01*
X534011Y422748D01*
X532835Y422864D01*
D02*
G37*
G36*
X548835Y431860D02*
X432835D01*
X432052Y431757D01*
X431322Y431455D01*
X430695Y430974D01*
X421510Y421789D01*
X420835Y421878D01*
X419529Y421706D01*
X418313Y421202D01*
X417269Y420401D01*
X416467Y419356D01*
X415963Y418140D01*
X415792Y416835D01*
X415963Y415529D01*
X416467Y414313D01*
X417269Y413269D01*
X418313Y412467D01*
X419529Y411963D01*
X420835Y411792D01*
X422140Y411963D01*
X423356Y412467D01*
X424401Y413269D01*
X425202Y414313D01*
X425706Y415529D01*
X425878Y416835D01*
X425789Y417510D01*
X434088Y425809D01*
X547581D01*
X555880Y417510D01*
X555792Y416835D01*
X555963Y415529D01*
X556467Y414313D01*
X557269Y413269D01*
X558313Y412467D01*
X559529Y411963D01*
X560835Y411792D01*
X562140Y411963D01*
X563356Y412467D01*
X564401Y413269D01*
X565202Y414313D01*
X565706Y415529D01*
X565878Y416835D01*
X565706Y418140D01*
X565202Y419356D01*
X564401Y420401D01*
X563356Y421202D01*
X562140Y421706D01*
X560835Y421878D01*
X560160Y421789D01*
X550974Y430974D01*
X550348Y431455D01*
X549618Y431757D01*
X548835Y431860D01*
D02*
G37*
G36*
X546835Y421878D02*
X545529Y421706D01*
X544313Y421202D01*
X543269Y420401D01*
X542467Y419356D01*
X541963Y418140D01*
X541791Y416835D01*
X541963Y415529D01*
X542467Y414313D01*
X543269Y413269D01*
X544313Y412467D01*
X545529Y411963D01*
X546835Y411792D01*
X548140Y411963D01*
X549356Y412467D01*
X550401Y413269D01*
X551202Y414313D01*
X551706Y415529D01*
X551878Y416835D01*
X551706Y418140D01*
X551202Y419356D01*
X550401Y420401D01*
X549356Y421202D01*
X548140Y421706D01*
X546835Y421878D01*
D02*
G37*
G36*
X466724Y413850D02*
X463819D01*
Y410946D01*
X463875Y410953D01*
X464844Y411354D01*
X465676Y411993D01*
X466315Y412825D01*
X466716Y413795D01*
X466724Y413850D01*
D02*
G37*
G36*
X461850D02*
X458946D01*
X458953Y413795D01*
X459354Y412825D01*
X459993Y411993D01*
X460825Y411354D01*
X461795Y410953D01*
X461850Y410946D01*
Y413850D01*
D02*
G37*
G36*
X442835Y418874D02*
X442765Y418860D01*
X441790Y418732D01*
X440817Y418329D01*
X439982Y417688D01*
X439358Y416874D01*
X434835D01*
X434054Y416719D01*
X433393Y416277D01*
X425990Y408874D01*
X416835D01*
X416054Y408719D01*
X415393Y408277D01*
X409393Y402277D01*
X408951Y401615D01*
X408795Y400835D01*
Y366835D01*
X408951Y366054D01*
X409393Y365393D01*
X416163Y358622D01*
X415963Y358140D01*
X415792Y356835D01*
X415963Y355529D01*
X416467Y354313D01*
X417269Y353269D01*
X418313Y352467D01*
X419529Y351963D01*
X420835Y351792D01*
X422140Y351963D01*
X423356Y352467D01*
X424401Y353269D01*
X425202Y354313D01*
X425706Y355529D01*
X425878Y356835D01*
X425706Y358140D01*
X425202Y359356D01*
X424401Y360401D01*
X423356Y361202D01*
X422140Y361706D01*
X420835Y361878D01*
X419529Y361706D01*
X419047Y361506D01*
X412874Y367679D01*
Y399990D01*
X417679Y404796D01*
X426835D01*
X427615Y404951D01*
X428277Y405393D01*
X435679Y412795D01*
X439358D01*
X439982Y411982D01*
X440817Y411341D01*
X441790Y410938D01*
X442835Y410800D01*
X443879Y410938D01*
X444852Y411341D01*
X445687Y411982D01*
X446329Y412817D01*
X446732Y413790D01*
X446869Y414835D01*
X446732Y415879D01*
X446329Y416852D01*
X445687Y417688D01*
X444852Y418329D01*
X443879Y418732D01*
X442904Y418860D01*
X442835Y418874D01*
D02*
G37*
G36*
X561819Y401732D02*
Y397819D01*
X565732D01*
X565691Y398136D01*
X565188Y399348D01*
X564390Y400389D01*
X563348Y401188D01*
X562136Y401691D01*
X561819Y401732D01*
D02*
G37*
G36*
X421819D02*
Y397819D01*
X425732D01*
X425691Y398136D01*
X425188Y399348D01*
X424390Y400389D01*
X423348Y401188D01*
X422136Y401691D01*
X421819Y401732D01*
D02*
G37*
G36*
X559850D02*
X559534Y401691D01*
X558321Y401188D01*
X557280Y400389D01*
X556481Y399348D01*
X555979Y398136D01*
X555937Y397819D01*
X559850D01*
Y401732D01*
D02*
G37*
G36*
X419850D02*
X419533Y401691D01*
X418321Y401188D01*
X417280Y400389D01*
X416481Y399348D01*
X415979Y398136D01*
X415937Y397819D01*
X419850D01*
Y401732D01*
D02*
G37*
G36*
X565732Y395850D02*
X561819D01*
Y391937D01*
X562136Y391979D01*
X563348Y392481D01*
X564390Y393280D01*
X565188Y394321D01*
X565691Y395533D01*
X565732Y395850D01*
D02*
G37*
G36*
X425732D02*
X421819D01*
Y391937D01*
X422136Y391979D01*
X423348Y392481D01*
X424390Y393280D01*
X425188Y394321D01*
X425691Y395533D01*
X425732Y395850D01*
D02*
G37*
G36*
X559850D02*
X555937D01*
X555979Y395533D01*
X556481Y394321D01*
X557280Y393280D01*
X558321Y392481D01*
X559534Y391979D01*
X559850Y391937D01*
Y395850D01*
D02*
G37*
G36*
X419850D02*
X415937D01*
X415979Y395533D01*
X416481Y394321D01*
X417280Y393280D01*
X418321Y392481D01*
X419533Y391979D01*
X419850Y391937D01*
Y395850D01*
D02*
G37*
G36*
X540835Y397878D02*
X539529Y397706D01*
X538313Y397202D01*
X537269Y396401D01*
X536467Y395356D01*
X536267Y394874D01*
X530835D01*
X530054Y394719D01*
X529393Y394277D01*
X521393Y386277D01*
X520951Y385615D01*
X520795Y384835D01*
Y384312D01*
X519982Y383687D01*
X519341Y382852D01*
X518938Y381879D01*
X518800Y380835D01*
X518938Y379790D01*
X519341Y378817D01*
X519982Y377982D01*
X520817Y377341D01*
X521790Y376938D01*
X522835Y376800D01*
X523879Y376938D01*
X524852Y377341D01*
X525688Y377982D01*
X526329Y378817D01*
X526732Y379790D01*
X526869Y380835D01*
X526732Y381879D01*
X526329Y382852D01*
X525688Y383687D01*
X525658Y383710D01*
X525592Y384708D01*
X531679Y390795D01*
X536267D01*
X536467Y390313D01*
X537269Y389269D01*
X538313Y388467D01*
X539529Y387963D01*
X540835Y387791D01*
X542140Y387963D01*
X543356Y388467D01*
X544401Y389269D01*
X545202Y390313D01*
X545706Y391529D01*
X545878Y392835D01*
X545706Y394140D01*
X545202Y395356D01*
X544401Y396401D01*
X543356Y397202D01*
X542140Y397706D01*
X540835Y397878D01*
D02*
G37*
G36*
X502835D02*
X501529Y397706D01*
X500313Y397202D01*
X499269Y396401D01*
X498467Y395356D01*
X497963Y394140D01*
X497791Y392835D01*
X497963Y391529D01*
X498467Y390313D01*
X498885Y389769D01*
X493852Y384735D01*
X492835Y384869D01*
X491790Y384732D01*
X490817Y384329D01*
X489982Y383687D01*
X489341Y382852D01*
X488938Y381879D01*
X488800Y380835D01*
X488938Y379790D01*
X489341Y378817D01*
X489982Y377982D01*
X490817Y377341D01*
X491790Y376938D01*
X492835Y376800D01*
X493879Y376938D01*
X494852Y377341D01*
X495687Y377982D01*
X496329Y378817D01*
X496732Y379790D01*
X496860Y380765D01*
X496874Y380835D01*
Y381990D01*
X502694Y387810D01*
X502835Y387791D01*
X504140Y387963D01*
X505356Y388467D01*
X506401Y389269D01*
X507202Y390313D01*
X507706Y391529D01*
X507878Y392835D01*
X507706Y394140D01*
X507202Y395356D01*
X506401Y396401D01*
X505356Y397202D01*
X504140Y397706D01*
X502835Y397878D01*
D02*
G37*
G36*
X468835Y422874D02*
X456835D01*
X456054Y422719D01*
X455393Y422277D01*
X451857Y418740D01*
X451790Y418732D01*
X450817Y418329D01*
X449982Y417688D01*
X449341Y416852D01*
X448938Y415879D01*
X448800Y414835D01*
X448938Y413790D01*
X449341Y412817D01*
X449982Y411982D01*
X450817Y411341D01*
X451790Y410938D01*
X452835Y410800D01*
X453879Y410938D01*
X454852Y411341D01*
X455688Y411982D01*
X456329Y412817D01*
X456732Y413790D01*
X456869Y414835D01*
X456732Y415879D01*
X456329Y416852D01*
X456071Y417187D01*
X457679Y418795D01*
X459809D01*
X460148Y417796D01*
X459993Y417676D01*
X459354Y416844D01*
X458953Y415875D01*
X458946Y415819D01*
X466724D01*
X466716Y415875D01*
X466315Y416844D01*
X465676Y417676D01*
X465521Y417796D01*
X465860Y418795D01*
X467990D01*
X470795Y415990D01*
Y392835D01*
Y384312D01*
X469982Y383687D01*
X469341Y382852D01*
X468938Y381879D01*
X468800Y380835D01*
X468938Y379790D01*
X469341Y378817D01*
X469982Y377982D01*
X470817Y377341D01*
X471790Y376938D01*
X472835Y376800D01*
X473879Y376938D01*
X474852Y377341D01*
X475688Y377982D01*
X476329Y378817D01*
X476732Y379790D01*
X476869Y380835D01*
X476732Y381879D01*
X476329Y382852D01*
X475688Y383687D01*
X474874Y384312D01*
Y390795D01*
X486267D01*
X486467Y390313D01*
X487269Y389269D01*
X488313Y388467D01*
X489529Y387963D01*
X490835Y387791D01*
X492140Y387963D01*
X493356Y388467D01*
X494401Y389269D01*
X495202Y390313D01*
X495706Y391529D01*
X495878Y392835D01*
X495706Y394140D01*
X495202Y395356D01*
X494401Y396401D01*
X493356Y397202D01*
X492140Y397706D01*
X490835Y397878D01*
X489529Y397706D01*
X488313Y397202D01*
X487269Y396401D01*
X486467Y395356D01*
X486267Y394874D01*
X474874D01*
Y416835D01*
X474719Y417615D01*
X474277Y418277D01*
X470277Y422277D01*
X469615Y422719D01*
X468835Y422874D01*
D02*
G37*
G36*
X561819Y381732D02*
Y377819D01*
X565732D01*
X565691Y378136D01*
X565188Y379348D01*
X564390Y380389D01*
X563348Y381188D01*
X562136Y381691D01*
X561819Y381732D01*
D02*
G37*
G36*
X421819D02*
Y377819D01*
X425732D01*
X425691Y378136D01*
X425188Y379348D01*
X424390Y380389D01*
X423348Y381188D01*
X422136Y381691D01*
X421819Y381732D01*
D02*
G37*
G36*
X559850D02*
X559534Y381691D01*
X558321Y381188D01*
X557280Y380389D01*
X556481Y379348D01*
X555979Y378136D01*
X555937Y377819D01*
X559850D01*
Y381732D01*
D02*
G37*
G36*
X419850D02*
X419533Y381691D01*
X418321Y381188D01*
X417280Y380389D01*
X416481Y379348D01*
X415979Y378136D01*
X415937Y377819D01*
X419850D01*
Y381732D01*
D02*
G37*
G36*
X482835Y384869D02*
X481790Y384732D01*
X480817Y384329D01*
X479982Y383687D01*
X479341Y382852D01*
X478938Y381879D01*
X478800Y380835D01*
X478938Y379790D01*
X479341Y378817D01*
X479982Y377982D01*
X480817Y377341D01*
X481790Y376938D01*
X482835Y376800D01*
X483879Y376938D01*
X484852Y377341D01*
X485687Y377982D01*
X486329Y378817D01*
X486732Y379790D01*
X486869Y380835D01*
X486732Y381879D01*
X486329Y382852D01*
X485687Y383687D01*
X484852Y384329D01*
X483879Y384732D01*
X482835Y384869D01*
D02*
G37*
G36*
X565732Y375850D02*
X561819D01*
Y371937D01*
X562136Y371979D01*
X563348Y372481D01*
X564390Y373280D01*
X565188Y374321D01*
X565691Y375534D01*
X565732Y375850D01*
D02*
G37*
G36*
X425732D02*
X421819D01*
Y371937D01*
X422136Y371979D01*
X423348Y372481D01*
X424390Y373280D01*
X425188Y374321D01*
X425691Y375534D01*
X425732Y375850D01*
D02*
G37*
G36*
X559850D02*
X555937D01*
X555979Y375534D01*
X556481Y374321D01*
X557280Y373280D01*
X558321Y372481D01*
X559534Y371979D01*
X559850Y371937D01*
Y375850D01*
D02*
G37*
G36*
X419850D02*
X415937D01*
X415979Y375534D01*
X416481Y374321D01*
X417280Y373280D01*
X418321Y372481D01*
X419533Y371979D01*
X419850Y371937D01*
Y375850D01*
D02*
G37*
G36*
X462835Y408869D02*
X461790Y408732D01*
X460817Y408329D01*
X459982Y407688D01*
X459341Y406852D01*
X458938Y405879D01*
X458800Y404835D01*
X458938Y403790D01*
X459341Y402817D01*
X459982Y401982D01*
X460795Y401358D01*
Y376835D01*
X460951Y376054D01*
X461393Y375393D01*
X469393Y367393D01*
X470054Y366951D01*
X470835Y366795D01*
X496835D01*
X497615Y366951D01*
X498277Y367393D01*
X504277Y373393D01*
X504719Y374054D01*
X504874Y374835D01*
Y377358D01*
X505688Y377982D01*
X506329Y378817D01*
X506732Y379790D01*
X506869Y380835D01*
X506732Y381879D01*
X506329Y382852D01*
X505688Y383687D01*
X504852Y384329D01*
X503879Y384732D01*
X502835Y384869D01*
X501790Y384732D01*
X500817Y384329D01*
X499982Y383687D01*
X499341Y382852D01*
X498938Y381879D01*
X498800Y380835D01*
X498938Y379790D01*
X499341Y378817D01*
X499982Y377982D01*
X500796Y377358D01*
Y375679D01*
X495990Y370874D01*
X471679D01*
X464874Y377679D01*
Y401358D01*
X465688Y401982D01*
X466329Y402817D01*
X466732Y403790D01*
X466869Y404835D01*
X466732Y405879D01*
X466329Y406852D01*
X465688Y407688D01*
X464852Y408329D01*
X463879Y408732D01*
X462835Y408869D01*
D02*
G37*
G36*
X547819Y360724D02*
Y357819D01*
X550724D01*
X550716Y357875D01*
X550315Y358844D01*
X549676Y359676D01*
X548844Y360315D01*
X547875Y360716D01*
X547819Y360724D01*
D02*
G37*
G36*
X545850D02*
X545794Y360716D01*
X544825Y360315D01*
X543993Y359676D01*
X543354Y358844D01*
X542953Y357875D01*
X542946Y357819D01*
X545850D01*
Y360724D01*
D02*
G37*
G36*
X550724Y355850D02*
X547819D01*
Y352946D01*
X547875Y352953D01*
X548844Y353354D01*
X549676Y353993D01*
X550315Y354825D01*
X550716Y355795D01*
X550724Y355850D01*
D02*
G37*
G36*
X545850D02*
X542946D01*
X542953Y355795D01*
X543354Y354825D01*
X543993Y353993D01*
X544825Y353354D01*
X545794Y352953D01*
X545850Y352946D01*
Y355850D01*
D02*
G37*
G36*
X533819Y354724D02*
Y351819D01*
X536724D01*
X536716Y351875D01*
X536315Y352844D01*
X535676Y353676D01*
X534844Y354315D01*
X533875Y354716D01*
X533819Y354724D01*
D02*
G37*
G36*
X531850D02*
X531795Y354716D01*
X530825Y354315D01*
X529993Y353676D01*
X529354Y352844D01*
X528953Y351875D01*
X528946Y351819D01*
X531850D01*
Y354724D01*
D02*
G37*
G36*
X536835Y384835D02*
X528835D01*
Y376835D01*
X536835D01*
Y378796D01*
X541990D01*
X542934Y377852D01*
X542800Y376835D01*
X542938Y375790D01*
X543341Y374817D01*
X543982Y373982D01*
X544817Y373341D01*
X545790Y372938D01*
X546835Y372800D01*
X547852Y372934D01*
X558460Y362326D01*
X558315Y361213D01*
X558303Y361194D01*
X557269Y360401D01*
X556467Y359356D01*
X555963Y358140D01*
X555792Y356835D01*
X555963Y355529D01*
X556467Y354313D01*
X557269Y353269D01*
X558313Y352467D01*
X559529Y351963D01*
X560835Y351792D01*
X562140Y351963D01*
X563356Y352467D01*
X564401Y353269D01*
X565202Y354313D01*
X565706Y355529D01*
X565878Y356835D01*
X565706Y358140D01*
X565202Y359356D01*
X564401Y360401D01*
X563356Y361202D01*
X562874Y361402D01*
Y362835D01*
X562719Y363615D01*
X562277Y364277D01*
X550735Y375818D01*
X550869Y376835D01*
X550732Y377879D01*
X550329Y378852D01*
X549687Y379688D01*
X548852Y380329D01*
X547879Y380732D01*
X546835Y380869D01*
X545818Y380735D01*
X544277Y382277D01*
X543615Y382719D01*
X542835Y382874D01*
X536835D01*
Y384835D01*
D02*
G37*
G36*
X536724Y349850D02*
X533819D01*
Y346946D01*
X533875Y346953D01*
X534844Y347354D01*
X535676Y347993D01*
X536315Y348825D01*
X536716Y349795D01*
X536724Y349850D01*
D02*
G37*
G36*
X531850D02*
X528946D01*
X528953Y349795D01*
X529354Y348825D01*
X529993Y347993D01*
X530825Y347354D01*
X531795Y346953D01*
X531850Y346946D01*
Y349850D01*
D02*
G37*
G36*
X452835Y408874D02*
X452765Y408860D01*
X451790Y408732D01*
X450817Y408329D01*
X449982Y407688D01*
X449341Y406852D01*
X448938Y405879D01*
X448800Y404835D01*
X448938Y403790D01*
X449341Y402817D01*
X449982Y401982D01*
X450796Y401358D01*
Y363402D01*
X450313Y363202D01*
X449269Y362401D01*
X448467Y361356D01*
X447963Y360140D01*
X447791Y358835D01*
X447963Y357529D01*
X448467Y356313D01*
X449269Y355269D01*
X450313Y354467D01*
X451529Y353963D01*
X452835Y353791D01*
X454140Y353963D01*
X455356Y354467D01*
X456401Y355269D01*
X457202Y356313D01*
X457402Y356796D01*
X479990D01*
X480795Y355990D01*
Y354312D01*
X479982Y353688D01*
X479341Y352852D01*
X478938Y351879D01*
X478800Y350835D01*
X478938Y349790D01*
X479341Y348817D01*
X479982Y347982D01*
X480817Y347341D01*
X481790Y346938D01*
X482835Y346800D01*
X483879Y346938D01*
X484852Y347341D01*
X485687Y347982D01*
X486329Y348817D01*
X486732Y349790D01*
X486869Y350835D01*
X486732Y351879D01*
X486329Y352852D01*
X485687Y353688D01*
X484874Y354312D01*
Y356835D01*
X484719Y357615D01*
X484277Y358277D01*
X482277Y360277D01*
X481615Y360719D01*
X480835Y360874D01*
X457402D01*
X457202Y361356D01*
X456401Y362401D01*
X455356Y363202D01*
X454874Y363402D01*
Y401358D01*
X455688Y401982D01*
X456329Y402817D01*
X456732Y403790D01*
X456869Y404835D01*
X456732Y405879D01*
X456329Y406852D01*
X455688Y407688D01*
X454852Y408329D01*
X453879Y408732D01*
X452904Y408860D01*
X452835Y408874D01*
D02*
G37*
G36*
X522835Y354869D02*
X521790Y354732D01*
X520817Y354329D01*
X519982Y353688D01*
X519341Y352852D01*
X518938Y351879D01*
X518800Y350835D01*
X518938Y349790D01*
X519341Y348817D01*
X519982Y347982D01*
X520795Y347358D01*
Y345657D01*
X520951Y344877D01*
X521393Y344216D01*
X524216Y341393D01*
X524877Y340951D01*
X525658Y340795D01*
X539356D01*
X540137Y340951D01*
X540798Y341393D01*
X541569Y342163D01*
X542051Y341963D01*
X543356Y341792D01*
X544662Y341963D01*
X545878Y342467D01*
X546922Y343269D01*
X547724Y344313D01*
X548228Y345529D01*
X548399Y346835D01*
X548228Y348140D01*
X547724Y349356D01*
X546922Y350401D01*
X545878Y351202D01*
X544662Y351706D01*
X543356Y351878D01*
X542051Y351706D01*
X540835Y351202D01*
X539790Y350401D01*
X538989Y349356D01*
X538485Y348140D01*
X538313Y346835D01*
X538440Y345874D01*
X537929Y345080D01*
X537674Y344874D01*
X526502D01*
X524954Y346422D01*
X524996Y347451D01*
X525688Y347982D01*
X526329Y348817D01*
X526732Y349790D01*
X526869Y350835D01*
X526732Y351879D01*
X526329Y352852D01*
X525688Y353688D01*
X524852Y354329D01*
X523879Y354732D01*
X522835Y354869D01*
D02*
G37*
G36*
X556835Y337885D02*
X555790Y337747D01*
X554817Y337344D01*
X553982Y336703D01*
X553341Y335868D01*
X552938Y334895D01*
X552800Y333850D01*
X552938Y332806D01*
X553341Y331833D01*
X553982Y330998D01*
X554817Y330356D01*
X555790Y329953D01*
X556835Y329816D01*
X557879Y329953D01*
X558852Y330356D01*
X559688Y330998D01*
X560329Y331833D01*
X560732Y332806D01*
X560869Y333850D01*
X560732Y334895D01*
X560329Y335868D01*
X559688Y336703D01*
X558852Y337344D01*
X557879Y337747D01*
X556835Y337885D01*
D02*
G37*
G36*
X546835D02*
X545790Y337747D01*
X544817Y337344D01*
X543982Y336703D01*
X543341Y335868D01*
X542938Y334895D01*
X542800Y333850D01*
X542938Y332806D01*
X543341Y331833D01*
X543982Y330998D01*
X544817Y330356D01*
X545790Y329953D01*
X546835Y329816D01*
X547879Y329953D01*
X548852Y330356D01*
X549687Y330998D01*
X550329Y331833D01*
X550732Y332806D01*
X550869Y333850D01*
X550732Y334895D01*
X550329Y335868D01*
X549687Y336703D01*
X548852Y337344D01*
X547879Y337747D01*
X546835Y337885D01*
D02*
G37*
G36*
X536835D02*
X535790Y337747D01*
X534817Y337344D01*
X533982Y336703D01*
X533341Y335868D01*
X532938Y334895D01*
X532800Y333850D01*
X532938Y332806D01*
X533341Y331833D01*
X533982Y330998D01*
X534817Y330356D01*
X535790Y329953D01*
X536835Y329816D01*
X537879Y329953D01*
X538852Y330356D01*
X539687Y330998D01*
X540329Y331833D01*
X540732Y332806D01*
X540869Y333850D01*
X540732Y334895D01*
X540329Y335868D01*
X539687Y336703D01*
X538852Y337344D01*
X537879Y337747D01*
X536835Y337885D01*
D02*
G37*
G36*
X526835D02*
X525790Y337747D01*
X524817Y337344D01*
X523982Y336703D01*
X523341Y335868D01*
X522938Y334895D01*
X522800Y333850D01*
X522938Y332806D01*
X523341Y331833D01*
X523982Y330998D01*
X524817Y330356D01*
X525790Y329953D01*
X526835Y329816D01*
X527879Y329953D01*
X528852Y330356D01*
X529688Y330998D01*
X530329Y331833D01*
X530732Y332806D01*
X530869Y333850D01*
X530732Y334895D01*
X530329Y335868D01*
X529688Y336703D01*
X528852Y337344D01*
X527879Y337747D01*
X526835Y337885D01*
D02*
G37*
G36*
X512835Y354869D02*
X511790Y354732D01*
X510817Y354329D01*
X509982Y353688D01*
X509341Y352852D01*
X508938Y351879D01*
X508800Y350835D01*
X508938Y349790D01*
X509341Y348817D01*
X509982Y347982D01*
X510795Y347358D01*
Y344835D01*
X510951Y344054D01*
X511393Y343393D01*
X514795Y339990D01*
Y337328D01*
X513982Y336703D01*
X513341Y335868D01*
X512938Y334895D01*
X512800Y333850D01*
X512938Y332806D01*
X513341Y331833D01*
X513982Y330998D01*
X514817Y330356D01*
X515790Y329953D01*
X516835Y329816D01*
X517879Y329953D01*
X518852Y330356D01*
X519688Y330998D01*
X520329Y331833D01*
X520732Y332806D01*
X520869Y333850D01*
X520732Y334895D01*
X520329Y335868D01*
X519688Y336703D01*
X518874Y337328D01*
Y340835D01*
X518719Y341615D01*
X518277Y342277D01*
X514874Y345679D01*
Y347358D01*
X515688Y347982D01*
X516329Y348817D01*
X516732Y349790D01*
X516869Y350835D01*
X516732Y351879D01*
X516329Y352852D01*
X515688Y353688D01*
X514852Y354329D01*
X513879Y354732D01*
X512835Y354869D01*
D02*
G37*
G36*
X506835Y337885D02*
X505790Y337747D01*
X504817Y337344D01*
X503982Y336703D01*
X503341Y335868D01*
X502938Y334895D01*
X502800Y333850D01*
X502938Y332806D01*
X503341Y331833D01*
X503982Y330998D01*
X504817Y330356D01*
X505790Y329953D01*
X506835Y329816D01*
X507879Y329953D01*
X508852Y330356D01*
X509688Y330998D01*
X510329Y331833D01*
X510732Y332806D01*
X510869Y333850D01*
X510732Y334895D01*
X510329Y335868D01*
X509688Y336703D01*
X508852Y337344D01*
X507879Y337747D01*
X506835Y337885D01*
D02*
G37*
G36*
X502835Y354869D02*
X501790Y354732D01*
X500817Y354329D01*
X499982Y353688D01*
X499341Y352852D01*
X498938Y351879D01*
X498800Y350835D01*
X498938Y349790D01*
X499341Y348817D01*
X499982Y347982D01*
X500012Y347959D01*
X500077Y346961D01*
X495393Y342277D01*
X494951Y341615D01*
X494796Y340835D01*
Y337328D01*
X493982Y336703D01*
X493341Y335868D01*
X492938Y334895D01*
X492800Y333850D01*
X492938Y332806D01*
X493341Y331833D01*
X493982Y330998D01*
X494817Y330356D01*
X495790Y329953D01*
X496835Y329816D01*
X497879Y329953D01*
X498852Y330356D01*
X499687Y330998D01*
X500329Y331833D01*
X500732Y332806D01*
X500869Y333850D01*
X500732Y334895D01*
X500329Y335868D01*
X499687Y336703D01*
X498874Y337328D01*
Y339990D01*
X504277Y345393D01*
X504719Y346054D01*
X504874Y346835D01*
Y347358D01*
X505688Y347982D01*
X506329Y348817D01*
X506732Y349790D01*
X506869Y350835D01*
X506732Y351879D01*
X506329Y352852D01*
X505688Y353688D01*
X504852Y354329D01*
X503879Y354732D01*
X502835Y354869D01*
D02*
G37*
G36*
X492835D02*
X491790Y354732D01*
X490817Y354329D01*
X489982Y353688D01*
X489341Y352852D01*
X488938Y351879D01*
X488800Y350835D01*
X488938Y349790D01*
X489341Y348817D01*
X489982Y347982D01*
X490012Y347959D01*
X490077Y346961D01*
X485393Y342277D01*
X484951Y341615D01*
X484796Y340835D01*
Y337328D01*
X483982Y336703D01*
X483341Y335868D01*
X482938Y334895D01*
X482800Y333850D01*
X482938Y332806D01*
X483341Y331833D01*
X483982Y330998D01*
X484817Y330356D01*
X485790Y329953D01*
X486835Y329816D01*
X487879Y329953D01*
X488852Y330356D01*
X489687Y330998D01*
X490329Y331833D01*
X490732Y332806D01*
X490869Y333850D01*
X490732Y334895D01*
X490329Y335868D01*
X489687Y336703D01*
X488874Y337328D01*
Y339990D01*
X494277Y345393D01*
X494719Y346054D01*
X494874Y346835D01*
Y347358D01*
X495687Y347982D01*
X496329Y348817D01*
X496732Y349790D01*
X496869Y350835D01*
X496732Y351879D01*
X496329Y352852D01*
X495687Y353688D01*
X494852Y354329D01*
X493879Y354732D01*
X492835Y354869D01*
D02*
G37*
G36*
X442835Y408874D02*
X442638Y408835D01*
X438835D01*
Y400835D01*
X440796D01*
Y352835D01*
X440951Y352054D01*
X441393Y351393D01*
X449393Y343393D01*
X450054Y342951D01*
X450835Y342795D01*
X471990D01*
X474795Y339990D01*
Y337328D01*
X473982Y336703D01*
X473341Y335868D01*
X472938Y334895D01*
X472800Y333850D01*
X472938Y332806D01*
X473341Y331833D01*
X473982Y330998D01*
X474817Y330356D01*
X475790Y329953D01*
X476835Y329816D01*
X477879Y329953D01*
X478852Y330356D01*
X479688Y330998D01*
X480329Y331833D01*
X480732Y332806D01*
X480869Y333850D01*
X480732Y334895D01*
X480329Y335868D01*
X479688Y336703D01*
X478874Y337328D01*
Y340835D01*
X478719Y341615D01*
X478277Y342277D01*
X474874Y345679D01*
Y347358D01*
X475688Y347982D01*
X476329Y348817D01*
X476732Y349790D01*
X476869Y350835D01*
X476732Y351879D01*
X476329Y352852D01*
X475688Y353688D01*
X474852Y354329D01*
X473879Y354732D01*
X472835Y354869D01*
X471790Y354732D01*
X470817Y354329D01*
X469982Y353688D01*
X469341Y352852D01*
X468938Y351879D01*
X468800Y350835D01*
X468938Y349790D01*
X469341Y348817D01*
X469982Y347982D01*
X470122Y347874D01*
X469783Y346874D01*
X451679D01*
X444874Y353679D01*
Y400835D01*
X446835D01*
Y408835D01*
X443032D01*
X442835Y408874D01*
D02*
G37*
G36*
X466835Y337885D02*
X465790Y337747D01*
X464817Y337344D01*
X463982Y336703D01*
X463341Y335868D01*
X462938Y334895D01*
X462800Y333850D01*
X462938Y332806D01*
X463341Y331833D01*
X463982Y330998D01*
X464817Y330356D01*
X465790Y329953D01*
X466835Y329816D01*
X467879Y329953D01*
X468852Y330356D01*
X469688Y330998D01*
X470329Y331833D01*
X470732Y332806D01*
X470869Y333850D01*
X470732Y334895D01*
X470329Y335868D01*
X469688Y336703D01*
X468852Y337344D01*
X467879Y337747D01*
X466835Y337885D01*
D02*
G37*
G36*
X456835D02*
X455790Y337747D01*
X454817Y337344D01*
X453982Y336703D01*
X453341Y335868D01*
X452938Y334895D01*
X452800Y333850D01*
X452938Y332806D01*
X453341Y331833D01*
X453982Y330998D01*
X454817Y330356D01*
X455790Y329953D01*
X456835Y329816D01*
X457879Y329953D01*
X458852Y330356D01*
X459688Y330998D01*
X460329Y331833D01*
X460732Y332806D01*
X460869Y333850D01*
X460732Y334895D01*
X460329Y335868D01*
X459688Y336703D01*
X458852Y337344D01*
X457879Y337747D01*
X456835Y337885D01*
D02*
G37*
G36*
X446835D02*
X445790Y337747D01*
X444817Y337344D01*
X443982Y336703D01*
X443341Y335868D01*
X442938Y334895D01*
X442800Y333850D01*
X442938Y332806D01*
X443341Y331833D01*
X443982Y330998D01*
X444817Y330356D01*
X445790Y329953D01*
X446835Y329816D01*
X447879Y329953D01*
X448852Y330356D01*
X449687Y330998D01*
X450329Y331833D01*
X450732Y332806D01*
X450869Y333850D01*
X450732Y334895D01*
X450329Y335868D01*
X449687Y336703D01*
X448852Y337344D01*
X447879Y337747D01*
X446835Y337885D01*
D02*
G37*
G36*
X436835D02*
X435790Y337747D01*
X434817Y337344D01*
X433982Y336703D01*
X433341Y335868D01*
X432938Y334895D01*
X432800Y333850D01*
X432938Y332806D01*
X433341Y331833D01*
X433982Y330998D01*
X434817Y330356D01*
X435790Y329953D01*
X436835Y329816D01*
X437879Y329953D01*
X438852Y330356D01*
X439687Y330998D01*
X440329Y331833D01*
X440732Y332806D01*
X440869Y333850D01*
X440732Y334895D01*
X440329Y335868D01*
X439687Y336703D01*
X438852Y337344D01*
X437879Y337747D01*
X436835Y337885D01*
D02*
G37*
G36*
X426835D02*
X425790Y337747D01*
X424817Y337344D01*
X423982Y336703D01*
X423341Y335868D01*
X422938Y334895D01*
X422800Y333850D01*
X422938Y332806D01*
X423341Y331833D01*
X423982Y330998D01*
X424817Y330356D01*
X425790Y329953D01*
X426835Y329816D01*
X427879Y329953D01*
X428852Y330356D01*
X429688Y330998D01*
X430329Y331833D01*
X430732Y332806D01*
X430869Y333850D01*
X430732Y334895D01*
X430329Y335868D01*
X429688Y336703D01*
X428852Y337344D01*
X427879Y337747D01*
X426835Y337885D01*
D02*
G37*
G36*
X416835D02*
X415790Y337747D01*
X414817Y337344D01*
X413982Y336703D01*
X413341Y335868D01*
X412938Y334895D01*
X412800Y333850D01*
X412938Y332806D01*
X413341Y331833D01*
X413982Y330998D01*
X414817Y330356D01*
X415790Y329953D01*
X416835Y329816D01*
X417879Y329953D01*
X418852Y330356D01*
X419688Y330998D01*
X420329Y331833D01*
X420732Y332806D01*
X420869Y333850D01*
X420732Y334895D01*
X420329Y335868D01*
X419688Y336703D01*
X418852Y337344D01*
X417879Y337747D01*
X416835Y337885D01*
D02*
G37*
G36*
X557819Y327739D02*
Y324835D01*
X560724D01*
X560716Y324890D01*
X560315Y325860D01*
X559676Y326692D01*
X558844Y327331D01*
X557875Y327732D01*
X557819Y327739D01*
D02*
G37*
G36*
X547819D02*
Y324835D01*
X550724D01*
X550716Y324890D01*
X550315Y325860D01*
X549676Y326692D01*
X548844Y327331D01*
X547875Y327732D01*
X547819Y327739D01*
D02*
G37*
G36*
X537819D02*
Y324835D01*
X540724D01*
X540716Y324890D01*
X540315Y325860D01*
X539676Y326692D01*
X538844Y327331D01*
X537875Y327732D01*
X537819Y327739D01*
D02*
G37*
G36*
X527819D02*
Y324835D01*
X530724D01*
X530716Y324890D01*
X530315Y325860D01*
X529676Y326692D01*
X528844Y327331D01*
X527875Y327732D01*
X527819Y327739D01*
D02*
G37*
G36*
X517819D02*
Y324835D01*
X520724D01*
X520716Y324890D01*
X520315Y325860D01*
X519676Y326692D01*
X518844Y327331D01*
X517875Y327732D01*
X517819Y327739D01*
D02*
G37*
G36*
X507819D02*
Y324835D01*
X510724D01*
X510716Y324890D01*
X510315Y325860D01*
X509676Y326692D01*
X508844Y327331D01*
X507875Y327732D01*
X507819Y327739D01*
D02*
G37*
G36*
X497819D02*
Y324835D01*
X500724D01*
X500716Y324890D01*
X500315Y325860D01*
X499676Y326692D01*
X498844Y327331D01*
X497875Y327732D01*
X497819Y327739D01*
D02*
G37*
G36*
X487819D02*
Y324835D01*
X490724D01*
X490716Y324890D01*
X490315Y325860D01*
X489676Y326692D01*
X488844Y327331D01*
X487875Y327732D01*
X487819Y327739D01*
D02*
G37*
G36*
X477819D02*
Y324835D01*
X480724D01*
X480716Y324890D01*
X480315Y325860D01*
X479676Y326692D01*
X478844Y327331D01*
X477875Y327732D01*
X477819Y327739D01*
D02*
G37*
G36*
X467819D02*
Y324835D01*
X470724D01*
X470716Y324890D01*
X470315Y325860D01*
X469676Y326692D01*
X468844Y327331D01*
X467875Y327732D01*
X467819Y327739D01*
D02*
G37*
G36*
X457819D02*
Y324835D01*
X460724D01*
X460716Y324890D01*
X460315Y325860D01*
X459676Y326692D01*
X458844Y327331D01*
X457875Y327732D01*
X457819Y327739D01*
D02*
G37*
G36*
X447819D02*
Y324835D01*
X450724D01*
X450716Y324890D01*
X450315Y325860D01*
X449676Y326692D01*
X448844Y327331D01*
X447875Y327732D01*
X447819Y327739D01*
D02*
G37*
G36*
X437819D02*
Y324835D01*
X440724D01*
X440716Y324890D01*
X440315Y325860D01*
X439676Y326692D01*
X438844Y327331D01*
X437875Y327732D01*
X437819Y327739D01*
D02*
G37*
G36*
X427819D02*
Y324835D01*
X430724D01*
X430716Y324890D01*
X430315Y325860D01*
X429676Y326692D01*
X428844Y327331D01*
X427875Y327732D01*
X427819Y327739D01*
D02*
G37*
G36*
X417819D02*
Y324835D01*
X420724D01*
X420716Y324890D01*
X420315Y325860D01*
X419676Y326692D01*
X418844Y327331D01*
X417875Y327732D01*
X417819Y327739D01*
D02*
G37*
G36*
X407819D02*
Y324835D01*
X410724D01*
X410716Y324890D01*
X410315Y325860D01*
X409676Y326692D01*
X408844Y327331D01*
X407875Y327732D01*
X407819Y327739D01*
D02*
G37*
G36*
X555850D02*
X555794Y327732D01*
X554825Y327331D01*
X553993Y326692D01*
X553354Y325860D01*
X552953Y324890D01*
X552946Y324835D01*
X555850D01*
Y327739D01*
D02*
G37*
G36*
X545850D02*
X545794Y327732D01*
X544825Y327331D01*
X543993Y326692D01*
X543354Y325860D01*
X542953Y324890D01*
X542946Y324835D01*
X545850D01*
Y327739D01*
D02*
G37*
G36*
X535850D02*
X535794Y327732D01*
X534825Y327331D01*
X533993Y326692D01*
X533354Y325860D01*
X532953Y324890D01*
X532946Y324835D01*
X535850D01*
Y327739D01*
D02*
G37*
G36*
X525850D02*
X525795Y327732D01*
X524825Y327331D01*
X523993Y326692D01*
X523354Y325860D01*
X522953Y324890D01*
X522946Y324835D01*
X525850D01*
Y327739D01*
D02*
G37*
G36*
X515850D02*
X515795Y327732D01*
X514825Y327331D01*
X513993Y326692D01*
X513354Y325860D01*
X512953Y324890D01*
X512946Y324835D01*
X515850D01*
Y327739D01*
D02*
G37*
G36*
X505850D02*
X505794Y327732D01*
X504825Y327331D01*
X503993Y326692D01*
X503354Y325860D01*
X502953Y324890D01*
X502946Y324835D01*
X505850D01*
Y327739D01*
D02*
G37*
G36*
X495850D02*
X495794Y327732D01*
X494825Y327331D01*
X493993Y326692D01*
X493354Y325860D01*
X492953Y324890D01*
X492946Y324835D01*
X495850D01*
Y327739D01*
D02*
G37*
G36*
X485850D02*
X485794Y327732D01*
X484825Y327331D01*
X483993Y326692D01*
X483354Y325860D01*
X482953Y324890D01*
X482946Y324835D01*
X485850D01*
Y327739D01*
D02*
G37*
G36*
X475850D02*
X475795Y327732D01*
X474825Y327331D01*
X473993Y326692D01*
X473354Y325860D01*
X472953Y324890D01*
X472946Y324835D01*
X475850D01*
Y327739D01*
D02*
G37*
G36*
X465850D02*
X465795Y327732D01*
X464825Y327331D01*
X463993Y326692D01*
X463354Y325860D01*
X462953Y324890D01*
X462946Y324835D01*
X465850D01*
Y327739D01*
D02*
G37*
G36*
X455850D02*
X455794Y327732D01*
X454825Y327331D01*
X453993Y326692D01*
X453354Y325860D01*
X452953Y324890D01*
X452946Y324835D01*
X455850D01*
Y327739D01*
D02*
G37*
G36*
X445850D02*
X445794Y327732D01*
X444825Y327331D01*
X443993Y326692D01*
X443354Y325860D01*
X442953Y324890D01*
X442946Y324835D01*
X445850D01*
Y327739D01*
D02*
G37*
G36*
X435850D02*
X435794Y327732D01*
X434825Y327331D01*
X433993Y326692D01*
X433354Y325860D01*
X432953Y324890D01*
X432946Y324835D01*
X435850D01*
Y327739D01*
D02*
G37*
G36*
X425850D02*
X425795Y327732D01*
X424825Y327331D01*
X423993Y326692D01*
X423354Y325860D01*
X422953Y324890D01*
X422946Y324835D01*
X425850D01*
Y327739D01*
D02*
G37*
G36*
X415850D02*
X415795Y327732D01*
X414825Y327331D01*
X413993Y326692D01*
X413354Y325860D01*
X412953Y324890D01*
X412946Y324835D01*
X415850D01*
Y327739D01*
D02*
G37*
G36*
X565850Y327835D02*
X562850D01*
Y324835D01*
X565850D01*
Y327835D01*
D02*
G37*
G36*
X359850Y422864D02*
X358674Y422748D01*
X357543Y422405D01*
X356501Y421848D01*
X355587Y421098D01*
X354837Y420184D01*
X354398Y419363D01*
X353900Y419250D01*
X353801D01*
X353302Y419363D01*
X352863Y420184D01*
X352114Y421098D01*
X351200Y421848D01*
X350158Y422405D01*
X349027Y422748D01*
X347850Y422864D01*
X346674Y422748D01*
X345543Y422405D01*
X344501Y421848D01*
X343587Y421098D01*
X342837Y420184D01*
X342398Y419363D01*
X341900Y419250D01*
X341801D01*
X341302Y419363D01*
X340863Y420184D01*
X340114Y421098D01*
X339200Y421848D01*
X338158Y422405D01*
X337027Y422748D01*
X335850Y422864D01*
X334674Y422748D01*
X333543Y422405D01*
X332501Y421848D01*
X331587Y421098D01*
X330837Y420184D01*
X330398Y419363D01*
X329900Y419250D01*
X329801D01*
X329302Y419363D01*
X328863Y420184D01*
X328114Y421098D01*
X327200Y421848D01*
X326158Y422405D01*
X325027Y422748D01*
X323850Y422864D01*
X322674Y422748D01*
X321543Y422405D01*
X320501Y421848D01*
X319587Y421098D01*
X318837Y420184D01*
X318398Y419363D01*
X317900Y419250D01*
X317801D01*
X317302Y419363D01*
X316863Y420184D01*
X316114Y421098D01*
X315200Y421848D01*
X314158Y422405D01*
X313027Y422748D01*
X311850Y422864D01*
X310674Y422748D01*
X309543Y422405D01*
X308501Y421848D01*
X307587Y421098D01*
X306837Y420184D01*
X306280Y419142D01*
X305937Y418011D01*
X305821Y416835D01*
X305937Y415658D01*
X306280Y414527D01*
X306837Y413485D01*
X307587Y412571D01*
X308501Y411822D01*
X309322Y411383D01*
X309435Y410884D01*
Y410785D01*
X309322Y410287D01*
X308501Y409848D01*
X307587Y409098D01*
X306837Y408184D01*
X306280Y407142D01*
X305937Y406011D01*
X305821Y404835D01*
X305937Y403658D01*
X306280Y402527D01*
X306837Y401485D01*
X307587Y400571D01*
X308501Y399822D01*
X309543Y399265D01*
X310674Y398921D01*
X311850Y398806D01*
X313027Y398921D01*
X314158Y399265D01*
X315200Y399822D01*
X316114Y400571D01*
X316863Y401485D01*
X317302Y402306D01*
X317801Y402419D01*
X317900D01*
X318398Y402306D01*
X318837Y401485D01*
X319587Y400571D01*
X320501Y399822D01*
X321543Y399265D01*
X322674Y398921D01*
X323850Y398806D01*
X325027Y398921D01*
X326158Y399265D01*
X327200Y399822D01*
X328114Y400571D01*
X328863Y401485D01*
X329302Y402306D01*
X329801Y402419D01*
X329900D01*
X330398Y402306D01*
X330837Y401485D01*
X331587Y400571D01*
X332501Y399822D01*
X333543Y399265D01*
X334674Y398921D01*
X335850Y398806D01*
X337027Y398921D01*
X338158Y399265D01*
X338405Y399397D01*
X340408Y397393D01*
X344967Y392835D01*
X338408Y386277D01*
X337966Y385615D01*
X337811Y384835D01*
Y384312D01*
X336998Y383687D01*
X336356Y382852D01*
X335953Y381879D01*
X335816Y380835D01*
X335953Y379790D01*
X336356Y378817D01*
X336998Y377982D01*
X337833Y377341D01*
X338806Y376938D01*
X339850Y376800D01*
X340895Y376938D01*
X341868Y377341D01*
X342703Y377982D01*
X343344Y378817D01*
X343747Y379790D01*
X343885Y380835D01*
X343747Y381879D01*
X343344Y382852D01*
X342703Y383687D01*
X342673Y383710D01*
X342608Y384708D01*
X349292Y391393D01*
X355292Y397393D01*
X357296Y399397D01*
X357543Y399265D01*
X358674Y398921D01*
X359850Y398806D01*
X361027Y398921D01*
X362158Y399265D01*
X363200Y399822D01*
X364114Y400571D01*
X364863Y401485D01*
X365421Y402527D01*
X365764Y403658D01*
X365879Y404835D01*
X365764Y406011D01*
X365421Y407142D01*
X364863Y408184D01*
X364114Y409098D01*
X363200Y409848D01*
X362379Y410287D01*
X362266Y410785D01*
Y410884D01*
X362379Y411383D01*
X363200Y411822D01*
X364114Y412571D01*
X364863Y413485D01*
X365421Y414527D01*
X365764Y415658D01*
X365879Y416835D01*
X365764Y418011D01*
X365421Y419142D01*
X364863Y420184D01*
X364114Y421098D01*
X363200Y421848D01*
X362158Y422405D01*
X361027Y422748D01*
X359850Y422864D01*
D02*
G37*
G36*
X375850Y431860D02*
X259850D01*
X259067Y431757D01*
X258337Y431455D01*
X257711Y430974D01*
X248525Y421789D01*
X247850Y421878D01*
X246545Y421706D01*
X245329Y421202D01*
X244284Y420401D01*
X243483Y419356D01*
X242979Y418140D01*
X242807Y416835D01*
X242979Y415529D01*
X243483Y414313D01*
X244284Y413269D01*
X245329Y412467D01*
X246545Y411963D01*
X247850Y411792D01*
X249156Y411963D01*
X250372Y412467D01*
X251416Y413269D01*
X252218Y414313D01*
X252722Y415529D01*
X252893Y416835D01*
X252805Y417510D01*
X261104Y425809D01*
X374597D01*
X382896Y417510D01*
X382807Y416835D01*
X382979Y415529D01*
X383483Y414313D01*
X384284Y413269D01*
X385329Y412467D01*
X386545Y411963D01*
X387850Y411792D01*
X389156Y411963D01*
X390372Y412467D01*
X391416Y413269D01*
X392218Y414313D01*
X392722Y415529D01*
X392894Y416835D01*
X392722Y418140D01*
X392218Y419356D01*
X391416Y420401D01*
X390372Y421202D01*
X389156Y421706D01*
X387850Y421878D01*
X387175Y421789D01*
X377990Y430974D01*
X377363Y431455D01*
X376634Y431757D01*
X375850Y431860D01*
D02*
G37*
G36*
X373850Y421878D02*
X372545Y421706D01*
X371329Y421202D01*
X370284Y420401D01*
X369483Y419356D01*
X368979Y418140D01*
X368807Y416835D01*
X368979Y415529D01*
X369483Y414313D01*
X370284Y413269D01*
X371329Y412467D01*
X372545Y411963D01*
X373850Y411792D01*
X375156Y411963D01*
X376372Y412467D01*
X377416Y413269D01*
X378218Y414313D01*
X378722Y415529D01*
X378893Y416835D01*
X378722Y418140D01*
X378218Y419356D01*
X377416Y420401D01*
X376372Y421202D01*
X375156Y421706D01*
X373850Y421878D01*
D02*
G37*
G36*
X293739Y413850D02*
X290835D01*
Y410946D01*
X290891Y410953D01*
X291860Y411354D01*
X292692Y411993D01*
X293331Y412825D01*
X293732Y413795D01*
X293739Y413850D01*
D02*
G37*
G36*
X288866D02*
X285961D01*
X285969Y413795D01*
X286370Y412825D01*
X287009Y411993D01*
X287841Y411354D01*
X288810Y410953D01*
X288866Y410946D01*
Y413850D01*
D02*
G37*
G36*
X269850Y418874D02*
X269781Y418860D01*
X268806Y418732D01*
X267833Y418329D01*
X266998Y417688D01*
X266373Y416874D01*
X261850D01*
X261070Y416719D01*
X260408Y416277D01*
X253006Y408874D01*
X243850D01*
X243070Y408719D01*
X242408Y408277D01*
X236408Y402277D01*
X235966Y401615D01*
X235811Y400835D01*
Y366835D01*
X235966Y366054D01*
X236408Y365393D01*
X243179Y358622D01*
X242979Y358140D01*
X242807Y356835D01*
X242979Y355529D01*
X243483Y354313D01*
X244284Y353269D01*
X245329Y352467D01*
X246545Y351963D01*
X247850Y351792D01*
X249156Y351963D01*
X250372Y352467D01*
X251416Y353269D01*
X252218Y354313D01*
X252722Y355529D01*
X252893Y356835D01*
X252722Y358140D01*
X252218Y359356D01*
X251416Y360401D01*
X250372Y361202D01*
X249156Y361706D01*
X247850Y361878D01*
X246545Y361706D01*
X246063Y361506D01*
X239890Y367679D01*
Y399990D01*
X244695Y404796D01*
X253850D01*
X254631Y404951D01*
X255292Y405393D01*
X262695Y412795D01*
X266373D01*
X266998Y411982D01*
X267833Y411341D01*
X268806Y410938D01*
X269850Y410800D01*
X270895Y410938D01*
X271868Y411341D01*
X272703Y411982D01*
X273344Y412817D01*
X273747Y413790D01*
X273885Y414835D01*
X273747Y415879D01*
X273344Y416852D01*
X272703Y417688D01*
X271868Y418329D01*
X270895Y418732D01*
X269920Y418860D01*
X269850Y418874D01*
D02*
G37*
G36*
X388835Y401732D02*
Y397819D01*
X392748D01*
X392706Y398136D01*
X392204Y399348D01*
X391405Y400389D01*
X390364Y401188D01*
X389152Y401691D01*
X388835Y401732D01*
D02*
G37*
G36*
X248835D02*
Y397819D01*
X252748D01*
X252706Y398136D01*
X252204Y399348D01*
X251405Y400389D01*
X250364Y401188D01*
X249151Y401691D01*
X248835Y401732D01*
D02*
G37*
G36*
X386866D02*
X386549Y401691D01*
X385337Y401188D01*
X384296Y400389D01*
X383497Y399348D01*
X382994Y398136D01*
X382953Y397819D01*
X386866D01*
Y401732D01*
D02*
G37*
G36*
X246866D02*
X246549Y401691D01*
X245337Y401188D01*
X244296Y400389D01*
X243497Y399348D01*
X242994Y398136D01*
X242953Y397819D01*
X246866D01*
Y401732D01*
D02*
G37*
G36*
X392748Y395850D02*
X388835D01*
Y391937D01*
X389152Y391979D01*
X390364Y392481D01*
X391405Y393280D01*
X392204Y394321D01*
X392706Y395533D01*
X392748Y395850D01*
D02*
G37*
G36*
X252748D02*
X248835D01*
Y391937D01*
X249151Y391979D01*
X250364Y392481D01*
X251405Y393280D01*
X252204Y394321D01*
X252706Y395533D01*
X252748Y395850D01*
D02*
G37*
G36*
X386866D02*
X382953D01*
X382994Y395533D01*
X383497Y394321D01*
X384296Y393280D01*
X385337Y392481D01*
X386549Y391979D01*
X386866Y391937D01*
Y395850D01*
D02*
G37*
G36*
X246866D02*
X242953D01*
X242994Y395533D01*
X243497Y394321D01*
X244296Y393280D01*
X245337Y392481D01*
X246549Y391979D01*
X246866Y391937D01*
Y395850D01*
D02*
G37*
G36*
X367850Y397878D02*
X366545Y397706D01*
X365329Y397202D01*
X364284Y396401D01*
X363483Y395356D01*
X363283Y394874D01*
X357850D01*
X357070Y394719D01*
X356409Y394277D01*
X348409Y386277D01*
X347966Y385615D01*
X347811Y384835D01*
Y384312D01*
X346998Y383687D01*
X346356Y382852D01*
X345953Y381879D01*
X345816Y380835D01*
X345953Y379790D01*
X346356Y378817D01*
X346998Y377982D01*
X347833Y377341D01*
X348806Y376938D01*
X349850Y376800D01*
X350895Y376938D01*
X351868Y377341D01*
X352703Y377982D01*
X353344Y378817D01*
X353747Y379790D01*
X353885Y380835D01*
X353747Y381879D01*
X353344Y382852D01*
X352703Y383687D01*
X352673Y383710D01*
X352608Y384708D01*
X358695Y390795D01*
X363283D01*
X363483Y390313D01*
X364284Y389269D01*
X365329Y388467D01*
X366545Y387963D01*
X367850Y387791D01*
X369156Y387963D01*
X370372Y388467D01*
X371416Y389269D01*
X372218Y390313D01*
X372722Y391529D01*
X372894Y392835D01*
X372722Y394140D01*
X372218Y395356D01*
X371416Y396401D01*
X370372Y397202D01*
X369156Y397706D01*
X367850Y397878D01*
D02*
G37*
G36*
X329850D02*
X328545Y397706D01*
X327329Y397202D01*
X326284Y396401D01*
X325483Y395356D01*
X324979Y394140D01*
X324807Y392835D01*
X324979Y391529D01*
X325483Y390313D01*
X325901Y389769D01*
X320867Y384735D01*
X319850Y384869D01*
X318806Y384732D01*
X317833Y384329D01*
X316998Y383687D01*
X316356Y382852D01*
X315953Y381879D01*
X315816Y380835D01*
X315953Y379790D01*
X316356Y378817D01*
X316998Y377982D01*
X317833Y377341D01*
X318806Y376938D01*
X319850Y376800D01*
X320895Y376938D01*
X321868Y377341D01*
X322703Y377982D01*
X323344Y378817D01*
X323747Y379790D01*
X323876Y380765D01*
X323890Y380835D01*
Y381990D01*
X329710Y387810D01*
X329850Y387791D01*
X331156Y387963D01*
X332372Y388467D01*
X333416Y389269D01*
X334218Y390313D01*
X334722Y391529D01*
X334893Y392835D01*
X334722Y394140D01*
X334218Y395356D01*
X333416Y396401D01*
X332372Y397202D01*
X331156Y397706D01*
X329850Y397878D01*
D02*
G37*
G36*
X295850Y422874D02*
X283850D01*
X283070Y422719D01*
X282408Y422277D01*
X278872Y418740D01*
X278806Y418732D01*
X277833Y418329D01*
X276998Y417688D01*
X276356Y416852D01*
X275953Y415879D01*
X275816Y414835D01*
X275953Y413790D01*
X276356Y412817D01*
X276998Y411982D01*
X277833Y411341D01*
X278806Y410938D01*
X279850Y410800D01*
X280895Y410938D01*
X281868Y411341D01*
X282703Y411982D01*
X283344Y412817D01*
X283747Y413790D01*
X283885Y414835D01*
X283747Y415879D01*
X283344Y416852D01*
X283087Y417187D01*
X284695Y418795D01*
X286825D01*
X287164Y417796D01*
X287009Y417676D01*
X286370Y416844D01*
X285969Y415875D01*
X285961Y415819D01*
X293739D01*
X293732Y415875D01*
X293331Y416844D01*
X292692Y417676D01*
X292537Y417796D01*
X292876Y418795D01*
X295006D01*
X297811Y415990D01*
Y392835D01*
Y384312D01*
X296998Y383687D01*
X296356Y382852D01*
X295953Y381879D01*
X295816Y380835D01*
X295953Y379790D01*
X296356Y378817D01*
X296998Y377982D01*
X297833Y377341D01*
X298806Y376938D01*
X299850Y376800D01*
X300895Y376938D01*
X301868Y377341D01*
X302703Y377982D01*
X303344Y378817D01*
X303747Y379790D01*
X303885Y380835D01*
X303747Y381879D01*
X303344Y382852D01*
X302703Y383687D01*
X301890Y384312D01*
Y390795D01*
X313283D01*
X313483Y390313D01*
X314284Y389269D01*
X315329Y388467D01*
X316545Y387963D01*
X317850Y387791D01*
X319156Y387963D01*
X320372Y388467D01*
X321416Y389269D01*
X322218Y390313D01*
X322722Y391529D01*
X322894Y392835D01*
X322722Y394140D01*
X322218Y395356D01*
X321416Y396401D01*
X320372Y397202D01*
X319156Y397706D01*
X317850Y397878D01*
X316545Y397706D01*
X315329Y397202D01*
X314284Y396401D01*
X313483Y395356D01*
X313283Y394874D01*
X301890D01*
Y416835D01*
X301734Y417615D01*
X301292Y418277D01*
X297292Y422277D01*
X296631Y422719D01*
X295850Y422874D01*
D02*
G37*
G36*
X388835Y381732D02*
Y377819D01*
X392748D01*
X392706Y378136D01*
X392204Y379348D01*
X391405Y380389D01*
X390364Y381188D01*
X389152Y381691D01*
X388835Y381732D01*
D02*
G37*
G36*
X248835D02*
Y377819D01*
X252748D01*
X252706Y378136D01*
X252204Y379348D01*
X251405Y380389D01*
X250364Y381188D01*
X249151Y381691D01*
X248835Y381732D01*
D02*
G37*
G36*
X386866D02*
X386549Y381691D01*
X385337Y381188D01*
X384296Y380389D01*
X383497Y379348D01*
X382994Y378136D01*
X382953Y377819D01*
X386866D01*
Y381732D01*
D02*
G37*
G36*
X246866D02*
X246549Y381691D01*
X245337Y381188D01*
X244296Y380389D01*
X243497Y379348D01*
X242994Y378136D01*
X242953Y377819D01*
X246866D01*
Y381732D01*
D02*
G37*
G36*
X309850Y384869D02*
X308806Y384732D01*
X307833Y384329D01*
X306998Y383687D01*
X306356Y382852D01*
X305953Y381879D01*
X305816Y380835D01*
X305953Y379790D01*
X306356Y378817D01*
X306998Y377982D01*
X307833Y377341D01*
X308806Y376938D01*
X309850Y376800D01*
X310895Y376938D01*
X311868Y377341D01*
X312703Y377982D01*
X313344Y378817D01*
X313747Y379790D01*
X313885Y380835D01*
X313747Y381879D01*
X313344Y382852D01*
X312703Y383687D01*
X311868Y384329D01*
X310895Y384732D01*
X309850Y384869D01*
D02*
G37*
G36*
X392748Y375850D02*
X388835D01*
Y371937D01*
X389152Y371979D01*
X390364Y372481D01*
X391405Y373280D01*
X392204Y374321D01*
X392706Y375534D01*
X392748Y375850D01*
D02*
G37*
G36*
X252748D02*
X248835D01*
Y371937D01*
X249151Y371979D01*
X250364Y372481D01*
X251405Y373280D01*
X252204Y374321D01*
X252706Y375534D01*
X252748Y375850D01*
D02*
G37*
G36*
X386866D02*
X382953D01*
X382994Y375534D01*
X383497Y374321D01*
X384296Y373280D01*
X385337Y372481D01*
X386549Y371979D01*
X386866Y371937D01*
Y375850D01*
D02*
G37*
G36*
X246866D02*
X242953D01*
X242994Y375534D01*
X243497Y374321D01*
X244296Y373280D01*
X245337Y372481D01*
X246549Y371979D01*
X246866Y371937D01*
Y375850D01*
D02*
G37*
G36*
X289850Y408869D02*
X288806Y408732D01*
X287833Y408329D01*
X286998Y407688D01*
X286356Y406852D01*
X285953Y405879D01*
X285816Y404835D01*
X285953Y403790D01*
X286356Y402817D01*
X286998Y401982D01*
X287811Y401358D01*
Y376835D01*
X287966Y376054D01*
X288408Y375393D01*
X296409Y367393D01*
X297070Y366951D01*
X297850Y366795D01*
X323850D01*
X324631Y366951D01*
X325292Y367393D01*
X331292Y373393D01*
X331734Y374054D01*
X331890Y374835D01*
Y377358D01*
X332703Y377982D01*
X333344Y378817D01*
X333747Y379790D01*
X333885Y380835D01*
X333747Y381879D01*
X333344Y382852D01*
X332703Y383687D01*
X331868Y384329D01*
X330895Y384732D01*
X329850Y384869D01*
X328806Y384732D01*
X327833Y384329D01*
X326998Y383687D01*
X326356Y382852D01*
X325953Y381879D01*
X325816Y380835D01*
X325953Y379790D01*
X326356Y378817D01*
X326998Y377982D01*
X327811Y377358D01*
Y375679D01*
X323006Y370874D01*
X298695D01*
X291890Y377679D01*
Y401358D01*
X292703Y401982D01*
X293344Y402817D01*
X293747Y403790D01*
X293885Y404835D01*
X293747Y405879D01*
X293344Y406852D01*
X292703Y407688D01*
X291868Y408329D01*
X290895Y408732D01*
X289850Y408869D01*
D02*
G37*
G36*
X374835Y360724D02*
Y357819D01*
X377739D01*
X377732Y357875D01*
X377331Y358844D01*
X376692Y359676D01*
X375860Y360315D01*
X374890Y360716D01*
X374835Y360724D01*
D02*
G37*
G36*
X372866D02*
X372810Y360716D01*
X371841Y360315D01*
X371009Y359676D01*
X370370Y358844D01*
X369969Y357875D01*
X369961Y357819D01*
X372866D01*
Y360724D01*
D02*
G37*
G36*
X377739Y355850D02*
X374835D01*
Y352946D01*
X374890Y352953D01*
X375860Y353354D01*
X376692Y353993D01*
X377331Y354825D01*
X377732Y355795D01*
X377739Y355850D01*
D02*
G37*
G36*
X372866D02*
X369961D01*
X369969Y355795D01*
X370370Y354825D01*
X371009Y353993D01*
X371841Y353354D01*
X372810Y352953D01*
X372866Y352946D01*
Y355850D01*
D02*
G37*
G36*
X360835Y354724D02*
Y351819D01*
X363739D01*
X363732Y351875D01*
X363331Y352844D01*
X362692Y353676D01*
X361860Y354315D01*
X360891Y354716D01*
X360835Y354724D01*
D02*
G37*
G36*
X358866D02*
X358810Y354716D01*
X357841Y354315D01*
X357009Y353676D01*
X356370Y352844D01*
X355969Y351875D01*
X355961Y351819D01*
X358866D01*
Y354724D01*
D02*
G37*
G36*
X363850Y384835D02*
X355850D01*
Y376835D01*
X363850D01*
Y378796D01*
X369006D01*
X369950Y377852D01*
X369816Y376835D01*
X369953Y375790D01*
X370356Y374817D01*
X370998Y373982D01*
X371833Y373341D01*
X372806Y372938D01*
X373850Y372800D01*
X374867Y372934D01*
X385475Y362326D01*
X385330Y361213D01*
X385318Y361194D01*
X384284Y360401D01*
X383483Y359356D01*
X382979Y358140D01*
X382807Y356835D01*
X382979Y355529D01*
X383483Y354313D01*
X384284Y353269D01*
X385329Y352467D01*
X386545Y351963D01*
X387850Y351792D01*
X389156Y351963D01*
X390372Y352467D01*
X391416Y353269D01*
X392218Y354313D01*
X392722Y355529D01*
X392894Y356835D01*
X392722Y358140D01*
X392218Y359356D01*
X391416Y360401D01*
X390372Y361202D01*
X389890Y361402D01*
Y362835D01*
X389734Y363615D01*
X389292Y364277D01*
X377751Y375818D01*
X377885Y376835D01*
X377747Y377879D01*
X377344Y378852D01*
X376703Y379688D01*
X375868Y380329D01*
X374895Y380732D01*
X373850Y380869D01*
X372834Y380735D01*
X371292Y382277D01*
X370631Y382719D01*
X369850Y382874D01*
X363850D01*
Y384835D01*
D02*
G37*
G36*
X363739Y349850D02*
X360835D01*
Y346946D01*
X360891Y346953D01*
X361860Y347354D01*
X362692Y347993D01*
X363331Y348825D01*
X363732Y349795D01*
X363739Y349850D01*
D02*
G37*
G36*
X358866D02*
X355961D01*
X355969Y349795D01*
X356370Y348825D01*
X357009Y347993D01*
X357841Y347354D01*
X358810Y346953D01*
X358866Y346946D01*
Y349850D01*
D02*
G37*
G36*
X279850Y408874D02*
X279781Y408860D01*
X278806Y408732D01*
X277833Y408329D01*
X276998Y407688D01*
X276356Y406852D01*
X275953Y405879D01*
X275816Y404835D01*
X275953Y403790D01*
X276356Y402817D01*
X276998Y401982D01*
X277811Y401358D01*
Y363402D01*
X277329Y363202D01*
X276284Y362401D01*
X275483Y361356D01*
X274979Y360140D01*
X274807Y358835D01*
X274979Y357529D01*
X275483Y356313D01*
X276284Y355269D01*
X277329Y354467D01*
X278545Y353963D01*
X279850Y353791D01*
X281156Y353963D01*
X282372Y354467D01*
X283416Y355269D01*
X284218Y356313D01*
X284418Y356796D01*
X307006D01*
X307811Y355990D01*
Y354312D01*
X306998Y353688D01*
X306356Y352852D01*
X305953Y351879D01*
X305816Y350835D01*
X305953Y349790D01*
X306356Y348817D01*
X306998Y347982D01*
X307833Y347341D01*
X308806Y346938D01*
X309850Y346800D01*
X310895Y346938D01*
X311868Y347341D01*
X312703Y347982D01*
X313344Y348817D01*
X313747Y349790D01*
X313885Y350835D01*
X313747Y351879D01*
X313344Y352852D01*
X312703Y353688D01*
X311890Y354312D01*
Y356835D01*
X311734Y357615D01*
X311292Y358277D01*
X309292Y360277D01*
X308631Y360719D01*
X307850Y360874D01*
X284418D01*
X284218Y361356D01*
X283416Y362401D01*
X282372Y363202D01*
X281890Y363402D01*
Y401358D01*
X282703Y401982D01*
X283344Y402817D01*
X283747Y403790D01*
X283885Y404835D01*
X283747Y405879D01*
X283344Y406852D01*
X282703Y407688D01*
X281868Y408329D01*
X280895Y408732D01*
X279920Y408860D01*
X279850Y408874D01*
D02*
G37*
G36*
X349850Y354869D02*
X348806Y354732D01*
X347833Y354329D01*
X346998Y353688D01*
X346356Y352852D01*
X345953Y351879D01*
X345816Y350835D01*
X345953Y349790D01*
X346356Y348817D01*
X346998Y347982D01*
X347811Y347358D01*
Y345657D01*
X347966Y344877D01*
X348409Y344216D01*
X351231Y341393D01*
X351893Y340951D01*
X352673Y340795D01*
X366372D01*
X367152Y340951D01*
X367814Y341393D01*
X368584Y342163D01*
X369067Y341963D01*
X370372Y341792D01*
X371677Y341963D01*
X372894Y342467D01*
X373938Y343269D01*
X374739Y344313D01*
X375243Y345529D01*
X375415Y346835D01*
X375243Y348140D01*
X374739Y349356D01*
X373938Y350401D01*
X372894Y351202D01*
X371677Y351706D01*
X370372Y351878D01*
X369067Y351706D01*
X367850Y351202D01*
X366806Y350401D01*
X366004Y349356D01*
X365501Y348140D01*
X365329Y346835D01*
X365455Y345874D01*
X364945Y345080D01*
X364690Y344874D01*
X353518D01*
X351969Y346422D01*
X352012Y347451D01*
X352703Y347982D01*
X353344Y348817D01*
X353747Y349790D01*
X353885Y350835D01*
X353747Y351879D01*
X353344Y352852D01*
X352703Y353688D01*
X351868Y354329D01*
X350895Y354732D01*
X349850Y354869D01*
D02*
G37*
G36*
X383850Y337885D02*
X382806Y337747D01*
X381833Y337344D01*
X380998Y336703D01*
X380356Y335868D01*
X379953Y334895D01*
X379816Y333850D01*
X379953Y332806D01*
X380356Y331833D01*
X380998Y330998D01*
X381833Y330356D01*
X382806Y329953D01*
X383850Y329816D01*
X384895Y329953D01*
X385868Y330356D01*
X386703Y330998D01*
X387344Y331833D01*
X387747Y332806D01*
X387885Y333850D01*
X387747Y334895D01*
X387344Y335868D01*
X386703Y336703D01*
X385868Y337344D01*
X384895Y337747D01*
X383850Y337885D01*
D02*
G37*
G36*
X373850D02*
X372806Y337747D01*
X371833Y337344D01*
X370998Y336703D01*
X370356Y335868D01*
X369953Y334895D01*
X369816Y333850D01*
X369953Y332806D01*
X370356Y331833D01*
X370998Y330998D01*
X371833Y330356D01*
X372806Y329953D01*
X373850Y329816D01*
X374895Y329953D01*
X375868Y330356D01*
X376703Y330998D01*
X377344Y331833D01*
X377747Y332806D01*
X377885Y333850D01*
X377747Y334895D01*
X377344Y335868D01*
X376703Y336703D01*
X375868Y337344D01*
X374895Y337747D01*
X373850Y337885D01*
D02*
G37*
G36*
X363850D02*
X362806Y337747D01*
X361833Y337344D01*
X360998Y336703D01*
X360356Y335868D01*
X359953Y334895D01*
X359816Y333850D01*
X359953Y332806D01*
X360356Y331833D01*
X360998Y330998D01*
X361833Y330356D01*
X362806Y329953D01*
X363850Y329816D01*
X364895Y329953D01*
X365868Y330356D01*
X366703Y330998D01*
X367344Y331833D01*
X367747Y332806D01*
X367885Y333850D01*
X367747Y334895D01*
X367344Y335868D01*
X366703Y336703D01*
X365868Y337344D01*
X364895Y337747D01*
X363850Y337885D01*
D02*
G37*
G36*
X353850D02*
X352806Y337747D01*
X351833Y337344D01*
X350998Y336703D01*
X350356Y335868D01*
X349953Y334895D01*
X349816Y333850D01*
X349953Y332806D01*
X350356Y331833D01*
X350998Y330998D01*
X351833Y330356D01*
X352806Y329953D01*
X353850Y329816D01*
X354895Y329953D01*
X355868Y330356D01*
X356703Y330998D01*
X357344Y331833D01*
X357747Y332806D01*
X357885Y333850D01*
X357747Y334895D01*
X357344Y335868D01*
X356703Y336703D01*
X355868Y337344D01*
X354895Y337747D01*
X353850Y337885D01*
D02*
G37*
G36*
X339850Y354869D02*
X338806Y354732D01*
X337833Y354329D01*
X336998Y353688D01*
X336356Y352852D01*
X335953Y351879D01*
X335816Y350835D01*
X335953Y349790D01*
X336356Y348817D01*
X336998Y347982D01*
X337811Y347358D01*
Y344835D01*
X337966Y344054D01*
X338408Y343393D01*
X341811Y339990D01*
Y337328D01*
X340998Y336703D01*
X340356Y335868D01*
X339953Y334895D01*
X339816Y333850D01*
X339953Y332806D01*
X340356Y331833D01*
X340998Y330998D01*
X341833Y330356D01*
X342806Y329953D01*
X343850Y329816D01*
X344895Y329953D01*
X345868Y330356D01*
X346703Y330998D01*
X347344Y331833D01*
X347747Y332806D01*
X347885Y333850D01*
X347747Y334895D01*
X347344Y335868D01*
X346703Y336703D01*
X345890Y337328D01*
Y340835D01*
X345734Y341615D01*
X345292Y342277D01*
X341890Y345679D01*
Y347358D01*
X342703Y347982D01*
X343344Y348817D01*
X343747Y349790D01*
X343885Y350835D01*
X343747Y351879D01*
X343344Y352852D01*
X342703Y353688D01*
X341868Y354329D01*
X340895Y354732D01*
X339850Y354869D01*
D02*
G37*
G36*
X333850Y337885D02*
X332806Y337747D01*
X331833Y337344D01*
X330998Y336703D01*
X330356Y335868D01*
X329953Y334895D01*
X329816Y333850D01*
X329953Y332806D01*
X330356Y331833D01*
X330998Y330998D01*
X331833Y330356D01*
X332806Y329953D01*
X333850Y329816D01*
X334895Y329953D01*
X335868Y330356D01*
X336703Y330998D01*
X337344Y331833D01*
X337747Y332806D01*
X337885Y333850D01*
X337747Y334895D01*
X337344Y335868D01*
X336703Y336703D01*
X335868Y337344D01*
X334895Y337747D01*
X333850Y337885D01*
D02*
G37*
G36*
X329850Y354869D02*
X328806Y354732D01*
X327833Y354329D01*
X326998Y353688D01*
X326356Y352852D01*
X325953Y351879D01*
X325816Y350835D01*
X325953Y349790D01*
X326356Y348817D01*
X326998Y347982D01*
X327028Y347959D01*
X327093Y346961D01*
X322409Y342277D01*
X321966Y341615D01*
X321811Y340835D01*
Y337328D01*
X320998Y336703D01*
X320356Y335868D01*
X319953Y334895D01*
X319816Y333850D01*
X319953Y332806D01*
X320356Y331833D01*
X320998Y330998D01*
X321833Y330356D01*
X322806Y329953D01*
X323850Y329816D01*
X324895Y329953D01*
X325868Y330356D01*
X326703Y330998D01*
X327344Y331833D01*
X327747Y332806D01*
X327885Y333850D01*
X327747Y334895D01*
X327344Y335868D01*
X326703Y336703D01*
X325890Y337328D01*
Y339990D01*
X331292Y345393D01*
X331734Y346054D01*
X331890Y346835D01*
Y347358D01*
X332703Y347982D01*
X333344Y348817D01*
X333747Y349790D01*
X333885Y350835D01*
X333747Y351879D01*
X333344Y352852D01*
X332703Y353688D01*
X331868Y354329D01*
X330895Y354732D01*
X329850Y354869D01*
D02*
G37*
G36*
X319850D02*
X318806Y354732D01*
X317833Y354329D01*
X316998Y353688D01*
X316356Y352852D01*
X315953Y351879D01*
X315816Y350835D01*
X315953Y349790D01*
X316356Y348817D01*
X316998Y347982D01*
X317027Y347959D01*
X317093Y346961D01*
X312408Y342277D01*
X311966Y341615D01*
X311811Y340835D01*
Y337328D01*
X310998Y336703D01*
X310356Y335868D01*
X309953Y334895D01*
X309816Y333850D01*
X309953Y332806D01*
X310356Y331833D01*
X310998Y330998D01*
X311833Y330356D01*
X312806Y329953D01*
X313850Y329816D01*
X314895Y329953D01*
X315868Y330356D01*
X316703Y330998D01*
X317344Y331833D01*
X317747Y332806D01*
X317885Y333850D01*
X317747Y334895D01*
X317344Y335868D01*
X316703Y336703D01*
X315890Y337328D01*
Y339990D01*
X321292Y345393D01*
X321734Y346054D01*
X321890Y346835D01*
Y347358D01*
X322703Y347982D01*
X323344Y348817D01*
X323747Y349790D01*
X323885Y350835D01*
X323747Y351879D01*
X323344Y352852D01*
X322703Y353688D01*
X321868Y354329D01*
X320895Y354732D01*
X319850Y354869D01*
D02*
G37*
G36*
X269850Y408874D02*
X269653Y408835D01*
X265850D01*
Y400835D01*
X267811D01*
Y352835D01*
X267966Y352054D01*
X268408Y351393D01*
X276409Y343393D01*
X277070Y342951D01*
X277850Y342795D01*
X299006D01*
X301811Y339990D01*
Y337328D01*
X300998Y336703D01*
X300356Y335868D01*
X299953Y334895D01*
X299816Y333850D01*
X299953Y332806D01*
X300356Y331833D01*
X300998Y330998D01*
X301833Y330356D01*
X302806Y329953D01*
X303850Y329816D01*
X304895Y329953D01*
X305868Y330356D01*
X306703Y330998D01*
X307344Y331833D01*
X307747Y332806D01*
X307885Y333850D01*
X307747Y334895D01*
X307344Y335868D01*
X306703Y336703D01*
X305890Y337328D01*
Y340835D01*
X305734Y341615D01*
X305292Y342277D01*
X301890Y345679D01*
Y347358D01*
X302703Y347982D01*
X303344Y348817D01*
X303747Y349790D01*
X303885Y350835D01*
X303747Y351879D01*
X303344Y352852D01*
X302703Y353688D01*
X301868Y354329D01*
X300895Y354732D01*
X299850Y354869D01*
X298806Y354732D01*
X297833Y354329D01*
X296998Y353688D01*
X296356Y352852D01*
X295953Y351879D01*
X295816Y350835D01*
X295953Y349790D01*
X296356Y348817D01*
X296998Y347982D01*
X297138Y347874D01*
X296799Y346874D01*
X278695D01*
X271890Y353679D01*
Y400835D01*
X273850D01*
Y408835D01*
X270047D01*
X269850Y408874D01*
D02*
G37*
G36*
X293850Y337885D02*
X292806Y337747D01*
X291833Y337344D01*
X290998Y336703D01*
X290356Y335868D01*
X289953Y334895D01*
X289816Y333850D01*
X289953Y332806D01*
X290356Y331833D01*
X290998Y330998D01*
X291833Y330356D01*
X292806Y329953D01*
X293850Y329816D01*
X294895Y329953D01*
X295868Y330356D01*
X296703Y330998D01*
X297344Y331833D01*
X297747Y332806D01*
X297885Y333850D01*
X297747Y334895D01*
X297344Y335868D01*
X296703Y336703D01*
X295868Y337344D01*
X294895Y337747D01*
X293850Y337885D01*
D02*
G37*
G36*
X283850D02*
X282806Y337747D01*
X281833Y337344D01*
X280998Y336703D01*
X280356Y335868D01*
X279953Y334895D01*
X279816Y333850D01*
X279953Y332806D01*
X280356Y331833D01*
X280998Y330998D01*
X281833Y330356D01*
X282806Y329953D01*
X283850Y329816D01*
X284895Y329953D01*
X285868Y330356D01*
X286703Y330998D01*
X287344Y331833D01*
X287747Y332806D01*
X287885Y333850D01*
X287747Y334895D01*
X287344Y335868D01*
X286703Y336703D01*
X285868Y337344D01*
X284895Y337747D01*
X283850Y337885D01*
D02*
G37*
G36*
X273850D02*
X272806Y337747D01*
X271833Y337344D01*
X270998Y336703D01*
X270356Y335868D01*
X269953Y334895D01*
X269816Y333850D01*
X269953Y332806D01*
X270356Y331833D01*
X270998Y330998D01*
X271833Y330356D01*
X272806Y329953D01*
X273850Y329816D01*
X274895Y329953D01*
X275868Y330356D01*
X276703Y330998D01*
X277344Y331833D01*
X277747Y332806D01*
X277885Y333850D01*
X277747Y334895D01*
X277344Y335868D01*
X276703Y336703D01*
X275868Y337344D01*
X274895Y337747D01*
X273850Y337885D01*
D02*
G37*
G36*
X263850D02*
X262806Y337747D01*
X261833Y337344D01*
X260998Y336703D01*
X260356Y335868D01*
X259953Y334895D01*
X259816Y333850D01*
X259953Y332806D01*
X260356Y331833D01*
X260998Y330998D01*
X261833Y330356D01*
X262806Y329953D01*
X263850Y329816D01*
X264895Y329953D01*
X265868Y330356D01*
X266703Y330998D01*
X267344Y331833D01*
X267747Y332806D01*
X267885Y333850D01*
X267747Y334895D01*
X267344Y335868D01*
X266703Y336703D01*
X265868Y337344D01*
X264895Y337747D01*
X263850Y337885D01*
D02*
G37*
G36*
X253850D02*
X252806Y337747D01*
X251833Y337344D01*
X250998Y336703D01*
X250356Y335868D01*
X249953Y334895D01*
X249816Y333850D01*
X249953Y332806D01*
X250356Y331833D01*
X250998Y330998D01*
X251833Y330356D01*
X252806Y329953D01*
X253850Y329816D01*
X254895Y329953D01*
X255868Y330356D01*
X256703Y330998D01*
X257344Y331833D01*
X257747Y332806D01*
X257885Y333850D01*
X257747Y334895D01*
X257344Y335868D01*
X256703Y336703D01*
X255868Y337344D01*
X254895Y337747D01*
X253850Y337885D01*
D02*
G37*
G36*
X243850D02*
X242806Y337747D01*
X241833Y337344D01*
X240998Y336703D01*
X240356Y335868D01*
X239953Y334895D01*
X239816Y333850D01*
X239953Y332806D01*
X240356Y331833D01*
X240998Y330998D01*
X241833Y330356D01*
X242806Y329953D01*
X243850Y329816D01*
X244895Y329953D01*
X245868Y330356D01*
X246703Y330998D01*
X247344Y331833D01*
X247747Y332806D01*
X247885Y333850D01*
X247747Y334895D01*
X247344Y335868D01*
X246703Y336703D01*
X245868Y337344D01*
X244895Y337747D01*
X243850Y337885D01*
D02*
G37*
G36*
X384835Y327739D02*
Y324835D01*
X387739D01*
X387732Y324890D01*
X387331Y325860D01*
X386692Y326692D01*
X385860Y327331D01*
X384891Y327732D01*
X384835Y327739D01*
D02*
G37*
G36*
X374835D02*
Y324835D01*
X377739D01*
X377732Y324890D01*
X377331Y325860D01*
X376692Y326692D01*
X375860Y327331D01*
X374890Y327732D01*
X374835Y327739D01*
D02*
G37*
G36*
X364835D02*
Y324835D01*
X367739D01*
X367732Y324890D01*
X367331Y325860D01*
X366692Y326692D01*
X365860Y327331D01*
X364891Y327732D01*
X364835Y327739D01*
D02*
G37*
G36*
X354835D02*
Y324835D01*
X357739D01*
X357732Y324890D01*
X357331Y325860D01*
X356692Y326692D01*
X355860Y327331D01*
X354890Y327732D01*
X354835Y327739D01*
D02*
G37*
G36*
X344835D02*
Y324835D01*
X347739D01*
X347732Y324890D01*
X347331Y325860D01*
X346692Y326692D01*
X345860Y327331D01*
X344890Y327732D01*
X344835Y327739D01*
D02*
G37*
G36*
X334835D02*
Y324835D01*
X337739D01*
X337732Y324890D01*
X337331Y325860D01*
X336692Y326692D01*
X335860Y327331D01*
X334891Y327732D01*
X334835Y327739D01*
D02*
G37*
G36*
X324835D02*
Y324835D01*
X327739D01*
X327732Y324890D01*
X327331Y325860D01*
X326692Y326692D01*
X325860Y327331D01*
X324890Y327732D01*
X324835Y327739D01*
D02*
G37*
G36*
X314835D02*
Y324835D01*
X317739D01*
X317732Y324890D01*
X317331Y325860D01*
X316692Y326692D01*
X315860Y327331D01*
X314891Y327732D01*
X314835Y327739D01*
D02*
G37*
G36*
X304835D02*
Y324835D01*
X307739D01*
X307732Y324890D01*
X307331Y325860D01*
X306692Y326692D01*
X305860Y327331D01*
X304890Y327732D01*
X304835Y327739D01*
D02*
G37*
G36*
X294835D02*
Y324835D01*
X297739D01*
X297732Y324890D01*
X297331Y325860D01*
X296692Y326692D01*
X295860Y327331D01*
X294890Y327732D01*
X294835Y327739D01*
D02*
G37*
G36*
X284835D02*
Y324835D01*
X287739D01*
X287732Y324890D01*
X287331Y325860D01*
X286692Y326692D01*
X285860Y327331D01*
X284891Y327732D01*
X284835Y327739D01*
D02*
G37*
G36*
X274835D02*
Y324835D01*
X277739D01*
X277732Y324890D01*
X277331Y325860D01*
X276692Y326692D01*
X275860Y327331D01*
X274890Y327732D01*
X274835Y327739D01*
D02*
G37*
G36*
X264835D02*
Y324835D01*
X267739D01*
X267732Y324890D01*
X267331Y325860D01*
X266692Y326692D01*
X265860Y327331D01*
X264891Y327732D01*
X264835Y327739D01*
D02*
G37*
G36*
X254835D02*
Y324835D01*
X257739D01*
X257732Y324890D01*
X257331Y325860D01*
X256692Y326692D01*
X255860Y327331D01*
X254890Y327732D01*
X254835Y327739D01*
D02*
G37*
G36*
X244835D02*
Y324835D01*
X247739D01*
X247732Y324890D01*
X247331Y325860D01*
X246692Y326692D01*
X245860Y327331D01*
X244890Y327732D01*
X244835Y327739D01*
D02*
G37*
G36*
X234835D02*
Y324835D01*
X237739D01*
X237732Y324890D01*
X237331Y325860D01*
X236692Y326692D01*
X235860Y327331D01*
X234891Y327732D01*
X234835Y327739D01*
D02*
G37*
G36*
X382866D02*
X382810Y327732D01*
X381841Y327331D01*
X381009Y326692D01*
X380370Y325860D01*
X379969Y324890D01*
X379961Y324835D01*
X382866D01*
Y327739D01*
D02*
G37*
G36*
X372866D02*
X372810Y327732D01*
X371841Y327331D01*
X371009Y326692D01*
X370370Y325860D01*
X369969Y324890D01*
X369961Y324835D01*
X372866D01*
Y327739D01*
D02*
G37*
G36*
X362866D02*
X362810Y327732D01*
X361841Y327331D01*
X361009Y326692D01*
X360370Y325860D01*
X359969Y324890D01*
X359961Y324835D01*
X362866D01*
Y327739D01*
D02*
G37*
G36*
X352866D02*
X352810Y327732D01*
X351841Y327331D01*
X351009Y326692D01*
X350370Y325860D01*
X349969Y324890D01*
X349961Y324835D01*
X352866D01*
Y327739D01*
D02*
G37*
G36*
X342866D02*
X342810Y327732D01*
X341841Y327331D01*
X341009Y326692D01*
X340370Y325860D01*
X339969Y324890D01*
X339961Y324835D01*
X342866D01*
Y327739D01*
D02*
G37*
G36*
X332866D02*
X332810Y327732D01*
X331841Y327331D01*
X331009Y326692D01*
X330370Y325860D01*
X329969Y324890D01*
X329961Y324835D01*
X332866D01*
Y327739D01*
D02*
G37*
G36*
X322866D02*
X322810Y327732D01*
X321841Y327331D01*
X321009Y326692D01*
X320370Y325860D01*
X319969Y324890D01*
X319961Y324835D01*
X322866D01*
Y327739D01*
D02*
G37*
G36*
X312866D02*
X312810Y327732D01*
X311841Y327331D01*
X311009Y326692D01*
X310370Y325860D01*
X309969Y324890D01*
X309961Y324835D01*
X312866D01*
Y327739D01*
D02*
G37*
G36*
X302866D02*
X302810Y327732D01*
X301841Y327331D01*
X301009Y326692D01*
X300370Y325860D01*
X299969Y324890D01*
X299961Y324835D01*
X302866D01*
Y327739D01*
D02*
G37*
G36*
X292866D02*
X292810Y327732D01*
X291841Y327331D01*
X291009Y326692D01*
X290370Y325860D01*
X289969Y324890D01*
X289961Y324835D01*
X292866D01*
Y327739D01*
D02*
G37*
G36*
X282866D02*
X282810Y327732D01*
X281841Y327331D01*
X281009Y326692D01*
X280370Y325860D01*
X279969Y324890D01*
X279961Y324835D01*
X282866D01*
Y327739D01*
D02*
G37*
G36*
X272866D02*
X272810Y327732D01*
X271841Y327331D01*
X271009Y326692D01*
X270370Y325860D01*
X269969Y324890D01*
X269961Y324835D01*
X272866D01*
Y327739D01*
D02*
G37*
G36*
X262866D02*
X262810Y327732D01*
X261841Y327331D01*
X261009Y326692D01*
X260370Y325860D01*
X259969Y324890D01*
X259961Y324835D01*
X262866D01*
Y327739D01*
D02*
G37*
G36*
X252866D02*
X252810Y327732D01*
X251841Y327331D01*
X251009Y326692D01*
X250370Y325860D01*
X249969Y324890D01*
X249961Y324835D01*
X252866D01*
Y327739D01*
D02*
G37*
G36*
X242866D02*
X242810Y327732D01*
X241841Y327331D01*
X241009Y326692D01*
X240370Y325860D01*
X239969Y324890D01*
X239961Y324835D01*
X242866D01*
Y327739D01*
D02*
G37*
G36*
X392866Y327835D02*
X389866D01*
Y324835D01*
X392866D01*
Y327835D01*
D02*
G37*
G36*
X532835Y303879D02*
X531658Y303764D01*
X530527Y303420D01*
X529485Y302863D01*
X528572Y302114D01*
X527822Y301200D01*
X527383Y300379D01*
X526884Y300266D01*
X526785D01*
X526287Y300379D01*
X525848Y301200D01*
X525098Y302114D01*
X524184Y302863D01*
X523142Y303420D01*
X522011Y303764D01*
X520835Y303879D01*
X519658Y303764D01*
X518527Y303420D01*
X517485Y302863D01*
X516572Y302114D01*
X515822Y301200D01*
X515383Y300379D01*
X514884Y300266D01*
X514785D01*
X514287Y300379D01*
X513848Y301200D01*
X513098Y302114D01*
X512184Y302863D01*
X511142Y303420D01*
X510011Y303764D01*
X508835Y303879D01*
X507658Y303764D01*
X506527Y303420D01*
X505485Y302863D01*
X504571Y302114D01*
X503822Y301200D01*
X503383Y300379D01*
X502884Y300266D01*
X502785D01*
X502287Y300379D01*
X501848Y301200D01*
X501098Y302114D01*
X500184Y302863D01*
X499142Y303420D01*
X498011Y303764D01*
X496835Y303879D01*
X495658Y303764D01*
X494527Y303420D01*
X493485Y302863D01*
X492571Y302114D01*
X491822Y301200D01*
X491383Y300379D01*
X490884Y300266D01*
X490785D01*
X490287Y300379D01*
X489848Y301200D01*
X489098Y302114D01*
X488184Y302863D01*
X487142Y303420D01*
X486011Y303764D01*
X484835Y303879D01*
X483658Y303764D01*
X482527Y303420D01*
X481485Y302863D01*
X480572Y302114D01*
X479822Y301200D01*
X479264Y300158D01*
X478922Y299027D01*
X478806Y297850D01*
X478922Y296674D01*
X479264Y295543D01*
X479822Y294501D01*
X480572Y293587D01*
X481485Y292837D01*
X482306Y292398D01*
X482419Y291900D01*
Y291801D01*
X482306Y291302D01*
X481485Y290863D01*
X480572Y290114D01*
X479822Y289200D01*
X479264Y288158D01*
X478922Y287027D01*
X478806Y285850D01*
X478922Y284674D01*
X479264Y283543D01*
X479822Y282501D01*
X480572Y281587D01*
X481485Y280837D01*
X482527Y280280D01*
X483658Y279937D01*
X484835Y279821D01*
X486011Y279937D01*
X487142Y280280D01*
X488184Y280837D01*
X489098Y281587D01*
X489848Y282501D01*
X490287Y283322D01*
X490785Y283435D01*
X490884D01*
X491383Y283322D01*
X491822Y282501D01*
X492571Y281587D01*
X493485Y280837D01*
X494527Y280280D01*
X495658Y279937D01*
X496835Y279821D01*
X498011Y279937D01*
X499142Y280280D01*
X500184Y280837D01*
X501098Y281587D01*
X501848Y282501D01*
X502287Y283322D01*
X502785Y283435D01*
X502884D01*
X503383Y283322D01*
X503822Y282501D01*
X504571Y281587D01*
X505485Y280837D01*
X506527Y280280D01*
X507658Y279937D01*
X508835Y279821D01*
X510011Y279937D01*
X511142Y280280D01*
X511389Y280412D01*
X513393Y278409D01*
X517951Y273850D01*
X511393Y267292D01*
X510951Y266631D01*
X510795Y265850D01*
Y265328D01*
X509982Y264703D01*
X509341Y263868D01*
X508938Y262895D01*
X508800Y261850D01*
X508938Y260806D01*
X509341Y259833D01*
X509982Y258998D01*
X510817Y258356D01*
X511790Y257953D01*
X512835Y257816D01*
X513879Y257953D01*
X514852Y258356D01*
X515688Y258998D01*
X516329Y259833D01*
X516732Y260806D01*
X516869Y261850D01*
X516732Y262895D01*
X516329Y263868D01*
X515688Y264703D01*
X515658Y264726D01*
X515592Y265724D01*
X522277Y272409D01*
X528277Y278409D01*
X530280Y280412D01*
X530527Y280280D01*
X531658Y279937D01*
X532835Y279821D01*
X534011Y279937D01*
X535142Y280280D01*
X536184Y280837D01*
X537098Y281587D01*
X537848Y282501D01*
X538405Y283543D01*
X538748Y284674D01*
X538864Y285850D01*
X538748Y287027D01*
X538405Y288158D01*
X537848Y289200D01*
X537098Y290114D01*
X536184Y290863D01*
X535363Y291302D01*
X535250Y291801D01*
Y291900D01*
X535363Y292398D01*
X536184Y292837D01*
X537098Y293587D01*
X537848Y294501D01*
X538405Y295543D01*
X538748Y296674D01*
X538864Y297850D01*
X538748Y299027D01*
X538405Y300158D01*
X537848Y301200D01*
X537098Y302114D01*
X536184Y302863D01*
X535142Y303420D01*
X534011Y303764D01*
X532835Y303879D01*
D02*
G37*
G36*
X548835Y312876D02*
X432835D01*
X432052Y312773D01*
X431322Y312471D01*
X430695Y311990D01*
X421510Y302805D01*
X420835Y302893D01*
X419529Y302722D01*
X418313Y302218D01*
X417269Y301416D01*
X416467Y300372D01*
X415963Y299156D01*
X415792Y297850D01*
X415963Y296545D01*
X416467Y295329D01*
X417269Y294284D01*
X418313Y293483D01*
X419529Y292979D01*
X420835Y292807D01*
X422140Y292979D01*
X423356Y293483D01*
X424401Y294284D01*
X425202Y295329D01*
X425706Y296545D01*
X425878Y297850D01*
X425789Y298525D01*
X434088Y306824D01*
X547581D01*
X555880Y298525D01*
X555792Y297850D01*
X555963Y296545D01*
X556467Y295329D01*
X557269Y294284D01*
X558313Y293483D01*
X559529Y292979D01*
X560835Y292807D01*
X562140Y292979D01*
X563356Y293483D01*
X564401Y294284D01*
X565202Y295329D01*
X565706Y296545D01*
X565878Y297850D01*
X565706Y299156D01*
X565202Y300372D01*
X564401Y301416D01*
X563356Y302218D01*
X562140Y302722D01*
X560835Y302893D01*
X560160Y302805D01*
X550974Y311990D01*
X550348Y312471D01*
X549618Y312773D01*
X548835Y312876D01*
D02*
G37*
G36*
X546835Y302893D02*
X545529Y302722D01*
X544313Y302218D01*
X543269Y301416D01*
X542467Y300372D01*
X541963Y299156D01*
X541791Y297850D01*
X541963Y296545D01*
X542467Y295329D01*
X543269Y294284D01*
X544313Y293483D01*
X545529Y292979D01*
X546835Y292807D01*
X548140Y292979D01*
X549356Y293483D01*
X550401Y294284D01*
X551202Y295329D01*
X551706Y296545D01*
X551878Y297850D01*
X551706Y299156D01*
X551202Y300372D01*
X550401Y301416D01*
X549356Y302218D01*
X548140Y302722D01*
X546835Y302893D01*
D02*
G37*
G36*
X466724Y294866D02*
X463819D01*
Y291961D01*
X463875Y291969D01*
X464844Y292370D01*
X465676Y293009D01*
X466315Y293841D01*
X466716Y294810D01*
X466724Y294866D01*
D02*
G37*
G36*
X461850D02*
X458946D01*
X458953Y294810D01*
X459354Y293841D01*
X459993Y293009D01*
X460825Y292370D01*
X461795Y291969D01*
X461850Y291961D01*
Y294866D01*
D02*
G37*
G36*
X442835Y299890D02*
X442765Y299876D01*
X441790Y299747D01*
X440817Y299344D01*
X439982Y298703D01*
X439358Y297890D01*
X434835D01*
X434054Y297734D01*
X433393Y297292D01*
X425990Y289890D01*
X416835D01*
X416054Y289734D01*
X415393Y289292D01*
X409393Y283292D01*
X408951Y282631D01*
X408795Y281850D01*
Y247850D01*
X408951Y247070D01*
X409393Y246409D01*
X416163Y239638D01*
X415963Y239156D01*
X415792Y237850D01*
X415963Y236545D01*
X416467Y235329D01*
X417269Y234284D01*
X418313Y233483D01*
X419529Y232979D01*
X420835Y232807D01*
X422140Y232979D01*
X423356Y233483D01*
X424401Y234284D01*
X425202Y235329D01*
X425706Y236545D01*
X425878Y237850D01*
X425706Y239156D01*
X425202Y240372D01*
X424401Y241416D01*
X423356Y242218D01*
X422140Y242722D01*
X420835Y242894D01*
X419529Y242722D01*
X419047Y242522D01*
X412874Y248695D01*
Y281006D01*
X417679Y285811D01*
X426835D01*
X427615Y285966D01*
X428277Y286408D01*
X435679Y293811D01*
X439358D01*
X439982Y292998D01*
X440817Y292356D01*
X441790Y291953D01*
X442835Y291816D01*
X443879Y291953D01*
X444852Y292356D01*
X445687Y292998D01*
X446329Y293833D01*
X446732Y294806D01*
X446869Y295850D01*
X446732Y296895D01*
X446329Y297868D01*
X445687Y298703D01*
X444852Y299344D01*
X443879Y299747D01*
X442904Y299876D01*
X442835Y299890D01*
D02*
G37*
G36*
X561819Y282748D02*
Y278835D01*
X565732D01*
X565691Y279152D01*
X565188Y280364D01*
X564390Y281405D01*
X563348Y282204D01*
X562136Y282706D01*
X561819Y282748D01*
D02*
G37*
G36*
X421819D02*
Y278835D01*
X425732D01*
X425691Y279152D01*
X425188Y280364D01*
X424390Y281405D01*
X423348Y282204D01*
X422136Y282706D01*
X421819Y282748D01*
D02*
G37*
G36*
X559850D02*
X559534Y282706D01*
X558321Y282204D01*
X557280Y281405D01*
X556481Y280364D01*
X555979Y279152D01*
X555937Y278835D01*
X559850D01*
Y282748D01*
D02*
G37*
G36*
X419850D02*
X419533Y282706D01*
X418321Y282204D01*
X417280Y281405D01*
X416481Y280364D01*
X415979Y279152D01*
X415937Y278835D01*
X419850D01*
Y282748D01*
D02*
G37*
G36*
X565732Y276866D02*
X561819D01*
Y272953D01*
X562136Y272994D01*
X563348Y273497D01*
X564390Y274296D01*
X565188Y275337D01*
X565691Y276549D01*
X565732Y276866D01*
D02*
G37*
G36*
X425732D02*
X421819D01*
Y272953D01*
X422136Y272994D01*
X423348Y273497D01*
X424390Y274296D01*
X425188Y275337D01*
X425691Y276549D01*
X425732Y276866D01*
D02*
G37*
G36*
X559850D02*
X555937D01*
X555979Y276549D01*
X556481Y275337D01*
X557280Y274296D01*
X558321Y273497D01*
X559534Y272994D01*
X559850Y272953D01*
Y276866D01*
D02*
G37*
G36*
X419850D02*
X415937D01*
X415979Y276549D01*
X416481Y275337D01*
X417280Y274296D01*
X418321Y273497D01*
X419533Y272994D01*
X419850Y272953D01*
Y276866D01*
D02*
G37*
G36*
X540835Y278893D02*
X539529Y278722D01*
X538313Y278218D01*
X537269Y277416D01*
X536467Y276372D01*
X536267Y275890D01*
X530835D01*
X530054Y275734D01*
X529393Y275292D01*
X521393Y267292D01*
X520951Y266631D01*
X520795Y265850D01*
Y265328D01*
X519982Y264703D01*
X519341Y263868D01*
X518938Y262895D01*
X518800Y261850D01*
X518938Y260806D01*
X519341Y259833D01*
X519982Y258998D01*
X520817Y258356D01*
X521790Y257953D01*
X522835Y257816D01*
X523879Y257953D01*
X524852Y258356D01*
X525688Y258998D01*
X526329Y259833D01*
X526732Y260806D01*
X526869Y261850D01*
X526732Y262895D01*
X526329Y263868D01*
X525688Y264703D01*
X525658Y264726D01*
X525592Y265724D01*
X531679Y271811D01*
X536267D01*
X536467Y271329D01*
X537269Y270284D01*
X538313Y269483D01*
X539529Y268979D01*
X540835Y268807D01*
X542140Y268979D01*
X543356Y269483D01*
X544401Y270284D01*
X545202Y271329D01*
X545706Y272545D01*
X545878Y273850D01*
X545706Y275156D01*
X545202Y276372D01*
X544401Y277416D01*
X543356Y278218D01*
X542140Y278722D01*
X540835Y278893D01*
D02*
G37*
G36*
X502835D02*
X501529Y278722D01*
X500313Y278218D01*
X499269Y277416D01*
X498467Y276372D01*
X497963Y275156D01*
X497791Y273850D01*
X497963Y272545D01*
X498467Y271329D01*
X498885Y270784D01*
X493852Y265751D01*
X492835Y265885D01*
X491790Y265747D01*
X490817Y265344D01*
X489982Y264703D01*
X489341Y263868D01*
X488938Y262895D01*
X488800Y261850D01*
X488938Y260806D01*
X489341Y259833D01*
X489982Y258998D01*
X490817Y258356D01*
X491790Y257953D01*
X492835Y257816D01*
X493879Y257953D01*
X494852Y258356D01*
X495687Y258998D01*
X496329Y259833D01*
X496732Y260806D01*
X496860Y261781D01*
X496874Y261850D01*
Y263006D01*
X502694Y268826D01*
X502835Y268807D01*
X504140Y268979D01*
X505356Y269483D01*
X506401Y270284D01*
X507202Y271329D01*
X507706Y272545D01*
X507878Y273850D01*
X507706Y275156D01*
X507202Y276372D01*
X506401Y277416D01*
X505356Y278218D01*
X504140Y278722D01*
X502835Y278893D01*
D02*
G37*
G36*
X468835Y303890D02*
X456835D01*
X456054Y303734D01*
X455393Y303292D01*
X451857Y299756D01*
X451790Y299747D01*
X450817Y299344D01*
X449982Y298703D01*
X449341Y297868D01*
X448938Y296895D01*
X448800Y295850D01*
X448938Y294806D01*
X449341Y293833D01*
X449982Y292998D01*
X450817Y292356D01*
X451790Y291953D01*
X452835Y291816D01*
X453879Y291953D01*
X454852Y292356D01*
X455688Y292998D01*
X456329Y293833D01*
X456732Y294806D01*
X456869Y295850D01*
X456732Y296895D01*
X456329Y297868D01*
X456071Y298203D01*
X457679Y299811D01*
X459809D01*
X460148Y298811D01*
X459993Y298692D01*
X459354Y297860D01*
X458953Y296890D01*
X458946Y296835D01*
X466724D01*
X466716Y296890D01*
X466315Y297860D01*
X465676Y298692D01*
X465521Y298811D01*
X465860Y299811D01*
X467990D01*
X470795Y297006D01*
Y273850D01*
Y265328D01*
X469982Y264703D01*
X469341Y263868D01*
X468938Y262895D01*
X468800Y261850D01*
X468938Y260806D01*
X469341Y259833D01*
X469982Y258998D01*
X470817Y258356D01*
X471790Y257953D01*
X472835Y257816D01*
X473879Y257953D01*
X474852Y258356D01*
X475688Y258998D01*
X476329Y259833D01*
X476732Y260806D01*
X476869Y261850D01*
X476732Y262895D01*
X476329Y263868D01*
X475688Y264703D01*
X474874Y265328D01*
Y271811D01*
X486267D01*
X486467Y271329D01*
X487269Y270284D01*
X488313Y269483D01*
X489529Y268979D01*
X490835Y268807D01*
X492140Y268979D01*
X493356Y269483D01*
X494401Y270284D01*
X495202Y271329D01*
X495706Y272545D01*
X495878Y273850D01*
X495706Y275156D01*
X495202Y276372D01*
X494401Y277416D01*
X493356Y278218D01*
X492140Y278722D01*
X490835Y278893D01*
X489529Y278722D01*
X488313Y278218D01*
X487269Y277416D01*
X486467Y276372D01*
X486267Y275890D01*
X474874D01*
Y297850D01*
X474719Y298631D01*
X474277Y299292D01*
X470277Y303292D01*
X469615Y303734D01*
X468835Y303890D01*
D02*
G37*
G36*
X561819Y262748D02*
Y258835D01*
X565732D01*
X565691Y259152D01*
X565188Y260364D01*
X564390Y261405D01*
X563348Y262204D01*
X562136Y262706D01*
X561819Y262748D01*
D02*
G37*
G36*
X421819D02*
Y258835D01*
X425732D01*
X425691Y259152D01*
X425188Y260364D01*
X424390Y261405D01*
X423348Y262204D01*
X422136Y262706D01*
X421819Y262748D01*
D02*
G37*
G36*
X559850D02*
X559534Y262706D01*
X558321Y262204D01*
X557280Y261405D01*
X556481Y260364D01*
X555979Y259152D01*
X555937Y258835D01*
X559850D01*
Y262748D01*
D02*
G37*
G36*
X419850D02*
X419533Y262706D01*
X418321Y262204D01*
X417280Y261405D01*
X416481Y260364D01*
X415979Y259152D01*
X415937Y258835D01*
X419850D01*
Y262748D01*
D02*
G37*
G36*
X482835Y265885D02*
X481790Y265747D01*
X480817Y265344D01*
X479982Y264703D01*
X479341Y263868D01*
X478938Y262895D01*
X478800Y261850D01*
X478938Y260806D01*
X479341Y259833D01*
X479982Y258998D01*
X480817Y258356D01*
X481790Y257953D01*
X482835Y257816D01*
X483879Y257953D01*
X484852Y258356D01*
X485687Y258998D01*
X486329Y259833D01*
X486732Y260806D01*
X486869Y261850D01*
X486732Y262895D01*
X486329Y263868D01*
X485687Y264703D01*
X484852Y265344D01*
X483879Y265747D01*
X482835Y265885D01*
D02*
G37*
G36*
X565732Y256866D02*
X561819D01*
Y252953D01*
X562136Y252994D01*
X563348Y253497D01*
X564390Y254296D01*
X565188Y255337D01*
X565691Y256549D01*
X565732Y256866D01*
D02*
G37*
G36*
X425732D02*
X421819D01*
Y252953D01*
X422136Y252994D01*
X423348Y253497D01*
X424390Y254296D01*
X425188Y255337D01*
X425691Y256549D01*
X425732Y256866D01*
D02*
G37*
G36*
X559850D02*
X555937D01*
X555979Y256549D01*
X556481Y255337D01*
X557280Y254296D01*
X558321Y253497D01*
X559534Y252994D01*
X559850Y252953D01*
Y256866D01*
D02*
G37*
G36*
X419850D02*
X415937D01*
X415979Y256549D01*
X416481Y255337D01*
X417280Y254296D01*
X418321Y253497D01*
X419533Y252994D01*
X419850Y252953D01*
Y256866D01*
D02*
G37*
G36*
X462835Y289885D02*
X461790Y289747D01*
X460817Y289344D01*
X459982Y288703D01*
X459341Y287868D01*
X458938Y286895D01*
X458800Y285850D01*
X458938Y284806D01*
X459341Y283833D01*
X459982Y282998D01*
X460795Y282373D01*
Y257850D01*
X460951Y257070D01*
X461393Y256409D01*
X469393Y248409D01*
X470054Y247966D01*
X470835Y247811D01*
X496835D01*
X497615Y247966D01*
X498277Y248409D01*
X504277Y254409D01*
X504719Y255070D01*
X504874Y255850D01*
Y258373D01*
X505688Y258998D01*
X506329Y259833D01*
X506732Y260806D01*
X506869Y261850D01*
X506732Y262895D01*
X506329Y263868D01*
X505688Y264703D01*
X504852Y265344D01*
X503879Y265747D01*
X502835Y265885D01*
X501790Y265747D01*
X500817Y265344D01*
X499982Y264703D01*
X499341Y263868D01*
X498938Y262895D01*
X498800Y261850D01*
X498938Y260806D01*
X499341Y259833D01*
X499982Y258998D01*
X500796Y258373D01*
Y256695D01*
X495990Y251890D01*
X471679D01*
X464874Y258695D01*
Y282373D01*
X465688Y282998D01*
X466329Y283833D01*
X466732Y284806D01*
X466869Y285850D01*
X466732Y286895D01*
X466329Y287868D01*
X465688Y288703D01*
X464852Y289344D01*
X463879Y289747D01*
X462835Y289885D01*
D02*
G37*
G36*
X547819Y241739D02*
Y238835D01*
X550724D01*
X550716Y238891D01*
X550315Y239860D01*
X549676Y240692D01*
X548844Y241331D01*
X547875Y241732D01*
X547819Y241739D01*
D02*
G37*
G36*
X545850D02*
X545794Y241732D01*
X544825Y241331D01*
X543993Y240692D01*
X543354Y239860D01*
X542953Y238891D01*
X542946Y238835D01*
X545850D01*
Y241739D01*
D02*
G37*
G36*
X550724Y236866D02*
X547819D01*
Y233961D01*
X547875Y233969D01*
X548844Y234370D01*
X549676Y235009D01*
X550315Y235841D01*
X550716Y236810D01*
X550724Y236866D01*
D02*
G37*
G36*
X545850D02*
X542946D01*
X542953Y236810D01*
X543354Y235841D01*
X543993Y235009D01*
X544825Y234370D01*
X545794Y233969D01*
X545850Y233961D01*
Y236866D01*
D02*
G37*
G36*
X533819Y235739D02*
Y232835D01*
X536724D01*
X536716Y232891D01*
X536315Y233860D01*
X535676Y234692D01*
X534844Y235331D01*
X533875Y235732D01*
X533819Y235739D01*
D02*
G37*
G36*
X531850D02*
X531795Y235732D01*
X530825Y235331D01*
X529993Y234692D01*
X529354Y233860D01*
X528953Y232891D01*
X528946Y232835D01*
X531850D01*
Y235739D01*
D02*
G37*
G36*
X536835Y265850D02*
X528835D01*
Y257850D01*
X536835D01*
Y259811D01*
X541990D01*
X542934Y258867D01*
X542800Y257850D01*
X542938Y256806D01*
X543341Y255833D01*
X543982Y254998D01*
X544817Y254356D01*
X545790Y253953D01*
X546835Y253816D01*
X547852Y253950D01*
X558460Y243342D01*
X558315Y242229D01*
X558303Y242210D01*
X557269Y241416D01*
X556467Y240372D01*
X555963Y239156D01*
X555792Y237850D01*
X555963Y236545D01*
X556467Y235329D01*
X557269Y234284D01*
X558313Y233483D01*
X559529Y232979D01*
X560835Y232807D01*
X562140Y232979D01*
X563356Y233483D01*
X564401Y234284D01*
X565202Y235329D01*
X565706Y236545D01*
X565878Y237850D01*
X565706Y239156D01*
X565202Y240372D01*
X564401Y241416D01*
X563356Y242218D01*
X562874Y242418D01*
Y243850D01*
X562719Y244631D01*
X562277Y245292D01*
X550735Y256834D01*
X550869Y257850D01*
X550732Y258895D01*
X550329Y259868D01*
X549687Y260703D01*
X548852Y261344D01*
X547879Y261747D01*
X546835Y261885D01*
X545818Y261751D01*
X544277Y263292D01*
X543615Y263734D01*
X542835Y263890D01*
X536835D01*
Y265850D01*
D02*
G37*
G36*
X536724Y230866D02*
X533819D01*
Y227961D01*
X533875Y227969D01*
X534844Y228370D01*
X535676Y229009D01*
X536315Y229841D01*
X536716Y230810D01*
X536724Y230866D01*
D02*
G37*
G36*
X531850D02*
X528946D01*
X528953Y230810D01*
X529354Y229841D01*
X529993Y229009D01*
X530825Y228370D01*
X531795Y227969D01*
X531850Y227961D01*
Y230866D01*
D02*
G37*
G36*
X452835Y289890D02*
X452765Y289876D01*
X451790Y289747D01*
X450817Y289344D01*
X449982Y288703D01*
X449341Y287868D01*
X448938Y286895D01*
X448800Y285850D01*
X448938Y284806D01*
X449341Y283833D01*
X449982Y282998D01*
X450796Y282373D01*
Y244418D01*
X450313Y244218D01*
X449269Y243416D01*
X448467Y242372D01*
X447963Y241156D01*
X447791Y239850D01*
X447963Y238545D01*
X448467Y237329D01*
X449269Y236284D01*
X450313Y235483D01*
X451529Y234979D01*
X452835Y234807D01*
X454140Y234979D01*
X455356Y235483D01*
X456401Y236284D01*
X457202Y237329D01*
X457402Y237811D01*
X479990D01*
X480795Y237006D01*
Y235328D01*
X479982Y234703D01*
X479341Y233868D01*
X478938Y232895D01*
X478800Y231850D01*
X478938Y230806D01*
X479341Y229833D01*
X479982Y228998D01*
X480817Y228356D01*
X481790Y227953D01*
X482835Y227816D01*
X483879Y227953D01*
X484852Y228356D01*
X485687Y228998D01*
X486329Y229833D01*
X486732Y230806D01*
X486869Y231850D01*
X486732Y232895D01*
X486329Y233868D01*
X485687Y234703D01*
X484874Y235328D01*
Y237850D01*
X484719Y238631D01*
X484277Y239292D01*
X482277Y241292D01*
X481615Y241734D01*
X480835Y241890D01*
X457402D01*
X457202Y242372D01*
X456401Y243416D01*
X455356Y244218D01*
X454874Y244418D01*
Y282373D01*
X455688Y282998D01*
X456329Y283833D01*
X456732Y284806D01*
X456869Y285850D01*
X456732Y286895D01*
X456329Y287868D01*
X455688Y288703D01*
X454852Y289344D01*
X453879Y289747D01*
X452904Y289876D01*
X452835Y289890D01*
D02*
G37*
G36*
X522835Y235885D02*
X521790Y235747D01*
X520817Y235344D01*
X519982Y234703D01*
X519341Y233868D01*
X518938Y232895D01*
X518800Y231850D01*
X518938Y230806D01*
X519341Y229833D01*
X519982Y228998D01*
X520795Y228373D01*
Y226673D01*
X520951Y225893D01*
X521393Y225231D01*
X524216Y222409D01*
X524877Y221966D01*
X525658Y221811D01*
X539356D01*
X540137Y221966D01*
X540798Y222409D01*
X541569Y223179D01*
X542051Y222979D01*
X543356Y222807D01*
X544662Y222979D01*
X545878Y223483D01*
X546922Y224284D01*
X547724Y225329D01*
X548228Y226545D01*
X548399Y227850D01*
X548228Y229156D01*
X547724Y230372D01*
X546922Y231416D01*
X545878Y232218D01*
X544662Y232722D01*
X543356Y232893D01*
X542051Y232722D01*
X540835Y232218D01*
X539790Y231416D01*
X538989Y230372D01*
X538485Y229156D01*
X538313Y227850D01*
X538440Y226890D01*
X537929Y226096D01*
X537674Y225890D01*
X526502D01*
X524954Y227438D01*
X524996Y228467D01*
X525688Y228998D01*
X526329Y229833D01*
X526732Y230806D01*
X526869Y231850D01*
X526732Y232895D01*
X526329Y233868D01*
X525688Y234703D01*
X524852Y235344D01*
X523879Y235747D01*
X522835Y235885D01*
D02*
G37*
G36*
X556835Y218901D02*
X555790Y218763D01*
X554817Y218360D01*
X553982Y217719D01*
X553341Y216883D01*
X552938Y215910D01*
X552800Y214866D01*
X552938Y213822D01*
X553341Y212849D01*
X553982Y212013D01*
X554817Y211372D01*
X555790Y210969D01*
X556835Y210832D01*
X557879Y210969D01*
X558852Y211372D01*
X559688Y212013D01*
X560329Y212849D01*
X560732Y213822D01*
X560869Y214866D01*
X560732Y215910D01*
X560329Y216883D01*
X559688Y217719D01*
X558852Y218360D01*
X557879Y218763D01*
X556835Y218901D01*
D02*
G37*
G36*
X546835D02*
X545790Y218763D01*
X544817Y218360D01*
X543982Y217719D01*
X543341Y216883D01*
X542938Y215910D01*
X542800Y214866D01*
X542938Y213822D01*
X543341Y212849D01*
X543982Y212013D01*
X544817Y211372D01*
X545790Y210969D01*
X546835Y210832D01*
X547879Y210969D01*
X548852Y211372D01*
X549687Y212013D01*
X550329Y212849D01*
X550732Y213822D01*
X550869Y214866D01*
X550732Y215910D01*
X550329Y216883D01*
X549687Y217719D01*
X548852Y218360D01*
X547879Y218763D01*
X546835Y218901D01*
D02*
G37*
G36*
X536835D02*
X535790Y218763D01*
X534817Y218360D01*
X533982Y217719D01*
X533341Y216883D01*
X532938Y215910D01*
X532800Y214866D01*
X532938Y213822D01*
X533341Y212849D01*
X533982Y212013D01*
X534817Y211372D01*
X535790Y210969D01*
X536835Y210832D01*
X537879Y210969D01*
X538852Y211372D01*
X539687Y212013D01*
X540329Y212849D01*
X540732Y213822D01*
X540869Y214866D01*
X540732Y215910D01*
X540329Y216883D01*
X539687Y217719D01*
X538852Y218360D01*
X537879Y218763D01*
X536835Y218901D01*
D02*
G37*
G36*
X526835D02*
X525790Y218763D01*
X524817Y218360D01*
X523982Y217719D01*
X523341Y216883D01*
X522938Y215910D01*
X522800Y214866D01*
X522938Y213822D01*
X523341Y212849D01*
X523982Y212013D01*
X524817Y211372D01*
X525790Y210969D01*
X526835Y210832D01*
X527879Y210969D01*
X528852Y211372D01*
X529688Y212013D01*
X530329Y212849D01*
X530732Y213822D01*
X530869Y214866D01*
X530732Y215910D01*
X530329Y216883D01*
X529688Y217719D01*
X528852Y218360D01*
X527879Y218763D01*
X526835Y218901D01*
D02*
G37*
G36*
X512835Y235885D02*
X511790Y235747D01*
X510817Y235344D01*
X509982Y234703D01*
X509341Y233868D01*
X508938Y232895D01*
X508800Y231850D01*
X508938Y230806D01*
X509341Y229833D01*
X509982Y228998D01*
X510795Y228373D01*
Y225850D01*
X510951Y225070D01*
X511393Y224409D01*
X514795Y221006D01*
Y218343D01*
X513982Y217719D01*
X513341Y216883D01*
X512938Y215910D01*
X512800Y214866D01*
X512938Y213822D01*
X513341Y212849D01*
X513982Y212013D01*
X514817Y211372D01*
X515790Y210969D01*
X516835Y210832D01*
X517879Y210969D01*
X518852Y211372D01*
X519688Y212013D01*
X520329Y212849D01*
X520732Y213822D01*
X520869Y214866D01*
X520732Y215910D01*
X520329Y216883D01*
X519688Y217719D01*
X518874Y218343D01*
Y221850D01*
X518719Y222631D01*
X518277Y223292D01*
X514874Y226695D01*
Y228373D01*
X515688Y228998D01*
X516329Y229833D01*
X516732Y230806D01*
X516869Y231850D01*
X516732Y232895D01*
X516329Y233868D01*
X515688Y234703D01*
X514852Y235344D01*
X513879Y235747D01*
X512835Y235885D01*
D02*
G37*
G36*
X506835Y218901D02*
X505790Y218763D01*
X504817Y218360D01*
X503982Y217719D01*
X503341Y216883D01*
X502938Y215910D01*
X502800Y214866D01*
X502938Y213822D01*
X503341Y212849D01*
X503982Y212013D01*
X504817Y211372D01*
X505790Y210969D01*
X506835Y210832D01*
X507879Y210969D01*
X508852Y211372D01*
X509688Y212013D01*
X510329Y212849D01*
X510732Y213822D01*
X510869Y214866D01*
X510732Y215910D01*
X510329Y216883D01*
X509688Y217719D01*
X508852Y218360D01*
X507879Y218763D01*
X506835Y218901D01*
D02*
G37*
G36*
X502835Y235885D02*
X501790Y235747D01*
X500817Y235344D01*
X499982Y234703D01*
X499341Y233868D01*
X498938Y232895D01*
X498800Y231850D01*
X498938Y230806D01*
X499341Y229833D01*
X499982Y228998D01*
X500012Y228975D01*
X500077Y227977D01*
X495393Y223292D01*
X494951Y222631D01*
X494796Y221850D01*
Y218343D01*
X493982Y217719D01*
X493341Y216883D01*
X492938Y215910D01*
X492800Y214866D01*
X492938Y213822D01*
X493341Y212849D01*
X493982Y212013D01*
X494817Y211372D01*
X495790Y210969D01*
X496835Y210832D01*
X497879Y210969D01*
X498852Y211372D01*
X499687Y212013D01*
X500329Y212849D01*
X500732Y213822D01*
X500869Y214866D01*
X500732Y215910D01*
X500329Y216883D01*
X499687Y217719D01*
X498874Y218343D01*
Y221006D01*
X504277Y226409D01*
X504719Y227070D01*
X504874Y227850D01*
Y228373D01*
X505688Y228998D01*
X506329Y229833D01*
X506732Y230806D01*
X506869Y231850D01*
X506732Y232895D01*
X506329Y233868D01*
X505688Y234703D01*
X504852Y235344D01*
X503879Y235747D01*
X502835Y235885D01*
D02*
G37*
G36*
X492835D02*
X491790Y235747D01*
X490817Y235344D01*
X489982Y234703D01*
X489341Y233868D01*
X488938Y232895D01*
X488800Y231850D01*
X488938Y230806D01*
X489341Y229833D01*
X489982Y228998D01*
X490012Y228975D01*
X490077Y227977D01*
X485393Y223292D01*
X484951Y222631D01*
X484796Y221850D01*
Y218343D01*
X483982Y217719D01*
X483341Y216883D01*
X482938Y215910D01*
X482800Y214866D01*
X482938Y213822D01*
X483341Y212849D01*
X483982Y212013D01*
X484817Y211372D01*
X485790Y210969D01*
X486835Y210832D01*
X487879Y210969D01*
X488852Y211372D01*
X489687Y212013D01*
X490329Y212849D01*
X490732Y213822D01*
X490869Y214866D01*
X490732Y215910D01*
X490329Y216883D01*
X489687Y217719D01*
X488874Y218343D01*
Y221006D01*
X494277Y226409D01*
X494719Y227070D01*
X494874Y227850D01*
Y228373D01*
X495687Y228998D01*
X496329Y229833D01*
X496732Y230806D01*
X496869Y231850D01*
X496732Y232895D01*
X496329Y233868D01*
X495687Y234703D01*
X494852Y235344D01*
X493879Y235747D01*
X492835Y235885D01*
D02*
G37*
G36*
X442835Y289890D02*
X442638Y289850D01*
X438835D01*
Y281850D01*
X440796D01*
Y233850D01*
X440951Y233070D01*
X441393Y232408D01*
X449393Y224409D01*
X450054Y223966D01*
X450835Y223811D01*
X471990D01*
X474795Y221006D01*
Y218343D01*
X473982Y217719D01*
X473341Y216883D01*
X472938Y215910D01*
X472800Y214866D01*
X472938Y213822D01*
X473341Y212849D01*
X473982Y212013D01*
X474817Y211372D01*
X475790Y210969D01*
X476835Y210832D01*
X477879Y210969D01*
X478852Y211372D01*
X479688Y212013D01*
X480329Y212849D01*
X480732Y213822D01*
X480869Y214866D01*
X480732Y215910D01*
X480329Y216883D01*
X479688Y217719D01*
X478874Y218343D01*
Y221850D01*
X478719Y222631D01*
X478277Y223292D01*
X474874Y226695D01*
Y228373D01*
X475688Y228998D01*
X476329Y229833D01*
X476732Y230806D01*
X476869Y231850D01*
X476732Y232895D01*
X476329Y233868D01*
X475688Y234703D01*
X474852Y235344D01*
X473879Y235747D01*
X472835Y235885D01*
X471790Y235747D01*
X470817Y235344D01*
X469982Y234703D01*
X469341Y233868D01*
X468938Y232895D01*
X468800Y231850D01*
X468938Y230806D01*
X469341Y229833D01*
X469982Y228998D01*
X470122Y228890D01*
X469783Y227890D01*
X451679D01*
X444874Y234695D01*
Y281850D01*
X446835D01*
Y289850D01*
X443032D01*
X442835Y289890D01*
D02*
G37*
G36*
X466835Y218901D02*
X465790Y218763D01*
X464817Y218360D01*
X463982Y217719D01*
X463341Y216883D01*
X462938Y215910D01*
X462800Y214866D01*
X462938Y213822D01*
X463341Y212849D01*
X463982Y212013D01*
X464817Y211372D01*
X465790Y210969D01*
X466835Y210832D01*
X467879Y210969D01*
X468852Y211372D01*
X469688Y212013D01*
X470329Y212849D01*
X470732Y213822D01*
X470869Y214866D01*
X470732Y215910D01*
X470329Y216883D01*
X469688Y217719D01*
X468852Y218360D01*
X467879Y218763D01*
X466835Y218901D01*
D02*
G37*
G36*
X456835D02*
X455790Y218763D01*
X454817Y218360D01*
X453982Y217719D01*
X453341Y216883D01*
X452938Y215910D01*
X452800Y214866D01*
X452938Y213822D01*
X453341Y212849D01*
X453982Y212013D01*
X454817Y211372D01*
X455790Y210969D01*
X456835Y210832D01*
X457879Y210969D01*
X458852Y211372D01*
X459688Y212013D01*
X460329Y212849D01*
X460732Y213822D01*
X460869Y214866D01*
X460732Y215910D01*
X460329Y216883D01*
X459688Y217719D01*
X458852Y218360D01*
X457879Y218763D01*
X456835Y218901D01*
D02*
G37*
G36*
X446835D02*
X445790Y218763D01*
X444817Y218360D01*
X443982Y217719D01*
X443341Y216883D01*
X442938Y215910D01*
X442800Y214866D01*
X442938Y213822D01*
X443341Y212849D01*
X443982Y212013D01*
X444817Y211372D01*
X445790Y210969D01*
X446835Y210832D01*
X447879Y210969D01*
X448852Y211372D01*
X449687Y212013D01*
X450329Y212849D01*
X450732Y213822D01*
X450869Y214866D01*
X450732Y215910D01*
X450329Y216883D01*
X449687Y217719D01*
X448852Y218360D01*
X447879Y218763D01*
X446835Y218901D01*
D02*
G37*
G36*
X436835D02*
X435790Y218763D01*
X434817Y218360D01*
X433982Y217719D01*
X433341Y216883D01*
X432938Y215910D01*
X432800Y214866D01*
X432938Y213822D01*
X433341Y212849D01*
X433982Y212013D01*
X434817Y211372D01*
X435790Y210969D01*
X436835Y210832D01*
X437879Y210969D01*
X438852Y211372D01*
X439687Y212013D01*
X440329Y212849D01*
X440732Y213822D01*
X440869Y214866D01*
X440732Y215910D01*
X440329Y216883D01*
X439687Y217719D01*
X438852Y218360D01*
X437879Y218763D01*
X436835Y218901D01*
D02*
G37*
G36*
X426835D02*
X425790Y218763D01*
X424817Y218360D01*
X423982Y217719D01*
X423341Y216883D01*
X422938Y215910D01*
X422800Y214866D01*
X422938Y213822D01*
X423341Y212849D01*
X423982Y212013D01*
X424817Y211372D01*
X425790Y210969D01*
X426835Y210832D01*
X427879Y210969D01*
X428852Y211372D01*
X429688Y212013D01*
X430329Y212849D01*
X430732Y213822D01*
X430869Y214866D01*
X430732Y215910D01*
X430329Y216883D01*
X429688Y217719D01*
X428852Y218360D01*
X427879Y218763D01*
X426835Y218901D01*
D02*
G37*
G36*
X416835D02*
X415790Y218763D01*
X414817Y218360D01*
X413982Y217719D01*
X413341Y216883D01*
X412938Y215910D01*
X412800Y214866D01*
X412938Y213822D01*
X413341Y212849D01*
X413982Y212013D01*
X414817Y211372D01*
X415790Y210969D01*
X416835Y210832D01*
X417879Y210969D01*
X418852Y211372D01*
X419688Y212013D01*
X420329Y212849D01*
X420732Y213822D01*
X420869Y214866D01*
X420732Y215910D01*
X420329Y216883D01*
X419688Y217719D01*
X418852Y218360D01*
X417879Y218763D01*
X416835Y218901D01*
D02*
G37*
G36*
X557819Y208755D02*
Y205850D01*
X560724D01*
X560716Y205906D01*
X560315Y206875D01*
X559676Y207708D01*
X558844Y208346D01*
X557875Y208748D01*
X557819Y208755D01*
D02*
G37*
G36*
X547819D02*
Y205850D01*
X550724D01*
X550716Y205906D01*
X550315Y206875D01*
X549676Y207708D01*
X548844Y208346D01*
X547875Y208748D01*
X547819Y208755D01*
D02*
G37*
G36*
X537819D02*
Y205850D01*
X540724D01*
X540716Y205906D01*
X540315Y206875D01*
X539676Y207708D01*
X538844Y208346D01*
X537875Y208748D01*
X537819Y208755D01*
D02*
G37*
G36*
X527819D02*
Y205850D01*
X530724D01*
X530716Y205906D01*
X530315Y206875D01*
X529676Y207708D01*
X528844Y208346D01*
X527875Y208748D01*
X527819Y208755D01*
D02*
G37*
G36*
X517819D02*
Y205850D01*
X520724D01*
X520716Y205906D01*
X520315Y206875D01*
X519676Y207708D01*
X518844Y208346D01*
X517875Y208748D01*
X517819Y208755D01*
D02*
G37*
G36*
X507819D02*
Y205850D01*
X510724D01*
X510716Y205906D01*
X510315Y206875D01*
X509676Y207708D01*
X508844Y208346D01*
X507875Y208748D01*
X507819Y208755D01*
D02*
G37*
G36*
X497819D02*
Y205850D01*
X500724D01*
X500716Y205906D01*
X500315Y206875D01*
X499676Y207708D01*
X498844Y208346D01*
X497875Y208748D01*
X497819Y208755D01*
D02*
G37*
G36*
X487819D02*
Y205850D01*
X490724D01*
X490716Y205906D01*
X490315Y206875D01*
X489676Y207708D01*
X488844Y208346D01*
X487875Y208748D01*
X487819Y208755D01*
D02*
G37*
G36*
X477819D02*
Y205850D01*
X480724D01*
X480716Y205906D01*
X480315Y206875D01*
X479676Y207708D01*
X478844Y208346D01*
X477875Y208748D01*
X477819Y208755D01*
D02*
G37*
G36*
X467819D02*
Y205850D01*
X470724D01*
X470716Y205906D01*
X470315Y206875D01*
X469676Y207708D01*
X468844Y208346D01*
X467875Y208748D01*
X467819Y208755D01*
D02*
G37*
G36*
X457819D02*
Y205850D01*
X460724D01*
X460716Y205906D01*
X460315Y206875D01*
X459676Y207708D01*
X458844Y208346D01*
X457875Y208748D01*
X457819Y208755D01*
D02*
G37*
G36*
X447819D02*
Y205850D01*
X450724D01*
X450716Y205906D01*
X450315Y206875D01*
X449676Y207708D01*
X448844Y208346D01*
X447875Y208748D01*
X447819Y208755D01*
D02*
G37*
G36*
X437819D02*
Y205850D01*
X440724D01*
X440716Y205906D01*
X440315Y206875D01*
X439676Y207708D01*
X438844Y208346D01*
X437875Y208748D01*
X437819Y208755D01*
D02*
G37*
G36*
X427819D02*
Y205850D01*
X430724D01*
X430716Y205906D01*
X430315Y206875D01*
X429676Y207708D01*
X428844Y208346D01*
X427875Y208748D01*
X427819Y208755D01*
D02*
G37*
G36*
X417819D02*
Y205850D01*
X420724D01*
X420716Y205906D01*
X420315Y206875D01*
X419676Y207708D01*
X418844Y208346D01*
X417875Y208748D01*
X417819Y208755D01*
D02*
G37*
G36*
X407819D02*
Y205850D01*
X410724D01*
X410716Y205906D01*
X410315Y206875D01*
X409676Y207708D01*
X408844Y208346D01*
X407875Y208748D01*
X407819Y208755D01*
D02*
G37*
G36*
X555850D02*
X555794Y208748D01*
X554825Y208346D01*
X553993Y207708D01*
X553354Y206875D01*
X552953Y205906D01*
X552946Y205850D01*
X555850D01*
Y208755D01*
D02*
G37*
G36*
X545850D02*
X545794Y208748D01*
X544825Y208346D01*
X543993Y207708D01*
X543354Y206875D01*
X542953Y205906D01*
X542946Y205850D01*
X545850D01*
Y208755D01*
D02*
G37*
G36*
X535850D02*
X535794Y208748D01*
X534825Y208346D01*
X533993Y207708D01*
X533354Y206875D01*
X532953Y205906D01*
X532946Y205850D01*
X535850D01*
Y208755D01*
D02*
G37*
G36*
X525850D02*
X525795Y208748D01*
X524825Y208346D01*
X523993Y207708D01*
X523354Y206875D01*
X522953Y205906D01*
X522946Y205850D01*
X525850D01*
Y208755D01*
D02*
G37*
G36*
X515850D02*
X515795Y208748D01*
X514825Y208346D01*
X513993Y207708D01*
X513354Y206875D01*
X512953Y205906D01*
X512946Y205850D01*
X515850D01*
Y208755D01*
D02*
G37*
G36*
X505850D02*
X505794Y208748D01*
X504825Y208346D01*
X503993Y207708D01*
X503354Y206875D01*
X502953Y205906D01*
X502946Y205850D01*
X505850D01*
Y208755D01*
D02*
G37*
G36*
X495850D02*
X495794Y208748D01*
X494825Y208346D01*
X493993Y207708D01*
X493354Y206875D01*
X492953Y205906D01*
X492946Y205850D01*
X495850D01*
Y208755D01*
D02*
G37*
G36*
X485850D02*
X485794Y208748D01*
X484825Y208346D01*
X483993Y207708D01*
X483354Y206875D01*
X482953Y205906D01*
X482946Y205850D01*
X485850D01*
Y208755D01*
D02*
G37*
G36*
X475850D02*
X475795Y208748D01*
X474825Y208346D01*
X473993Y207708D01*
X473354Y206875D01*
X472953Y205906D01*
X472946Y205850D01*
X475850D01*
Y208755D01*
D02*
G37*
G36*
X465850D02*
X465795Y208748D01*
X464825Y208346D01*
X463993Y207708D01*
X463354Y206875D01*
X462953Y205906D01*
X462946Y205850D01*
X465850D01*
Y208755D01*
D02*
G37*
G36*
X455850D02*
X455794Y208748D01*
X454825Y208346D01*
X453993Y207708D01*
X453354Y206875D01*
X452953Y205906D01*
X452946Y205850D01*
X455850D01*
Y208755D01*
D02*
G37*
G36*
X445850D02*
X445794Y208748D01*
X444825Y208346D01*
X443993Y207708D01*
X443354Y206875D01*
X442953Y205906D01*
X442946Y205850D01*
X445850D01*
Y208755D01*
D02*
G37*
G36*
X435850D02*
X435794Y208748D01*
X434825Y208346D01*
X433993Y207708D01*
X433354Y206875D01*
X432953Y205906D01*
X432946Y205850D01*
X435850D01*
Y208755D01*
D02*
G37*
G36*
X425850D02*
X425795Y208748D01*
X424825Y208346D01*
X423993Y207708D01*
X423354Y206875D01*
X422953Y205906D01*
X422946Y205850D01*
X425850D01*
Y208755D01*
D02*
G37*
G36*
X415850D02*
X415795Y208748D01*
X414825Y208346D01*
X413993Y207708D01*
X413354Y206875D01*
X412953Y205906D01*
X412946Y205850D01*
X415850D01*
Y208755D01*
D02*
G37*
G36*
X565850Y208850D02*
X562850D01*
Y205850D01*
X565850D01*
Y208850D01*
D02*
G37*
G36*
X359850Y303879D02*
X358674Y303764D01*
X357543Y303420D01*
X356501Y302863D01*
X355587Y302114D01*
X354837Y301200D01*
X354398Y300379D01*
X353900Y300266D01*
X353801D01*
X353302Y300379D01*
X352863Y301200D01*
X352114Y302114D01*
X351200Y302863D01*
X350158Y303420D01*
X349027Y303764D01*
X347850Y303879D01*
X346674Y303764D01*
X345543Y303420D01*
X344501Y302863D01*
X343587Y302114D01*
X342837Y301200D01*
X342398Y300379D01*
X341900Y300266D01*
X341801D01*
X341302Y300379D01*
X340863Y301200D01*
X340114Y302114D01*
X339200Y302863D01*
X338158Y303420D01*
X337027Y303764D01*
X335850Y303879D01*
X334674Y303764D01*
X333543Y303420D01*
X332501Y302863D01*
X331587Y302114D01*
X330837Y301200D01*
X330398Y300379D01*
X329900Y300266D01*
X329801D01*
X329302Y300379D01*
X328863Y301200D01*
X328114Y302114D01*
X327200Y302863D01*
X326158Y303420D01*
X325027Y303764D01*
X323850Y303879D01*
X322674Y303764D01*
X321543Y303420D01*
X320501Y302863D01*
X319587Y302114D01*
X318837Y301200D01*
X318398Y300379D01*
X317900Y300266D01*
X317801D01*
X317302Y300379D01*
X316863Y301200D01*
X316114Y302114D01*
X315200Y302863D01*
X314158Y303420D01*
X313027Y303764D01*
X311850Y303879D01*
X310674Y303764D01*
X309543Y303420D01*
X308501Y302863D01*
X307587Y302114D01*
X306837Y301200D01*
X306280Y300158D01*
X305937Y299027D01*
X305821Y297850D01*
X305937Y296674D01*
X306280Y295543D01*
X306837Y294501D01*
X307587Y293587D01*
X308501Y292837D01*
X309322Y292398D01*
X309435Y291900D01*
Y291801D01*
X309322Y291302D01*
X308501Y290863D01*
X307587Y290114D01*
X306837Y289200D01*
X306280Y288158D01*
X305937Y287027D01*
X305821Y285850D01*
X305937Y284674D01*
X306280Y283543D01*
X306837Y282501D01*
X307587Y281587D01*
X308501Y280837D01*
X309543Y280280D01*
X310674Y279937D01*
X311850Y279821D01*
X313027Y279937D01*
X314158Y280280D01*
X315200Y280837D01*
X316114Y281587D01*
X316863Y282501D01*
X317302Y283322D01*
X317801Y283435D01*
X317900D01*
X318398Y283322D01*
X318837Y282501D01*
X319587Y281587D01*
X320501Y280837D01*
X321543Y280280D01*
X322674Y279937D01*
X323850Y279821D01*
X325027Y279937D01*
X326158Y280280D01*
X327200Y280837D01*
X328114Y281587D01*
X328863Y282501D01*
X329302Y283322D01*
X329801Y283435D01*
X329900D01*
X330398Y283322D01*
X330837Y282501D01*
X331587Y281587D01*
X332501Y280837D01*
X333543Y280280D01*
X334674Y279937D01*
X335850Y279821D01*
X337027Y279937D01*
X338158Y280280D01*
X338405Y280412D01*
X340408Y278409D01*
X344967Y273850D01*
X338408Y267292D01*
X337966Y266631D01*
X337811Y265850D01*
Y265328D01*
X336998Y264703D01*
X336356Y263868D01*
X335953Y262895D01*
X335816Y261850D01*
X335953Y260806D01*
X336356Y259833D01*
X336998Y258998D01*
X337833Y258356D01*
X338806Y257953D01*
X339850Y257816D01*
X340895Y257953D01*
X341868Y258356D01*
X342703Y258998D01*
X343344Y259833D01*
X343747Y260806D01*
X343885Y261850D01*
X343747Y262895D01*
X343344Y263868D01*
X342703Y264703D01*
X342673Y264726D01*
X342608Y265724D01*
X349292Y272409D01*
X355292Y278409D01*
X357296Y280412D01*
X357543Y280280D01*
X358674Y279937D01*
X359850Y279821D01*
X361027Y279937D01*
X362158Y280280D01*
X363200Y280837D01*
X364114Y281587D01*
X364863Y282501D01*
X365421Y283543D01*
X365764Y284674D01*
X365879Y285850D01*
X365764Y287027D01*
X365421Y288158D01*
X364863Y289200D01*
X364114Y290114D01*
X363200Y290863D01*
X362379Y291302D01*
X362266Y291801D01*
Y291900D01*
X362379Y292398D01*
X363200Y292837D01*
X364114Y293587D01*
X364863Y294501D01*
X365421Y295543D01*
X365764Y296674D01*
X365879Y297850D01*
X365764Y299027D01*
X365421Y300158D01*
X364863Y301200D01*
X364114Y302114D01*
X363200Y302863D01*
X362158Y303420D01*
X361027Y303764D01*
X359850Y303879D01*
D02*
G37*
G36*
X375850Y312876D02*
X259850D01*
X259067Y312773D01*
X258337Y312471D01*
X257711Y311990D01*
X248525Y302805D01*
X247850Y302893D01*
X246545Y302722D01*
X245329Y302218D01*
X244284Y301416D01*
X243483Y300372D01*
X242979Y299156D01*
X242807Y297850D01*
X242979Y296545D01*
X243483Y295329D01*
X244284Y294284D01*
X245329Y293483D01*
X246545Y292979D01*
X247850Y292807D01*
X249156Y292979D01*
X250372Y293483D01*
X251416Y294284D01*
X252218Y295329D01*
X252722Y296545D01*
X252893Y297850D01*
X252805Y298525D01*
X261104Y306824D01*
X374597D01*
X382896Y298525D01*
X382807Y297850D01*
X382979Y296545D01*
X383483Y295329D01*
X384284Y294284D01*
X385329Y293483D01*
X386545Y292979D01*
X387850Y292807D01*
X389156Y292979D01*
X390372Y293483D01*
X391416Y294284D01*
X392218Y295329D01*
X392722Y296545D01*
X392894Y297850D01*
X392722Y299156D01*
X392218Y300372D01*
X391416Y301416D01*
X390372Y302218D01*
X389156Y302722D01*
X387850Y302893D01*
X387175Y302805D01*
X377990Y311990D01*
X377363Y312471D01*
X376634Y312773D01*
X375850Y312876D01*
D02*
G37*
G36*
X373850Y302893D02*
X372545Y302722D01*
X371329Y302218D01*
X370284Y301416D01*
X369483Y300372D01*
X368979Y299156D01*
X368807Y297850D01*
X368979Y296545D01*
X369483Y295329D01*
X370284Y294284D01*
X371329Y293483D01*
X372545Y292979D01*
X373850Y292807D01*
X375156Y292979D01*
X376372Y293483D01*
X377416Y294284D01*
X378218Y295329D01*
X378722Y296545D01*
X378893Y297850D01*
X378722Y299156D01*
X378218Y300372D01*
X377416Y301416D01*
X376372Y302218D01*
X375156Y302722D01*
X373850Y302893D01*
D02*
G37*
G36*
X293739Y294866D02*
X290835D01*
Y291961D01*
X290891Y291969D01*
X291860Y292370D01*
X292692Y293009D01*
X293331Y293841D01*
X293732Y294810D01*
X293739Y294866D01*
D02*
G37*
G36*
X288866D02*
X285961D01*
X285969Y294810D01*
X286370Y293841D01*
X287009Y293009D01*
X287841Y292370D01*
X288810Y291969D01*
X288866Y291961D01*
Y294866D01*
D02*
G37*
G36*
X269850Y299890D02*
X269781Y299876D01*
X268806Y299747D01*
X267833Y299344D01*
X266998Y298703D01*
X266373Y297890D01*
X261850D01*
X261070Y297734D01*
X260408Y297292D01*
X253006Y289890D01*
X243850D01*
X243070Y289734D01*
X242408Y289292D01*
X236408Y283292D01*
X235966Y282631D01*
X235811Y281850D01*
Y247850D01*
X235966Y247070D01*
X236408Y246409D01*
X243179Y239638D01*
X242979Y239156D01*
X242807Y237850D01*
X242979Y236545D01*
X243483Y235329D01*
X244284Y234284D01*
X245329Y233483D01*
X246545Y232979D01*
X247850Y232807D01*
X249156Y232979D01*
X250372Y233483D01*
X251416Y234284D01*
X252218Y235329D01*
X252722Y236545D01*
X252893Y237850D01*
X252722Y239156D01*
X252218Y240372D01*
X251416Y241416D01*
X250372Y242218D01*
X249156Y242722D01*
X247850Y242894D01*
X246545Y242722D01*
X246063Y242522D01*
X239890Y248695D01*
Y281006D01*
X244695Y285811D01*
X253850D01*
X254631Y285966D01*
X255292Y286408D01*
X262695Y293811D01*
X266373D01*
X266998Y292998D01*
X267833Y292356D01*
X268806Y291953D01*
X269850Y291816D01*
X270895Y291953D01*
X271868Y292356D01*
X272703Y292998D01*
X273344Y293833D01*
X273747Y294806D01*
X273885Y295850D01*
X273747Y296895D01*
X273344Y297868D01*
X272703Y298703D01*
X271868Y299344D01*
X270895Y299747D01*
X269920Y299876D01*
X269850Y299890D01*
D02*
G37*
G36*
X388835Y282748D02*
Y278835D01*
X392748D01*
X392706Y279152D01*
X392204Y280364D01*
X391405Y281405D01*
X390364Y282204D01*
X389152Y282706D01*
X388835Y282748D01*
D02*
G37*
G36*
X248835D02*
Y278835D01*
X252748D01*
X252706Y279152D01*
X252204Y280364D01*
X251405Y281405D01*
X250364Y282204D01*
X249151Y282706D01*
X248835Y282748D01*
D02*
G37*
G36*
X386866D02*
X386549Y282706D01*
X385337Y282204D01*
X384296Y281405D01*
X383497Y280364D01*
X382994Y279152D01*
X382953Y278835D01*
X386866D01*
Y282748D01*
D02*
G37*
G36*
X246866D02*
X246549Y282706D01*
X245337Y282204D01*
X244296Y281405D01*
X243497Y280364D01*
X242994Y279152D01*
X242953Y278835D01*
X246866D01*
Y282748D01*
D02*
G37*
G36*
X392748Y276866D02*
X388835D01*
Y272953D01*
X389152Y272994D01*
X390364Y273497D01*
X391405Y274296D01*
X392204Y275337D01*
X392706Y276549D01*
X392748Y276866D01*
D02*
G37*
G36*
X252748D02*
X248835D01*
Y272953D01*
X249151Y272994D01*
X250364Y273497D01*
X251405Y274296D01*
X252204Y275337D01*
X252706Y276549D01*
X252748Y276866D01*
D02*
G37*
G36*
X386866D02*
X382953D01*
X382994Y276549D01*
X383497Y275337D01*
X384296Y274296D01*
X385337Y273497D01*
X386549Y272994D01*
X386866Y272953D01*
Y276866D01*
D02*
G37*
G36*
X246866D02*
X242953D01*
X242994Y276549D01*
X243497Y275337D01*
X244296Y274296D01*
X245337Y273497D01*
X246549Y272994D01*
X246866Y272953D01*
Y276866D01*
D02*
G37*
G36*
X367850Y278893D02*
X366545Y278722D01*
X365329Y278218D01*
X364284Y277416D01*
X363483Y276372D01*
X363283Y275890D01*
X357850D01*
X357070Y275734D01*
X356409Y275292D01*
X348409Y267292D01*
X347966Y266631D01*
X347811Y265850D01*
Y265328D01*
X346998Y264703D01*
X346356Y263868D01*
X345953Y262895D01*
X345816Y261850D01*
X345953Y260806D01*
X346356Y259833D01*
X346998Y258998D01*
X347833Y258356D01*
X348806Y257953D01*
X349850Y257816D01*
X350895Y257953D01*
X351868Y258356D01*
X352703Y258998D01*
X353344Y259833D01*
X353747Y260806D01*
X353885Y261850D01*
X353747Y262895D01*
X353344Y263868D01*
X352703Y264703D01*
X352673Y264726D01*
X352608Y265724D01*
X358695Y271811D01*
X363283D01*
X363483Y271329D01*
X364284Y270284D01*
X365329Y269483D01*
X366545Y268979D01*
X367850Y268807D01*
X369156Y268979D01*
X370372Y269483D01*
X371416Y270284D01*
X372218Y271329D01*
X372722Y272545D01*
X372894Y273850D01*
X372722Y275156D01*
X372218Y276372D01*
X371416Y277416D01*
X370372Y278218D01*
X369156Y278722D01*
X367850Y278893D01*
D02*
G37*
G36*
X329850D02*
X328545Y278722D01*
X327329Y278218D01*
X326284Y277416D01*
X325483Y276372D01*
X324979Y275156D01*
X324807Y273850D01*
X324979Y272545D01*
X325483Y271329D01*
X325901Y270784D01*
X320867Y265751D01*
X319850Y265885D01*
X318806Y265747D01*
X317833Y265344D01*
X316998Y264703D01*
X316356Y263868D01*
X315953Y262895D01*
X315816Y261850D01*
X315953Y260806D01*
X316356Y259833D01*
X316998Y258998D01*
X317833Y258356D01*
X318806Y257953D01*
X319850Y257816D01*
X320895Y257953D01*
X321868Y258356D01*
X322703Y258998D01*
X323344Y259833D01*
X323747Y260806D01*
X323876Y261781D01*
X323890Y261850D01*
Y263006D01*
X329710Y268826D01*
X329850Y268807D01*
X331156Y268979D01*
X332372Y269483D01*
X333416Y270284D01*
X334218Y271329D01*
X334722Y272545D01*
X334893Y273850D01*
X334722Y275156D01*
X334218Y276372D01*
X333416Y277416D01*
X332372Y278218D01*
X331156Y278722D01*
X329850Y278893D01*
D02*
G37*
G36*
X295850Y303890D02*
X283850D01*
X283070Y303734D01*
X282408Y303292D01*
X278872Y299756D01*
X278806Y299747D01*
X277833Y299344D01*
X276998Y298703D01*
X276356Y297868D01*
X275953Y296895D01*
X275816Y295850D01*
X275953Y294806D01*
X276356Y293833D01*
X276998Y292998D01*
X277833Y292356D01*
X278806Y291953D01*
X279850Y291816D01*
X280895Y291953D01*
X281868Y292356D01*
X282703Y292998D01*
X283344Y293833D01*
X283747Y294806D01*
X283885Y295850D01*
X283747Y296895D01*
X283344Y297868D01*
X283087Y298203D01*
X284695Y299811D01*
X286825D01*
X287164Y298811D01*
X287009Y298692D01*
X286370Y297860D01*
X285969Y296890D01*
X285961Y296835D01*
X293739D01*
X293732Y296890D01*
X293331Y297860D01*
X292692Y298692D01*
X292537Y298811D01*
X292876Y299811D01*
X295006D01*
X297811Y297006D01*
Y273850D01*
Y265328D01*
X296998Y264703D01*
X296356Y263868D01*
X295953Y262895D01*
X295816Y261850D01*
X295953Y260806D01*
X296356Y259833D01*
X296998Y258998D01*
X297833Y258356D01*
X298806Y257953D01*
X299850Y257816D01*
X300895Y257953D01*
X301868Y258356D01*
X302703Y258998D01*
X303344Y259833D01*
X303747Y260806D01*
X303885Y261850D01*
X303747Y262895D01*
X303344Y263868D01*
X302703Y264703D01*
X301890Y265328D01*
Y271811D01*
X313283D01*
X313483Y271329D01*
X314284Y270284D01*
X315329Y269483D01*
X316545Y268979D01*
X317850Y268807D01*
X319156Y268979D01*
X320372Y269483D01*
X321416Y270284D01*
X322218Y271329D01*
X322722Y272545D01*
X322894Y273850D01*
X322722Y275156D01*
X322218Y276372D01*
X321416Y277416D01*
X320372Y278218D01*
X319156Y278722D01*
X317850Y278893D01*
X316545Y278722D01*
X315329Y278218D01*
X314284Y277416D01*
X313483Y276372D01*
X313283Y275890D01*
X301890D01*
Y297850D01*
X301734Y298631D01*
X301292Y299292D01*
X297292Y303292D01*
X296631Y303734D01*
X295850Y303890D01*
D02*
G37*
G36*
X388835Y262748D02*
Y258835D01*
X392748D01*
X392706Y259152D01*
X392204Y260364D01*
X391405Y261405D01*
X390364Y262204D01*
X389152Y262706D01*
X388835Y262748D01*
D02*
G37*
G36*
X248835D02*
Y258835D01*
X252748D01*
X252706Y259152D01*
X252204Y260364D01*
X251405Y261405D01*
X250364Y262204D01*
X249151Y262706D01*
X248835Y262748D01*
D02*
G37*
G36*
X386866D02*
X386549Y262706D01*
X385337Y262204D01*
X384296Y261405D01*
X383497Y260364D01*
X382994Y259152D01*
X382953Y258835D01*
X386866D01*
Y262748D01*
D02*
G37*
G36*
X246866D02*
X246549Y262706D01*
X245337Y262204D01*
X244296Y261405D01*
X243497Y260364D01*
X242994Y259152D01*
X242953Y258835D01*
X246866D01*
Y262748D01*
D02*
G37*
G36*
X309850Y265885D02*
X308806Y265747D01*
X307833Y265344D01*
X306998Y264703D01*
X306356Y263868D01*
X305953Y262895D01*
X305816Y261850D01*
X305953Y260806D01*
X306356Y259833D01*
X306998Y258998D01*
X307833Y258356D01*
X308806Y257953D01*
X309850Y257816D01*
X310895Y257953D01*
X311868Y258356D01*
X312703Y258998D01*
X313344Y259833D01*
X313747Y260806D01*
X313885Y261850D01*
X313747Y262895D01*
X313344Y263868D01*
X312703Y264703D01*
X311868Y265344D01*
X310895Y265747D01*
X309850Y265885D01*
D02*
G37*
G36*
X392748Y256866D02*
X388835D01*
Y252953D01*
X389152Y252994D01*
X390364Y253497D01*
X391405Y254296D01*
X392204Y255337D01*
X392706Y256549D01*
X392748Y256866D01*
D02*
G37*
G36*
X252748D02*
X248835D01*
Y252953D01*
X249151Y252994D01*
X250364Y253497D01*
X251405Y254296D01*
X252204Y255337D01*
X252706Y256549D01*
X252748Y256866D01*
D02*
G37*
G36*
X386866D02*
X382953D01*
X382994Y256549D01*
X383497Y255337D01*
X384296Y254296D01*
X385337Y253497D01*
X386549Y252994D01*
X386866Y252953D01*
Y256866D01*
D02*
G37*
G36*
X246866D02*
X242953D01*
X242994Y256549D01*
X243497Y255337D01*
X244296Y254296D01*
X245337Y253497D01*
X246549Y252994D01*
X246866Y252953D01*
Y256866D01*
D02*
G37*
G36*
X289850Y289885D02*
X288806Y289747D01*
X287833Y289344D01*
X286998Y288703D01*
X286356Y287868D01*
X285953Y286895D01*
X285816Y285850D01*
X285953Y284806D01*
X286356Y283833D01*
X286998Y282998D01*
X287811Y282373D01*
Y257850D01*
X287966Y257070D01*
X288408Y256409D01*
X296409Y248409D01*
X297070Y247966D01*
X297850Y247811D01*
X323850D01*
X324631Y247966D01*
X325292Y248409D01*
X331292Y254409D01*
X331734Y255070D01*
X331890Y255850D01*
Y258373D01*
X332703Y258998D01*
X333344Y259833D01*
X333747Y260806D01*
X333885Y261850D01*
X333747Y262895D01*
X333344Y263868D01*
X332703Y264703D01*
X331868Y265344D01*
X330895Y265747D01*
X329850Y265885D01*
X328806Y265747D01*
X327833Y265344D01*
X326998Y264703D01*
X326356Y263868D01*
X325953Y262895D01*
X325816Y261850D01*
X325953Y260806D01*
X326356Y259833D01*
X326998Y258998D01*
X327811Y258373D01*
Y256695D01*
X323006Y251890D01*
X298695D01*
X291890Y258695D01*
Y282373D01*
X292703Y282998D01*
X293344Y283833D01*
X293747Y284806D01*
X293885Y285850D01*
X293747Y286895D01*
X293344Y287868D01*
X292703Y288703D01*
X291868Y289344D01*
X290895Y289747D01*
X289850Y289885D01*
D02*
G37*
G36*
X374835Y241739D02*
Y238835D01*
X377739D01*
X377732Y238891D01*
X377331Y239860D01*
X376692Y240692D01*
X375860Y241331D01*
X374890Y241732D01*
X374835Y241739D01*
D02*
G37*
G36*
X372866D02*
X372810Y241732D01*
X371841Y241331D01*
X371009Y240692D01*
X370370Y239860D01*
X369969Y238891D01*
X369961Y238835D01*
X372866D01*
Y241739D01*
D02*
G37*
G36*
X377739Y236866D02*
X374835D01*
Y233961D01*
X374890Y233969D01*
X375860Y234370D01*
X376692Y235009D01*
X377331Y235841D01*
X377732Y236810D01*
X377739Y236866D01*
D02*
G37*
G36*
X372866D02*
X369961D01*
X369969Y236810D01*
X370370Y235841D01*
X371009Y235009D01*
X371841Y234370D01*
X372810Y233969D01*
X372866Y233961D01*
Y236866D01*
D02*
G37*
G36*
X360835Y235739D02*
Y232835D01*
X363739D01*
X363732Y232891D01*
X363331Y233860D01*
X362692Y234692D01*
X361860Y235331D01*
X360891Y235732D01*
X360835Y235739D01*
D02*
G37*
G36*
X358866D02*
X358810Y235732D01*
X357841Y235331D01*
X357009Y234692D01*
X356370Y233860D01*
X355969Y232891D01*
X355961Y232835D01*
X358866D01*
Y235739D01*
D02*
G37*
G36*
X363850Y265850D02*
X355850D01*
Y257850D01*
X363850D01*
Y259811D01*
X369006D01*
X369950Y258867D01*
X369816Y257850D01*
X369953Y256806D01*
X370356Y255833D01*
X370998Y254998D01*
X371833Y254356D01*
X372806Y253953D01*
X373850Y253816D01*
X374867Y253950D01*
X385475Y243342D01*
X385330Y242229D01*
X385318Y242210D01*
X384284Y241416D01*
X383483Y240372D01*
X382979Y239156D01*
X382807Y237850D01*
X382979Y236545D01*
X383483Y235329D01*
X384284Y234284D01*
X385329Y233483D01*
X386545Y232979D01*
X387850Y232807D01*
X389156Y232979D01*
X390372Y233483D01*
X391416Y234284D01*
X392218Y235329D01*
X392722Y236545D01*
X392894Y237850D01*
X392722Y239156D01*
X392218Y240372D01*
X391416Y241416D01*
X390372Y242218D01*
X389890Y242418D01*
Y243850D01*
X389734Y244631D01*
X389292Y245292D01*
X377751Y256834D01*
X377885Y257850D01*
X377747Y258895D01*
X377344Y259868D01*
X376703Y260703D01*
X375868Y261344D01*
X374895Y261747D01*
X373850Y261885D01*
X372834Y261751D01*
X371292Y263292D01*
X370631Y263734D01*
X369850Y263890D01*
X363850D01*
Y265850D01*
D02*
G37*
G36*
X363739Y230866D02*
X360835D01*
Y227961D01*
X360891Y227969D01*
X361860Y228370D01*
X362692Y229009D01*
X363331Y229841D01*
X363732Y230810D01*
X363739Y230866D01*
D02*
G37*
G36*
X358866D02*
X355961D01*
X355969Y230810D01*
X356370Y229841D01*
X357009Y229009D01*
X357841Y228370D01*
X358810Y227969D01*
X358866Y227961D01*
Y230866D01*
D02*
G37*
G36*
X279850Y289890D02*
X279781Y289876D01*
X278806Y289747D01*
X277833Y289344D01*
X276998Y288703D01*
X276356Y287868D01*
X275953Y286895D01*
X275816Y285850D01*
X275953Y284806D01*
X276356Y283833D01*
X276998Y282998D01*
X277811Y282373D01*
Y244418D01*
X277329Y244218D01*
X276284Y243416D01*
X275483Y242372D01*
X274979Y241156D01*
X274807Y239850D01*
X274979Y238545D01*
X275483Y237329D01*
X276284Y236284D01*
X277329Y235483D01*
X278545Y234979D01*
X279850Y234807D01*
X281156Y234979D01*
X282372Y235483D01*
X283416Y236284D01*
X284218Y237329D01*
X284418Y237811D01*
X307006D01*
X307811Y237006D01*
Y235328D01*
X306998Y234703D01*
X306356Y233868D01*
X305953Y232895D01*
X305816Y231850D01*
X305953Y230806D01*
X306356Y229833D01*
X306998Y228998D01*
X307833Y228356D01*
X308806Y227953D01*
X309850Y227816D01*
X310895Y227953D01*
X311868Y228356D01*
X312703Y228998D01*
X313344Y229833D01*
X313747Y230806D01*
X313885Y231850D01*
X313747Y232895D01*
X313344Y233868D01*
X312703Y234703D01*
X311890Y235328D01*
Y237850D01*
X311734Y238631D01*
X311292Y239292D01*
X309292Y241292D01*
X308631Y241734D01*
X307850Y241890D01*
X284418D01*
X284218Y242372D01*
X283416Y243416D01*
X282372Y244218D01*
X281890Y244418D01*
Y282373D01*
X282703Y282998D01*
X283344Y283833D01*
X283747Y284806D01*
X283885Y285850D01*
X283747Y286895D01*
X283344Y287868D01*
X282703Y288703D01*
X281868Y289344D01*
X280895Y289747D01*
X279920Y289876D01*
X279850Y289890D01*
D02*
G37*
G36*
X349850Y235885D02*
X348806Y235747D01*
X347833Y235344D01*
X346998Y234703D01*
X346356Y233868D01*
X345953Y232895D01*
X345816Y231850D01*
X345953Y230806D01*
X346356Y229833D01*
X346998Y228998D01*
X347811Y228373D01*
Y226673D01*
X347966Y225893D01*
X348409Y225231D01*
X351231Y222409D01*
X351893Y221966D01*
X352673Y221811D01*
X366372D01*
X367152Y221966D01*
X367814Y222409D01*
X368584Y223179D01*
X369067Y222979D01*
X370372Y222807D01*
X371677Y222979D01*
X372894Y223483D01*
X373938Y224284D01*
X374739Y225329D01*
X375243Y226545D01*
X375415Y227850D01*
X375243Y229156D01*
X374739Y230372D01*
X373938Y231416D01*
X372894Y232218D01*
X371677Y232722D01*
X370372Y232893D01*
X369067Y232722D01*
X367850Y232218D01*
X366806Y231416D01*
X366004Y230372D01*
X365501Y229156D01*
X365329Y227850D01*
X365455Y226890D01*
X364945Y226096D01*
X364690Y225890D01*
X353518D01*
X351969Y227438D01*
X352012Y228467D01*
X352703Y228998D01*
X353344Y229833D01*
X353747Y230806D01*
X353885Y231850D01*
X353747Y232895D01*
X353344Y233868D01*
X352703Y234703D01*
X351868Y235344D01*
X350895Y235747D01*
X349850Y235885D01*
D02*
G37*
G36*
X383850Y218901D02*
X382806Y218763D01*
X381833Y218360D01*
X380998Y217719D01*
X380356Y216883D01*
X379953Y215910D01*
X379816Y214866D01*
X379953Y213822D01*
X380356Y212849D01*
X380998Y212013D01*
X381833Y211372D01*
X382806Y210969D01*
X383850Y210832D01*
X384895Y210969D01*
X385868Y211372D01*
X386703Y212013D01*
X387344Y212849D01*
X387747Y213822D01*
X387885Y214866D01*
X387747Y215910D01*
X387344Y216883D01*
X386703Y217719D01*
X385868Y218360D01*
X384895Y218763D01*
X383850Y218901D01*
D02*
G37*
G36*
X373850D02*
X372806Y218763D01*
X371833Y218360D01*
X370998Y217719D01*
X370356Y216883D01*
X369953Y215910D01*
X369816Y214866D01*
X369953Y213822D01*
X370356Y212849D01*
X370998Y212013D01*
X371833Y211372D01*
X372806Y210969D01*
X373850Y210832D01*
X374895Y210969D01*
X375868Y211372D01*
X376703Y212013D01*
X377344Y212849D01*
X377747Y213822D01*
X377885Y214866D01*
X377747Y215910D01*
X377344Y216883D01*
X376703Y217719D01*
X375868Y218360D01*
X374895Y218763D01*
X373850Y218901D01*
D02*
G37*
G36*
X363850D02*
X362806Y218763D01*
X361833Y218360D01*
X360998Y217719D01*
X360356Y216883D01*
X359953Y215910D01*
X359816Y214866D01*
X359953Y213822D01*
X360356Y212849D01*
X360998Y212013D01*
X361833Y211372D01*
X362806Y210969D01*
X363850Y210832D01*
X364895Y210969D01*
X365868Y211372D01*
X366703Y212013D01*
X367344Y212849D01*
X367747Y213822D01*
X367885Y214866D01*
X367747Y215910D01*
X367344Y216883D01*
X366703Y217719D01*
X365868Y218360D01*
X364895Y218763D01*
X363850Y218901D01*
D02*
G37*
G36*
X353850D02*
X352806Y218763D01*
X351833Y218360D01*
X350998Y217719D01*
X350356Y216883D01*
X349953Y215910D01*
X349816Y214866D01*
X349953Y213822D01*
X350356Y212849D01*
X350998Y212013D01*
X351833Y211372D01*
X352806Y210969D01*
X353850Y210832D01*
X354895Y210969D01*
X355868Y211372D01*
X356703Y212013D01*
X357344Y212849D01*
X357747Y213822D01*
X357885Y214866D01*
X357747Y215910D01*
X357344Y216883D01*
X356703Y217719D01*
X355868Y218360D01*
X354895Y218763D01*
X353850Y218901D01*
D02*
G37*
G36*
X339850Y235885D02*
X338806Y235747D01*
X337833Y235344D01*
X336998Y234703D01*
X336356Y233868D01*
X335953Y232895D01*
X335816Y231850D01*
X335953Y230806D01*
X336356Y229833D01*
X336998Y228998D01*
X337811Y228373D01*
Y225850D01*
X337966Y225070D01*
X338408Y224409D01*
X341811Y221006D01*
Y218343D01*
X340998Y217719D01*
X340356Y216883D01*
X339953Y215910D01*
X339816Y214866D01*
X339953Y213822D01*
X340356Y212849D01*
X340998Y212013D01*
X341833Y211372D01*
X342806Y210969D01*
X343850Y210832D01*
X344895Y210969D01*
X345868Y211372D01*
X346703Y212013D01*
X347344Y212849D01*
X347747Y213822D01*
X347885Y214866D01*
X347747Y215910D01*
X347344Y216883D01*
X346703Y217719D01*
X345890Y218343D01*
Y221850D01*
X345734Y222631D01*
X345292Y223292D01*
X341890Y226695D01*
Y228373D01*
X342703Y228998D01*
X343344Y229833D01*
X343747Y230806D01*
X343885Y231850D01*
X343747Y232895D01*
X343344Y233868D01*
X342703Y234703D01*
X341868Y235344D01*
X340895Y235747D01*
X339850Y235885D01*
D02*
G37*
G36*
X333850Y218901D02*
X332806Y218763D01*
X331833Y218360D01*
X330998Y217719D01*
X330356Y216883D01*
X329953Y215910D01*
X329816Y214866D01*
X329953Y213822D01*
X330356Y212849D01*
X330998Y212013D01*
X331833Y211372D01*
X332806Y210969D01*
X333850Y210832D01*
X334895Y210969D01*
X335868Y211372D01*
X336703Y212013D01*
X337344Y212849D01*
X337747Y213822D01*
X337885Y214866D01*
X337747Y215910D01*
X337344Y216883D01*
X336703Y217719D01*
X335868Y218360D01*
X334895Y218763D01*
X333850Y218901D01*
D02*
G37*
G36*
X329850Y235885D02*
X328806Y235747D01*
X327833Y235344D01*
X326998Y234703D01*
X326356Y233868D01*
X325953Y232895D01*
X325816Y231850D01*
X325953Y230806D01*
X326356Y229833D01*
X326998Y228998D01*
X327028Y228975D01*
X327093Y227977D01*
X322409Y223292D01*
X321966Y222631D01*
X321811Y221850D01*
Y218343D01*
X320998Y217719D01*
X320356Y216883D01*
X319953Y215910D01*
X319816Y214866D01*
X319953Y213822D01*
X320356Y212849D01*
X320998Y212013D01*
X321833Y211372D01*
X322806Y210969D01*
X323850Y210832D01*
X324895Y210969D01*
X325868Y211372D01*
X326703Y212013D01*
X327344Y212849D01*
X327747Y213822D01*
X327885Y214866D01*
X327747Y215910D01*
X327344Y216883D01*
X326703Y217719D01*
X325890Y218343D01*
Y221006D01*
X331292Y226409D01*
X331734Y227070D01*
X331890Y227850D01*
Y228373D01*
X332703Y228998D01*
X333344Y229833D01*
X333747Y230806D01*
X333885Y231850D01*
X333747Y232895D01*
X333344Y233868D01*
X332703Y234703D01*
X331868Y235344D01*
X330895Y235747D01*
X329850Y235885D01*
D02*
G37*
G36*
X319850D02*
X318806Y235747D01*
X317833Y235344D01*
X316998Y234703D01*
X316356Y233868D01*
X315953Y232895D01*
X315816Y231850D01*
X315953Y230806D01*
X316356Y229833D01*
X316998Y228998D01*
X317027Y228975D01*
X317093Y227977D01*
X312408Y223292D01*
X311966Y222631D01*
X311811Y221850D01*
Y218343D01*
X310998Y217719D01*
X310356Y216883D01*
X309953Y215910D01*
X309816Y214866D01*
X309953Y213822D01*
X310356Y212849D01*
X310998Y212013D01*
X311833Y211372D01*
X312806Y210969D01*
X313850Y210832D01*
X314895Y210969D01*
X315868Y211372D01*
X316703Y212013D01*
X317344Y212849D01*
X317747Y213822D01*
X317885Y214866D01*
X317747Y215910D01*
X317344Y216883D01*
X316703Y217719D01*
X315890Y218343D01*
Y221006D01*
X321292Y226409D01*
X321734Y227070D01*
X321890Y227850D01*
Y228373D01*
X322703Y228998D01*
X323344Y229833D01*
X323747Y230806D01*
X323885Y231850D01*
X323747Y232895D01*
X323344Y233868D01*
X322703Y234703D01*
X321868Y235344D01*
X320895Y235747D01*
X319850Y235885D01*
D02*
G37*
G36*
X269850Y289890D02*
X269653Y289850D01*
X265850D01*
Y281850D01*
X267811D01*
Y233850D01*
X267966Y233070D01*
X268408Y232408D01*
X276409Y224409D01*
X277070Y223966D01*
X277850Y223811D01*
X299006D01*
X301811Y221006D01*
Y218343D01*
X300998Y217719D01*
X300356Y216883D01*
X299953Y215910D01*
X299816Y214866D01*
X299953Y213822D01*
X300356Y212849D01*
X300998Y212013D01*
X301833Y211372D01*
X302806Y210969D01*
X303850Y210832D01*
X304895Y210969D01*
X305868Y211372D01*
X306703Y212013D01*
X307344Y212849D01*
X307747Y213822D01*
X307885Y214866D01*
X307747Y215910D01*
X307344Y216883D01*
X306703Y217719D01*
X305890Y218343D01*
Y221850D01*
X305734Y222631D01*
X305292Y223292D01*
X301890Y226695D01*
Y228373D01*
X302703Y228998D01*
X303344Y229833D01*
X303747Y230806D01*
X303885Y231850D01*
X303747Y232895D01*
X303344Y233868D01*
X302703Y234703D01*
X301868Y235344D01*
X300895Y235747D01*
X299850Y235885D01*
X298806Y235747D01*
X297833Y235344D01*
X296998Y234703D01*
X296356Y233868D01*
X295953Y232895D01*
X295816Y231850D01*
X295953Y230806D01*
X296356Y229833D01*
X296998Y228998D01*
X297138Y228890D01*
X296799Y227890D01*
X278695D01*
X271890Y234695D01*
Y281850D01*
X273850D01*
Y289850D01*
X270047D01*
X269850Y289890D01*
D02*
G37*
G36*
X293850Y218901D02*
X292806Y218763D01*
X291833Y218360D01*
X290998Y217719D01*
X290356Y216883D01*
X289953Y215910D01*
X289816Y214866D01*
X289953Y213822D01*
X290356Y212849D01*
X290998Y212013D01*
X291833Y211372D01*
X292806Y210969D01*
X293850Y210832D01*
X294895Y210969D01*
X295868Y211372D01*
X296703Y212013D01*
X297344Y212849D01*
X297747Y213822D01*
X297885Y214866D01*
X297747Y215910D01*
X297344Y216883D01*
X296703Y217719D01*
X295868Y218360D01*
X294895Y218763D01*
X293850Y218901D01*
D02*
G37*
G36*
X283850D02*
X282806Y218763D01*
X281833Y218360D01*
X280998Y217719D01*
X280356Y216883D01*
X279953Y215910D01*
X279816Y214866D01*
X279953Y213822D01*
X280356Y212849D01*
X280998Y212013D01*
X281833Y211372D01*
X282806Y210969D01*
X283850Y210832D01*
X284895Y210969D01*
X285868Y211372D01*
X286703Y212013D01*
X287344Y212849D01*
X287747Y213822D01*
X287885Y214866D01*
X287747Y215910D01*
X287344Y216883D01*
X286703Y217719D01*
X285868Y218360D01*
X284895Y218763D01*
X283850Y218901D01*
D02*
G37*
G36*
X273850D02*
X272806Y218763D01*
X271833Y218360D01*
X270998Y217719D01*
X270356Y216883D01*
X269953Y215910D01*
X269816Y214866D01*
X269953Y213822D01*
X270356Y212849D01*
X270998Y212013D01*
X271833Y211372D01*
X272806Y210969D01*
X273850Y210832D01*
X274895Y210969D01*
X275868Y211372D01*
X276703Y212013D01*
X277344Y212849D01*
X277747Y213822D01*
X277885Y214866D01*
X277747Y215910D01*
X277344Y216883D01*
X276703Y217719D01*
X275868Y218360D01*
X274895Y218763D01*
X273850Y218901D01*
D02*
G37*
G36*
X263850D02*
X262806Y218763D01*
X261833Y218360D01*
X260998Y217719D01*
X260356Y216883D01*
X259953Y215910D01*
X259816Y214866D01*
X259953Y213822D01*
X260356Y212849D01*
X260998Y212013D01*
X261833Y211372D01*
X262806Y210969D01*
X263850Y210832D01*
X264895Y210969D01*
X265868Y211372D01*
X266703Y212013D01*
X267344Y212849D01*
X267747Y213822D01*
X267885Y214866D01*
X267747Y215910D01*
X267344Y216883D01*
X266703Y217719D01*
X265868Y218360D01*
X264895Y218763D01*
X263850Y218901D01*
D02*
G37*
G36*
X253850D02*
X252806Y218763D01*
X251833Y218360D01*
X250998Y217719D01*
X250356Y216883D01*
X249953Y215910D01*
X249816Y214866D01*
X249953Y213822D01*
X250356Y212849D01*
X250998Y212013D01*
X251833Y211372D01*
X252806Y210969D01*
X253850Y210832D01*
X254895Y210969D01*
X255868Y211372D01*
X256703Y212013D01*
X257344Y212849D01*
X257747Y213822D01*
X257885Y214866D01*
X257747Y215910D01*
X257344Y216883D01*
X256703Y217719D01*
X255868Y218360D01*
X254895Y218763D01*
X253850Y218901D01*
D02*
G37*
G36*
X243850D02*
X242806Y218763D01*
X241833Y218360D01*
X240998Y217719D01*
X240356Y216883D01*
X239953Y215910D01*
X239816Y214866D01*
X239953Y213822D01*
X240356Y212849D01*
X240998Y212013D01*
X241833Y211372D01*
X242806Y210969D01*
X243850Y210832D01*
X244895Y210969D01*
X245868Y211372D01*
X246703Y212013D01*
X247344Y212849D01*
X247747Y213822D01*
X247885Y214866D01*
X247747Y215910D01*
X247344Y216883D01*
X246703Y217719D01*
X245868Y218360D01*
X244895Y218763D01*
X243850Y218901D01*
D02*
G37*
G36*
X384835Y208755D02*
Y205850D01*
X387739D01*
X387732Y205906D01*
X387331Y206875D01*
X386692Y207708D01*
X385860Y208346D01*
X384891Y208748D01*
X384835Y208755D01*
D02*
G37*
G36*
X374835D02*
Y205850D01*
X377739D01*
X377732Y205906D01*
X377331Y206875D01*
X376692Y207708D01*
X375860Y208346D01*
X374890Y208748D01*
X374835Y208755D01*
D02*
G37*
G36*
X364835D02*
Y205850D01*
X367739D01*
X367732Y205906D01*
X367331Y206875D01*
X366692Y207708D01*
X365860Y208346D01*
X364891Y208748D01*
X364835Y208755D01*
D02*
G37*
G36*
X354835D02*
Y205850D01*
X357739D01*
X357732Y205906D01*
X357331Y206875D01*
X356692Y207708D01*
X355860Y208346D01*
X354890Y208748D01*
X354835Y208755D01*
D02*
G37*
G36*
X344835D02*
Y205850D01*
X347739D01*
X347732Y205906D01*
X347331Y206875D01*
X346692Y207708D01*
X345860Y208346D01*
X344890Y208748D01*
X344835Y208755D01*
D02*
G37*
G36*
X334835D02*
Y205850D01*
X337739D01*
X337732Y205906D01*
X337331Y206875D01*
X336692Y207708D01*
X335860Y208346D01*
X334891Y208748D01*
X334835Y208755D01*
D02*
G37*
G36*
X324835D02*
Y205850D01*
X327739D01*
X327732Y205906D01*
X327331Y206875D01*
X326692Y207708D01*
X325860Y208346D01*
X324890Y208748D01*
X324835Y208755D01*
D02*
G37*
G36*
X314835D02*
Y205850D01*
X317739D01*
X317732Y205906D01*
X317331Y206875D01*
X316692Y207708D01*
X315860Y208346D01*
X314891Y208748D01*
X314835Y208755D01*
D02*
G37*
G36*
X304835D02*
Y205850D01*
X307739D01*
X307732Y205906D01*
X307331Y206875D01*
X306692Y207708D01*
X305860Y208346D01*
X304890Y208748D01*
X304835Y208755D01*
D02*
G37*
G36*
X294835D02*
Y205850D01*
X297739D01*
X297732Y205906D01*
X297331Y206875D01*
X296692Y207708D01*
X295860Y208346D01*
X294890Y208748D01*
X294835Y208755D01*
D02*
G37*
G36*
X284835D02*
Y205850D01*
X287739D01*
X287732Y205906D01*
X287331Y206875D01*
X286692Y207708D01*
X285860Y208346D01*
X284891Y208748D01*
X284835Y208755D01*
D02*
G37*
G36*
X274835D02*
Y205850D01*
X277739D01*
X277732Y205906D01*
X277331Y206875D01*
X276692Y207708D01*
X275860Y208346D01*
X274890Y208748D01*
X274835Y208755D01*
D02*
G37*
G36*
X264835D02*
Y205850D01*
X267739D01*
X267732Y205906D01*
X267331Y206875D01*
X266692Y207708D01*
X265860Y208346D01*
X264891Y208748D01*
X264835Y208755D01*
D02*
G37*
G36*
X254835D02*
Y205850D01*
X257739D01*
X257732Y205906D01*
X257331Y206875D01*
X256692Y207708D01*
X255860Y208346D01*
X254890Y208748D01*
X254835Y208755D01*
D02*
G37*
G36*
X244835D02*
Y205850D01*
X247739D01*
X247732Y205906D01*
X247331Y206875D01*
X246692Y207708D01*
X245860Y208346D01*
X244890Y208748D01*
X244835Y208755D01*
D02*
G37*
G36*
X234835D02*
Y205850D01*
X237739D01*
X237732Y205906D01*
X237331Y206875D01*
X236692Y207708D01*
X235860Y208346D01*
X234891Y208748D01*
X234835Y208755D01*
D02*
G37*
G36*
X382866D02*
X382810Y208748D01*
X381841Y208346D01*
X381009Y207708D01*
X380370Y206875D01*
X379969Y205906D01*
X379961Y205850D01*
X382866D01*
Y208755D01*
D02*
G37*
G36*
X372866D02*
X372810Y208748D01*
X371841Y208346D01*
X371009Y207708D01*
X370370Y206875D01*
X369969Y205906D01*
X369961Y205850D01*
X372866D01*
Y208755D01*
D02*
G37*
G36*
X362866D02*
X362810Y208748D01*
X361841Y208346D01*
X361009Y207708D01*
X360370Y206875D01*
X359969Y205906D01*
X359961Y205850D01*
X362866D01*
Y208755D01*
D02*
G37*
G36*
X352866D02*
X352810Y208748D01*
X351841Y208346D01*
X351009Y207708D01*
X350370Y206875D01*
X349969Y205906D01*
X349961Y205850D01*
X352866D01*
Y208755D01*
D02*
G37*
G36*
X342866D02*
X342810Y208748D01*
X341841Y208346D01*
X341009Y207708D01*
X340370Y206875D01*
X339969Y205906D01*
X339961Y205850D01*
X342866D01*
Y208755D01*
D02*
G37*
G36*
X332866D02*
X332810Y208748D01*
X331841Y208346D01*
X331009Y207708D01*
X330370Y206875D01*
X329969Y205906D01*
X329961Y205850D01*
X332866D01*
Y208755D01*
D02*
G37*
G36*
X322866D02*
X322810Y208748D01*
X321841Y208346D01*
X321009Y207708D01*
X320370Y206875D01*
X319969Y205906D01*
X319961Y205850D01*
X322866D01*
Y208755D01*
D02*
G37*
G36*
X312866D02*
X312810Y208748D01*
X311841Y208346D01*
X311009Y207708D01*
X310370Y206875D01*
X309969Y205906D01*
X309961Y205850D01*
X312866D01*
Y208755D01*
D02*
G37*
G36*
X302866D02*
X302810Y208748D01*
X301841Y208346D01*
X301009Y207708D01*
X300370Y206875D01*
X299969Y205906D01*
X299961Y205850D01*
X302866D01*
Y208755D01*
D02*
G37*
G36*
X292866D02*
X292810Y208748D01*
X291841Y208346D01*
X291009Y207708D01*
X290370Y206875D01*
X289969Y205906D01*
X289961Y205850D01*
X292866D01*
Y208755D01*
D02*
G37*
G36*
X282866D02*
X282810Y208748D01*
X281841Y208346D01*
X281009Y207708D01*
X280370Y206875D01*
X279969Y205906D01*
X279961Y205850D01*
X282866D01*
Y208755D01*
D02*
G37*
G36*
X272866D02*
X272810Y208748D01*
X271841Y208346D01*
X271009Y207708D01*
X270370Y206875D01*
X269969Y205906D01*
X269961Y205850D01*
X272866D01*
Y208755D01*
D02*
G37*
G36*
X262866D02*
X262810Y208748D01*
X261841Y208346D01*
X261009Y207708D01*
X260370Y206875D01*
X259969Y205906D01*
X259961Y205850D01*
X262866D01*
Y208755D01*
D02*
G37*
G36*
X252866D02*
X252810Y208748D01*
X251841Y208346D01*
X251009Y207708D01*
X250370Y206875D01*
X249969Y205906D01*
X249961Y205850D01*
X252866D01*
Y208755D01*
D02*
G37*
G36*
X242866D02*
X242810Y208748D01*
X241841Y208346D01*
X241009Y207708D01*
X240370Y206875D01*
X239969Y205906D01*
X239961Y205850D01*
X242866D01*
Y208755D01*
D02*
G37*
G36*
X392866Y208850D02*
X389866D01*
Y205850D01*
X392866D01*
Y208850D01*
D02*
G37*
%LPD*%
D10*
X357850Y273850D02*
X367850D01*
X349850Y265850D02*
X357850Y273850D01*
X267850Y295850D02*
X269850Y297850D01*
X352673Y223850D02*
X366372D01*
X349850Y226673D02*
X352673Y223850D01*
X366372D02*
X370372Y227850D01*
X349850Y226673D02*
Y231850D01*
X277850Y225850D02*
X299850D01*
X269850Y233850D02*
X277850Y225850D01*
X299850D02*
X303850Y221850D01*
X269850Y233850D02*
Y287850D01*
X279850Y237850D02*
Y287850D01*
Y237850D02*
X281850Y239850D01*
X307850D02*
X309850Y237850D01*
X281850Y239850D02*
X307850D01*
X309850Y231850D02*
Y237850D01*
X321850Y263850D02*
X329850Y271850D01*
X321850Y261850D02*
Y263850D01*
X289850Y257850D02*
Y285850D01*
Y257850D02*
X297850Y249850D01*
X323850D01*
X329850Y255850D01*
Y261850D01*
X261850Y295850D02*
X267850D01*
X253850Y287850D02*
X261850Y295850D01*
X243850Y287850D02*
X253850D01*
X299850Y273850D02*
Y297850D01*
X295850Y301850D02*
X299850Y297850D01*
X283850Y301850D02*
X295850D01*
X279850Y297850D02*
X283850Y301850D01*
X349850Y261850D02*
Y265850D01*
X343850Y215850D02*
Y221850D01*
X339850Y225850D02*
X343850Y221850D01*
X339850Y225850D02*
Y231850D01*
X299850Y225850D02*
Y231850D01*
X303850Y215850D02*
Y221850D01*
X353850Y279850D02*
X359850Y285850D01*
X347850Y273850D02*
X353850Y279850D01*
X347850Y285850D02*
X353850Y279850D01*
X341850D02*
X347850Y273850D01*
X335850Y285850D02*
X341850Y279850D01*
X347850Y285850D01*
Y273850D02*
Y285850D01*
X339850Y265850D02*
X347850Y273850D01*
X329850Y291850D02*
X335850Y297850D01*
X323850Y285850D02*
X329850Y291850D01*
X335850Y285850D01*
X323850Y297850D02*
X329850Y291850D01*
X341850D02*
X347850Y285850D01*
X335850Y297850D02*
X341850Y291850D01*
X347850Y297850D01*
X335850Y285850D02*
X341850Y291850D01*
X353850D02*
X357850Y295850D01*
X347850Y285850D02*
X353850Y291850D01*
X359850Y285850D01*
X347850Y297850D02*
X353850Y291850D01*
X335850Y297850D02*
X347850D01*
X317850Y291850D02*
X323850Y297850D01*
X311850Y285850D02*
X317850Y291850D01*
X323850Y285850D01*
X311850Y297850D02*
X317850Y291850D01*
X335850Y285850D02*
X343850D01*
X347850D02*
Y297850D01*
X335850Y285850D02*
Y297850D01*
X311850D02*
X323850D01*
X335850D01*
X323850Y285850D02*
Y297850D01*
Y285850D02*
X335850D01*
X311850D02*
X323850D01*
X339850Y261850D02*
Y265850D01*
X311850Y285850D02*
Y297850D01*
X347850Y285850D02*
X359850D01*
Y297850D01*
X347850D02*
X359850D01*
X299850Y273850D02*
X317850D01*
X299850Y261850D02*
Y273850D01*
X369850Y261850D02*
X373850Y257850D01*
X359850Y261850D02*
X369850D01*
X387850Y237850D02*
Y243850D01*
X373850Y257850D02*
X387850Y243850D01*
X237850Y247850D02*
X247850Y237850D01*
X237850Y247850D02*
Y281850D01*
X243850Y287850D01*
X329850Y227850D02*
Y231850D01*
X323850Y221850D02*
X329850Y227850D01*
X323850Y215850D02*
Y221850D01*
X313850Y215850D02*
Y221850D01*
X319850Y227850D01*
Y231850D01*
X530835Y273850D02*
X540835D01*
X522835Y265850D02*
X530835Y273850D01*
X440835Y295850D02*
X442835Y297850D01*
X525658Y223850D02*
X539356D01*
X522835Y226673D02*
X525658Y223850D01*
X539356D02*
X543356Y227850D01*
X522835Y226673D02*
Y231850D01*
X450835Y225850D02*
X472835D01*
X442835Y233850D02*
X450835Y225850D01*
X472835D02*
X476835Y221850D01*
X442835Y233850D02*
Y287850D01*
X452835Y237850D02*
Y287850D01*
Y237850D02*
X454835Y239850D01*
X480835D02*
X482835Y237850D01*
X454835Y239850D02*
X480835D01*
X482835Y231850D02*
Y237850D01*
X494835Y263850D02*
X502835Y271850D01*
X494835Y261850D02*
Y263850D01*
X462835Y257850D02*
Y285850D01*
Y257850D02*
X470835Y249850D01*
X496835D01*
X502835Y255850D01*
Y261850D01*
X434835Y295850D02*
X440835D01*
X426835Y287850D02*
X434835Y295850D01*
X416835Y287850D02*
X426835D01*
X472835Y273850D02*
Y297850D01*
X468835Y301850D02*
X472835Y297850D01*
X456835Y301850D02*
X468835D01*
X452835Y297850D02*
X456835Y301850D01*
X522835Y261850D02*
Y265850D01*
X516835Y215850D02*
Y221850D01*
X512835Y225850D02*
X516835Y221850D01*
X512835Y225850D02*
Y231850D01*
X472835Y225850D02*
Y231850D01*
X476835Y215850D02*
Y221850D01*
X526835Y279850D02*
X532835Y285850D01*
X520835Y273850D02*
X526835Y279850D01*
X520835Y285850D02*
X526835Y279850D01*
X514835D02*
X520835Y273850D01*
X508835Y285850D02*
X514835Y279850D01*
X520835Y285850D01*
Y273850D02*
Y285850D01*
X512835Y265850D02*
X520835Y273850D01*
X502835Y291850D02*
X508835Y297850D01*
X496835Y285850D02*
X502835Y291850D01*
X508835Y285850D01*
X496835Y297850D02*
X502835Y291850D01*
X514835D02*
X520835Y285850D01*
X508835Y297850D02*
X514835Y291850D01*
X520835Y297850D01*
X508835Y285850D02*
X514835Y291850D01*
X526835D02*
X530835Y295850D01*
X520835Y285850D02*
X526835Y291850D01*
X532835Y285850D01*
X520835Y297850D02*
X526835Y291850D01*
X508835Y297850D02*
X520835D01*
X490835Y291850D02*
X496835Y297850D01*
X484835Y285850D02*
X490835Y291850D01*
X496835Y285850D01*
X484835Y297850D02*
X490835Y291850D01*
X508835Y285850D02*
X516835D01*
X520835D02*
Y297850D01*
X508835Y285850D02*
Y297850D01*
X484835D02*
X496835D01*
X508835D01*
X496835Y285850D02*
Y297850D01*
Y285850D02*
X508835D01*
X484835D02*
X496835D01*
X512835Y261850D02*
Y265850D01*
X484835Y285850D02*
Y297850D01*
X520835Y285850D02*
X532835D01*
Y297850D01*
X520835D02*
X532835D01*
X472835Y273850D02*
X490835D01*
X472835Y261850D02*
Y273850D01*
X542835Y261850D02*
X546835Y257850D01*
X532835Y261850D02*
X542835D01*
X560835Y237850D02*
Y243850D01*
X546835Y257850D02*
X560835Y243850D01*
X410835Y247850D02*
X420835Y237850D01*
X410835Y247850D02*
Y281850D01*
X416835Y287850D01*
X502835Y227850D02*
Y231850D01*
X496835Y221850D02*
X502835Y227850D01*
X496835Y215850D02*
Y221850D01*
X486835Y215850D02*
Y221850D01*
X492835Y227850D01*
Y231850D01*
X357850Y392835D02*
X367850D01*
X349850Y384835D02*
X357850Y392835D01*
X267850Y414835D02*
X269850Y416835D01*
X352673Y342835D02*
X366372D01*
X349850Y345657D02*
X352673Y342835D01*
X366372D02*
X370372Y346835D01*
X349850Y345657D02*
Y350835D01*
X277850Y344835D02*
X299850D01*
X269850Y352835D02*
X277850Y344835D01*
X299850D02*
X303850Y340835D01*
X269850Y352835D02*
Y406835D01*
X279850Y356835D02*
Y406835D01*
Y356835D02*
X281850Y358835D01*
X307850D02*
X309850Y356835D01*
X281850Y358835D02*
X307850D01*
X309850Y350835D02*
Y356835D01*
X321850Y382835D02*
X329850Y390835D01*
X321850Y380835D02*
Y382835D01*
X289850Y376835D02*
Y404835D01*
Y376835D02*
X297850Y368835D01*
X323850D01*
X329850Y374835D01*
Y380835D01*
X261850Y414835D02*
X267850D01*
X253850Y406835D02*
X261850Y414835D01*
X243850Y406835D02*
X253850D01*
X299850Y392835D02*
Y416835D01*
X295850Y420835D02*
X299850Y416835D01*
X283850Y420835D02*
X295850D01*
X279850Y416835D02*
X283850Y420835D01*
X349850Y380835D02*
Y384835D01*
X343850Y334835D02*
Y340835D01*
X339850Y344835D02*
X343850Y340835D01*
X339850Y344835D02*
Y350835D01*
X299850Y344835D02*
Y350835D01*
X303850Y334835D02*
Y340835D01*
X353850Y398835D02*
X359850Y404835D01*
X347850Y392835D02*
X353850Y398835D01*
X347850Y404835D02*
X353850Y398835D01*
X341850D02*
X347850Y392835D01*
X335850Y404835D02*
X341850Y398835D01*
X347850Y404835D01*
Y392835D02*
Y404835D01*
X339850Y384835D02*
X347850Y392835D01*
X329850Y410835D02*
X335850Y416835D01*
X323850Y404835D02*
X329850Y410835D01*
X335850Y404835D01*
X323850Y416835D02*
X329850Y410835D01*
X341850D02*
X347850Y404835D01*
X335850Y416835D02*
X341850Y410835D01*
X347850Y416835D01*
X335850Y404835D02*
X341850Y410835D01*
X353850D02*
X357850Y414835D01*
X347850Y404835D02*
X353850Y410835D01*
X359850Y404835D01*
X347850Y416835D02*
X353850Y410835D01*
X335850Y416835D02*
X347850D01*
X317850Y410835D02*
X323850Y416835D01*
X311850Y404835D02*
X317850Y410835D01*
X323850Y404835D01*
X311850Y416835D02*
X317850Y410835D01*
X335850Y404835D02*
X343850D01*
X347850D02*
Y416835D01*
X335850Y404835D02*
Y416835D01*
X311850D02*
X323850D01*
X335850D01*
X323850Y404835D02*
Y416835D01*
Y404835D02*
X335850D01*
X311850D02*
X323850D01*
X339850Y380835D02*
Y384835D01*
X311850Y404835D02*
Y416835D01*
X347850Y404835D02*
X359850D01*
Y416835D01*
X347850D02*
X359850D01*
X299850Y392835D02*
X317850D01*
X299850Y380835D02*
Y392835D01*
X369850Y380835D02*
X373850Y376835D01*
X359850Y380835D02*
X369850D01*
X387850Y356835D02*
Y362835D01*
X373850Y376835D02*
X387850Y362835D01*
X237850Y366835D02*
X247850Y356835D01*
X237850Y366835D02*
Y400835D01*
X243850Y406835D01*
X329850Y346835D02*
Y350835D01*
X323850Y340835D02*
X329850Y346835D01*
X323850Y334835D02*
Y340835D01*
X313850Y334835D02*
Y340835D01*
X319850Y346835D01*
Y350835D01*
X530835Y392835D02*
X540835D01*
X522835Y384835D02*
X530835Y392835D01*
X440835Y414835D02*
X442835Y416835D01*
X525658Y342835D02*
X539356D01*
X522835Y345657D02*
X525658Y342835D01*
X539356D02*
X543356Y346835D01*
X522835Y345657D02*
Y350835D01*
X450835Y344835D02*
X472835D01*
X442835Y352835D02*
X450835Y344835D01*
X472835D02*
X476835Y340835D01*
X442835Y352835D02*
Y406835D01*
X452835Y356835D02*
Y406835D01*
Y356835D02*
X454835Y358835D01*
X480835D02*
X482835Y356835D01*
X454835Y358835D02*
X480835D01*
X482835Y350835D02*
Y356835D01*
X494835Y382835D02*
X502835Y390835D01*
X494835Y380835D02*
Y382835D01*
X462835Y376835D02*
Y404835D01*
Y376835D02*
X470835Y368835D01*
X496835D01*
X502835Y374835D01*
Y380835D01*
X434835Y414835D02*
X440835D01*
X426835Y406835D02*
X434835Y414835D01*
X416835Y406835D02*
X426835D01*
X472835Y392835D02*
Y416835D01*
X468835Y420835D02*
X472835Y416835D01*
X456835Y420835D02*
X468835D01*
X452835Y416835D02*
X456835Y420835D01*
X522835Y380835D02*
Y384835D01*
X516835Y334835D02*
Y340835D01*
X512835Y344835D02*
X516835Y340835D01*
X512835Y344835D02*
Y350835D01*
X472835Y344835D02*
Y350835D01*
X476835Y334835D02*
Y340835D01*
X526835Y398835D02*
X532835Y404835D01*
X520835Y392835D02*
X526835Y398835D01*
X520835Y404835D02*
X526835Y398835D01*
X514835D02*
X520835Y392835D01*
X508835Y404835D02*
X514835Y398835D01*
X520835Y404835D01*
Y392835D02*
Y404835D01*
X512835Y384835D02*
X520835Y392835D01*
X502835Y410835D02*
X508835Y416835D01*
X496835Y404835D02*
X502835Y410835D01*
X508835Y404835D01*
X496835Y416835D02*
X502835Y410835D01*
X514835D02*
X520835Y404835D01*
X508835Y416835D02*
X514835Y410835D01*
X520835Y416835D01*
X508835Y404835D02*
X514835Y410835D01*
X526835D02*
X530835Y414835D01*
X520835Y404835D02*
X526835Y410835D01*
X532835Y404835D01*
X520835Y416835D02*
X526835Y410835D01*
X508835Y416835D02*
X520835D01*
X490835Y410835D02*
X496835Y416835D01*
X484835Y404835D02*
X490835Y410835D01*
X496835Y404835D01*
X484835Y416835D02*
X490835Y410835D01*
X508835Y404835D02*
X516835D01*
X520835D02*
Y416835D01*
X508835Y404835D02*
Y416835D01*
X484835D02*
X496835D01*
X508835D01*
X496835Y404835D02*
Y416835D01*
Y404835D02*
X508835D01*
X484835D02*
X496835D01*
X512835Y380835D02*
Y384835D01*
X484835Y404835D02*
Y416835D01*
X520835Y404835D02*
X532835D01*
Y416835D01*
X520835D02*
X532835D01*
X472835Y392835D02*
X490835D01*
X472835Y380835D02*
Y392835D01*
X542835Y380835D02*
X546835Y376835D01*
X532835Y380835D02*
X542835D01*
X560835Y356835D02*
Y362835D01*
X546835Y376835D02*
X560835Y362835D01*
X410835Y366835D02*
X420835Y356835D01*
X410835Y366835D02*
Y400835D01*
X416835Y406835D01*
X502835Y346835D02*
Y350835D01*
X496835Y340835D02*
X502835Y346835D01*
X496835Y334835D02*
Y340835D01*
X486835Y334835D02*
Y340835D01*
X492835Y346835D01*
Y350835D01*
D11*
X375850Y309850D02*
X387850Y297850D01*
X259850Y309850D02*
X375850D01*
X247850Y297850D02*
X259850Y309850D01*
X548835D02*
X560835Y297850D01*
X432835Y309850D02*
X548835D01*
X420835Y297850D02*
X432835Y309850D01*
X375850Y428835D02*
X387850Y416835D01*
X259850Y428835D02*
X375850D01*
X247850Y416835D02*
X259850Y428835D01*
X548835D02*
X560835Y416835D01*
X432835Y428835D02*
X548835D01*
X420835Y416835D02*
X432835Y428835D01*
D12*
X373850Y297850D02*
D03*
X370372Y227850D02*
D03*
X247850Y277850D02*
D03*
Y257850D02*
D03*
Y237850D02*
D03*
Y297850D02*
D03*
X387850Y237850D02*
D03*
Y297850D02*
D03*
Y277850D02*
D03*
Y257850D02*
D03*
X367850Y273850D02*
D03*
X329850D02*
D03*
X317850D02*
D03*
X279850Y239850D02*
D03*
X546835Y297850D02*
D03*
X543356Y227850D02*
D03*
X420835Y277850D02*
D03*
Y257850D02*
D03*
Y237850D02*
D03*
Y297850D02*
D03*
X560835Y237850D02*
D03*
Y297850D02*
D03*
Y277850D02*
D03*
Y257850D02*
D03*
X540835Y273850D02*
D03*
X502835D02*
D03*
X490835D02*
D03*
X452835Y239850D02*
D03*
X373850Y416835D02*
D03*
X370372Y346835D02*
D03*
X247850Y396835D02*
D03*
Y376835D02*
D03*
Y356835D02*
D03*
Y416835D02*
D03*
X387850Y356835D02*
D03*
Y416835D02*
D03*
Y396835D02*
D03*
Y376835D02*
D03*
X367850Y392835D02*
D03*
X329850D02*
D03*
X317850D02*
D03*
X279850Y358835D02*
D03*
X546835Y416835D02*
D03*
X543356Y346835D02*
D03*
X420835Y396835D02*
D03*
Y376835D02*
D03*
Y356835D02*
D03*
Y416835D02*
D03*
X560835Y356835D02*
D03*
Y416835D02*
D03*
Y396835D02*
D03*
Y376835D02*
D03*
X540835Y392835D02*
D03*
X502835D02*
D03*
X490835D02*
D03*
X452835Y358835D02*
D03*
D13*
X393850Y204866D02*
D03*
X359850Y261850D02*
D03*
X269850Y285850D02*
D03*
X566835Y204866D02*
D03*
X532835Y261850D02*
D03*
X442835Y285850D02*
D03*
X393850Y323850D02*
D03*
X359850Y380835D02*
D03*
X269850Y404835D02*
D03*
X566835Y323850D02*
D03*
X532835Y380835D02*
D03*
X442835Y404835D02*
D03*
D14*
X233850Y214866D02*
D03*
X393850D02*
D03*
X383850Y204866D02*
D03*
Y214866D02*
D03*
X373850Y204866D02*
D03*
Y214866D02*
D03*
X363850Y204866D02*
D03*
X353850D02*
D03*
Y214866D02*
D03*
X343850Y204866D02*
D03*
Y214866D02*
D03*
X333850Y204866D02*
D03*
Y214866D02*
D03*
X323850Y204866D02*
D03*
Y214866D02*
D03*
X313850Y204866D02*
D03*
Y214866D02*
D03*
X303850Y204866D02*
D03*
Y214866D02*
D03*
X293850Y204866D02*
D03*
Y214866D02*
D03*
X283850Y204866D02*
D03*
Y214866D02*
D03*
X273850Y204866D02*
D03*
Y214866D02*
D03*
X263850Y204866D02*
D03*
Y214866D02*
D03*
X253850Y204866D02*
D03*
Y214866D02*
D03*
X243850Y204866D02*
D03*
Y214866D02*
D03*
X233850Y204866D02*
D03*
X363850Y214866D02*
D03*
X349850Y261850D02*
D03*
X339850D02*
D03*
X329850D02*
D03*
X319850D02*
D03*
X309850D02*
D03*
X299850D02*
D03*
Y231850D02*
D03*
X309850D02*
D03*
X319850D02*
D03*
X329850D02*
D03*
X339850D02*
D03*
X349850D02*
D03*
X359850D02*
D03*
X373850Y257850D02*
D03*
Y237850D02*
D03*
X289850Y295850D02*
D03*
Y285850D02*
D03*
X279850Y295850D02*
D03*
Y285850D02*
D03*
X269850Y295850D02*
D03*
X406835Y214866D02*
D03*
X566835D02*
D03*
X556835Y204866D02*
D03*
Y214866D02*
D03*
X546835Y204866D02*
D03*
Y214866D02*
D03*
X536835Y204866D02*
D03*
X526835D02*
D03*
Y214866D02*
D03*
X516835Y204866D02*
D03*
Y214866D02*
D03*
X506835Y204866D02*
D03*
Y214866D02*
D03*
X496835Y204866D02*
D03*
Y214866D02*
D03*
X486835Y204866D02*
D03*
Y214866D02*
D03*
X476835Y204866D02*
D03*
Y214866D02*
D03*
X466835Y204866D02*
D03*
Y214866D02*
D03*
X456835Y204866D02*
D03*
Y214866D02*
D03*
X446835Y204866D02*
D03*
Y214866D02*
D03*
X436835Y204866D02*
D03*
Y214866D02*
D03*
X426835Y204866D02*
D03*
Y214866D02*
D03*
X416835Y204866D02*
D03*
Y214866D02*
D03*
X406835Y204866D02*
D03*
X536835Y214866D02*
D03*
X522835Y261850D02*
D03*
X512835D02*
D03*
X502835D02*
D03*
X492835D02*
D03*
X482835D02*
D03*
X472835D02*
D03*
Y231850D02*
D03*
X482835D02*
D03*
X492835D02*
D03*
X502835D02*
D03*
X512835D02*
D03*
X522835D02*
D03*
X532835D02*
D03*
X546835Y257850D02*
D03*
Y237850D02*
D03*
X462835Y295850D02*
D03*
Y285850D02*
D03*
X452835Y295850D02*
D03*
Y285850D02*
D03*
X442835Y295850D02*
D03*
X233850Y333850D02*
D03*
X393850D02*
D03*
X383850Y323850D02*
D03*
Y333850D02*
D03*
X373850Y323850D02*
D03*
Y333850D02*
D03*
X363850Y323850D02*
D03*
X353850D02*
D03*
Y333850D02*
D03*
X343850Y323850D02*
D03*
Y333850D02*
D03*
X333850Y323850D02*
D03*
Y333850D02*
D03*
X323850Y323850D02*
D03*
Y333850D02*
D03*
X313850Y323850D02*
D03*
Y333850D02*
D03*
X303850Y323850D02*
D03*
Y333850D02*
D03*
X293850Y323850D02*
D03*
Y333850D02*
D03*
X283850Y323850D02*
D03*
Y333850D02*
D03*
X273850Y323850D02*
D03*
Y333850D02*
D03*
X263850Y323850D02*
D03*
Y333850D02*
D03*
X253850Y323850D02*
D03*
Y333850D02*
D03*
X243850Y323850D02*
D03*
Y333850D02*
D03*
X233850Y323850D02*
D03*
X363850Y333850D02*
D03*
X349850Y380835D02*
D03*
X339850D02*
D03*
X329850D02*
D03*
X319850D02*
D03*
X309850D02*
D03*
X299850D02*
D03*
Y350835D02*
D03*
X309850D02*
D03*
X319850D02*
D03*
X329850D02*
D03*
X339850D02*
D03*
X349850D02*
D03*
X359850D02*
D03*
X373850Y376835D02*
D03*
Y356835D02*
D03*
X289850Y414835D02*
D03*
Y404835D02*
D03*
X279850Y414835D02*
D03*
Y404835D02*
D03*
X269850Y414835D02*
D03*
X406835Y333850D02*
D03*
X566835D02*
D03*
X556835Y323850D02*
D03*
Y333850D02*
D03*
X546835Y323850D02*
D03*
Y333850D02*
D03*
X536835Y323850D02*
D03*
X526835D02*
D03*
Y333850D02*
D03*
X516835Y323850D02*
D03*
Y333850D02*
D03*
X506835Y323850D02*
D03*
Y333850D02*
D03*
X496835Y323850D02*
D03*
Y333850D02*
D03*
X486835Y323850D02*
D03*
Y333850D02*
D03*
X476835Y323850D02*
D03*
Y333850D02*
D03*
X466835Y323850D02*
D03*
Y333850D02*
D03*
X456835Y323850D02*
D03*
Y333850D02*
D03*
X446835Y323850D02*
D03*
Y333850D02*
D03*
X436835Y323850D02*
D03*
Y333850D02*
D03*
X426835Y323850D02*
D03*
Y333850D02*
D03*
X416835Y323850D02*
D03*
Y333850D02*
D03*
X406835Y323850D02*
D03*
X536835Y333850D02*
D03*
X522835Y380835D02*
D03*
X512835D02*
D03*
X502835D02*
D03*
X492835D02*
D03*
X482835D02*
D03*
X472835D02*
D03*
Y350835D02*
D03*
X482835D02*
D03*
X492835D02*
D03*
X502835D02*
D03*
X512835D02*
D03*
X522835D02*
D03*
X532835D02*
D03*
X546835Y376835D02*
D03*
Y356835D02*
D03*
X462835Y414835D02*
D03*
Y404835D02*
D03*
X452835Y414835D02*
D03*
Y404835D02*
D03*
X442835Y414835D02*
D03*
D15*
X311850Y285850D02*
D03*
X323850D02*
D03*
X335850D02*
D03*
X347850D02*
D03*
X311850Y297850D02*
D03*
X323850D02*
D03*
X335850D02*
D03*
X347850D02*
D03*
X359850D02*
D03*
Y285850D02*
D03*
X484835D02*
D03*
X496835D02*
D03*
X508835D02*
D03*
X520835D02*
D03*
X484835Y297850D02*
D03*
X496835D02*
D03*
X508835D02*
D03*
X520835D02*
D03*
X532835D02*
D03*
Y285850D02*
D03*
X311850Y404835D02*
D03*
X323850D02*
D03*
X335850D02*
D03*
X347850D02*
D03*
X311850Y416835D02*
D03*
X323850D02*
D03*
X335850D02*
D03*
X347850D02*
D03*
X359850D02*
D03*
Y404835D02*
D03*
X484835D02*
D03*
X496835D02*
D03*
X508835D02*
D03*
X520835D02*
D03*
X484835Y416835D02*
D03*
X496835D02*
D03*
X508835D02*
D03*
X520835D02*
D03*
X532835D02*
D03*
Y404835D02*
D03*
M02*
